<svg width="1138" height="151" viewBox="0 0 1138 151" fill="none" xmlns="http://www.w3.org/2000/svg">
<path d="M4 40H1129" stroke="black" stroke-width="2"/>
<circle cx="41" cy="40" r="40" fill="#AE0168"/>
<path d="M41.4997 19.2229L61.8934 54.4583H21.1059L41.4997 19.2229ZM16.4205 51.75C14.3351 55.3521 16.9351 59.875 21.1059 59.875H61.8934C66.0643 59.875 68.6643 55.3521 66.5788 51.75L46.1851 16.5146C44.0997 12.9125 38.8997 12.9125 36.8143 16.5146L16.4205 51.75ZM38.7913 32.7916V38.2083C38.7913 39.6979 40.0101 40.9166 41.4997 40.9166C42.9893 40.9166 44.208 39.6979 44.208 38.2083V32.7916C44.208 31.3021 42.9893 30.0833 41.4997 30.0833C40.0101 30.0833 38.7913 31.3021 38.7913 32.7916ZM38.7913 46.3333H44.208V51.75H38.7913V46.3333Z" fill="white"/>
<path d="M7.31273 107C8.0194 107 8.67273 107.193 9.27273 107.58C9.87274 107.953 10.3527 108.467 10.7127 109.12C11.0727 109.773 11.2527 110.507 11.2527 111.32C11.2527 112.133 11.0727 112.873 10.7127 113.54C10.3527 114.193 9.87274 114.72 9.27273 115.12C8.67273 115.507 8.0194 115.7 7.31273 115.7H3.45273L3.61273 115.38V119.98C3.61273 120.273 3.5194 120.52 3.33273 120.72C3.1594 120.907 2.92607 121 2.63273 121C2.35273 121 2.1194 120.907 1.93273 120.72C1.7594 120.52 1.67273 120.273 1.67273 119.98V108.02C1.67273 107.727 1.77273 107.487 1.97273 107.3C2.17273 107.1 2.41273 107 2.69273 107H7.31273ZM7.31273 113.78C7.6594 113.78 7.97273 113.667 8.25273 113.44C8.54607 113.213 8.7794 112.913 8.95273 112.54C9.1394 112.167 9.23273 111.76 9.23273 111.32C9.23273 110.88 9.1394 110.48 8.95273 110.12C8.7794 109.76 8.54607 109.473 8.25273 109.26C7.97273 109.033 7.6594 108.92 7.31273 108.92H3.41273L3.61273 108.62V114.04L3.43273 113.78H7.31273ZM18.0691 121.2C16.9758 121.2 16.0158 120.973 15.1891 120.52C14.3758 120.053 13.7425 119.42 13.2891 118.62C12.8491 117.807 12.6291 116.88 12.6291 115.84C12.6291 114.667 12.8625 113.667 13.3291 112.84C13.8091 112 14.4291 111.36 15.1891 110.92C15.9625 110.467 16.7758 110.24 17.6291 110.24C18.2691 110.24 18.8825 110.373 19.4691 110.64C20.0691 110.893 20.5958 111.253 21.0491 111.72C21.5025 112.173 21.8625 112.713 22.1291 113.34C22.3958 113.953 22.5358 114.627 22.5491 115.36C22.5358 115.627 22.4291 115.847 22.2291 116.02C22.0291 116.193 21.7958 116.28 21.5291 116.28H13.7691L13.2891 114.58H20.8091L20.4291 114.94V114.44C20.3891 113.973 20.2291 113.567 19.9491 113.22C19.6691 112.86 19.3225 112.587 18.9091 112.4C18.5091 112.2 18.0825 112.1 17.6291 112.1C17.2291 112.1 16.8425 112.167 16.4691 112.3C16.0958 112.42 15.7691 112.62 15.4891 112.9C15.2091 113.18 14.9825 113.553 14.8091 114.02C14.6358 114.473 14.5491 115.04 14.5491 115.72C14.5491 116.453 14.7025 117.093 15.0091 117.64C15.3158 118.187 15.7291 118.613 16.2491 118.92C16.7691 119.213 17.3491 119.36 17.9891 119.36C18.4691 119.36 18.8691 119.313 19.1891 119.22C19.5091 119.113 19.7758 118.987 19.9891 118.84C20.2025 118.693 20.3891 118.553 20.5491 118.42C20.7625 118.3 20.9625 118.24 21.1491 118.24C21.3891 118.24 21.5891 118.327 21.7491 118.5C21.9091 118.66 21.9891 118.853 21.9891 119.08C21.9891 119.373 21.8425 119.64 21.5491 119.88C21.1891 120.227 20.6891 120.533 20.0491 120.8C19.4225 121.067 18.7625 121.2 18.0691 121.2ZM30.1345 110.24C31.0811 110.24 31.8145 110.44 32.3345 110.84C32.8545 111.227 33.2145 111.753 33.4145 112.42C33.6278 113.073 33.7345 113.807 33.7345 114.62V119.98C33.7345 120.273 33.6345 120.52 33.4345 120.72C33.2478 120.907 33.0145 121 32.7345 121C32.4411 121 32.2011 120.907 32.0145 120.72C31.8278 120.52 31.7345 120.273 31.7345 119.98V114.64C31.7345 114.16 31.6678 113.733 31.5345 113.36C31.4011 112.973 31.1678 112.667 30.8345 112.44C30.5145 112.2 30.0611 112.08 29.4745 112.08C28.9278 112.08 28.4478 112.2 28.0345 112.44C27.6211 112.667 27.2945 112.973 27.0545 113.36C26.8278 113.733 26.7145 114.16 26.7145 114.64V119.98C26.7145 120.273 26.6145 120.52 26.4145 120.72C26.2278 120.907 25.9945 121 25.7145 121C25.4211 121 25.1811 120.907 24.9945 120.72C24.8078 120.52 24.7145 120.273 24.7145 119.98V111.5C24.7145 111.207 24.8078 110.967 24.9945 110.78C25.1811 110.58 25.4211 110.48 25.7145 110.48C25.9945 110.48 26.2278 110.58 26.4145 110.78C26.6145 110.967 26.7145 111.207 26.7145 111.5V112.62L26.3545 112.82C26.4478 112.527 26.6078 112.233 26.8345 111.94C27.0745 111.633 27.3611 111.353 27.6945 111.1C28.0278 110.833 28.4011 110.627 28.8145 110.48C29.2278 110.32 29.6678 110.24 30.1345 110.24ZM45.0513 106.2C45.3313 106.2 45.5647 106.293 45.7513 106.48C45.9513 106.667 46.0513 106.913 46.0513 107.22V119.98C46.0513 120.273 45.9513 120.52 45.7513 120.72C45.5647 120.907 45.3313 121 45.0513 121C44.758 121 44.518 120.907 44.3313 120.72C44.1447 120.52 44.0513 120.273 44.0513 119.98V118.54L44.4513 118.56C44.4513 118.8 44.3513 119.073 44.1513 119.38C43.9647 119.673 43.7047 119.96 43.3713 120.24C43.038 120.52 42.6447 120.753 42.1913 120.94C41.738 121.113 41.2513 121.2 40.7313 121.2C39.8247 121.2 38.998 120.967 38.2513 120.5C37.518 120.02 36.938 119.373 36.5113 118.56C36.0847 117.733 35.8713 116.787 35.8713 115.72C35.8713 114.653 36.0847 113.713 36.5113 112.9C36.938 112.073 37.5113 111.427 38.2313 110.96C38.9647 110.48 39.778 110.24 40.6713 110.24C41.2313 110.24 41.7513 110.333 42.2313 110.52C42.7247 110.707 43.1513 110.947 43.5113 111.24C43.8713 111.533 44.1513 111.847 44.3513 112.18C44.5647 112.5 44.6713 112.807 44.6713 113.1L44.0513 113.16V107.22C44.0513 106.927 44.1447 106.687 44.3313 106.5C44.518 106.3 44.758 106.2 45.0513 106.2ZM40.9713 119.36C41.598 119.36 42.1447 119.2 42.6113 118.88C43.0913 118.56 43.4647 118.127 43.7313 117.58C43.998 117.033 44.1313 116.413 44.1313 115.72C44.1313 115.027 43.998 114.407 43.7313 113.86C43.4647 113.313 43.0913 112.88 42.6113 112.56C42.1447 112.24 41.598 112.08 40.9713 112.08C40.358 112.08 39.8113 112.24 39.3313 112.56C38.8513 112.88 38.478 113.313 38.2113 113.86C37.9447 114.407 37.8113 115.027 37.8113 115.72C37.8113 116.413 37.9447 117.033 38.2113 117.58C38.478 118.127 38.8513 118.56 39.3313 118.88C39.8113 119.2 40.358 119.36 40.9713 119.36ZM50.7155 119.98C50.7155 120.273 50.6222 120.52 50.4355 120.72C50.2489 120.907 50.0089 121 49.7155 121C49.4355 121 49.1955 120.907 48.9955 120.72C48.8089 120.52 48.7155 120.273 48.7155 119.98V111.42C48.7155 111.127 48.8089 110.887 48.9955 110.7C49.1955 110.5 49.4355 110.4 49.7155 110.4C50.0089 110.4 50.2489 110.5 50.4355 110.7C50.6222 110.887 50.7155 111.127 50.7155 111.42V119.98ZM49.6955 109.08C49.3089 109.08 49.0289 109.013 48.8555 108.88C48.6822 108.733 48.5955 108.493 48.5955 108.16V107.84C48.5955 107.507 48.6889 107.273 48.8755 107.14C49.0622 107.007 49.3422 106.94 49.7155 106.94C50.1155 106.94 50.4022 107.013 50.5755 107.16C50.7489 107.293 50.8355 107.52 50.8355 107.84V108.16C50.8355 108.507 50.7422 108.747 50.5555 108.88C50.3822 109.013 50.0955 109.08 49.6955 109.08ZM58.8259 110.24C59.7725 110.24 60.5059 110.44 61.0259 110.84C61.5459 111.227 61.9059 111.753 62.1059 112.42C62.3192 113.073 62.4259 113.807 62.4259 114.62V119.98C62.4259 120.273 62.3259 120.52 62.1259 120.72C61.9392 120.907 61.7059 121 61.4259 121C61.1325 121 60.8925 120.907 60.7059 120.72C60.5192 120.52 60.4259 120.273 60.4259 119.98V114.64C60.4259 114.16 60.3592 113.733 60.2259 113.36C60.0925 112.973 59.8592 112.667 59.5259 112.44C59.2059 112.2 58.7525 112.08 58.1659 112.08C57.6192 112.08 57.1392 112.2 56.7259 112.44C56.3125 112.667 55.9859 112.973 55.7459 113.36C55.5192 113.733 55.4059 114.16 55.4059 114.64V119.98C55.4059 120.273 55.3059 120.52 55.1059 120.72C54.9192 120.907 54.6859 121 54.4059 121C54.1125 121 53.8725 120.907 53.6859 120.72C53.4992 120.52 53.4059 120.273 53.4059 119.98V111.5C53.4059 111.207 53.4992 110.967 53.6859 110.78C53.8725 110.58 54.1125 110.48 54.4059 110.48C54.6859 110.48 54.9192 110.58 55.1059 110.78C55.3059 110.967 55.4059 111.207 55.4059 111.5V112.62L55.0459 112.82C55.1392 112.527 55.2992 112.233 55.5259 111.94C55.7659 111.633 56.0525 111.353 56.3859 111.1C56.7192 110.833 57.0925 110.627 57.5059 110.48C57.9192 110.32 58.3592 110.24 58.8259 110.24ZM69.4827 110.24C70.0561 110.24 70.5827 110.333 71.0627 110.52C71.5427 110.707 71.9561 110.947 72.3027 111.24C72.6627 111.52 72.9427 111.813 73.1427 112.12C73.3427 112.427 73.4427 112.693 73.4427 112.92L72.9827 112.94V111.34C72.9827 111.06 73.0761 110.82 73.2627 110.62C73.4494 110.42 73.6894 110.32 73.9827 110.32C74.2761 110.32 74.5161 110.42 74.7027 110.62C74.8894 110.807 74.9827 111.047 74.9827 111.34V120.16C74.9827 121.293 74.7427 122.213 74.2627 122.92C73.7827 123.64 73.1427 124.167 72.3427 124.5C71.5561 124.833 70.6894 125 69.7427 125C69.4094 125 69.0161 124.953 68.5627 124.86C68.1094 124.78 67.6894 124.68 67.3027 124.56C66.9294 124.44 66.6694 124.32 66.5227 124.2C66.2161 124.04 66.0094 123.853 65.9027 123.64C65.8094 123.427 65.8161 123.213 65.9227 123C66.0427 122.707 66.2161 122.527 66.4427 122.46C66.6694 122.393 66.9294 122.413 67.2227 122.52C67.3561 122.56 67.5627 122.633 67.8427 122.74C68.1227 122.847 68.4361 122.94 68.7827 123.02C69.1294 123.113 69.4561 123.16 69.7627 123.16C70.8294 123.16 71.6294 122.913 72.1627 122.42C72.7094 121.927 72.9827 121.253 72.9827 120.4V118.6L73.2227 118.74C73.1827 119.02 73.0561 119.307 72.8427 119.6C72.6294 119.88 72.3561 120.14 72.0227 120.38C71.6894 120.62 71.3094 120.82 70.8827 120.98C70.4561 121.127 70.0094 121.2 69.5427 121.2C68.6094 121.2 67.7627 120.967 67.0027 120.5C66.2561 120.02 65.6627 119.373 65.2227 118.56C64.7827 117.733 64.5627 116.787 64.5627 115.72C64.5627 114.653 64.7827 113.713 65.2227 112.9C65.6627 112.073 66.2494 111.427 66.9827 110.96C67.7294 110.48 68.5627 110.24 69.4827 110.24ZM69.7827 112.08C69.1427 112.08 68.5694 112.24 68.0627 112.56C67.5694 112.88 67.1827 113.313 66.9027 113.86C66.6361 114.407 66.5027 115.027 66.5027 115.72C66.5027 116.413 66.6361 117.033 66.9027 117.58C67.1827 118.127 67.5694 118.56 68.0627 118.88C68.5694 119.2 69.1427 119.36 69.7827 119.36C70.4361 119.36 71.0094 119.207 71.5027 118.9C71.9961 118.58 72.3827 118.147 72.6627 117.6C72.9427 117.04 73.0827 116.413 73.0827 115.72C73.0827 115.027 72.9427 114.407 72.6627 113.86C72.3827 113.3 71.9961 112.867 71.5027 112.56C71.0094 112.24 70.4361 112.08 69.7827 112.08ZM5.01141 146C4.69141 146 4.41141 145.907 4.17141 145.72C3.93141 145.52 3.81141 145.273 3.81141 144.98V133.02C3.81141 132.727 3.91141 132.487 4.11141 132.3C4.31141 132.1 4.55141 132 4.83141 132H10.4714C11.1914 132 11.8514 132.18 12.4514 132.54C13.0514 132.887 13.5314 133.373 13.8914 134C14.2647 134.613 14.4514 135.32 14.4514 136.12C14.4514 136.653 14.3447 137.167 14.1314 137.66C13.9181 138.14 13.6314 138.567 13.2714 138.94C12.9114 139.313 12.5047 139.593 12.0514 139.78L11.8314 139.4C12.2447 139.547 12.6047 139.76 12.9114 140.04C13.2181 140.307 13.4581 140.627 13.6314 141C13.8181 141.36 13.9181 141.773 13.9314 142.24C13.9714 142.653 14.0047 143 14.0314 143.28C14.0714 143.547 14.1247 143.767 14.1914 143.94C14.2581 144.113 14.3781 144.247 14.5514 144.34C14.7914 144.473 14.9381 144.673 14.9914 144.94C15.0581 145.207 15.0047 145.447 14.8314 145.66C14.7114 145.82 14.5581 145.927 14.3714 145.98C14.1981 146.02 14.0181 146.027 13.8314 146C13.6447 145.96 13.4847 145.907 13.3514 145.84C13.1381 145.707 12.9181 145.52 12.6914 145.28C12.4781 145.027 12.3047 144.68 12.1714 144.24C12.0381 143.8 11.9714 143.22 11.9714 142.5C11.9714 142.167 11.9181 141.88 11.8114 141.64C11.7047 141.4 11.5581 141.207 11.3714 141.06C11.1847 140.9 10.9647 140.787 10.7114 140.72C10.4581 140.64 10.1781 140.6 9.87141 140.6H5.63141L5.91141 140.2V144.98C5.91141 145.273 5.83141 145.52 5.67141 145.72C5.51141 145.907 5.29141 146 5.01141 146ZM5.65141 138.86H10.4314C10.7381 138.847 11.0314 138.727 11.3114 138.5C11.6047 138.26 11.8381 137.94 12.0114 137.54C12.1981 137.14 12.2914 136.687 12.2914 136.18C12.2914 135.54 12.0981 135.007 11.7114 134.58C11.3381 134.14 10.8914 133.92 10.3714 133.92H5.69141L5.91141 133.4V139.28L5.65141 138.86ZM21.907 146.2C20.8137 146.2 19.8537 145.973 19.027 145.52C18.2137 145.053 17.5804 144.42 17.127 143.62C16.687 142.807 16.467 141.88 16.467 140.84C16.467 139.667 16.7004 138.667 17.167 137.84C17.647 137 18.267 136.36 19.027 135.92C19.8004 135.467 20.6137 135.24 21.467 135.24C22.107 135.24 22.7204 135.373 23.307 135.64C23.907 135.893 24.4337 136.253 24.887 136.72C25.3404 137.173 25.7004 137.713 25.967 138.34C26.2337 138.953 26.3737 139.627 26.387 140.36C26.3737 140.627 26.267 140.847 26.067 141.02C25.867 141.193 25.6337 141.28 25.367 141.28H17.607L17.127 139.58H24.647L24.267 139.94V139.44C24.227 138.973 24.067 138.567 23.787 138.22C23.507 137.86 23.1604 137.587 22.747 137.4C22.347 137.2 21.9204 137.1 21.467 137.1C21.067 137.1 20.6804 137.167 20.307 137.3C19.9337 137.42 19.607 137.62 19.327 137.9C19.047 138.18 18.8204 138.553 18.647 139.02C18.4737 139.473 18.387 140.04 18.387 140.72C18.387 141.453 18.5404 142.093 18.847 142.64C19.1537 143.187 19.567 143.613 20.087 143.92C20.607 144.213 21.187 144.36 21.827 144.36C22.307 144.36 22.707 144.313 23.027 144.22C23.347 144.113 23.6137 143.987 23.827 143.84C24.0404 143.693 24.227 143.553 24.387 143.42C24.6004 143.3 24.8004 143.24 24.987 143.24C25.227 143.24 25.427 143.327 25.587 143.5C25.747 143.66 25.827 143.853 25.827 144.08C25.827 144.373 25.6804 144.64 25.387 144.88C25.027 145.227 24.527 145.533 23.887 145.8C23.2604 146.067 22.6004 146.2 21.907 146.2ZM37.0923 135.44C37.3723 135.44 37.6057 135.54 37.7923 135.74C37.9923 135.927 38.0923 136.167 38.0923 136.46V148.98C38.0923 149.273 37.9923 149.513 37.7923 149.7C37.6057 149.9 37.3723 150 37.0923 150C36.799 150 36.559 149.9 36.3723 149.7C36.1857 149.513 36.0923 149.273 36.0923 148.98V143.54L36.4923 143.56C36.4923 143.8 36.3923 144.073 36.1923 144.38C36.0057 144.673 35.7457 144.96 35.4123 145.24C35.079 145.52 34.6857 145.753 34.2323 145.94C33.779 146.113 33.2923 146.2 32.7723 146.2C31.8657 146.2 31.039 145.967 30.2923 145.5C29.559 145.02 28.979 144.373 28.5523 143.56C28.1257 142.733 27.9123 141.787 27.9123 140.72C27.9123 139.653 28.1257 138.713 28.5523 137.9C28.979 137.073 29.5523 136.427 30.2723 135.96C31.0057 135.48 31.819 135.24 32.7123 135.24C33.2723 135.24 33.7923 135.333 34.2723 135.52C34.7657 135.707 35.1923 135.947 35.5523 136.24C35.9123 136.533 36.1923 136.847 36.3923 137.18C36.6057 137.5 36.7123 137.807 36.7123 138.1L36.0923 138.16V136.46C36.0923 136.18 36.1857 135.94 36.3723 135.74C36.559 135.54 36.799 135.44 37.0923 135.44ZM33.0123 144.36C33.639 144.36 34.1857 144.2 34.6523 143.88C35.1323 143.56 35.5057 143.127 35.7723 142.58C36.039 142.033 36.1723 141.413 36.1723 140.72C36.1723 140.027 36.039 139.407 35.7723 138.86C35.5057 138.313 35.1323 137.88 34.6523 137.56C34.1857 137.24 33.639 137.08 33.0123 137.08C32.399 137.08 31.8523 137.24 31.3723 137.56C30.8923 137.88 30.519 138.313 30.2523 138.86C29.9857 139.407 29.8523 140.027 29.8523 140.72C29.8523 141.413 29.9857 142.033 30.2523 142.58C30.519 143.127 30.8923 143.56 31.3723 143.88C31.8523 144.2 32.399 144.36 33.0123 144.36ZM48.7166 135.48C48.9966 135.48 49.2299 135.58 49.4166 135.78C49.6166 135.967 49.7166 136.207 49.7166 136.5V141.76C49.7166 143.147 49.3299 144.233 48.5566 145.02C47.7832 145.793 46.6899 146.18 45.2766 146.18C43.8766 146.18 42.7899 145.793 42.0166 145.02C41.2566 144.233 40.8766 143.147 40.8766 141.76V136.5C40.8766 136.207 40.9699 135.967 41.1566 135.78C41.3432 135.58 41.5832 135.48 41.8766 135.48C42.1566 135.48 42.3899 135.58 42.5766 135.78C42.7766 135.967 42.8766 136.207 42.8766 136.5V141.76C42.8766 142.627 43.0766 143.273 43.4766 143.7C43.8899 144.127 44.4899 144.34 45.2766 144.34C46.0766 144.34 46.6832 144.127 47.0966 143.7C47.5099 143.273 47.7166 142.627 47.7166 141.76V136.5C47.7166 136.207 47.8099 135.967 47.9966 135.78C48.1832 135.58 48.4232 135.48 48.7166 135.48ZM57.2977 146.2C56.2043 146.2 55.2443 145.973 54.4177 145.52C53.6043 145.053 52.971 144.42 52.5177 143.62C52.0777 142.807 51.8577 141.88 51.8577 140.84C51.8577 139.667 52.091 138.667 52.5577 137.84C53.0377 137 53.6577 136.36 54.4177 135.92C55.191 135.467 56.0043 135.24 56.8577 135.24C57.4977 135.24 58.111 135.373 58.6977 135.64C59.2977 135.893 59.8243 136.253 60.2777 136.72C60.731 137.173 61.091 137.713 61.3577 138.34C61.6243 138.953 61.7643 139.627 61.7777 140.36C61.7643 140.627 61.6577 140.847 61.4577 141.02C61.2577 141.193 61.0243 141.28 60.7577 141.28H52.9977L52.5177 139.58H60.0377L59.6577 139.94V139.44C59.6177 138.973 59.4577 138.567 59.1777 138.22C58.8977 137.86 58.551 137.587 58.1377 137.4C57.7377 137.2 57.311 137.1 56.8577 137.1C56.4577 137.1 56.071 137.167 55.6977 137.3C55.3243 137.42 54.9977 137.62 54.7177 137.9C54.4377 138.18 54.211 138.553 54.0377 139.02C53.8643 139.473 53.7777 140.04 53.7777 140.72C53.7777 141.453 53.931 142.093 54.2377 142.64C54.5443 143.187 54.9577 143.613 55.4777 143.92C55.9977 144.213 56.5777 144.36 57.2177 144.36C57.6977 144.36 58.0977 144.313 58.4177 144.22C58.7377 144.113 59.0043 143.987 59.2177 143.84C59.431 143.693 59.6177 143.553 59.7777 143.42C59.991 143.3 60.191 143.24 60.3777 143.24C60.6177 143.24 60.8177 143.327 60.9777 143.5C61.1377 143.66 61.2177 143.853 61.2177 144.08C61.2177 144.373 61.071 144.64 60.7777 144.88C60.4177 145.227 59.9177 145.533 59.2777 145.8C58.651 146.067 57.991 146.2 57.2977 146.2ZM63.323 144.36C63.203 144.173 63.1496 143.96 63.163 143.72C63.1763 143.467 63.3163 143.253 63.583 143.08C63.7696 142.96 63.963 142.913 64.163 142.94C64.3763 142.953 64.5763 143.053 64.763 143.24C65.1363 143.653 65.5496 143.98 66.003 144.22C66.4696 144.46 67.0296 144.58 67.683 144.58C67.9496 144.567 68.223 144.527 68.503 144.46C68.783 144.38 69.023 144.247 69.223 144.06C69.423 143.86 69.523 143.573 69.523 143.2C69.523 142.867 69.4163 142.6 69.203 142.4C68.9896 142.2 68.7096 142.04 68.363 141.92C68.0163 141.787 67.643 141.667 67.243 141.56C66.8163 141.44 66.383 141.307 65.943 141.16C65.5163 141.013 65.1296 140.827 64.783 140.6C64.4363 140.36 64.1496 140.053 63.923 139.68C63.7096 139.307 63.603 138.847 63.603 138.3C63.603 137.673 63.7763 137.133 64.123 136.68C64.483 136.227 64.943 135.873 65.503 135.62C66.0763 135.367 66.6963 135.24 67.363 135.24C67.7496 135.24 68.1563 135.293 68.583 135.4C69.0096 135.493 69.423 135.647 69.823 135.86C70.223 136.073 70.5696 136.353 70.863 136.7C70.9963 136.873 71.0696 137.08 71.083 137.32C71.1096 137.56 71.003 137.773 70.763 137.96C70.603 138.093 70.4096 138.153 70.183 138.14C69.9563 138.127 69.7696 138.053 69.623 137.92C69.3696 137.6 69.043 137.353 68.643 137.18C68.243 136.993 67.7896 136.9 67.283 136.9C67.0296 136.9 66.763 136.94 66.483 137.02C66.2163 137.087 65.9896 137.213 65.803 137.4C65.6163 137.587 65.523 137.86 65.523 138.22C65.523 138.553 65.6296 138.82 65.843 139.02C66.0696 139.22 66.363 139.387 66.723 139.52C67.083 139.653 67.4763 139.773 67.903 139.88C68.3163 139.987 68.723 140.113 69.123 140.26C69.5363 140.407 69.903 140.6 70.223 140.84C70.5563 141.067 70.823 141.367 71.023 141.74C71.2363 142.1 71.343 142.56 71.343 143.12C71.343 143.773 71.1496 144.333 70.763 144.8C70.3896 145.253 69.9096 145.6 69.323 145.84C68.7496 146.08 68.143 146.2 67.503 146.2C66.743 146.2 65.983 146.067 65.223 145.8C64.4763 145.52 63.843 145.04 63.323 144.36ZM73.3538 135.6H78.0538C78.3204 135.6 78.5404 135.693 78.7138 135.88C78.9004 136.053 78.9938 136.273 78.9938 136.54C78.9938 136.793 78.9004 137.007 78.7138 137.18C78.5404 137.353 78.3204 137.44 78.0538 137.44H73.3538C73.0871 137.44 72.8604 137.353 72.6738 137.18C72.5004 136.993 72.4138 136.773 72.4138 136.52C72.4138 136.253 72.5004 136.033 72.6738 135.86C72.8604 135.687 73.0871 135.6 73.3538 135.6ZM75.4538 133C75.7471 133 75.9871 133.1 76.1738 133.3C76.3604 133.487 76.4538 133.727 76.4538 134.02V143.3C76.4538 143.54 76.4938 143.733 76.5738 143.88C76.6538 144.027 76.7604 144.127 76.8938 144.18C77.0404 144.233 77.1871 144.26 77.3338 144.26C77.4804 144.26 77.6071 144.233 77.7138 144.18C77.8338 144.127 77.9738 144.1 78.1338 144.1C78.2938 144.1 78.4404 144.173 78.5738 144.32C78.7071 144.467 78.7738 144.667 78.7738 144.92C78.7738 145.24 78.6004 145.5 78.2538 145.7C77.9071 145.9 77.5338 146 77.1338 146C76.9071 146 76.6404 145.98 76.3338 145.94C76.0271 145.9 75.7271 145.8 75.4338 145.64C75.1538 145.48 74.9204 145.227 74.7337 144.88C74.5471 144.52 74.4538 144.02 74.4538 143.38V134.02C74.4538 133.727 74.5471 133.487 74.7337 133.3C74.9337 133.1 75.1738 133 75.4538 133Z" fill="black"/>
<circle cx="568" cy="40" r="40" fill="#585858"/>
<path d="M583.75 31.3752L579.931 27.5293L562.083 45.3772L555.069 38.3897L551.25 42.2085L562.083 53.0418L583.75 31.3752ZM586.458 15.1252H575.137C574 11.9835 571.021 9.7085 567.5 9.7085C563.979 9.7085 561 11.9835 559.863 15.1252H548.542C548.162 15.1252 547.81 15.1522 547.458 15.2335C546.402 15.4502 545.454 15.9918 544.723 16.7231C544.235 17.2106 543.829 17.8064 543.558 18.4564C543.288 19.0793 543.125 19.7835 543.125 20.5418V58.4585C543.125 59.1898 543.288 59.921 543.558 60.571C543.829 61.221 544.235 61.7897 544.723 62.3043C545.454 63.0356 546.402 63.5772 547.458 63.7939C547.81 63.8481 548.162 63.8752 548.542 63.8752H586.458C589.438 63.8752 591.875 61.4377 591.875 58.4585V20.5418C591.875 17.5627 589.438 15.1252 586.458 15.1252ZM567.5 14.4481C568.61 14.4481 569.531 15.3689 569.531 16.4793C569.531 17.5897 568.61 18.5106 567.5 18.5106C566.39 18.5106 565.469 17.5897 565.469 16.4793C565.469 15.3689 566.39 14.4481 567.5 14.4481ZM586.458 58.4585H548.542V20.5418H586.458V58.4585Z" fill="white"/>
<path d="M525.021 119.98C525.007 120.273 524.894 120.52 524.681 120.72C524.481 120.907 524.241 121 523.961 121C523.654 121 523.401 120.907 523.201 120.72C523.014 120.52 522.921 120.273 522.921 119.98V108.02C522.921 107.727 523.021 107.487 523.221 107.3C523.421 107.1 523.681 107 524.001 107C524.267 107 524.501 107.1 524.701 107.3C524.914 107.487 525.021 107.727 525.021 108.02V119.98ZM533.453 110.24C534.399 110.24 535.133 110.44 535.653 110.84C536.173 111.227 536.533 111.753 536.733 112.42C536.946 113.073 537.053 113.807 537.053 114.62V119.98C537.053 120.273 536.953 120.52 536.753 120.72C536.566 120.907 536.333 121 536.053 121C535.759 121 535.519 120.907 535.333 120.72C535.146 120.52 535.053 120.273 535.053 119.98V114.64C535.053 114.16 534.986 113.733 534.853 113.36C534.719 112.973 534.486 112.667 534.153 112.44C533.833 112.2 533.379 112.08 532.793 112.08C532.246 112.08 531.766 112.2 531.353 112.44C530.939 112.667 530.613 112.973 530.373 113.36C530.146 113.733 530.033 114.16 530.033 114.64V119.98C530.033 120.273 529.933 120.52 529.733 120.72C529.546 120.907 529.313 121 529.033 121C528.739 121 528.499 120.907 528.313 120.72C528.126 120.52 528.033 120.273 528.033 119.98V111.5C528.033 111.207 528.126 110.967 528.313 110.78C528.499 110.58 528.739 110.48 529.033 110.48C529.313 110.48 529.546 110.58 529.733 110.78C529.933 110.967 530.033 111.207 530.033 111.5V112.62L529.673 112.82C529.766 112.527 529.926 112.233 530.153 111.94C530.393 111.633 530.679 111.353 531.013 111.1C531.346 110.833 531.719 110.627 532.133 110.48C532.546 110.32 532.986 110.24 533.453 110.24ZM539.69 110.6H544.39C544.656 110.6 544.876 110.693 545.05 110.88C545.236 111.053 545.33 111.273 545.33 111.54C545.33 111.793 545.236 112.007 545.05 112.18C544.876 112.353 544.656 112.44 544.39 112.44H539.69C539.423 112.44 539.196 112.353 539.01 112.18C538.836 111.993 538.75 111.773 538.75 111.52C538.75 111.253 538.836 111.033 539.01 110.86C539.196 110.687 539.423 110.6 539.69 110.6ZM541.79 108C542.083 108 542.323 108.1 542.51 108.3C542.696 108.487 542.79 108.727 542.79 109.02V118.3C542.79 118.54 542.83 118.733 542.91 118.88C542.99 119.027 543.096 119.127 543.23 119.18C543.376 119.233 543.523 119.26 543.67 119.26C543.816 119.26 543.943 119.233 544.05 119.18C544.17 119.127 544.31 119.1 544.47 119.1C544.63 119.1 544.776 119.173 544.91 119.32C545.043 119.467 545.11 119.667 545.11 119.92C545.11 120.24 544.936 120.5 544.59 120.7C544.243 120.9 543.87 121 543.47 121C543.243 121 542.976 120.98 542.67 120.94C542.363 120.9 542.063 120.8 541.77 120.64C541.49 120.48 541.256 120.227 541.07 119.88C540.883 119.52 540.79 119.02 540.79 118.38V109.02C540.79 108.727 540.883 108.487 541.07 108.3C541.27 108.1 541.51 108 541.79 108ZM552.247 121.2C551.154 121.2 550.194 120.973 549.367 120.52C548.554 120.053 547.92 119.42 547.467 118.62C547.027 117.807 546.807 116.88 546.807 115.84C546.807 114.667 547.04 113.667 547.507 112.84C547.987 112 548.607 111.36 549.367 110.92C550.14 110.467 550.954 110.24 551.807 110.24C552.447 110.24 553.06 110.373 553.647 110.64C554.247 110.893 554.774 111.253 555.227 111.72C555.68 112.173 556.04 112.713 556.307 113.34C556.574 113.953 556.714 114.627 556.727 115.36C556.714 115.627 556.607 115.847 556.407 116.02C556.207 116.193 555.974 116.28 555.707 116.28H547.947L547.467 114.58H554.987L554.607 114.94V114.44C554.567 113.973 554.407 113.567 554.127 113.22C553.847 112.86 553.5 112.587 553.087 112.4C552.687 112.2 552.26 112.1 551.807 112.1C551.407 112.1 551.02 112.167 550.647 112.3C550.274 112.42 549.947 112.62 549.667 112.9C549.387 113.18 549.16 113.553 548.987 114.02C548.814 114.473 548.727 115.04 548.727 115.72C548.727 116.453 548.88 117.093 549.187 117.64C549.494 118.187 549.907 118.613 550.427 118.92C550.947 119.213 551.527 119.36 552.167 119.36C552.647 119.36 553.047 119.313 553.367 119.22C553.687 119.113 553.954 118.987 554.167 118.84C554.38 118.693 554.567 118.553 554.727 118.42C554.94 118.3 555.14 118.24 555.327 118.24C555.567 118.24 555.767 118.327 555.927 118.5C556.087 118.66 556.167 118.853 556.167 119.08C556.167 119.373 556.02 119.64 555.727 119.88C555.367 120.227 554.867 120.533 554.227 120.8C553.6 121.067 552.94 121.2 552.247 121.2ZM559.892 121C559.599 121 559.359 120.907 559.172 120.72C558.986 120.52 558.892 120.273 558.892 119.98V111.5C558.892 111.207 558.986 110.967 559.172 110.78C559.359 110.58 559.599 110.48 559.892 110.48C560.172 110.48 560.406 110.58 560.592 110.78C560.792 110.967 560.892 111.207 560.892 111.5V113.74L560.692 112.88C560.799 112.507 560.959 112.16 561.172 111.84C561.399 111.52 561.666 111.24 561.972 111C562.279 110.76 562.619 110.573 562.992 110.44C563.379 110.307 563.779 110.24 564.192 110.24C564.539 110.24 564.839 110.333 565.092 110.52C565.346 110.707 565.472 110.94 565.472 111.22C565.472 111.58 565.379 111.847 565.192 112.02C565.006 112.18 564.799 112.26 564.572 112.26C564.372 112.26 564.179 112.22 563.992 112.14C563.806 112.047 563.586 112 563.332 112C563.052 112 562.766 112.073 562.472 112.22C562.179 112.367 561.912 112.587 561.672 112.88C561.432 113.16 561.239 113.493 561.092 113.88C560.959 114.267 560.892 114.7 560.892 115.18V119.98C560.892 120.273 560.792 120.52 560.592 120.72C560.406 120.907 560.172 121 559.892 121ZM568.488 110.38C568.688 110.38 568.874 110.433 569.048 110.54C569.234 110.647 569.368 110.807 569.448 111.02L572.588 118.28L572.208 118.46L575.388 111.04C575.574 110.6 575.874 110.387 576.288 110.4C576.554 110.4 576.774 110.487 576.948 110.66C577.134 110.82 577.228 111.033 577.228 111.3C577.228 111.38 577.214 111.467 577.188 111.56C577.161 111.64 577.128 111.72 577.088 111.8L573.288 120.36C573.114 120.76 572.828 120.973 572.428 121C572.228 121.027 572.028 120.987 571.828 120.88C571.641 120.76 571.494 120.587 571.388 120.36L567.608 111.8C567.581 111.747 567.554 111.68 567.528 111.6C567.501 111.507 567.488 111.4 567.488 111.28C567.488 111.08 567.574 110.88 567.748 110.68C567.934 110.48 568.181 110.38 568.488 110.38ZM581.143 119.98C581.143 120.273 581.05 120.52 580.863 120.72C580.677 120.907 580.437 121 580.143 121C579.863 121 579.623 120.907 579.423 120.72C579.237 120.52 579.143 120.273 579.143 119.98V111.42C579.143 111.127 579.237 110.887 579.423 110.7C579.623 110.5 579.863 110.4 580.143 110.4C580.437 110.4 580.677 110.5 580.863 110.7C581.05 110.887 581.143 111.127 581.143 111.42V119.98ZM580.123 109.08C579.737 109.08 579.457 109.013 579.283 108.88C579.11 108.733 579.023 108.493 579.023 108.16V107.84C579.023 107.507 579.117 107.273 579.303 107.14C579.49 107.007 579.77 106.94 580.143 106.94C580.543 106.94 580.83 107.013 581.003 107.16C581.177 107.293 581.263 107.52 581.263 107.84V108.16C581.263 108.507 581.17 108.747 580.983 108.88C580.81 109.013 580.523 109.08 580.123 109.08ZM588.634 121.2C587.54 121.2 586.58 120.973 585.754 120.52C584.94 120.053 584.307 119.42 583.854 118.62C583.414 117.807 583.194 116.88 583.194 115.84C583.194 114.667 583.427 113.667 583.894 112.84C584.374 112 584.994 111.36 585.754 110.92C586.527 110.467 587.34 110.24 588.194 110.24C588.834 110.24 589.447 110.373 590.034 110.64C590.634 110.893 591.16 111.253 591.614 111.72C592.067 112.173 592.427 112.713 592.694 113.34C592.96 113.953 593.1 114.627 593.114 115.36C593.1 115.627 592.994 115.847 592.794 116.02C592.594 116.193 592.36 116.28 592.094 116.28H584.334L583.854 114.58H591.374L590.994 114.94V114.44C590.954 113.973 590.794 113.567 590.514 113.22C590.234 112.86 589.887 112.587 589.474 112.4C589.074 112.2 588.647 112.1 588.194 112.1C587.794 112.1 587.407 112.167 587.034 112.3C586.66 112.42 586.334 112.62 586.054 112.9C585.774 113.18 585.547 113.553 585.374 114.02C585.2 114.473 585.114 115.04 585.114 115.72C585.114 116.453 585.267 117.093 585.574 117.64C585.88 118.187 586.294 118.613 586.814 118.92C587.334 119.213 587.914 119.36 588.554 119.36C589.034 119.36 589.434 119.313 589.754 119.22C590.074 119.113 590.34 118.987 590.554 118.84C590.767 118.693 590.954 118.553 591.114 118.42C591.327 118.3 591.527 118.24 591.714 118.24C591.954 118.24 592.154 118.327 592.314 118.5C592.474 118.66 592.554 118.853 592.554 119.08C592.554 119.373 592.407 119.64 592.114 119.88C591.754 120.227 591.254 120.533 590.614 120.8C589.987 121.067 589.327 121.2 588.634 121.2ZM607.539 110.38C607.792 110.38 608.012 110.48 608.199 110.68C608.399 110.867 608.499 111.113 608.499 111.42C608.499 111.487 608.492 111.553 608.479 111.62C608.466 111.687 608.446 111.747 608.419 111.8L605.359 120.36C605.279 120.587 605.139 120.76 604.939 120.88C604.739 120.987 604.532 121.027 604.319 121C603.932 120.973 603.646 120.76 603.459 120.36L601.199 114.36L601.659 114.4L599.579 120.36C599.392 120.76 599.106 120.973 598.719 121C598.519 121.027 598.312 120.987 598.099 120.88C597.899 120.76 597.759 120.587 597.679 120.36L594.599 111.8C594.546 111.68 594.519 111.553 594.519 111.42C594.519 111.14 594.606 110.9 594.779 110.7C594.966 110.487 595.212 110.38 595.519 110.38C595.732 110.38 595.919 110.433 596.079 110.54C596.252 110.647 596.372 110.807 596.439 111.02L598.999 118.24L598.539 118.2L600.619 112.74C600.792 112.327 601.099 112.12 601.539 112.12C601.779 112.12 601.966 112.173 602.099 112.28C602.232 112.387 602.339 112.54 602.419 112.74L604.539 118.22L603.999 118.28L606.579 111.02C606.712 110.593 607.032 110.38 607.539 110.38ZM520.85 144.36C520.73 144.173 520.677 143.96 520.69 143.72C520.704 143.467 520.844 143.253 521.11 143.08C521.297 142.96 521.49 142.913 521.69 142.94C521.904 142.953 522.104 143.053 522.29 143.24C522.664 143.653 523.077 143.98 523.53 144.22C523.997 144.46 524.557 144.58 525.21 144.58C525.477 144.567 525.75 144.527 526.03 144.46C526.31 144.38 526.55 144.247 526.75 144.06C526.95 143.86 527.05 143.573 527.05 143.2C527.05 142.867 526.944 142.6 526.73 142.4C526.517 142.2 526.237 142.04 525.89 141.92C525.544 141.787 525.17 141.667 524.77 141.56C524.344 141.44 523.91 141.307 523.47 141.16C523.044 141.013 522.657 140.827 522.31 140.6C521.964 140.36 521.677 140.053 521.45 139.68C521.237 139.307 521.13 138.847 521.13 138.3C521.13 137.673 521.304 137.133 521.65 136.68C522.01 136.227 522.47 135.873 523.03 135.62C523.604 135.367 524.224 135.24 524.89 135.24C525.277 135.24 525.684 135.293 526.11 135.4C526.537 135.493 526.95 135.647 527.35 135.86C527.75 136.073 528.097 136.353 528.39 136.7C528.524 136.873 528.597 137.08 528.61 137.32C528.637 137.56 528.53 137.773 528.29 137.96C528.13 138.093 527.937 138.153 527.71 138.14C527.484 138.127 527.297 138.053 527.15 137.92C526.897 137.6 526.57 137.353 526.17 137.18C525.77 136.993 525.317 136.9 524.81 136.9C524.557 136.9 524.29 136.94 524.01 137.02C523.744 137.087 523.517 137.213 523.33 137.4C523.144 137.587 523.05 137.86 523.05 138.22C523.05 138.553 523.157 138.82 523.37 139.02C523.597 139.22 523.89 139.387 524.25 139.52C524.61 139.653 525.004 139.773 525.43 139.88C525.844 139.987 526.25 140.113 526.65 140.26C527.064 140.407 527.43 140.6 527.75 140.84C528.084 141.067 528.35 141.367 528.55 141.74C528.764 142.1 528.87 142.56 528.87 143.12C528.87 143.773 528.677 144.333 528.29 144.8C527.917 145.253 527.437 145.6 526.85 145.84C526.277 146.08 525.67 146.2 525.03 146.2C524.27 146.2 523.51 146.067 522.75 145.8C522.004 145.52 521.37 145.04 520.85 144.36ZM535.601 135.24C536.321 135.24 536.954 135.32 537.501 135.48C538.061 135.627 538.501 135.84 538.821 136.12C539.141 136.387 539.301 136.7 539.301 137.06C539.301 137.287 539.228 137.5 539.081 137.7C538.948 137.887 538.754 137.98 538.501 137.98C538.301 137.98 538.134 137.947 538.001 137.88C537.881 137.813 537.768 137.733 537.661 137.64C537.554 137.547 537.421 137.453 537.261 137.36C537.114 137.28 536.894 137.213 536.601 137.16C536.321 137.107 536.068 137.08 535.841 137.08C535.134 137.08 534.521 137.24 534.001 137.56C533.494 137.88 533.094 138.313 532.801 138.86C532.521 139.407 532.381 140.027 532.381 140.72C532.381 141.413 532.521 142.033 532.801 142.58C533.094 143.127 533.488 143.56 533.981 143.88C534.488 144.2 535.074 144.36 535.741 144.36C536.141 144.36 536.468 144.333 536.721 144.28C536.988 144.213 537.208 144.133 537.381 144.04C537.594 143.92 537.768 143.8 537.901 143.68C538.034 143.547 538.228 143.48 538.481 143.48C538.774 143.48 538.994 143.573 539.141 143.76C539.301 143.933 539.381 144.153 539.381 144.42C539.381 144.713 539.201 145 538.841 145.28C538.494 145.547 538.028 145.767 537.441 145.94C536.854 146.113 536.208 146.2 535.501 146.2C534.461 146.2 533.554 145.96 532.781 145.48C532.021 145 531.428 144.347 531.001 143.52C530.588 142.693 530.381 141.76 530.381 140.72C530.381 139.667 530.601 138.733 531.041 137.92C531.481 137.093 532.094 136.44 532.881 135.96C533.668 135.48 534.574 135.24 535.601 135.24ZM546.614 135.3C547.534 135.3 548.247 135.5 548.754 135.9C549.261 136.287 549.614 136.813 549.814 137.48C550.027 138.147 550.134 138.88 550.134 139.68V144.98C550.134 145.273 550.034 145.52 549.834 145.72C549.647 145.907 549.414 146 549.134 146C548.841 146 548.601 145.907 548.414 145.72C548.227 145.52 548.134 145.273 548.134 144.98V139.68C548.134 139.213 548.067 138.787 547.934 138.4C547.814 138.013 547.594 137.707 547.274 137.48C546.967 137.253 546.534 137.14 545.974 137.14C545.454 137.14 544.987 137.253 544.574 137.48C544.174 137.707 543.861 138.013 543.634 138.4C543.421 138.787 543.314 139.213 543.314 139.68V144.98C543.314 145.273 543.214 145.52 543.014 145.72C542.827 145.907 542.594 146 542.314 146C542.021 146 541.781 145.907 541.594 145.72C541.407 145.52 541.314 145.273 541.314 144.98V132.22C541.314 131.927 541.407 131.687 541.594 131.5C541.781 131.3 542.021 131.2 542.314 131.2C542.594 131.2 542.827 131.3 543.014 131.5C543.214 131.687 543.314 131.927 543.314 132.22V137.68L542.954 137.88C543.047 137.587 543.201 137.287 543.414 136.98C543.641 136.673 543.914 136.393 544.234 136.14C544.567 135.887 544.934 135.687 545.334 135.54C545.734 135.38 546.161 135.3 546.614 135.3ZM557.716 146.2C556.622 146.2 555.662 145.973 554.836 145.52C554.022 145.053 553.389 144.42 552.936 143.62C552.496 142.807 552.276 141.88 552.276 140.84C552.276 139.667 552.509 138.667 552.976 137.84C553.456 137 554.076 136.36 554.836 135.92C555.609 135.467 556.422 135.24 557.276 135.24C557.916 135.24 558.529 135.373 559.116 135.64C559.716 135.893 560.242 136.253 560.696 136.72C561.149 137.173 561.509 137.713 561.776 138.34C562.042 138.953 562.182 139.627 562.196 140.36C562.182 140.627 562.076 140.847 561.876 141.02C561.676 141.193 561.442 141.28 561.176 141.28H553.416L552.936 139.58H560.456L560.076 139.94V139.44C560.036 138.973 559.876 138.567 559.596 138.22C559.316 137.86 558.969 137.587 558.556 137.4C558.156 137.2 557.729 137.1 557.276 137.1C556.876 137.1 556.489 137.167 556.116 137.3C555.742 137.42 555.416 137.62 555.136 137.9C554.856 138.18 554.629 138.553 554.456 139.02C554.282 139.473 554.196 140.04 554.196 140.72C554.196 141.453 554.349 142.093 554.656 142.64C554.962 143.187 555.376 143.613 555.896 143.92C556.416 144.213 556.996 144.36 557.636 144.36C558.116 144.36 558.516 144.313 558.836 144.22C559.156 144.113 559.422 143.987 559.636 143.84C559.849 143.693 560.036 143.553 560.196 143.42C560.409 143.3 560.609 143.24 560.796 143.24C561.036 143.24 561.236 143.327 561.396 143.5C561.556 143.66 561.636 143.853 561.636 144.08C561.636 144.373 561.489 144.64 561.196 144.88C560.836 145.227 560.336 145.533 559.696 145.8C559.069 146.067 558.409 146.2 557.716 146.2ZM572.901 131.2C573.181 131.2 573.414 131.293 573.601 131.48C573.801 131.667 573.901 131.913 573.901 132.22V144.98C573.901 145.273 573.801 145.52 573.601 145.72C573.414 145.907 573.181 146 572.901 146C572.608 146 572.368 145.907 572.181 145.72C571.994 145.52 571.901 145.273 571.901 144.98V143.54L572.301 143.56C572.301 143.8 572.201 144.073 572.001 144.38C571.814 144.673 571.554 144.96 571.221 145.24C570.888 145.52 570.494 145.753 570.041 145.94C569.588 146.113 569.101 146.2 568.581 146.2C567.674 146.2 566.848 145.967 566.101 145.5C565.368 145.02 564.788 144.373 564.361 143.56C563.934 142.733 563.721 141.787 563.721 140.72C563.721 139.653 563.934 138.713 564.361 137.9C564.788 137.073 565.361 136.427 566.081 135.96C566.814 135.48 567.628 135.24 568.521 135.24C569.081 135.24 569.601 135.333 570.081 135.52C570.574 135.707 571.001 135.947 571.361 136.24C571.721 136.533 572.001 136.847 572.201 137.18C572.414 137.5 572.521 137.807 572.521 138.1L571.901 138.16V132.22C571.901 131.927 571.994 131.687 572.181 131.5C572.368 131.3 572.608 131.2 572.901 131.2ZM568.821 144.36C569.448 144.36 569.994 144.2 570.461 143.88C570.941 143.56 571.314 143.127 571.581 142.58C571.848 142.033 571.981 141.413 571.981 140.72C571.981 140.027 571.848 139.407 571.581 138.86C571.314 138.313 570.941 137.88 570.461 137.56C569.994 137.24 569.448 137.08 568.821 137.08C568.208 137.08 567.661 137.24 567.181 137.56C566.701 137.88 566.328 138.313 566.061 138.86C565.794 139.407 565.661 140.027 565.661 140.72C565.661 141.413 565.794 142.033 566.061 142.58C566.328 143.127 566.701 143.56 567.181 143.88C567.661 144.2 568.208 144.36 568.821 144.36ZM584.838 135.48C585.118 135.48 585.351 135.58 585.538 135.78C585.738 135.967 585.838 136.207 585.838 136.5V141.76C585.838 143.147 585.451 144.233 584.678 145.02C583.904 145.793 582.811 146.18 581.398 146.18C579.998 146.18 578.911 145.793 578.138 145.02C577.378 144.233 576.998 143.147 576.998 141.76V136.5C576.998 136.207 577.091 135.967 577.278 135.78C577.464 135.58 577.704 135.48 577.998 135.48C578.278 135.48 578.511 135.58 578.698 135.78C578.898 135.967 578.998 136.207 578.998 136.5V141.76C578.998 142.627 579.198 143.273 579.598 143.7C580.011 144.127 580.611 144.34 581.398 144.34C582.198 144.34 582.804 144.127 583.218 143.7C583.631 143.273 583.838 142.627 583.838 141.76V136.5C583.838 136.207 583.931 135.967 584.118 135.78C584.304 135.58 584.544 135.48 584.838 135.48ZM590.779 144.98C590.779 145.273 590.679 145.52 590.479 145.72C590.292 145.907 590.059 146 589.779 146C589.499 146 589.259 145.907 589.059 145.72C588.872 145.52 588.779 145.273 588.779 144.98V132.22C588.779 131.927 588.879 131.687 589.079 131.5C589.279 131.3 589.519 131.2 589.799 131.2C590.092 131.2 590.325 131.3 590.499 131.5C590.685 131.687 590.779 131.927 590.779 132.22V144.98ZM598.36 146.2C597.267 146.2 596.307 145.973 595.48 145.52C594.667 145.053 594.033 144.42 593.58 143.62C593.14 142.807 592.92 141.88 592.92 140.84C592.92 139.667 593.153 138.667 593.62 137.84C594.1 137 594.72 136.36 595.48 135.92C596.253 135.467 597.067 135.24 597.92 135.24C598.56 135.24 599.173 135.373 599.76 135.64C600.36 135.893 600.887 136.253 601.34 136.72C601.793 137.173 602.153 137.713 602.42 138.34C602.687 138.953 602.827 139.627 602.84 140.36C602.827 140.627 602.72 140.847 602.52 141.02C602.32 141.193 602.087 141.28 601.82 141.28H594.06L593.58 139.58H601.1L600.72 139.94V139.44C600.68 138.973 600.52 138.567 600.24 138.22C599.96 137.86 599.613 137.587 599.2 137.4C598.8 137.2 598.373 137.1 597.92 137.1C597.52 137.1 597.133 137.167 596.76 137.3C596.387 137.42 596.06 137.62 595.78 137.9C595.5 138.18 595.273 138.553 595.1 139.02C594.927 139.473 594.84 140.04 594.84 140.72C594.84 141.453 594.993 142.093 595.3 142.64C595.607 143.187 596.02 143.613 596.54 143.92C597.06 144.213 597.64 144.36 598.28 144.36C598.76 144.36 599.16 144.313 599.48 144.22C599.8 144.113 600.067 143.987 600.28 143.84C600.493 143.693 600.68 143.553 600.84 143.42C601.053 143.3 601.253 143.24 601.44 143.24C601.68 143.24 601.88 143.327 602.04 143.5C602.2 143.66 602.28 143.853 602.28 144.08C602.28 144.373 602.133 144.64 601.84 144.88C601.48 145.227 600.98 145.533 600.34 145.8C599.713 146.067 599.053 146.2 598.36 146.2ZM613.545 131.2C613.825 131.2 614.059 131.293 614.245 131.48C614.445 131.667 614.545 131.913 614.545 132.22V144.98C614.545 145.273 614.445 145.52 614.245 145.72C614.059 145.907 613.825 146 613.545 146C613.252 146 613.012 145.907 612.825 145.72C612.639 145.52 612.545 145.273 612.545 144.98V143.54L612.945 143.56C612.945 143.8 612.845 144.073 612.645 144.38C612.459 144.673 612.199 144.96 611.865 145.24C611.532 145.52 611.139 145.753 610.685 145.94C610.232 146.113 609.745 146.2 609.225 146.2C608.319 146.2 607.492 145.967 606.745 145.5C606.012 145.02 605.432 144.373 605.005 143.56C604.579 142.733 604.365 141.787 604.365 140.72C604.365 139.653 604.579 138.713 605.005 137.9C605.432 137.073 606.005 136.427 606.725 135.96C607.459 135.48 608.272 135.24 609.165 135.24C609.725 135.24 610.245 135.333 610.725 135.52C611.219 135.707 611.645 135.947 612.005 136.24C612.365 136.533 612.645 136.847 612.845 137.18C613.059 137.5 613.165 137.807 613.165 138.1L612.545 138.16V132.22C612.545 131.927 612.639 131.687 612.825 131.5C613.012 131.3 613.252 131.2 613.545 131.2ZM609.465 144.36C610.092 144.36 610.639 144.2 611.105 143.88C611.585 143.56 611.959 143.127 612.225 142.58C612.492 142.033 612.625 141.413 612.625 140.72C612.625 140.027 612.492 139.407 612.225 138.86C611.959 138.313 611.585 137.88 611.105 137.56C610.639 137.24 610.092 137.08 609.465 137.08C608.852 137.08 608.305 137.24 607.825 137.56C607.345 137.88 606.972 138.313 606.705 138.86C606.439 139.407 606.305 140.027 606.305 140.72C606.305 141.413 606.439 142.033 606.705 142.58C606.972 143.127 607.345 143.56 607.825 143.88C608.305 144.2 608.852 144.36 609.465 144.36Z" fill="black"/>
<circle cx="1093" cy="40" r="40" fill="#585858"/>
<path d="M1092.5 12.4165C1077.55 12.4165 1065.42 24.5498 1065.42 39.4998C1065.42 54.4498 1077.55 66.5832 1092.5 66.5832C1107.45 66.5832 1119.58 54.4498 1119.58 39.4998C1119.58 24.5498 1107.45 12.4165 1092.5 12.4165ZM1092.5 61.1665C1080.56 61.1665 1070.83 51.4436 1070.83 39.4998C1070.83 27.5561 1080.56 17.8332 1092.5 17.8332C1104.44 17.8332 1114.17 27.5561 1114.17 39.4998C1114.17 51.4436 1104.44 61.1665 1092.5 61.1665ZM1104.93 27.529L1087.08 45.3769L1080.07 38.3894L1076.25 42.2082L1087.08 53.0415L1108.75 31.3748L1104.93 27.529Z" fill="white"/>
<path d="M1067.5 107C1068.2 107 1068.86 107.193 1069.46 107.58C1070.06 107.953 1070.54 108.467 1070.9 109.12C1071.26 109.773 1071.44 110.507 1071.44 111.32C1071.44 112.133 1071.26 112.873 1070.9 113.54C1070.54 114.193 1070.06 114.72 1069.46 115.12C1068.86 115.507 1068.2 115.7 1067.5 115.7H1063.64L1063.8 115.38V119.98C1063.8 120.273 1063.7 120.52 1063.52 120.72C1063.34 120.907 1063.11 121 1062.82 121C1062.54 121 1062.3 120.907 1062.12 120.72C1061.94 120.52 1061.86 120.273 1061.86 119.98V108.02C1061.86 107.727 1061.96 107.487 1062.16 107.3C1062.36 107.1 1062.6 107 1062.88 107H1067.5ZM1067.5 113.78C1067.84 113.78 1068.16 113.667 1068.44 113.44C1068.73 113.213 1068.96 112.913 1069.14 112.54C1069.32 112.167 1069.42 111.76 1069.42 111.32C1069.42 110.88 1069.32 110.48 1069.14 110.12C1068.96 109.76 1068.73 109.473 1068.44 109.26C1068.16 109.033 1067.84 108.92 1067.5 108.92H1063.6L1063.8 108.62V114.04L1063.62 113.78H1067.5ZM1074.65 121C1074.36 121 1074.12 120.907 1073.93 120.72C1073.74 120.52 1073.65 120.273 1073.65 119.98V111.5C1073.65 111.207 1073.74 110.967 1073.93 110.78C1074.12 110.58 1074.36 110.48 1074.65 110.48C1074.93 110.48 1075.16 110.58 1075.35 110.78C1075.55 110.967 1075.65 111.207 1075.65 111.5V113.74L1075.45 112.88C1075.56 112.507 1075.72 112.16 1075.93 111.84C1076.16 111.52 1076.42 111.24 1076.73 111C1077.04 110.76 1077.38 110.573 1077.75 110.44C1078.14 110.307 1078.54 110.24 1078.95 110.24C1079.3 110.24 1079.6 110.333 1079.85 110.52C1080.1 110.707 1080.23 110.94 1080.23 111.22C1080.23 111.58 1080.14 111.847 1079.95 112.02C1079.76 112.18 1079.56 112.26 1079.33 112.26C1079.13 112.26 1078.94 112.22 1078.75 112.14C1078.56 112.047 1078.34 112 1078.09 112C1077.81 112 1077.52 112.073 1077.23 112.22C1076.94 112.367 1076.67 112.587 1076.43 112.88C1076.19 113.16 1076 113.493 1075.85 113.88C1075.72 114.267 1075.65 114.7 1075.65 115.18V119.98C1075.65 120.273 1075.55 120.52 1075.35 120.72C1075.16 120.907 1074.93 121 1074.65 121ZM1091.56 115.74C1091.56 116.807 1091.32 117.753 1090.84 118.58C1090.37 119.393 1089.74 120.033 1088.94 120.5C1088.14 120.967 1087.24 121.2 1086.24 121.2C1085.25 121.2 1084.35 120.967 1083.54 120.5C1082.74 120.033 1082.1 119.393 1081.62 118.58C1081.15 117.753 1080.92 116.807 1080.92 115.74C1080.92 114.66 1081.15 113.713 1081.62 112.9C1082.1 112.073 1082.74 111.427 1083.54 110.96C1084.35 110.48 1085.25 110.24 1086.24 110.24C1087.24 110.24 1088.14 110.48 1088.94 110.96C1089.74 111.427 1090.37 112.073 1090.84 112.9C1091.32 113.713 1091.56 114.66 1091.56 115.74ZM1089.56 115.74C1089.56 115.007 1089.41 114.373 1089.12 113.84C1088.83 113.293 1088.43 112.867 1087.92 112.56C1087.43 112.24 1086.87 112.08 1086.24 112.08C1085.63 112.08 1085.07 112.24 1084.56 112.56C1084.07 112.867 1083.67 113.293 1083.36 113.84C1083.07 114.373 1082.92 115.007 1082.92 115.74C1082.92 116.447 1083.07 117.073 1083.36 117.62C1083.67 118.167 1084.07 118.593 1084.56 118.9C1085.07 119.207 1085.63 119.36 1086.24 119.36C1086.87 119.36 1087.43 119.207 1087.92 118.9C1088.43 118.593 1088.83 118.167 1089.12 117.62C1089.41 117.073 1089.56 116.447 1089.56 115.74ZM1098.63 106.22C1098.88 106.22 1099.14 106.253 1099.41 106.32C1099.67 106.387 1099.89 106.5 1100.07 106.66C1100.25 106.807 1100.35 107.013 1100.35 107.28C1100.35 107.547 1100.27 107.767 1100.11 107.94C1099.95 108.1 1099.76 108.18 1099.55 108.18C1099.41 108.18 1099.23 108.153 1099.01 108.1C1098.78 108.033 1098.55 108 1098.33 108C1098.02 108 1097.77 108.073 1097.59 108.22C1097.4 108.353 1097.27 108.527 1097.19 108.74C1097.11 108.94 1097.07 109.14 1097.07 109.34V119.98C1097.07 120.273 1096.97 120.52 1096.77 120.72C1096.58 120.907 1096.35 121 1096.07 121C1095.77 121 1095.53 120.907 1095.35 120.72C1095.16 120.52 1095.07 120.273 1095.07 119.98V109.36C1095.07 108.44 1095.37 107.687 1095.97 107.1C1096.58 106.513 1097.47 106.22 1098.63 106.22ZM1099.03 110.66C1099.29 110.66 1099.51 110.747 1099.69 110.92C1099.86 111.093 1099.95 111.313 1099.95 111.58C1099.95 111.847 1099.86 112.067 1099.69 112.24C1099.51 112.413 1099.29 112.5 1099.03 112.5H1093.85C1093.59 112.5 1093.37 112.413 1093.19 112.24C1093.01 112.067 1092.93 111.847 1092.93 111.58C1092.93 111.313 1093.01 111.093 1093.19 110.92C1093.37 110.747 1093.59 110.66 1093.85 110.66H1099.03ZM1103.53 119.98C1103.53 120.273 1103.43 120.52 1103.25 120.72C1103.06 120.907 1102.82 121 1102.53 121C1102.25 121 1102.01 120.907 1101.81 120.72C1101.62 120.52 1101.53 120.273 1101.53 119.98V111.42C1101.53 111.127 1101.62 110.887 1101.81 110.7C1102.01 110.5 1102.25 110.4 1102.53 110.4C1102.82 110.4 1103.06 110.5 1103.25 110.7C1103.43 110.887 1103.53 111.127 1103.53 111.42V119.98ZM1102.51 109.08C1102.12 109.08 1101.84 109.013 1101.67 108.88C1101.49 108.733 1101.41 108.493 1101.41 108.16V107.84C1101.41 107.507 1101.5 107.273 1101.69 107.14C1101.87 107.007 1102.15 106.94 1102.53 106.94C1102.93 106.94 1103.21 107.013 1103.39 107.16C1103.56 107.293 1103.65 107.52 1103.65 107.84V108.16C1103.65 108.507 1103.55 108.747 1103.37 108.88C1103.19 109.013 1102.91 109.08 1102.51 109.08ZM1108.37 119.98C1108.37 120.273 1108.27 120.52 1108.07 120.72C1107.88 120.907 1107.65 121 1107.37 121C1107.09 121 1106.85 120.907 1106.65 120.72C1106.46 120.52 1106.37 120.273 1106.37 119.98V107.22C1106.37 106.927 1106.47 106.687 1106.67 106.5C1106.87 106.3 1107.11 106.2 1107.39 106.2C1107.68 106.2 1107.92 106.3 1108.09 106.5C1108.28 106.687 1108.37 106.927 1108.37 107.22V119.98ZM1115.95 121.2C1114.86 121.2 1113.9 120.973 1113.07 120.52C1112.26 120.053 1111.62 119.42 1111.17 118.62C1110.73 117.807 1110.51 116.88 1110.51 115.84C1110.51 114.667 1110.74 113.667 1111.21 112.84C1111.69 112 1112.31 111.36 1113.07 110.92C1113.84 110.467 1114.66 110.24 1115.51 110.24C1116.15 110.24 1116.76 110.373 1117.35 110.64C1117.95 110.893 1118.48 111.253 1118.93 111.72C1119.38 112.173 1119.74 112.713 1120.01 113.34C1120.28 113.953 1120.42 114.627 1120.43 115.36C1120.42 115.627 1120.31 115.847 1120.11 116.02C1119.91 116.193 1119.68 116.28 1119.41 116.28H1111.65L1111.17 114.58H1118.69L1118.31 114.94V114.44C1118.27 113.973 1118.11 113.567 1117.83 113.22C1117.55 112.86 1117.2 112.587 1116.79 112.4C1116.39 112.2 1115.96 112.1 1115.51 112.1C1115.11 112.1 1114.72 112.167 1114.35 112.3C1113.98 112.42 1113.65 112.62 1113.37 112.9C1113.09 113.18 1112.86 113.553 1112.69 114.02C1112.52 114.473 1112.43 115.04 1112.43 115.72C1112.43 116.453 1112.58 117.093 1112.89 117.64C1113.2 118.187 1113.61 118.613 1114.13 118.92C1114.65 119.213 1115.23 119.36 1115.87 119.36C1116.35 119.36 1116.75 119.313 1117.07 119.22C1117.39 119.113 1117.66 118.987 1117.87 118.84C1118.08 118.693 1118.27 118.553 1118.43 118.42C1118.64 118.3 1118.84 118.24 1119.03 118.24C1119.27 118.24 1119.47 118.327 1119.63 118.5C1119.79 118.66 1119.87 118.853 1119.87 119.08C1119.87 119.373 1119.72 119.64 1119.43 119.88C1119.07 120.227 1118.57 120.533 1117.93 120.8C1117.3 121.067 1116.64 121.2 1115.95 121.2ZM1055.17 135.24C1055.89 135.24 1056.53 135.32 1057.07 135.48C1057.63 135.627 1058.07 135.84 1058.39 136.12C1058.71 136.387 1058.87 136.7 1058.87 137.06C1058.87 137.287 1058.8 137.5 1058.65 137.7C1058.52 137.887 1058.33 137.98 1058.07 137.98C1057.87 137.98 1057.71 137.947 1057.57 137.88C1057.45 137.813 1057.34 137.733 1057.23 137.64C1057.13 137.547 1056.99 137.453 1056.83 137.36C1056.69 137.28 1056.47 137.213 1056.17 137.16C1055.89 137.107 1055.64 137.08 1055.41 137.08C1054.71 137.08 1054.09 137.24 1053.57 137.56C1053.07 137.88 1052.67 138.313 1052.37 138.86C1052.09 139.407 1051.95 140.027 1051.95 140.72C1051.95 141.413 1052.09 142.033 1052.37 142.58C1052.67 143.127 1053.06 143.56 1053.55 143.88C1054.06 144.2 1054.65 144.36 1055.31 144.36C1055.71 144.36 1056.04 144.333 1056.29 144.28C1056.56 144.213 1056.78 144.133 1056.95 144.04C1057.17 143.92 1057.34 143.8 1057.47 143.68C1057.61 143.547 1057.8 143.48 1058.05 143.48C1058.35 143.48 1058.57 143.573 1058.71 143.76C1058.87 143.933 1058.95 144.153 1058.95 144.42C1058.95 144.713 1058.77 145 1058.41 145.28C1058.07 145.547 1057.6 145.767 1057.01 145.94C1056.43 146.113 1055.78 146.2 1055.07 146.2C1054.03 146.2 1053.13 145.96 1052.35 145.48C1051.59 145 1051 144.347 1050.57 143.52C1050.16 142.693 1049.95 141.76 1049.95 140.72C1049.95 139.667 1050.17 138.733 1050.61 137.92C1051.05 137.093 1051.67 136.44 1052.45 135.96C1053.24 135.48 1054.15 135.24 1055.17 135.24ZM1070.89 140.74C1070.89 141.807 1070.65 142.753 1070.17 143.58C1069.7 144.393 1069.07 145.033 1068.27 145.5C1067.47 145.967 1066.57 146.2 1065.57 146.2C1064.58 146.2 1063.68 145.967 1062.87 145.5C1062.07 145.033 1061.43 144.393 1060.95 143.58C1060.48 142.753 1060.25 141.807 1060.25 140.74C1060.25 139.66 1060.48 138.713 1060.95 137.9C1061.43 137.073 1062.07 136.427 1062.87 135.96C1063.68 135.48 1064.58 135.24 1065.57 135.24C1066.57 135.24 1067.47 135.48 1068.27 135.96C1069.07 136.427 1069.7 137.073 1070.17 137.9C1070.65 138.713 1070.89 139.66 1070.89 140.74ZM1068.89 140.74C1068.89 140.007 1068.74 139.373 1068.45 138.84C1068.15 138.293 1067.75 137.867 1067.25 137.56C1066.75 137.24 1066.19 137.08 1065.57 137.08C1064.95 137.08 1064.39 137.24 1063.89 137.56C1063.39 137.867 1062.99 138.293 1062.69 138.84C1062.39 139.373 1062.25 140.007 1062.25 140.74C1062.25 141.447 1062.39 142.073 1062.69 142.62C1062.99 143.167 1063.39 143.593 1063.89 143.9C1064.39 144.207 1064.95 144.36 1065.57 144.36C1066.19 144.36 1066.75 144.207 1067.25 143.9C1067.75 143.593 1068.15 143.167 1068.45 142.62C1068.74 142.073 1068.89 141.447 1068.89 140.74ZM1078.33 135.3C1079.32 135.3 1080.08 135.547 1080.61 136.04C1081.15 136.52 1081.5 137.173 1081.67 138L1081.35 137.9L1081.49 137.58C1081.67 137.233 1081.93 136.887 1082.27 136.54C1082.63 136.18 1083.06 135.887 1083.55 135.66C1084.05 135.42 1084.57 135.3 1085.13 135.3C1086.05 135.3 1086.77 135.5 1087.27 135.9C1087.78 136.287 1088.13 136.813 1088.33 137.48C1088.53 138.133 1088.63 138.867 1088.63 139.68V144.98C1088.63 145.273 1088.54 145.52 1088.35 145.72C1088.17 145.907 1087.93 146 1087.63 146C1087.35 146 1087.11 145.907 1086.91 145.72C1086.73 145.52 1086.63 145.273 1086.63 144.98V139.7C1086.63 139.233 1086.57 138.807 1086.43 138.42C1086.31 138.033 1086.09 137.727 1085.77 137.5C1085.47 137.26 1085.04 137.14 1084.49 137.14C1083.97 137.14 1083.51 137.26 1083.09 137.5C1082.69 137.727 1082.38 138.033 1082.15 138.42C1081.93 138.807 1081.81 139.233 1081.81 139.7V144.98C1081.81 145.273 1081.72 145.52 1081.53 145.72C1081.35 145.907 1081.11 146 1080.81 146C1080.52 146 1080.28 145.907 1080.09 145.72C1079.91 145.52 1079.81 145.273 1079.81 144.98V139.68C1079.81 139.213 1079.75 138.787 1079.61 138.4C1079.49 138.013 1079.28 137.707 1078.97 137.48C1078.67 137.253 1078.24 137.14 1077.69 137.14C1077.17 137.14 1076.71 137.253 1076.31 137.48C1075.91 137.707 1075.6 138.013 1075.37 138.4C1075.16 138.787 1075.05 139.213 1075.05 139.68V144.98C1075.05 145.273 1074.95 145.52 1074.75 145.72C1074.57 145.907 1074.33 146 1074.05 146C1073.76 146 1073.52 145.907 1073.33 145.72C1073.15 145.52 1073.05 145.273 1073.05 144.98V136.5C1073.05 136.207 1073.15 135.967 1073.33 135.78C1073.52 135.58 1073.76 135.48 1074.05 135.48C1074.33 135.48 1074.57 135.58 1074.75 135.78C1074.95 135.967 1075.05 136.207 1075.05 136.5V137.68L1074.67 137.9C1074.77 137.607 1074.92 137.307 1075.13 137C1075.35 136.693 1075.61 136.413 1075.93 136.16C1076.27 135.907 1076.63 135.7 1077.03 135.54C1077.43 135.38 1077.87 135.3 1078.33 135.3ZM1096.73 135.3C1097.67 135.3 1098.49 135.533 1099.21 136C1099.95 136.467 1100.53 137.107 1100.95 137.92C1101.38 138.72 1101.59 139.653 1101.59 140.72C1101.59 141.787 1101.38 142.733 1100.95 143.56C1100.53 144.373 1099.95 145.013 1099.23 145.48C1098.51 145.947 1097.7 146.18 1096.79 146.18C1096.29 146.18 1095.81 146.1 1095.35 145.94C1094.9 145.78 1094.5 145.573 1094.15 145.32C1093.81 145.053 1093.52 144.773 1093.29 144.48C1093.08 144.187 1092.95 143.913 1092.89 143.66L1093.43 143.4V148.98C1093.43 149.273 1093.33 149.513 1093.13 149.7C1092.95 149.9 1092.71 150 1092.43 150C1092.14 150 1091.9 149.9 1091.71 149.7C1091.53 149.513 1091.43 149.273 1091.43 148.98V136.46C1091.43 136.18 1091.53 135.94 1091.71 135.74C1091.9 135.54 1092.14 135.44 1092.43 135.44C1092.71 135.44 1092.95 135.54 1093.13 135.74C1093.33 135.94 1093.43 136.18 1093.43 136.46V137.84L1093.11 137.66C1093.15 137.407 1093.28 137.147 1093.49 136.88C1093.71 136.6 1093.97 136.34 1094.29 136.1C1094.63 135.86 1095 135.667 1095.41 135.52C1095.84 135.373 1096.28 135.3 1096.73 135.3ZM1096.51 137.14C1095.87 137.14 1095.31 137.3 1094.83 137.62C1094.37 137.927 1094 138.347 1093.73 138.88C1093.47 139.413 1093.33 140.027 1093.33 140.72C1093.33 141.4 1093.47 142.02 1093.73 142.58C1094 143.127 1094.37 143.56 1094.83 143.88C1095.31 144.187 1095.87 144.34 1096.51 144.34C1097.14 144.34 1097.69 144.187 1098.15 143.88C1098.62 143.56 1098.99 143.127 1099.25 142.58C1099.53 142.02 1099.67 141.4 1099.67 140.72C1099.67 140.04 1099.53 139.433 1099.25 138.9C1098.99 138.353 1098.62 137.927 1098.15 137.62C1097.69 137.3 1097.14 137.14 1096.51 137.14ZM1105.92 144.98C1105.92 145.273 1105.82 145.52 1105.62 145.72C1105.43 145.907 1105.2 146 1104.92 146C1104.64 146 1104.4 145.907 1104.2 145.72C1104.01 145.52 1103.92 145.273 1103.92 144.98V132.22C1103.92 131.927 1104.02 131.687 1104.22 131.5C1104.42 131.3 1104.66 131.2 1104.94 131.2C1105.23 131.2 1105.46 131.3 1105.64 131.5C1105.82 131.687 1105.92 131.927 1105.92 132.22V144.98ZM1113.5 146.2C1112.41 146.2 1111.45 145.973 1110.62 145.52C1109.81 145.053 1109.17 144.42 1108.72 143.62C1108.28 142.807 1108.06 141.88 1108.06 140.84C1108.06 139.667 1108.29 138.667 1108.76 137.84C1109.24 137 1109.86 136.36 1110.62 135.92C1111.39 135.467 1112.21 135.24 1113.06 135.24C1113.7 135.24 1114.31 135.373 1114.9 135.64C1115.5 135.893 1116.03 136.253 1116.48 136.72C1116.93 137.173 1117.29 137.713 1117.56 138.34C1117.83 138.953 1117.97 139.627 1117.98 140.36C1117.97 140.627 1117.86 140.847 1117.66 141.02C1117.46 141.193 1117.23 141.28 1116.96 141.28H1109.2L1108.72 139.58H1116.24L1115.86 139.94V139.44C1115.82 138.973 1115.66 138.567 1115.38 138.22C1115.1 137.86 1114.75 137.587 1114.34 137.4C1113.94 137.2 1113.51 137.1 1113.06 137.1C1112.66 137.1 1112.27 137.167 1111.9 137.3C1111.53 137.42 1111.2 137.62 1110.92 137.9C1110.64 138.18 1110.41 138.553 1110.24 139.02C1110.07 139.473 1109.98 140.04 1109.98 140.72C1109.98 141.453 1110.13 142.093 1110.44 142.64C1110.75 143.187 1111.16 143.613 1111.68 143.92C1112.2 144.213 1112.78 144.36 1113.42 144.36C1113.9 144.36 1114.3 144.313 1114.62 144.22C1114.94 144.113 1115.21 143.987 1115.42 143.84C1115.63 143.693 1115.82 143.553 1115.98 143.42C1116.19 143.3 1116.39 143.24 1116.58 143.24C1116.82 143.24 1117.02 143.327 1117.18 143.5C1117.34 143.66 1117.42 143.853 1117.42 144.08C1117.42 144.373 1117.27 144.64 1116.98 144.88C1116.62 145.227 1116.12 145.533 1115.48 145.8C1114.85 146.067 1114.19 146.2 1113.5 146.2ZM1120 135.6H1124.7C1124.97 135.6 1125.19 135.693 1125.36 135.88C1125.55 136.053 1125.64 136.273 1125.64 136.54C1125.64 136.793 1125.55 137.007 1125.36 137.18C1125.19 137.353 1124.97 137.44 1124.7 137.44H1120C1119.74 137.44 1119.51 137.353 1119.32 137.18C1119.15 136.993 1119.06 136.773 1119.06 136.52C1119.06 136.253 1119.15 136.033 1119.32 135.86C1119.51 135.687 1119.74 135.6 1120 135.6ZM1122.1 133C1122.4 133 1122.64 133.1 1122.82 133.3C1123.01 133.487 1123.1 133.727 1123.1 134.02V143.3C1123.1 143.54 1123.14 143.733 1123.22 143.88C1123.3 144.027 1123.41 144.127 1123.54 144.18C1123.69 144.233 1123.84 144.26 1123.98 144.26C1124.13 144.26 1124.26 144.233 1124.36 144.18C1124.48 144.127 1124.62 144.1 1124.78 144.1C1124.94 144.1 1125.09 144.173 1125.22 144.32C1125.36 144.467 1125.42 144.667 1125.42 144.92C1125.42 145.24 1125.25 145.5 1124.9 145.7C1124.56 145.9 1124.18 146 1123.78 146C1123.56 146 1123.29 145.98 1122.98 145.94C1122.68 145.9 1122.38 145.8 1122.08 145.64C1121.8 145.48 1121.57 145.227 1121.38 144.88C1121.2 144.52 1121.1 144.02 1121.1 143.38V134.02C1121.1 133.727 1121.2 133.487 1121.38 133.3C1121.58 133.1 1121.82 133 1122.1 133ZM1132.56 146.2C1131.47 146.2 1130.51 145.973 1129.68 145.52C1128.87 145.053 1128.23 144.42 1127.78 143.62C1127.34 142.807 1127.12 141.88 1127.12 140.84C1127.12 139.667 1127.35 138.667 1127.82 137.84C1128.3 137 1128.92 136.36 1129.68 135.92C1130.45 135.467 1131.27 135.24 1132.12 135.24C1132.76 135.24 1133.37 135.373 1133.96 135.64C1134.56 135.893 1135.09 136.253 1135.54 136.72C1135.99 137.173 1136.35 137.713 1136.62 138.34C1136.89 138.953 1137.03 139.627 1137.04 140.36C1137.03 140.627 1136.92 140.847 1136.72 141.02C1136.52 141.193 1136.29 141.28 1136.02 141.28H1128.26L1127.78 139.58H1135.3L1134.92 139.94V139.44C1134.88 138.973 1134.72 138.567 1134.44 138.22C1134.16 137.86 1133.81 137.587 1133.4 137.4C1133 137.2 1132.57 137.1 1132.12 137.1C1131.72 137.1 1131.33 137.167 1130.96 137.3C1130.59 137.42 1130.26 137.62 1129.98 137.9C1129.7 138.18 1129.47 138.553 1129.3 139.02C1129.13 139.473 1129.04 140.04 1129.04 140.72C1129.04 141.453 1129.19 142.093 1129.5 142.64C1129.81 143.187 1130.22 143.613 1130.74 143.92C1131.26 144.213 1131.84 144.36 1132.48 144.36C1132.96 144.36 1133.36 144.313 1133.68 144.22C1134 144.113 1134.27 143.987 1134.48 143.84C1134.69 143.693 1134.88 143.553 1135.04 143.42C1135.25 143.3 1135.45 143.24 1135.64 143.24C1135.88 143.24 1136.08 143.327 1136.24 143.5C1136.4 143.66 1136.48 143.853 1136.48 144.08C1136.48 144.373 1136.33 144.64 1136.04 144.88C1135.68 145.227 1135.18 145.533 1134.54 145.8C1133.91 146.067 1133.25 146.2 1132.56 146.2Z" fill="black"/>
</svg>
