<svg width="297" height="592" viewBox="0 0 297 592" fill="none" xmlns="http://www.w3.org/2000/svg">
<path d="M40 0L40 592" stroke="black" stroke-width="2"/>
<circle cx="40" cy="40" r="40" fill="#AE0168"/>
<path d="M40.5002 19.2229L60.8939 54.4583H20.1064L40.5002 19.2229ZM15.421 51.75C13.3356 55.3521 15.9356 59.875 20.1064 59.875H60.8939C65.0648 59.875 67.6648 55.3521 65.5793 51.75L45.1856 16.5146C43.1002 12.9125 37.9002 12.9125 35.8147 16.5146L15.421 51.75ZM37.7918 32.7916V38.2083C37.7918 39.6979 39.0106 40.9166 40.5002 40.9166C41.9897 40.9166 43.2085 39.6979 43.2085 38.2083V32.7916C43.2085 31.3021 41.9897 30.0833 40.5002 30.0833C39.0106 30.0833 37.7918 31.3021 37.7918 32.7916ZM37.7918 46.3333H43.2085V51.75H37.7918V46.3333Z" fill="white"/>
<path d="M115.555 33C116.262 33 116.915 33.1933 117.515 33.58C118.115 33.9533 118.595 34.4667 118.955 35.12C119.315 35.7733 119.495 36.5067 119.495 37.32C119.495 38.1333 119.315 38.8733 118.955 39.54C118.595 40.1933 118.115 40.72 117.515 41.12C116.915 41.5067 116.262 41.7 115.555 41.7H111.695L111.855 41.38V45.98C111.855 46.2733 111.762 46.52 111.575 46.72C111.402 46.9067 111.168 47 110.875 47C110.595 47 110.362 46.9067 110.175 46.72C110.002 46.52 109.915 46.2733 109.915 45.98V34.02C109.915 33.7267 110.015 33.4867 110.215 33.3C110.415 33.1 110.655 33 110.935 33H115.555ZM115.555 39.78C115.902 39.78 116.215 39.6667 116.495 39.44C116.788 39.2133 117.022 38.9133 117.195 38.54C117.382 38.1667 117.475 37.76 117.475 37.32C117.475 36.88 117.382 36.48 117.195 36.12C117.022 35.76 116.788 35.4733 116.495 35.26C116.215 35.0333 115.902 34.92 115.555 34.92H111.655L111.855 34.62V40.04L111.675 39.78H115.555ZM126.311 47.2C125.218 47.2 124.258 46.9733 123.431 46.52C122.618 46.0533 121.985 45.42 121.531 44.62C121.091 43.8067 120.871 42.88 120.871 41.84C120.871 40.6667 121.105 39.6667 121.571 38.84C122.051 38 122.671 37.36 123.431 36.92C124.205 36.4667 125.018 36.24 125.871 36.24C126.511 36.24 127.125 36.3733 127.711 36.64C128.311 36.8933 128.838 37.2533 129.291 37.72C129.745 38.1733 130.105 38.7133 130.371 39.34C130.638 39.9533 130.778 40.6267 130.791 41.36C130.778 41.6267 130.671 41.8467 130.471 42.02C130.271 42.1933 130.038 42.28 129.771 42.28H122.011L121.531 40.58H129.051L128.671 40.94V40.44C128.631 39.9733 128.471 39.5667 128.191 39.22C127.911 38.86 127.565 38.5867 127.151 38.4C126.751 38.2 126.325 38.1 125.871 38.1C125.471 38.1 125.085 38.1667 124.711 38.3C124.338 38.42 124.011 38.62 123.731 38.9C123.451 39.18 123.225 39.5533 123.051 40.02C122.878 40.4733 122.791 41.04 122.791 41.72C122.791 42.4533 122.945 43.0933 123.251 43.64C123.558 44.1867 123.971 44.6133 124.491 44.92C125.011 45.2133 125.591 45.36 126.231 45.36C126.711 45.36 127.111 45.3133 127.431 45.22C127.751 45.1133 128.018 44.9867 128.231 44.84C128.445 44.6933 128.631 44.5533 128.791 44.42C129.005 44.3 129.205 44.24 129.391 44.24C129.631 44.24 129.831 44.3267 129.991 44.5C130.151 44.66 130.231 44.8533 130.231 45.08C130.231 45.3733 130.085 45.64 129.791 45.88C129.431 46.2267 128.931 46.5333 128.291 46.8C127.665 47.0667 127.005 47.2 126.311 47.2ZM141.497 32.2C141.777 32.2 142.01 32.2933 142.197 32.48C142.397 32.6667 142.497 32.9133 142.497 33.22V45.98C142.497 46.2733 142.397 46.52 142.197 46.72C142.01 46.9067 141.777 47 141.497 47C141.203 47 140.963 46.9067 140.777 46.72C140.59 46.52 140.497 46.2733 140.497 45.98V44.54L140.897 44.56C140.897 44.8 140.797 45.0733 140.597 45.38C140.41 45.6733 140.15 45.96 139.817 46.24C139.483 46.52 139.09 46.7533 138.637 46.94C138.183 47.1133 137.697 47.2 137.177 47.2C136.27 47.2 135.443 46.9667 134.697 46.5C133.963 46.02 133.383 45.3733 132.957 44.56C132.53 43.7333 132.317 42.7867 132.317 41.72C132.317 40.6533 132.53 39.7133 132.957 38.9C133.383 38.0733 133.957 37.4267 134.677 36.96C135.41 36.48 136.223 36.24 137.117 36.24C137.677 36.24 138.197 36.3333 138.677 36.52C139.17 36.7067 139.597 36.9467 139.957 37.24C140.317 37.5333 140.597 37.8467 140.797 38.18C141.01 38.5 141.117 38.8067 141.117 39.1L140.497 39.16V33.22C140.497 32.9267 140.59 32.6867 140.777 32.5C140.963 32.3 141.203 32.2 141.497 32.2ZM137.417 45.36C138.043 45.36 138.59 45.2 139.057 44.88C139.537 44.56 139.91 44.1267 140.177 43.58C140.443 43.0333 140.577 42.4133 140.577 41.72C140.577 41.0267 140.443 40.4067 140.177 39.86C139.91 39.3133 139.537 38.88 139.057 38.56C138.59 38.24 138.043 38.08 137.417 38.08C136.803 38.08 136.257 38.24 135.777 38.56C135.297 38.88 134.923 39.3133 134.657 39.86C134.39 40.4067 134.257 41.0267 134.257 41.72C134.257 42.4133 134.39 43.0333 134.657 43.58C134.923 44.1267 135.297 44.56 135.777 44.88C136.257 45.2 136.803 45.36 137.417 45.36ZM147.161 45.98C147.161 46.2733 147.068 46.52 146.881 46.72C146.694 46.9067 146.454 47 146.161 47C145.881 47 145.641 46.9067 145.441 46.72C145.254 46.52 145.161 46.2733 145.161 45.98V37.42C145.161 37.1267 145.254 36.8867 145.441 36.7C145.641 36.5 145.881 36.4 146.161 36.4C146.454 36.4 146.694 36.5 146.881 36.7C147.068 36.8867 147.161 37.1267 147.161 37.42V45.98ZM146.141 35.08C145.754 35.08 145.474 35.0133 145.301 34.88C145.128 34.7333 145.041 34.4933 145.041 34.16V33.84C145.041 33.5067 145.134 33.2733 145.321 33.14C145.508 33.0067 145.788 32.94 146.161 32.94C146.561 32.94 146.848 33.0133 147.021 33.16C147.194 33.2933 147.281 33.52 147.281 33.84V34.16C147.281 34.5067 147.188 34.7467 147.001 34.88C146.828 35.0133 146.541 35.08 146.141 35.08ZM158.391 32.2C158.671 32.2 158.905 32.2933 159.091 32.48C159.291 32.6667 159.391 32.9133 159.391 33.22V45.98C159.391 46.2733 159.291 46.52 159.091 46.72C158.905 46.9067 158.671 47 158.391 47C158.098 47 157.858 46.9067 157.671 46.72C157.485 46.52 157.391 46.2733 157.391 45.98V44.54L157.791 44.56C157.791 44.8 157.691 45.0733 157.491 45.38C157.305 45.6733 157.045 45.96 156.711 46.24C156.378 46.52 155.985 46.7533 155.531 46.94C155.078 47.1133 154.591 47.2 154.071 47.2C153.165 47.2 152.338 46.9667 151.591 46.5C150.858 46.02 150.278 45.3733 149.851 44.56C149.425 43.7333 149.211 42.7867 149.211 41.72C149.211 40.6533 149.425 39.7133 149.851 38.9C150.278 38.0733 150.851 37.4267 151.571 36.96C152.305 36.48 153.118 36.24 154.011 36.24C154.571 36.24 155.091 36.3333 155.571 36.52C156.065 36.7067 156.491 36.9467 156.851 37.24C157.211 37.5333 157.491 37.8467 157.691 38.18C157.905 38.5 158.011 38.8067 158.011 39.1L157.391 39.16V33.22C157.391 32.9267 157.485 32.6867 157.671 32.5C157.858 32.3 158.098 32.2 158.391 32.2ZM154.311 45.36C154.938 45.36 155.485 45.2 155.951 44.88C156.431 44.56 156.805 44.1267 157.071 43.58C157.338 43.0333 157.471 42.4133 157.471 41.72C157.471 41.0267 157.338 40.4067 157.071 39.86C156.805 39.3133 156.431 38.88 155.951 38.56C155.485 38.24 154.938 38.08 154.311 38.08C153.698 38.08 153.151 38.24 152.671 38.56C152.191 38.88 151.818 39.3133 151.551 39.86C151.285 40.4067 151.151 41.0267 151.151 41.72C151.151 42.4133 151.285 43.0333 151.551 43.58C151.818 44.1267 152.191 44.56 152.671 44.88C153.151 45.2 153.698 45.36 154.311 45.36ZM172.175 41.74C172.175 42.8067 171.935 43.7533 171.455 44.58C170.989 45.3933 170.355 46.0333 169.555 46.5C168.755 46.9667 167.855 47.2 166.855 47.2C165.869 47.2 164.969 46.9667 164.155 46.5C163.355 46.0333 162.715 45.3933 162.235 44.58C161.769 43.7533 161.535 42.8067 161.535 41.74C161.535 40.66 161.769 39.7133 162.235 38.9C162.715 38.0733 163.355 37.4267 164.155 36.96C164.969 36.48 165.869 36.24 166.855 36.24C167.855 36.24 168.755 36.48 169.555 36.96C170.355 37.4267 170.989 38.0733 171.455 38.9C171.935 39.7133 172.175 40.66 172.175 41.74ZM170.175 41.74C170.175 41.0067 170.029 40.3733 169.735 39.84C169.442 39.2933 169.042 38.8667 168.535 38.56C168.042 38.24 167.482 38.08 166.855 38.08C166.242 38.08 165.682 38.24 165.175 38.56C164.682 38.8667 164.282 39.2933 163.975 39.84C163.682 40.3733 163.535 41.0067 163.535 41.74C163.535 42.4467 163.682 43.0733 163.975 43.62C164.282 44.1667 164.682 44.5933 165.175 44.9C165.682 45.2067 166.242 45.36 166.855 45.36C167.482 45.36 168.042 45.2067 168.535 44.9C169.042 44.5933 169.442 44.1667 169.735 43.62C170.029 43.0733 170.175 42.4467 170.175 41.74ZM185.21 36.3C186.143 36.3 186.97 36.5333 187.69 37C188.423 37.4667 189.003 38.1067 189.43 38.92C189.856 39.72 190.07 40.6533 190.07 41.72C190.07 42.7867 189.856 43.7333 189.43 44.56C189.003 45.3733 188.43 46.0133 187.71 46.48C186.99 46.9467 186.176 47.18 185.27 47.18C184.763 47.18 184.283 47.1 183.83 46.94C183.376 46.78 182.976 46.5733 182.63 46.32C182.283 46.0533 181.996 45.7733 181.77 45.48C181.556 45.1867 181.423 44.9133 181.37 44.66L181.91 44.4V49.98C181.91 50.2733 181.81 50.5133 181.61 50.7C181.423 50.9 181.19 51 180.91 51C180.616 51 180.376 50.9 180.19 50.7C180.003 50.5133 179.91 50.2733 179.91 49.98V37.46C179.91 37.18 180.003 36.94 180.19 36.74C180.376 36.54 180.616 36.44 180.91 36.44C181.19 36.44 181.423 36.54 181.61 36.74C181.81 36.94 181.91 37.18 181.91 37.46V38.84L181.59 38.66C181.63 38.4067 181.756 38.1467 181.97 37.88C182.183 37.6 182.45 37.34 182.77 37.1C183.103 36.86 183.476 36.6667 183.89 36.52C184.316 36.3733 184.756 36.3 185.21 36.3ZM184.99 38.14C184.35 38.14 183.79 38.3 183.31 38.62C182.843 38.9267 182.476 39.3467 182.21 39.88C181.943 40.4133 181.81 41.0267 181.81 41.72C181.81 42.4 181.943 43.02 182.21 43.58C182.476 44.1267 182.843 44.56 183.31 44.88C183.79 45.1867 184.35 45.34 184.99 45.34C185.616 45.34 186.163 45.1867 186.63 44.88C187.096 44.56 187.463 44.1267 187.73 43.58C188.01 43.02 188.15 42.4 188.15 41.72C188.15 41.04 188.01 40.4333 187.73 39.9C187.463 39.3533 187.096 38.9267 186.63 38.62C186.163 38.3 185.616 38.14 184.99 38.14ZM197.034 47.2C195.941 47.2 194.981 46.9733 194.154 46.52C193.341 46.0533 192.707 45.42 192.254 44.62C191.814 43.8067 191.594 42.88 191.594 41.84C191.594 40.6667 191.827 39.6667 192.294 38.84C192.774 38 193.394 37.36 194.154 36.92C194.927 36.4667 195.741 36.24 196.594 36.24C197.234 36.24 197.847 36.3733 198.434 36.64C199.034 36.8933 199.561 37.2533 200.014 37.72C200.467 38.1733 200.827 38.7133 201.094 39.34C201.361 39.9533 201.501 40.6267 201.514 41.36C201.501 41.6267 201.394 41.8467 201.194 42.02C200.994 42.1933 200.761 42.28 200.494 42.28H192.734L192.254 40.58H199.774L199.394 40.94V40.44C199.354 39.9733 199.194 39.5667 198.914 39.22C198.634 38.86 198.287 38.5867 197.874 38.4C197.474 38.2 197.047 38.1 196.594 38.1C196.194 38.1 195.807 38.1667 195.434 38.3C195.061 38.42 194.734 38.62 194.454 38.9C194.174 39.18 193.947 39.5533 193.774 40.02C193.601 40.4733 193.514 41.04 193.514 41.72C193.514 42.4533 193.667 43.0933 193.974 43.64C194.281 44.1867 194.694 44.6133 195.214 44.92C195.734 45.2133 196.314 45.36 196.954 45.36C197.434 45.36 197.834 45.3133 198.154 45.22C198.474 45.1133 198.741 44.9867 198.954 44.84C199.167 44.6933 199.354 44.5533 199.514 44.42C199.727 44.3 199.927 44.24 200.114 44.24C200.354 44.24 200.554 44.3267 200.714 44.5C200.874 44.66 200.954 44.8533 200.954 45.08C200.954 45.3733 200.807 45.64 200.514 45.88C200.154 46.2267 199.654 46.5333 199.014 46.8C198.387 47.0667 197.727 47.2 197.034 47.2ZM209.099 36.24C210.046 36.24 210.779 36.44 211.299 36.84C211.819 37.2267 212.179 37.7533 212.379 38.42C212.593 39.0733 212.699 39.8067 212.699 40.62V45.98C212.699 46.2733 212.599 46.52 212.399 46.72C212.213 46.9067 211.979 47 211.699 47C211.406 47 211.166 46.9067 210.979 46.72C210.793 46.52 210.699 46.2733 210.699 45.98V40.64C210.699 40.16 210.633 39.7333 210.499 39.36C210.366 38.9733 210.133 38.6667 209.799 38.44C209.479 38.2 209.026 38.08 208.439 38.08C207.893 38.08 207.413 38.2 206.999 38.44C206.586 38.6667 206.259 38.9733 206.019 39.36C205.793 39.7333 205.679 40.16 205.679 40.64V45.98C205.679 46.2733 205.579 46.52 205.379 46.72C205.193 46.9067 204.959 47 204.679 47C204.386 47 204.146 46.9067 203.959 46.72C203.773 46.52 203.679 46.2733 203.679 45.98V37.5C203.679 37.2067 203.773 36.9667 203.959 36.78C204.146 36.58 204.386 36.48 204.679 36.48C204.959 36.48 205.193 36.58 205.379 36.78C205.579 36.9667 205.679 37.2067 205.679 37.5V38.62L205.319 38.82C205.413 38.5267 205.573 38.2333 205.799 37.94C206.039 37.6333 206.326 37.3533 206.659 37.1C206.993 36.8333 207.366 36.6267 207.779 36.48C208.193 36.32 208.633 36.24 209.099 36.24ZM224.016 32.2C224.296 32.2 224.53 32.2933 224.716 32.48C224.916 32.6667 225.016 32.9133 225.016 33.22V45.98C225.016 46.2733 224.916 46.52 224.716 46.72C224.53 46.9067 224.296 47 224.016 47C223.723 47 223.483 46.9067 223.296 46.72C223.11 46.52 223.016 46.2733 223.016 45.98V44.54L223.416 44.56C223.416 44.8 223.316 45.0733 223.116 45.38C222.93 45.6733 222.67 45.96 222.336 46.24C222.003 46.52 221.61 46.7533 221.156 46.94C220.703 47.1133 220.216 47.2 219.696 47.2C218.79 47.2 217.963 46.9667 217.216 46.5C216.483 46.02 215.903 45.3733 215.476 44.56C215.05 43.7333 214.836 42.7867 214.836 41.72C214.836 40.6533 215.05 39.7133 215.476 38.9C215.903 38.0733 216.476 37.4267 217.196 36.96C217.93 36.48 218.743 36.24 219.636 36.24C220.196 36.24 220.716 36.3333 221.196 36.52C221.69 36.7067 222.116 36.9467 222.476 37.24C222.836 37.5333 223.116 37.8467 223.316 38.18C223.53 38.5 223.636 38.8067 223.636 39.1L223.016 39.16V33.22C223.016 32.9267 223.11 32.6867 223.296 32.5C223.483 32.3 223.723 32.2 224.016 32.2ZM219.936 45.36C220.563 45.36 221.11 45.2 221.576 44.88C222.056 44.56 222.43 44.1267 222.696 43.58C222.963 43.0333 223.096 42.4133 223.096 41.72C223.096 41.0267 222.963 40.4067 222.696 39.86C222.43 39.3133 222.056 38.88 221.576 38.56C221.11 38.24 220.563 38.08 219.936 38.08C219.323 38.08 218.776 38.24 218.296 38.56C217.816 38.88 217.443 39.3133 217.176 39.86C216.91 40.4067 216.776 41.0267 216.776 41.72C216.776 42.4133 216.91 43.0333 217.176 43.58C217.443 44.1267 217.816 44.56 218.296 44.88C218.776 45.2 219.323 45.36 219.936 45.36ZM232.6 47.2C231.507 47.2 230.547 46.9733 229.72 46.52C228.907 46.0533 228.274 45.42 227.82 44.62C227.38 43.8067 227.16 42.88 227.16 41.84C227.16 40.6667 227.394 39.6667 227.86 38.84C228.34 38 228.96 37.36 229.72 36.92C230.494 36.4667 231.307 36.24 232.16 36.24C232.8 36.24 233.414 36.3733 234 36.64C234.6 36.8933 235.127 37.2533 235.58 37.72C236.034 38.1733 236.394 38.7133 236.66 39.34C236.927 39.9533 237.067 40.6267 237.08 41.36C237.067 41.6267 236.96 41.8467 236.76 42.02C236.56 42.1933 236.327 42.28 236.06 42.28H228.3L227.82 40.58H235.34L234.96 40.94V40.44C234.92 39.9733 234.76 39.5667 234.48 39.22C234.2 38.86 233.854 38.5867 233.44 38.4C233.04 38.2 232.614 38.1 232.16 38.1C231.76 38.1 231.374 38.1667 231 38.3C230.627 38.42 230.3 38.62 230.02 38.9C229.74 39.18 229.514 39.5533 229.34 40.02C229.167 40.4733 229.08 41.04 229.08 41.72C229.08 42.4533 229.234 43.0933 229.54 43.64C229.847 44.1867 230.26 44.6133 230.78 44.92C231.3 45.2133 231.88 45.36 232.52 45.36C233 45.36 233.4 45.3133 233.72 45.22C234.04 45.1133 234.307 44.9867 234.52 44.84C234.734 44.6933 234.92 44.5533 235.08 44.42C235.294 44.3 235.494 44.24 235.68 44.24C235.92 44.24 236.12 44.3267 236.28 44.5C236.44 44.66 236.52 44.8533 236.52 45.08C236.52 45.3733 236.374 45.64 236.08 45.88C235.72 46.2267 235.22 46.5333 234.58 46.8C233.954 47.0667 233.294 47.2 232.6 47.2ZM244.666 36.24C245.612 36.24 246.346 36.44 246.866 36.84C247.386 37.2267 247.746 37.7533 247.946 38.42C248.159 39.0733 248.266 39.8067 248.266 40.62V45.98C248.266 46.2733 248.166 46.52 247.966 46.72C247.779 46.9067 247.546 47 247.266 47C246.972 47 246.732 46.9067 246.546 46.72C246.359 46.52 246.266 46.2733 246.266 45.98V40.64C246.266 40.16 246.199 39.7333 246.066 39.36C245.932 38.9733 245.699 38.6667 245.366 38.44C245.046 38.2 244.592 38.08 244.006 38.08C243.459 38.08 242.979 38.2 242.566 38.44C242.152 38.6667 241.826 38.9733 241.586 39.36C241.359 39.7333 241.246 40.16 241.246 40.64V45.98C241.246 46.2733 241.146 46.52 240.946 46.72C240.759 46.9067 240.526 47 240.246 47C239.952 47 239.712 46.9067 239.526 46.72C239.339 46.52 239.246 46.2733 239.246 45.98V37.5C239.246 37.2067 239.339 36.9667 239.526 36.78C239.712 36.58 239.952 36.48 240.246 36.48C240.526 36.48 240.759 36.58 240.946 36.78C241.146 36.9667 241.246 37.2067 241.246 37.5V38.62L240.886 38.82C240.979 38.5267 241.139 38.2333 241.366 37.94C241.606 37.6333 241.892 37.3533 242.226 37.1C242.559 36.8333 242.932 36.6267 243.346 36.48C243.759 36.32 244.199 36.24 244.666 36.24ZM250.903 36.6H255.603C255.869 36.6 256.089 36.6933 256.263 36.88C256.449 37.0533 256.543 37.2733 256.543 37.54C256.543 37.7933 256.449 38.0067 256.263 38.18C256.089 38.3533 255.869 38.44 255.603 38.44H250.903C250.636 38.44 250.409 38.3533 250.223 38.18C250.049 37.9933 249.963 37.7733 249.963 37.52C249.963 37.2533 250.049 37.0333 250.223 36.86C250.409 36.6867 250.636 36.6 250.903 36.6ZM253.003 34C253.296 34 253.536 34.1 253.723 34.3C253.909 34.4867 254.003 34.7267 254.003 35.02V44.3C254.003 44.54 254.043 44.7333 254.123 44.88C254.203 45.0267 254.309 45.1267 254.443 45.18C254.589 45.2333 254.736 45.26 254.883 45.26C255.029 45.26 255.156 45.2333 255.263 45.18C255.383 45.1267 255.523 45.1 255.683 45.1C255.843 45.1 255.989 45.1733 256.123 45.32C256.256 45.4667 256.323 45.6667 256.323 45.92C256.323 46.24 256.149 46.5 255.803 46.7C255.456 46.9 255.083 47 254.683 47C254.456 47 254.189 46.98 253.883 46.94C253.576 46.9 253.276 46.8 252.983 46.64C252.703 46.48 252.469 46.2267 252.283 45.88C252.096 45.52 252.003 45.02 252.003 44.38V35.02C252.003 34.7267 252.096 34.4867 252.283 34.3C252.483 34.1 252.723 34 253.003 34ZM263.46 47.2C262.366 47.2 261.406 46.9733 260.58 46.52C259.766 46.0533 259.133 45.42 258.68 44.62C258.24 43.8067 258.02 42.88 258.02 41.84C258.02 40.6667 258.253 39.6667 258.72 38.84C259.2 38 259.82 37.36 260.58 36.92C261.353 36.4667 262.166 36.24 263.02 36.24C263.66 36.24 264.273 36.3733 264.86 36.64C265.46 36.8933 265.986 37.2533 266.44 37.72C266.893 38.1733 267.253 38.7133 267.52 39.34C267.786 39.9533 267.926 40.6267 267.94 41.36C267.926 41.6267 267.82 41.8467 267.62 42.02C267.42 42.1933 267.186 42.28 266.92 42.28H259.16L258.68 40.58H266.2L265.82 40.94V40.44C265.78 39.9733 265.62 39.5667 265.34 39.22C265.06 38.86 264.713 38.5867 264.3 38.4C263.9 38.2 263.473 38.1 263.02 38.1C262.62 38.1 262.233 38.1667 261.86 38.3C261.486 38.42 261.16 38.62 260.88 38.9C260.6 39.18 260.373 39.5533 260.2 40.02C260.026 40.4733 259.94 41.04 259.94 41.72C259.94 42.4533 260.093 43.0933 260.4 43.64C260.706 44.1867 261.12 44.6133 261.64 44.92C262.16 45.2133 262.74 45.36 263.38 45.36C263.86 45.36 264.26 45.3133 264.58 45.22C264.9 45.1133 265.166 44.9867 265.38 44.84C265.593 44.6933 265.78 44.5533 265.94 44.42C266.153 44.3 266.353 44.24 266.54 44.24C266.78 44.24 266.98 44.3267 267.14 44.5C267.3 44.66 267.38 44.8533 267.38 45.08C267.38 45.3733 267.233 45.64 266.94 45.88C266.58 46.2267 266.08 46.5333 265.44 46.8C264.813 47.0667 264.153 47.2 263.46 47.2Z" fill="black"/>
<circle cx="40" cy="296" r="40" fill="#585858"/>
<path d="M55.75 287.375L51.9312 283.529L34.0833 301.377L27.0687 294.39L23.25 298.208L34.0833 309.042L55.75 287.375ZM58.4583 271.125H47.1375C46 267.983 43.0208 265.708 39.5 265.708C35.9792 265.708 33 267.983 31.8625 271.125H20.5417C20.1625 271.125 19.8104 271.152 19.4583 271.233C18.4021 271.45 17.4542 271.992 16.7229 272.723C16.2354 273.21 15.8292 273.806 15.5583 274.456C15.2875 275.079 15.125 275.783 15.125 276.542V314.458C15.125 315.19 15.2875 315.921 15.5583 316.571C15.8292 317.221 16.2354 317.79 16.7229 318.304C17.4542 319.035 18.4021 319.577 19.4583 319.794C19.8104 319.848 20.1625 319.875 20.5417 319.875H58.4583C61.4375 319.875 63.875 317.437 63.875 314.458V276.542C63.875 273.562 61.4375 271.125 58.4583 271.125ZM39.5 270.448C40.6104 270.448 41.5312 271.369 41.5312 272.479C41.5312 273.59 40.6104 274.51 39.5 274.51C38.3896 274.51 37.4687 273.59 37.4687 272.479C37.4687 271.369 38.3896 270.448 39.5 270.448ZM58.4583 314.458H20.5417V276.542H58.4583V314.458Z" fill="white"/>
<path d="M112.732 289H119.652C119.932 289 120.165 289.093 120.352 289.28C120.552 289.467 120.652 289.7 120.652 289.98C120.652 290.26 120.552 290.487 120.352 290.66C120.165 290.833 119.932 290.92 119.652 290.92H113.612L113.812 290.58V295.06L113.632 294.86H118.752C119.032 294.86 119.265 294.953 119.452 295.14C119.652 295.327 119.752 295.567 119.752 295.86C119.752 296.14 119.652 296.367 119.452 296.54C119.265 296.713 119.032 296.8 118.752 296.8H113.672L113.812 296.62V301.24L113.672 301.08H119.652C119.932 301.08 120.165 301.18 120.352 301.38C120.552 301.567 120.652 301.787 120.652 302.04C120.652 302.32 120.552 302.553 120.352 302.74C120.165 302.913 119.932 303 119.652 303H112.732C112.452 303 112.212 302.907 112.012 302.72C111.812 302.52 111.712 302.273 111.712 301.98V290.02C111.712 289.727 111.812 289.487 112.012 289.3C112.212 289.1 112.452 289 112.732 289ZM128.338 292.24C129.284 292.24 130.018 292.44 130.538 292.84C131.058 293.227 131.418 293.753 131.618 294.42C131.831 295.073 131.938 295.807 131.938 296.62V301.98C131.938 302.273 131.838 302.52 131.638 302.72C131.451 302.907 131.218 303 130.938 303C130.644 303 130.404 302.907 130.218 302.72C130.031 302.52 129.938 302.273 129.938 301.98V296.64C129.938 296.16 129.871 295.733 129.738 295.36C129.604 294.973 129.371 294.667 129.038 294.44C128.718 294.2 128.264 294.08 127.678 294.08C127.131 294.08 126.651 294.2 126.238 294.44C125.824 294.667 125.498 294.973 125.258 295.36C125.031 295.733 124.918 296.16 124.918 296.64V301.98C124.918 302.273 124.818 302.52 124.618 302.72C124.431 302.907 124.198 303 123.918 303C123.624 303 123.384 302.907 123.198 302.72C123.011 302.52 122.918 302.273 122.918 301.98V293.5C122.918 293.207 123.011 292.967 123.198 292.78C123.384 292.58 123.624 292.48 123.918 292.48C124.198 292.48 124.431 292.58 124.618 292.78C124.818 292.967 124.918 293.207 124.918 293.5V294.62L124.558 294.82C124.651 294.527 124.811 294.233 125.038 293.94C125.278 293.633 125.564 293.353 125.898 293.1C126.231 292.833 126.604 292.627 127.018 292.48C127.431 292.32 127.871 292.24 128.338 292.24ZM134.574 292.6H139.274C139.541 292.6 139.761 292.693 139.934 292.88C140.121 293.053 140.214 293.273 140.214 293.54C140.214 293.793 140.121 294.007 139.934 294.18C139.761 294.353 139.541 294.44 139.274 294.44H134.574C134.308 294.44 134.081 294.353 133.894 294.18C133.721 293.993 133.634 293.773 133.634 293.52C133.634 293.253 133.721 293.033 133.894 292.86C134.081 292.687 134.308 292.6 134.574 292.6ZM136.674 290C136.968 290 137.208 290.1 137.394 290.3C137.581 290.487 137.674 290.727 137.674 291.02V300.3C137.674 300.54 137.714 300.733 137.794 300.88C137.874 301.027 137.981 301.127 138.114 301.18C138.261 301.233 138.408 301.26 138.554 301.26C138.701 301.26 138.828 301.233 138.934 301.18C139.054 301.127 139.194 301.1 139.354 301.1C139.514 301.1 139.661 301.173 139.794 301.32C139.928 301.467 139.994 301.667 139.994 301.92C139.994 302.24 139.821 302.5 139.474 302.7C139.128 302.9 138.754 303 138.354 303C138.128 303 137.861 302.98 137.554 302.94C137.248 302.9 136.948 302.8 136.654 302.64C136.374 302.48 136.141 302.227 135.954 301.88C135.768 301.52 135.674 301.02 135.674 300.38V291.02C135.674 290.727 135.768 290.487 135.954 290.3C136.154 290.1 136.394 290 136.674 290ZM143.429 303C143.136 303 142.896 302.907 142.709 302.72C142.523 302.52 142.429 302.273 142.429 301.98V293.5C142.429 293.207 142.523 292.967 142.709 292.78C142.896 292.58 143.136 292.48 143.429 292.48C143.709 292.48 143.943 292.58 144.129 292.78C144.329 292.967 144.429 293.207 144.429 293.5V295.74L144.229 294.88C144.336 294.507 144.496 294.16 144.709 293.84C144.936 293.52 145.203 293.24 145.509 293C145.816 292.76 146.156 292.573 146.529 292.44C146.916 292.307 147.316 292.24 147.729 292.24C148.076 292.24 148.376 292.333 148.629 292.52C148.883 292.707 149.009 292.94 149.009 293.22C149.009 293.58 148.916 293.847 148.729 294.02C148.543 294.18 148.336 294.26 148.109 294.26C147.909 294.26 147.716 294.22 147.529 294.14C147.343 294.047 147.123 294 146.869 294C146.589 294 146.303 294.073 146.009 294.22C145.716 294.367 145.449 294.587 145.209 294.88C144.969 295.16 144.776 295.493 144.629 295.88C144.496 296.267 144.429 296.7 144.429 297.18V301.98C144.429 302.273 144.329 302.52 144.129 302.72C143.943 302.907 143.709 303 143.429 303ZM155.139 303.2C154.046 303.2 153.086 302.973 152.259 302.52C151.446 302.053 150.813 301.42 150.359 300.62C149.919 299.807 149.699 298.88 149.699 297.84C149.699 296.667 149.933 295.667 150.399 294.84C150.879 294 151.499 293.36 152.259 292.92C153.033 292.467 153.846 292.24 154.699 292.24C155.339 292.24 155.953 292.373 156.539 292.64C157.139 292.893 157.666 293.253 158.119 293.72C158.573 294.173 158.933 294.713 159.199 295.34C159.466 295.953 159.606 296.627 159.619 297.36C159.606 297.627 159.499 297.847 159.299 298.02C159.099 298.193 158.866 298.28 158.599 298.28H150.839L150.359 296.58H157.879L157.499 296.94V296.44C157.459 295.973 157.299 295.567 157.019 295.22C156.739 294.86 156.393 294.587 155.979 294.4C155.579 294.2 155.153 294.1 154.699 294.1C154.299 294.1 153.913 294.167 153.539 294.3C153.166 294.42 152.839 294.62 152.559 294.9C152.279 295.18 152.053 295.553 151.879 296.02C151.706 296.473 151.619 297.04 151.619 297.72C151.619 298.453 151.773 299.093 152.079 299.64C152.386 300.187 152.799 300.613 153.319 300.92C153.839 301.213 154.419 301.36 155.059 301.36C155.539 301.36 155.939 301.313 156.259 301.22C156.579 301.113 156.846 300.987 157.059 300.84C157.273 300.693 157.459 300.553 157.619 300.42C157.833 300.3 158.033 300.24 158.219 300.24C158.459 300.24 158.659 300.327 158.819 300.5C158.979 300.66 159.059 300.853 159.059 301.08C159.059 301.373 158.913 301.64 158.619 301.88C158.259 302.227 157.759 302.533 157.119 302.8C156.493 303.067 155.833 303.2 155.139 303.2ZM161.927 292.38C162.127 292.38 162.314 292.433 162.487 292.54C162.674 292.647 162.807 292.807 162.887 293.02L166.027 300.28L165.647 300.46L168.827 293.04C169.014 292.6 169.314 292.387 169.727 292.4C169.994 292.4 170.214 292.487 170.387 292.66C170.574 292.82 170.667 293.033 170.667 293.3C170.667 293.38 170.654 293.467 170.627 293.56C170.6 293.64 170.567 293.72 170.527 293.8L166.727 302.36C166.554 302.76 166.267 302.973 165.867 303C165.667 303.027 165.467 302.987 165.267 302.88C165.08 302.76 164.934 302.587 164.827 302.36L161.047 293.8C161.02 293.747 160.994 293.68 160.967 293.6C160.94 293.507 160.927 293.4 160.927 293.28C160.927 293.08 161.014 292.88 161.187 292.68C161.374 292.48 161.62 292.38 161.927 292.38ZM174.583 301.98C174.583 302.273 174.489 302.52 174.303 302.72C174.116 302.907 173.876 303 173.583 303C173.303 303 173.063 302.907 172.863 302.72C172.676 302.52 172.583 302.273 172.583 301.98V293.42C172.583 293.127 172.676 292.887 172.863 292.7C173.063 292.5 173.303 292.4 173.583 292.4C173.876 292.4 174.116 292.5 174.303 292.7C174.489 292.887 174.583 293.127 174.583 293.42V301.98ZM173.563 291.08C173.176 291.08 172.896 291.013 172.723 290.88C172.549 290.733 172.463 290.493 172.463 290.16V289.84C172.463 289.507 172.556 289.273 172.743 289.14C172.929 289.007 173.209 288.94 173.583 288.94C173.983 288.94 174.269 289.013 174.443 289.16C174.616 289.293 174.703 289.52 174.703 289.84V290.16C174.703 290.507 174.609 290.747 174.423 290.88C174.249 291.013 173.963 291.08 173.563 291.08ZM176.653 301.36C176.533 301.173 176.48 300.96 176.493 300.72C176.506 300.467 176.646 300.253 176.913 300.08C177.1 299.96 177.293 299.913 177.493 299.94C177.706 299.953 177.906 300.053 178.093 300.24C178.466 300.653 178.88 300.98 179.333 301.22C179.8 301.46 180.36 301.58 181.013 301.58C181.28 301.567 181.553 301.527 181.833 301.46C182.113 301.38 182.353 301.247 182.553 301.06C182.753 300.86 182.853 300.573 182.853 300.2C182.853 299.867 182.746 299.6 182.533 299.4C182.32 299.2 182.04 299.04 181.693 298.92C181.346 298.787 180.973 298.667 180.573 298.56C180.146 298.44 179.713 298.307 179.273 298.16C178.846 298.013 178.46 297.827 178.113 297.6C177.766 297.36 177.48 297.053 177.253 296.68C177.04 296.307 176.933 295.847 176.933 295.3C176.933 294.673 177.106 294.133 177.453 293.68C177.813 293.227 178.273 292.873 178.833 292.62C179.406 292.367 180.026 292.24 180.693 292.24C181.08 292.24 181.486 292.293 181.913 292.4C182.34 292.493 182.753 292.647 183.153 292.86C183.553 293.073 183.9 293.353 184.193 293.7C184.326 293.873 184.4 294.08 184.413 294.32C184.44 294.56 184.333 294.773 184.093 294.96C183.933 295.093 183.74 295.153 183.513 295.14C183.286 295.127 183.1 295.053 182.953 294.92C182.7 294.6 182.373 294.353 181.973 294.18C181.573 293.993 181.12 293.9 180.613 293.9C180.36 293.9 180.093 293.94 179.813 294.02C179.546 294.087 179.32 294.213 179.133 294.4C178.946 294.587 178.853 294.86 178.853 295.22C178.853 295.553 178.96 295.82 179.173 296.02C179.4 296.22 179.693 296.387 180.053 296.52C180.413 296.653 180.806 296.773 181.233 296.88C181.646 296.987 182.053 297.113 182.453 297.26C182.866 297.407 183.233 297.6 183.553 297.84C183.886 298.067 184.153 298.367 184.353 298.74C184.566 299.1 184.673 299.56 184.673 300.12C184.673 300.773 184.48 301.333 184.093 301.8C183.72 302.253 183.24 302.6 182.653 302.84C182.08 303.08 181.473 303.2 180.833 303.2C180.073 303.2 179.313 303.067 178.553 302.8C177.806 302.52 177.173 302.04 176.653 301.36ZM186.684 292.6H191.384C191.65 292.6 191.87 292.693 192.044 292.88C192.23 293.053 192.324 293.273 192.324 293.54C192.324 293.793 192.23 294.007 192.044 294.18C191.87 294.353 191.65 294.44 191.384 294.44H186.684C186.417 294.44 186.19 294.353 186.004 294.18C185.83 293.993 185.744 293.773 185.744 293.52C185.744 293.253 185.83 293.033 186.004 292.86C186.19 292.687 186.417 292.6 186.684 292.6ZM188.784 290C189.077 290 189.317 290.1 189.504 290.3C189.69 290.487 189.784 290.727 189.784 291.02V300.3C189.784 300.54 189.824 300.733 189.904 300.88C189.984 301.027 190.09 301.127 190.224 301.18C190.37 301.233 190.517 301.26 190.664 301.26C190.81 301.26 190.937 301.233 191.044 301.18C191.164 301.127 191.304 301.1 191.464 301.1C191.624 301.1 191.77 301.173 191.904 301.32C192.037 301.467 192.104 301.667 192.104 301.92C192.104 302.24 191.93 302.5 191.584 302.7C191.237 302.9 190.864 303 190.464 303C190.237 303 189.97 302.98 189.664 302.94C189.357 302.9 189.057 302.8 188.764 302.64C188.484 302.48 188.25 302.227 188.064 301.88C187.877 301.52 187.784 301.02 187.784 300.38V291.02C187.784 290.727 187.877 290.487 188.064 290.3C188.264 290.1 188.504 290 188.784 290ZM203.079 292.32C203.359 292.32 203.592 292.42 203.779 292.62C203.979 292.807 204.079 293.047 204.079 293.34V301.98C204.079 302.273 203.979 302.52 203.779 302.72C203.592 302.907 203.359 303 203.079 303C202.785 303 202.545 302.907 202.359 302.72C202.172 302.52 202.079 302.273 202.079 301.98V300.54L202.479 300.6C202.479 300.84 202.379 301.107 202.179 301.4C201.992 301.693 201.732 301.98 201.399 302.26C201.065 302.527 200.672 302.753 200.219 302.94C199.765 303.113 199.279 303.2 198.759 303.2C197.839 303.2 197.012 302.967 196.279 302.5C195.545 302.02 194.965 301.367 194.539 300.54C194.112 299.713 193.899 298.773 193.899 297.72C193.899 296.64 194.112 295.693 194.539 294.88C194.965 294.053 195.539 293.407 196.259 292.94C196.992 292.473 197.805 292.24 198.699 292.24C199.272 292.24 199.799 292.333 200.279 292.52C200.772 292.707 201.199 292.947 201.559 293.24C201.919 293.533 202.199 293.847 202.399 294.18C202.599 294.5 202.699 294.807 202.699 295.1L202.079 295.16V293.34C202.079 293.06 202.172 292.82 202.359 292.62C202.545 292.42 202.785 292.32 203.079 292.32ZM198.999 301.36C199.625 301.36 200.172 301.2 200.639 300.88C201.119 300.56 201.492 300.127 201.759 299.58C202.025 299.02 202.159 298.4 202.159 297.72C202.159 297.027 202.025 296.407 201.759 295.86C201.492 295.313 201.119 294.88 200.639 294.56C200.172 294.24 199.625 294.08 198.999 294.08C198.385 294.08 197.839 294.24 197.359 294.56C196.879 294.88 196.505 295.313 196.239 295.86C195.972 296.407 195.839 297.027 195.839 297.72C195.839 298.4 195.972 299.02 196.239 299.58C196.505 300.127 196.872 300.56 197.339 300.88C197.819 301.2 198.372 301.36 198.999 301.36ZM217.709 292.3C218.696 292.3 219.456 292.547 219.989 293.04C220.523 293.52 220.876 294.173 221.049 295L220.729 294.9L220.869 294.58C221.043 294.233 221.303 293.887 221.649 293.54C222.009 293.18 222.436 292.887 222.929 292.66C223.423 292.42 223.949 292.3 224.509 292.3C225.429 292.3 226.143 292.5 226.649 292.9C227.156 293.287 227.509 293.813 227.709 294.48C227.909 295.133 228.009 295.867 228.009 296.68V301.98C228.009 302.273 227.916 302.52 227.729 302.72C227.543 302.907 227.303 303 227.009 303C226.729 303 226.489 302.907 226.289 302.72C226.103 302.52 226.009 302.273 226.009 301.98V296.7C226.009 296.233 225.943 295.807 225.809 295.42C225.689 295.033 225.469 294.727 225.149 294.5C224.843 294.26 224.416 294.14 223.869 294.14C223.349 294.14 222.883 294.26 222.469 294.5C222.069 294.727 221.756 295.033 221.529 295.42C221.303 295.807 221.189 296.233 221.189 296.7V301.98C221.189 302.273 221.096 302.52 220.909 302.72C220.723 302.907 220.483 303 220.189 303C219.896 303 219.656 302.907 219.469 302.72C219.283 302.52 219.189 302.273 219.189 301.98V296.68C219.189 296.213 219.123 295.787 218.989 295.4C218.869 295.013 218.656 294.707 218.349 294.48C218.043 294.253 217.616 294.14 217.069 294.14C216.549 294.14 216.089 294.253 215.689 294.48C215.289 294.707 214.976 295.013 214.749 295.4C214.536 295.787 214.429 296.213 214.429 296.68V301.98C214.429 302.273 214.329 302.52 214.129 302.72C213.943 302.907 213.709 303 213.429 303C213.136 303 212.896 302.907 212.709 302.72C212.523 302.52 212.429 302.273 212.429 301.98V293.5C212.429 293.207 212.523 292.967 212.709 292.78C212.896 292.58 213.136 292.48 213.429 292.48C213.709 292.48 213.943 292.58 214.129 292.78C214.329 292.967 214.429 293.207 214.429 293.5V294.68L214.049 294.9C214.143 294.607 214.296 294.307 214.509 294C214.723 293.693 214.989 293.413 215.309 293.16C215.643 292.907 216.009 292.7 216.409 292.54C216.809 292.38 217.243 292.3 217.709 292.3ZM239.348 292.32C239.628 292.32 239.862 292.42 240.048 292.62C240.248 292.807 240.348 293.047 240.348 293.34V301.98C240.348 302.273 240.248 302.52 240.048 302.72C239.862 302.907 239.628 303 239.348 303C239.055 303 238.815 302.907 238.628 302.72C238.442 302.52 238.348 302.273 238.348 301.98V300.54L238.748 300.6C238.748 300.84 238.648 301.107 238.448 301.4C238.262 301.693 238.002 301.98 237.668 302.26C237.335 302.527 236.942 302.753 236.488 302.94C236.035 303.113 235.548 303.2 235.028 303.2C234.108 303.2 233.282 302.967 232.548 302.5C231.815 302.02 231.235 301.367 230.808 300.54C230.382 299.713 230.168 298.773 230.168 297.72C230.168 296.64 230.382 295.693 230.808 294.88C231.235 294.053 231.808 293.407 232.528 292.94C233.262 292.473 234.075 292.24 234.968 292.24C235.542 292.24 236.068 292.333 236.548 292.52C237.042 292.707 237.468 292.947 237.828 293.24C238.188 293.533 238.468 293.847 238.668 294.18C238.868 294.5 238.968 294.807 238.968 295.1L238.348 295.16V293.34C238.348 293.06 238.442 292.82 238.628 292.62C238.815 292.42 239.055 292.32 239.348 292.32ZM235.268 301.36C235.895 301.36 236.442 301.2 236.908 300.88C237.388 300.56 237.762 300.127 238.028 299.58C238.295 299.02 238.428 298.4 238.428 297.72C238.428 297.027 238.295 296.407 238.028 295.86C237.762 295.313 237.388 294.88 236.908 294.56C236.442 294.24 235.895 294.08 235.268 294.08C234.655 294.08 234.108 294.24 233.628 294.56C233.148 294.88 232.775 295.313 232.508 295.86C232.242 296.407 232.108 297.027 232.108 297.72C232.108 298.4 232.242 299.02 232.508 299.58C232.775 300.127 233.142 300.56 233.608 300.88C234.088 301.2 234.642 301.36 235.268 301.36ZM244.132 303C243.839 303 243.599 302.907 243.412 302.72C243.226 302.52 243.132 302.273 243.132 301.98V293.5C243.132 293.207 243.226 292.967 243.412 292.78C243.599 292.58 243.839 292.48 244.132 292.48C244.412 292.48 244.646 292.58 244.832 292.78C245.032 292.967 245.132 293.207 245.132 293.5V295.74L244.932 294.88C245.039 294.507 245.199 294.16 245.412 293.84C245.639 293.52 245.906 293.24 246.212 293C246.519 292.76 246.859 292.573 247.232 292.44C247.619 292.307 248.019 292.24 248.432 292.24C248.779 292.24 249.079 292.333 249.332 292.52C249.586 292.707 249.712 292.94 249.712 293.22C249.712 293.58 249.619 293.847 249.432 294.02C249.246 294.18 249.039 294.26 248.812 294.26C248.612 294.26 248.419 294.22 248.232 294.14C248.046 294.047 247.826 294 247.572 294C247.292 294 247.006 294.073 246.712 294.22C246.419 294.367 246.152 294.587 245.912 294.88C245.672 295.16 245.479 295.493 245.332 295.88C245.199 296.267 245.132 296.7 245.132 297.18V301.98C245.132 302.273 245.032 302.52 244.832 302.72C244.646 302.907 244.412 303 244.132 303ZM255.623 292.24C256.343 292.24 256.976 292.32 257.523 292.48C258.083 292.627 258.523 292.84 258.843 293.12C259.163 293.387 259.323 293.7 259.323 294.06C259.323 294.287 259.249 294.5 259.103 294.7C258.969 294.887 258.776 294.98 258.523 294.98C258.323 294.98 258.156 294.947 258.023 294.88C257.903 294.813 257.789 294.733 257.683 294.64C257.576 294.547 257.443 294.453 257.283 294.36C257.136 294.28 256.916 294.213 256.623 294.16C256.343 294.107 256.089 294.08 255.863 294.08C255.156 294.08 254.543 294.24 254.023 294.56C253.516 294.88 253.116 295.313 252.823 295.86C252.543 296.407 252.403 297.027 252.403 297.72C252.403 298.413 252.543 299.033 252.823 299.58C253.116 300.127 253.509 300.56 254.003 300.88C254.509 301.2 255.096 301.36 255.763 301.36C256.163 301.36 256.489 301.333 256.743 301.28C257.009 301.213 257.229 301.133 257.403 301.04C257.616 300.92 257.789 300.8 257.923 300.68C258.056 300.547 258.249 300.48 258.503 300.48C258.796 300.48 259.016 300.573 259.163 300.76C259.323 300.933 259.403 301.153 259.403 301.42C259.403 301.713 259.223 302 258.863 302.28C258.516 302.547 258.049 302.767 257.463 302.94C256.876 303.113 256.229 303.2 255.523 303.2C254.483 303.2 253.576 302.96 252.803 302.48C252.043 302 251.449 301.347 251.023 300.52C250.609 299.693 250.403 298.76 250.403 297.72C250.403 296.667 250.623 295.733 251.063 294.92C251.503 294.093 252.116 293.44 252.903 292.96C253.689 292.48 254.596 292.24 255.623 292.24ZM269.876 292.32C270.156 292.32 270.389 292.42 270.576 292.62C270.776 292.807 270.876 293.047 270.876 293.34V301.98C270.876 302.273 270.776 302.52 270.576 302.72C270.389 302.907 270.156 303 269.876 303C269.582 303 269.342 302.907 269.156 302.72C268.969 302.52 268.876 302.273 268.876 301.98V300.54L269.276 300.6C269.276 300.84 269.176 301.107 268.976 301.4C268.789 301.693 268.529 301.98 268.196 302.26C267.862 302.527 267.469 302.753 267.016 302.94C266.562 303.113 266.076 303.2 265.556 303.2C264.636 303.2 263.809 302.967 263.076 302.5C262.342 302.02 261.762 301.367 261.336 300.54C260.909 299.713 260.696 298.773 260.696 297.72C260.696 296.64 260.909 295.693 261.336 294.88C261.762 294.053 262.336 293.407 263.056 292.94C263.789 292.473 264.602 292.24 265.496 292.24C266.069 292.24 266.596 292.333 267.076 292.52C267.569 292.707 267.996 292.947 268.356 293.24C268.716 293.533 268.996 293.847 269.196 294.18C269.396 294.5 269.496 294.807 269.496 295.1L268.876 295.16V293.34C268.876 293.06 268.969 292.82 269.156 292.62C269.342 292.42 269.582 292.32 269.876 292.32ZM265.796 301.36C266.422 301.36 266.969 301.2 267.436 300.88C267.916 300.56 268.289 300.127 268.556 299.58C268.822 299.02 268.956 298.4 268.956 297.72C268.956 297.027 268.822 296.407 268.556 295.86C268.289 295.313 267.916 294.88 267.436 294.56C266.969 294.24 266.422 294.08 265.796 294.08C265.182 294.08 264.636 294.24 264.156 294.56C263.676 294.88 263.302 295.313 263.036 295.86C262.769 296.407 262.636 297.027 262.636 297.72C262.636 298.4 262.769 299.02 263.036 299.58C263.302 300.127 263.669 300.56 264.136 300.88C264.616 301.2 265.169 301.36 265.796 301.36ZM282.2 288.2C282.48 288.2 282.713 288.293 282.9 288.48C283.1 288.667 283.2 288.913 283.2 289.22V301.98C283.2 302.273 283.1 302.52 282.9 302.72C282.713 302.907 282.48 303 282.2 303C281.906 303 281.666 302.907 281.48 302.72C281.293 302.52 281.2 302.273 281.2 301.98V300.54L281.6 300.56C281.6 300.8 281.5 301.073 281.3 301.38C281.113 301.673 280.853 301.96 280.52 302.24C280.186 302.52 279.793 302.753 279.34 302.94C278.886 303.113 278.4 303.2 277.88 303.2C276.973 303.2 276.146 302.967 275.4 302.5C274.666 302.02 274.086 301.373 273.66 300.56C273.233 299.733 273.02 298.787 273.02 297.72C273.02 296.653 273.233 295.713 273.66 294.9C274.086 294.073 274.66 293.427 275.38 292.96C276.113 292.48 276.926 292.24 277.82 292.24C278.38 292.24 278.9 292.333 279.38 292.52C279.873 292.707 280.3 292.947 280.66 293.24C281.02 293.533 281.3 293.847 281.5 294.18C281.713 294.5 281.82 294.807 281.82 295.1L281.2 295.16V289.22C281.2 288.927 281.293 288.687 281.48 288.5C281.666 288.3 281.906 288.2 282.2 288.2ZM278.12 301.36C278.746 301.36 279.293 301.2 279.76 300.88C280.24 300.56 280.613 300.127 280.88 299.58C281.146 299.033 281.28 298.413 281.28 297.72C281.28 297.027 281.146 296.407 280.88 295.86C280.613 295.313 280.24 294.88 279.76 294.56C279.293 294.24 278.746 294.08 278.12 294.08C277.506 294.08 276.96 294.24 276.48 294.56C276 294.88 275.626 295.313 275.36 295.86C275.093 296.407 274.96 297.027 274.96 297.72C274.96 298.413 275.093 299.033 275.36 299.58C275.626 300.127 276 300.56 276.48 300.88C276.96 301.2 277.506 301.36 278.12 301.36ZM294.524 292.32C294.804 292.32 295.037 292.42 295.224 292.62C295.424 292.807 295.524 293.047 295.524 293.34V301.98C295.524 302.273 295.424 302.52 295.224 302.72C295.037 302.907 294.804 303 294.524 303C294.231 303 293.991 302.907 293.804 302.72C293.617 302.52 293.524 302.273 293.524 301.98V300.54L293.924 300.6C293.924 300.84 293.824 301.107 293.624 301.4C293.437 301.693 293.177 301.98 292.844 302.26C292.511 302.527 292.117 302.753 291.664 302.94C291.211 303.113 290.724 303.2 290.204 303.2C289.284 303.2 288.457 302.967 287.724 302.5C286.991 302.02 286.411 301.367 285.984 300.54C285.557 299.713 285.344 298.773 285.344 297.72C285.344 296.64 285.557 295.693 285.984 294.88C286.411 294.053 286.984 293.407 287.704 292.94C288.437 292.473 289.251 292.24 290.144 292.24C290.717 292.24 291.244 292.333 291.724 292.52C292.217 292.707 292.644 292.947 293.004 293.24C293.364 293.533 293.644 293.847 293.844 294.18C294.044 294.5 294.144 294.807 294.144 295.1L293.524 295.16V293.34C293.524 293.06 293.617 292.82 293.804 292.62C293.991 292.42 294.231 292.32 294.524 292.32ZM290.444 301.36C291.071 301.36 291.617 301.2 292.084 300.88C292.564 300.56 292.937 300.127 293.204 299.58C293.471 299.02 293.604 298.4 293.604 297.72C293.604 297.027 293.471 296.407 293.204 295.86C292.937 295.313 292.564 294.88 292.084 294.56C291.617 294.24 291.071 294.08 290.444 294.08C289.831 294.08 289.284 294.24 288.804 294.56C288.324 294.88 287.951 295.313 287.684 295.86C287.417 296.407 287.284 297.027 287.284 297.72C287.284 298.4 287.417 299.02 287.684 299.58C287.951 300.127 288.317 300.56 288.784 300.88C289.264 301.2 289.817 301.36 290.444 301.36Z" fill="black"/>
<circle cx="40" cy="552" r="40" fill="#585858"/>
<path d="M39.4998 524.417C24.5498 524.417 12.4165 536.55 12.4165 551.5C12.4165 566.45 24.5498 578.583 39.4998 578.583C54.4498 578.583 66.5832 566.45 66.5832 551.5C66.5832 536.55 54.4498 524.417 39.4998 524.417ZM39.4998 573.167C27.5561 573.167 17.8332 563.444 17.8332 551.5C17.8332 539.556 27.5561 529.833 39.4998 529.833C51.4436 529.833 61.1665 539.556 61.1665 551.5C61.1665 563.444 51.4436 573.167 39.4998 573.167ZM51.9311 539.529L34.0832 557.377L27.0686 550.39L23.2498 554.208L34.0832 565.042L55.7498 543.375L51.9311 539.529Z" fill="white"/>
<path d="M117.69 545C118.396 545 119.05 545.193 119.65 545.58C120.25 545.953 120.73 546.467 121.09 547.12C121.45 547.773 121.63 548.507 121.63 549.32C121.63 550.133 121.45 550.873 121.09 551.54C120.73 552.193 120.25 552.72 119.65 553.12C119.05 553.507 118.396 553.7 117.69 553.7H113.83L113.99 553.38V557.98C113.99 558.273 113.896 558.52 113.71 558.72C113.536 558.907 113.303 559 113.01 559C112.73 559 112.496 558.907 112.31 558.72C112.136 558.52 112.05 558.273 112.05 557.98V546.02C112.05 545.727 112.15 545.487 112.35 545.3C112.55 545.1 112.79 545 113.07 545H117.69ZM117.69 551.78C118.036 551.78 118.35 551.667 118.63 551.44C118.923 551.213 119.156 550.913 119.33 550.54C119.516 550.167 119.61 549.76 119.61 549.32C119.61 548.88 119.516 548.48 119.33 548.12C119.156 547.76 118.923 547.473 118.63 547.26C118.35 547.033 118.036 546.92 117.69 546.92H113.79L113.99 546.62V552.04L113.81 551.78H117.69ZM128.446 559.2C127.353 559.2 126.393 558.973 125.566 558.52C124.753 558.053 124.119 557.42 123.666 556.62C123.226 555.807 123.006 554.88 123.006 553.84C123.006 552.667 123.239 551.667 123.706 550.84C124.186 550 124.806 549.36 125.566 548.92C126.339 548.467 127.153 548.24 128.006 548.24C128.646 548.24 129.259 548.373 129.846 548.64C130.446 548.893 130.973 549.253 131.426 549.72C131.879 550.173 132.239 550.713 132.506 551.34C132.773 551.953 132.913 552.627 132.926 553.36C132.913 553.627 132.806 553.847 132.606 554.02C132.406 554.193 132.173 554.28 131.906 554.28H124.146L123.666 552.58H131.186L130.806 552.94V552.44C130.766 551.973 130.606 551.567 130.326 551.22C130.046 550.86 129.699 550.587 129.286 550.4C128.886 550.2 128.459 550.1 128.006 550.1C127.606 550.1 127.219 550.167 126.846 550.3C126.473 550.42 126.146 550.62 125.866 550.9C125.586 551.18 125.359 551.553 125.186 552.02C125.013 552.473 124.926 553.04 124.926 553.72C124.926 554.453 125.079 555.093 125.386 555.64C125.693 556.187 126.106 556.613 126.626 556.92C127.146 557.213 127.726 557.36 128.366 557.36C128.846 557.36 129.246 557.313 129.566 557.22C129.886 557.113 130.153 556.987 130.366 556.84C130.579 556.693 130.766 556.553 130.926 556.42C131.139 556.3 131.339 556.24 131.526 556.24C131.766 556.24 131.966 556.327 132.126 556.5C132.286 556.66 132.366 556.853 132.366 557.08C132.366 557.373 132.219 557.64 131.926 557.88C131.566 558.227 131.066 558.533 130.426 558.8C129.799 559.067 129.139 559.2 128.446 559.2ZM136.091 559C135.798 559 135.558 558.907 135.371 558.72C135.185 558.52 135.091 558.273 135.091 557.98V549.5C135.091 549.207 135.185 548.967 135.371 548.78C135.558 548.58 135.798 548.48 136.091 548.48C136.371 548.48 136.605 548.58 136.791 548.78C136.991 548.967 137.091 549.207 137.091 549.5V551.74L136.891 550.88C136.998 550.507 137.158 550.16 137.371 549.84C137.598 549.52 137.865 549.24 138.171 549C138.478 548.76 138.818 548.573 139.191 548.44C139.578 548.307 139.978 548.24 140.391 548.24C140.738 548.24 141.038 548.333 141.291 548.52C141.545 548.707 141.671 548.94 141.671 549.22C141.671 549.58 141.578 549.847 141.391 550.02C141.205 550.18 140.998 550.26 140.771 550.26C140.571 550.26 140.378 550.22 140.191 550.14C140.005 550.047 139.785 550 139.531 550C139.251 550 138.965 550.073 138.671 550.22C138.378 550.367 138.111 550.587 137.871 550.88C137.631 551.16 137.438 551.493 137.291 551.88C137.158 552.267 137.091 552.7 137.091 553.18V557.98C137.091 558.273 136.991 558.52 136.791 558.72C136.605 558.907 136.371 559 136.091 559ZM148.351 544.22C148.604 544.22 148.864 544.253 149.131 544.32C149.397 544.387 149.617 544.5 149.791 544.66C149.977 544.807 150.071 545.013 150.071 545.28C150.071 545.547 149.991 545.767 149.831 545.94C149.671 546.1 149.484 546.18 149.271 546.18C149.137 546.18 148.957 546.153 148.731 546.1C148.504 546.033 148.277 546 148.051 546C147.744 546 147.497 546.073 147.311 546.22C147.124 546.353 146.991 546.527 146.911 546.74C146.831 546.94 146.791 547.14 146.791 547.34V557.98C146.791 558.273 146.691 558.52 146.491 558.72C146.304 558.907 146.071 559 145.791 559C145.497 559 145.257 558.907 145.071 558.72C144.884 558.52 144.791 558.273 144.791 557.98V547.36C144.791 546.44 145.091 545.687 145.691 545.1C146.304 544.513 147.191 544.22 148.351 544.22ZM148.751 548.66C149.017 548.66 149.237 548.747 149.411 548.92C149.584 549.093 149.671 549.313 149.671 549.58C149.671 549.847 149.584 550.067 149.411 550.24C149.237 550.413 149.017 550.5 148.751 550.5H143.571C143.317 550.5 143.097 550.413 142.911 550.24C142.737 550.067 142.651 549.847 142.651 549.58C142.651 549.313 142.737 549.093 142.911 548.92C143.097 548.747 143.317 548.66 143.571 548.66H148.751ZM153.251 557.98C153.251 558.273 153.157 558.52 152.971 558.72C152.784 558.907 152.544 559 152.251 559C151.971 559 151.731 558.907 151.531 558.72C151.344 558.52 151.251 558.273 151.251 557.98V549.42C151.251 549.127 151.344 548.887 151.531 548.7C151.731 548.5 151.971 548.4 152.251 548.4C152.544 548.4 152.784 548.5 152.971 548.7C153.157 548.887 153.251 549.127 153.251 549.42V557.98ZM152.231 547.08C151.844 547.08 151.564 547.013 151.391 546.88C151.217 546.733 151.131 546.493 151.131 546.16V545.84C151.131 545.507 151.224 545.273 151.411 545.14C151.597 545.007 151.877 544.94 152.251 544.94C152.651 544.94 152.937 545.013 153.111 545.16C153.284 545.293 153.371 545.52 153.371 545.84V546.16C153.371 546.507 153.277 546.747 153.091 546.88C152.917 547.013 152.631 547.08 152.231 547.08ZM158.091 557.98C158.091 558.273 157.991 558.52 157.791 558.72C157.605 558.907 157.371 559 157.091 559C156.811 559 156.571 558.907 156.371 558.72C156.185 558.52 156.091 558.273 156.091 557.98V545.22C156.091 544.927 156.191 544.687 156.391 544.5C156.591 544.3 156.831 544.2 157.111 544.2C157.405 544.2 157.638 544.3 157.811 544.5C157.998 544.687 158.091 544.927 158.091 545.22V557.98ZM171.214 548.24C171.934 548.24 172.568 548.32 173.114 548.48C173.674 548.627 174.114 548.84 174.434 549.12C174.754 549.387 174.914 549.7 174.914 550.06C174.914 550.287 174.841 550.5 174.694 550.7C174.561 550.887 174.368 550.98 174.114 550.98C173.914 550.98 173.748 550.947 173.614 550.88C173.494 550.813 173.381 550.733 173.274 550.64C173.168 550.547 173.034 550.453 172.874 550.36C172.728 550.28 172.508 550.213 172.214 550.16C171.934 550.107 171.681 550.08 171.454 550.08C170.748 550.08 170.134 550.24 169.614 550.56C169.108 550.88 168.708 551.313 168.414 551.86C168.134 552.407 167.994 553.027 167.994 553.72C167.994 554.413 168.134 555.033 168.414 555.58C168.708 556.127 169.101 556.56 169.594 556.88C170.101 557.2 170.688 557.36 171.354 557.36C171.754 557.36 172.081 557.333 172.334 557.28C172.601 557.213 172.821 557.133 172.994 557.04C173.208 556.92 173.381 556.8 173.514 556.68C173.648 556.547 173.841 556.48 174.094 556.48C174.388 556.48 174.608 556.573 174.754 556.76C174.914 556.933 174.994 557.153 174.994 557.42C174.994 557.713 174.814 558 174.454 558.28C174.108 558.547 173.641 558.767 173.054 558.94C172.468 559.113 171.821 559.2 171.114 559.2C170.074 559.2 169.168 558.96 168.394 558.48C167.634 558 167.041 557.347 166.614 556.52C166.201 555.693 165.994 554.76 165.994 553.72C165.994 552.667 166.214 551.733 166.654 550.92C167.094 550.093 167.708 549.44 168.494 548.96C169.281 548.48 170.188 548.24 171.214 548.24ZM186.927 553.74C186.927 554.807 186.687 555.753 186.207 556.58C185.741 557.393 185.107 558.033 184.307 558.5C183.507 558.967 182.607 559.2 181.607 559.2C180.621 559.2 179.721 558.967 178.907 558.5C178.107 558.033 177.467 557.393 176.987 556.58C176.521 555.753 176.287 554.807 176.287 553.74C176.287 552.66 176.521 551.713 176.987 550.9C177.467 550.073 178.107 549.427 178.907 548.96C179.721 548.48 180.621 548.24 181.607 548.24C182.607 548.24 183.507 548.48 184.307 548.96C185.107 549.427 185.741 550.073 186.207 550.9C186.687 551.713 186.927 552.66 186.927 553.74ZM184.927 553.74C184.927 553.007 184.781 552.373 184.487 551.84C184.194 551.293 183.794 550.867 183.287 550.56C182.794 550.24 182.234 550.08 181.607 550.08C180.994 550.08 180.434 550.24 179.927 550.56C179.434 550.867 179.034 551.293 178.727 551.84C178.434 552.373 178.287 553.007 178.287 553.74C178.287 554.447 178.434 555.073 178.727 555.62C179.034 556.167 179.434 556.593 179.927 556.9C180.434 557.207 180.994 557.36 181.607 557.36C182.234 557.36 182.794 557.207 183.287 556.9C183.794 556.593 184.194 556.167 184.487 555.62C184.781 555.073 184.927 554.447 184.927 553.74ZM194.375 548.3C195.362 548.3 196.122 548.547 196.655 549.04C197.189 549.52 197.542 550.173 197.715 551L197.395 550.9L197.535 550.58C197.709 550.233 197.969 549.887 198.315 549.54C198.675 549.18 199.102 548.887 199.595 548.66C200.089 548.42 200.615 548.3 201.175 548.3C202.095 548.3 202.809 548.5 203.315 548.9C203.822 549.287 204.175 549.813 204.375 550.48C204.575 551.133 204.675 551.867 204.675 552.68V557.98C204.675 558.273 204.582 558.52 204.395 558.72C204.209 558.907 203.969 559 203.675 559C203.395 559 203.155 558.907 202.955 558.72C202.769 558.52 202.675 558.273 202.675 557.98V552.7C202.675 552.233 202.609 551.807 202.475 551.42C202.355 551.033 202.135 550.727 201.815 550.5C201.509 550.26 201.082 550.14 200.535 550.14C200.015 550.14 199.549 550.26 199.135 550.5C198.735 550.727 198.422 551.033 198.195 551.42C197.969 551.807 197.855 552.233 197.855 552.7V557.98C197.855 558.273 197.762 558.52 197.575 558.72C197.389 558.907 197.149 559 196.855 559C196.562 559 196.322 558.907 196.135 558.72C195.949 558.52 195.855 558.273 195.855 557.98V552.68C195.855 552.213 195.789 551.787 195.655 551.4C195.535 551.013 195.322 550.707 195.015 550.48C194.709 550.253 194.282 550.14 193.735 550.14C193.215 550.14 192.755 550.253 192.355 550.48C191.955 550.707 191.642 551.013 191.415 551.4C191.202 551.787 191.095 552.213 191.095 552.68V557.98C191.095 558.273 190.995 558.52 190.795 558.72C190.609 558.907 190.375 559 190.095 559C189.802 559 189.562 558.907 189.375 558.72C189.189 558.52 189.095 558.273 189.095 557.98V549.5C189.095 549.207 189.189 548.967 189.375 548.78C189.562 548.58 189.802 548.48 190.095 548.48C190.375 548.48 190.609 548.58 190.795 548.78C190.995 548.967 191.095 549.207 191.095 549.5V550.68L190.715 550.9C190.809 550.607 190.962 550.307 191.175 550C191.389 549.693 191.655 549.413 191.975 549.16C192.309 548.907 192.675 548.7 193.075 548.54C193.475 548.38 193.909 548.3 194.375 548.3ZM212.774 548.3C213.708 548.3 214.534 548.533 215.254 549C215.988 549.467 216.568 550.107 216.994 550.92C217.421 551.72 217.634 552.653 217.634 553.72C217.634 554.787 217.421 555.733 216.994 556.56C216.568 557.373 215.994 558.013 215.274 558.48C214.554 558.947 213.741 559.18 212.834 559.18C212.328 559.18 211.848 559.1 211.394 558.94C210.941 558.78 210.541 558.573 210.194 558.32C209.848 558.053 209.561 557.773 209.334 557.48C209.121 557.187 208.988 556.913 208.934 556.66L209.474 556.4V561.98C209.474 562.273 209.374 562.513 209.174 562.7C208.988 562.9 208.754 563 208.474 563C208.181 563 207.941 562.9 207.754 562.7C207.568 562.513 207.474 562.273 207.474 561.98V549.46C207.474 549.18 207.568 548.94 207.754 548.74C207.941 548.54 208.181 548.44 208.474 548.44C208.754 548.44 208.988 548.54 209.174 548.74C209.374 548.94 209.474 549.18 209.474 549.46V550.84L209.154 550.66C209.194 550.407 209.321 550.147 209.534 549.88C209.748 549.6 210.014 549.34 210.334 549.1C210.668 548.86 211.041 548.667 211.454 548.52C211.881 548.373 212.321 548.3 212.774 548.3ZM212.554 550.14C211.914 550.14 211.354 550.3 210.874 550.62C210.408 550.927 210.041 551.347 209.774 551.88C209.508 552.413 209.374 553.027 209.374 553.72C209.374 554.4 209.508 555.02 209.774 555.58C210.041 556.127 210.408 556.56 210.874 556.88C211.354 557.187 211.914 557.34 212.554 557.34C213.181 557.34 213.728 557.187 214.194 556.88C214.661 556.56 215.028 556.127 215.294 555.58C215.574 555.02 215.714 554.4 215.714 553.72C215.714 553.04 215.574 552.433 215.294 551.9C215.028 551.353 214.661 550.927 214.194 550.62C213.728 550.3 213.181 550.14 212.554 550.14ZM221.958 557.98C221.958 558.273 221.858 558.52 221.658 558.72C221.472 558.907 221.238 559 220.958 559C220.678 559 220.438 558.907 220.238 558.72C220.052 558.52 219.958 558.273 219.958 557.98V545.22C219.958 544.927 220.058 544.687 220.258 544.5C220.458 544.3 220.698 544.2 220.978 544.2C221.272 544.2 221.505 544.3 221.678 544.5C221.865 544.687 221.958 544.927 221.958 545.22V557.98ZM229.54 559.2C228.447 559.2 227.487 558.973 226.66 558.52C225.847 558.053 225.213 557.42 224.76 556.62C224.32 555.807 224.1 554.88 224.1 553.84C224.1 552.667 224.333 551.667 224.8 550.84C225.28 550 225.9 549.36 226.66 548.92C227.433 548.467 228.247 548.24 229.1 548.24C229.74 548.24 230.353 548.373 230.94 548.64C231.54 548.893 232.067 549.253 232.52 549.72C232.973 550.173 233.333 550.713 233.6 551.34C233.867 551.953 234.007 552.627 234.02 553.36C234.007 553.627 233.9 553.847 233.7 554.02C233.5 554.193 233.267 554.28 233 554.28H225.24L224.76 552.58H232.28L231.9 552.94V552.44C231.86 551.973 231.7 551.567 231.42 551.22C231.14 550.86 230.793 550.587 230.38 550.4C229.98 550.2 229.553 550.1 229.1 550.1C228.7 550.1 228.313 550.167 227.94 550.3C227.567 550.42 227.24 550.62 226.96 550.9C226.68 551.18 226.453 551.553 226.28 552.02C226.107 552.473 226.02 553.04 226.02 553.72C226.02 554.453 226.173 555.093 226.48 555.64C226.787 556.187 227.2 556.613 227.72 556.92C228.24 557.213 228.82 557.36 229.46 557.36C229.94 557.36 230.34 557.313 230.66 557.22C230.98 557.113 231.247 556.987 231.46 556.84C231.673 556.693 231.86 556.553 232.02 556.42C232.233 556.3 232.433 556.24 232.62 556.24C232.86 556.24 233.06 556.327 233.22 556.5C233.38 556.66 233.46 556.853 233.46 557.08C233.46 557.373 233.313 557.64 233.02 557.88C232.66 558.227 232.16 558.533 231.52 558.8C230.893 559.067 230.233 559.2 229.54 559.2ZM236.045 548.6H240.745C241.012 548.6 241.232 548.693 241.405 548.88C241.592 549.053 241.685 549.273 241.685 549.54C241.685 549.793 241.592 550.007 241.405 550.18C241.232 550.353 241.012 550.44 240.745 550.44H236.045C235.778 550.44 235.552 550.353 235.365 550.18C235.192 549.993 235.105 549.773 235.105 549.52C235.105 549.253 235.192 549.033 235.365 548.86C235.552 548.687 235.778 548.6 236.045 548.6ZM238.145 546C238.438 546 238.678 546.1 238.865 546.3C239.052 546.487 239.145 546.727 239.145 547.02V556.3C239.145 556.54 239.185 556.733 239.265 556.88C239.345 557.027 239.452 557.127 239.585 557.18C239.732 557.233 239.878 557.26 240.025 557.26C240.172 557.26 240.298 557.233 240.405 557.18C240.525 557.127 240.665 557.1 240.825 557.1C240.985 557.1 241.132 557.173 241.265 557.32C241.398 557.467 241.465 557.667 241.465 557.92C241.465 558.24 241.292 558.5 240.945 558.7C240.598 558.9 240.225 559 239.825 559C239.598 559 239.332 558.98 239.025 558.94C238.718 558.9 238.418 558.8 238.125 558.64C237.845 558.48 237.612 558.227 237.425 557.88C237.238 557.52 237.145 557.02 237.145 556.38V547.02C237.145 546.727 237.238 546.487 237.425 546.3C237.625 546.1 237.865 546 238.145 546ZM253.802 553.74C253.802 554.807 253.562 555.753 253.082 556.58C252.616 557.393 251.982 558.033 251.182 558.5C250.382 558.967 249.482 559.2 248.482 559.2C247.496 559.2 246.596 558.967 245.782 558.5C244.982 558.033 244.342 557.393 243.862 556.58C243.396 555.753 243.162 554.807 243.162 553.74C243.162 552.66 243.396 551.713 243.862 550.9C244.342 550.073 244.982 549.427 245.782 548.96C246.596 548.48 247.496 548.24 248.482 548.24C249.482 548.24 250.382 548.48 251.182 548.96C251.982 549.427 252.616 550.073 253.082 550.9C253.562 551.713 253.802 552.66 253.802 553.74ZM251.802 553.74C251.802 553.007 251.656 552.373 251.362 551.84C251.069 551.293 250.669 550.867 250.162 550.56C249.669 550.24 249.109 550.08 248.482 550.08C247.869 550.08 247.309 550.24 246.802 550.56C246.309 550.867 245.909 551.293 245.602 551.84C245.309 552.373 245.162 553.007 245.162 553.74C245.162 554.447 245.309 555.073 245.602 555.62C245.909 556.167 246.309 556.593 246.802 556.9C247.309 557.207 247.869 557.36 248.482 557.36C249.109 557.36 249.669 557.207 250.162 556.9C250.669 556.593 251.069 556.167 251.362 555.62C251.656 555.073 251.802 554.447 251.802 553.74Z" fill="black"/>
</svg>
