<svg width="1142" height="151" viewBox="0 0 1142 151" fill="none" xmlns="http://www.w3.org/2000/svg">
<path d="M8 40H1133" stroke="black" stroke-width="2"/>
<circle cx="45" cy="40" r="40" fill="#AE0168"/>
<path d="M45.5002 19.2229L65.8939 54.4583H25.1064L45.5002 19.2229ZM20.421 51.75C18.3356 55.3521 20.9356 59.875 25.1064 59.875H65.8939C70.0648 59.875 72.6648 55.3521 70.5793 51.75L50.1856 16.5146C48.1002 12.9125 42.9002 12.9125 40.8147 16.5146L20.421 51.75ZM42.7918 32.7916V38.2083C42.7918 39.6979 44.0106 40.9166 45.5002 40.9166C46.9897 40.9166 48.2085 39.6979 48.2085 38.2083V32.7916C48.2085 31.3021 46.9897 30.0833 45.5002 30.0833C44.0106 30.0833 42.7918 31.3021 42.7918 32.7916ZM42.7918 46.3333H48.2085V51.75H42.7918V46.3333Z" fill="white"/>
<path d="M17.1526 107C17.8592 107 18.5126 107.193 19.1126 107.58C19.7126 107.953 20.1926 108.467 20.5526 109.12C20.9126 109.773 21.0926 110.507 21.0926 111.32C21.0926 112.133 20.9126 112.873 20.5526 113.54C20.1926 114.193 19.7126 114.72 19.1126 115.12C18.5126 115.507 17.8592 115.7 17.1526 115.7H13.2926L13.4526 115.38V119.98C13.4526 120.273 13.3592 120.52 13.1726 120.72C12.9992 120.907 12.7659 121 12.4726 121C12.1926 121 11.9592 120.907 11.7726 120.72C11.5992 120.52 11.5126 120.273 11.5126 119.98V108.02C11.5126 107.727 11.6126 107.487 11.8126 107.3C12.0126 107.1 12.2526 107 12.5326 107H17.1526ZM17.1526 113.78C17.4992 113.78 17.8126 113.667 18.0926 113.44C18.3859 113.213 18.6192 112.913 18.7926 112.54C18.9792 112.167 19.0726 111.76 19.0726 111.32C19.0726 110.88 18.9792 110.48 18.7926 110.12C18.6192 109.76 18.3859 109.473 18.0926 109.26C17.8126 109.033 17.4992 108.92 17.1526 108.92H13.2526L13.4526 108.62V114.04L13.2726 113.78H17.1526ZM27.909 121.2C26.8157 121.2 25.8557 120.973 25.029 120.52C24.2157 120.053 23.5823 119.42 23.129 118.62C22.689 117.807 22.469 116.88 22.469 115.84C22.469 114.667 22.7023 113.667 23.169 112.84C23.649 112 24.269 111.36 25.029 110.92C25.8023 110.467 26.6157 110.24 27.469 110.24C28.109 110.24 28.7223 110.373 29.309 110.64C29.909 110.893 30.4357 111.253 30.889 111.72C31.3423 112.173 31.7023 112.713 31.969 113.34C32.2357 113.953 32.3757 114.627 32.389 115.36C32.3757 115.627 32.269 115.847 32.069 116.02C31.869 116.193 31.6357 116.28 31.369 116.28H23.609L23.129 114.58H30.649L30.269 114.94V114.44C30.229 113.973 30.069 113.567 29.789 113.22C29.509 112.86 29.1623 112.587 28.749 112.4C28.349 112.2 27.9223 112.1 27.469 112.1C27.069 112.1 26.6823 112.167 26.309 112.3C25.9357 112.42 25.609 112.62 25.329 112.9C25.049 113.18 24.8223 113.553 24.649 114.02C24.4757 114.473 24.389 115.04 24.389 115.72C24.389 116.453 24.5423 117.093 24.849 117.64C25.1557 118.187 25.569 118.613 26.089 118.92C26.609 119.213 27.189 119.36 27.829 119.36C28.309 119.36 28.709 119.313 29.029 119.22C29.349 119.113 29.6157 118.987 29.829 118.84C30.0423 118.693 30.229 118.553 30.389 118.42C30.6023 118.3 30.8023 118.24 30.989 118.24C31.229 118.24 31.429 118.327 31.589 118.5C31.749 118.66 31.829 118.853 31.829 119.08C31.829 119.373 31.6823 119.64 31.389 119.88C31.029 120.227 30.529 120.533 29.889 120.8C29.2623 121.067 28.6023 121.2 27.909 121.2ZM43.0943 106.2C43.3743 106.2 43.6076 106.293 43.7943 106.48C43.9943 106.667 44.0943 106.913 44.0943 107.22V119.98C44.0943 120.273 43.9943 120.52 43.7943 120.72C43.6076 120.907 43.3743 121 43.0943 121C42.801 121 42.561 120.907 42.3743 120.72C42.1876 120.52 42.0943 120.273 42.0943 119.98V118.54L42.4943 118.56C42.4943 118.8 42.3943 119.073 42.1943 119.38C42.0076 119.673 41.7476 119.96 41.4143 120.24C41.081 120.52 40.6876 120.753 40.2343 120.94C39.781 121.113 39.2943 121.2 38.7743 121.2C37.8676 121.2 37.041 120.967 36.2943 120.5C35.561 120.02 34.981 119.373 34.5543 118.56C34.1276 117.733 33.9143 116.787 33.9143 115.72C33.9143 114.653 34.1276 113.713 34.5543 112.9C34.981 112.073 35.5543 111.427 36.2743 110.96C37.0076 110.48 37.821 110.24 38.7143 110.24C39.2743 110.24 39.7943 110.333 40.2743 110.52C40.7676 110.707 41.1943 110.947 41.5543 111.24C41.9143 111.533 42.1943 111.847 42.3943 112.18C42.6076 112.5 42.7143 112.807 42.7143 113.1L42.0943 113.16V107.22C42.0943 106.927 42.1876 106.687 42.3743 106.5C42.561 106.3 42.801 106.2 43.0943 106.2ZM39.0143 119.36C39.641 119.36 40.1876 119.2 40.6543 118.88C41.1343 118.56 41.5076 118.127 41.7743 117.58C42.041 117.033 42.1743 116.413 42.1743 115.72C42.1743 115.027 42.041 114.407 41.7743 113.86C41.5076 113.313 41.1343 112.88 40.6543 112.56C40.1876 112.24 39.641 112.08 39.0143 112.08C38.401 112.08 37.8543 112.24 37.3743 112.56C36.8943 112.88 36.521 113.313 36.2543 113.86C35.9876 114.407 35.8543 115.027 35.8543 115.72C35.8543 116.413 35.9876 117.033 36.2543 117.58C36.521 118.127 36.8943 118.56 37.3743 118.88C37.8543 119.2 38.401 119.36 39.0143 119.36ZM48.7585 119.98C48.7585 120.273 48.6652 120.52 48.4785 120.72C48.2918 120.907 48.0518 121 47.7585 121C47.4785 121 47.2385 120.907 47.0385 120.72C46.8518 120.52 46.7585 120.273 46.7585 119.98V111.42C46.7585 111.127 46.8518 110.887 47.0385 110.7C47.2385 110.5 47.4785 110.4 47.7585 110.4C48.0518 110.4 48.2918 110.5 48.4785 110.7C48.6652 110.887 48.7585 111.127 48.7585 111.42V119.98ZM47.7385 109.08C47.3518 109.08 47.0718 109.013 46.8985 108.88C46.7252 108.733 46.6385 108.493 46.6385 108.16V107.84C46.6385 107.507 46.7318 107.273 46.9185 107.14C47.1052 107.007 47.3852 106.94 47.7585 106.94C48.1585 106.94 48.4452 107.013 48.6185 107.16C48.7918 107.293 48.8785 107.52 48.8785 107.84V108.16C48.8785 108.507 48.7852 108.747 48.5985 108.88C48.4252 109.013 48.1385 109.08 47.7385 109.08ZM59.9888 106.2C60.2688 106.2 60.5022 106.293 60.6888 106.48C60.8888 106.667 60.9888 106.913 60.9888 107.22V119.98C60.9888 120.273 60.8888 120.52 60.6888 120.72C60.5022 120.907 60.2688 121 59.9888 121C59.6955 121 59.4555 120.907 59.2688 120.72C59.0822 120.52 58.9888 120.273 58.9888 119.98V118.54L59.3888 118.56C59.3888 118.8 59.2888 119.073 59.0888 119.38C58.9022 119.673 58.6422 119.96 58.3088 120.24C57.9755 120.52 57.5822 120.753 57.1288 120.94C56.6755 121.113 56.1888 121.2 55.6688 121.2C54.7622 121.2 53.9355 120.967 53.1888 120.5C52.4555 120.02 51.8755 119.373 51.4488 118.56C51.0222 117.733 50.8088 116.787 50.8088 115.72C50.8088 114.653 51.0222 113.713 51.4488 112.9C51.8755 112.073 52.4488 111.427 53.1688 110.96C53.9022 110.48 54.7155 110.24 55.6088 110.24C56.1688 110.24 56.6888 110.333 57.1688 110.52C57.6622 110.707 58.0888 110.947 58.4488 111.24C58.8088 111.533 59.0888 111.847 59.2888 112.18C59.5022 112.5 59.6088 112.807 59.6088 113.1L58.9888 113.16V107.22C58.9888 106.927 59.0822 106.687 59.2688 106.5C59.4555 106.3 59.6955 106.2 59.9888 106.2ZM55.9088 119.36C56.5355 119.36 57.0822 119.2 57.5488 118.88C58.0288 118.56 58.4022 118.127 58.6688 117.58C58.9355 117.033 59.0688 116.413 59.0688 115.72C59.0688 115.027 58.9355 114.407 58.6688 113.86C58.4022 113.313 58.0288 112.88 57.5488 112.56C57.0822 112.24 56.5355 112.08 55.9088 112.08C55.2955 112.08 54.7488 112.24 54.2688 112.56C53.7888 112.88 53.4155 113.313 53.1488 113.86C52.8822 114.407 52.7488 115.027 52.7488 115.72C52.7488 116.413 52.8822 117.033 53.1488 117.58C53.4155 118.127 53.7888 118.56 54.2688 118.88C54.7488 119.2 55.2955 119.36 55.9088 119.36ZM73.773 115.74C73.773 116.807 73.533 117.753 73.053 118.58C72.5864 119.393 71.953 120.033 71.153 120.5C70.353 120.967 69.453 121.2 68.453 121.2C67.4664 121.2 66.5664 120.967 65.753 120.5C64.953 120.033 64.313 119.393 63.833 118.58C63.3664 117.753 63.133 116.807 63.133 115.74C63.133 114.66 63.3664 113.713 63.833 112.9C64.313 112.073 64.953 111.427 65.753 110.96C66.5664 110.48 67.4664 110.24 68.453 110.24C69.453 110.24 70.353 110.48 71.153 110.96C71.953 111.427 72.5864 112.073 73.053 112.9C73.533 113.713 73.773 114.66 73.773 115.74ZM71.773 115.74C71.773 115.007 71.6264 114.373 71.333 113.84C71.0397 113.293 70.6397 112.867 70.133 112.56C69.6397 112.24 69.0797 112.08 68.453 112.08C67.8397 112.08 67.2797 112.24 66.773 112.56C66.2797 112.867 65.8797 113.293 65.573 113.84C65.2797 114.373 65.133 115.007 65.133 115.74C65.133 116.447 65.2797 117.073 65.573 117.62C65.8797 118.167 66.2797 118.593 66.773 118.9C67.2797 119.207 67.8397 119.36 68.453 119.36C69.0797 119.36 69.6397 119.207 70.133 118.9C70.6397 118.593 71.0397 118.167 71.333 117.62C71.6264 117.073 71.773 116.447 71.773 115.74ZM7.41625 132C8.12292 132 8.77625 132.193 9.37625 132.58C9.97625 132.953 10.4563 133.467 10.8163 134.12C11.1763 134.773 11.3563 135.507 11.3563 136.32C11.3563 137.133 11.1763 137.873 10.8163 138.54C10.4563 139.193 9.97625 139.72 9.37625 140.12C8.77625 140.507 8.12292 140.7 7.41625 140.7H3.55625L3.71625 140.38V144.98C3.71625 145.273 3.62292 145.52 3.43625 145.72C3.26292 145.907 3.02958 146 2.73625 146C2.45625 146 2.22292 145.907 2.03625 145.72C1.86292 145.52 1.77625 145.273 1.77625 144.98V133.02C1.77625 132.727 1.87625 132.487 2.07625 132.3C2.27625 132.1 2.51625 132 2.79625 132H7.41625ZM7.41625 138.78C7.76292 138.78 8.07625 138.667 8.35625 138.44C8.64958 138.213 8.88292 137.913 9.05625 137.54C9.24292 137.167 9.33625 136.76 9.33625 136.32C9.33625 135.88 9.24292 135.48 9.05625 135.12C8.88292 134.76 8.64958 134.473 8.35625 134.26C8.07625 134.033 7.76292 133.92 7.41625 133.92H3.51625L3.71625 133.62V139.04L3.53625 138.78H7.41625ZM18.1727 146.2C17.0793 146.2 16.1193 145.973 15.2927 145.52C14.4793 145.053 13.846 144.42 13.3927 143.62C12.9527 142.807 12.7327 141.88 12.7327 140.84C12.7327 139.667 12.966 138.667 13.4327 137.84C13.9127 137 14.5327 136.36 15.2927 135.92C16.066 135.467 16.8793 135.24 17.7327 135.24C18.3727 135.24 18.986 135.373 19.5727 135.64C20.1727 135.893 20.6993 136.253 21.1527 136.72C21.606 137.173 21.966 137.713 22.2327 138.34C22.4993 138.953 22.6393 139.627 22.6527 140.36C22.6393 140.627 22.5327 140.847 22.3327 141.02C22.1327 141.193 21.8993 141.28 21.6327 141.28H13.8727L13.3927 139.58H20.9127L20.5327 139.94V139.44C20.4927 138.973 20.3327 138.567 20.0527 138.22C19.7727 137.86 19.426 137.587 19.0127 137.4C18.6127 137.2 18.186 137.1 17.7327 137.1C17.3327 137.1 16.946 137.167 16.5727 137.3C16.1993 137.42 15.8727 137.62 15.5927 137.9C15.3127 138.18 15.086 138.553 14.9127 139.02C14.7393 139.473 14.6527 140.04 14.6527 140.72C14.6527 141.453 14.806 142.093 15.1127 142.64C15.4193 143.187 15.8327 143.613 16.3527 143.92C16.8727 144.213 17.4527 144.36 18.0927 144.36C18.5727 144.36 18.9727 144.313 19.2927 144.22C19.6127 144.113 19.8793 143.987 20.0927 143.84C20.306 143.693 20.4927 143.553 20.6527 143.42C20.866 143.3 21.066 143.24 21.2527 143.24C21.4927 143.24 21.6927 143.327 21.8527 143.5C22.0127 143.66 22.0927 143.853 22.0927 144.08C22.0927 144.373 21.946 144.64 21.6527 144.88C21.2927 145.227 20.7927 145.533 20.1527 145.8C19.526 146.067 18.866 146.2 18.1727 146.2ZM30.238 135.24C31.1846 135.24 31.918 135.44 32.438 135.84C32.958 136.227 33.318 136.753 33.518 137.42C33.7313 138.073 33.838 138.807 33.838 139.62V144.98C33.838 145.273 33.738 145.52 33.538 145.72C33.3513 145.907 33.118 146 32.838 146C32.5446 146 32.3046 145.907 32.118 145.72C31.9313 145.52 31.838 145.273 31.838 144.98V139.64C31.838 139.16 31.7713 138.733 31.638 138.36C31.5046 137.973 31.2713 137.667 30.938 137.44C30.618 137.2 30.1646 137.08 29.578 137.08C29.0313 137.08 28.5513 137.2 28.138 137.44C27.7246 137.667 27.398 137.973 27.158 138.36C26.9313 138.733 26.818 139.16 26.818 139.64V144.98C26.818 145.273 26.718 145.52 26.518 145.72C26.3313 145.907 26.098 146 25.818 146C25.5246 146 25.2846 145.907 25.098 145.72C24.9113 145.52 24.818 145.273 24.818 144.98V136.5C24.818 136.207 24.9113 135.967 25.098 135.78C25.2846 135.58 25.5246 135.48 25.818 135.48C26.098 135.48 26.3313 135.58 26.518 135.78C26.718 135.967 26.818 136.207 26.818 136.5V137.62L26.458 137.82C26.5513 137.527 26.7113 137.233 26.938 136.94C27.178 136.633 27.4646 136.353 27.798 136.1C28.1313 135.833 28.5046 135.627 28.918 135.48C29.3313 135.32 29.7713 135.24 30.238 135.24ZM45.1548 131.2C45.4348 131.2 45.6682 131.293 45.8548 131.48C46.0548 131.667 46.1548 131.913 46.1548 132.22V144.98C46.1548 145.273 46.0548 145.52 45.8548 145.72C45.6682 145.907 45.4348 146 45.1548 146C44.8615 146 44.6215 145.907 44.4348 145.72C44.2482 145.52 44.1548 145.273 44.1548 144.98V143.54L44.5548 143.56C44.5548 143.8 44.4548 144.073 44.2548 144.38C44.0682 144.673 43.8082 144.96 43.4748 145.24C43.1415 145.52 42.7482 145.753 42.2948 145.94C41.8415 146.113 41.3548 146.2 40.8348 146.2C39.9282 146.2 39.1015 145.967 38.3548 145.5C37.6215 145.02 37.0415 144.373 36.6148 143.56C36.1882 142.733 35.9748 141.787 35.9748 140.72C35.9748 139.653 36.1882 138.713 36.6148 137.9C37.0415 137.073 37.6148 136.427 38.3348 135.96C39.0682 135.48 39.8815 135.24 40.7748 135.24C41.3348 135.24 41.8548 135.333 42.3348 135.52C42.8282 135.707 43.2548 135.947 43.6148 136.24C43.9748 136.533 44.2548 136.847 44.4548 137.18C44.6682 137.5 44.7748 137.807 44.7748 138.1L44.1548 138.16V132.22C44.1548 131.927 44.2482 131.687 44.4348 131.5C44.6215 131.3 44.8615 131.2 45.1548 131.2ZM41.0748 144.36C41.7015 144.36 42.2482 144.2 42.7148 143.88C43.1948 143.56 43.5682 143.127 43.8348 142.58C44.1015 142.033 44.2348 141.413 44.2348 140.72C44.2348 140.027 44.1015 139.407 43.8348 138.86C43.5682 138.313 43.1948 137.88 42.7148 137.56C42.2482 137.24 41.7015 137.08 41.0748 137.08C40.4615 137.08 39.9148 137.24 39.4348 137.56C38.9548 137.88 38.5815 138.313 38.3148 138.86C38.0482 139.407 37.9148 140.027 37.9148 140.72C37.9148 141.413 38.0482 142.033 38.3148 142.58C38.5815 143.127 38.9548 143.56 39.4348 143.88C39.9148 144.2 40.4615 144.36 41.0748 144.36ZM53.7391 146.2C52.6457 146.2 51.6857 145.973 50.8591 145.52C50.0457 145.053 49.4124 144.42 48.9591 143.62C48.5191 142.807 48.2991 141.88 48.2991 140.84C48.2991 139.667 48.5324 138.667 48.9991 137.84C49.4791 137 50.0991 136.36 50.8591 135.92C51.6324 135.467 52.4457 135.24 53.2991 135.24C53.9391 135.24 54.5524 135.373 55.1391 135.64C55.7391 135.893 56.2657 136.253 56.7191 136.72C57.1724 137.173 57.5324 137.713 57.7991 138.34C58.0657 138.953 58.2057 139.627 58.2191 140.36C58.2057 140.627 58.0991 140.847 57.8991 141.02C57.6991 141.193 57.4657 141.28 57.1991 141.28H49.4391L48.9591 139.58H56.4791L56.0991 139.94V139.44C56.0591 138.973 55.8991 138.567 55.6191 138.22C55.3391 137.86 54.9924 137.587 54.5791 137.4C54.1791 137.2 53.7524 137.1 53.2991 137.1C52.8991 137.1 52.5124 137.167 52.1391 137.3C51.7657 137.42 51.4391 137.62 51.1591 137.9C50.8791 138.18 50.6524 138.553 50.4791 139.02C50.3057 139.473 50.2191 140.04 50.2191 140.72C50.2191 141.453 50.3724 142.093 50.6791 142.64C50.9857 143.187 51.3991 143.613 51.9191 143.92C52.4391 144.213 53.0191 144.36 53.6591 144.36C54.1391 144.36 54.5391 144.313 54.8591 144.22C55.1791 144.113 55.4457 143.987 55.6591 143.84C55.8724 143.693 56.0591 143.553 56.2191 143.42C56.4324 143.3 56.6324 143.24 56.8191 143.24C57.0591 143.24 57.2591 143.327 57.4191 143.5C57.5791 143.66 57.6591 143.853 57.6591 144.08C57.6591 144.373 57.5124 144.64 57.2191 144.88C56.8591 145.227 56.3591 145.533 55.7191 145.8C55.0924 146.067 54.4324 146.2 53.7391 146.2ZM65.8044 135.24C66.751 135.24 67.4844 135.44 68.0044 135.84C68.5244 136.227 68.8844 136.753 69.0844 137.42C69.2977 138.073 69.4044 138.807 69.4044 139.62V144.98C69.4044 145.273 69.3044 145.52 69.1044 145.72C68.9177 145.907 68.6844 146 68.4044 146C68.111 146 67.871 145.907 67.6844 145.72C67.4977 145.52 67.4044 145.273 67.4044 144.98V139.64C67.4044 139.16 67.3377 138.733 67.2044 138.36C67.071 137.973 66.8377 137.667 66.5044 137.44C66.1844 137.2 65.731 137.08 65.1444 137.08C64.5977 137.08 64.1177 137.2 63.7044 137.44C63.291 137.667 62.9644 137.973 62.7244 138.36C62.4977 138.733 62.3844 139.16 62.3844 139.64V144.98C62.3844 145.273 62.2844 145.52 62.0844 145.72C61.8977 145.907 61.6644 146 61.3844 146C61.091 146 60.851 145.907 60.6644 145.72C60.4777 145.52 60.3844 145.273 60.3844 144.98V136.5C60.3844 136.207 60.4777 135.967 60.6644 135.78C60.851 135.58 61.091 135.48 61.3844 135.48C61.6644 135.48 61.8977 135.58 62.0844 135.78C62.2844 135.967 62.3844 136.207 62.3844 136.5V137.62L62.0244 137.82C62.1177 137.527 62.2777 137.233 62.5044 136.94C62.7444 136.633 63.031 136.353 63.3644 136.1C63.6977 135.833 64.071 135.627 64.4844 135.48C64.8977 135.32 65.3377 135.24 65.8044 135.24ZM72.0413 135.6H76.7413C77.0079 135.6 77.2279 135.693 77.4013 135.88C77.5879 136.053 77.6813 136.273 77.6813 136.54C77.6813 136.793 77.5879 137.007 77.4013 137.18C77.2279 137.353 77.0079 137.44 76.7413 137.44H72.0413C71.7746 137.44 71.5479 137.353 71.3613 137.18C71.1879 136.993 71.1013 136.773 71.1013 136.52C71.1013 136.253 71.1879 136.033 71.3613 135.86C71.5479 135.687 71.7746 135.6 72.0413 135.6ZM74.1413 133C74.4346 133 74.6746 133.1 74.8613 133.3C75.0479 133.487 75.1413 133.727 75.1413 134.02V143.3C75.1413 143.54 75.1813 143.733 75.2613 143.88C75.3413 144.027 75.4479 144.127 75.5813 144.18C75.7279 144.233 75.8746 144.26 76.0213 144.26C76.1679 144.26 76.2946 144.233 76.4013 144.18C76.5213 144.127 76.6613 144.1 76.8213 144.1C76.9813 144.1 77.1279 144.173 77.2613 144.32C77.3946 144.467 77.4613 144.667 77.4613 144.92C77.4613 145.24 77.2879 145.5 76.9413 145.7C76.5946 145.9 76.2213 146 75.8213 146C75.5946 146 75.3279 145.98 75.0213 145.94C74.7146 145.9 74.4146 145.8 74.1213 145.64C73.8413 145.48 73.6079 145.227 73.4212 144.88C73.2346 144.52 73.1413 144.02 73.1413 143.38V134.02C73.1413 133.727 73.2346 133.487 73.4212 133.3C73.6212 133.1 73.8613 133 74.1413 133ZM84.5984 146.2C83.5051 146.2 82.5451 145.973 81.7184 145.52C80.9051 145.053 80.2718 144.42 79.8184 143.62C79.3784 142.807 79.1584 141.88 79.1584 140.84C79.1584 139.667 79.3918 138.667 79.8584 137.84C80.3384 137 80.9584 136.36 81.7184 135.92C82.4918 135.467 83.3051 135.24 84.1584 135.24C84.7984 135.24 85.4118 135.373 85.9984 135.64C86.5984 135.893 87.1251 136.253 87.5784 136.72C88.0318 137.173 88.3918 137.713 88.6584 138.34C88.9251 138.953 89.0651 139.627 89.0784 140.36C89.0651 140.627 88.9584 140.847 88.7584 141.02C88.5584 141.193 88.3251 141.28 88.0584 141.28H80.2984L79.8184 139.58H87.3384L86.9584 139.94V139.44C86.9184 138.973 86.7584 138.567 86.4784 138.22C86.1984 137.86 85.8518 137.587 85.4384 137.4C85.0384 137.2 84.6118 137.1 84.1584 137.1C83.7584 137.1 83.3718 137.167 82.9984 137.3C82.6251 137.42 82.2984 137.62 82.0184 137.9C81.7384 138.18 81.5118 138.553 81.3384 139.02C81.1651 139.473 81.0784 140.04 81.0784 140.72C81.0784 141.453 81.2318 142.093 81.5384 142.64C81.8451 143.187 82.2584 143.613 82.7784 143.92C83.2984 144.213 83.8784 144.36 84.5184 144.36C84.9984 144.36 85.3984 144.313 85.7184 144.22C86.0384 144.113 86.3051 143.987 86.5184 143.84C86.7318 143.693 86.9184 143.553 87.0784 143.42C87.2918 143.3 87.4918 143.24 87.6784 143.24C87.9184 143.24 88.1184 143.327 88.2784 143.5C88.4384 143.66 88.5184 143.853 88.5184 144.08C88.5184 144.373 88.3718 144.64 88.0784 144.88C87.7184 145.227 87.2184 145.533 86.5784 145.8C85.9518 146.067 85.2918 146.2 84.5984 146.2Z" fill="black"/>
<circle cx="572" cy="40" r="40" fill="#AE0168"/>
<path d="M587.75 31.375L583.931 27.5292L566.083 45.3771L559.069 38.3896L555.25 42.2084L566.083 53.0417L587.75 31.375ZM590.458 15.125H579.137C578 11.9834 575.021 9.70837 571.5 9.70837C567.979 9.70837 565 11.9834 563.863 15.125H552.542C552.162 15.125 551.81 15.1521 551.458 15.2334C550.402 15.45 549.454 15.9917 548.723 16.723C548.235 17.2105 547.829 17.8063 547.558 18.4563C547.288 19.0792 547.125 19.7834 547.125 20.5417V58.4584C547.125 59.1896 547.288 59.9209 547.558 60.5709C547.829 61.2209 548.235 61.7896 548.723 62.3042C549.454 63.0355 550.402 63.5771 551.458 63.7938C551.81 63.848 552.162 63.875 552.542 63.875H590.458C593.437 63.875 595.875 61.4375 595.875 58.4584V20.5417C595.875 17.5625 593.437 15.125 590.458 15.125ZM571.5 14.448C572.61 14.448 573.531 15.3688 573.531 16.4792C573.531 17.5896 572.61 18.5105 571.5 18.5105C570.39 18.5105 569.469 17.5896 569.469 16.4792C569.469 15.3688 570.39 14.448 571.5 14.448ZM590.458 58.4584H552.542V20.5417H590.458V58.4584Z" fill="white"/>
<path d="M526.954 107H533.874C534.154 107 534.388 107.093 534.574 107.28C534.774 107.467 534.874 107.7 534.874 107.98C534.874 108.26 534.774 108.487 534.574 108.66C534.388 108.833 534.154 108.92 533.874 108.92H527.834L528.034 108.58V113.06L527.854 112.86H532.974C533.254 112.86 533.488 112.953 533.674 113.14C533.874 113.327 533.974 113.567 533.974 113.86C533.974 114.14 533.874 114.367 533.674 114.54C533.488 114.713 533.254 114.8 532.974 114.8H527.894L528.034 114.62V119.24L527.894 119.08H533.874C534.154 119.08 534.388 119.18 534.574 119.38C534.774 119.567 534.874 119.787 534.874 120.04C534.874 120.32 534.774 120.553 534.574 120.74C534.388 120.913 534.154 121 533.874 121H526.954C526.674 121 526.434 120.907 526.234 120.72C526.034 120.52 525.934 120.273 525.934 119.98V108.02C525.934 107.727 526.034 107.487 526.234 107.3C526.434 107.1 526.674 107 526.954 107ZM542.56 110.24C543.507 110.24 544.24 110.44 544.76 110.84C545.28 111.227 545.64 111.753 545.84 112.42C546.054 113.073 546.16 113.807 546.16 114.62V119.98C546.16 120.273 546.06 120.52 545.86 120.72C545.674 120.907 545.44 121 545.16 121C544.867 121 544.627 120.907 544.44 120.72C544.254 120.52 544.16 120.273 544.16 119.98V114.64C544.16 114.16 544.094 113.733 543.96 113.36C543.827 112.973 543.594 112.667 543.26 112.44C542.94 112.2 542.487 112.08 541.9 112.08C541.354 112.08 540.874 112.2 540.46 112.44C540.047 112.667 539.72 112.973 539.48 113.36C539.254 113.733 539.14 114.16 539.14 114.64V119.98C539.14 120.273 539.04 120.52 538.84 120.72C538.654 120.907 538.42 121 538.14 121C537.847 121 537.607 120.907 537.42 120.72C537.234 120.52 537.14 120.273 537.14 119.98V111.5C537.14 111.207 537.234 110.967 537.42 110.78C537.607 110.58 537.847 110.48 538.14 110.48C538.42 110.48 538.654 110.58 538.84 110.78C539.04 110.967 539.14 111.207 539.14 111.5V112.62L538.78 112.82C538.874 112.527 539.034 112.233 539.26 111.94C539.5 111.633 539.787 111.353 540.12 111.1C540.454 110.833 540.827 110.627 541.24 110.48C541.654 110.32 542.094 110.24 542.56 110.24ZM548.797 110.6H553.497C553.764 110.6 553.984 110.693 554.157 110.88C554.344 111.053 554.437 111.273 554.437 111.54C554.437 111.793 554.344 112.007 554.157 112.18C553.984 112.353 553.764 112.44 553.497 112.44H548.797C548.53 112.44 548.304 112.353 548.117 112.18C547.944 111.993 547.857 111.773 547.857 111.52C547.857 111.253 547.944 111.033 548.117 110.86C548.304 110.687 548.53 110.6 548.797 110.6ZM550.897 108C551.19 108 551.43 108.1 551.617 108.3C551.804 108.487 551.897 108.727 551.897 109.02V118.3C551.897 118.54 551.937 118.733 552.017 118.88C552.097 119.027 552.204 119.127 552.337 119.18C552.484 119.233 552.63 119.26 552.777 119.26C552.924 119.26 553.05 119.233 553.157 119.18C553.277 119.127 553.417 119.1 553.577 119.1C553.737 119.1 553.884 119.173 554.017 119.32C554.15 119.467 554.217 119.667 554.217 119.92C554.217 120.24 554.044 120.5 553.697 120.7C553.35 120.9 552.977 121 552.577 121C552.35 121 552.084 120.98 551.777 120.94C551.47 120.9 551.17 120.8 550.877 120.64C550.597 120.48 550.364 120.227 550.177 119.88C549.99 119.52 549.897 119.02 549.897 118.38V109.02C549.897 108.727 549.99 108.487 550.177 108.3C550.377 108.1 550.617 108 550.897 108ZM557.652 121C557.359 121 557.119 120.907 556.932 120.72C556.745 120.52 556.652 120.273 556.652 119.98V111.5C556.652 111.207 556.745 110.967 556.932 110.78C557.119 110.58 557.359 110.48 557.652 110.48C557.932 110.48 558.165 110.58 558.352 110.78C558.552 110.967 558.652 111.207 558.652 111.5V113.74L558.452 112.88C558.559 112.507 558.719 112.16 558.932 111.84C559.159 111.52 559.425 111.24 559.732 111C560.039 110.76 560.379 110.573 560.752 110.44C561.139 110.307 561.539 110.24 561.952 110.24C562.299 110.24 562.599 110.333 562.852 110.52C563.105 110.707 563.232 110.94 563.232 111.22C563.232 111.58 563.139 111.847 562.952 112.02C562.765 112.18 562.559 112.26 562.332 112.26C562.132 112.26 561.939 112.22 561.752 112.14C561.565 112.047 561.345 112 561.092 112C560.812 112 560.525 112.073 560.232 112.22C559.939 112.367 559.672 112.587 559.432 112.88C559.192 113.16 558.999 113.493 558.852 113.88C558.719 114.267 558.652 114.7 558.652 115.18V119.98C558.652 120.273 558.552 120.52 558.352 120.72C558.165 120.907 557.932 121 557.652 121ZM569.362 121.2C568.269 121.2 567.309 120.973 566.482 120.52C565.669 120.053 565.035 119.42 564.582 118.62C564.142 117.807 563.922 116.88 563.922 115.84C563.922 114.667 564.155 113.667 564.622 112.84C565.102 112 565.722 111.36 566.482 110.92C567.255 110.467 568.069 110.24 568.922 110.24C569.562 110.24 570.175 110.373 570.762 110.64C571.362 110.893 571.889 111.253 572.342 111.72C572.795 112.173 573.155 112.713 573.422 113.34C573.689 113.953 573.829 114.627 573.842 115.36C573.829 115.627 573.722 115.847 573.522 116.02C573.322 116.193 573.089 116.28 572.822 116.28H565.062L564.582 114.58H572.102L571.722 114.94V114.44C571.682 113.973 571.522 113.567 571.242 113.22C570.962 112.86 570.615 112.587 570.202 112.4C569.802 112.2 569.375 112.1 568.922 112.1C568.522 112.1 568.135 112.167 567.762 112.3C567.389 112.42 567.062 112.62 566.782 112.9C566.502 113.18 566.275 113.553 566.102 114.02C565.929 114.473 565.842 115.04 565.842 115.72C565.842 116.453 565.995 117.093 566.302 117.64C566.609 118.187 567.022 118.613 567.542 118.92C568.062 119.213 568.642 119.36 569.282 119.36C569.762 119.36 570.162 119.313 570.482 119.22C570.802 119.113 571.069 118.987 571.282 118.84C571.495 118.693 571.682 118.553 571.842 118.42C572.055 118.3 572.255 118.24 572.442 118.24C572.682 118.24 572.882 118.327 573.042 118.5C573.202 118.66 573.282 118.853 573.282 119.08C573.282 119.373 573.135 119.64 572.842 119.88C572.482 120.227 571.982 120.533 571.342 120.8C570.715 121.067 570.055 121.2 569.362 121.2ZM576.15 110.38C576.35 110.38 576.536 110.433 576.71 110.54C576.896 110.647 577.03 110.807 577.11 111.02L580.25 118.28L579.87 118.46L583.05 111.04C583.236 110.6 583.536 110.387 583.95 110.4C584.216 110.4 584.436 110.487 584.61 110.66C584.796 110.82 584.89 111.033 584.89 111.3C584.89 111.38 584.876 111.467 584.85 111.56C584.823 111.64 584.79 111.72 584.75 111.8L580.95 120.36C580.776 120.76 580.49 120.973 580.09 121C579.89 121.027 579.69 120.987 579.49 120.88C579.303 120.76 579.156 120.587 579.05 120.36L575.27 111.8C575.243 111.747 575.216 111.68 575.19 111.6C575.163 111.507 575.15 111.4 575.15 111.28C575.15 111.08 575.236 110.88 575.41 110.68C575.596 110.48 575.843 110.38 576.15 110.38ZM588.805 119.98C588.805 120.273 588.712 120.52 588.525 120.72C588.339 120.907 588.099 121 587.805 121C587.525 121 587.285 120.907 587.085 120.72C586.899 120.52 586.805 120.273 586.805 119.98V111.42C586.805 111.127 586.899 110.887 587.085 110.7C587.285 110.5 587.525 110.4 587.805 110.4C588.099 110.4 588.339 110.5 588.525 110.7C588.712 110.887 588.805 111.127 588.805 111.42V119.98ZM587.785 109.08C587.399 109.08 587.119 109.013 586.945 108.88C586.772 108.733 586.685 108.493 586.685 108.16V107.84C586.685 107.507 586.779 107.273 586.965 107.14C587.152 107.007 587.432 106.94 587.805 106.94C588.205 106.94 588.492 107.013 588.665 107.16C588.839 107.293 588.925 107.52 588.925 107.84V108.16C588.925 108.507 588.832 108.747 588.645 108.88C588.472 109.013 588.185 109.08 587.785 109.08ZM590.876 119.36C590.756 119.173 590.702 118.96 590.716 118.72C590.729 118.467 590.869 118.253 591.136 118.08C591.322 117.96 591.516 117.913 591.716 117.94C591.929 117.953 592.129 118.053 592.316 118.24C592.689 118.653 593.102 118.98 593.556 119.22C594.022 119.46 594.582 119.58 595.236 119.58C595.502 119.567 595.776 119.527 596.056 119.46C596.336 119.38 596.576 119.247 596.776 119.06C596.976 118.86 597.076 118.573 597.076 118.2C597.076 117.867 596.969 117.6 596.756 117.4C596.542 117.2 596.262 117.04 595.916 116.92C595.569 116.787 595.196 116.667 594.796 116.56C594.369 116.44 593.936 116.307 593.496 116.16C593.069 116.013 592.682 115.827 592.336 115.6C591.989 115.36 591.702 115.053 591.476 114.68C591.262 114.307 591.156 113.847 591.156 113.3C591.156 112.673 591.329 112.133 591.676 111.68C592.036 111.227 592.496 110.873 593.056 110.62C593.629 110.367 594.249 110.24 594.916 110.24C595.302 110.24 595.709 110.293 596.136 110.4C596.562 110.493 596.976 110.647 597.376 110.86C597.776 111.073 598.122 111.353 598.416 111.7C598.549 111.873 598.622 112.08 598.636 112.32C598.662 112.56 598.556 112.773 598.316 112.96C598.156 113.093 597.962 113.153 597.736 113.14C597.509 113.127 597.322 113.053 597.176 112.92C596.922 112.6 596.596 112.353 596.196 112.18C595.796 111.993 595.342 111.9 594.836 111.9C594.582 111.9 594.316 111.94 594.036 112.02C593.769 112.087 593.542 112.213 593.356 112.4C593.169 112.587 593.076 112.86 593.076 113.22C593.076 113.553 593.182 113.82 593.396 114.02C593.622 114.22 593.916 114.387 594.276 114.52C594.636 114.653 595.029 114.773 595.456 114.88C595.869 114.987 596.276 115.113 596.676 115.26C597.089 115.407 597.456 115.6 597.776 115.84C598.109 116.067 598.376 116.367 598.576 116.74C598.789 117.1 598.896 117.56 598.896 118.12C598.896 118.773 598.702 119.333 598.316 119.8C597.942 120.253 597.462 120.6 596.876 120.84C596.302 121.08 595.696 121.2 595.056 121.2C594.296 121.2 593.536 121.067 592.776 120.8C592.029 120.52 591.396 120.04 590.876 119.36ZM600.906 110.6H605.606C605.873 110.6 606.093 110.693 606.266 110.88C606.453 111.053 606.546 111.273 606.546 111.54C606.546 111.793 606.453 112.007 606.266 112.18C606.093 112.353 605.873 112.44 605.606 112.44H600.906C600.64 112.44 600.413 112.353 600.226 112.18C600.053 111.993 599.966 111.773 599.966 111.52C599.966 111.253 600.053 111.033 600.226 110.86C600.413 110.687 600.64 110.6 600.906 110.6ZM603.006 108C603.3 108 603.54 108.1 603.726 108.3C603.913 108.487 604.006 108.727 604.006 109.02V118.3C604.006 118.54 604.046 118.733 604.126 118.88C604.206 119.027 604.313 119.127 604.446 119.18C604.593 119.233 604.74 119.26 604.886 119.26C605.033 119.26 605.16 119.233 605.266 119.18C605.386 119.127 605.526 119.1 605.686 119.1C605.846 119.1 605.993 119.173 606.126 119.32C606.26 119.467 606.326 119.667 606.326 119.92C606.326 120.24 606.153 120.5 605.806 120.7C605.46 120.9 605.086 121 604.686 121C604.46 121 604.193 120.98 603.886 120.94C603.58 120.9 603.28 120.8 602.986 120.64C602.706 120.48 602.473 120.227 602.286 119.88C602.1 119.52 602.006 119.02 602.006 118.38V109.02C602.006 108.727 602.1 108.487 602.286 108.3C602.486 108.1 602.726 108 603.006 108ZM617.301 110.32C617.581 110.32 617.815 110.42 618.001 110.62C618.201 110.807 618.301 111.047 618.301 111.34V119.98C618.301 120.273 618.201 120.52 618.001 120.72C617.815 120.907 617.581 121 617.301 121C617.008 121 616.768 120.907 616.581 120.72C616.395 120.52 616.301 120.273 616.301 119.98V118.54L616.701 118.6C616.701 118.84 616.601 119.107 616.401 119.4C616.215 119.693 615.955 119.98 615.621 120.26C615.288 120.527 614.895 120.753 614.441 120.94C613.988 121.113 613.501 121.2 612.981 121.2C612.061 121.2 611.235 120.967 610.501 120.5C609.768 120.02 609.188 119.367 608.761 118.54C608.335 117.713 608.121 116.773 608.121 115.72C608.121 114.64 608.335 113.693 608.761 112.88C609.188 112.053 609.761 111.407 610.481 110.94C611.215 110.473 612.028 110.24 612.921 110.24C613.495 110.24 614.021 110.333 614.501 110.52C614.995 110.707 615.421 110.947 615.781 111.24C616.141 111.533 616.421 111.847 616.621 112.18C616.821 112.5 616.921 112.807 616.921 113.1L616.301 113.16V111.34C616.301 111.06 616.395 110.82 616.581 110.62C616.768 110.42 617.008 110.32 617.301 110.32ZM613.221 119.36C613.848 119.36 614.395 119.2 614.861 118.88C615.341 118.56 615.715 118.127 615.981 117.58C616.248 117.02 616.381 116.4 616.381 115.72C616.381 115.027 616.248 114.407 615.981 113.86C615.715 113.313 615.341 112.88 614.861 112.56C614.395 112.24 613.848 112.08 613.221 112.08C612.608 112.08 612.061 112.24 611.581 112.56C611.101 112.88 610.728 113.313 610.461 113.86C610.195 114.407 610.061 115.027 610.061 115.72C610.061 116.4 610.195 117.02 610.461 117.58C610.728 118.127 611.095 118.56 611.561 118.88C612.041 119.2 612.595 119.36 613.221 119.36ZM535.741 135.3C536.727 135.3 537.487 135.547 538.021 136.04C538.554 136.52 538.907 137.173 539.081 138L538.761 137.9L538.901 137.58C539.074 137.233 539.334 136.887 539.681 136.54C540.041 136.18 540.467 135.887 540.961 135.66C541.454 135.42 541.981 135.3 542.541 135.3C543.461 135.3 544.174 135.5 544.681 135.9C545.187 136.287 545.541 136.813 545.741 137.48C545.941 138.133 546.041 138.867 546.041 139.68V144.98C546.041 145.273 545.947 145.52 545.761 145.72C545.574 145.907 545.334 146 545.041 146C544.761 146 544.521 145.907 544.321 145.72C544.134 145.52 544.041 145.273 544.041 144.98V139.7C544.041 139.233 543.974 138.807 543.841 138.42C543.721 138.033 543.501 137.727 543.181 137.5C542.874 137.26 542.447 137.14 541.901 137.14C541.381 137.14 540.914 137.26 540.501 137.5C540.101 137.727 539.787 138.033 539.561 138.42C539.334 138.807 539.221 139.233 539.221 139.7V144.98C539.221 145.273 539.127 145.52 538.941 145.72C538.754 145.907 538.514 146 538.221 146C537.927 146 537.687 145.907 537.501 145.72C537.314 145.52 537.221 145.273 537.221 144.98V139.68C537.221 139.213 537.154 138.787 537.021 138.4C536.901 138.013 536.687 137.707 536.381 137.48C536.074 137.253 535.647 137.14 535.101 137.14C534.581 137.14 534.121 137.253 533.721 137.48C533.321 137.707 533.007 138.013 532.781 138.4C532.567 138.787 532.461 139.213 532.461 139.68V144.98C532.461 145.273 532.361 145.52 532.161 145.72C531.974 145.907 531.741 146 531.461 146C531.167 146 530.927 145.907 530.741 145.72C530.554 145.52 530.461 145.273 530.461 144.98V136.5C530.461 136.207 530.554 135.967 530.741 135.78C530.927 135.58 531.167 135.48 531.461 135.48C531.741 135.48 531.974 135.58 532.161 135.78C532.361 135.967 532.461 136.207 532.461 136.5V137.68L532.081 137.9C532.174 137.607 532.327 137.307 532.541 137C532.754 136.693 533.021 136.413 533.341 136.16C533.674 135.907 534.041 135.7 534.441 135.54C534.841 135.38 535.274 135.3 535.741 135.3ZM557.379 135.32C557.659 135.32 557.893 135.42 558.079 135.62C558.279 135.807 558.379 136.047 558.379 136.34V144.98C558.379 145.273 558.279 145.52 558.079 145.72C557.893 145.907 557.659 146 557.379 146C557.086 146 556.846 145.907 556.659 145.72C556.473 145.52 556.379 145.273 556.379 144.98V143.54L556.779 143.6C556.779 143.84 556.679 144.107 556.479 144.4C556.293 144.693 556.033 144.98 555.699 145.26C555.366 145.527 554.973 145.753 554.519 145.94C554.066 146.113 553.579 146.2 553.059 146.2C552.139 146.2 551.313 145.967 550.579 145.5C549.846 145.02 549.266 144.367 548.839 143.54C548.413 142.713 548.199 141.773 548.199 140.72C548.199 139.64 548.413 138.693 548.839 137.88C549.266 137.053 549.839 136.407 550.559 135.94C551.293 135.473 552.106 135.24 552.999 135.24C553.573 135.24 554.099 135.333 554.579 135.52C555.073 135.707 555.499 135.947 555.859 136.24C556.219 136.533 556.499 136.847 556.699 137.18C556.899 137.5 556.999 137.807 556.999 138.1L556.379 138.16V136.34C556.379 136.06 556.473 135.82 556.659 135.62C556.846 135.42 557.086 135.32 557.379 135.32ZM553.299 144.36C553.926 144.36 554.473 144.2 554.939 143.88C555.419 143.56 555.793 143.127 556.059 142.58C556.326 142.02 556.459 141.4 556.459 140.72C556.459 140.027 556.326 139.407 556.059 138.86C555.793 138.313 555.419 137.88 554.939 137.56C554.473 137.24 553.926 137.08 553.299 137.08C552.686 137.08 552.139 137.24 551.659 137.56C551.179 137.88 550.806 138.313 550.539 138.86C550.273 139.407 550.139 140.027 550.139 140.72C550.139 141.4 550.273 142.02 550.539 142.58C550.806 143.127 551.173 143.56 551.639 143.88C552.119 144.2 552.673 144.36 553.299 144.36ZM562.164 146C561.87 146 561.63 145.907 561.444 145.72C561.257 145.52 561.164 145.273 561.164 144.98V136.5C561.164 136.207 561.257 135.967 561.444 135.78C561.63 135.58 561.87 135.48 562.164 135.48C562.444 135.48 562.677 135.58 562.864 135.78C563.064 135.967 563.164 136.207 563.164 136.5V138.74L562.964 137.88C563.07 137.507 563.23 137.16 563.444 136.84C563.67 136.52 563.937 136.24 564.244 136C564.55 135.76 564.89 135.573 565.264 135.44C565.65 135.307 566.05 135.24 566.464 135.24C566.81 135.24 567.11 135.333 567.364 135.52C567.617 135.707 567.744 135.94 567.744 136.22C567.744 136.58 567.65 136.847 567.464 137.02C567.277 137.18 567.07 137.26 566.844 137.26C566.644 137.26 566.45 137.22 566.264 137.14C566.077 137.047 565.857 137 565.604 137C565.324 137 565.037 137.073 564.744 137.22C564.45 137.367 564.184 137.587 563.944 137.88C563.704 138.16 563.51 138.493 563.364 138.88C563.23 139.267 563.164 139.7 563.164 140.18V144.98C563.164 145.273 563.064 145.52 562.864 145.72C562.677 145.907 562.444 146 562.164 146ZM573.654 135.24C574.374 135.24 575.007 135.32 575.554 135.48C576.114 135.627 576.554 135.84 576.874 136.12C577.194 136.387 577.354 136.7 577.354 137.06C577.354 137.287 577.28 137.5 577.134 137.7C577 137.887 576.807 137.98 576.554 137.98C576.354 137.98 576.187 137.947 576.054 137.88C575.934 137.813 575.82 137.733 575.714 137.64C575.607 137.547 575.474 137.453 575.314 137.36C575.167 137.28 574.947 137.213 574.654 137.16C574.374 137.107 574.12 137.08 573.894 137.08C573.187 137.08 572.574 137.24 572.054 137.56C571.547 137.88 571.147 138.313 570.854 138.86C570.574 139.407 570.434 140.027 570.434 140.72C570.434 141.413 570.574 142.033 570.854 142.58C571.147 143.127 571.54 143.56 572.034 143.88C572.54 144.2 573.127 144.36 573.794 144.36C574.194 144.36 574.52 144.333 574.774 144.28C575.04 144.213 575.26 144.133 575.434 144.04C575.647 143.92 575.82 143.8 575.954 143.68C576.087 143.547 576.28 143.48 576.534 143.48C576.827 143.48 577.047 143.573 577.194 143.76C577.354 143.933 577.434 144.153 577.434 144.42C577.434 144.713 577.254 145 576.894 145.28C576.547 145.547 576.08 145.767 575.494 145.94C574.907 146.113 574.26 146.2 573.554 146.2C572.514 146.2 571.607 145.96 570.834 145.48C570.074 145 569.48 144.347 569.054 143.52C568.64 142.693 568.434 141.76 568.434 140.72C568.434 139.667 568.654 138.733 569.094 137.92C569.534 137.093 570.147 136.44 570.934 135.96C571.72 135.48 572.627 135.24 573.654 135.24ZM587.907 135.32C588.187 135.32 588.42 135.42 588.607 135.62C588.807 135.807 588.907 136.047 588.907 136.34V144.98C588.907 145.273 588.807 145.52 588.607 145.72C588.42 145.907 588.187 146 587.907 146C587.613 146 587.373 145.907 587.187 145.72C587 145.52 586.907 145.273 586.907 144.98V143.54L587.307 143.6C587.307 143.84 587.207 144.107 587.007 144.4C586.82 144.693 586.56 144.98 586.227 145.26C585.893 145.527 585.5 145.753 585.047 145.94C584.593 146.113 584.107 146.2 583.587 146.2C582.667 146.2 581.84 145.967 581.107 145.5C580.373 145.02 579.793 144.367 579.367 143.54C578.94 142.713 578.727 141.773 578.727 140.72C578.727 139.64 578.94 138.693 579.367 137.88C579.793 137.053 580.367 136.407 581.087 135.94C581.82 135.473 582.633 135.24 583.527 135.24C584.1 135.24 584.627 135.333 585.107 135.52C585.6 135.707 586.027 135.947 586.387 136.24C586.747 136.533 587.027 136.847 587.227 137.18C587.427 137.5 587.527 137.807 587.527 138.1L586.907 138.16V136.34C586.907 136.06 587 135.82 587.187 135.62C587.373 135.42 587.613 135.32 587.907 135.32ZM583.827 144.36C584.453 144.36 585 144.2 585.467 143.88C585.947 143.56 586.32 143.127 586.587 142.58C586.853 142.02 586.987 141.4 586.987 140.72C586.987 140.027 586.853 139.407 586.587 138.86C586.32 138.313 585.947 137.88 585.467 137.56C585 137.24 584.453 137.08 583.827 137.08C583.213 137.08 582.667 137.24 582.187 137.56C581.707 137.88 581.333 138.313 581.067 138.86C580.8 139.407 580.667 140.027 580.667 140.72C580.667 141.4 580.8 142.02 581.067 142.58C581.333 143.127 581.7 143.56 582.167 143.88C582.647 144.2 583.2 144.36 583.827 144.36ZM600.231 131.2C600.511 131.2 600.744 131.293 600.931 131.48C601.131 131.667 601.231 131.913 601.231 132.22V144.98C601.231 145.273 601.131 145.52 600.931 145.72C600.744 145.907 600.511 146 600.231 146C599.938 146 599.698 145.907 599.511 145.72C599.324 145.52 599.231 145.273 599.231 144.98V143.54L599.631 143.56C599.631 143.8 599.531 144.073 599.331 144.38C599.144 144.673 598.884 144.96 598.551 145.24C598.218 145.52 597.824 145.753 597.371 145.94C596.918 146.113 596.431 146.2 595.911 146.2C595.004 146.2 594.178 145.967 593.431 145.5C592.698 145.02 592.118 144.373 591.691 143.56C591.264 142.733 591.051 141.787 591.051 140.72C591.051 139.653 591.264 138.713 591.691 137.9C592.118 137.073 592.691 136.427 593.411 135.96C594.144 135.48 594.958 135.24 595.851 135.24C596.411 135.24 596.931 135.333 597.411 135.52C597.904 135.707 598.331 135.947 598.691 136.24C599.051 136.533 599.331 136.847 599.531 137.18C599.744 137.5 599.851 137.807 599.851 138.1L599.231 138.16V132.22C599.231 131.927 599.324 131.687 599.511 131.5C599.698 131.3 599.938 131.2 600.231 131.2ZM596.151 144.36C596.778 144.36 597.324 144.2 597.791 143.88C598.271 143.56 598.644 143.127 598.911 142.58C599.178 142.033 599.311 141.413 599.311 140.72C599.311 140.027 599.178 139.407 598.911 138.86C598.644 138.313 598.271 137.88 597.791 137.56C597.324 137.24 596.778 137.08 596.151 137.08C595.538 137.08 594.991 137.24 594.511 137.56C594.031 137.88 593.658 138.313 593.391 138.86C593.124 139.407 592.991 140.027 592.991 140.72C592.991 141.413 593.124 142.033 593.391 142.58C593.658 143.127 594.031 143.56 594.511 143.88C594.991 144.2 595.538 144.36 596.151 144.36ZM612.555 135.32C612.835 135.32 613.069 135.42 613.255 135.62C613.455 135.807 613.555 136.047 613.555 136.34V144.98C613.555 145.273 613.455 145.52 613.255 145.72C613.069 145.907 612.835 146 612.555 146C612.262 146 612.022 145.907 611.835 145.72C611.649 145.52 611.555 145.273 611.555 144.98V143.54L611.955 143.6C611.955 143.84 611.855 144.107 611.655 144.4C611.469 144.693 611.209 144.98 610.875 145.26C610.542 145.527 610.149 145.753 609.695 145.94C609.242 146.113 608.755 146.2 608.235 146.2C607.315 146.2 606.489 145.967 605.755 145.5C605.022 145.02 604.442 144.367 604.015 143.54C603.589 142.713 603.375 141.773 603.375 140.72C603.375 139.64 603.589 138.693 604.015 137.88C604.442 137.053 605.015 136.407 605.735 135.94C606.469 135.473 607.282 135.24 608.175 135.24C608.749 135.24 609.275 135.333 609.755 135.52C610.249 135.707 610.675 135.947 611.035 136.24C611.395 136.533 611.675 136.847 611.875 137.18C612.075 137.5 612.175 137.807 612.175 138.1L611.555 138.16V136.34C611.555 136.06 611.649 135.82 611.835 135.62C612.022 135.42 612.262 135.32 612.555 135.32ZM608.475 144.36C609.102 144.36 609.649 144.2 610.115 143.88C610.595 143.56 610.969 143.127 611.235 142.58C611.502 142.02 611.635 141.4 611.635 140.72C611.635 140.027 611.502 139.407 611.235 138.86C610.969 138.313 610.595 137.88 610.115 137.56C609.649 137.24 609.102 137.08 608.475 137.08C607.862 137.08 607.315 137.24 606.835 137.56C606.355 137.88 605.982 138.313 605.715 138.86C605.449 139.407 605.315 140.027 605.315 140.72C605.315 141.4 605.449 142.02 605.715 142.58C605.982 143.127 606.349 143.56 606.815 143.88C607.295 144.2 607.849 144.36 608.475 144.36Z" fill="black"/>
<circle cx="1097" cy="40" r="40" fill="#AE0168"/>
<path d="M1096.5 12.4166C1081.55 12.4166 1069.42 24.55 1069.42 39.5C1069.42 54.45 1081.55 66.5833 1096.5 66.5833C1111.45 66.5833 1123.58 54.45 1123.58 39.5C1123.58 24.55 1111.45 12.4166 1096.5 12.4166ZM1096.5 61.1666C1084.56 61.1666 1074.83 51.4437 1074.83 39.5C1074.83 27.5562 1084.56 17.8333 1096.5 17.8333C1108.44 17.8333 1118.17 27.5562 1118.17 39.5C1118.17 51.4437 1108.44 61.1666 1096.5 61.1666ZM1108.93 27.5291L1091.08 45.377L1084.07 38.3895L1080.25 42.2083L1091.08 53.0416L1112.75 31.375L1108.93 27.5291Z" fill="white"/>
<path d="M1079.64 107C1080.35 107 1081 107.193 1081.6 107.58C1082.2 107.953 1082.68 108.467 1083.04 109.12C1083.4 109.773 1083.58 110.507 1083.58 111.32C1083.58 112.133 1083.4 112.873 1083.04 113.54C1082.68 114.193 1082.2 114.72 1081.6 115.12C1081 115.507 1080.35 115.7 1079.64 115.7H1075.78L1075.94 115.38V119.98C1075.94 120.273 1075.85 120.52 1075.66 120.72C1075.49 120.907 1075.25 121 1074.96 121C1074.68 121 1074.45 120.907 1074.26 120.72C1074.09 120.52 1074 120.273 1074 119.98V108.02C1074 107.727 1074.1 107.487 1074.3 107.3C1074.5 107.1 1074.74 107 1075.02 107H1079.64ZM1079.64 113.78C1079.99 113.78 1080.3 113.667 1080.58 113.44C1080.87 113.213 1081.11 112.913 1081.28 112.54C1081.47 112.167 1081.56 111.76 1081.56 111.32C1081.56 110.88 1081.47 110.48 1081.28 110.12C1081.11 109.76 1080.87 109.473 1080.58 109.26C1080.3 109.033 1079.99 108.92 1079.64 108.92H1075.74L1075.94 108.62V114.04L1075.76 113.78H1079.64ZM1090.4 121.2C1089.3 121.2 1088.34 120.973 1087.52 120.52C1086.7 120.053 1086.07 119.42 1085.62 118.62C1085.18 117.807 1084.96 116.88 1084.96 115.84C1084.96 114.667 1085.19 113.667 1085.66 112.84C1086.14 112 1086.76 111.36 1087.52 110.92C1088.29 110.467 1089.1 110.24 1089.96 110.24C1090.6 110.24 1091.21 110.373 1091.8 110.64C1092.4 110.893 1092.92 111.253 1093.38 111.72C1093.83 112.173 1094.19 112.713 1094.46 113.34C1094.72 113.953 1094.86 114.627 1094.88 115.36C1094.86 115.627 1094.76 115.847 1094.56 116.02C1094.36 116.193 1094.12 116.28 1093.86 116.28H1086.1L1085.62 114.58H1093.14L1092.76 114.94V114.44C1092.72 113.973 1092.56 113.567 1092.28 113.22C1092 112.86 1091.65 112.587 1091.24 112.4C1090.84 112.2 1090.41 112.1 1089.96 112.1C1089.56 112.1 1089.17 112.167 1088.8 112.3C1088.42 112.42 1088.1 112.62 1087.82 112.9C1087.54 113.18 1087.31 113.553 1087.14 114.02C1086.96 114.473 1086.88 115.04 1086.88 115.72C1086.88 116.453 1087.03 117.093 1087.34 117.64C1087.64 118.187 1088.06 118.613 1088.58 118.92C1089.1 119.213 1089.68 119.36 1090.32 119.36C1090.8 119.36 1091.2 119.313 1091.52 119.22C1091.84 119.113 1092.1 118.987 1092.32 118.84C1092.53 118.693 1092.72 118.553 1092.88 118.42C1093.09 118.3 1093.29 118.24 1093.48 118.24C1093.72 118.24 1093.92 118.327 1094.08 118.5C1094.24 118.66 1094.32 118.853 1094.32 119.08C1094.32 119.373 1094.17 119.64 1093.88 119.88C1093.52 120.227 1093.02 120.533 1092.38 120.8C1091.75 121.067 1091.09 121.2 1090.4 121.2ZM1098.04 121C1097.75 121 1097.51 120.907 1097.32 120.72C1097.14 120.52 1097.04 120.273 1097.04 119.98V111.5C1097.04 111.207 1097.14 110.967 1097.32 110.78C1097.51 110.58 1097.75 110.48 1098.04 110.48C1098.32 110.48 1098.56 110.58 1098.74 110.78C1098.94 110.967 1099.04 111.207 1099.04 111.5V113.74L1098.84 112.88C1098.95 112.507 1099.11 112.16 1099.32 111.84C1099.55 111.52 1099.82 111.24 1100.12 111C1100.43 110.76 1100.77 110.573 1101.14 110.44C1101.53 110.307 1101.93 110.24 1102.34 110.24C1102.69 110.24 1102.99 110.333 1103.24 110.52C1103.5 110.707 1103.62 110.94 1103.62 111.22C1103.62 111.58 1103.53 111.847 1103.34 112.02C1103.16 112.18 1102.95 112.26 1102.72 112.26C1102.52 112.26 1102.33 112.22 1102.14 112.14C1101.96 112.047 1101.74 112 1101.48 112C1101.2 112 1100.92 112.073 1100.62 112.22C1100.33 112.367 1100.06 112.587 1099.82 112.88C1099.58 113.16 1099.39 113.493 1099.24 113.88C1099.11 114.267 1099.04 114.7 1099.04 115.18V119.98C1099.04 120.273 1098.94 120.52 1098.74 120.72C1098.56 120.907 1098.32 121 1098.04 121ZM1110.3 106.22C1110.56 106.22 1110.82 106.253 1111.08 106.32C1111.35 106.387 1111.57 106.5 1111.74 106.66C1111.93 106.807 1112.02 107.013 1112.02 107.28C1112.02 107.547 1111.94 107.767 1111.78 107.94C1111.62 108.1 1111.44 108.18 1111.22 108.18C1111.09 108.18 1110.91 108.153 1110.68 108.1C1110.46 108.033 1110.23 108 1110 108C1109.7 108 1109.45 108.073 1109.26 108.22C1109.08 108.353 1108.94 108.527 1108.86 108.74C1108.78 108.94 1108.74 109.14 1108.74 109.34V119.98C1108.74 120.273 1108.64 120.52 1108.44 120.72C1108.26 120.907 1108.02 121 1107.74 121C1107.45 121 1107.21 120.907 1107.02 120.72C1106.84 120.52 1106.74 120.273 1106.74 119.98V109.36C1106.74 108.44 1107.04 107.687 1107.64 107.1C1108.26 106.513 1109.14 106.22 1110.3 106.22ZM1110.7 110.66C1110.97 110.66 1111.19 110.747 1111.36 110.92C1111.54 111.093 1111.62 111.313 1111.62 111.58C1111.62 111.847 1111.54 112.067 1111.36 112.24C1111.19 112.413 1110.97 112.5 1110.7 112.5H1105.52C1105.27 112.5 1105.05 112.413 1104.86 112.24C1104.69 112.067 1104.6 111.847 1104.6 111.58C1104.6 111.313 1104.69 111.093 1104.86 110.92C1105.05 110.747 1105.27 110.66 1105.52 110.66H1110.7ZM1115.2 119.98C1115.2 120.273 1115.11 120.52 1114.92 120.72C1114.74 120.907 1114.5 121 1114.2 121C1113.92 121 1113.68 120.907 1113.48 120.72C1113.3 120.52 1113.2 120.273 1113.2 119.98V111.42C1113.2 111.127 1113.3 110.887 1113.48 110.7C1113.68 110.5 1113.92 110.4 1114.2 110.4C1114.5 110.4 1114.74 110.5 1114.92 110.7C1115.11 110.887 1115.2 111.127 1115.2 111.42V119.98ZM1114.18 109.08C1113.8 109.08 1113.52 109.013 1113.34 108.88C1113.17 108.733 1113.08 108.493 1113.08 108.16V107.84C1113.08 107.507 1113.18 107.273 1113.36 107.14C1113.55 107.007 1113.83 106.94 1114.2 106.94C1114.6 106.94 1114.89 107.013 1115.06 107.16C1115.24 107.293 1115.32 107.52 1115.32 107.84V108.16C1115.32 108.507 1115.23 108.747 1115.04 108.88C1114.87 109.013 1114.58 109.08 1114.18 109.08ZM1120.04 119.98C1120.04 120.273 1119.94 120.52 1119.74 120.72C1119.56 120.907 1119.32 121 1119.04 121C1118.76 121 1118.52 120.907 1118.32 120.72C1118.14 120.52 1118.04 120.273 1118.04 119.98V107.22C1118.04 106.927 1118.14 106.687 1118.34 106.5C1118.54 106.3 1118.78 106.2 1119.06 106.2C1119.36 106.2 1119.59 106.3 1119.76 106.5C1119.95 106.687 1120.04 106.927 1120.04 107.22V119.98ZM1058.31 135.24C1059.03 135.24 1059.67 135.32 1060.21 135.48C1060.77 135.627 1061.21 135.84 1061.53 136.12C1061.85 136.387 1062.01 136.7 1062.01 137.06C1062.01 137.287 1061.94 137.5 1061.79 137.7C1061.66 137.887 1061.47 137.98 1061.21 137.98C1061.01 137.98 1060.85 137.947 1060.71 137.88C1060.59 137.813 1060.48 137.733 1060.37 137.64C1060.27 137.547 1060.13 137.453 1059.97 137.36C1059.83 137.28 1059.61 137.213 1059.31 137.16C1059.03 137.107 1058.78 137.08 1058.55 137.08C1057.85 137.08 1057.23 137.24 1056.71 137.56C1056.21 137.88 1055.81 138.313 1055.51 138.86C1055.23 139.407 1055.09 140.027 1055.09 140.72C1055.09 141.413 1055.23 142.033 1055.51 142.58C1055.81 143.127 1056.2 143.56 1056.69 143.88C1057.2 144.2 1057.79 144.36 1058.45 144.36C1058.85 144.36 1059.18 144.333 1059.43 144.28C1059.7 144.213 1059.92 144.133 1060.09 144.04C1060.31 143.92 1060.48 143.8 1060.61 143.68C1060.75 143.547 1060.94 143.48 1061.19 143.48C1061.49 143.48 1061.71 143.573 1061.85 143.76C1062.01 143.933 1062.09 144.153 1062.09 144.42C1062.09 144.713 1061.91 145 1061.55 145.28C1061.21 145.547 1060.74 145.767 1060.15 145.94C1059.57 146.113 1058.92 146.2 1058.21 146.2C1057.17 146.2 1056.27 145.96 1055.49 145.48C1054.73 145 1054.14 144.347 1053.71 143.52C1053.3 142.693 1053.09 141.76 1053.09 140.72C1053.09 139.667 1053.31 138.733 1053.75 137.92C1054.19 137.093 1054.81 136.44 1055.59 135.96C1056.38 135.48 1057.29 135.24 1058.31 135.24ZM1074.03 140.74C1074.03 141.807 1073.79 142.753 1073.31 143.58C1072.84 144.393 1072.21 145.033 1071.41 145.5C1070.61 145.967 1069.71 146.2 1068.71 146.2C1067.72 146.2 1066.82 145.967 1066.01 145.5C1065.21 145.033 1064.57 144.393 1064.09 143.58C1063.62 142.753 1063.39 141.807 1063.39 140.74C1063.39 139.66 1063.62 138.713 1064.09 137.9C1064.57 137.073 1065.21 136.427 1066.01 135.96C1066.82 135.48 1067.72 135.24 1068.71 135.24C1069.71 135.24 1070.61 135.48 1071.41 135.96C1072.21 136.427 1072.84 137.073 1073.31 137.9C1073.79 138.713 1074.03 139.66 1074.03 140.74ZM1072.03 140.74C1072.03 140.007 1071.88 139.373 1071.59 138.84C1071.29 138.293 1070.89 137.867 1070.39 137.56C1069.89 137.24 1069.33 137.08 1068.71 137.08C1068.09 137.08 1067.53 137.24 1067.03 137.56C1066.53 137.867 1066.13 138.293 1065.83 138.84C1065.53 139.373 1065.39 140.007 1065.39 140.74C1065.39 141.447 1065.53 142.073 1065.83 142.62C1066.13 143.167 1066.53 143.593 1067.03 143.9C1067.53 144.207 1068.09 144.36 1068.71 144.36C1069.33 144.36 1069.89 144.207 1070.39 143.9C1070.89 143.593 1071.29 143.167 1071.59 142.62C1071.88 142.073 1072.03 141.447 1072.03 140.74ZM1081.47 135.3C1082.46 135.3 1083.22 135.547 1083.75 136.04C1084.29 136.52 1084.64 137.173 1084.81 138L1084.49 137.9L1084.63 137.58C1084.81 137.233 1085.07 136.887 1085.41 136.54C1085.77 136.18 1086.2 135.887 1086.69 135.66C1087.19 135.42 1087.71 135.3 1088.27 135.3C1089.19 135.3 1089.91 135.5 1090.41 135.9C1090.92 136.287 1091.27 136.813 1091.47 137.48C1091.67 138.133 1091.77 138.867 1091.77 139.68V144.98C1091.77 145.273 1091.68 145.52 1091.49 145.72C1091.31 145.907 1091.07 146 1090.77 146C1090.49 146 1090.25 145.907 1090.05 145.72C1089.87 145.52 1089.77 145.273 1089.77 144.98V139.7C1089.77 139.233 1089.71 138.807 1089.57 138.42C1089.45 138.033 1089.23 137.727 1088.91 137.5C1088.61 137.26 1088.18 137.14 1087.63 137.14C1087.11 137.14 1086.65 137.26 1086.23 137.5C1085.83 137.727 1085.52 138.033 1085.29 138.42C1085.07 138.807 1084.95 139.233 1084.95 139.7V144.98C1084.95 145.273 1084.86 145.52 1084.67 145.72C1084.49 145.907 1084.25 146 1083.95 146C1083.66 146 1083.42 145.907 1083.23 145.72C1083.05 145.52 1082.95 145.273 1082.95 144.98V139.68C1082.95 139.213 1082.89 138.787 1082.75 138.4C1082.63 138.013 1082.42 137.707 1082.11 137.48C1081.81 137.253 1081.38 137.14 1080.83 137.14C1080.31 137.14 1079.85 137.253 1079.45 137.48C1079.05 137.707 1078.74 138.013 1078.51 138.4C1078.3 138.787 1078.19 139.213 1078.19 139.68V144.98C1078.19 145.273 1078.09 145.52 1077.89 145.72C1077.71 145.907 1077.47 146 1077.19 146C1076.9 146 1076.66 145.907 1076.47 145.72C1076.29 145.52 1076.19 145.273 1076.19 144.98V136.5C1076.19 136.207 1076.29 135.967 1076.47 135.78C1076.66 135.58 1076.9 135.48 1077.19 135.48C1077.47 135.48 1077.71 135.58 1077.89 135.78C1078.09 135.967 1078.19 136.207 1078.19 136.5V137.68L1077.81 137.9C1077.91 137.607 1078.06 137.307 1078.27 137C1078.49 136.693 1078.75 136.413 1079.07 136.16C1079.41 135.907 1079.77 135.7 1080.17 135.54C1080.57 135.38 1081.01 135.3 1081.47 135.3ZM1099.87 135.3C1100.81 135.3 1101.63 135.533 1102.35 136C1103.09 136.467 1103.67 137.107 1104.09 137.92C1104.52 138.72 1104.73 139.653 1104.73 140.72C1104.73 141.787 1104.52 142.733 1104.09 143.56C1103.67 144.373 1103.09 145.013 1102.37 145.48C1101.65 145.947 1100.84 146.18 1099.93 146.18C1099.43 146.18 1098.95 146.1 1098.49 145.94C1098.04 145.78 1097.64 145.573 1097.29 145.32C1096.95 145.053 1096.66 144.773 1096.43 144.48C1096.22 144.187 1096.09 143.913 1096.03 143.66L1096.57 143.4V148.98C1096.57 149.273 1096.47 149.513 1096.27 149.7C1096.09 149.9 1095.85 150 1095.57 150C1095.28 150 1095.04 149.9 1094.85 149.7C1094.67 149.513 1094.57 149.273 1094.57 148.98V136.46C1094.57 136.18 1094.67 135.94 1094.85 135.74C1095.04 135.54 1095.28 135.44 1095.57 135.44C1095.85 135.44 1096.09 135.54 1096.27 135.74C1096.47 135.94 1096.57 136.18 1096.57 136.46V137.84L1096.25 137.66C1096.29 137.407 1096.42 137.147 1096.63 136.88C1096.85 136.6 1097.11 136.34 1097.43 136.1C1097.77 135.86 1098.14 135.667 1098.55 135.52C1098.98 135.373 1099.42 135.3 1099.87 135.3ZM1099.65 137.14C1099.01 137.14 1098.45 137.3 1097.97 137.62C1097.51 137.927 1097.14 138.347 1096.87 138.88C1096.61 139.413 1096.47 140.027 1096.47 140.72C1096.47 141.4 1096.61 142.02 1096.87 142.58C1097.14 143.127 1097.51 143.56 1097.97 143.88C1098.45 144.187 1099.01 144.34 1099.65 144.34C1100.28 144.34 1100.83 144.187 1101.29 143.88C1101.76 143.56 1102.13 143.127 1102.39 142.58C1102.67 142.02 1102.81 141.4 1102.81 140.72C1102.81 140.04 1102.67 139.433 1102.39 138.9C1102.13 138.353 1101.76 137.927 1101.29 137.62C1100.83 137.3 1100.28 137.14 1099.65 137.14ZM1109.06 144.98C1109.06 145.273 1108.96 145.52 1108.76 145.72C1108.57 145.907 1108.34 146 1108.06 146C1107.78 146 1107.54 145.907 1107.34 145.72C1107.15 145.52 1107.06 145.273 1107.06 144.98V132.22C1107.06 131.927 1107.16 131.687 1107.36 131.5C1107.56 131.3 1107.8 131.2 1108.08 131.2C1108.37 131.2 1108.6 131.3 1108.78 131.5C1108.96 131.687 1109.06 131.927 1109.06 132.22V144.98ZM1116.64 146.2C1115.54 146.2 1114.58 145.973 1113.76 145.52C1112.94 145.053 1112.31 144.42 1111.86 143.62C1111.42 142.807 1111.2 141.88 1111.2 140.84C1111.2 139.667 1111.43 138.667 1111.9 137.84C1112.38 137 1113 136.36 1113.76 135.92C1114.53 135.467 1115.34 135.24 1116.2 135.24C1116.84 135.24 1117.45 135.373 1118.04 135.64C1118.64 135.893 1119.16 136.253 1119.62 136.72C1120.07 137.173 1120.43 137.713 1120.7 138.34C1120.96 138.953 1121.1 139.627 1121.12 140.36C1121.1 140.627 1121 140.847 1120.8 141.02C1120.6 141.193 1120.36 141.28 1120.1 141.28H1112.34L1111.86 139.58H1119.38L1119 139.94V139.44C1118.96 138.973 1118.8 138.567 1118.52 138.22C1118.24 137.86 1117.89 137.587 1117.48 137.4C1117.08 137.2 1116.65 137.1 1116.2 137.1C1115.8 137.1 1115.41 137.167 1115.04 137.3C1114.66 137.42 1114.34 137.62 1114.06 137.9C1113.78 138.18 1113.55 138.553 1113.38 139.02C1113.2 139.473 1113.12 140.04 1113.12 140.72C1113.12 141.453 1113.27 142.093 1113.58 142.64C1113.88 143.187 1114.3 143.613 1114.82 143.92C1115.34 144.213 1115.92 144.36 1116.56 144.36C1117.04 144.36 1117.44 144.313 1117.76 144.22C1118.08 144.113 1118.34 143.987 1118.56 143.84C1118.77 143.693 1118.96 143.553 1119.12 143.42C1119.33 143.3 1119.53 143.24 1119.72 143.24C1119.96 143.24 1120.16 143.327 1120.32 143.5C1120.48 143.66 1120.56 143.853 1120.56 144.08C1120.56 144.373 1120.41 144.64 1120.12 144.88C1119.76 145.227 1119.26 145.533 1118.62 145.8C1117.99 146.067 1117.33 146.2 1116.64 146.2ZM1123.14 135.6H1127.84C1128.11 135.6 1128.33 135.693 1128.5 135.88C1128.69 136.053 1128.78 136.273 1128.78 136.54C1128.78 136.793 1128.69 137.007 1128.5 137.18C1128.33 137.353 1128.11 137.44 1127.84 137.44H1123.14C1122.88 137.44 1122.65 137.353 1122.46 137.18C1122.29 136.993 1122.2 136.773 1122.2 136.52C1122.2 136.253 1122.29 136.033 1122.46 135.86C1122.65 135.687 1122.88 135.6 1123.14 135.6ZM1125.24 133C1125.54 133 1125.78 133.1 1125.96 133.3C1126.15 133.487 1126.24 133.727 1126.24 134.02V143.3C1126.24 143.54 1126.28 143.733 1126.36 143.88C1126.44 144.027 1126.55 144.127 1126.68 144.18C1126.83 144.233 1126.98 144.26 1127.12 144.26C1127.27 144.26 1127.4 144.233 1127.5 144.18C1127.62 144.127 1127.76 144.1 1127.92 144.1C1128.08 144.1 1128.23 144.173 1128.36 144.32C1128.5 144.467 1128.56 144.667 1128.56 144.92C1128.56 145.24 1128.39 145.5 1128.04 145.7C1127.7 145.9 1127.32 146 1126.92 146C1126.7 146 1126.43 145.98 1126.12 145.94C1125.82 145.9 1125.52 145.8 1125.22 145.64C1124.94 145.48 1124.71 145.227 1124.52 144.88C1124.34 144.52 1124.24 144.02 1124.24 143.38V134.02C1124.24 133.727 1124.34 133.487 1124.52 133.3C1124.72 133.1 1124.96 133 1125.24 133ZM1140.9 140.74C1140.9 141.807 1140.66 142.753 1140.18 143.58C1139.71 144.393 1139.08 145.033 1138.28 145.5C1137.48 145.967 1136.58 146.2 1135.58 146.2C1134.59 146.2 1133.69 145.967 1132.88 145.5C1132.08 145.033 1131.44 144.393 1130.96 143.58C1130.49 142.753 1130.26 141.807 1130.26 140.74C1130.26 139.66 1130.49 138.713 1130.96 137.9C1131.44 137.073 1132.08 136.427 1132.88 135.96C1133.69 135.48 1134.59 135.24 1135.58 135.24C1136.58 135.24 1137.48 135.48 1138.28 135.96C1139.08 136.427 1139.71 137.073 1140.18 137.9C1140.66 138.713 1140.9 139.66 1140.9 140.74ZM1138.9 140.74C1138.9 140.007 1138.75 139.373 1138.46 138.84C1138.17 138.293 1137.77 137.867 1137.26 137.56C1136.77 137.24 1136.21 137.08 1135.58 137.08C1134.97 137.08 1134.41 137.24 1133.9 137.56C1133.41 137.867 1133.01 138.293 1132.7 138.84C1132.41 139.373 1132.26 140.007 1132.26 140.74C1132.26 141.447 1132.41 142.073 1132.7 142.62C1133.01 143.167 1133.41 143.593 1133.9 143.9C1134.41 144.207 1134.97 144.36 1135.58 144.36C1136.21 144.36 1136.77 144.207 1137.26 143.9C1137.77 143.593 1138.17 143.167 1138.46 142.62C1138.75 142.073 1138.9 141.447 1138.9 140.74Z" fill="black"/>
</svg>
