<svg width="1133" height="151" viewBox="0 0 1133 151" fill="none" xmlns="http://www.w3.org/2000/svg">
<path d="M4 40H1129" stroke="black" stroke-width="2"/>
<circle cx="41" cy="40" r="40" fill="#005E89"/>
<path d="M41.4997 19.2229L61.8934 54.4583H21.1059L41.4997 19.2229ZM16.4205 51.75C14.3351 55.3521 16.9351 59.875 21.1059 59.875H61.8934C66.0643 59.875 68.6643 55.3521 66.5788 51.75L46.1851 16.5146C44.0997 12.9125 38.8997 12.9125 36.8143 16.5146L16.4205 51.75ZM38.7913 32.7916V38.2083C38.7913 39.6979 40.0101 40.9166 41.4997 40.9166C42.9893 40.9166 44.208 39.6979 44.208 38.2083V32.7916C44.208 31.3021 42.9893 30.0833 41.4997 30.0833C40.0101 30.0833 38.7913 31.3021 38.7913 32.7916ZM38.7913 46.3333H44.208V51.75H38.7913V46.3333Z" fill="white"/>
<path d="M7.31273 107C8.0194 107 8.67273 107.193 9.27273 107.58C9.87274 107.953 10.3527 108.467 10.7127 109.12C11.0727 109.773 11.2527 110.507 11.2527 111.32C11.2527 112.133 11.0727 112.873 10.7127 113.54C10.3527 114.193 9.87274 114.72 9.27273 115.12C8.67273 115.507 8.0194 115.7 7.31273 115.7H3.45273L3.61273 115.38V119.98C3.61273 120.273 3.5194 120.52 3.33273 120.72C3.1594 120.907 2.92607 121 2.63273 121C2.35273 121 2.1194 120.907 1.93273 120.72C1.7594 120.52 1.67273 120.273 1.67273 119.98V108.02C1.67273 107.727 1.77273 107.487 1.97273 107.3C2.17273 107.1 2.41273 107 2.69273 107H7.31273ZM7.31273 113.78C7.6594 113.78 7.97273 113.667 8.25273 113.44C8.54607 113.213 8.7794 112.913 8.95273 112.54C9.1394 112.167 9.23273 111.76 9.23273 111.32C9.23273 110.88 9.1394 110.48 8.95273 110.12C8.7794 109.76 8.54607 109.473 8.25273 109.26C7.97273 109.033 7.6594 108.92 7.31273 108.92H3.41273L3.61273 108.62V114.04L3.43273 113.78H7.31273ZM18.0691 121.2C16.9758 121.2 16.0158 120.973 15.1891 120.52C14.3758 120.053 13.7425 119.42 13.2891 118.62C12.8491 117.807 12.6291 116.88 12.6291 115.84C12.6291 114.667 12.8625 113.667 13.3291 112.84C13.8091 112 14.4291 111.36 15.1891 110.92C15.9625 110.467 16.7758 110.24 17.6291 110.24C18.2691 110.24 18.8825 110.373 19.4691 110.64C20.0691 110.893 20.5958 111.253 21.0491 111.72C21.5025 112.173 21.8625 112.713 22.1291 113.34C22.3958 113.953 22.5358 114.627 22.5491 115.36C22.5358 115.627 22.4291 115.847 22.2291 116.02C22.0291 116.193 21.7958 116.28 21.5291 116.28H13.7691L13.2891 114.58H20.8091L20.4291 114.94V114.44C20.3891 113.973 20.2291 113.567 19.9491 113.22C19.6691 112.86 19.3225 112.587 18.9091 112.4C18.5091 112.2 18.0825 112.1 17.6291 112.1C17.2291 112.1 16.8425 112.167 16.4691 112.3C16.0958 112.42 15.7691 112.62 15.4891 112.9C15.2091 113.18 14.9825 113.553 14.8091 114.02C14.6358 114.473 14.5491 115.04 14.5491 115.72C14.5491 116.453 14.7025 117.093 15.0091 117.64C15.3158 118.187 15.7291 118.613 16.2491 118.92C16.7691 119.213 17.3491 119.36 17.9891 119.36C18.4691 119.36 18.8691 119.313 19.1891 119.22C19.5091 119.113 19.7758 118.987 19.9891 118.84C20.2025 118.693 20.3891 118.553 20.5491 118.42C20.7625 118.3 20.9625 118.24 21.1491 118.24C21.3891 118.24 21.5891 118.327 21.7491 118.5C21.9091 118.66 21.9891 118.853 21.9891 119.08C21.9891 119.373 21.8425 119.64 21.5491 119.88C21.1891 120.227 20.6891 120.533 20.0491 120.8C19.4225 121.067 18.7625 121.2 18.0691 121.2ZM30.1345 110.24C31.0811 110.24 31.8145 110.44 32.3345 110.84C32.8545 111.227 33.2145 111.753 33.4145 112.42C33.6278 113.073 33.7345 113.807 33.7345 114.62V119.98C33.7345 120.273 33.6345 120.52 33.4345 120.72C33.2478 120.907 33.0145 121 32.7345 121C32.4411 121 32.2011 120.907 32.0145 120.72C31.8278 120.52 31.7345 120.273 31.7345 119.98V114.64C31.7345 114.16 31.6678 113.733 31.5345 113.36C31.4011 112.973 31.1678 112.667 30.8345 112.44C30.5145 112.2 30.0611 112.08 29.4745 112.08C28.9278 112.08 28.4478 112.2 28.0345 112.44C27.6211 112.667 27.2945 112.973 27.0545 113.36C26.8278 113.733 26.7145 114.16 26.7145 114.64V119.98C26.7145 120.273 26.6145 120.52 26.4145 120.72C26.2278 120.907 25.9945 121 25.7145 121C25.4211 121 25.1811 120.907 24.9945 120.72C24.8078 120.52 24.7145 120.273 24.7145 119.98V111.5C24.7145 111.207 24.8078 110.967 24.9945 110.78C25.1811 110.58 25.4211 110.48 25.7145 110.48C25.9945 110.48 26.2278 110.58 26.4145 110.78C26.6145 110.967 26.7145 111.207 26.7145 111.5V112.62L26.3545 112.82C26.4478 112.527 26.6078 112.233 26.8345 111.94C27.0745 111.633 27.3611 111.353 27.6945 111.1C28.0278 110.833 28.4011 110.627 28.8145 110.48C29.2278 110.32 29.6678 110.24 30.1345 110.24ZM45.0513 106.2C45.3313 106.2 45.5647 106.293 45.7513 106.48C45.9513 106.667 46.0513 106.913 46.0513 107.22V119.98C46.0513 120.273 45.9513 120.52 45.7513 120.72C45.5647 120.907 45.3313 121 45.0513 121C44.758 121 44.518 120.907 44.3313 120.72C44.1447 120.52 44.0513 120.273 44.0513 119.98V118.54L44.4513 118.56C44.4513 118.8 44.3513 119.073 44.1513 119.38C43.9647 119.673 43.7047 119.96 43.3713 120.24C43.038 120.52 42.6447 120.753 42.1913 120.94C41.738 121.113 41.2513 121.2 40.7313 121.2C39.8247 121.2 38.998 120.967 38.2513 120.5C37.518 120.02 36.938 119.373 36.5113 118.56C36.0847 117.733 35.8713 116.787 35.8713 115.72C35.8713 114.653 36.0847 113.713 36.5113 112.9C36.938 112.073 37.5113 111.427 38.2313 110.96C38.9647 110.48 39.778 110.24 40.6713 110.24C41.2313 110.24 41.7513 110.333 42.2313 110.52C42.7247 110.707 43.1513 110.947 43.5113 111.24C43.8713 111.533 44.1513 111.847 44.3513 112.18C44.5647 112.5 44.6713 112.807 44.6713 113.1L44.0513 113.16V107.22C44.0513 106.927 44.1447 106.687 44.3313 106.5C44.518 106.3 44.758 106.2 45.0513 106.2ZM40.9713 119.36C41.598 119.36 42.1447 119.2 42.6113 118.88C43.0913 118.56 43.4647 118.127 43.7313 117.58C43.998 117.033 44.1313 116.413 44.1313 115.72C44.1313 115.027 43.998 114.407 43.7313 113.86C43.4647 113.313 43.0913 112.88 42.6113 112.56C42.1447 112.24 41.598 112.08 40.9713 112.08C40.358 112.08 39.8113 112.24 39.3313 112.56C38.8513 112.88 38.478 113.313 38.2113 113.86C37.9447 114.407 37.8113 115.027 37.8113 115.72C37.8113 116.413 37.9447 117.033 38.2113 117.58C38.478 118.127 38.8513 118.56 39.3313 118.88C39.8113 119.2 40.358 119.36 40.9713 119.36ZM50.7155 119.98C50.7155 120.273 50.6222 120.52 50.4355 120.72C50.2489 120.907 50.0089 121 49.7155 121C49.4355 121 49.1955 120.907 48.9955 120.72C48.8089 120.52 48.7155 120.273 48.7155 119.98V111.42C48.7155 111.127 48.8089 110.887 48.9955 110.7C49.1955 110.5 49.4355 110.4 49.7155 110.4C50.0089 110.4 50.2489 110.5 50.4355 110.7C50.6222 110.887 50.7155 111.127 50.7155 111.42V119.98ZM49.6955 109.08C49.3089 109.08 49.0289 109.013 48.8555 108.88C48.6822 108.733 48.5955 108.493 48.5955 108.16V107.84C48.5955 107.507 48.6889 107.273 48.8755 107.14C49.0622 107.007 49.3422 106.94 49.7155 106.94C50.1155 106.94 50.4022 107.013 50.5755 107.16C50.7489 107.293 50.8355 107.52 50.8355 107.84V108.16C50.8355 108.507 50.7422 108.747 50.5555 108.88C50.3822 109.013 50.0955 109.08 49.6955 109.08ZM58.8259 110.24C59.7725 110.24 60.5059 110.44 61.0259 110.84C61.5459 111.227 61.9059 111.753 62.1059 112.42C62.3192 113.073 62.4259 113.807 62.4259 114.62V119.98C62.4259 120.273 62.3259 120.52 62.1259 120.72C61.9392 120.907 61.7059 121 61.4259 121C61.1325 121 60.8925 120.907 60.7059 120.72C60.5192 120.52 60.4259 120.273 60.4259 119.98V114.64C60.4259 114.16 60.3592 113.733 60.2259 113.36C60.0925 112.973 59.8592 112.667 59.5259 112.44C59.2059 112.2 58.7525 112.08 58.1659 112.08C57.6192 112.08 57.1392 112.2 56.7259 112.44C56.3125 112.667 55.9859 112.973 55.7459 113.36C55.5192 113.733 55.4059 114.16 55.4059 114.64V119.98C55.4059 120.273 55.3059 120.52 55.1059 120.72C54.9192 120.907 54.6859 121 54.4059 121C54.1125 121 53.8725 120.907 53.6859 120.72C53.4992 120.52 53.4059 120.273 53.4059 119.98V111.5C53.4059 111.207 53.4992 110.967 53.6859 110.78C53.8725 110.58 54.1125 110.48 54.4059 110.48C54.6859 110.48 54.9192 110.58 55.1059 110.78C55.3059 110.967 55.4059 111.207 55.4059 111.5V112.62L55.0459 112.82C55.1392 112.527 55.2992 112.233 55.5259 111.94C55.7659 111.633 56.0525 111.353 56.3859 111.1C56.7192 110.833 57.0925 110.627 57.5059 110.48C57.9192 110.32 58.3592 110.24 58.8259 110.24ZM69.4827 110.24C70.0561 110.24 70.5827 110.333 71.0627 110.52C71.5427 110.707 71.9561 110.947 72.3027 111.24C72.6627 111.52 72.9427 111.813 73.1427 112.12C73.3427 112.427 73.4427 112.693 73.4427 112.92L72.9827 112.94V111.34C72.9827 111.06 73.0761 110.82 73.2627 110.62C73.4494 110.42 73.6894 110.32 73.9827 110.32C74.2761 110.32 74.5161 110.42 74.7027 110.62C74.8894 110.807 74.9827 111.047 74.9827 111.34V120.16C74.9827 121.293 74.7427 122.213 74.2627 122.92C73.7827 123.64 73.1427 124.167 72.3427 124.5C71.5561 124.833 70.6894 125 69.7427 125C69.4094 125 69.0161 124.953 68.5627 124.86C68.1094 124.78 67.6894 124.68 67.3027 124.56C66.9294 124.44 66.6694 124.32 66.5227 124.2C66.2161 124.04 66.0094 123.853 65.9027 123.64C65.8094 123.427 65.8161 123.213 65.9227 123C66.0427 122.707 66.2161 122.527 66.4427 122.46C66.6694 122.393 66.9294 122.413 67.2227 122.52C67.3561 122.56 67.5627 122.633 67.8427 122.74C68.1227 122.847 68.4361 122.94 68.7827 123.02C69.1294 123.113 69.4561 123.16 69.7627 123.16C70.8294 123.16 71.6294 122.913 72.1627 122.42C72.7094 121.927 72.9827 121.253 72.9827 120.4V118.6L73.2227 118.74C73.1827 119.02 73.0561 119.307 72.8427 119.6C72.6294 119.88 72.3561 120.14 72.0227 120.38C71.6894 120.62 71.3094 120.82 70.8827 120.98C70.4561 121.127 70.0094 121.2 69.5427 121.2C68.6094 121.2 67.7627 120.967 67.0027 120.5C66.2561 120.02 65.6627 119.373 65.2227 118.56C64.7827 117.733 64.5627 116.787 64.5627 115.72C64.5627 114.653 64.7827 113.713 65.2227 112.9C65.6627 112.073 66.2494 111.427 66.9827 110.96C67.7294 110.48 68.5627 110.24 69.4827 110.24ZM69.7827 112.08C69.1427 112.08 68.5694 112.24 68.0627 112.56C67.5694 112.88 67.1827 113.313 66.9027 113.86C66.6361 114.407 66.5027 115.027 66.5027 115.72C66.5027 116.413 66.6361 117.033 66.9027 117.58C67.1827 118.127 67.5694 118.56 68.0627 118.88C68.5694 119.2 69.1427 119.36 69.7827 119.36C70.4361 119.36 71.0094 119.207 71.5027 118.9C71.9961 118.58 72.3827 118.147 72.6627 117.6C72.9427 117.04 73.0827 116.413 73.0827 115.72C73.0827 115.027 72.9427 114.407 72.6627 113.86C72.3827 113.3 71.9961 112.867 71.5027 112.56C71.0094 112.24 70.4361 112.08 69.7827 112.08ZM5.01141 146C4.69141 146 4.41141 145.907 4.17141 145.72C3.93141 145.52 3.81141 145.273 3.81141 144.98V133.02C3.81141 132.727 3.91141 132.487 4.11141 132.3C4.31141 132.1 4.55141 132 4.83141 132H10.4714C11.1914 132 11.8514 132.18 12.4514 132.54C13.0514 132.887 13.5314 133.373 13.8914 134C14.2647 134.613 14.4514 135.32 14.4514 136.12C14.4514 136.653 14.3447 137.167 14.1314 137.66C13.9181 138.14 13.6314 138.567 13.2714 138.94C12.9114 139.313 12.5047 139.593 12.0514 139.78L11.8314 139.4C12.2447 139.547 12.6047 139.76 12.9114 140.04C13.2181 140.307 13.4581 140.627 13.6314 141C13.8181 141.36 13.9181 141.773 13.9314 142.24C13.9714 142.653 14.0047 143 14.0314 143.28C14.0714 143.547 14.1247 143.767 14.1914 143.94C14.2581 144.113 14.3781 144.247 14.5514 144.34C14.7914 144.473 14.9381 144.673 14.9914 144.94C15.0581 145.207 15.0047 145.447 14.8314 145.66C14.7114 145.82 14.5581 145.927 14.3714 145.98C14.1981 146.02 14.0181 146.027 13.8314 146C13.6447 145.96 13.4847 145.907 13.3514 145.84C13.1381 145.707 12.9181 145.52 12.6914 145.28C12.4781 145.027 12.3047 144.68 12.1714 144.24C12.0381 143.8 11.9714 143.22 11.9714 142.5C11.9714 142.167 11.9181 141.88 11.8114 141.64C11.7047 141.4 11.5581 141.207 11.3714 141.06C11.1847 140.9 10.9647 140.787 10.7114 140.72C10.4581 140.64 10.1781 140.6 9.87141 140.6H5.63141L5.91141 140.2V144.98C5.91141 145.273 5.83141 145.52 5.67141 145.72C5.51141 145.907 5.29141 146 5.01141 146ZM5.65141 138.86H10.4314C10.7381 138.847 11.0314 138.727 11.3114 138.5C11.6047 138.26 11.8381 137.94 12.0114 137.54C12.1981 137.14 12.2914 136.687 12.2914 136.18C12.2914 135.54 12.0981 135.007 11.7114 134.58C11.3381 134.14 10.8914 133.92 10.3714 133.92H5.69141L5.91141 133.4V139.28L5.65141 138.86ZM21.907 146.2C20.8137 146.2 19.8537 145.973 19.027 145.52C18.2137 145.053 17.5804 144.42 17.127 143.62C16.687 142.807 16.467 141.88 16.467 140.84C16.467 139.667 16.7004 138.667 17.167 137.84C17.647 137 18.267 136.36 19.027 135.92C19.8004 135.467 20.6137 135.24 21.467 135.24C22.107 135.24 22.7204 135.373 23.307 135.64C23.907 135.893 24.4337 136.253 24.887 136.72C25.3404 137.173 25.7004 137.713 25.967 138.34C26.2337 138.953 26.3737 139.627 26.387 140.36C26.3737 140.627 26.267 140.847 26.067 141.02C25.867 141.193 25.6337 141.28 25.367 141.28H17.607L17.127 139.58H24.647L24.267 139.94V139.44C24.227 138.973 24.067 138.567 23.787 138.22C23.507 137.86 23.1604 137.587 22.747 137.4C22.347 137.2 21.9204 137.1 21.467 137.1C21.067 137.1 20.6804 137.167 20.307 137.3C19.9337 137.42 19.607 137.62 19.327 137.9C19.047 138.18 18.8204 138.553 18.647 139.02C18.4737 139.473 18.387 140.04 18.387 140.72C18.387 141.453 18.5404 142.093 18.847 142.64C19.1537 143.187 19.567 143.613 20.087 143.92C20.607 144.213 21.187 144.36 21.827 144.36C22.307 144.36 22.707 144.313 23.027 144.22C23.347 144.113 23.6137 143.987 23.827 143.84C24.0404 143.693 24.227 143.553 24.387 143.42C24.6004 143.3 24.8004 143.24 24.987 143.24C25.227 143.24 25.427 143.327 25.587 143.5C25.747 143.66 25.827 143.853 25.827 144.08C25.827 144.373 25.6804 144.64 25.387 144.88C25.027 145.227 24.527 145.533 23.887 145.8C23.2604 146.067 22.6004 146.2 21.907 146.2ZM37.0923 135.44C37.3723 135.44 37.6057 135.54 37.7923 135.74C37.9923 135.927 38.0923 136.167 38.0923 136.46V148.98C38.0923 149.273 37.9923 149.513 37.7923 149.7C37.6057 149.9 37.3723 150 37.0923 150C36.799 150 36.559 149.9 36.3723 149.7C36.1857 149.513 36.0923 149.273 36.0923 148.98V143.54L36.4923 143.56C36.4923 143.8 36.3923 144.073 36.1923 144.38C36.0057 144.673 35.7457 144.96 35.4123 145.24C35.079 145.52 34.6857 145.753 34.2323 145.94C33.779 146.113 33.2923 146.2 32.7723 146.2C31.8657 146.2 31.039 145.967 30.2923 145.5C29.559 145.02 28.979 144.373 28.5523 143.56C28.1257 142.733 27.9123 141.787 27.9123 140.72C27.9123 139.653 28.1257 138.713 28.5523 137.9C28.979 137.073 29.5523 136.427 30.2723 135.96C31.0057 135.48 31.819 135.24 32.7123 135.24C33.2723 135.24 33.7923 135.333 34.2723 135.52C34.7657 135.707 35.1923 135.947 35.5523 136.24C35.9123 136.533 36.1923 136.847 36.3923 137.18C36.6057 137.5 36.7123 137.807 36.7123 138.1L36.0923 138.16V136.46C36.0923 136.18 36.1857 135.94 36.3723 135.74C36.559 135.54 36.799 135.44 37.0923 135.44ZM33.0123 144.36C33.639 144.36 34.1857 144.2 34.6523 143.88C35.1323 143.56 35.5057 143.127 35.7723 142.58C36.039 142.033 36.1723 141.413 36.1723 140.72C36.1723 140.027 36.039 139.407 35.7723 138.86C35.5057 138.313 35.1323 137.88 34.6523 137.56C34.1857 137.24 33.639 137.08 33.0123 137.08C32.399 137.08 31.8523 137.24 31.3723 137.56C30.8923 137.88 30.519 138.313 30.2523 138.86C29.9857 139.407 29.8523 140.027 29.8523 140.72C29.8523 141.413 29.9857 142.033 30.2523 142.58C30.519 143.127 30.8923 143.56 31.3723 143.88C31.8523 144.2 32.399 144.36 33.0123 144.36ZM48.7166 135.48C48.9966 135.48 49.2299 135.58 49.4166 135.78C49.6166 135.967 49.7166 136.207 49.7166 136.5V141.76C49.7166 143.147 49.3299 144.233 48.5566 145.02C47.7832 145.793 46.6899 146.18 45.2766 146.18C43.8766 146.18 42.7899 145.793 42.0166 145.02C41.2566 144.233 40.8766 143.147 40.8766 141.76V136.5C40.8766 136.207 40.9699 135.967 41.1566 135.78C41.3432 135.58 41.5832 135.48 41.8766 135.48C42.1566 135.48 42.3899 135.58 42.5766 135.78C42.7766 135.967 42.8766 136.207 42.8766 136.5V141.76C42.8766 142.627 43.0766 143.273 43.4766 143.7C43.8899 144.127 44.4899 144.34 45.2766 144.34C46.0766 144.34 46.6832 144.127 47.0966 143.7C47.5099 143.273 47.7166 142.627 47.7166 141.76V136.5C47.7166 136.207 47.8099 135.967 47.9966 135.78C48.1832 135.58 48.4232 135.48 48.7166 135.48ZM57.2977 146.2C56.2043 146.2 55.2443 145.973 54.4177 145.52C53.6043 145.053 52.971 144.42 52.5177 143.62C52.0777 142.807 51.8577 141.88 51.8577 140.84C51.8577 139.667 52.091 138.667 52.5577 137.84C53.0377 137 53.6577 136.36 54.4177 135.92C55.191 135.467 56.0043 135.24 56.8577 135.24C57.4977 135.24 58.111 135.373 58.6977 135.64C59.2977 135.893 59.8243 136.253 60.2777 136.72C60.731 137.173 61.091 137.713 61.3577 138.34C61.6243 138.953 61.7643 139.627 61.7777 140.36C61.7643 140.627 61.6577 140.847 61.4577 141.02C61.2577 141.193 61.0243 141.28 60.7577 141.28H52.9977L52.5177 139.58H60.0377L59.6577 139.94V139.44C59.6177 138.973 59.4577 138.567 59.1777 138.22C58.8977 137.86 58.551 137.587 58.1377 137.4C57.7377 137.2 57.311 137.1 56.8577 137.1C56.4577 137.1 56.071 137.167 55.6977 137.3C55.3243 137.42 54.9977 137.62 54.7177 137.9C54.4377 138.18 54.211 138.553 54.0377 139.02C53.8643 139.473 53.7777 140.04 53.7777 140.72C53.7777 141.453 53.931 142.093 54.2377 142.64C54.5443 143.187 54.9577 143.613 55.4777 143.92C55.9977 144.213 56.5777 144.36 57.2177 144.36C57.6977 144.36 58.0977 144.313 58.4177 144.22C58.7377 144.113 59.0043 143.987 59.2177 143.84C59.431 143.693 59.6177 143.553 59.7777 143.42C59.991 143.3 60.191 143.24 60.3777 143.24C60.6177 143.24 60.8177 143.327 60.9777 143.5C61.1377 143.66 61.2177 143.853 61.2177 144.08C61.2177 144.373 61.071 144.64 60.7777 144.88C60.4177 145.227 59.9177 145.533 59.2777 145.8C58.651 146.067 57.991 146.2 57.2977 146.2ZM63.323 144.36C63.203 144.173 63.1496 143.96 63.163 143.72C63.1763 143.467 63.3163 143.253 63.583 143.08C63.7696 142.96 63.963 142.913 64.163 142.94C64.3763 142.953 64.5763 143.053 64.763 143.24C65.1363 143.653 65.5496 143.98 66.003 144.22C66.4696 144.46 67.0296 144.58 67.683 144.58C67.9496 144.567 68.223 144.527 68.503 144.46C68.783 144.38 69.023 144.247 69.223 144.06C69.423 143.86 69.523 143.573 69.523 143.2C69.523 142.867 69.4163 142.6 69.203 142.4C68.9896 142.2 68.7096 142.04 68.363 141.92C68.0163 141.787 67.643 141.667 67.243 141.56C66.8163 141.44 66.383 141.307 65.943 141.16C65.5163 141.013 65.1296 140.827 64.783 140.6C64.4363 140.36 64.1496 140.053 63.923 139.68C63.7096 139.307 63.603 138.847 63.603 138.3C63.603 137.673 63.7763 137.133 64.123 136.68C64.483 136.227 64.943 135.873 65.503 135.62C66.0763 135.367 66.6963 135.24 67.363 135.24C67.7496 135.24 68.1563 135.293 68.583 135.4C69.0096 135.493 69.423 135.647 69.823 135.86C70.223 136.073 70.5696 136.353 70.863 136.7C70.9963 136.873 71.0696 137.08 71.083 137.32C71.1096 137.56 71.003 137.773 70.763 137.96C70.603 138.093 70.4096 138.153 70.183 138.14C69.9563 138.127 69.7696 138.053 69.623 137.92C69.3696 137.6 69.043 137.353 68.643 137.18C68.243 136.993 67.7896 136.9 67.283 136.9C67.0296 136.9 66.763 136.94 66.483 137.02C66.2163 137.087 65.9896 137.213 65.803 137.4C65.6163 137.587 65.523 137.86 65.523 138.22C65.523 138.553 65.6296 138.82 65.843 139.02C66.0696 139.22 66.363 139.387 66.723 139.52C67.083 139.653 67.4763 139.773 67.903 139.88C68.3163 139.987 68.723 140.113 69.123 140.26C69.5363 140.407 69.903 140.6 70.223 140.84C70.5563 141.067 70.823 141.367 71.023 141.74C71.2363 142.1 71.343 142.56 71.343 143.12C71.343 143.773 71.1496 144.333 70.763 144.8C70.3896 145.253 69.9096 145.6 69.323 145.84C68.7496 146.08 68.143 146.2 67.503 146.2C66.743 146.2 65.983 146.067 65.223 145.8C64.4763 145.52 63.843 145.04 63.323 144.36ZM73.3538 135.6H78.0538C78.3204 135.6 78.5404 135.693 78.7138 135.88C78.9004 136.053 78.9938 136.273 78.9938 136.54C78.9938 136.793 78.9004 137.007 78.7138 137.18C78.5404 137.353 78.3204 137.44 78.0538 137.44H73.3538C73.0871 137.44 72.8604 137.353 72.6738 137.18C72.5004 136.993 72.4138 136.773 72.4138 136.52C72.4138 136.253 72.5004 136.033 72.6738 135.86C72.8604 135.687 73.0871 135.6 73.3538 135.6ZM75.4538 133C75.7471 133 75.9871 133.1 76.1738 133.3C76.3604 133.487 76.4538 133.727 76.4538 134.02V143.3C76.4538 143.54 76.4938 143.733 76.5738 143.88C76.6538 144.027 76.7604 144.127 76.8938 144.18C77.0404 144.233 77.1871 144.26 77.3338 144.26C77.4804 144.26 77.6071 144.233 77.7138 144.18C77.8338 144.127 77.9738 144.1 78.1338 144.1C78.2938 144.1 78.4404 144.173 78.5738 144.32C78.7071 144.467 78.7738 144.667 78.7738 144.92C78.7738 145.24 78.6004 145.5 78.2538 145.7C77.9071 145.9 77.5338 146 77.1338 146C76.9071 146 76.6404 145.98 76.3338 145.94C76.0271 145.9 75.7271 145.8 75.4338 145.64C75.1538 145.48 74.9204 145.227 74.7337 144.88C74.5471 144.52 74.4538 144.02 74.4538 143.38V134.02C74.4538 133.727 74.5471 133.487 74.7337 133.3C74.9337 133.1 75.1738 133 75.4538 133Z" fill="black"/>
<circle cx="568" cy="40" r="40" fill="#005E89"/>
<path d="M583.75 31.375L579.931 27.5292L562.083 45.3771L555.069 38.3896L551.25 42.2084L562.083 53.0417L583.75 31.375ZM586.458 15.125H575.137C574 11.9834 571.021 9.70837 567.5 9.70837C563.979 9.70837 561 11.9834 559.863 15.125H548.542C548.162 15.125 547.81 15.1521 547.458 15.2334C546.402 15.45 545.454 15.9917 544.723 16.723C544.235 17.2105 543.829 17.8063 543.558 18.4563C543.288 19.0792 543.125 19.7834 543.125 20.5417V58.4584C543.125 59.1896 543.288 59.9209 543.558 60.5709C543.829 61.2209 544.235 61.7896 544.723 62.3042C545.454 63.0355 546.402 63.5771 547.458 63.7938C547.81 63.848 548.162 63.875 548.542 63.875H586.458C589.437 63.875 591.875 61.4375 591.875 58.4584V20.5417C591.875 17.5625 589.437 15.125 586.458 15.125ZM567.5 14.448C568.61 14.448 569.531 15.3688 569.531 16.4792C569.531 17.5896 568.61 18.5105 567.5 18.5105C566.39 18.5105 565.469 17.5896 565.469 16.4792C565.469 15.3688 566.39 14.448 567.5 14.448ZM586.458 58.4584H548.542V20.5417H586.458V58.4584Z" fill="white"/>
<path d="M527.804 119.98C527.791 120.273 527.677 120.52 527.464 120.72C527.264 120.907 527.024 121 526.744 121C526.437 121 526.184 120.907 525.984 120.72C525.797 120.52 525.704 120.273 525.704 119.98V108.02C525.704 107.727 525.804 107.487 526.004 107.3C526.204 107.1 526.464 107 526.784 107C527.051 107 527.284 107.1 527.484 107.3C527.697 107.487 527.804 107.727 527.804 108.02V119.98ZM536.236 110.24C537.183 110.24 537.916 110.44 538.436 110.84C538.956 111.227 539.316 111.753 539.516 112.42C539.729 113.073 539.836 113.807 539.836 114.62V119.98C539.836 120.273 539.736 120.52 539.536 120.72C539.349 120.907 539.116 121 538.836 121C538.543 121 538.303 120.907 538.116 120.72C537.929 120.52 537.836 120.273 537.836 119.98V114.64C537.836 114.16 537.769 113.733 537.636 113.36C537.503 112.973 537.269 112.667 536.936 112.44C536.616 112.2 536.163 112.08 535.576 112.08C535.029 112.08 534.549 112.2 534.136 112.44C533.723 112.667 533.396 112.973 533.156 113.36C532.929 113.733 532.816 114.16 532.816 114.64V119.98C532.816 120.273 532.716 120.52 532.516 120.72C532.329 120.907 532.096 121 531.816 121C531.523 121 531.283 120.907 531.096 120.72C530.909 120.52 530.816 120.273 530.816 119.98V111.5C530.816 111.207 530.909 110.967 531.096 110.78C531.283 110.58 531.523 110.48 531.816 110.48C532.096 110.48 532.329 110.58 532.516 110.78C532.716 110.967 532.816 111.207 532.816 111.5V112.62L532.456 112.82C532.549 112.527 532.709 112.233 532.936 111.94C533.176 111.633 533.463 111.353 533.796 111.1C534.129 110.833 534.503 110.627 534.916 110.48C535.329 110.32 535.769 110.24 536.236 110.24ZM542.473 110.6H547.173C547.44 110.6 547.66 110.693 547.833 110.88C548.02 111.053 548.113 111.273 548.113 111.54C548.113 111.793 548.02 112.007 547.833 112.18C547.66 112.353 547.44 112.44 547.173 112.44H542.473C542.206 112.44 541.98 112.353 541.793 112.18C541.62 111.993 541.533 111.773 541.533 111.52C541.533 111.253 541.62 111.033 541.793 110.86C541.98 110.687 542.206 110.6 542.473 110.6ZM544.573 108C544.866 108 545.106 108.1 545.293 108.3C545.48 108.487 545.573 108.727 545.573 109.02V118.3C545.573 118.54 545.613 118.733 545.693 118.88C545.773 119.027 545.88 119.127 546.013 119.18C546.16 119.233 546.306 119.26 546.453 119.26C546.6 119.26 546.726 119.233 546.833 119.18C546.953 119.127 547.093 119.1 547.253 119.1C547.413 119.1 547.56 119.173 547.693 119.32C547.826 119.467 547.893 119.667 547.893 119.92C547.893 120.24 547.72 120.5 547.373 120.7C547.026 120.9 546.653 121 546.253 121C546.026 121 545.76 120.98 545.453 120.94C545.146 120.9 544.846 120.8 544.553 120.64C544.273 120.48 544.04 120.227 543.853 119.88C543.666 119.52 543.573 119.02 543.573 118.38V109.02C543.573 108.727 543.666 108.487 543.853 108.3C544.053 108.1 544.293 108 544.573 108ZM555.03 121.2C553.937 121.2 552.977 120.973 552.15 120.52C551.337 120.053 550.703 119.42 550.25 118.62C549.81 117.807 549.59 116.88 549.59 115.84C549.59 114.667 549.823 113.667 550.29 112.84C550.77 112 551.39 111.36 552.15 110.92C552.923 110.467 553.737 110.24 554.59 110.24C555.23 110.24 555.843 110.373 556.43 110.64C557.03 110.893 557.557 111.253 558.01 111.72C558.463 112.173 558.823 112.713 559.09 113.34C559.357 113.953 559.497 114.627 559.51 115.36C559.497 115.627 559.39 115.847 559.19 116.02C558.99 116.193 558.757 116.28 558.49 116.28H550.73L550.25 114.58H557.77L557.39 114.94V114.44C557.35 113.973 557.19 113.567 556.91 113.22C556.63 112.86 556.283 112.587 555.87 112.4C555.47 112.2 555.043 112.1 554.59 112.1C554.19 112.1 553.803 112.167 553.43 112.3C553.057 112.42 552.73 112.62 552.45 112.9C552.17 113.18 551.943 113.553 551.77 114.02C551.597 114.473 551.51 115.04 551.51 115.72C551.51 116.453 551.663 117.093 551.97 117.64C552.277 118.187 552.69 118.613 553.21 118.92C553.73 119.213 554.31 119.36 554.95 119.36C555.43 119.36 555.83 119.313 556.15 119.22C556.47 119.113 556.737 118.987 556.95 118.84C557.163 118.693 557.35 118.553 557.51 118.42C557.723 118.3 557.923 118.24 558.11 118.24C558.35 118.24 558.55 118.327 558.71 118.5C558.87 118.66 558.95 118.853 558.95 119.08C558.95 119.373 558.803 119.64 558.51 119.88C558.15 120.227 557.65 120.533 557.01 120.8C556.383 121.067 555.723 121.2 555.03 121.2ZM562.675 121C562.382 121 562.142 120.907 561.955 120.72C561.769 120.52 561.675 120.273 561.675 119.98V111.5C561.675 111.207 561.769 110.967 561.955 110.78C562.142 110.58 562.382 110.48 562.675 110.48C562.955 110.48 563.189 110.58 563.375 110.78C563.575 110.967 563.675 111.207 563.675 111.5V113.74L563.475 112.88C563.582 112.507 563.742 112.16 563.955 111.84C564.182 111.52 564.449 111.24 564.755 111C565.062 110.76 565.402 110.573 565.775 110.44C566.162 110.307 566.562 110.24 566.975 110.24C567.322 110.24 567.622 110.333 567.875 110.52C568.129 110.707 568.255 110.94 568.255 111.22C568.255 111.58 568.162 111.847 567.975 112.02C567.789 112.18 567.582 112.26 567.355 112.26C567.155 112.26 566.962 112.22 566.775 112.14C566.589 112.047 566.369 112 566.115 112C565.835 112 565.549 112.073 565.255 112.22C564.962 112.367 564.695 112.587 564.455 112.88C564.215 113.16 564.022 113.493 563.875 113.88C563.742 114.267 563.675 114.7 563.675 115.18V119.98C563.675 120.273 563.575 120.52 563.375 120.72C563.189 120.907 562.955 121 562.675 121ZM571.271 110.38C571.471 110.38 571.658 110.433 571.831 110.54C572.018 110.647 572.151 110.807 572.231 111.02L575.371 118.28L574.991 118.46L578.171 111.04C578.358 110.6 578.658 110.387 579.071 110.4C579.338 110.4 579.558 110.487 579.731 110.66C579.918 110.82 580.011 111.033 580.011 111.3C580.011 111.38 579.998 111.467 579.971 111.56C579.944 111.64 579.911 111.72 579.871 111.8L576.071 120.36C575.898 120.76 575.611 120.973 575.211 121C575.011 121.027 574.811 120.987 574.611 120.88C574.424 120.76 574.278 120.587 574.171 120.36L570.391 111.8C570.364 111.747 570.338 111.68 570.311 111.6C570.284 111.507 570.271 111.4 570.271 111.28C570.271 111.08 570.358 110.88 570.531 110.68C570.718 110.48 570.964 110.38 571.271 110.38ZM583.926 119.98C583.926 120.273 583.833 120.52 583.646 120.72C583.46 120.907 583.22 121 582.926 121C582.646 121 582.406 120.907 582.206 120.72C582.02 120.52 581.926 120.273 581.926 119.98V111.42C581.926 111.127 582.02 110.887 582.206 110.7C582.406 110.5 582.646 110.4 582.926 110.4C583.22 110.4 583.46 110.5 583.646 110.7C583.833 110.887 583.926 111.127 583.926 111.42V119.98ZM582.906 109.08C582.52 109.08 582.24 109.013 582.066 108.88C581.893 108.733 581.806 108.493 581.806 108.16V107.84C581.806 107.507 581.9 107.273 582.086 107.14C582.273 107.007 582.553 106.94 582.926 106.94C583.326 106.94 583.613 107.013 583.786 107.16C583.96 107.293 584.046 107.52 584.046 107.84V108.16C584.046 108.507 583.953 108.747 583.766 108.88C583.593 109.013 583.306 109.08 582.906 109.08ZM591.417 121.2C590.323 121.2 589.363 120.973 588.537 120.52C587.723 120.053 587.09 119.42 586.637 118.62C586.197 117.807 585.977 116.88 585.977 115.84C585.977 114.667 586.21 113.667 586.677 112.84C587.157 112 587.777 111.36 588.537 110.92C589.31 110.467 590.123 110.24 590.977 110.24C591.617 110.24 592.23 110.373 592.817 110.64C593.417 110.893 593.943 111.253 594.397 111.72C594.85 112.173 595.21 112.713 595.477 113.34C595.743 113.953 595.883 114.627 595.897 115.36C595.883 115.627 595.777 115.847 595.577 116.02C595.377 116.193 595.143 116.28 594.877 116.28H587.117L586.637 114.58H594.157L593.777 114.94V114.44C593.737 113.973 593.577 113.567 593.297 113.22C593.017 112.86 592.67 112.587 592.257 112.4C591.857 112.2 591.43 112.1 590.977 112.1C590.577 112.1 590.19 112.167 589.817 112.3C589.443 112.42 589.117 112.62 588.837 112.9C588.557 113.18 588.33 113.553 588.157 114.02C587.983 114.473 587.897 115.04 587.897 115.72C587.897 116.453 588.05 117.093 588.357 117.64C588.663 118.187 589.077 118.613 589.597 118.92C590.117 119.213 590.697 119.36 591.337 119.36C591.817 119.36 592.217 119.313 592.537 119.22C592.857 119.113 593.123 118.987 593.337 118.84C593.55 118.693 593.737 118.553 593.897 118.42C594.11 118.3 594.31 118.24 594.497 118.24C594.737 118.24 594.937 118.327 595.097 118.5C595.257 118.66 595.337 118.853 595.337 119.08C595.337 119.373 595.19 119.64 594.897 119.88C594.537 120.227 594.037 120.533 593.397 120.8C592.77 121.067 592.11 121.2 591.417 121.2ZM610.322 110.38C610.575 110.38 610.795 110.48 610.982 110.68C611.182 110.867 611.282 111.113 611.282 111.42C611.282 111.487 611.275 111.553 611.262 111.62C611.249 111.687 611.229 111.747 611.202 111.8L608.142 120.36C608.062 120.587 607.922 120.76 607.722 120.88C607.522 120.987 607.315 121.027 607.102 121C606.715 120.973 606.429 120.76 606.242 120.36L603.982 114.36L604.442 114.4L602.362 120.36C602.175 120.76 601.889 120.973 601.502 121C601.302 121.027 601.095 120.987 600.882 120.88C600.682 120.76 600.542 120.587 600.462 120.36L597.382 111.8C597.329 111.68 597.302 111.553 597.302 111.42C597.302 111.14 597.389 110.9 597.562 110.7C597.749 110.487 597.995 110.38 598.302 110.38C598.515 110.38 598.702 110.433 598.862 110.54C599.035 110.647 599.155 110.807 599.222 111.02L601.782 118.24L601.322 118.2L603.402 112.74C603.575 112.327 603.882 112.12 604.322 112.12C604.562 112.12 604.749 112.173 604.882 112.28C605.015 112.387 605.122 112.54 605.202 112.74L607.322 118.22L606.782 118.28L609.362 111.02C609.495 110.593 609.815 110.38 610.322 110.38ZM520.85 144.36C520.73 144.173 520.677 143.96 520.69 143.72C520.704 143.467 520.844 143.253 521.11 143.08C521.297 142.96 521.49 142.913 521.69 142.94C521.904 142.953 522.104 143.053 522.29 143.24C522.664 143.653 523.077 143.98 523.53 144.22C523.997 144.46 524.557 144.58 525.21 144.58C525.477 144.567 525.75 144.527 526.03 144.46C526.31 144.38 526.55 144.247 526.75 144.06C526.95 143.86 527.05 143.573 527.05 143.2C527.05 142.867 526.944 142.6 526.73 142.4C526.517 142.2 526.237 142.04 525.89 141.92C525.544 141.787 525.17 141.667 524.77 141.56C524.344 141.44 523.91 141.307 523.47 141.16C523.044 141.013 522.657 140.827 522.31 140.6C521.964 140.36 521.677 140.053 521.45 139.68C521.237 139.307 521.13 138.847 521.13 138.3C521.13 137.673 521.304 137.133 521.65 136.68C522.01 136.227 522.47 135.873 523.03 135.62C523.604 135.367 524.224 135.24 524.89 135.24C525.277 135.24 525.684 135.293 526.11 135.4C526.537 135.493 526.95 135.647 527.35 135.86C527.75 136.073 528.097 136.353 528.39 136.7C528.524 136.873 528.597 137.08 528.61 137.32C528.637 137.56 528.53 137.773 528.29 137.96C528.13 138.093 527.937 138.153 527.71 138.14C527.484 138.127 527.297 138.053 527.15 137.92C526.897 137.6 526.57 137.353 526.17 137.18C525.77 136.993 525.317 136.9 524.81 136.9C524.557 136.9 524.29 136.94 524.01 137.02C523.744 137.087 523.517 137.213 523.33 137.4C523.144 137.587 523.05 137.86 523.05 138.22C523.05 138.553 523.157 138.82 523.37 139.02C523.597 139.22 523.89 139.387 524.25 139.52C524.61 139.653 525.004 139.773 525.43 139.88C525.844 139.987 526.25 140.113 526.65 140.26C527.064 140.407 527.43 140.6 527.75 140.84C528.084 141.067 528.35 141.367 528.55 141.74C528.764 142.1 528.87 142.56 528.87 143.12C528.87 143.773 528.677 144.333 528.29 144.8C527.917 145.253 527.437 145.6 526.85 145.84C526.277 146.08 525.67 146.2 525.03 146.2C524.27 146.2 523.51 146.067 522.75 145.8C522.004 145.52 521.37 145.04 520.85 144.36ZM535.601 135.24C536.321 135.24 536.954 135.32 537.501 135.48C538.061 135.627 538.501 135.84 538.821 136.12C539.141 136.387 539.301 136.7 539.301 137.06C539.301 137.287 539.228 137.5 539.081 137.7C538.948 137.887 538.754 137.98 538.501 137.98C538.301 137.98 538.134 137.947 538.001 137.88C537.881 137.813 537.768 137.733 537.661 137.64C537.554 137.547 537.421 137.453 537.261 137.36C537.114 137.28 536.894 137.213 536.601 137.16C536.321 137.107 536.068 137.08 535.841 137.08C535.134 137.08 534.521 137.24 534.001 137.56C533.494 137.88 533.094 138.313 532.801 138.86C532.521 139.407 532.381 140.027 532.381 140.72C532.381 141.413 532.521 142.033 532.801 142.58C533.094 143.127 533.488 143.56 533.981 143.88C534.488 144.2 535.074 144.36 535.741 144.36C536.141 144.36 536.468 144.333 536.721 144.28C536.988 144.213 537.208 144.133 537.381 144.04C537.594 143.92 537.768 143.8 537.901 143.68C538.034 143.547 538.228 143.48 538.481 143.48C538.774 143.48 538.994 143.573 539.141 143.76C539.301 143.933 539.381 144.153 539.381 144.42C539.381 144.713 539.201 145 538.841 145.28C538.494 145.547 538.028 145.767 537.441 145.94C536.854 146.113 536.208 146.2 535.501 146.2C534.461 146.2 533.554 145.96 532.781 145.48C532.021 145 531.428 144.347 531.001 143.52C530.588 142.693 530.381 141.76 530.381 140.72C530.381 139.667 530.601 138.733 531.041 137.92C531.481 137.093 532.094 136.44 532.881 135.96C533.668 135.48 534.574 135.24 535.601 135.24ZM546.614 135.3C547.534 135.3 548.247 135.5 548.754 135.9C549.261 136.287 549.614 136.813 549.814 137.48C550.027 138.147 550.134 138.88 550.134 139.68V144.98C550.134 145.273 550.034 145.52 549.834 145.72C549.647 145.907 549.414 146 549.134 146C548.841 146 548.601 145.907 548.414 145.72C548.227 145.52 548.134 145.273 548.134 144.98V139.68C548.134 139.213 548.067 138.787 547.934 138.4C547.814 138.013 547.594 137.707 547.274 137.48C546.967 137.253 546.534 137.14 545.974 137.14C545.454 137.14 544.987 137.253 544.574 137.48C544.174 137.707 543.861 138.013 543.634 138.4C543.421 138.787 543.314 139.213 543.314 139.68V144.98C543.314 145.273 543.214 145.52 543.014 145.72C542.827 145.907 542.594 146 542.314 146C542.021 146 541.781 145.907 541.594 145.72C541.407 145.52 541.314 145.273 541.314 144.98V132.22C541.314 131.927 541.407 131.687 541.594 131.5C541.781 131.3 542.021 131.2 542.314 131.2C542.594 131.2 542.827 131.3 543.014 131.5C543.214 131.687 543.314 131.927 543.314 132.22V137.68L542.954 137.88C543.047 137.587 543.201 137.287 543.414 136.98C543.641 136.673 543.914 136.393 544.234 136.14C544.567 135.887 544.934 135.687 545.334 135.54C545.734 135.38 546.161 135.3 546.614 135.3ZM557.716 146.2C556.622 146.2 555.662 145.973 554.836 145.52C554.022 145.053 553.389 144.42 552.936 143.62C552.496 142.807 552.276 141.88 552.276 140.84C552.276 139.667 552.509 138.667 552.976 137.84C553.456 137 554.076 136.36 554.836 135.92C555.609 135.467 556.422 135.24 557.276 135.24C557.916 135.24 558.529 135.373 559.116 135.64C559.716 135.893 560.242 136.253 560.696 136.72C561.149 137.173 561.509 137.713 561.776 138.34C562.042 138.953 562.182 139.627 562.196 140.36C562.182 140.627 562.076 140.847 561.876 141.02C561.676 141.193 561.442 141.28 561.176 141.28H553.416L552.936 139.58H560.456L560.076 139.94V139.44C560.036 138.973 559.876 138.567 559.596 138.22C559.316 137.86 558.969 137.587 558.556 137.4C558.156 137.2 557.729 137.1 557.276 137.1C556.876 137.1 556.489 137.167 556.116 137.3C555.742 137.42 555.416 137.62 555.136 137.9C554.856 138.18 554.629 138.553 554.456 139.02C554.282 139.473 554.196 140.04 554.196 140.72C554.196 141.453 554.349 142.093 554.656 142.64C554.962 143.187 555.376 143.613 555.896 143.92C556.416 144.213 556.996 144.36 557.636 144.36C558.116 144.36 558.516 144.313 558.836 144.22C559.156 144.113 559.422 143.987 559.636 143.84C559.849 143.693 560.036 143.553 560.196 143.42C560.409 143.3 560.609 143.24 560.796 143.24C561.036 143.24 561.236 143.327 561.396 143.5C561.556 143.66 561.636 143.853 561.636 144.08C561.636 144.373 561.489 144.64 561.196 144.88C560.836 145.227 560.336 145.533 559.696 145.8C559.069 146.067 558.409 146.2 557.716 146.2ZM572.901 131.2C573.181 131.2 573.414 131.293 573.601 131.48C573.801 131.667 573.901 131.913 573.901 132.22V144.98C573.901 145.273 573.801 145.52 573.601 145.72C573.414 145.907 573.181 146 572.901 146C572.608 146 572.368 145.907 572.181 145.72C571.994 145.52 571.901 145.273 571.901 144.98V143.54L572.301 143.56C572.301 143.8 572.201 144.073 572.001 144.38C571.814 144.673 571.554 144.96 571.221 145.24C570.888 145.52 570.494 145.753 570.041 145.94C569.588 146.113 569.101 146.2 568.581 146.2C567.674 146.2 566.848 145.967 566.101 145.5C565.368 145.02 564.788 144.373 564.361 143.56C563.934 142.733 563.721 141.787 563.721 140.72C563.721 139.653 563.934 138.713 564.361 137.9C564.788 137.073 565.361 136.427 566.081 135.96C566.814 135.48 567.628 135.24 568.521 135.24C569.081 135.24 569.601 135.333 570.081 135.52C570.574 135.707 571.001 135.947 571.361 136.24C571.721 136.533 572.001 136.847 572.201 137.18C572.414 137.5 572.521 137.807 572.521 138.1L571.901 138.16V132.22C571.901 131.927 571.994 131.687 572.181 131.5C572.368 131.3 572.608 131.2 572.901 131.2ZM568.821 144.36C569.448 144.36 569.994 144.2 570.461 143.88C570.941 143.56 571.314 143.127 571.581 142.58C571.848 142.033 571.981 141.413 571.981 140.72C571.981 140.027 571.848 139.407 571.581 138.86C571.314 138.313 570.941 137.88 570.461 137.56C569.994 137.24 569.448 137.08 568.821 137.08C568.208 137.08 567.661 137.24 567.181 137.56C566.701 137.88 566.328 138.313 566.061 138.86C565.794 139.407 565.661 140.027 565.661 140.72C565.661 141.413 565.794 142.033 566.061 142.58C566.328 143.127 566.701 143.56 567.181 143.88C567.661 144.2 568.208 144.36 568.821 144.36ZM584.838 135.48C585.118 135.48 585.351 135.58 585.538 135.78C585.738 135.967 585.838 136.207 585.838 136.5V141.76C585.838 143.147 585.451 144.233 584.678 145.02C583.904 145.793 582.811 146.18 581.398 146.18C579.998 146.18 578.911 145.793 578.138 145.02C577.378 144.233 576.998 143.147 576.998 141.76V136.5C576.998 136.207 577.091 135.967 577.278 135.78C577.464 135.58 577.704 135.48 577.998 135.48C578.278 135.48 578.511 135.58 578.698 135.78C578.898 135.967 578.998 136.207 578.998 136.5V141.76C578.998 142.627 579.198 143.273 579.598 143.7C580.011 144.127 580.611 144.34 581.398 144.34C582.198 144.34 582.804 144.127 583.218 143.7C583.631 143.273 583.838 142.627 583.838 141.76V136.5C583.838 136.207 583.931 135.967 584.118 135.78C584.304 135.58 584.544 135.48 584.838 135.48ZM590.779 144.98C590.779 145.273 590.679 145.52 590.479 145.72C590.292 145.907 590.059 146 589.779 146C589.499 146 589.259 145.907 589.059 145.72C588.872 145.52 588.779 145.273 588.779 144.98V132.22C588.779 131.927 588.879 131.687 589.079 131.5C589.279 131.3 589.519 131.2 589.799 131.2C590.092 131.2 590.325 131.3 590.499 131.5C590.685 131.687 590.779 131.927 590.779 132.22V144.98ZM598.36 146.2C597.267 146.2 596.307 145.973 595.48 145.52C594.667 145.053 594.033 144.42 593.58 143.62C593.14 142.807 592.92 141.88 592.92 140.84C592.92 139.667 593.153 138.667 593.62 137.84C594.1 137 594.72 136.36 595.48 135.92C596.253 135.467 597.067 135.24 597.92 135.24C598.56 135.24 599.173 135.373 599.76 135.64C600.36 135.893 600.887 136.253 601.34 136.72C601.793 137.173 602.153 137.713 602.42 138.34C602.687 138.953 602.827 139.627 602.84 140.36C602.827 140.627 602.72 140.847 602.52 141.02C602.32 141.193 602.087 141.28 601.82 141.28H594.06L593.58 139.58H601.1L600.72 139.94V139.44C600.68 138.973 600.52 138.567 600.24 138.22C599.96 137.86 599.613 137.587 599.2 137.4C598.8 137.2 598.373 137.1 597.92 137.1C597.52 137.1 597.133 137.167 596.76 137.3C596.387 137.42 596.06 137.62 595.78 137.9C595.5 138.18 595.273 138.553 595.1 139.02C594.927 139.473 594.84 140.04 594.84 140.72C594.84 141.453 594.993 142.093 595.3 142.64C595.607 143.187 596.02 143.613 596.54 143.92C597.06 144.213 597.64 144.36 598.28 144.36C598.76 144.36 599.16 144.313 599.48 144.22C599.8 144.113 600.067 143.987 600.28 143.84C600.493 143.693 600.68 143.553 600.84 143.42C601.053 143.3 601.253 143.24 601.44 143.24C601.68 143.24 601.88 143.327 602.04 143.5C602.2 143.66 602.28 143.853 602.28 144.08C602.28 144.373 602.133 144.64 601.84 144.88C601.48 145.227 600.98 145.533 600.34 145.8C599.713 146.067 599.053 146.2 598.36 146.2ZM613.545 131.2C613.825 131.2 614.059 131.293 614.245 131.48C614.445 131.667 614.545 131.913 614.545 132.22V144.98C614.545 145.273 614.445 145.52 614.245 145.72C614.059 145.907 613.825 146 613.545 146C613.252 146 613.012 145.907 612.825 145.72C612.639 145.52 612.545 145.273 612.545 144.98V143.54L612.945 143.56C612.945 143.8 612.845 144.073 612.645 144.38C612.459 144.673 612.199 144.96 611.865 145.24C611.532 145.52 611.139 145.753 610.685 145.94C610.232 146.113 609.745 146.2 609.225 146.2C608.319 146.2 607.492 145.967 606.745 145.5C606.012 145.02 605.432 144.373 605.005 143.56C604.579 142.733 604.365 141.787 604.365 140.72C604.365 139.653 604.579 138.713 605.005 137.9C605.432 137.073 606.005 136.427 606.725 135.96C607.459 135.48 608.272 135.24 609.165 135.24C609.725 135.24 610.245 135.333 610.725 135.52C611.219 135.707 611.645 135.947 612.005 136.24C612.365 136.533 612.645 136.847 612.845 137.18C613.059 137.5 613.165 137.807 613.165 138.1L612.545 138.16V132.22C612.545 131.927 612.639 131.687 612.825 131.5C613.012 131.3 613.252 131.2 613.545 131.2ZM609.465 144.36C610.092 144.36 610.639 144.2 611.105 143.88C611.585 143.56 611.959 143.127 612.225 142.58C612.492 142.033 612.625 141.413 612.625 140.72C612.625 140.027 612.492 139.407 612.225 138.86C611.959 138.313 611.585 137.88 611.105 137.56C610.639 137.24 610.092 137.08 609.465 137.08C608.852 137.08 608.305 137.24 607.825 137.56C607.345 137.88 606.972 138.313 606.705 138.86C606.439 139.407 606.305 140.027 606.305 140.72C606.305 141.413 606.439 142.033 606.705 142.58C606.972 143.127 607.345 143.56 607.825 143.88C608.305 144.2 608.852 144.36 609.465 144.36Z" fill="black"/>
<circle cx="1093" cy="40" r="40" fill="#585858"/>
<path d="M1092.5 12.4166C1077.55 12.4166 1065.42 24.55 1065.42 39.5C1065.42 54.45 1077.55 66.5833 1092.5 66.5833C1107.45 66.5833 1119.58 54.45 1119.58 39.5C1119.58 24.55 1107.45 12.4166 1092.5 12.4166ZM1092.5 61.1666C1080.56 61.1666 1070.83 51.4437 1070.83 39.5C1070.83 27.5562 1080.56 17.8333 1092.5 17.8333C1104.44 17.8333 1114.17 27.5562 1114.17 39.5C1114.17 51.4437 1104.44 61.1666 1092.5 61.1666ZM1104.93 27.5291L1087.08 45.377L1080.07 38.3895L1076.25 42.2083L1087.08 53.0416L1108.75 31.375L1104.93 27.5291Z" fill="white"/>
<path d="M1070.28 107C1070.99 107 1071.64 107.193 1072.24 107.58C1072.84 107.953 1073.32 108.467 1073.68 109.12C1074.04 109.773 1074.22 110.507 1074.22 111.32C1074.22 112.133 1074.04 112.873 1073.68 113.54C1073.32 114.193 1072.84 114.72 1072.24 115.12C1071.64 115.507 1070.99 115.7 1070.28 115.7H1066.42L1066.58 115.38V119.98C1066.58 120.273 1066.49 120.52 1066.3 120.72C1066.13 120.907 1065.89 121 1065.6 121C1065.32 121 1065.09 120.907 1064.9 120.72C1064.73 120.52 1064.64 120.273 1064.64 119.98V108.02C1064.64 107.727 1064.74 107.487 1064.94 107.3C1065.14 107.1 1065.38 107 1065.66 107H1070.28ZM1070.28 113.78C1070.63 113.78 1070.94 113.667 1071.22 113.44C1071.51 113.213 1071.75 112.913 1071.92 112.54C1072.11 112.167 1072.2 111.76 1072.2 111.32C1072.2 110.88 1072.11 110.48 1071.92 110.12C1071.75 109.76 1071.51 109.473 1071.22 109.26C1070.94 109.033 1070.63 108.92 1070.28 108.92H1066.38L1066.58 108.62V114.04L1066.4 113.78H1070.28ZM1077.43 121C1077.14 121 1076.9 120.907 1076.71 120.72C1076.53 120.52 1076.43 120.273 1076.43 119.98V111.5C1076.43 111.207 1076.53 110.967 1076.71 110.78C1076.9 110.58 1077.14 110.48 1077.43 110.48C1077.71 110.48 1077.95 110.58 1078.13 110.78C1078.33 110.967 1078.43 111.207 1078.43 111.5V113.74L1078.23 112.88C1078.34 112.507 1078.5 112.16 1078.71 111.84C1078.94 111.52 1079.21 111.24 1079.51 111C1079.82 110.76 1080.16 110.573 1080.53 110.44C1080.92 110.307 1081.32 110.24 1081.73 110.24C1082.08 110.24 1082.38 110.333 1082.63 110.52C1082.89 110.707 1083.01 110.94 1083.01 111.22C1083.01 111.58 1082.92 111.847 1082.73 112.02C1082.55 112.18 1082.34 112.26 1082.11 112.26C1081.91 112.26 1081.72 112.22 1081.53 112.14C1081.35 112.047 1081.13 112 1080.87 112C1080.59 112 1080.31 112.073 1080.01 112.22C1079.72 112.367 1079.45 112.587 1079.21 112.88C1078.97 113.16 1078.78 113.493 1078.63 113.88C1078.5 114.267 1078.43 114.7 1078.43 115.18V119.98C1078.43 120.273 1078.33 120.52 1078.13 120.72C1077.95 120.907 1077.71 121 1077.43 121ZM1094.34 115.74C1094.34 116.807 1094.1 117.753 1093.62 118.58C1093.16 119.393 1092.52 120.033 1091.72 120.5C1090.92 120.967 1090.02 121.2 1089.02 121.2C1088.04 121.2 1087.14 120.967 1086.32 120.5C1085.52 120.033 1084.88 119.393 1084.4 118.58C1083.94 117.753 1083.7 116.807 1083.7 115.74C1083.7 114.66 1083.94 113.713 1084.4 112.9C1084.88 112.073 1085.52 111.427 1086.32 110.96C1087.14 110.48 1088.04 110.24 1089.02 110.24C1090.02 110.24 1090.92 110.48 1091.72 110.96C1092.52 111.427 1093.16 112.073 1093.62 112.9C1094.1 113.713 1094.34 114.66 1094.34 115.74ZM1092.34 115.74C1092.34 115.007 1092.2 114.373 1091.9 113.84C1091.61 113.293 1091.21 112.867 1090.7 112.56C1090.21 112.24 1089.65 112.08 1089.02 112.08C1088.41 112.08 1087.85 112.24 1087.34 112.56C1086.85 112.867 1086.45 113.293 1086.14 113.84C1085.85 114.373 1085.7 115.007 1085.7 115.74C1085.7 116.447 1085.85 117.073 1086.14 117.62C1086.45 118.167 1086.85 118.593 1087.34 118.9C1087.85 119.207 1088.41 119.36 1089.02 119.36C1089.65 119.36 1090.21 119.207 1090.7 118.9C1091.21 118.593 1091.61 118.167 1091.9 117.62C1092.2 117.073 1092.34 116.447 1092.34 115.74ZM1101.41 106.22C1101.66 106.22 1101.92 106.253 1102.19 106.32C1102.46 106.387 1102.68 106.5 1102.85 106.66C1103.04 106.807 1103.13 107.013 1103.13 107.28C1103.13 107.547 1103.05 107.767 1102.89 107.94C1102.73 108.1 1102.54 108.18 1102.33 108.18C1102.2 108.18 1102.02 108.153 1101.79 108.1C1101.56 108.033 1101.34 108 1101.11 108C1100.8 108 1100.56 108.073 1100.37 108.22C1100.18 108.353 1100.05 108.527 1099.97 108.74C1099.89 108.94 1099.85 109.14 1099.85 109.34V119.98C1099.85 120.273 1099.75 120.52 1099.55 120.72C1099.36 120.907 1099.13 121 1098.85 121C1098.56 121 1098.32 120.907 1098.13 120.72C1097.94 120.52 1097.85 120.273 1097.85 119.98V109.36C1097.85 108.44 1098.15 107.687 1098.75 107.1C1099.36 106.513 1100.25 106.22 1101.41 106.22ZM1101.81 110.66C1102.08 110.66 1102.3 110.747 1102.47 110.92C1102.64 111.093 1102.73 111.313 1102.73 111.58C1102.73 111.847 1102.64 112.067 1102.47 112.24C1102.3 112.413 1102.08 112.5 1101.81 112.5H1096.63C1096.38 112.5 1096.16 112.413 1095.97 112.24C1095.8 112.067 1095.71 111.847 1095.71 111.58C1095.71 111.313 1095.8 111.093 1095.97 110.92C1096.16 110.747 1096.38 110.66 1096.63 110.66H1101.81ZM1106.31 119.98C1106.31 120.273 1106.22 120.52 1106.03 120.72C1105.84 120.907 1105.6 121 1105.31 121C1105.03 121 1104.79 120.907 1104.59 120.72C1104.4 120.52 1104.31 120.273 1104.31 119.98V111.42C1104.31 111.127 1104.4 110.887 1104.59 110.7C1104.79 110.5 1105.03 110.4 1105.31 110.4C1105.6 110.4 1105.84 110.5 1106.03 110.7C1106.22 110.887 1106.31 111.127 1106.31 111.42V119.98ZM1105.29 109.08C1104.9 109.08 1104.62 109.013 1104.45 108.88C1104.28 108.733 1104.19 108.493 1104.19 108.16V107.84C1104.19 107.507 1104.28 107.273 1104.47 107.14C1104.66 107.007 1104.94 106.94 1105.31 106.94C1105.71 106.94 1106 107.013 1106.17 107.16C1106.34 107.293 1106.43 107.52 1106.43 107.84V108.16C1106.43 108.507 1106.34 108.747 1106.15 108.88C1105.98 109.013 1105.69 109.08 1105.29 109.08ZM1111.15 119.98C1111.15 120.273 1111.05 120.52 1110.85 120.72C1110.67 120.907 1110.43 121 1110.15 121C1109.87 121 1109.63 120.907 1109.43 120.72C1109.25 120.52 1109.15 120.273 1109.15 119.98V107.22C1109.15 106.927 1109.25 106.687 1109.45 106.5C1109.65 106.3 1109.89 106.2 1110.17 106.2C1110.47 106.2 1110.7 106.3 1110.87 106.5C1111.06 106.687 1111.15 106.927 1111.15 107.22V119.98ZM1118.73 121.2C1117.64 121.2 1116.68 120.973 1115.85 120.52C1115.04 120.053 1114.41 119.42 1113.95 118.62C1113.51 117.807 1113.29 116.88 1113.29 115.84C1113.29 114.667 1113.53 113.667 1113.99 112.84C1114.47 112 1115.09 111.36 1115.85 110.92C1116.63 110.467 1117.44 110.24 1118.29 110.24C1118.93 110.24 1119.55 110.373 1120.13 110.64C1120.73 110.893 1121.26 111.253 1121.71 111.72C1122.17 112.173 1122.53 112.713 1122.79 113.34C1123.06 113.953 1123.2 114.627 1123.21 115.36C1123.2 115.627 1123.09 115.847 1122.89 116.02C1122.69 116.193 1122.46 116.28 1122.19 116.28H1114.43L1113.95 114.58H1121.47L1121.09 114.94V114.44C1121.05 113.973 1120.89 113.567 1120.61 113.22C1120.33 112.86 1119.99 112.587 1119.57 112.4C1119.17 112.2 1118.75 112.1 1118.29 112.1C1117.89 112.1 1117.51 112.167 1117.13 112.3C1116.76 112.42 1116.43 112.62 1116.15 112.9C1115.87 113.18 1115.65 113.553 1115.47 114.02C1115.3 114.473 1115.21 115.04 1115.21 115.72C1115.21 116.453 1115.37 117.093 1115.67 117.64C1115.98 118.187 1116.39 118.613 1116.91 118.92C1117.43 119.213 1118.01 119.36 1118.65 119.36C1119.13 119.36 1119.53 119.313 1119.85 119.22C1120.17 119.113 1120.44 118.987 1120.65 118.84C1120.87 118.693 1121.05 118.553 1121.21 118.42C1121.43 118.3 1121.63 118.24 1121.81 118.24C1122.05 118.24 1122.25 118.327 1122.41 118.5C1122.57 118.66 1122.65 118.853 1122.65 119.08C1122.65 119.373 1122.51 119.64 1122.21 119.88C1121.85 120.227 1121.35 120.533 1120.71 120.8C1120.09 121.067 1119.43 121.2 1118.73 121.2ZM1069.84 146.2C1068.74 146.2 1067.78 145.973 1066.96 145.52C1066.14 145.053 1065.51 144.42 1065.06 143.62C1064.62 142.807 1064.4 141.88 1064.4 140.84C1064.4 139.667 1064.63 138.667 1065.1 137.84C1065.58 137 1066.2 136.36 1066.96 135.92C1067.73 135.467 1068.54 135.24 1069.4 135.24C1070.04 135.24 1070.65 135.373 1071.24 135.64C1071.84 135.893 1072.36 136.253 1072.82 136.72C1073.27 137.173 1073.63 137.713 1073.9 138.34C1074.16 138.953 1074.3 139.627 1074.32 140.36C1074.3 140.627 1074.2 140.847 1074 141.02C1073.8 141.193 1073.56 141.28 1073.3 141.28H1065.54L1065.06 139.58H1072.58L1072.2 139.94V139.44C1072.16 138.973 1072 138.567 1071.72 138.22C1071.44 137.86 1071.09 137.587 1070.68 137.4C1070.28 137.2 1069.85 137.1 1069.4 137.1C1069 137.1 1068.61 137.167 1068.24 137.3C1067.86 137.42 1067.54 137.62 1067.26 137.9C1066.98 138.18 1066.75 138.553 1066.58 139.02C1066.4 139.473 1066.32 140.04 1066.32 140.72C1066.32 141.453 1066.47 142.093 1066.78 142.64C1067.08 143.187 1067.5 143.613 1068.02 143.92C1068.54 144.213 1069.12 144.36 1069.76 144.36C1070.24 144.36 1070.64 144.313 1070.96 144.22C1071.28 144.113 1071.54 143.987 1071.76 143.84C1071.97 143.693 1072.16 143.553 1072.32 143.42C1072.53 143.3 1072.73 143.24 1072.92 143.24C1073.16 143.24 1073.36 143.327 1073.52 143.5C1073.68 143.66 1073.76 143.853 1073.76 144.08C1073.76 144.373 1073.61 144.64 1073.32 144.88C1072.96 145.227 1072.46 145.533 1071.82 145.8C1071.19 146.067 1070.53 146.2 1069.84 146.2ZM1085.02 131.2C1085.3 131.2 1085.54 131.293 1085.72 131.48C1085.92 131.667 1086.02 131.913 1086.02 132.22V144.98C1086.02 145.273 1085.92 145.52 1085.72 145.72C1085.54 145.907 1085.3 146 1085.02 146C1084.73 146 1084.49 145.907 1084.3 145.72C1084.12 145.52 1084.02 145.273 1084.02 144.98V143.54L1084.42 143.56C1084.42 143.8 1084.32 144.073 1084.12 144.38C1083.94 144.673 1083.68 144.96 1083.34 145.24C1083.01 145.52 1082.62 145.753 1082.16 145.94C1081.71 146.113 1081.22 146.2 1080.7 146.2C1079.8 146.2 1078.97 145.967 1078.22 145.5C1077.49 145.02 1076.91 144.373 1076.48 143.56C1076.06 142.733 1075.84 141.787 1075.84 140.72C1075.84 139.653 1076.06 138.713 1076.48 137.9C1076.91 137.073 1077.48 136.427 1078.2 135.96C1078.94 135.48 1079.75 135.24 1080.64 135.24C1081.2 135.24 1081.72 135.333 1082.2 135.52C1082.7 135.707 1083.12 135.947 1083.48 136.24C1083.84 136.533 1084.12 136.847 1084.32 137.18C1084.54 137.5 1084.64 137.807 1084.64 138.1L1084.02 138.16V132.22C1084.02 131.927 1084.12 131.687 1084.3 131.5C1084.49 131.3 1084.73 131.2 1085.02 131.2ZM1080.94 144.36C1081.57 144.36 1082.12 144.2 1082.58 143.88C1083.06 143.56 1083.44 143.127 1083.7 142.58C1083.97 142.033 1084.1 141.413 1084.1 140.72C1084.1 140.027 1083.97 139.407 1083.7 138.86C1083.44 138.313 1083.06 137.88 1082.58 137.56C1082.12 137.24 1081.57 137.08 1080.94 137.08C1080.33 137.08 1079.78 137.24 1079.3 137.56C1078.82 137.88 1078.45 138.313 1078.18 138.86C1077.92 139.407 1077.78 140.027 1077.78 140.72C1077.78 141.413 1077.92 142.033 1078.18 142.58C1078.45 143.127 1078.82 143.56 1079.3 143.88C1079.78 144.2 1080.33 144.36 1080.94 144.36ZM1090.69 144.98C1090.69 145.273 1090.59 145.52 1090.41 145.72C1090.22 145.907 1089.98 146 1089.69 146C1089.41 146 1089.17 145.907 1088.97 145.72C1088.78 145.52 1088.69 145.273 1088.69 144.98V136.42C1088.69 136.127 1088.78 135.887 1088.97 135.7C1089.17 135.5 1089.41 135.4 1089.69 135.4C1089.98 135.4 1090.22 135.5 1090.41 135.7C1090.59 135.887 1090.69 136.127 1090.69 136.42V144.98ZM1089.67 134.08C1089.28 134.08 1089 134.013 1088.83 133.88C1088.65 133.733 1088.57 133.493 1088.57 133.16V132.84C1088.57 132.507 1088.66 132.273 1088.85 132.14C1089.03 132.007 1089.31 131.94 1089.69 131.94C1090.09 131.94 1090.37 132.013 1090.55 132.16C1090.72 132.293 1090.81 132.52 1090.81 132.84V133.16C1090.81 133.507 1090.71 133.747 1090.53 133.88C1090.35 134.013 1090.07 134.08 1089.67 134.08ZM1093.24 135.6H1097.94C1098.2 135.6 1098.42 135.693 1098.6 135.88C1098.78 136.053 1098.88 136.273 1098.88 136.54C1098.88 136.793 1098.78 137.007 1098.6 137.18C1098.42 137.353 1098.2 137.44 1097.94 137.44H1093.24C1092.97 137.44 1092.74 137.353 1092.56 137.18C1092.38 136.993 1092.3 136.773 1092.3 136.52C1092.3 136.253 1092.38 136.033 1092.56 135.86C1092.74 135.687 1092.97 135.6 1093.24 135.6ZM1095.34 133C1095.63 133 1095.87 133.1 1096.06 133.3C1096.24 133.487 1096.34 133.727 1096.34 134.02V143.3C1096.34 143.54 1096.38 143.733 1096.46 143.88C1096.54 144.027 1096.64 144.127 1096.78 144.18C1096.92 144.233 1097.07 144.26 1097.22 144.26C1097.36 144.26 1097.49 144.233 1097.6 144.18C1097.72 144.127 1097.86 144.1 1098.02 144.1C1098.18 144.1 1098.32 144.173 1098.46 144.32C1098.59 144.467 1098.66 144.667 1098.66 144.92C1098.66 145.24 1098.48 145.5 1098.14 145.7C1097.79 145.9 1097.42 146 1097.02 146C1096.79 146 1096.52 145.98 1096.22 145.94C1095.91 145.9 1095.61 145.8 1095.32 145.64C1095.04 145.48 1094.8 145.227 1094.62 144.88C1094.43 144.52 1094.34 144.02 1094.34 143.38V134.02C1094.34 133.727 1094.43 133.487 1094.62 133.3C1094.82 133.1 1095.06 133 1095.34 133ZM1105.79 146.2C1104.7 146.2 1103.74 145.973 1102.91 145.52C1102.1 145.053 1101.47 144.42 1101.01 143.62C1100.57 142.807 1100.35 141.88 1100.35 140.84C1100.35 139.667 1100.59 138.667 1101.05 137.84C1101.53 137 1102.15 136.36 1102.91 135.92C1103.69 135.467 1104.5 135.24 1105.35 135.24C1105.99 135.24 1106.61 135.373 1107.19 135.64C1107.79 135.893 1108.32 136.253 1108.77 136.72C1109.23 137.173 1109.59 137.713 1109.85 138.34C1110.12 138.953 1110.26 139.627 1110.27 140.36C1110.26 140.627 1110.15 140.847 1109.95 141.02C1109.75 141.193 1109.52 141.28 1109.25 141.28H1101.49L1101.01 139.58H1108.53L1108.15 139.94V139.44C1108.11 138.973 1107.95 138.567 1107.67 138.22C1107.39 137.86 1107.05 137.587 1106.63 137.4C1106.23 137.2 1105.81 137.1 1105.35 137.1C1104.95 137.1 1104.57 137.167 1104.19 137.3C1103.82 137.42 1103.49 137.62 1103.21 137.9C1102.93 138.18 1102.71 138.553 1102.53 139.02C1102.36 139.473 1102.27 140.04 1102.27 140.72C1102.27 141.453 1102.43 142.093 1102.73 142.64C1103.04 143.187 1103.45 143.613 1103.97 143.92C1104.49 144.213 1105.07 144.36 1105.71 144.36C1106.19 144.36 1106.59 144.313 1106.91 144.22C1107.23 144.113 1107.5 143.987 1107.71 143.84C1107.93 143.693 1108.11 143.553 1108.27 143.42C1108.49 143.3 1108.69 143.24 1108.87 143.24C1109.11 143.24 1109.31 143.327 1109.47 143.5C1109.63 143.66 1109.71 143.853 1109.71 144.08C1109.71 144.373 1109.57 144.64 1109.27 144.88C1108.91 145.227 1108.41 145.533 1107.77 145.8C1107.15 146.067 1106.49 146.2 1105.79 146.2ZM1120.98 131.2C1121.26 131.2 1121.49 131.293 1121.68 131.48C1121.88 131.667 1121.98 131.913 1121.98 132.22V144.98C1121.98 145.273 1121.88 145.52 1121.68 145.72C1121.49 145.907 1121.26 146 1120.98 146C1120.69 146 1120.45 145.907 1120.26 145.72C1120.07 145.52 1119.98 145.273 1119.98 144.98V143.54L1120.38 143.56C1120.38 143.8 1120.28 144.073 1120.08 144.38C1119.89 144.673 1119.63 144.96 1119.3 145.24C1118.97 145.52 1118.57 145.753 1118.12 145.94C1117.67 146.113 1117.18 146.2 1116.66 146.2C1115.75 146.2 1114.93 145.967 1114.18 145.5C1113.45 145.02 1112.87 144.373 1112.44 143.56C1112.01 142.733 1111.8 141.787 1111.8 140.72C1111.8 139.653 1112.01 138.713 1112.44 137.9C1112.87 137.073 1113.44 136.427 1114.16 135.96C1114.89 135.48 1115.71 135.24 1116.6 135.24C1117.16 135.24 1117.68 135.333 1118.16 135.52C1118.65 135.707 1119.08 135.947 1119.44 136.24C1119.8 136.533 1120.08 136.847 1120.28 137.18C1120.49 137.5 1120.6 137.807 1120.6 138.1L1119.98 138.16V132.22C1119.98 131.927 1120.07 131.687 1120.26 131.5C1120.45 131.3 1120.69 131.2 1120.98 131.2ZM1116.9 144.36C1117.53 144.36 1118.07 144.2 1118.54 143.88C1119.02 143.56 1119.39 143.127 1119.66 142.58C1119.93 142.033 1120.06 141.413 1120.06 140.72C1120.06 140.027 1119.93 139.407 1119.66 138.86C1119.39 138.313 1119.02 137.88 1118.54 137.56C1118.07 137.24 1117.53 137.08 1116.9 137.08C1116.29 137.08 1115.74 137.24 1115.26 137.56C1114.78 137.88 1114.41 138.313 1114.14 138.86C1113.87 139.407 1113.74 140.027 1113.74 140.72C1113.74 141.413 1113.87 142.033 1114.14 142.58C1114.41 143.127 1114.78 143.56 1115.26 143.88C1115.74 144.2 1116.29 144.36 1116.9 144.36Z" fill="black"/>
</svg>
