<svg width="311" height="592" viewBox="0 0 311 592" fill="none" xmlns="http://www.w3.org/2000/svg">
<path d="M40 0L40 592" stroke="black" stroke-width="2"/>
<circle cx="40" cy="40" r="40" fill="#AE0168"/>
<path d="M40.4997 19.2229L60.8934 54.4583H20.1059L40.4997 19.2229ZM15.4205 51.75C13.3351 55.3521 15.9351 59.875 20.1059 59.875H60.8934C65.0643 59.875 67.6643 55.3521 65.5788 51.75L45.1851 16.5146C43.0997 12.9125 37.8997 12.9125 35.8143 16.5146L15.4205 51.75ZM37.7913 32.7916V38.2083C37.7913 39.6979 39.0101 40.9166 40.4997 40.9166C41.9893 40.9166 43.208 39.6979 43.208 38.2083V32.7916C43.208 31.3021 41.9893 30.0833 40.4997 30.0833C39.0101 30.0833 37.7913 31.3021 37.7913 32.7916ZM37.7913 46.3333H43.208V51.75H37.7913V46.3333Z" fill="white"/>
<path d="M115.26 33C115.967 33 116.62 33.1933 117.22 33.58C117.82 33.9533 118.3 34.4667 118.66 35.12C119.02 35.7733 119.2 36.5067 119.2 37.32C119.2 38.1333 119.02 38.8733 118.66 39.54C118.3 40.1933 117.82 40.72 117.22 41.12C116.62 41.5067 115.967 41.7 115.26 41.7H111.4L111.56 41.38V45.98C111.56 46.2733 111.467 46.52 111.28 46.72C111.107 46.9067 110.873 47 110.58 47C110.3 47 110.067 46.9067 109.88 46.72C109.707 46.52 109.62 46.2733 109.62 45.98V34.02C109.62 33.7267 109.72 33.4867 109.92 33.3C110.12 33.1 110.36 33 110.64 33H115.26ZM115.26 39.78C115.607 39.78 115.92 39.6667 116.2 39.44C116.493 39.2133 116.727 38.9133 116.9 38.54C117.087 38.1667 117.18 37.76 117.18 37.32C117.18 36.88 117.087 36.48 116.9 36.12C116.727 35.76 116.493 35.4733 116.2 35.26C115.92 35.0333 115.607 34.92 115.26 34.92H111.36L111.56 34.62V40.04L111.38 39.78H115.26ZM126.016 47.2C124.923 47.2 123.963 46.9733 123.136 46.52C122.323 46.0533 121.69 45.42 121.236 44.62C120.796 43.8067 120.576 42.88 120.576 41.84C120.576 40.6667 120.81 39.6667 121.276 38.84C121.756 38 122.376 37.36 123.136 36.92C123.91 36.4667 124.723 36.24 125.576 36.24C126.216 36.24 126.83 36.3733 127.416 36.64C128.016 36.8933 128.543 37.2533 128.996 37.72C129.45 38.1733 129.81 38.7133 130.076 39.34C130.343 39.9533 130.483 40.6267 130.496 41.36C130.483 41.6267 130.376 41.8467 130.176 42.02C129.976 42.1933 129.743 42.28 129.476 42.28H121.716L121.236 40.58H128.756L128.376 40.94V40.44C128.336 39.9733 128.176 39.5667 127.896 39.22C127.616 38.86 127.27 38.5867 126.856 38.4C126.456 38.2 126.03 38.1 125.576 38.1C125.176 38.1 124.79 38.1667 124.416 38.3C124.043 38.42 123.716 38.62 123.436 38.9C123.156 39.18 122.93 39.5533 122.756 40.02C122.583 40.4733 122.496 41.04 122.496 41.72C122.496 42.4533 122.65 43.0933 122.956 43.64C123.263 44.1867 123.676 44.6133 124.196 44.92C124.716 45.2133 125.296 45.36 125.936 45.36C126.416 45.36 126.816 45.3133 127.136 45.22C127.456 45.1133 127.723 44.9867 127.936 44.84C128.15 44.6933 128.336 44.5533 128.496 44.42C128.71 44.3 128.91 44.24 129.096 44.24C129.336 44.24 129.536 44.3267 129.696 44.5C129.856 44.66 129.936 44.8533 129.936 45.08C129.936 45.3733 129.79 45.64 129.496 45.88C129.136 46.2267 128.636 46.5333 127.996 46.8C127.37 47.0667 126.71 47.2 126.016 47.2ZM138.082 36.24C139.028 36.24 139.762 36.44 140.282 36.84C140.802 37.2267 141.162 37.7533 141.362 38.42C141.575 39.0733 141.682 39.8067 141.682 40.62V45.98C141.682 46.2733 141.582 46.52 141.382 46.72C141.195 46.9067 140.962 47 140.682 47C140.388 47 140.148 46.9067 139.962 46.72C139.775 46.52 139.682 46.2733 139.682 45.98V40.64C139.682 40.16 139.615 39.7333 139.482 39.36C139.348 38.9733 139.115 38.6667 138.782 38.44C138.462 38.2 138.008 38.08 137.422 38.08C136.875 38.08 136.395 38.2 135.982 38.44C135.568 38.6667 135.242 38.9733 135.002 39.36C134.775 39.7333 134.662 40.16 134.662 40.64V45.98C134.662 46.2733 134.562 46.52 134.362 46.72C134.175 46.9067 133.942 47 133.662 47C133.368 47 133.128 46.9067 132.942 46.72C132.755 46.52 132.662 46.2733 132.662 45.98V37.5C132.662 37.2067 132.755 36.9667 132.942 36.78C133.128 36.58 133.368 36.48 133.662 36.48C133.942 36.48 134.175 36.58 134.362 36.78C134.562 36.9667 134.662 37.2067 134.662 37.5V38.62L134.302 38.82C134.395 38.5267 134.555 38.2333 134.782 37.94C135.022 37.6333 135.308 37.3533 135.642 37.1C135.975 36.8333 136.348 36.6267 136.762 36.48C137.175 36.32 137.615 36.24 138.082 36.24ZM152.999 32.2C153.279 32.2 153.512 32.2933 153.699 32.48C153.899 32.6667 153.999 32.9133 153.999 33.22V45.98C153.999 46.2733 153.899 46.52 153.699 46.72C153.512 46.9067 153.279 47 152.999 47C152.705 47 152.465 46.9067 152.279 46.72C152.092 46.52 151.999 46.2733 151.999 45.98V44.54L152.399 44.56C152.399 44.8 152.299 45.0733 152.099 45.38C151.912 45.6733 151.652 45.96 151.319 46.24C150.985 46.52 150.592 46.7533 150.139 46.94C149.685 47.1133 149.199 47.2 148.679 47.2C147.772 47.2 146.945 46.9667 146.199 46.5C145.465 46.02 144.885 45.3733 144.459 44.56C144.032 43.7333 143.819 42.7867 143.819 41.72C143.819 40.6533 144.032 39.7133 144.459 38.9C144.885 38.0733 145.459 37.4267 146.179 36.96C146.912 36.48 147.725 36.24 148.619 36.24C149.179 36.24 149.699 36.3333 150.179 36.52C150.672 36.7067 151.099 36.9467 151.459 37.24C151.819 37.5333 152.099 37.8467 152.299 38.18C152.512 38.5 152.619 38.8067 152.619 39.1L151.999 39.16V33.22C151.999 32.9267 152.092 32.6867 152.279 32.5C152.465 32.3 152.705 32.2 152.999 32.2ZM148.919 45.36C149.545 45.36 150.092 45.2 150.559 44.88C151.039 44.56 151.412 44.1267 151.679 43.58C151.945 43.0333 152.079 42.4133 152.079 41.72C152.079 41.0267 151.945 40.4067 151.679 39.86C151.412 39.3133 151.039 38.88 150.559 38.56C150.092 38.24 149.545 38.08 148.919 38.08C148.305 38.08 147.759 38.24 147.279 38.56C146.799 38.88 146.425 39.3133 146.159 39.86C145.892 40.4067 145.759 41.0267 145.759 41.72C145.759 42.4133 145.892 43.0333 146.159 43.58C146.425 44.1267 146.799 44.56 147.279 44.88C147.759 45.2 148.305 45.36 148.919 45.36ZM158.663 45.98C158.663 46.2733 158.569 46.52 158.383 46.72C158.196 46.9067 157.956 47 157.663 47C157.383 47 157.143 46.9067 156.943 46.72C156.756 46.52 156.663 46.2733 156.663 45.98V37.42C156.663 37.1267 156.756 36.8867 156.943 36.7C157.143 36.5 157.383 36.4 157.663 36.4C157.956 36.4 158.196 36.5 158.383 36.7C158.569 36.8867 158.663 37.1267 158.663 37.42V45.98ZM157.643 35.08C157.256 35.08 156.976 35.0133 156.803 34.88C156.629 34.7333 156.543 34.4933 156.543 34.16V33.84C156.543 33.5067 156.636 33.2733 156.823 33.14C157.009 33.0067 157.289 32.94 157.663 32.94C158.063 32.94 158.349 33.0133 158.523 33.16C158.696 33.2933 158.783 33.52 158.783 33.84V34.16C158.783 34.5067 158.689 34.7467 158.503 34.88C158.329 35.0133 158.043 35.08 157.643 35.08ZM166.773 36.24C167.72 36.24 168.453 36.44 168.973 36.84C169.493 37.2267 169.853 37.7533 170.053 38.42C170.266 39.0733 170.373 39.8067 170.373 40.62V45.98C170.373 46.2733 170.273 46.52 170.073 46.72C169.886 46.9067 169.653 47 169.373 47C169.08 47 168.84 46.9067 168.653 46.72C168.466 46.52 168.373 46.2733 168.373 45.98V40.64C168.373 40.16 168.306 39.7333 168.173 39.36C168.04 38.9733 167.806 38.6667 167.473 38.44C167.153 38.2 166.7 38.08 166.113 38.08C165.566 38.08 165.086 38.2 164.673 38.44C164.26 38.6667 163.933 38.9733 163.693 39.36C163.466 39.7333 163.353 40.16 163.353 40.64V45.98C163.353 46.2733 163.253 46.52 163.053 46.72C162.866 46.9067 162.633 47 162.353 47C162.06 47 161.82 46.9067 161.633 46.72C161.446 46.52 161.353 46.2733 161.353 45.98V37.5C161.353 37.2067 161.446 36.9667 161.633 36.78C161.82 36.58 162.06 36.48 162.353 36.48C162.633 36.48 162.866 36.58 163.053 36.78C163.253 36.9667 163.353 37.2067 163.353 37.5V38.62L162.993 38.82C163.086 38.5267 163.246 38.2333 163.473 37.94C163.713 37.6333 164 37.3533 164.333 37.1C164.666 36.8333 165.04 36.6267 165.453 36.48C165.866 36.32 166.306 36.24 166.773 36.24ZM177.43 36.24C178.003 36.24 178.53 36.3333 179.01 36.52C179.49 36.7067 179.903 36.9467 180.25 37.24C180.61 37.52 180.89 37.8133 181.09 38.12C181.29 38.4267 181.39 38.6933 181.39 38.92L180.93 38.94V37.34C180.93 37.06 181.023 36.82 181.21 36.62C181.397 36.42 181.637 36.32 181.93 36.32C182.223 36.32 182.463 36.42 182.65 36.62C182.837 36.8067 182.93 37.0467 182.93 37.34V46.16C182.93 47.2933 182.69 48.2133 182.21 48.92C181.73 49.64 181.09 50.1667 180.29 50.5C179.503 50.8333 178.637 51 177.69 51C177.357 51 176.963 50.9533 176.51 50.86C176.057 50.78 175.637 50.68 175.25 50.56C174.877 50.44 174.617 50.32 174.47 50.2C174.163 50.04 173.957 49.8533 173.85 49.64C173.757 49.4267 173.763 49.2133 173.87 49C173.99 48.7067 174.163 48.5267 174.39 48.46C174.617 48.3933 174.877 48.4133 175.17 48.52C175.303 48.56 175.51 48.6333 175.79 48.74C176.07 48.8467 176.383 48.94 176.73 49.02C177.077 49.1133 177.403 49.16 177.71 49.16C178.777 49.16 179.577 48.9133 180.11 48.42C180.657 47.9267 180.93 47.2533 180.93 46.4V44.6L181.17 44.74C181.13 45.02 181.003 45.3067 180.79 45.6C180.577 45.88 180.303 46.14 179.97 46.38C179.637 46.62 179.257 46.82 178.83 46.98C178.403 47.1267 177.957 47.2 177.49 47.2C176.557 47.2 175.71 46.9667 174.95 46.5C174.203 46.02 173.61 45.3733 173.17 44.56C172.73 43.7333 172.51 42.7867 172.51 41.72C172.51 40.6533 172.73 39.7133 173.17 38.9C173.61 38.0733 174.197 37.4267 174.93 36.96C175.677 36.48 176.51 36.24 177.43 36.24ZM177.73 38.08C177.09 38.08 176.517 38.24 176.01 38.56C175.517 38.88 175.13 39.3133 174.85 39.86C174.583 40.4067 174.45 41.0267 174.45 41.72C174.45 42.4133 174.583 43.0333 174.85 43.58C175.13 44.1267 175.517 44.56 176.01 44.88C176.517 45.2 177.09 45.36 177.73 45.36C178.383 45.36 178.957 45.2067 179.45 44.9C179.943 44.58 180.33 44.1467 180.61 43.6C180.89 43.04 181.03 42.4133 181.03 41.72C181.03 41.0267 180.89 40.4067 180.61 39.86C180.33 39.3 179.943 38.8667 179.45 38.56C178.957 38.24 178.383 38.08 177.73 38.08ZM192.295 47C192.001 47 191.761 46.9067 191.575 46.72C191.388 46.52 191.295 46.2733 191.295 45.98V37.5C191.295 37.2067 191.388 36.9667 191.575 36.78C191.761 36.58 192.001 36.48 192.295 36.48C192.575 36.48 192.808 36.58 192.995 36.78C193.195 36.9667 193.295 37.2067 193.295 37.5V39.74L193.095 38.88C193.201 38.5067 193.361 38.16 193.575 37.84C193.801 37.52 194.068 37.24 194.375 37C194.681 36.76 195.021 36.5733 195.395 36.44C195.781 36.3067 196.181 36.24 196.595 36.24C196.941 36.24 197.241 36.3333 197.495 36.52C197.748 36.7067 197.875 36.94 197.875 37.22C197.875 37.58 197.781 37.8467 197.595 38.02C197.408 38.18 197.201 38.26 196.975 38.26C196.775 38.26 196.581 38.22 196.395 38.14C196.208 38.0467 195.988 38 195.735 38C195.455 38 195.168 38.0733 194.875 38.22C194.581 38.3667 194.315 38.5867 194.075 38.88C193.835 39.16 193.641 39.4933 193.495 39.88C193.361 40.2667 193.295 40.7 193.295 41.18V45.98C193.295 46.2733 193.195 46.52 192.995 46.72C192.808 46.9067 192.575 47 192.295 47ZM204.005 47.2C202.911 47.2 201.951 46.9733 201.125 46.52C200.311 46.0533 199.678 45.42 199.225 44.62C198.785 43.8067 198.565 42.88 198.565 41.84C198.565 40.6667 198.798 39.6667 199.265 38.84C199.745 38 200.365 37.36 201.125 36.92C201.898 36.4667 202.711 36.24 203.565 36.24C204.205 36.24 204.818 36.3733 205.405 36.64C206.005 36.8933 206.531 37.2533 206.985 37.72C207.438 38.1733 207.798 38.7133 208.065 39.34C208.331 39.9533 208.471 40.6267 208.485 41.36C208.471 41.6267 208.365 41.8467 208.165 42.02C207.965 42.1933 207.731 42.28 207.465 42.28H199.705L199.225 40.58H206.745L206.365 40.94V40.44C206.325 39.9733 206.165 39.5667 205.885 39.22C205.605 38.86 205.258 38.5867 204.845 38.4C204.445 38.2 204.018 38.1 203.565 38.1C203.165 38.1 202.778 38.1667 202.405 38.3C202.031 38.42 201.705 38.62 201.425 38.9C201.145 39.18 200.918 39.5533 200.745 40.02C200.571 40.4733 200.485 41.04 200.485 41.72C200.485 42.4533 200.638 43.0933 200.945 43.64C201.251 44.1867 201.665 44.6133 202.185 44.92C202.705 45.2133 203.285 45.36 203.925 45.36C204.405 45.36 204.805 45.3133 205.125 45.22C205.445 45.1133 205.711 44.9867 205.925 44.84C206.138 44.6933 206.325 44.5533 206.485 44.42C206.698 44.3 206.898 44.24 207.085 44.24C207.325 44.24 207.525 44.3267 207.685 44.5C207.845 44.66 207.925 44.8533 207.925 45.08C207.925 45.3733 207.778 45.64 207.485 45.88C207.125 46.2267 206.625 46.5333 205.985 46.8C205.358 47.0667 204.698 47.2 204.005 47.2ZM219.19 36.44C219.47 36.44 219.703 36.54 219.89 36.74C220.09 36.9267 220.19 37.1667 220.19 37.46V49.98C220.19 50.2733 220.09 50.5133 219.89 50.7C219.703 50.9 219.47 51 219.19 51C218.897 51 218.657 50.9 218.47 50.7C218.283 50.5133 218.19 50.2733 218.19 49.98V44.54L218.59 44.56C218.59 44.8 218.49 45.0733 218.29 45.38C218.103 45.6733 217.843 45.96 217.51 46.24C217.177 46.52 216.783 46.7533 216.33 46.94C215.877 47.1133 215.39 47.2 214.87 47.2C213.963 47.2 213.137 46.9667 212.39 46.5C211.657 46.02 211.077 45.3733 210.65 44.56C210.223 43.7333 210.01 42.7867 210.01 41.72C210.01 40.6533 210.223 39.7133 210.65 38.9C211.077 38.0733 211.65 37.4267 212.37 36.96C213.103 36.48 213.917 36.24 214.81 36.24C215.37 36.24 215.89 36.3333 216.37 36.52C216.863 36.7067 217.29 36.9467 217.65 37.24C218.01 37.5333 218.29 37.8467 218.49 38.18C218.703 38.5 218.81 38.8067 218.81 39.1L218.19 39.16V37.46C218.19 37.18 218.283 36.94 218.47 36.74C218.657 36.54 218.897 36.44 219.19 36.44ZM215.11 45.36C215.737 45.36 216.283 45.2 216.75 44.88C217.23 44.56 217.603 44.1267 217.87 43.58C218.137 43.0333 218.27 42.4133 218.27 41.72C218.27 41.0267 218.137 40.4067 217.87 39.86C217.603 39.3133 217.23 38.88 216.75 38.56C216.283 38.24 215.737 38.08 215.11 38.08C214.497 38.08 213.95 38.24 213.47 38.56C212.99 38.88 212.617 39.3133 212.35 39.86C212.083 40.4067 211.95 41.0267 211.95 41.72C211.95 42.4133 212.083 43.0333 212.35 43.58C212.617 44.1267 212.99 44.56 213.47 44.88C213.95 45.2 214.497 45.36 215.11 45.36ZM230.814 36.48C231.094 36.48 231.328 36.58 231.514 36.78C231.714 36.9667 231.814 37.2067 231.814 37.5V42.76C231.814 44.1467 231.428 45.2333 230.654 46.02C229.881 46.7933 228.788 47.18 227.374 47.18C225.974 47.18 224.888 46.7933 224.114 46.02C223.354 45.2333 222.974 44.1467 222.974 42.76V37.5C222.974 37.2067 223.068 36.9667 223.254 36.78C223.441 36.58 223.681 36.48 223.974 36.48C224.254 36.48 224.488 36.58 224.674 36.78C224.874 36.9667 224.974 37.2067 224.974 37.5V42.76C224.974 43.6267 225.174 44.2733 225.574 44.7C225.988 45.1267 226.588 45.34 227.374 45.34C228.174 45.34 228.781 45.1267 229.194 44.7C229.608 44.2733 229.814 43.6267 229.814 42.76V37.5C229.814 37.2067 229.908 36.9667 230.094 36.78C230.281 36.58 230.521 36.48 230.814 36.48ZM239.395 47.2C238.302 47.2 237.342 46.9733 236.515 46.52C235.702 46.0533 235.069 45.42 234.615 44.62C234.175 43.8067 233.955 42.88 233.955 41.84C233.955 40.6667 234.189 39.6667 234.655 38.84C235.135 38 235.755 37.36 236.515 36.92C237.289 36.4667 238.102 36.24 238.955 36.24C239.595 36.24 240.209 36.3733 240.795 36.64C241.395 36.8933 241.922 37.2533 242.375 37.72C242.829 38.1733 243.189 38.7133 243.455 39.34C243.722 39.9533 243.862 40.6267 243.875 41.36C243.862 41.6267 243.755 41.8467 243.555 42.02C243.355 42.1933 243.122 42.28 242.855 42.28H235.095L234.615 40.58H242.135L241.755 40.94V40.44C241.715 39.9733 241.555 39.5667 241.275 39.22C240.995 38.86 240.649 38.5867 240.235 38.4C239.835 38.2 239.409 38.1 238.955 38.1C238.555 38.1 238.169 38.1667 237.795 38.3C237.422 38.42 237.095 38.62 236.815 38.9C236.535 39.18 236.309 39.5533 236.135 40.02C235.962 40.4733 235.875 41.04 235.875 41.72C235.875 42.4533 236.029 43.0933 236.335 43.64C236.642 44.1867 237.055 44.6133 237.575 44.92C238.095 45.2133 238.675 45.36 239.315 45.36C239.795 45.36 240.195 45.3133 240.515 45.22C240.835 45.1133 241.102 44.9867 241.315 44.84C241.529 44.6933 241.715 44.5533 241.875 44.42C242.089 44.3 242.289 44.24 242.475 44.24C242.715 44.24 242.915 44.3267 243.075 44.5C243.235 44.66 243.315 44.8533 243.315 45.08C243.315 45.3733 243.169 45.64 242.875 45.88C242.515 46.2267 242.015 46.5333 241.375 46.8C240.749 47.0667 240.089 47.2 239.395 47.2ZM245.421 45.36C245.301 45.1733 245.247 44.96 245.261 44.72C245.274 44.4667 245.414 44.2533 245.681 44.08C245.867 43.96 246.061 43.9133 246.261 43.94C246.474 43.9533 246.674 44.0533 246.861 44.24C247.234 44.6533 247.647 44.98 248.101 45.22C248.567 45.46 249.127 45.58 249.781 45.58C250.047 45.5667 250.321 45.5267 250.601 45.46C250.881 45.38 251.121 45.2467 251.321 45.06C251.521 44.86 251.621 44.5733 251.621 44.2C251.621 43.8667 251.514 43.6 251.301 43.4C251.087 43.2 250.807 43.04 250.461 42.92C250.114 42.7867 249.741 42.6667 249.341 42.56C248.914 42.44 248.481 42.3067 248.041 42.16C247.614 42.0133 247.227 41.8267 246.881 41.6C246.534 41.36 246.247 41.0533 246.021 40.68C245.807 40.3067 245.701 39.8467 245.701 39.3C245.701 38.6733 245.874 38.1333 246.221 37.68C246.581 37.2267 247.041 36.8733 247.601 36.62C248.174 36.3667 248.794 36.24 249.461 36.24C249.847 36.24 250.254 36.2933 250.681 36.4C251.107 36.4933 251.521 36.6467 251.921 36.86C252.321 37.0733 252.667 37.3533 252.961 37.7C253.094 37.8733 253.167 38.08 253.181 38.32C253.207 38.56 253.101 38.7733 252.861 38.96C252.701 39.0933 252.507 39.1533 252.281 39.14C252.054 39.1267 251.867 39.0533 251.721 38.92C251.467 38.6 251.141 38.3533 250.741 38.18C250.341 37.9933 249.887 37.9 249.381 37.9C249.127 37.9 248.861 37.94 248.581 38.02C248.314 38.0867 248.087 38.2133 247.901 38.4C247.714 38.5867 247.621 38.86 247.621 39.22C247.621 39.5533 247.727 39.82 247.941 40.02C248.167 40.22 248.461 40.3867 248.821 40.52C249.181 40.6533 249.574 40.7733 250.001 40.88C250.414 40.9867 250.821 41.1133 251.221 41.26C251.634 41.4067 252.001 41.6 252.321 41.84C252.654 42.0667 252.921 42.3667 253.121 42.74C253.334 43.1 253.441 43.56 253.441 44.12C253.441 44.7733 253.247 45.3333 252.861 45.8C252.487 46.2533 252.007 46.6 251.421 46.84C250.847 47.08 250.241 47.2 249.601 47.2C248.841 47.2 248.081 47.0667 247.321 46.8C246.574 46.52 245.941 46.04 245.421 45.36ZM255.451 36.6H260.151C260.418 36.6 260.638 36.6933 260.811 36.88C260.998 37.0533 261.091 37.2733 261.091 37.54C261.091 37.7933 260.998 38.0067 260.811 38.18C260.638 38.3533 260.418 38.44 260.151 38.44H255.451C255.185 38.44 254.958 38.3533 254.771 38.18C254.598 37.9933 254.511 37.7733 254.511 37.52C254.511 37.2533 254.598 37.0333 254.771 36.86C254.958 36.6867 255.185 36.6 255.451 36.6ZM257.551 34C257.845 34 258.085 34.1 258.271 34.3C258.458 34.4867 258.551 34.7267 258.551 35.02V44.3C258.551 44.54 258.591 44.7333 258.671 44.88C258.751 45.0267 258.858 45.1267 258.991 45.18C259.138 45.2333 259.285 45.26 259.431 45.26C259.578 45.26 259.705 45.2333 259.811 45.18C259.931 45.1267 260.071 45.1 260.231 45.1C260.391 45.1 260.538 45.1733 260.671 45.32C260.805 45.4667 260.871 45.6667 260.871 45.92C260.871 46.24 260.698 46.5 260.351 46.7C260.005 46.9 259.631 47 259.231 47C259.005 47 258.738 46.98 258.431 46.94C258.125 46.9 257.825 46.8 257.531 46.64C257.251 46.48 257.018 46.2267 256.831 45.88C256.645 45.52 256.551 45.02 256.551 44.38V35.02C256.551 34.7267 256.645 34.4867 256.831 34.3C257.031 34.1 257.271 34 257.551 34Z" fill="black"/>
<circle cx="40" cy="296" r="40" fill="#AE0168"/>
<path d="M55.75 287.375L51.9312 283.529L34.0833 301.377L27.0687 294.39L23.25 298.208L34.0833 309.042L55.75 287.375ZM58.4583 271.125H47.1375C46 267.983 43.0208 265.708 39.5 265.708C35.9792 265.708 33 267.983 31.8625 271.125H20.5417C20.1625 271.125 19.8104 271.152 19.4583 271.233C18.4021 271.45 17.4542 271.992 16.7229 272.723C16.2354 273.21 15.8292 273.806 15.5583 274.456C15.2875 275.079 15.125 275.783 15.125 276.542V314.458C15.125 315.19 15.2875 315.921 15.5583 316.571C15.8292 317.221 16.2354 317.79 16.7229 318.304C17.4542 319.035 18.4021 319.577 19.4583 319.794C19.8104 319.848 20.1625 319.875 20.5417 319.875H58.4583C61.4375 319.875 63.875 317.437 63.875 314.458V276.542C63.875 273.562 61.4375 271.125 58.4583 271.125ZM39.5 270.448C40.6104 270.448 41.5312 271.369 41.5312 272.479C41.5312 273.59 40.6104 274.51 39.5 274.51C38.3896 274.51 37.4687 273.59 37.4687 272.479C37.4687 271.369 38.3896 270.448 39.5 270.448ZM58.4583 314.458H20.5417V276.542H58.4583V314.458Z" fill="white"/>
<path d="M113.72 301.98C113.707 302.273 113.593 302.52 113.38 302.72C113.18 302.907 112.94 303 112.66 303C112.353 303 112.1 302.907 111.9 302.72C111.713 302.52 111.62 302.273 111.62 301.98V290.02C111.62 289.727 111.72 289.487 111.92 289.3C112.12 289.1 112.38 289 112.7 289C112.967 289 113.2 289.1 113.4 289.3C113.613 289.487 113.72 289.727 113.72 290.02V301.98ZM122.152 292.24C123.099 292.24 123.832 292.44 124.352 292.84C124.872 293.227 125.232 293.753 125.432 294.42C125.645 295.073 125.752 295.807 125.752 296.62V301.98C125.752 302.273 125.652 302.52 125.452 302.72C125.265 302.907 125.032 303 124.752 303C124.459 303 124.219 302.907 124.032 302.72C123.845 302.52 123.752 302.273 123.752 301.98V296.64C123.752 296.16 123.685 295.733 123.552 295.36C123.419 294.973 123.185 294.667 122.852 294.44C122.532 294.2 122.079 294.08 121.492 294.08C120.945 294.08 120.465 294.2 120.052 294.44C119.639 294.667 119.312 294.973 119.072 295.36C118.845 295.733 118.732 296.16 118.732 296.64V301.98C118.732 302.273 118.632 302.52 118.432 302.72C118.245 302.907 118.012 303 117.732 303C117.439 303 117.199 302.907 117.012 302.72C116.825 302.52 116.732 302.273 116.732 301.98V293.5C116.732 293.207 116.825 292.967 117.012 292.78C117.199 292.58 117.439 292.48 117.732 292.48C118.012 292.48 118.245 292.58 118.432 292.78C118.632 292.967 118.732 293.207 118.732 293.5V294.62L118.372 294.82C118.465 294.527 118.625 294.233 118.852 293.94C119.092 293.633 119.379 293.353 119.712 293.1C120.045 292.833 120.419 292.627 120.832 292.48C121.245 292.32 121.685 292.24 122.152 292.24ZM128.389 292.6H133.089C133.356 292.6 133.576 292.693 133.749 292.88C133.936 293.053 134.029 293.273 134.029 293.54C134.029 293.793 133.936 294.007 133.749 294.18C133.576 294.353 133.356 294.44 133.089 294.44H128.389C128.122 294.44 127.896 294.353 127.709 294.18C127.536 293.993 127.449 293.773 127.449 293.52C127.449 293.253 127.536 293.033 127.709 292.86C127.896 292.687 128.122 292.6 128.389 292.6ZM130.489 290C130.782 290 131.022 290.1 131.209 290.3C131.396 290.487 131.489 290.727 131.489 291.02V300.3C131.489 300.54 131.529 300.733 131.609 300.88C131.689 301.027 131.796 301.127 131.929 301.18C132.076 301.233 132.222 301.26 132.369 301.26C132.516 301.26 132.642 301.233 132.749 301.18C132.869 301.127 133.009 301.1 133.169 301.1C133.329 301.1 133.476 301.173 133.609 301.32C133.742 301.467 133.809 301.667 133.809 301.92C133.809 302.24 133.636 302.5 133.289 302.7C132.942 302.9 132.569 303 132.169 303C131.942 303 131.676 302.98 131.369 302.94C131.062 302.9 130.762 302.8 130.469 302.64C130.189 302.48 129.956 302.227 129.769 301.88C129.582 301.52 129.489 301.02 129.489 300.38V291.02C129.489 290.727 129.582 290.487 129.769 290.3C129.969 290.1 130.209 290 130.489 290ZM140.946 303.2C139.853 303.2 138.893 302.973 138.066 302.52C137.253 302.053 136.619 301.42 136.166 300.62C135.726 299.807 135.506 298.88 135.506 297.84C135.506 296.667 135.739 295.667 136.206 294.84C136.686 294 137.306 293.36 138.066 292.92C138.839 292.467 139.653 292.24 140.506 292.24C141.146 292.24 141.759 292.373 142.346 292.64C142.946 292.893 143.473 293.253 143.926 293.72C144.379 294.173 144.739 294.713 145.006 295.34C145.273 295.953 145.413 296.627 145.426 297.36C145.413 297.627 145.306 297.847 145.106 298.02C144.906 298.193 144.673 298.28 144.406 298.28H136.646L136.166 296.58H143.686L143.306 296.94V296.44C143.266 295.973 143.106 295.567 142.826 295.22C142.546 294.86 142.199 294.587 141.786 294.4C141.386 294.2 140.959 294.1 140.506 294.1C140.106 294.1 139.719 294.167 139.346 294.3C138.973 294.42 138.646 294.62 138.366 294.9C138.086 295.18 137.859 295.553 137.686 296.02C137.513 296.473 137.426 297.04 137.426 297.72C137.426 298.453 137.579 299.093 137.886 299.64C138.193 300.187 138.606 300.613 139.126 300.92C139.646 301.213 140.226 301.36 140.866 301.36C141.346 301.36 141.746 301.313 142.066 301.22C142.386 301.113 142.653 300.987 142.866 300.84C143.079 300.693 143.266 300.553 143.426 300.42C143.639 300.3 143.839 300.24 144.026 300.24C144.266 300.24 144.466 300.327 144.626 300.5C144.786 300.66 144.866 300.853 144.866 301.08C144.866 301.373 144.719 301.64 144.426 301.88C144.066 302.227 143.566 302.533 142.926 302.8C142.299 303.067 141.639 303.2 140.946 303.2ZM148.591 303C148.298 303 148.058 302.907 147.871 302.72C147.685 302.52 147.591 302.273 147.591 301.98V293.5C147.591 293.207 147.685 292.967 147.871 292.78C148.058 292.58 148.298 292.48 148.591 292.48C148.871 292.48 149.105 292.58 149.291 292.78C149.491 292.967 149.591 293.207 149.591 293.5V295.74L149.391 294.88C149.498 294.507 149.658 294.16 149.871 293.84C150.098 293.52 150.365 293.24 150.671 293C150.978 292.76 151.318 292.573 151.691 292.44C152.078 292.307 152.478 292.24 152.891 292.24C153.238 292.24 153.538 292.333 153.791 292.52C154.045 292.707 154.171 292.94 154.171 293.22C154.171 293.58 154.078 293.847 153.891 294.02C153.705 294.18 153.498 294.26 153.271 294.26C153.071 294.26 152.878 294.22 152.691 294.14C152.505 294.047 152.285 294 152.031 294C151.751 294 151.465 294.073 151.171 294.22C150.878 294.367 150.611 294.587 150.371 294.88C150.131 295.16 149.938 295.493 149.791 295.88C149.658 296.267 149.591 296.7 149.591 297.18V301.98C149.591 302.273 149.491 302.52 149.291 302.72C149.105 302.907 148.871 303 148.591 303ZM157.187 292.38C157.387 292.38 157.574 292.433 157.747 292.54C157.934 292.647 158.067 292.807 158.147 293.02L161.287 300.28L160.907 300.46L164.087 293.04C164.274 292.6 164.574 292.387 164.987 292.4C165.254 292.4 165.474 292.487 165.647 292.66C165.834 292.82 165.927 293.033 165.927 293.3C165.927 293.38 165.914 293.467 165.887 293.56C165.86 293.64 165.827 293.72 165.787 293.8L161.987 302.36C161.814 302.76 161.527 302.973 161.127 303C160.927 303.027 160.727 302.987 160.527 302.88C160.34 302.76 160.194 302.587 160.087 302.36L156.307 293.8C156.28 293.747 156.254 293.68 156.227 293.6C156.2 293.507 156.187 293.4 156.187 293.28C156.187 293.08 156.274 292.88 156.447 292.68C156.634 292.48 156.88 292.38 157.187 292.38ZM169.843 301.98C169.843 302.273 169.749 302.52 169.563 302.72C169.376 302.907 169.136 303 168.843 303C168.563 303 168.323 302.907 168.123 302.72C167.936 302.52 167.843 302.273 167.843 301.98V293.42C167.843 293.127 167.936 292.887 168.123 292.7C168.323 292.5 168.563 292.4 168.843 292.4C169.136 292.4 169.376 292.5 169.563 292.7C169.749 292.887 169.843 293.127 169.843 293.42V301.98ZM168.823 291.08C168.436 291.08 168.156 291.013 167.983 290.88C167.809 290.733 167.723 290.493 167.723 290.16V289.84C167.723 289.507 167.816 289.273 168.003 289.14C168.189 289.007 168.469 288.94 168.843 288.94C169.243 288.94 169.529 289.013 169.703 289.16C169.876 289.293 169.963 289.52 169.963 289.84V290.16C169.963 290.507 169.869 290.747 169.683 290.88C169.509 291.013 169.223 291.08 168.823 291.08ZM177.333 303.2C176.239 303.2 175.279 302.973 174.453 302.52C173.639 302.053 173.006 301.42 172.553 300.62C172.113 299.807 171.893 298.88 171.893 297.84C171.893 296.667 172.126 295.667 172.593 294.84C173.073 294 173.693 293.36 174.453 292.92C175.226 292.467 176.039 292.24 176.893 292.24C177.533 292.24 178.146 292.373 178.733 292.64C179.333 292.893 179.859 293.253 180.313 293.72C180.766 294.173 181.126 294.713 181.393 295.34C181.659 295.953 181.799 296.627 181.813 297.36C181.799 297.627 181.693 297.847 181.493 298.02C181.293 298.193 181.059 298.28 180.793 298.28H173.033L172.553 296.58H180.073L179.693 296.94V296.44C179.653 295.973 179.493 295.567 179.213 295.22C178.933 294.86 178.586 294.587 178.173 294.4C177.773 294.2 177.346 294.1 176.893 294.1C176.493 294.1 176.106 294.167 175.733 294.3C175.359 294.42 175.033 294.62 174.753 294.9C174.473 295.18 174.246 295.553 174.073 296.02C173.899 296.473 173.813 297.04 173.813 297.72C173.813 298.453 173.966 299.093 174.273 299.64C174.579 300.187 174.993 300.613 175.513 300.92C176.033 301.213 176.613 301.36 177.253 301.36C177.733 301.36 178.133 301.313 178.453 301.22C178.773 301.113 179.039 300.987 179.253 300.84C179.466 300.693 179.653 300.553 179.813 300.42C180.026 300.3 180.226 300.24 180.413 300.24C180.653 300.24 180.853 300.327 181.013 300.5C181.173 300.66 181.253 300.853 181.253 301.08C181.253 301.373 181.106 301.64 180.813 301.88C180.453 302.227 179.953 302.533 179.313 302.8C178.686 303.067 178.026 303.2 177.333 303.2ZM196.238 292.38C196.491 292.38 196.711 292.48 196.898 292.68C197.098 292.867 197.198 293.113 197.198 293.42C197.198 293.487 197.191 293.553 197.178 293.62C197.165 293.687 197.145 293.747 197.118 293.8L194.058 302.36C193.978 302.587 193.838 302.76 193.638 302.88C193.438 302.987 193.231 303.027 193.018 303C192.631 302.973 192.345 302.76 192.158 302.36L189.898 296.36L190.358 296.4L188.278 302.36C188.091 302.76 187.805 302.973 187.418 303C187.218 303.027 187.011 302.987 186.798 302.88C186.598 302.76 186.458 302.587 186.378 302.36L183.298 293.8C183.245 293.68 183.218 293.553 183.218 293.42C183.218 293.14 183.305 292.9 183.478 292.7C183.665 292.487 183.911 292.38 184.218 292.38C184.431 292.38 184.618 292.433 184.778 292.54C184.951 292.647 185.071 292.807 185.138 293.02L187.698 300.24L187.238 300.2L189.318 294.74C189.491 294.327 189.798 294.12 190.238 294.12C190.478 294.12 190.665 294.173 190.798 294.28C190.931 294.387 191.038 294.54 191.118 294.74L193.238 300.22L192.698 300.28L195.278 293.02C195.411 292.593 195.731 292.38 196.238 292.38ZM204.178 301.36C204.058 301.173 204.005 300.96 204.018 300.72C204.032 300.467 204.172 300.253 204.438 300.08C204.625 299.96 204.818 299.913 205.018 299.94C205.232 299.953 205.432 300.053 205.618 300.24C205.992 300.653 206.405 300.98 206.858 301.22C207.325 301.46 207.885 301.58 208.538 301.58C208.805 301.567 209.078 301.527 209.358 301.46C209.638 301.38 209.878 301.247 210.078 301.06C210.278 300.86 210.378 300.573 210.378 300.2C210.378 299.867 210.272 299.6 210.058 299.4C209.845 299.2 209.565 299.04 209.218 298.92C208.872 298.787 208.498 298.667 208.098 298.56C207.672 298.44 207.238 298.307 206.798 298.16C206.372 298.013 205.985 297.827 205.638 297.6C205.292 297.36 205.005 297.053 204.778 296.68C204.565 296.307 204.458 295.847 204.458 295.3C204.458 294.673 204.632 294.133 204.978 293.68C205.338 293.227 205.798 292.873 206.358 292.62C206.932 292.367 207.552 292.24 208.218 292.24C208.605 292.24 209.012 292.293 209.438 292.4C209.865 292.493 210.278 292.647 210.678 292.86C211.078 293.073 211.425 293.353 211.718 293.7C211.852 293.873 211.925 294.08 211.938 294.32C211.965 294.56 211.858 294.773 211.618 294.96C211.458 295.093 211.265 295.153 211.038 295.14C210.812 295.127 210.625 295.053 210.478 294.92C210.225 294.6 209.898 294.353 209.498 294.18C209.098 293.993 208.645 293.9 208.138 293.9C207.885 293.9 207.618 293.94 207.338 294.02C207.072 294.087 206.845 294.213 206.658 294.4C206.472 294.587 206.378 294.86 206.378 295.22C206.378 295.553 206.485 295.82 206.698 296.02C206.925 296.22 207.218 296.387 207.578 296.52C207.938 296.653 208.332 296.773 208.758 296.88C209.172 296.987 209.578 297.113 209.978 297.26C210.392 297.407 210.758 297.6 211.078 297.84C211.412 298.067 211.678 298.367 211.878 298.74C212.092 299.1 212.198 299.56 212.198 300.12C212.198 300.773 212.005 301.333 211.618 301.8C211.245 302.253 210.765 302.6 210.178 302.84C209.605 303.08 208.998 303.2 208.358 303.2C207.598 303.2 206.838 303.067 206.078 302.8C205.332 302.52 204.698 302.04 204.178 301.36ZM218.929 292.24C219.649 292.24 220.283 292.32 220.829 292.48C221.389 292.627 221.829 292.84 222.149 293.12C222.469 293.387 222.629 293.7 222.629 294.06C222.629 294.287 222.556 294.5 222.409 294.7C222.276 294.887 222.083 294.98 221.829 294.98C221.629 294.98 221.463 294.947 221.329 294.88C221.209 294.813 221.096 294.733 220.989 294.64C220.883 294.547 220.749 294.453 220.589 294.36C220.443 294.28 220.223 294.213 219.929 294.16C219.649 294.107 219.396 294.08 219.169 294.08C218.463 294.08 217.849 294.24 217.329 294.56C216.823 294.88 216.423 295.313 216.129 295.86C215.849 296.407 215.709 297.027 215.709 297.72C215.709 298.413 215.849 299.033 216.129 299.58C216.423 300.127 216.816 300.56 217.309 300.88C217.816 301.2 218.403 301.36 219.069 301.36C219.469 301.36 219.796 301.333 220.049 301.28C220.316 301.213 220.536 301.133 220.709 301.04C220.923 300.92 221.096 300.8 221.229 300.68C221.363 300.547 221.556 300.48 221.809 300.48C222.103 300.48 222.323 300.573 222.469 300.76C222.629 300.933 222.709 301.153 222.709 301.42C222.709 301.713 222.529 302 222.169 302.28C221.823 302.547 221.356 302.767 220.769 302.94C220.183 303.113 219.536 303.2 218.829 303.2C217.789 303.2 216.883 302.96 216.109 302.48C215.349 302 214.756 301.347 214.329 300.52C213.916 299.693 213.709 298.76 213.709 297.72C213.709 296.667 213.929 295.733 214.369 294.92C214.809 294.093 215.423 293.44 216.209 292.96C216.996 292.48 217.903 292.24 218.929 292.24ZM229.942 292.3C230.862 292.3 231.576 292.5 232.082 292.9C232.589 293.287 232.942 293.813 233.142 294.48C233.356 295.147 233.462 295.88 233.462 296.68V301.98C233.462 302.273 233.362 302.52 233.162 302.72C232.976 302.907 232.742 303 232.462 303C232.169 303 231.929 302.907 231.742 302.72C231.556 302.52 231.462 302.273 231.462 301.98V296.68C231.462 296.213 231.396 295.787 231.262 295.4C231.142 295.013 230.922 294.707 230.602 294.48C230.296 294.253 229.862 294.14 229.302 294.14C228.782 294.14 228.316 294.253 227.902 294.48C227.502 294.707 227.189 295.013 226.962 295.4C226.749 295.787 226.642 296.213 226.642 296.68V301.98C226.642 302.273 226.542 302.52 226.342 302.72C226.156 302.907 225.922 303 225.642 303C225.349 303 225.109 302.907 224.922 302.72C224.736 302.52 224.642 302.273 224.642 301.98V289.22C224.642 288.927 224.736 288.687 224.922 288.5C225.109 288.3 225.349 288.2 225.642 288.2C225.922 288.2 226.156 288.3 226.342 288.5C226.542 288.687 226.642 288.927 226.642 289.22V294.68L226.282 294.88C226.376 294.587 226.529 294.287 226.742 293.98C226.969 293.673 227.242 293.393 227.562 293.14C227.896 292.887 228.262 292.687 228.662 292.54C229.062 292.38 229.489 292.3 229.942 292.3ZM241.044 303.2C239.95 303.2 238.99 302.973 238.164 302.52C237.35 302.053 236.717 301.42 236.264 300.62C235.824 299.807 235.604 298.88 235.604 297.84C235.604 296.667 235.837 295.667 236.304 294.84C236.784 294 237.404 293.36 238.164 292.92C238.937 292.467 239.75 292.24 240.604 292.24C241.244 292.24 241.857 292.373 242.444 292.64C243.044 292.893 243.57 293.253 244.024 293.72C244.477 294.173 244.837 294.713 245.104 295.34C245.37 295.953 245.51 296.627 245.524 297.36C245.51 297.627 245.404 297.847 245.204 298.02C245.004 298.193 244.77 298.28 244.504 298.28H236.744L236.264 296.58H243.784L243.404 296.94V296.44C243.364 295.973 243.204 295.567 242.924 295.22C242.644 294.86 242.297 294.587 241.884 294.4C241.484 294.2 241.057 294.1 240.604 294.1C240.204 294.1 239.817 294.167 239.444 294.3C239.07 294.42 238.744 294.62 238.464 294.9C238.184 295.18 237.957 295.553 237.784 296.02C237.61 296.473 237.524 297.04 237.524 297.72C237.524 298.453 237.677 299.093 237.984 299.64C238.29 300.187 238.704 300.613 239.224 300.92C239.744 301.213 240.324 301.36 240.964 301.36C241.444 301.36 241.844 301.313 242.164 301.22C242.484 301.113 242.75 300.987 242.964 300.84C243.177 300.693 243.364 300.553 243.524 300.42C243.737 300.3 243.937 300.24 244.124 300.24C244.364 300.24 244.564 300.327 244.724 300.5C244.884 300.66 244.964 300.853 244.964 301.08C244.964 301.373 244.817 301.64 244.524 301.88C244.164 302.227 243.664 302.533 243.024 302.8C242.397 303.067 241.737 303.2 241.044 303.2ZM256.229 288.2C256.509 288.2 256.742 288.293 256.929 288.48C257.129 288.667 257.229 288.913 257.229 289.22V301.98C257.229 302.273 257.129 302.52 256.929 302.72C256.742 302.907 256.509 303 256.229 303C255.936 303 255.696 302.907 255.509 302.72C255.322 302.52 255.229 302.273 255.229 301.98V300.54L255.629 300.56C255.629 300.8 255.529 301.073 255.329 301.38C255.142 301.673 254.882 301.96 254.549 302.24C254.216 302.52 253.822 302.753 253.369 302.94C252.916 303.113 252.429 303.2 251.909 303.2C251.002 303.2 250.176 302.967 249.429 302.5C248.696 302.02 248.116 301.373 247.689 300.56C247.262 299.733 247.049 298.787 247.049 297.72C247.049 296.653 247.262 295.713 247.689 294.9C248.116 294.073 248.689 293.427 249.409 292.96C250.142 292.48 250.956 292.24 251.849 292.24C252.409 292.24 252.929 292.333 253.409 292.52C253.902 292.707 254.329 292.947 254.689 293.24C255.049 293.533 255.329 293.847 255.529 294.18C255.742 294.5 255.849 294.807 255.849 295.1L255.229 295.16V289.22C255.229 288.927 255.322 288.687 255.509 288.5C255.696 288.3 255.936 288.2 256.229 288.2ZM252.149 301.36C252.776 301.36 253.322 301.2 253.789 300.88C254.269 300.56 254.642 300.127 254.909 299.58C255.176 299.033 255.309 298.413 255.309 297.72C255.309 297.027 255.176 296.407 254.909 295.86C254.642 295.313 254.269 294.88 253.789 294.56C253.322 294.24 252.776 294.08 252.149 294.08C251.536 294.08 250.989 294.24 250.509 294.56C250.029 294.88 249.656 295.313 249.389 295.86C249.122 296.407 248.989 297.027 248.989 297.72C248.989 298.413 249.122 299.033 249.389 299.58C249.656 300.127 250.029 300.56 250.509 300.88C250.989 301.2 251.536 301.36 252.149 301.36ZM268.166 292.48C268.446 292.48 268.679 292.58 268.866 292.78C269.066 292.967 269.166 293.207 269.166 293.5V298.76C269.166 300.147 268.779 301.233 268.006 302.02C267.232 302.793 266.139 303.18 264.726 303.18C263.326 303.18 262.239 302.793 261.466 302.02C260.706 301.233 260.326 300.147 260.326 298.76V293.5C260.326 293.207 260.419 292.967 260.606 292.78C260.792 292.58 261.032 292.48 261.326 292.48C261.606 292.48 261.839 292.58 262.026 292.78C262.226 292.967 262.326 293.207 262.326 293.5V298.76C262.326 299.627 262.526 300.273 262.926 300.7C263.339 301.127 263.939 301.34 264.726 301.34C265.526 301.34 266.132 301.127 266.546 300.7C266.959 300.273 267.166 299.627 267.166 298.76V293.5C267.166 293.207 267.259 292.967 267.446 292.78C267.632 292.58 267.872 292.48 268.166 292.48ZM274.107 301.98C274.107 302.273 274.007 302.52 273.807 302.72C273.62 302.907 273.387 303 273.107 303C272.827 303 272.587 302.907 272.387 302.72C272.2 302.52 272.107 302.273 272.107 301.98V289.22C272.107 288.927 272.207 288.687 272.407 288.5C272.607 288.3 272.847 288.2 273.127 288.2C273.42 288.2 273.654 288.3 273.827 288.5C274.014 288.687 274.107 288.927 274.107 289.22V301.98ZM281.688 303.2C280.595 303.2 279.635 302.973 278.808 302.52C277.995 302.053 277.362 301.42 276.908 300.62C276.468 299.807 276.248 298.88 276.248 297.84C276.248 296.667 276.482 295.667 276.948 294.84C277.428 294 278.048 293.36 278.808 292.92C279.582 292.467 280.395 292.24 281.248 292.24C281.888 292.24 282.502 292.373 283.088 292.64C283.688 292.893 284.215 293.253 284.668 293.72C285.122 294.173 285.482 294.713 285.748 295.34C286.015 295.953 286.155 296.627 286.168 297.36C286.155 297.627 286.048 297.847 285.848 298.02C285.648 298.193 285.415 298.28 285.148 298.28H277.388L276.908 296.58H284.428L284.048 296.94V296.44C284.008 295.973 283.848 295.567 283.568 295.22C283.288 294.86 282.942 294.587 282.528 294.4C282.128 294.2 281.702 294.1 281.248 294.1C280.848 294.1 280.462 294.167 280.088 294.3C279.715 294.42 279.388 294.62 279.108 294.9C278.828 295.18 278.602 295.553 278.428 296.02C278.255 296.473 278.168 297.04 278.168 297.72C278.168 298.453 278.322 299.093 278.628 299.64C278.935 300.187 279.348 300.613 279.868 300.92C280.388 301.213 280.968 301.36 281.608 301.36C282.088 301.36 282.488 301.313 282.808 301.22C283.128 301.113 283.395 300.987 283.608 300.84C283.822 300.693 284.008 300.553 284.168 300.42C284.382 300.3 284.582 300.24 284.768 300.24C285.008 300.24 285.208 300.327 285.368 300.5C285.528 300.66 285.608 300.853 285.608 301.08C285.608 301.373 285.462 301.64 285.168 301.88C284.808 302.227 284.308 302.533 283.668 302.8C283.042 303.067 282.382 303.2 281.688 303.2ZM296.874 288.2C297.154 288.2 297.387 288.293 297.574 288.48C297.774 288.667 297.874 288.913 297.874 289.22V301.98C297.874 302.273 297.774 302.52 297.574 302.72C297.387 302.907 297.154 303 296.874 303C296.58 303 296.34 302.907 296.154 302.72C295.967 302.52 295.874 302.273 295.874 301.98V300.54L296.274 300.56C296.274 300.8 296.174 301.073 295.974 301.38C295.787 301.673 295.527 301.96 295.194 302.24C294.86 302.52 294.467 302.753 294.014 302.94C293.56 303.113 293.074 303.2 292.554 303.2C291.647 303.2 290.82 302.967 290.074 302.5C289.34 302.02 288.76 301.373 288.334 300.56C287.907 299.733 287.694 298.787 287.694 297.72C287.694 296.653 287.907 295.713 288.334 294.9C288.76 294.073 289.334 293.427 290.054 292.96C290.787 292.48 291.6 292.24 292.494 292.24C293.054 292.24 293.574 292.333 294.054 292.52C294.547 292.707 294.974 292.947 295.334 293.24C295.694 293.533 295.974 293.847 296.174 294.18C296.387 294.5 296.494 294.807 296.494 295.1L295.874 295.16V289.22C295.874 288.927 295.967 288.687 296.154 288.5C296.34 288.3 296.58 288.2 296.874 288.2ZM292.794 301.36C293.42 301.36 293.967 301.2 294.434 300.88C294.914 300.56 295.287 300.127 295.554 299.58C295.82 299.033 295.954 298.413 295.954 297.72C295.954 297.027 295.82 296.407 295.554 295.86C295.287 295.313 294.914 294.88 294.434 294.56C293.967 294.24 293.42 294.08 292.794 294.08C292.18 294.08 291.634 294.24 291.154 294.56C290.674 294.88 290.3 295.313 290.034 295.86C289.767 296.407 289.634 297.027 289.634 297.72C289.634 298.413 289.767 299.033 290.034 299.58C290.3 300.127 290.674 300.56 291.154 300.88C291.634 301.2 292.18 301.36 292.794 301.36Z" fill="black"/>
<circle cx="40" cy="552" r="40" fill="#585858"/>
<path d="M39.5003 524.417C24.5503 524.417 12.417 536.55 12.417 551.5C12.417 566.45 24.5503 578.583 39.5003 578.583C54.4503 578.583 66.5837 566.45 66.5837 551.5C66.5837 536.55 54.4503 524.417 39.5003 524.417ZM39.5003 573.167C27.5566 573.167 17.8337 563.444 17.8337 551.5C17.8337 539.556 27.5566 529.833 39.5003 529.833C51.4441 529.833 61.167 539.556 61.167 551.5C61.167 563.444 51.4441 573.167 39.5003 573.167ZM51.9316 539.529L34.0837 557.377L27.0691 550.39L23.2503 554.208L34.0837 565.042L55.7503 543.375L51.9316 539.529Z" fill="white"/>
<path d="M117.26 545C117.967 545 118.62 545.193 119.22 545.58C119.82 545.953 120.3 546.467 120.66 547.12C121.02 547.773 121.2 548.507 121.2 549.32C121.2 550.133 121.02 550.873 120.66 551.54C120.3 552.193 119.82 552.72 119.22 553.12C118.62 553.507 117.967 553.7 117.26 553.7H113.4L113.56 553.38V557.98C113.56 558.273 113.467 558.52 113.28 558.72C113.107 558.907 112.873 559 112.58 559C112.3 559 112.067 558.907 111.88 558.72C111.707 558.52 111.62 558.273 111.62 557.98V546.02C111.62 545.727 111.72 545.487 111.92 545.3C112.12 545.1 112.36 545 112.64 545H117.26ZM117.26 551.78C117.607 551.78 117.92 551.667 118.2 551.44C118.493 551.213 118.727 550.913 118.9 550.54C119.087 550.167 119.18 549.76 119.18 549.32C119.18 548.88 119.087 548.48 118.9 548.12C118.727 547.76 118.493 547.473 118.2 547.26C117.92 547.033 117.607 546.92 117.26 546.92H113.36L113.56 546.62V552.04L113.38 551.78H117.26ZM124.412 559C124.118 559 123.878 558.907 123.692 558.72C123.505 558.52 123.412 558.273 123.412 557.98V549.5C123.412 549.207 123.505 548.967 123.692 548.78C123.878 548.58 124.118 548.48 124.412 548.48C124.692 548.48 124.925 548.58 125.112 548.78C125.312 548.967 125.412 549.207 125.412 549.5V551.74L125.212 550.88C125.318 550.507 125.478 550.16 125.692 549.84C125.918 549.52 126.185 549.24 126.492 549C126.798 548.76 127.138 548.573 127.512 548.44C127.898 548.307 128.298 548.24 128.712 548.24C129.058 548.24 129.358 548.333 129.612 548.52C129.865 548.707 129.992 548.94 129.992 549.22C129.992 549.58 129.898 549.847 129.712 550.02C129.525 550.18 129.318 550.26 129.092 550.26C128.892 550.26 128.698 550.22 128.512 550.14C128.325 550.047 128.105 550 127.852 550C127.572 550 127.285 550.073 126.992 550.22C126.698 550.367 126.432 550.587 126.192 550.88C125.952 551.16 125.758 551.493 125.612 551.88C125.478 552.267 125.412 552.7 125.412 553.18V557.98C125.412 558.273 125.312 558.52 125.112 558.72C124.925 558.907 124.692 559 124.412 559ZM141.322 553.74C141.322 554.807 141.082 555.753 140.602 556.58C140.135 557.393 139.502 558.033 138.702 558.5C137.902 558.967 137.002 559.2 136.002 559.2C135.015 559.2 134.115 558.967 133.302 558.5C132.502 558.033 131.862 557.393 131.382 556.58C130.915 555.753 130.682 554.807 130.682 553.74C130.682 552.66 130.915 551.713 131.382 550.9C131.862 550.073 132.502 549.427 133.302 548.96C134.115 548.48 135.015 548.24 136.002 548.24C137.002 548.24 137.902 548.48 138.702 548.96C139.502 549.427 140.135 550.073 140.602 550.9C141.082 551.713 141.322 552.66 141.322 553.74ZM139.322 553.74C139.322 553.007 139.175 552.373 138.882 551.84C138.589 551.293 138.189 550.867 137.682 550.56C137.189 550.24 136.629 550.08 136.002 550.08C135.389 550.08 134.829 550.24 134.322 550.56C133.829 550.867 133.429 551.293 133.122 551.84C132.829 552.373 132.682 553.007 132.682 553.74C132.682 554.447 132.829 555.073 133.122 555.62C133.429 556.167 133.829 556.593 134.322 556.9C134.829 557.207 135.389 557.36 136.002 557.36C136.629 557.36 137.189 557.207 137.682 556.9C138.189 556.593 138.589 556.167 138.882 555.62C139.175 555.073 139.322 554.447 139.322 553.74ZM148.39 544.22C148.643 544.22 148.903 544.253 149.17 544.32C149.437 544.387 149.657 544.5 149.83 544.66C150.017 544.807 150.11 545.013 150.11 545.28C150.11 545.547 150.03 545.767 149.87 545.94C149.71 546.1 149.523 546.18 149.31 546.18C149.177 546.18 148.997 546.153 148.77 546.1C148.543 546.033 148.317 546 148.09 546C147.783 546 147.537 546.073 147.35 546.22C147.163 546.353 147.03 546.527 146.95 546.74C146.87 546.94 146.83 547.14 146.83 547.34V557.98C146.83 558.273 146.73 558.52 146.53 558.72C146.343 558.907 146.11 559 145.83 559C145.537 559 145.297 558.907 145.11 558.72C144.923 558.52 144.83 558.273 144.83 557.98V547.36C144.83 546.44 145.13 545.687 145.73 545.1C146.343 544.513 147.23 544.22 148.39 544.22ZM148.79 548.66C149.057 548.66 149.277 548.747 149.45 548.92C149.623 549.093 149.71 549.313 149.71 549.58C149.71 549.847 149.623 550.067 149.45 550.24C149.277 550.413 149.057 550.5 148.79 550.5H143.61C143.357 550.5 143.137 550.413 142.95 550.24C142.777 550.067 142.69 549.847 142.69 549.58C142.69 549.313 142.777 549.093 142.95 548.92C143.137 548.747 143.357 548.66 143.61 548.66H148.79ZM153.29 557.98C153.29 558.273 153.197 558.52 153.01 558.72C152.823 558.907 152.583 559 152.29 559C152.01 559 151.77 558.907 151.57 558.72C151.383 558.52 151.29 558.273 151.29 557.98V549.42C151.29 549.127 151.383 548.887 151.57 548.7C151.77 548.5 152.01 548.4 152.29 548.4C152.583 548.4 152.823 548.5 153.01 548.7C153.197 548.887 153.29 549.127 153.29 549.42V557.98ZM152.27 547.08C151.883 547.08 151.603 547.013 151.43 546.88C151.257 546.733 151.17 546.493 151.17 546.16V545.84C151.17 545.507 151.263 545.273 151.45 545.14C151.637 545.007 151.917 544.94 152.29 544.94C152.69 544.94 152.977 545.013 153.15 545.16C153.323 545.293 153.41 545.52 153.41 545.84V546.16C153.41 546.507 153.317 546.747 153.13 546.88C152.957 547.013 152.67 547.08 152.27 547.08ZM158.13 557.98C158.13 558.273 158.03 558.52 157.83 558.72C157.644 558.907 157.41 559 157.13 559C156.85 559 156.61 558.907 156.41 558.72C156.224 558.52 156.13 558.273 156.13 557.98V545.22C156.13 544.927 156.23 544.687 156.43 544.5C156.63 544.3 156.87 544.2 157.15 544.2C157.444 544.2 157.677 544.3 157.85 544.5C158.037 544.687 158.13 544.927 158.13 545.22V557.98ZM165.712 559.2C164.618 559.2 163.658 558.973 162.832 558.52C162.018 558.053 161.385 557.42 160.932 556.62C160.492 555.807 160.272 554.88 160.272 553.84C160.272 552.667 160.505 551.667 160.972 550.84C161.452 550 162.072 549.36 162.832 548.92C163.605 548.467 164.418 548.24 165.272 548.24C165.912 548.24 166.525 548.373 167.112 548.64C167.712 548.893 168.238 549.253 168.692 549.72C169.145 550.173 169.505 550.713 169.772 551.34C170.038 551.953 170.178 552.627 170.192 553.36C170.178 553.627 170.072 553.847 169.872 554.02C169.672 554.193 169.438 554.28 169.172 554.28H161.412L160.932 552.58H168.452L168.072 552.94V552.44C168.032 551.973 167.872 551.567 167.592 551.22C167.312 550.86 166.965 550.587 166.552 550.4C166.152 550.2 165.725 550.1 165.272 550.1C164.872 550.1 164.485 550.167 164.112 550.3C163.738 550.42 163.412 550.62 163.132 550.9C162.852 551.18 162.625 551.553 162.452 552.02C162.278 552.473 162.192 553.04 162.192 553.72C162.192 554.453 162.345 555.093 162.652 555.64C162.958 556.187 163.372 556.613 163.892 556.92C164.412 557.213 164.992 557.36 165.632 557.36C166.112 557.36 166.512 557.313 166.832 557.22C167.152 557.113 167.418 556.987 167.632 556.84C167.845 556.693 168.032 556.553 168.192 556.42C168.405 556.3 168.605 556.24 168.792 556.24C169.032 556.24 169.232 556.327 169.392 556.5C169.552 556.66 169.632 556.853 169.632 557.08C169.632 557.373 169.485 557.64 169.192 557.88C168.832 558.227 168.332 558.533 167.692 558.8C167.065 559.067 166.405 559.2 165.712 559.2ZM182.503 548.24C183.223 548.24 183.857 548.32 184.403 548.48C184.963 548.627 185.403 548.84 185.723 549.12C186.043 549.387 186.203 549.7 186.203 550.06C186.203 550.287 186.13 550.5 185.983 550.7C185.85 550.887 185.657 550.98 185.403 550.98C185.203 550.98 185.037 550.947 184.903 550.88C184.783 550.813 184.67 550.733 184.563 550.64C184.457 550.547 184.323 550.453 184.163 550.36C184.017 550.28 183.797 550.213 183.503 550.16C183.223 550.107 182.97 550.08 182.743 550.08C182.037 550.08 181.423 550.24 180.903 550.56C180.397 550.88 179.997 551.313 179.703 551.86C179.423 552.407 179.283 553.027 179.283 553.72C179.283 554.413 179.423 555.033 179.703 555.58C179.997 556.127 180.39 556.56 180.883 556.88C181.39 557.2 181.977 557.36 182.643 557.36C183.043 557.36 183.37 557.333 183.623 557.28C183.89 557.213 184.11 557.133 184.283 557.04C184.497 556.92 184.67 556.8 184.803 556.68C184.937 556.547 185.13 556.48 185.383 556.48C185.677 556.48 185.897 556.573 186.043 556.76C186.203 556.933 186.283 557.153 186.283 557.42C186.283 557.713 186.103 558 185.743 558.28C185.397 558.547 184.93 558.767 184.343 558.94C183.757 559.113 183.11 559.2 182.403 559.2C181.363 559.2 180.457 558.96 179.683 558.48C178.923 558 178.33 557.347 177.903 556.52C177.49 555.693 177.283 554.76 177.283 553.72C177.283 552.667 177.503 551.733 177.943 550.92C178.383 550.093 178.997 549.44 179.783 548.96C180.57 548.48 181.477 548.24 182.503 548.24ZM198.216 553.74C198.216 554.807 197.976 555.753 197.496 556.58C197.03 557.393 196.396 558.033 195.596 558.5C194.796 558.967 193.896 559.2 192.896 559.2C191.91 559.2 191.01 558.967 190.196 558.5C189.396 558.033 188.756 557.393 188.276 556.58C187.81 555.753 187.576 554.807 187.576 553.74C187.576 552.66 187.81 551.713 188.276 550.9C188.756 550.073 189.396 549.427 190.196 548.96C191.01 548.48 191.91 548.24 192.896 548.24C193.896 548.24 194.796 548.48 195.596 548.96C196.396 549.427 197.03 550.073 197.496 550.9C197.976 551.713 198.216 552.66 198.216 553.74ZM196.216 553.74C196.216 553.007 196.07 552.373 195.776 551.84C195.483 551.293 195.083 550.867 194.576 550.56C194.083 550.24 193.523 550.08 192.896 550.08C192.283 550.08 191.723 550.24 191.216 550.56C190.723 550.867 190.323 551.293 190.016 551.84C189.723 552.373 189.576 553.007 189.576 553.74C189.576 554.447 189.723 555.073 190.016 555.62C190.323 556.167 190.723 556.593 191.216 556.9C191.723 557.207 192.283 557.36 192.896 557.36C193.523 557.36 194.083 557.207 194.576 556.9C195.083 556.593 195.483 556.167 195.776 555.62C196.07 555.073 196.216 554.447 196.216 553.74ZM205.664 548.3C206.651 548.3 207.411 548.547 207.944 549.04C208.478 549.52 208.831 550.173 209.004 551L208.684 550.9L208.824 550.58C208.998 550.233 209.258 549.887 209.604 549.54C209.964 549.18 210.391 548.887 210.884 548.66C211.378 548.42 211.904 548.3 212.464 548.3C213.384 548.3 214.098 548.5 214.604 548.9C215.111 549.287 215.464 549.813 215.664 550.48C215.864 551.133 215.964 551.867 215.964 552.68V557.98C215.964 558.273 215.871 558.52 215.684 558.72C215.498 558.907 215.258 559 214.964 559C214.684 559 214.444 558.907 214.244 558.72C214.058 558.52 213.964 558.273 213.964 557.98V552.7C213.964 552.233 213.898 551.807 213.764 551.42C213.644 551.033 213.424 550.727 213.104 550.5C212.798 550.26 212.371 550.14 211.824 550.14C211.304 550.14 210.838 550.26 210.424 550.5C210.024 550.727 209.711 551.033 209.484 551.42C209.258 551.807 209.144 552.233 209.144 552.7V557.98C209.144 558.273 209.051 558.52 208.864 558.72C208.678 558.907 208.438 559 208.144 559C207.851 559 207.611 558.907 207.424 558.72C207.238 558.52 207.144 558.273 207.144 557.98V552.68C207.144 552.213 207.078 551.787 206.944 551.4C206.824 551.013 206.611 550.707 206.304 550.48C205.998 550.253 205.571 550.14 205.024 550.14C204.504 550.14 204.044 550.253 203.644 550.48C203.244 550.707 202.931 551.013 202.704 551.4C202.491 551.787 202.384 552.213 202.384 552.68V557.98C202.384 558.273 202.284 558.52 202.084 558.72C201.898 558.907 201.664 559 201.384 559C201.091 559 200.851 558.907 200.664 558.72C200.478 558.52 200.384 558.273 200.384 557.98V549.5C200.384 549.207 200.478 548.967 200.664 548.78C200.851 548.58 201.091 548.48 201.384 548.48C201.664 548.48 201.898 548.58 202.084 548.78C202.284 548.967 202.384 549.207 202.384 549.5V550.68L202.004 550.9C202.098 550.607 202.251 550.307 202.464 550C202.678 549.693 202.944 549.413 203.264 549.16C203.598 548.907 203.964 548.7 204.364 548.54C204.764 548.38 205.198 548.3 205.664 548.3ZM224.063 548.3C224.997 548.3 225.823 548.533 226.543 549C227.277 549.467 227.857 550.107 228.283 550.92C228.71 551.72 228.923 552.653 228.923 553.72C228.923 554.787 228.71 555.733 228.283 556.56C227.857 557.373 227.283 558.013 226.563 558.48C225.843 558.947 225.03 559.18 224.123 559.18C223.617 559.18 223.137 559.1 222.683 558.94C222.23 558.78 221.83 558.573 221.483 558.32C221.137 558.053 220.85 557.773 220.623 557.48C220.41 557.187 220.277 556.913 220.223 556.66L220.763 556.4V561.98C220.763 562.273 220.663 562.513 220.463 562.7C220.277 562.9 220.043 563 219.763 563C219.47 563 219.23 562.9 219.043 562.7C218.857 562.513 218.763 562.273 218.763 561.98V549.46C218.763 549.18 218.857 548.94 219.043 548.74C219.23 548.54 219.47 548.44 219.763 548.44C220.043 548.44 220.277 548.54 220.463 548.74C220.663 548.94 220.763 549.18 220.763 549.46V550.84L220.443 550.66C220.483 550.407 220.61 550.147 220.823 549.88C221.037 549.6 221.303 549.34 221.623 549.1C221.957 548.86 222.33 548.667 222.743 548.52C223.17 548.373 223.61 548.3 224.063 548.3ZM223.843 550.14C223.203 550.14 222.643 550.3 222.163 550.62C221.697 550.927 221.33 551.347 221.063 551.88C220.797 552.413 220.663 553.027 220.663 553.72C220.663 554.4 220.797 555.02 221.063 555.58C221.33 556.127 221.697 556.56 222.163 556.88C222.643 557.187 223.203 557.34 223.843 557.34C224.47 557.34 225.017 557.187 225.483 556.88C225.95 556.56 226.317 556.127 226.583 555.58C226.863 555.02 227.003 554.4 227.003 553.72C227.003 553.04 226.863 552.433 226.583 551.9C226.317 551.353 225.95 550.927 225.483 550.62C225.017 550.3 224.47 550.14 223.843 550.14ZM233.248 557.98C233.248 558.273 233.148 558.52 232.948 558.72C232.761 558.907 232.528 559 232.248 559C231.968 559 231.728 558.907 231.528 558.72C231.341 558.52 231.248 558.273 231.248 557.98V545.22C231.248 544.927 231.348 544.687 231.548 544.5C231.748 544.3 231.988 544.2 232.268 544.2C232.561 544.2 232.794 544.3 232.968 544.5C233.154 544.687 233.248 544.927 233.248 545.22V557.98ZM240.829 559.2C239.736 559.2 238.776 558.973 237.949 558.52C237.136 558.053 236.502 557.42 236.049 556.62C235.609 555.807 235.389 554.88 235.389 553.84C235.389 552.667 235.622 551.667 236.089 550.84C236.569 550 237.189 549.36 237.949 548.92C238.722 548.467 239.536 548.24 240.389 548.24C241.029 548.24 241.642 548.373 242.229 548.64C242.829 548.893 243.356 549.253 243.809 549.72C244.262 550.173 244.622 550.713 244.889 551.34C245.156 551.953 245.296 552.627 245.309 553.36C245.296 553.627 245.189 553.847 244.989 554.02C244.789 554.193 244.556 554.28 244.289 554.28H236.529L236.049 552.58H243.569L243.189 552.94V552.44C243.149 551.973 242.989 551.567 242.709 551.22C242.429 550.86 242.082 550.587 241.669 550.4C241.269 550.2 240.842 550.1 240.389 550.1C239.989 550.1 239.602 550.167 239.229 550.3C238.856 550.42 238.529 550.62 238.249 550.9C237.969 551.18 237.742 551.553 237.569 552.02C237.396 552.473 237.309 553.04 237.309 553.72C237.309 554.453 237.462 555.093 237.769 555.64C238.076 556.187 238.489 556.613 239.009 556.92C239.529 557.213 240.109 557.36 240.749 557.36C241.229 557.36 241.629 557.313 241.949 557.22C242.269 557.113 242.536 556.987 242.749 556.84C242.962 556.693 243.149 556.553 243.309 556.42C243.522 556.3 243.722 556.24 243.909 556.24C244.149 556.24 244.349 556.327 244.509 556.5C244.669 556.66 244.749 556.853 244.749 557.08C244.749 557.373 244.602 557.64 244.309 557.88C243.949 558.227 243.449 558.533 242.809 558.8C242.182 559.067 241.522 559.2 240.829 559.2ZM247.334 548.6H252.034C252.301 548.6 252.521 548.693 252.694 548.88C252.881 549.053 252.974 549.273 252.974 549.54C252.974 549.793 252.881 550.007 252.694 550.18C252.521 550.353 252.301 550.44 252.034 550.44H247.334C247.068 550.44 246.841 550.353 246.654 550.18C246.481 549.993 246.394 549.773 246.394 549.52C246.394 549.253 246.481 549.033 246.654 548.86C246.841 548.687 247.068 548.6 247.334 548.6ZM249.434 546C249.728 546 249.968 546.1 250.154 546.3C250.341 546.487 250.434 546.727 250.434 547.02V556.3C250.434 556.54 250.474 556.733 250.554 556.88C250.634 557.027 250.741 557.127 250.874 557.18C251.021 557.233 251.168 557.26 251.314 557.26C251.461 557.26 251.588 557.233 251.694 557.18C251.814 557.127 251.954 557.1 252.114 557.1C252.274 557.1 252.421 557.173 252.554 557.32C252.688 557.467 252.754 557.667 252.754 557.92C252.754 558.24 252.581 558.5 252.234 558.7C251.888 558.9 251.514 559 251.114 559C250.888 559 250.621 558.98 250.314 558.94C250.008 558.9 249.708 558.8 249.414 558.64C249.134 558.48 248.901 558.227 248.714 557.88C248.528 557.52 248.434 557.02 248.434 556.38V547.02C248.434 546.727 248.528 546.487 248.714 546.3C248.914 546.1 249.154 546 249.434 546ZM259.891 559.2C258.798 559.2 257.838 558.973 257.011 558.52C256.198 558.053 255.565 557.42 255.111 556.62C254.671 555.807 254.451 554.88 254.451 553.84C254.451 552.667 254.685 551.667 255.151 550.84C255.631 550 256.251 549.36 257.011 548.92C257.785 548.467 258.598 548.24 259.451 548.24C260.091 548.24 260.705 548.373 261.291 548.64C261.891 548.893 262.418 549.253 262.871 549.72C263.325 550.173 263.685 550.713 263.951 551.34C264.218 551.953 264.358 552.627 264.371 553.36C264.358 553.627 264.251 553.847 264.051 554.02C263.851 554.193 263.618 554.28 263.351 554.28H255.591L255.111 552.58H262.631L262.251 552.94V552.44C262.211 551.973 262.051 551.567 261.771 551.22C261.491 550.86 261.145 550.587 260.731 550.4C260.331 550.2 259.905 550.1 259.451 550.1C259.051 550.1 258.665 550.167 258.291 550.3C257.918 550.42 257.591 550.62 257.311 550.9C257.031 551.18 256.805 551.553 256.631 552.02C256.458 552.473 256.371 553.04 256.371 553.72C256.371 554.453 256.525 555.093 256.831 555.64C257.138 556.187 257.551 556.613 258.071 556.92C258.591 557.213 259.171 557.36 259.811 557.36C260.291 557.36 260.691 557.313 261.011 557.22C261.331 557.113 261.598 556.987 261.811 556.84C262.025 556.693 262.211 556.553 262.371 556.42C262.585 556.3 262.785 556.24 262.971 556.24C263.211 556.24 263.411 556.327 263.571 556.5C263.731 556.66 263.811 556.853 263.811 557.08C263.811 557.373 263.665 557.64 263.371 557.88C263.011 558.227 262.511 558.533 261.871 558.8C261.245 559.067 260.585 559.2 259.891 559.2ZM275.077 544.2C275.357 544.2 275.59 544.293 275.777 544.48C275.977 544.667 276.077 544.913 276.077 545.22V557.98C276.077 558.273 275.977 558.52 275.777 558.72C275.59 558.907 275.357 559 275.077 559C274.783 559 274.543 558.907 274.357 558.72C274.17 558.52 274.077 558.273 274.077 557.98V556.54L274.477 556.56C274.477 556.8 274.377 557.073 274.177 557.38C273.99 557.673 273.73 557.96 273.397 558.24C273.063 558.52 272.67 558.753 272.217 558.94C271.763 559.113 271.277 559.2 270.757 559.2C269.85 559.2 269.023 558.967 268.277 558.5C267.543 558.02 266.963 557.373 266.537 556.56C266.11 555.733 265.897 554.787 265.897 553.72C265.897 552.653 266.11 551.713 266.537 550.9C266.963 550.073 267.537 549.427 268.257 548.96C268.99 548.48 269.803 548.24 270.697 548.24C271.257 548.24 271.777 548.333 272.257 548.52C272.75 548.707 273.177 548.947 273.537 549.24C273.897 549.533 274.177 549.847 274.377 550.18C274.59 550.5 274.697 550.807 274.697 551.1L274.077 551.16V545.22C274.077 544.927 274.17 544.687 274.357 544.5C274.543 544.3 274.783 544.2 275.077 544.2ZM270.997 557.36C271.623 557.36 272.17 557.2 272.637 556.88C273.117 556.56 273.49 556.127 273.757 555.58C274.023 555.033 274.157 554.413 274.157 553.72C274.157 553.027 274.023 552.407 273.757 551.86C273.49 551.313 273.117 550.88 272.637 550.56C272.17 550.24 271.623 550.08 270.997 550.08C270.383 550.08 269.837 550.24 269.357 550.56C268.877 550.88 268.503 551.313 268.237 551.86C267.97 552.407 267.837 553.027 267.837 553.72C267.837 554.413 267.97 555.033 268.237 555.58C268.503 556.127 268.877 556.56 269.357 556.88C269.837 557.2 270.383 557.36 270.997 557.36Z" fill="black"/>
</svg>
