<svg width="311" height="592" viewBox="0 0 311 592" fill="none" xmlns="http://www.w3.org/2000/svg">
<path d="M40 0L40 592" stroke="black" stroke-width="2"/>
<circle cx="40" cy="40" r="40" fill="#AE0168"/>
<path d="M40.4997 19.2229L60.8934 54.4583H20.1059L40.4997 19.2229ZM15.4205 51.75C13.3351 55.3521 15.9351 59.875 20.1059 59.875H60.8934C65.0643 59.875 67.6643 55.3521 65.5788 51.75L45.1851 16.5146C43.0997 12.9125 37.8997 12.9125 35.8143 16.5146L15.4205 51.75ZM37.7913 32.7916V38.2083C37.7913 39.6979 39.0101 40.9166 40.4997 40.9166C41.9893 40.9166 43.208 39.6979 43.208 38.2083V32.7916C43.208 31.3021 41.9893 30.0833 40.4997 30.0833C39.0101 30.0833 37.7913 31.3021 37.7913 32.7916ZM37.7913 46.3333H43.208V51.75H37.7913V46.3333Z" fill="white"/>
<path d="M111.72 45.98C111.707 46.2733 111.593 46.52 111.38 46.72C111.18 46.9067 110.94 47 110.66 47C110.353 47 110.1 46.9067 109.9 46.72C109.713 46.52 109.62 46.2733 109.62 45.98V34.02C109.62 33.7267 109.72 33.4867 109.92 33.3C110.12 33.1 110.38 33 110.7 33C110.967 33 111.2 33.1 111.4 33.3C111.613 33.4867 111.72 33.7267 111.72 34.02V45.98ZM110.74 32.18C110.527 32.18 110.353 32.1267 110.22 32.02C110.1 31.9 110.04 31.7533 110.04 31.58C110.04 31.5 110.06 31.42 110.1 31.34C110.153 31.26 110.22 31.18 110.3 31.1L112.04 29.64C112.16 29.5333 112.293 29.4467 112.44 29.38C112.587 29.3 112.733 29.26 112.88 29.26C113.093 29.26 113.3 29.34 113.5 29.5C113.7 29.6467 113.8 29.8533 113.8 30.12C113.8 30.2933 113.747 30.4667 113.64 30.64C113.533 30.8 113.38 30.9333 113.18 31.04L111.18 32.06C111.113 32.1133 111.04 32.1467 110.96 32.16C110.88 32.1733 110.807 32.18 110.74 32.18ZM125.598 36.24C126.532 36.24 127.358 36.4733 128.078 36.94C128.812 37.4067 129.392 38.0533 129.818 38.88C130.245 39.6933 130.458 40.6333 130.458 41.7C130.458 42.7667 130.245 43.7133 129.818 44.54C129.392 45.3667 128.818 46.02 128.098 46.5C127.378 46.9667 126.565 47.2 125.658 47.2C125.152 47.2 124.672 47.12 124.218 46.96C123.765 46.7867 123.365 46.5733 123.018 46.32C122.672 46.0533 122.385 45.7733 122.158 45.48C121.945 45.1867 121.812 44.9133 121.758 44.66L122.298 44.4V46.14C122.298 46.42 122.198 46.66 121.998 46.86C121.812 47.0467 121.578 47.14 121.298 47.14C121.005 47.14 120.765 47.0467 120.578 46.86C120.392 46.6733 120.298 46.4333 120.298 46.14V33.22C120.298 32.9267 120.392 32.6867 120.578 32.5C120.765 32.3 121.005 32.2 121.298 32.2C121.578 32.2 121.812 32.3 121.998 32.5C122.198 32.6867 122.298 32.9267 122.298 33.22V38.84L121.978 38.66C122.018 38.4067 122.145 38.1467 122.358 37.88C122.572 37.6 122.838 37.3333 123.158 37.08C123.492 36.8267 123.865 36.6267 124.278 36.48C124.705 36.32 125.145 36.24 125.598 36.24ZM125.378 38.08C124.738 38.08 124.178 38.24 123.698 38.56C123.232 38.88 122.865 39.3133 122.598 39.86C122.332 40.3933 122.198 41.0067 122.198 41.7C122.198 42.3933 122.332 43.02 122.598 43.58C122.865 44.1267 123.232 44.56 123.698 44.88C124.178 45.2 124.738 45.36 125.378 45.36C126.005 45.36 126.552 45.2 127.018 44.88C127.485 44.56 127.852 44.12 128.118 43.56C128.398 43 128.538 42.38 128.538 41.7C128.538 41.0067 128.398 40.3933 128.118 39.86C127.852 39.3133 127.485 38.88 127.018 38.56C126.552 38.24 126.005 38.08 125.378 38.08ZM134.503 45.98C134.503 46.2733 134.409 46.52 134.223 46.72C134.036 46.9067 133.796 47 133.503 47C133.223 47 132.983 46.9067 132.783 46.72C132.596 46.52 132.503 46.2733 132.503 45.98V37.42C132.503 37.1267 132.596 36.8867 132.783 36.7C132.983 36.5 133.223 36.4 133.503 36.4C133.796 36.4 134.036 36.5 134.223 36.7C134.409 36.8867 134.503 37.1267 134.503 37.42V45.98ZM133.483 35.08C133.096 35.08 132.816 35.0133 132.643 34.88C132.469 34.7333 132.383 34.4933 132.383 34.16V33.84C132.383 33.5067 132.476 33.2733 132.663 33.14C132.849 33.0067 133.129 32.94 133.503 32.94C133.903 32.94 134.189 33.0133 134.363 33.16C134.536 33.2933 134.623 33.52 134.623 33.84V34.16C134.623 34.5067 134.529 34.7467 134.343 34.88C134.169 35.0133 133.883 35.08 133.483 35.08ZM141.513 47.16C140.606 47.16 139.773 46.92 139.013 46.44C138.266 45.96 137.666 45.3133 137.213 44.5C136.773 43.6733 136.553 42.76 136.553 41.76C136.553 41.0133 136.686 40.32 136.953 39.68C137.22 39.0267 137.58 38.46 138.033 37.98C138.486 37.4867 138.993 37.1067 139.553 36.84C140.113 36.56 140.686 36.42 141.273 36.42C142.006 36.42 142.633 36.5867 143.153 36.92C143.686 37.24 144.113 37.6733 144.433 38.22C144.766 38.7667 145 39.38 145.133 40.06L144.073 39.42C144.046 38.6467 143.94 37.9733 143.753 37.4C143.58 36.8267 143.326 36.3333 142.993 35.92C142.66 35.4933 142.246 35.14 141.753 34.86C141.26 34.58 140.686 34.3533 140.033 34.18C139.78 34.1133 139.566 33.9933 139.393 33.82C139.233 33.6333 139.153 33.42 139.153 33.18C139.153 32.94 139.22 32.72 139.353 32.52C139.5 32.3067 139.72 32.2 140.013 32.2C140.186 32.2 140.353 32.22 140.513 32.26C141.34 32.4867 142.08 32.8267 142.733 33.28C143.386 33.72 143.946 34.2467 144.413 34.86C144.88 35.46 145.266 36.12 145.573 36.84C145.88 37.5467 146.106 38.2867 146.253 39.06C146.4 39.8333 146.473 40.6067 146.473 41.38C146.473 42.5667 146.246 43.5933 145.793 44.46C145.353 45.3267 144.76 45.9933 144.013 46.46C143.28 46.9267 142.446 47.16 141.513 47.16ZM141.513 45.16C142.073 45.16 142.573 45.0133 143.013 44.72C143.466 44.4133 143.82 44 144.073 43.48C144.34 42.96 144.473 42.3867 144.473 41.76C144.473 41.1333 144.34 40.5733 144.073 40.08C143.82 39.5733 143.466 39.1733 143.013 38.88C142.573 38.5733 142.073 38.42 141.513 38.42C140.966 38.42 140.466 38.5667 140.013 38.86C139.56 39.1533 139.2 39.5533 138.933 40.06C138.68 40.5533 138.553 41.12 138.553 41.76C138.553 42.3867 138.686 42.96 138.953 43.48C139.22 44 139.573 44.4133 140.013 44.72C140.466 45.0133 140.966 45.16 141.513 45.16ZM139.593 36.32C139.34 36.36 139.113 36.3467 138.913 36.28C138.726 36.2133 138.606 36.06 138.553 35.82C138.513 35.58 138.553 35.3933 138.673 35.26C138.793 35.1133 138.973 35.0133 139.213 34.96L141.513 34.4L142.633 33.98L144.793 33.52C145.033 33.48 145.246 33.5 145.433 33.58C145.633 33.6467 145.76 33.7933 145.813 34.02C145.866 34.26 145.826 34.4533 145.693 34.6C145.573 34.7467 145.393 34.84 145.153 34.88L143.673 35.2L142.833 35.54L139.593 36.32Z" fill="black"/>
<circle cx="40" cy="296" r="40" fill="#AE0168"/>
<path d="M55.75 287.375L51.9312 283.529L34.0833 301.377L27.0687 294.39L23.25 298.208L34.0833 309.042L55.75 287.375ZM58.4583 271.125H47.1375C46 267.983 43.0208 265.708 39.5 265.708C35.9792 265.708 33 267.983 31.8625 271.125H20.5417C20.1625 271.125 19.8104 271.152 19.4583 271.233C18.4021 271.45 17.4542 271.992 16.7229 272.723C16.2354 273.21 15.8292 273.806 15.5583 274.456C15.2875 275.079 15.125 275.783 15.125 276.542V314.458C15.125 315.19 15.2875 315.921 15.5583 316.571C15.8292 317.221 16.2354 317.79 16.7229 318.304C17.4542 319.035 18.4021 319.577 19.4583 319.794C19.8104 319.848 20.1625 319.875 20.5417 319.875H58.4583C61.4375 319.875 63.875 317.437 63.875 314.458V276.542C63.875 273.562 61.4375 271.125 58.4583 271.125ZM39.5 270.448C40.6104 270.448 41.5312 271.369 41.5312 272.479C41.5312 273.59 40.6104 274.51 39.5 274.51C38.3896 274.51 37.4687 273.59 37.4687 272.479C37.4687 271.369 38.3896 270.448 39.5 270.448ZM58.4583 314.458H20.5417V276.542H58.4583V314.458Z" fill="white"/>
<path d="M121.82 288.96C122.1 288.96 122.34 289.053 122.54 289.24C122.74 289.427 122.84 289.653 122.84 289.92C122.84 290.067 122.807 290.22 122.74 290.38L117.68 302.34C117.573 302.567 117.427 302.733 117.24 302.84C117.067 302.947 116.887 303 116.7 303C116.513 302.987 116.333 302.927 116.16 302.82C116 302.713 115.873 302.56 115.78 302.36L110.72 290.38C110.693 290.313 110.673 290.247 110.66 290.18C110.647 290.1 110.64 290.02 110.64 289.94C110.64 289.633 110.753 289.393 110.98 289.22C111.207 289.047 111.427 288.96 111.64 288.96C112.067 288.96 112.38 289.18 112.58 289.62L117.16 300.48H116.58L120.9 289.6C121.087 289.173 121.393 288.96 121.82 288.96ZM126.757 301.98C126.757 302.273 126.663 302.52 126.477 302.72C126.29 302.907 126.05 303 125.757 303C125.477 303 125.237 302.907 125.037 302.72C124.85 302.52 124.757 302.273 124.757 301.98V293.42C124.757 293.127 124.85 292.887 125.037 292.7C125.237 292.5 125.477 292.4 125.757 292.4C126.05 292.4 126.29 292.5 126.477 292.7C126.663 292.887 126.757 293.127 126.757 293.42V301.98ZM125.737 291.08C125.35 291.08 125.07 291.013 124.897 290.88C124.723 290.733 124.637 290.493 124.637 290.16V289.84C124.637 289.507 124.73 289.273 124.917 289.14C125.103 289.007 125.383 288.94 125.757 288.94C126.157 288.94 126.443 289.013 126.617 289.16C126.79 289.293 126.877 289.52 126.877 289.84V290.16C126.877 290.507 126.783 290.747 126.597 290.88C126.423 291.013 126.137 291.08 125.737 291.08ZM133.767 303.16C132.86 303.16 132.027 302.92 131.267 302.44C130.52 301.96 129.92 301.313 129.467 300.5C129.027 299.673 128.807 298.76 128.807 297.76C128.807 297.013 128.94 296.32 129.207 295.68C129.474 295.027 129.834 294.46 130.287 293.98C130.74 293.487 131.247 293.107 131.807 292.84C132.367 292.56 132.94 292.42 133.527 292.42C134.26 292.42 134.887 292.587 135.407 292.92C135.94 293.24 136.367 293.673 136.687 294.22C137.02 294.767 137.254 295.38 137.387 296.06L136.327 295.42C136.3 294.647 136.194 293.973 136.007 293.4C135.834 292.827 135.58 292.333 135.247 291.92C134.914 291.493 134.5 291.14 134.007 290.86C133.514 290.58 132.94 290.353 132.287 290.18C132.034 290.113 131.82 289.993 131.647 289.82C131.487 289.633 131.407 289.42 131.407 289.18C131.407 288.94 131.474 288.72 131.607 288.52C131.754 288.307 131.974 288.2 132.267 288.2C132.44 288.2 132.607 288.22 132.767 288.26C133.594 288.487 134.334 288.827 134.987 289.28C135.64 289.72 136.2 290.247 136.667 290.86C137.134 291.46 137.52 292.12 137.827 292.84C138.134 293.547 138.36 294.287 138.507 295.06C138.654 295.833 138.727 296.607 138.727 297.38C138.727 298.567 138.5 299.593 138.047 300.46C137.607 301.327 137.014 301.993 136.267 302.46C135.534 302.927 134.7 303.16 133.767 303.16ZM133.767 301.16C134.327 301.16 134.827 301.013 135.267 300.72C135.72 300.413 136.074 300 136.327 299.48C136.594 298.96 136.727 298.387 136.727 297.76C136.727 297.133 136.594 296.573 136.327 296.08C136.074 295.573 135.72 295.173 135.267 294.88C134.827 294.573 134.327 294.42 133.767 294.42C133.22 294.42 132.72 294.567 132.267 294.86C131.814 295.153 131.454 295.553 131.187 296.06C130.934 296.553 130.807 297.12 130.807 297.76C130.807 298.387 130.94 298.96 131.207 299.48C131.474 300 131.827 300.413 132.267 300.72C132.72 301.013 133.22 301.16 133.767 301.16ZM131.847 292.32C131.594 292.36 131.367 292.347 131.167 292.28C130.98 292.213 130.86 292.06 130.807 291.82C130.767 291.58 130.807 291.393 130.927 291.26C131.047 291.113 131.227 291.013 131.467 290.96L133.767 290.4L134.887 289.98L137.047 289.52C137.287 289.48 137.5 289.5 137.687 289.58C137.887 289.647 138.014 289.793 138.067 290.02C138.12 290.26 138.08 290.453 137.947 290.6C137.827 290.747 137.647 290.84 137.407 290.88L135.927 291.2L135.087 291.54L131.847 292.32ZM140.752 292.6H145.452C145.719 292.6 145.939 292.693 146.112 292.88C146.299 293.053 146.392 293.273 146.392 293.54C146.392 293.793 146.299 294.007 146.112 294.18C145.939 294.353 145.719 294.44 145.452 294.44H140.752C140.486 294.44 140.259 294.353 140.072 294.18C139.899 293.993 139.812 293.773 139.812 293.52C139.812 293.253 139.899 293.033 140.072 292.86C140.259 292.687 140.486 292.6 140.752 292.6ZM142.852 290C143.146 290 143.386 290.1 143.572 290.3C143.759 290.487 143.852 290.727 143.852 291.02V300.3C143.852 300.54 143.892 300.733 143.972 300.88C144.052 301.027 144.159 301.127 144.292 301.18C144.439 301.233 144.586 301.26 144.732 301.26C144.879 301.26 145.006 301.233 145.112 301.18C145.232 301.127 145.372 301.1 145.532 301.1C145.692 301.1 145.839 301.173 145.972 301.32C146.106 301.467 146.172 301.667 146.172 301.92C146.172 302.24 145.999 302.5 145.652 302.7C145.306 302.9 144.932 303 144.532 303C144.306 303 144.039 302.98 143.732 302.94C143.426 302.9 143.126 302.8 142.832 302.64C142.552 302.48 142.319 302.227 142.132 301.88C141.946 301.52 141.852 301.02 141.852 300.38V291.02C141.852 290.727 141.946 290.487 142.132 290.3C142.332 290.1 142.572 290 142.852 290ZM157.147 292.32C157.427 292.32 157.66 292.42 157.847 292.62C158.047 292.807 158.147 293.047 158.147 293.34V301.98C158.147 302.273 158.047 302.52 157.847 302.72C157.66 302.907 157.427 303 157.147 303C156.854 303 156.614 302.907 156.427 302.72C156.24 302.52 156.147 302.273 156.147 301.98V300.54L156.547 300.6C156.547 300.84 156.447 301.107 156.247 301.4C156.06 301.693 155.8 301.98 155.467 302.26C155.134 302.527 154.74 302.753 154.287 302.94C153.834 303.113 153.347 303.2 152.827 303.2C151.907 303.2 151.08 302.967 150.347 302.5C149.614 302.02 149.034 301.367 148.607 300.54C148.18 299.713 147.967 298.773 147.967 297.72C147.967 296.64 148.18 295.693 148.607 294.88C149.034 294.053 149.607 293.407 150.327 292.94C151.06 292.473 151.874 292.24 152.767 292.24C153.34 292.24 153.867 292.333 154.347 292.52C154.84 292.707 155.267 292.947 155.627 293.24C155.987 293.533 156.267 293.847 156.467 294.18C156.667 294.5 156.767 294.807 156.767 295.1L156.147 295.16V293.34C156.147 293.06 156.24 292.82 156.427 292.62C156.614 292.42 156.854 292.32 157.147 292.32ZM153.067 301.36C153.694 301.36 154.24 301.2 154.707 300.88C155.187 300.56 155.56 300.127 155.827 299.58C156.094 299.02 156.227 298.4 156.227 297.72C156.227 297.027 156.094 296.407 155.827 295.86C155.56 295.313 155.187 294.88 154.707 294.56C154.24 294.24 153.694 294.08 153.067 294.08C152.454 294.08 151.907 294.24 151.427 294.56C150.947 294.88 150.574 295.313 150.307 295.86C150.04 296.407 149.907 297.027 149.907 297.72C149.907 298.4 150.04 299.02 150.307 299.58C150.574 300.127 150.94 300.56 151.407 300.88C151.887 301.2 152.44 301.36 153.067 301.36ZM163.091 301.98C163.091 302.273 162.991 302.52 162.791 302.72C162.605 302.907 162.371 303 162.091 303C161.811 303 161.571 302.907 161.371 302.72C161.185 302.52 161.091 302.273 161.091 301.98V289.22C161.091 288.927 161.191 288.687 161.391 288.5C161.591 288.3 161.831 288.2 162.111 288.2C162.405 288.2 162.638 288.3 162.811 288.5C162.998 288.687 163.091 288.927 163.091 289.22V301.98ZM180.174 292.32C180.454 292.32 180.688 292.42 180.874 292.62C181.074 292.807 181.174 293.047 181.174 293.34V301.98C181.174 302.273 181.074 302.52 180.874 302.72C180.688 302.907 180.454 303 180.174 303C179.881 303 179.641 302.907 179.454 302.72C179.268 302.52 179.174 302.273 179.174 301.98V300.54L179.574 300.6C179.574 300.84 179.474 301.107 179.274 301.4C179.088 301.693 178.828 301.98 178.494 302.26C178.161 302.527 177.768 302.753 177.314 302.94C176.861 303.113 176.374 303.2 175.854 303.2C174.934 303.2 174.108 302.967 173.374 302.5C172.641 302.02 172.061 301.367 171.634 300.54C171.208 299.713 170.994 298.773 170.994 297.72C170.994 296.64 171.208 295.693 171.634 294.88C172.061 294.053 172.634 293.407 173.354 292.94C174.088 292.473 174.901 292.24 175.794 292.24C176.368 292.24 176.894 292.333 177.374 292.52C177.868 292.707 178.294 292.947 178.654 293.24C179.014 293.533 179.294 293.847 179.494 294.18C179.694 294.5 179.794 294.807 179.794 295.1L179.174 295.16V293.34C179.174 293.06 179.268 292.82 179.454 292.62C179.641 292.42 179.881 292.32 180.174 292.32ZM176.094 301.36C176.721 301.36 177.268 301.2 177.734 300.88C178.214 300.56 178.588 300.127 178.854 299.58C179.121 299.02 179.254 298.4 179.254 297.72C179.254 297.027 179.121 296.407 178.854 295.86C178.588 295.313 178.214 294.88 177.734 294.56C177.268 294.24 176.721 294.08 176.094 294.08C175.481 294.08 174.934 294.24 174.454 294.56C173.974 294.88 173.601 295.313 173.334 295.86C173.068 296.407 172.934 297.027 172.934 297.72C172.934 298.4 173.068 299.02 173.334 299.58C173.601 300.127 173.968 300.56 174.434 300.88C174.914 301.2 175.468 301.36 176.094 301.36ZM176.194 291.72C176.101 291.72 175.981 291.673 175.834 291.58C175.701 291.473 175.641 291.333 175.654 291.16C175.654 291.053 175.694 290.94 175.774 290.82L176.954 288.82C177.048 288.647 177.174 288.493 177.334 288.36C177.508 288.213 177.701 288.14 177.914 288.14C178.221 288.14 178.454 288.227 178.614 288.4C178.774 288.56 178.848 288.767 178.834 289.02C178.821 289.14 178.788 289.26 178.734 289.38C178.681 289.5 178.608 289.62 178.514 289.74L176.994 291.4C176.874 291.52 176.741 291.607 176.594 291.66C176.461 291.7 176.328 291.72 176.194 291.72ZM198.065 288.2C198.345 288.2 198.578 288.293 198.765 288.48C198.965 288.667 199.065 288.913 199.065 289.22V301.98C199.065 302.273 198.965 302.52 198.765 302.72C198.578 302.907 198.345 303 198.065 303C197.772 303 197.532 302.907 197.345 302.72C197.158 302.52 197.065 302.273 197.065 301.98V300.54L197.465 300.56C197.465 300.8 197.365 301.073 197.165 301.38C196.978 301.673 196.718 301.96 196.385 302.24C196.052 302.52 195.658 302.753 195.205 302.94C194.752 303.113 194.265 303.2 193.745 303.2C192.838 303.2 192.012 302.967 191.265 302.5C190.532 302.02 189.952 301.373 189.525 300.56C189.098 299.733 188.885 298.787 188.885 297.72C188.885 296.653 189.098 295.713 189.525 294.9C189.952 294.073 190.525 293.427 191.245 292.96C191.978 292.48 192.792 292.24 193.685 292.24C194.245 292.24 194.765 292.333 195.245 292.52C195.738 292.707 196.165 292.947 196.525 293.24C196.885 293.533 197.165 293.847 197.365 294.18C197.578 294.5 197.685 294.807 197.685 295.1L197.065 295.16V289.22C197.065 288.927 197.158 288.687 197.345 288.5C197.532 288.3 197.772 288.2 198.065 288.2ZM193.985 301.36C194.612 301.36 195.158 301.2 195.625 300.88C196.105 300.56 196.478 300.127 196.745 299.58C197.012 299.033 197.145 298.413 197.145 297.72C197.145 297.027 197.012 296.407 196.745 295.86C196.478 295.313 196.105 294.88 195.625 294.56C195.158 294.24 194.612 294.08 193.985 294.08C193.372 294.08 192.825 294.24 192.345 294.56C191.865 294.88 191.492 295.313 191.225 295.86C190.958 296.407 190.825 297.027 190.825 297.72C190.825 298.413 190.958 299.033 191.225 299.58C191.492 300.127 191.865 300.56 192.345 300.88C192.825 301.2 193.372 301.36 193.985 301.36ZM210.389 292.32C210.669 292.32 210.903 292.42 211.089 292.62C211.289 292.807 211.389 293.047 211.389 293.34V301.98C211.389 302.273 211.289 302.52 211.089 302.72C210.903 302.907 210.669 303 210.389 303C210.096 303 209.856 302.907 209.669 302.72C209.483 302.52 209.389 302.273 209.389 301.98V300.54L209.789 300.6C209.789 300.84 209.689 301.107 209.489 301.4C209.303 301.693 209.043 301.98 208.709 302.26C208.376 302.527 207.983 302.753 207.529 302.94C207.076 303.113 206.589 303.2 206.069 303.2C205.149 303.2 204.323 302.967 203.589 302.5C202.856 302.02 202.276 301.367 201.849 300.54C201.423 299.713 201.209 298.773 201.209 297.72C201.209 296.64 201.423 295.693 201.849 294.88C202.276 294.053 202.849 293.407 203.569 292.94C204.303 292.473 205.116 292.24 206.009 292.24C206.583 292.24 207.109 292.333 207.589 292.52C208.083 292.707 208.509 292.947 208.869 293.24C209.229 293.533 209.509 293.847 209.709 294.18C209.909 294.5 210.009 294.807 210.009 295.1L209.389 295.16V293.34C209.389 293.06 209.483 292.82 209.669 292.62C209.856 292.42 210.096 292.32 210.389 292.32ZM206.309 301.36C206.936 301.36 207.483 301.2 207.949 300.88C208.429 300.56 208.803 300.127 209.069 299.58C209.336 299.02 209.469 298.4 209.469 297.72C209.469 297.027 209.336 296.407 209.069 295.86C208.803 295.313 208.429 294.88 207.949 294.56C207.483 294.24 206.936 294.08 206.309 294.08C205.696 294.08 205.149 294.24 204.669 294.56C204.189 294.88 203.816 295.313 203.549 295.86C203.283 296.407 203.149 297.027 203.149 297.72C203.149 298.4 203.283 299.02 203.549 299.58C203.816 300.127 204.183 300.56 204.649 300.88C205.129 301.2 205.683 301.36 206.309 301.36ZM218.453 292.24C219.027 292.24 219.553 292.333 220.033 292.52C220.513 292.707 220.927 292.947 221.273 293.24C221.633 293.52 221.913 293.813 222.113 294.12C222.313 294.427 222.413 294.693 222.413 294.92L221.953 294.94V293.34C221.953 293.06 222.047 292.82 222.233 292.62C222.42 292.42 222.66 292.32 222.953 292.32C223.247 292.32 223.487 292.42 223.673 292.62C223.86 292.807 223.953 293.047 223.953 293.34V302.16C223.953 303.293 223.713 304.213 223.233 304.92C222.753 305.64 222.113 306.167 221.313 306.5C220.527 306.833 219.66 307 218.713 307C218.38 307 217.987 306.953 217.533 306.86C217.08 306.78 216.66 306.68 216.273 306.56C215.9 306.44 215.64 306.32 215.493 306.2C215.187 306.04 214.98 305.853 214.873 305.64C214.78 305.427 214.787 305.213 214.893 305C215.013 304.707 215.187 304.527 215.413 304.46C215.64 304.393 215.9 304.413 216.193 304.52C216.327 304.56 216.533 304.633 216.813 304.74C217.093 304.847 217.407 304.94 217.753 305.02C218.1 305.113 218.427 305.16 218.733 305.16C219.8 305.16 220.6 304.913 221.133 304.42C221.68 303.927 221.953 303.253 221.953 302.4V300.6L222.193 300.74C222.153 301.02 222.027 301.307 221.813 301.6C221.6 301.88 221.327 302.14 220.993 302.38C220.66 302.62 220.28 302.82 219.853 302.98C219.427 303.127 218.98 303.2 218.513 303.2C217.58 303.2 216.733 302.967 215.973 302.5C215.227 302.02 214.633 301.373 214.193 300.56C213.753 299.733 213.533 298.787 213.533 297.72C213.533 296.653 213.753 295.713 214.193 294.9C214.633 294.073 215.22 293.427 215.953 292.96C216.7 292.48 217.533 292.24 218.453 292.24ZM218.753 294.08C218.113 294.08 217.54 294.24 217.033 294.56C216.54 294.88 216.153 295.313 215.873 295.86C215.607 296.407 215.473 297.027 215.473 297.72C215.473 298.413 215.607 299.033 215.873 299.58C216.153 300.127 216.54 300.56 217.033 300.88C217.54 301.2 218.113 301.36 218.753 301.36C219.407 301.36 219.98 301.207 220.473 300.9C220.967 300.58 221.353 300.147 221.633 299.6C221.913 299.04 222.053 298.413 222.053 297.72C222.053 297.027 221.913 296.407 221.633 295.86C221.353 295.3 220.967 294.867 220.473 294.56C219.98 294.24 219.407 294.08 218.753 294.08ZM225.936 301.36C225.816 301.173 225.763 300.96 225.776 300.72C225.79 300.467 225.93 300.253 226.196 300.08C226.383 299.96 226.576 299.913 226.776 299.94C226.99 299.953 227.19 300.053 227.376 300.24C227.75 300.653 228.163 300.98 228.616 301.22C229.083 301.46 229.643 301.58 230.296 301.58C230.563 301.567 230.836 301.527 231.116 301.46C231.396 301.38 231.636 301.247 231.836 301.06C232.036 300.86 232.136 300.573 232.136 300.2C232.136 299.867 232.03 299.6 231.816 299.4C231.603 299.2 231.323 299.04 230.976 298.92C230.63 298.787 230.256 298.667 229.856 298.56C229.43 298.44 228.996 298.307 228.556 298.16C228.13 298.013 227.743 297.827 227.396 297.6C227.05 297.36 226.763 297.053 226.536 296.68C226.323 296.307 226.216 295.847 226.216 295.3C226.216 294.673 226.39 294.133 226.736 293.68C227.096 293.227 227.556 292.873 228.116 292.62C228.69 292.367 229.31 292.24 229.976 292.24C230.363 292.24 230.77 292.293 231.196 292.4C231.623 292.493 232.036 292.647 232.436 292.86C232.836 293.073 233.183 293.353 233.476 293.7C233.61 293.873 233.683 294.08 233.696 294.32C233.723 294.56 233.616 294.773 233.376 294.96C233.216 295.093 233.023 295.153 232.796 295.14C232.57 295.127 232.383 295.053 232.236 294.92C231.983 294.6 231.656 294.353 231.256 294.18C230.856 293.993 230.403 293.9 229.896 293.9C229.643 293.9 229.376 293.94 229.096 294.02C228.83 294.087 228.603 294.213 228.416 294.4C228.23 294.587 228.136 294.86 228.136 295.22C228.136 295.553 228.243 295.82 228.456 296.02C228.683 296.22 228.976 296.387 229.336 296.52C229.696 296.653 230.09 296.773 230.516 296.88C230.93 296.987 231.336 297.113 231.736 297.26C232.15 297.407 232.516 297.6 232.836 297.84C233.17 298.067 233.436 298.367 233.636 298.74C233.85 299.1 233.956 299.56 233.956 300.12C233.956 300.773 233.763 301.333 233.376 301.8C233.003 302.253 232.523 302.6 231.936 302.84C231.363 303.08 230.756 303.2 230.116 303.2C229.356 303.2 228.596 303.067 227.836 302.8C227.09 302.52 226.456 302.04 225.936 301.36ZM237.267 303C236.987 303 236.747 302.907 236.547 302.72C236.36 302.52 236.267 302.273 236.267 301.98V289.22C236.267 288.927 236.36 288.687 236.547 288.5C236.747 288.3 236.987 288.2 237.267 288.2C237.56 288.2 237.8 288.3 237.987 288.5C238.174 288.687 238.267 288.927 238.267 289.22V301.98C238.267 302.273 238.174 302.52 237.987 302.72C237.8 302.907 237.56 303 237.267 303ZM243.787 292.44C244.04 292.44 244.26 292.547 244.447 292.76C244.634 292.973 244.727 293.187 244.727 293.4C244.727 293.667 244.6 293.913 244.347 294.14L238.087 299.74L238.007 297.44L243.047 292.76C243.26 292.547 243.507 292.44 243.787 292.44ZM244.027 302.98C243.747 302.98 243.507 302.867 243.307 302.64L239.307 298.42L240.827 297.02L244.727 301.24C244.94 301.467 245.047 301.72 245.047 302C245.047 302.293 244.927 302.533 244.687 302.72C244.46 302.893 244.24 302.98 244.027 302.98ZM248.259 303C247.966 303 247.726 302.907 247.539 302.72C247.353 302.52 247.259 302.273 247.259 301.98V293.5C247.259 293.207 247.353 292.967 247.539 292.78C247.726 292.58 247.966 292.48 248.259 292.48C248.539 292.48 248.773 292.58 248.959 292.78C249.159 292.967 249.259 293.207 249.259 293.5V295.74L249.059 294.88C249.166 294.507 249.326 294.16 249.539 293.84C249.766 293.52 250.033 293.24 250.339 293C250.646 292.76 250.986 292.573 251.359 292.44C251.746 292.307 252.146 292.24 252.559 292.24C252.906 292.24 253.206 292.333 253.459 292.52C253.713 292.707 253.839 292.94 253.839 293.22C253.839 293.58 253.746 293.847 253.559 294.02C253.373 294.18 253.166 294.26 252.939 294.26C252.739 294.26 252.546 294.22 252.359 294.14C252.173 294.047 251.953 294 251.699 294C251.419 294 251.133 294.073 250.839 294.22C250.546 294.367 250.279 294.587 250.039 294.88C249.799 295.16 249.606 295.493 249.459 295.88C249.326 296.267 249.259 296.7 249.259 297.18V301.98C249.259 302.273 249.159 302.52 248.959 302.72C248.773 302.907 248.539 303 248.259 303ZM263.924 292.32C264.204 292.32 264.438 292.42 264.624 292.62C264.824 292.807 264.924 293.047 264.924 293.34V301.98C264.924 302.273 264.824 302.52 264.624 302.72C264.438 302.907 264.204 303 263.924 303C263.631 303 263.391 302.907 263.204 302.72C263.018 302.52 262.924 302.273 262.924 301.98V300.54L263.324 300.6C263.324 300.84 263.224 301.107 263.024 301.4C262.838 301.693 262.578 301.98 262.244 302.26C261.911 302.527 261.518 302.753 261.064 302.94C260.611 303.113 260.124 303.2 259.604 303.2C258.684 303.2 257.858 302.967 257.124 302.5C256.391 302.02 255.811 301.367 255.384 300.54C254.958 299.713 254.744 298.773 254.744 297.72C254.744 296.64 254.958 295.693 255.384 294.88C255.811 294.053 256.384 293.407 257.104 292.94C257.838 292.473 258.651 292.24 259.544 292.24C260.118 292.24 260.644 292.333 261.124 292.52C261.618 292.707 262.044 292.947 262.404 293.24C262.764 293.533 263.044 293.847 263.244 294.18C263.444 294.5 263.544 294.807 263.544 295.1L262.924 295.16V293.34C262.924 293.06 263.018 292.82 263.204 292.62C263.391 292.42 263.631 292.32 263.924 292.32ZM259.844 301.36C260.471 301.36 261.018 301.2 261.484 300.88C261.964 300.56 262.338 300.127 262.604 299.58C262.871 299.02 263.004 298.4 263.004 297.72C263.004 297.027 262.871 296.407 262.604 295.86C262.338 295.313 261.964 294.88 261.484 294.56C261.018 294.24 260.471 294.08 259.844 294.08C259.231 294.08 258.684 294.24 258.204 294.56C257.724 294.88 257.351 295.313 257.084 295.86C256.818 296.407 256.684 297.027 256.684 297.72C256.684 298.4 256.818 299.02 257.084 299.58C257.351 300.127 257.718 300.56 258.184 300.88C258.664 301.2 259.218 301.36 259.844 301.36ZM259.944 291.72C259.851 291.72 259.731 291.673 259.584 291.58C259.451 291.473 259.391 291.333 259.404 291.16C259.404 291.053 259.444 290.94 259.524 290.82L260.704 288.82C260.798 288.647 260.924 288.493 261.084 288.36C261.258 288.213 261.451 288.14 261.664 288.14C261.971 288.14 262.204 288.227 262.364 288.4C262.524 288.56 262.598 288.767 262.584 289.02C262.571 289.14 262.538 289.26 262.484 289.38C262.431 289.5 262.358 289.62 262.264 289.74L260.744 291.4C260.624 291.52 260.491 291.607 260.344 291.66C260.211 291.7 260.078 291.72 259.944 291.72Z" fill="black"/>
<circle cx="40" cy="552" r="40" fill="#585858"/>
<path d="M39.4993 524.417C24.5493 524.417 12.416 536.55 12.416 551.5C12.416 566.45 24.5493 578.583 39.4993 578.583C54.4493 578.583 66.5827 566.45 66.5827 551.5C66.5827 536.55 54.4493 524.417 39.4993 524.417ZM39.4993 573.167C27.5556 573.167 17.8327 563.444 17.8327 551.5C17.8327 539.556 27.5556 529.833 39.4993 529.833C51.4431 529.833 61.166 539.556 61.166 551.5C61.166 563.444 51.4431 573.167 39.4993 573.167ZM51.9306 539.529L34.0827 557.377L27.0681 550.39L23.2493 554.208L34.0827 565.042L55.7493 543.375L51.9306 539.529Z" fill="white"/>
<path d="M117.26 545C117.967 545 118.62 545.193 119.22 545.58C119.82 545.953 120.3 546.467 120.66 547.12C121.02 547.773 121.2 548.507 121.2 549.32C121.2 550.133 121.02 550.873 120.66 551.54C120.3 552.193 119.82 552.72 119.22 553.12C118.62 553.507 117.967 553.7 117.26 553.7H113.4L113.56 553.38V557.98C113.56 558.273 113.467 558.52 113.28 558.72C113.107 558.907 112.873 559 112.58 559C112.3 559 112.067 558.907 111.88 558.72C111.707 558.52 111.62 558.273 111.62 557.98V546.02C111.62 545.727 111.72 545.487 111.92 545.3C112.12 545.1 112.36 545 112.64 545H117.26ZM117.26 551.78C117.607 551.78 117.92 551.667 118.2 551.44C118.493 551.213 118.727 550.913 118.9 550.54C119.087 550.167 119.18 549.76 119.18 549.32C119.18 548.88 119.087 548.48 118.9 548.12C118.727 547.76 118.493 547.473 118.2 547.26C117.92 547.033 117.607 546.92 117.26 546.92H113.36L113.56 546.62V552.04L113.38 551.78H117.26ZM124.412 559C124.118 559 123.878 558.907 123.692 558.72C123.505 558.52 123.412 558.273 123.412 557.98V549.5C123.412 549.207 123.505 548.967 123.692 548.78C123.878 548.58 124.118 548.48 124.412 548.48C124.692 548.48 124.925 548.58 125.112 548.78C125.312 548.967 125.412 549.207 125.412 549.5V551.74L125.212 550.88C125.318 550.507 125.478 550.16 125.692 549.84C125.918 549.52 126.185 549.24 126.492 549C126.798 548.76 127.138 548.573 127.512 548.44C127.898 548.307 128.298 548.24 128.712 548.24C129.058 548.24 129.358 548.333 129.612 548.52C129.865 548.707 129.992 548.94 129.992 549.22C129.992 549.58 129.898 549.847 129.712 550.02C129.525 550.18 129.318 550.26 129.092 550.26C128.892 550.26 128.698 550.22 128.512 550.14C128.325 550.047 128.105 550 127.852 550C127.572 550 127.285 550.073 126.992 550.22C126.698 550.367 126.432 550.587 126.192 550.88C125.952 551.16 125.758 551.493 125.612 551.88C125.478 552.267 125.412 552.7 125.412 553.18V557.98C125.412 558.273 125.312 558.52 125.112 558.72C124.925 558.907 124.692 559 124.412 559ZM141.771 553.74C141.771 554.807 141.531 555.753 141.051 556.58C140.584 557.393 139.951 558.033 139.151 558.5C138.351 558.967 137.451 559.2 136.451 559.2C135.464 559.2 134.564 558.967 133.751 558.5C132.951 558.033 132.311 557.393 131.831 556.58C131.364 555.753 131.131 554.807 131.131 553.74C131.131 552.66 131.364 551.713 131.831 550.9C132.311 550.073 132.951 549.427 133.751 548.96C134.564 548.48 135.464 548.24 136.451 548.24C137.451 548.24 138.351 548.48 139.151 548.96C139.951 549.427 140.584 550.073 141.051 550.9C141.531 551.713 141.771 552.66 141.771 553.74ZM139.771 553.74C139.771 553.007 139.624 552.373 139.331 551.84C139.038 551.293 138.638 550.867 138.131 550.56C137.638 550.24 137.078 550.08 136.451 550.08C135.838 550.08 135.278 550.24 134.771 550.56C134.278 550.867 133.878 551.293 133.571 551.84C133.278 552.373 133.131 553.007 133.131 553.74C133.131 554.447 133.278 555.073 133.571 555.62C133.878 556.167 134.278 556.593 134.771 556.9C135.278 557.207 135.838 557.36 136.451 557.36C137.078 557.36 137.638 557.207 138.131 556.9C138.638 556.593 139.038 556.167 139.331 555.62C139.624 555.073 139.771 554.447 139.771 553.74ZM136.451 547.68C136.358 547.68 136.238 547.633 136.091 547.54C135.958 547.433 135.898 547.293 135.911 547.12C135.911 547.013 135.951 546.9 136.031 546.78L137.211 544.78C137.304 544.607 137.431 544.453 137.591 544.32C137.764 544.173 137.958 544.1 138.171 544.1C138.478 544.1 138.711 544.187 138.871 544.36C139.031 544.52 139.104 544.727 139.091 544.98C139.078 545.1 139.044 545.22 138.991 545.34C138.938 545.46 138.864 545.58 138.771 545.7L137.251 547.36C137.131 547.48 136.998 547.567 136.851 547.62C136.718 547.66 136.584 547.68 136.451 547.68ZM148.839 544.22C149.092 544.22 149.352 544.253 149.619 544.32C149.886 544.387 150.106 544.5 150.279 544.66C150.466 544.807 150.559 545.013 150.559 545.28C150.559 545.547 150.479 545.767 150.319 545.94C150.159 546.1 149.972 546.18 149.759 546.18C149.626 546.18 149.446 546.153 149.219 546.1C148.992 546.033 148.766 546 148.539 546C148.232 546 147.986 546.073 147.799 546.22C147.612 546.353 147.479 546.527 147.399 546.74C147.319 546.94 147.279 547.14 147.279 547.34V557.98C147.279 558.273 147.179 558.52 146.979 558.72C146.792 558.907 146.559 559 146.279 559C145.986 559 145.746 558.907 145.559 558.72C145.372 558.52 145.279 558.273 145.279 557.98V547.36C145.279 546.44 145.579 545.687 146.179 545.1C146.792 544.513 147.679 544.22 148.839 544.22ZM149.239 548.66C149.506 548.66 149.726 548.747 149.899 548.92C150.072 549.093 150.159 549.313 150.159 549.58C150.159 549.847 150.072 550.067 149.899 550.24C149.726 550.413 149.506 550.5 149.239 550.5H144.059C143.806 550.5 143.586 550.413 143.399 550.24C143.226 550.067 143.139 549.847 143.139 549.58C143.139 549.313 143.226 549.093 143.399 548.92C143.586 548.747 143.806 548.66 144.059 548.66H149.239ZM153.749 557.98C153.749 558.273 153.655 558.52 153.469 558.72C153.282 558.907 153.042 559 152.749 559C152.469 559 152.229 558.907 152.029 558.72C151.842 558.52 151.749 558.273 151.749 557.98V549.42C151.749 549.127 151.842 548.887 152.029 548.7C152.229 548.5 152.469 548.4 152.749 548.4C153.042 548.4 153.282 548.5 153.469 548.7C153.655 548.887 153.749 549.127 153.749 549.42V557.98ZM152.749 547.72C152.655 547.72 152.535 547.673 152.389 547.58C152.255 547.473 152.195 547.333 152.209 547.16C152.209 547.053 152.249 546.94 152.329 546.82L153.509 544.82C153.602 544.647 153.729 544.493 153.889 544.36C154.062 544.213 154.255 544.14 154.469 544.14C154.775 544.14 155.009 544.227 155.169 544.4C155.329 544.56 155.402 544.767 155.389 545.02C155.375 545.14 155.342 545.26 155.289 545.38C155.235 545.5 155.162 545.62 155.069 545.74L153.549 547.4C153.429 547.52 153.295 547.607 153.149 547.66C153.015 547.7 152.882 547.72 152.749 547.72ZM158.599 557.98C158.599 558.273 158.499 558.52 158.299 558.72C158.112 558.907 157.879 559 157.599 559C157.319 559 157.079 558.907 156.879 558.72C156.692 558.52 156.599 558.273 156.599 557.98V545.22C156.599 544.927 156.699 544.687 156.899 544.5C157.099 544.3 157.339 544.2 157.619 544.2C157.912 544.2 158.146 544.3 158.319 544.5C158.506 544.687 158.599 544.927 158.599 545.22V557.98ZM169.302 557.98C169.302 558.273 169.202 558.52 169.002 558.72C168.816 558.907 168.582 559 168.302 559C168.022 559 167.782 558.907 167.582 558.72C167.396 558.52 167.302 558.273 167.302 557.98V545.22C167.302 544.927 167.402 544.687 167.602 544.5C167.802 544.3 168.042 544.2 168.322 544.2C168.616 544.2 168.849 544.3 169.022 544.5C169.209 544.687 169.302 544.927 169.302 545.22V557.98ZM182.084 553.74C182.084 554.807 181.844 555.753 181.364 556.58C180.897 557.393 180.264 558.033 179.464 558.5C178.664 558.967 177.764 559.2 176.764 559.2C175.777 559.2 174.877 558.967 174.064 558.5C173.264 558.033 172.624 557.393 172.144 556.58C171.677 555.753 171.444 554.807 171.444 553.74C171.444 552.66 171.677 551.713 172.144 550.9C172.624 550.073 173.264 549.427 174.064 548.96C174.877 548.48 175.777 548.24 176.764 548.24C177.764 548.24 178.664 548.48 179.464 548.96C180.264 549.427 180.897 550.073 181.364 550.9C181.844 551.713 182.084 552.66 182.084 553.74ZM180.084 553.74C180.084 553.007 179.937 552.373 179.644 551.84C179.35 551.293 178.95 550.867 178.444 550.56C177.95 550.24 177.39 550.08 176.764 550.08C176.15 550.08 175.59 550.24 175.084 550.56C174.59 550.867 174.19 551.293 173.884 551.84C173.59 552.373 173.444 553.007 173.444 553.74C173.444 554.447 173.59 555.073 173.884 555.62C174.19 556.167 174.59 556.593 175.084 556.9C175.59 557.207 176.15 557.36 176.764 557.36C177.39 557.36 177.95 557.207 178.444 556.9C178.95 556.593 179.35 556.167 179.644 555.62C179.937 555.073 180.084 554.447 180.084 553.74ZM185.412 559C185.132 559 184.892 558.907 184.692 558.72C184.505 558.52 184.412 558.273 184.412 557.98V545.22C184.412 544.927 184.505 544.687 184.692 544.5C184.892 544.3 185.132 544.2 185.412 544.2C185.705 544.2 185.945 544.3 186.132 544.5C186.318 544.687 186.412 544.927 186.412 545.22V557.98C186.412 558.273 186.318 558.52 186.132 558.72C185.945 558.907 185.705 559 185.412 559ZM191.932 548.44C192.185 548.44 192.405 548.547 192.592 548.76C192.778 548.973 192.872 549.187 192.872 549.4C192.872 549.667 192.745 549.913 192.492 550.14L186.232 555.74L186.152 553.44L191.192 548.76C191.405 548.547 191.652 548.44 191.932 548.44ZM192.172 558.98C191.892 558.98 191.652 558.867 191.452 558.64L187.452 554.42L188.972 553.02L192.872 557.24C193.085 557.467 193.192 557.72 193.192 558C193.192 558.293 193.072 558.533 192.832 558.72C192.605 558.893 192.385 558.98 192.172 558.98ZM203.866 548.32C204.146 548.32 204.379 548.42 204.566 548.62C204.766 548.807 204.866 549.047 204.866 549.34V557.98C204.866 558.273 204.766 558.52 204.566 558.72C204.379 558.907 204.146 559 203.866 559C203.572 559 203.332 558.907 203.146 558.72C202.959 558.52 202.866 558.273 202.866 557.98V556.54L203.266 556.6C203.266 556.84 203.166 557.107 202.966 557.4C202.779 557.693 202.519 557.98 202.186 558.26C201.852 558.527 201.459 558.753 201.006 558.94C200.552 559.113 200.066 559.2 199.546 559.2C198.626 559.2 197.799 558.967 197.066 558.5C196.332 558.02 195.752 557.367 195.326 556.54C194.899 555.713 194.686 554.773 194.686 553.72C194.686 552.64 194.899 551.693 195.326 550.88C195.752 550.053 196.326 549.407 197.046 548.94C197.779 548.473 198.592 548.24 199.486 548.24C200.059 548.24 200.586 548.333 201.066 548.52C201.559 548.707 201.986 548.947 202.346 549.24C202.706 549.533 202.986 549.847 203.186 550.18C203.386 550.5 203.486 550.807 203.486 551.1L202.866 551.16V549.34C202.866 549.06 202.959 548.82 203.146 548.62C203.332 548.42 203.572 548.32 203.866 548.32ZM199.786 557.36C200.412 557.36 200.959 557.2 201.426 556.88C201.906 556.56 202.279 556.127 202.546 555.58C202.812 555.02 202.946 554.4 202.946 553.72C202.946 553.027 202.812 552.407 202.546 551.86C202.279 551.313 201.906 550.88 201.426 550.56C200.959 550.24 200.412 550.08 199.786 550.08C199.172 550.08 198.626 550.24 198.146 550.56C197.666 550.88 197.292 551.313 197.026 551.86C196.759 552.407 196.626 553.027 196.626 553.72C196.626 554.4 196.759 555.02 197.026 555.58C197.292 556.127 197.659 556.56 198.126 556.88C198.606 557.2 199.159 557.36 199.786 557.36ZM211.97 559.16C211.063 559.16 210.23 558.92 209.47 558.44C208.723 557.96 208.123 557.313 207.67 556.5C207.23 555.673 207.01 554.76 207.01 553.76C207.01 553.013 207.143 552.32 207.41 551.68C207.677 551.027 208.037 550.46 208.49 549.98C208.943 549.487 209.45 549.107 210.01 548.84C210.57 548.56 211.143 548.42 211.73 548.42C212.463 548.42 213.09 548.587 213.61 548.92C214.143 549.24 214.57 549.673 214.89 550.22C215.223 550.767 215.457 551.38 215.59 552.06L214.53 551.42C214.503 550.647 214.397 549.973 214.21 549.4C214.037 548.827 213.783 548.333 213.45 547.92C213.117 547.493 212.703 547.14 212.21 546.86C211.717 546.58 211.143 546.353 210.49 546.18C210.237 546.113 210.023 545.993 209.85 545.82C209.69 545.633 209.61 545.42 209.61 545.18C209.61 544.94 209.677 544.72 209.81 544.52C209.957 544.307 210.177 544.2 210.47 544.2C210.643 544.2 210.81 544.22 210.97 544.26C211.797 544.487 212.537 544.827 213.19 545.28C213.843 545.72 214.403 546.247 214.87 546.86C215.337 547.46 215.723 548.12 216.03 548.84C216.337 549.547 216.563 550.287 216.71 551.06C216.857 551.833 216.93 552.607 216.93 553.38C216.93 554.567 216.703 555.593 216.25 556.46C215.81 557.327 215.217 557.993 214.47 558.46C213.737 558.927 212.903 559.16 211.97 559.16ZM211.97 557.16C212.53 557.16 213.03 557.013 213.47 556.72C213.923 556.413 214.277 556 214.53 555.48C214.797 554.96 214.93 554.387 214.93 553.76C214.93 553.133 214.797 552.573 214.53 552.08C214.277 551.573 213.923 551.173 213.47 550.88C213.03 550.573 212.53 550.42 211.97 550.42C211.423 550.42 210.923 550.567 210.47 550.86C210.017 551.153 209.657 551.553 209.39 552.06C209.137 552.553 209.01 553.12 209.01 553.76C209.01 554.387 209.143 554.96 209.41 555.48C209.677 556 210.03 556.413 210.47 556.72C210.923 557.013 211.423 557.16 211.97 557.16ZM210.05 548.32C209.797 548.36 209.57 548.347 209.37 548.28C209.183 548.213 209.063 548.06 209.01 547.82C208.97 547.58 209.01 547.393 209.13 547.26C209.25 547.113 209.43 547.013 209.67 546.96L211.97 546.4L213.09 545.98L215.25 545.52C215.49 545.48 215.703 545.5 215.89 545.58C216.09 545.647 216.217 545.793 216.27 546.02C216.323 546.26 216.283 546.453 216.15 546.6C216.03 546.747 215.85 546.84 215.61 546.88L214.13 547.2L213.29 547.54L210.05 548.32Z" fill="black"/>
</svg>
