<svg width="1132" height="151" viewBox="0 0 1132 151" fill="none" xmlns="http://www.w3.org/2000/svg">
<path d="M3 40H1128" stroke="black" stroke-width="2"/>
<circle cx="40" cy="40" r="40" fill="#AE0168"/>
<path d="M40.4997 19.2229L60.8934 54.4583H20.1059L40.4997 19.2229ZM15.4205 51.75C13.3351 55.3521 15.9351 59.875 20.1059 59.875H60.8934C65.0643 59.875 67.6643 55.3521 65.5788 51.75L45.1851 16.5146C43.0997 12.9125 37.8997 12.9125 35.8143 16.5146L15.4205 51.75ZM37.7913 32.7916V38.2083C37.7913 39.6979 39.0101 40.9166 40.4997 40.9166C41.9893 40.9166 43.208 39.6979 43.208 38.2083V32.7916C43.208 31.3021 41.9893 30.0833 40.4997 30.0833C39.0101 30.0833 37.7913 31.3021 37.7913 32.7916ZM37.7913 46.3333H43.208V51.75H37.7913V46.3333Z" fill="white"/>
<path d="M21.3177 119.98C21.3043 120.273 21.191 120.52 20.9777 120.72C20.7777 120.907 20.5377 121 20.2577 121C19.951 121 19.6977 120.907 19.4977 120.72C19.311 120.52 19.2177 120.273 19.2177 119.98V108.02C19.2177 107.727 19.3177 107.487 19.5177 107.3C19.7177 107.1 19.9777 107 20.2977 107C20.5643 107 20.7977 107.1 20.9977 107.3C21.211 107.487 21.3177 107.727 21.3177 108.02V119.98ZM20.3377 106.18C20.1243 106.18 19.951 106.127 19.8177 106.02C19.6977 105.9 19.6377 105.753 19.6377 105.58C19.6377 105.5 19.6577 105.42 19.6977 105.34C19.751 105.26 19.8177 105.18 19.8977 105.1L21.6377 103.64C21.7577 103.533 21.891 103.447 22.0377 103.38C22.1843 103.3 22.331 103.26 22.4777 103.26C22.691 103.26 22.8977 103.34 23.0977 103.5C23.2977 103.647 23.3977 103.853 23.3977 104.12C23.3977 104.293 23.3443 104.467 23.2377 104.64C23.131 104.8 22.9777 104.933 22.7777 105.04L20.7777 106.06C20.711 106.113 20.6377 106.147 20.5577 106.16C20.4777 106.173 20.4043 106.18 20.3377 106.18ZM35.1961 110.24C36.1294 110.24 36.9561 110.473 37.6761 110.94C38.4094 111.407 38.9894 112.053 39.4161 112.88C39.8428 113.693 40.0561 114.633 40.0561 115.7C40.0561 116.767 39.8428 117.713 39.4161 118.54C38.9894 119.367 38.4161 120.02 37.6961 120.5C36.9761 120.967 36.1628 121.2 35.2561 121.2C34.7494 121.2 34.2694 121.12 33.8161 120.96C33.3628 120.787 32.9628 120.573 32.6161 120.32C32.2694 120.053 31.9828 119.773 31.7561 119.48C31.5428 119.187 31.4094 118.913 31.3561 118.66L31.8961 118.4V120.14C31.8961 120.42 31.7961 120.66 31.5961 120.86C31.4094 121.047 31.1761 121.14 30.8961 121.14C30.6028 121.14 30.3628 121.047 30.1761 120.86C29.9894 120.673 29.8961 120.433 29.8961 120.14V107.22C29.8961 106.927 29.9894 106.687 30.1761 106.5C30.3628 106.3 30.6028 106.2 30.8961 106.2C31.1761 106.2 31.4094 106.3 31.5961 106.5C31.7961 106.687 31.8961 106.927 31.8961 107.22V112.84L31.5761 112.66C31.6161 112.407 31.7428 112.147 31.9561 111.88C32.1694 111.6 32.4361 111.333 32.7561 111.08C33.0894 110.827 33.4628 110.627 33.8761 110.48C34.3028 110.32 34.7428 110.24 35.1961 110.24ZM34.9761 112.08C34.3361 112.08 33.7761 112.24 33.2961 112.56C32.8294 112.88 32.4628 113.313 32.1961 113.86C31.9294 114.393 31.7961 115.007 31.7961 115.7C31.7961 116.393 31.9294 117.02 32.1961 117.58C32.4628 118.127 32.8294 118.56 33.2961 118.88C33.7761 119.2 34.3361 119.36 34.9761 119.36C35.6028 119.36 36.1494 119.2 36.6161 118.88C37.0828 118.56 37.4494 118.12 37.7161 117.56C37.9961 117 38.1361 116.38 38.1361 115.7C38.1361 115.007 37.9961 114.393 37.7161 113.86C37.4494 113.313 37.0828 112.88 36.6161 112.56C36.1494 112.24 35.6028 112.08 34.9761 112.08ZM44.1003 119.98C44.1003 120.273 44.007 120.52 43.8203 120.72C43.6336 120.907 43.3936 121 43.1003 121C42.8203 121 42.5803 120.907 42.3803 120.72C42.1936 120.52 42.1003 120.273 42.1003 119.98V111.42C42.1003 111.127 42.1936 110.887 42.3803 110.7C42.5803 110.5 42.8203 110.4 43.1003 110.4C43.3936 110.4 43.6336 110.5 43.8203 110.7C44.007 110.887 44.1003 111.127 44.1003 111.42V119.98ZM43.0803 109.08C42.6936 109.08 42.4136 109.013 42.2403 108.88C42.067 108.733 41.9803 108.493 41.9803 108.16V107.84C41.9803 107.507 42.0736 107.273 42.2603 107.14C42.447 107.007 42.727 106.94 43.1003 106.94C43.5003 106.94 43.787 107.013 43.9603 107.16C44.1336 107.293 44.2203 107.52 44.2203 107.84V108.16C44.2203 108.507 44.127 108.747 43.9403 108.88C43.767 109.013 43.4803 109.08 43.0803 109.08ZM51.1106 121.16C50.204 121.16 49.3706 120.92 48.6106 120.44C47.864 119.96 47.264 119.313 46.8106 118.5C46.3706 117.673 46.1506 116.76 46.1506 115.76C46.1506 115.013 46.284 114.32 46.5506 113.68C46.8173 113.027 47.1773 112.46 47.6306 111.98C48.084 111.487 48.5906 111.107 49.1506 110.84C49.7106 110.56 50.284 110.42 50.8706 110.42C51.604 110.42 52.2306 110.587 52.7506 110.92C53.284 111.24 53.7106 111.673 54.0306 112.22C54.364 112.767 54.5973 113.38 54.7306 114.06L53.6706 113.42C53.644 112.647 53.5373 111.973 53.3506 111.4C53.1773 110.827 52.924 110.333 52.5906 109.92C52.2573 109.493 51.844 109.14 51.3506 108.86C50.8573 108.58 50.284 108.353 49.6306 108.18C49.3773 108.113 49.164 107.993 48.9906 107.82C48.8306 107.633 48.7506 107.42 48.7506 107.18C48.7506 106.94 48.8173 106.72 48.9506 106.52C49.0973 106.307 49.3173 106.2 49.6106 106.2C49.784 106.2 49.9506 106.22 50.1106 106.26C50.9373 106.487 51.6773 106.827 52.3306 107.28C52.984 107.72 53.544 108.247 54.0106 108.86C54.4773 109.46 54.864 110.12 55.1706 110.84C55.4773 111.547 55.704 112.287 55.8506 113.06C55.9973 113.833 56.0706 114.607 56.0706 115.38C56.0706 116.567 55.844 117.593 55.3906 118.46C54.9506 119.327 54.3573 119.993 53.6106 120.46C52.8773 120.927 52.044 121.16 51.1106 121.16ZM51.1106 119.16C51.6706 119.16 52.1706 119.013 52.6106 118.72C53.064 118.413 53.4173 118 53.6706 117.48C53.9373 116.96 54.0706 116.387 54.0706 115.76C54.0706 115.133 53.9373 114.573 53.6706 114.08C53.4173 113.573 53.064 113.173 52.6106 112.88C52.1706 112.573 51.6706 112.42 51.1106 112.42C50.564 112.42 50.064 112.567 49.6106 112.86C49.1573 113.153 48.7973 113.553 48.5306 114.06C48.2773 114.553 48.1506 115.12 48.1506 115.76C48.1506 116.387 48.284 116.96 48.5506 117.48C48.8173 118 49.1706 118.413 49.6106 118.72C50.064 119.013 50.564 119.16 51.1106 119.16ZM49.1906 110.32C48.9373 110.36 48.7106 110.347 48.5106 110.28C48.324 110.213 48.204 110.06 48.1506 109.82C48.1106 109.58 48.1506 109.393 48.2706 109.26C48.3906 109.113 48.5706 109.013 48.8106 108.96L51.1106 108.4L52.2306 107.98L54.3906 107.52C54.6306 107.48 54.844 107.5 55.0306 107.58C55.2306 107.647 55.3573 107.793 55.4106 108.02C55.464 108.26 55.424 108.453 55.2906 108.6C55.1706 108.747 54.9906 108.84 54.7506 108.88L53.2706 109.2L52.4306 109.54L49.1906 110.32Z" fill="black"/>
<circle cx="567" cy="40" r="40" fill="#585858"/>
<path d="M582.75 31.375L578.931 27.5292L561.083 45.3771L554.069 38.3896L550.25 42.2084L561.083 53.0417L582.75 31.375ZM585.458 15.125H574.137C573 11.9834 570.021 9.70837 566.5 9.70837C562.979 9.70837 560 11.9834 558.863 15.125H547.542C547.162 15.125 546.81 15.1521 546.458 15.2334C545.402 15.45 544.454 15.9917 543.723 16.723C543.235 17.2105 542.829 17.8063 542.558 18.4563C542.288 19.0792 542.125 19.7834 542.125 20.5417V58.4584C542.125 59.1896 542.288 59.9209 542.558 60.5709C542.829 61.2209 543.235 61.7896 543.723 62.3042C544.454 63.0355 545.402 63.5771 546.458 63.7938C546.81 63.848 547.162 63.875 547.542 63.875H585.458C588.437 63.875 590.875 61.4375 590.875 58.4584V20.5417C590.875 17.5625 588.437 15.125 585.458 15.125ZM566.5 14.448C567.61 14.448 568.531 15.3688 568.531 16.4792C568.531 17.5896 567.61 18.5105 566.5 18.5105C565.39 18.5105 564.469 17.5896 564.469 16.4792C564.469 15.3688 565.39 14.448 566.5 14.448ZM585.458 58.4584H547.542V20.5417H585.458V58.4584Z" fill="white"/>
<path d="M543.041 106.96C543.321 106.96 543.561 107.053 543.761 107.24C543.961 107.427 544.061 107.653 544.061 107.92C544.061 108.067 544.027 108.22 543.961 108.38L538.901 120.34C538.794 120.567 538.647 120.733 538.461 120.84C538.287 120.947 538.107 121 537.921 121C537.734 120.987 537.554 120.927 537.381 120.82C537.221 120.713 537.094 120.56 537.001 120.36L531.941 108.38C531.914 108.313 531.894 108.247 531.881 108.18C531.867 108.1 531.861 108.02 531.861 107.94C531.861 107.633 531.974 107.393 532.201 107.22C532.427 107.047 532.647 106.96 532.861 106.96C533.287 106.96 533.601 107.18 533.801 107.62L538.381 118.48H537.801L542.121 107.6C542.307 107.173 542.614 106.96 543.041 106.96ZM547.977 119.98C547.977 120.273 547.884 120.52 547.697 120.72C547.511 120.907 547.271 121 546.977 121C546.697 121 546.457 120.907 546.257 120.72C546.071 120.52 545.977 120.273 545.977 119.98V111.42C545.977 111.127 546.071 110.887 546.257 110.7C546.457 110.5 546.697 110.4 546.977 110.4C547.271 110.4 547.511 110.5 547.697 110.7C547.884 110.887 547.977 111.127 547.977 111.42V119.98ZM546.957 109.08C546.571 109.08 546.291 109.013 546.117 108.88C545.944 108.733 545.857 108.493 545.857 108.16V107.84C545.857 107.507 545.951 107.273 546.137 107.14C546.324 107.007 546.604 106.94 546.977 106.94C547.377 106.94 547.664 107.013 547.837 107.16C548.011 107.293 548.097 107.52 548.097 107.84V108.16C548.097 108.507 548.004 108.747 547.817 108.88C547.644 109.013 547.357 109.08 546.957 109.08ZM554.988 121.16C554.081 121.16 553.248 120.92 552.488 120.44C551.741 119.96 551.141 119.313 550.688 118.5C550.248 117.673 550.028 116.76 550.028 115.76C550.028 115.013 550.161 114.32 550.428 113.68C550.694 113.027 551.054 112.46 551.508 111.98C551.961 111.487 552.468 111.107 553.028 110.84C553.588 110.56 554.161 110.42 554.748 110.42C555.481 110.42 556.108 110.587 556.628 110.92C557.161 111.24 557.588 111.673 557.908 112.22C558.241 112.767 558.474 113.38 558.608 114.06L557.548 113.42C557.521 112.647 557.414 111.973 557.228 111.4C557.054 110.827 556.801 110.333 556.468 109.92C556.134 109.493 555.721 109.14 555.228 108.86C554.734 108.58 554.161 108.353 553.508 108.18C553.254 108.113 553.041 107.993 552.868 107.82C552.708 107.633 552.628 107.42 552.628 107.18C552.628 106.94 552.694 106.72 552.828 106.52C552.974 106.307 553.194 106.2 553.488 106.2C553.661 106.2 553.828 106.22 553.988 106.26C554.814 106.487 555.554 106.827 556.208 107.28C556.861 107.72 557.421 108.247 557.888 108.86C558.354 109.46 558.741 110.12 559.048 110.84C559.354 111.547 559.581 112.287 559.728 113.06C559.874 113.833 559.948 114.607 559.948 115.38C559.948 116.567 559.721 117.593 559.268 118.46C558.828 119.327 558.234 119.993 557.488 120.46C556.754 120.927 555.921 121.16 554.988 121.16ZM554.988 119.16C555.548 119.16 556.048 119.013 556.488 118.72C556.941 118.413 557.294 118 557.548 117.48C557.814 116.96 557.948 116.387 557.948 115.76C557.948 115.133 557.814 114.573 557.548 114.08C557.294 113.573 556.941 113.173 556.488 112.88C556.048 112.573 555.548 112.42 554.988 112.42C554.441 112.42 553.941 112.567 553.488 112.86C553.034 113.153 552.674 113.553 552.408 114.06C552.154 114.553 552.028 115.12 552.028 115.76C552.028 116.387 552.161 116.96 552.428 117.48C552.694 118 553.048 118.413 553.488 118.72C553.941 119.013 554.441 119.16 554.988 119.16ZM553.068 110.32C552.814 110.36 552.588 110.347 552.388 110.28C552.201 110.213 552.081 110.06 552.028 109.82C551.988 109.58 552.028 109.393 552.148 109.26C552.268 109.113 552.448 109.013 552.688 108.96L554.988 108.4L556.108 107.98L558.268 107.52C558.508 107.48 558.721 107.5 558.908 107.58C559.108 107.647 559.234 107.793 559.288 108.02C559.341 108.26 559.301 108.453 559.168 108.6C559.048 108.747 558.868 108.84 558.628 108.88L557.148 109.2L556.308 109.54L553.068 110.32ZM561.973 110.6H566.673C566.94 110.6 567.16 110.693 567.333 110.88C567.52 111.053 567.613 111.273 567.613 111.54C567.613 111.793 567.52 112.007 567.333 112.18C567.16 112.353 566.94 112.44 566.673 112.44H561.973C561.706 112.44 561.48 112.353 561.293 112.18C561.12 111.993 561.033 111.773 561.033 111.52C561.033 111.253 561.12 111.033 561.293 110.86C561.48 110.687 561.706 110.6 561.973 110.6ZM564.073 108C564.366 108 564.606 108.1 564.793 108.3C564.98 108.487 565.073 108.727 565.073 109.02V118.3C565.073 118.54 565.113 118.733 565.193 118.88C565.273 119.027 565.38 119.127 565.513 119.18C565.66 119.233 565.806 119.26 565.953 119.26C566.1 119.26 566.226 119.233 566.333 119.18C566.453 119.127 566.593 119.1 566.753 119.1C566.913 119.1 567.06 119.173 567.193 119.32C567.326 119.467 567.393 119.667 567.393 119.92C567.393 120.24 567.22 120.5 566.873 120.7C566.526 120.9 566.153 121 565.753 121C565.526 121 565.26 120.98 564.953 120.94C564.646 120.9 564.346 120.8 564.053 120.64C563.773 120.48 563.54 120.227 563.353 119.88C563.166 119.52 563.073 119.02 563.073 118.38V109.02C563.073 108.727 563.166 108.487 563.353 108.3C563.553 108.1 563.793 108 564.073 108ZM578.368 110.32C578.648 110.32 578.881 110.42 579.068 110.62C579.268 110.807 579.368 111.047 579.368 111.34V119.98C579.368 120.273 579.268 120.52 579.068 120.72C578.881 120.907 578.648 121 578.368 121C578.074 121 577.834 120.907 577.648 120.72C577.461 120.52 577.368 120.273 577.368 119.98V118.54L577.768 118.6C577.768 118.84 577.668 119.107 577.468 119.4C577.281 119.693 577.021 119.98 576.688 120.26C576.354 120.527 575.961 120.753 575.508 120.94C575.054 121.113 574.568 121.2 574.048 121.2C573.128 121.2 572.301 120.967 571.568 120.5C570.834 120.02 570.254 119.367 569.828 118.54C569.401 117.713 569.188 116.773 569.188 115.72C569.188 114.64 569.401 113.693 569.828 112.88C570.254 112.053 570.828 111.407 571.548 110.94C572.281 110.473 573.094 110.24 573.988 110.24C574.561 110.24 575.088 110.333 575.568 110.52C576.061 110.707 576.488 110.947 576.848 111.24C577.208 111.533 577.488 111.847 577.688 112.18C577.888 112.5 577.988 112.807 577.988 113.1L577.368 113.16V111.34C577.368 111.06 577.461 110.82 577.648 110.62C577.834 110.42 578.074 110.32 578.368 110.32ZM574.288 119.36C574.914 119.36 575.461 119.2 575.928 118.88C576.408 118.56 576.781 118.127 577.048 117.58C577.314 117.02 577.448 116.4 577.448 115.72C577.448 115.027 577.314 114.407 577.048 113.86C576.781 113.313 576.408 112.88 575.928 112.56C575.461 112.24 574.914 112.08 574.288 112.08C573.674 112.08 573.128 112.24 572.648 112.56C572.168 112.88 571.794 113.313 571.528 113.86C571.261 114.407 571.128 115.027 571.128 115.72C571.128 116.4 571.261 117.02 571.528 117.58C571.794 118.127 572.161 118.56 572.628 118.88C573.108 119.2 573.661 119.36 574.288 119.36ZM584.312 119.98C584.312 120.273 584.212 120.52 584.012 120.72C583.825 120.907 583.592 121 583.312 121C583.032 121 582.792 120.907 582.592 120.72C582.405 120.52 582.312 120.273 582.312 119.98V107.22C582.312 106.927 582.412 106.687 582.612 106.5C582.812 106.3 583.052 106.2 583.332 106.2C583.625 106.2 583.859 106.3 584.032 106.5C584.219 106.687 584.312 106.927 584.312 107.22V119.98ZM601.395 110.32C601.675 110.32 601.908 110.42 602.095 110.62C602.295 110.807 602.395 111.047 602.395 111.34V119.98C602.395 120.273 602.295 120.52 602.095 120.72C601.908 120.907 601.675 121 601.395 121C601.102 121 600.862 120.907 600.675 120.72C600.488 120.52 600.395 120.273 600.395 119.98V118.54L600.795 118.6C600.795 118.84 600.695 119.107 600.495 119.4C600.308 119.693 600.048 119.98 599.715 120.26C599.382 120.527 598.988 120.753 598.535 120.94C598.082 121.113 597.595 121.2 597.075 121.2C596.155 121.2 595.328 120.967 594.595 120.5C593.862 120.02 593.282 119.367 592.855 118.54C592.428 117.713 592.215 116.773 592.215 115.72C592.215 114.64 592.428 113.693 592.855 112.88C593.282 112.053 593.855 111.407 594.575 110.94C595.308 110.473 596.122 110.24 597.015 110.24C597.588 110.24 598.115 110.333 598.595 110.52C599.088 110.707 599.515 110.947 599.875 111.24C600.235 111.533 600.515 111.847 600.715 112.18C600.915 112.5 601.015 112.807 601.015 113.1L600.395 113.16V111.34C600.395 111.06 600.488 110.82 600.675 110.62C600.862 110.42 601.102 110.32 601.395 110.32ZM597.315 119.36C597.942 119.36 598.488 119.2 598.955 118.88C599.435 118.56 599.808 118.127 600.075 117.58C600.342 117.02 600.475 116.4 600.475 115.72C600.475 115.027 600.342 114.407 600.075 113.86C599.808 113.313 599.435 112.88 598.955 112.56C598.488 112.24 597.942 112.08 597.315 112.08C596.702 112.08 596.155 112.24 595.675 112.56C595.195 112.88 594.822 113.313 594.555 113.86C594.288 114.407 594.155 115.027 594.155 115.72C594.155 116.4 594.288 117.02 594.555 117.58C594.822 118.127 595.188 118.56 595.655 118.88C596.135 119.2 596.688 119.36 597.315 119.36ZM597.415 109.72C597.322 109.72 597.202 109.673 597.055 109.58C596.922 109.473 596.862 109.333 596.875 109.16C596.875 109.053 596.915 108.94 596.995 108.82L598.175 106.82C598.268 106.647 598.395 106.493 598.555 106.36C598.728 106.213 598.922 106.14 599.135 106.14C599.442 106.14 599.675 106.227 599.835 106.4C599.995 106.56 600.068 106.767 600.055 107.02C600.042 107.14 600.008 107.26 599.955 107.38C599.902 107.5 599.828 107.62 599.735 107.74L598.215 109.4C598.095 109.52 597.962 109.607 597.815 109.66C597.682 109.7 597.548 109.72 597.415 109.72ZM538.348 131.2C538.628 131.2 538.862 131.293 539.048 131.48C539.248 131.667 539.348 131.913 539.348 132.22V144.98C539.348 145.273 539.248 145.52 539.048 145.72C538.862 145.907 538.628 146 538.348 146C538.055 146 537.815 145.907 537.628 145.72C537.442 145.52 537.348 145.273 537.348 144.98V143.54L537.748 143.56C537.748 143.8 537.648 144.073 537.448 144.38C537.262 144.673 537.002 144.96 536.668 145.24C536.335 145.52 535.942 145.753 535.488 145.94C535.035 146.113 534.548 146.2 534.028 146.2C533.122 146.2 532.295 145.967 531.548 145.5C530.815 145.02 530.235 144.373 529.808 143.56C529.382 142.733 529.168 141.787 529.168 140.72C529.168 139.653 529.382 138.713 529.808 137.9C530.235 137.073 530.808 136.427 531.528 135.96C532.262 135.48 533.075 135.24 533.968 135.24C534.528 135.24 535.048 135.333 535.528 135.52C536.022 135.707 536.448 135.947 536.808 136.24C537.168 136.533 537.448 136.847 537.648 137.18C537.862 137.5 537.968 137.807 537.968 138.1L537.348 138.16V132.22C537.348 131.927 537.442 131.687 537.628 131.5C537.815 131.3 538.055 131.2 538.348 131.2ZM534.268 144.36C534.895 144.36 535.442 144.2 535.908 143.88C536.388 143.56 536.762 143.127 537.028 142.58C537.295 142.033 537.428 141.413 537.428 140.72C537.428 140.027 537.295 139.407 537.028 138.86C536.762 138.313 536.388 137.88 535.908 137.56C535.442 137.24 534.895 137.08 534.268 137.08C533.655 137.08 533.108 137.24 532.628 137.56C532.148 137.88 531.775 138.313 531.508 138.86C531.242 139.407 531.108 140.027 531.108 140.72C531.108 141.413 531.242 142.033 531.508 142.58C531.775 143.127 532.148 143.56 532.628 143.88C533.108 144.2 533.655 144.36 534.268 144.36ZM550.672 135.32C550.952 135.32 551.186 135.42 551.372 135.62C551.572 135.807 551.672 136.047 551.672 136.34V144.98C551.672 145.273 551.572 145.52 551.372 145.72C551.186 145.907 550.952 146 550.672 146C550.379 146 550.139 145.907 549.952 145.72C549.766 145.52 549.672 145.273 549.672 144.98V143.54L550.072 143.6C550.072 143.84 549.972 144.107 549.772 144.4C549.586 144.693 549.326 144.98 548.992 145.26C548.659 145.527 548.266 145.753 547.812 145.94C547.359 146.113 546.872 146.2 546.352 146.2C545.432 146.2 544.606 145.967 543.872 145.5C543.139 145.02 542.559 144.367 542.132 143.54C541.706 142.713 541.492 141.773 541.492 140.72C541.492 139.64 541.706 138.693 542.132 137.88C542.559 137.053 543.132 136.407 543.852 135.94C544.586 135.473 545.399 135.24 546.292 135.24C546.866 135.24 547.392 135.333 547.872 135.52C548.366 135.707 548.792 135.947 549.152 136.24C549.512 136.533 549.792 136.847 549.992 137.18C550.192 137.5 550.292 137.807 550.292 138.1L549.672 138.16V136.34C549.672 136.06 549.766 135.82 549.952 135.62C550.139 135.42 550.379 135.32 550.672 135.32ZM546.592 144.36C547.219 144.36 547.766 144.2 548.232 143.88C548.712 143.56 549.086 143.127 549.352 142.58C549.619 142.02 549.752 141.4 549.752 140.72C549.752 140.027 549.619 139.407 549.352 138.86C549.086 138.313 548.712 137.88 548.232 137.56C547.766 137.24 547.219 137.08 546.592 137.08C545.979 137.08 545.432 137.24 544.952 137.56C544.472 137.88 544.099 138.313 543.832 138.86C543.566 139.407 543.432 140.027 543.432 140.72C543.432 141.4 543.566 142.02 543.832 142.58C544.099 143.127 544.466 143.56 544.932 143.88C545.412 144.2 545.966 144.36 546.592 144.36ZM558.737 135.24C559.31 135.24 559.837 135.333 560.317 135.52C560.797 135.707 561.21 135.947 561.557 136.24C561.917 136.52 562.197 136.813 562.397 137.12C562.597 137.427 562.697 137.693 562.697 137.92L562.237 137.94V136.34C562.237 136.06 562.33 135.82 562.517 135.62C562.703 135.42 562.943 135.32 563.237 135.32C563.53 135.32 563.77 135.42 563.957 135.62C564.143 135.807 564.237 136.047 564.237 136.34V145.16C564.237 146.293 563.997 147.213 563.517 147.92C563.037 148.64 562.397 149.167 561.597 149.5C560.81 149.833 559.943 150 558.997 150C558.663 150 558.27 149.953 557.817 149.86C557.363 149.78 556.943 149.68 556.557 149.56C556.183 149.44 555.923 149.32 555.777 149.2C555.47 149.04 555.263 148.853 555.157 148.64C555.063 148.427 555.07 148.213 555.177 148C555.297 147.707 555.47 147.527 555.697 147.46C555.923 147.393 556.183 147.413 556.477 147.52C556.61 147.56 556.817 147.633 557.097 147.74C557.377 147.847 557.69 147.94 558.037 148.02C558.383 148.113 558.71 148.16 559.017 148.16C560.083 148.16 560.883 147.913 561.417 147.42C561.963 146.927 562.237 146.253 562.237 145.4V143.6L562.477 143.74C562.437 144.02 562.31 144.307 562.097 144.6C561.883 144.88 561.61 145.14 561.277 145.38C560.943 145.62 560.563 145.82 560.137 145.98C559.71 146.127 559.263 146.2 558.797 146.2C557.863 146.2 557.017 145.967 556.257 145.5C555.51 145.02 554.917 144.373 554.477 143.56C554.037 142.733 553.817 141.787 553.817 140.72C553.817 139.653 554.037 138.713 554.477 137.9C554.917 137.073 555.503 136.427 556.237 135.96C556.983 135.48 557.817 135.24 558.737 135.24ZM559.037 137.08C558.397 137.08 557.823 137.24 557.317 137.56C556.823 137.88 556.437 138.313 556.157 138.86C555.89 139.407 555.757 140.027 555.757 140.72C555.757 141.413 555.89 142.033 556.157 142.58C556.437 143.127 556.823 143.56 557.317 143.88C557.823 144.2 558.397 144.36 559.037 144.36C559.69 144.36 560.263 144.207 560.757 143.9C561.25 143.58 561.637 143.147 561.917 142.6C562.197 142.04 562.337 141.413 562.337 140.72C562.337 140.027 562.197 139.407 561.917 138.86C561.637 138.3 561.25 137.867 560.757 137.56C560.263 137.24 559.69 137.08 559.037 137.08ZM566.219 144.36C566.099 144.173 566.046 143.96 566.059 143.72C566.073 143.467 566.213 143.253 566.479 143.08C566.666 142.96 566.859 142.913 567.059 142.94C567.273 142.953 567.473 143.053 567.659 143.24C568.033 143.653 568.446 143.98 568.899 144.22C569.366 144.46 569.926 144.58 570.579 144.58C570.846 144.567 571.119 144.527 571.399 144.46C571.679 144.38 571.919 144.247 572.119 144.06C572.319 143.86 572.419 143.573 572.419 143.2C572.419 142.867 572.313 142.6 572.099 142.4C571.886 142.2 571.606 142.04 571.259 141.92C570.913 141.787 570.539 141.667 570.139 141.56C569.713 141.44 569.279 141.307 568.839 141.16C568.413 141.013 568.026 140.827 567.679 140.6C567.333 140.36 567.046 140.053 566.819 139.68C566.606 139.307 566.499 138.847 566.499 138.3C566.499 137.673 566.673 137.133 567.019 136.68C567.379 136.227 567.839 135.873 568.399 135.62C568.973 135.367 569.593 135.24 570.259 135.24C570.646 135.24 571.053 135.293 571.479 135.4C571.906 135.493 572.319 135.647 572.719 135.86C573.119 136.073 573.466 136.353 573.759 136.7C573.893 136.873 573.966 137.08 573.979 137.32C574.006 137.56 573.899 137.773 573.659 137.96C573.499 138.093 573.306 138.153 573.079 138.14C572.853 138.127 572.666 138.053 572.519 137.92C572.266 137.6 571.939 137.353 571.539 137.18C571.139 136.993 570.686 136.9 570.179 136.9C569.926 136.9 569.659 136.94 569.379 137.02C569.113 137.087 568.886 137.213 568.699 137.4C568.513 137.587 568.419 137.86 568.419 138.22C568.419 138.553 568.526 138.82 568.739 139.02C568.966 139.22 569.259 139.387 569.619 139.52C569.979 139.653 570.373 139.773 570.799 139.88C571.213 139.987 571.619 140.113 572.019 140.26C572.433 140.407 572.799 140.6 573.119 140.84C573.453 141.067 573.719 141.367 573.919 141.74C574.133 142.1 574.239 142.56 574.239 143.12C574.239 143.773 574.046 144.333 573.659 144.8C573.286 145.253 572.806 145.6 572.219 145.84C571.646 146.08 571.039 146.2 570.399 146.2C569.639 146.2 568.879 146.067 568.119 145.8C567.373 145.52 566.739 145.04 566.219 144.36ZM577.55 146C577.27 146 577.03 145.907 576.83 145.72C576.644 145.52 576.55 145.273 576.55 144.98V132.22C576.55 131.927 576.644 131.687 576.83 131.5C577.03 131.3 577.27 131.2 577.55 131.2C577.844 131.2 578.084 131.3 578.27 131.5C578.457 131.687 578.55 131.927 578.55 132.22V144.98C578.55 145.273 578.457 145.52 578.27 145.72C578.084 145.907 577.844 146 577.55 146ZM584.07 135.44C584.324 135.44 584.544 135.547 584.73 135.76C584.917 135.973 585.01 136.187 585.01 136.4C585.01 136.667 584.884 136.913 584.63 137.14L578.37 142.74L578.29 140.44L583.33 135.76C583.544 135.547 583.79 135.44 584.07 135.44ZM584.31 145.98C584.03 145.98 583.79 145.867 583.59 145.64L579.59 141.42L581.11 140.02L585.01 144.24C585.224 144.467 585.33 144.72 585.33 145C585.33 145.293 585.21 145.533 584.97 145.72C584.744 145.893 584.524 145.98 584.31 145.98ZM588.543 146C588.249 146 588.009 145.907 587.823 145.72C587.636 145.52 587.543 145.273 587.543 144.98V136.5C587.543 136.207 587.636 135.967 587.823 135.78C588.009 135.58 588.249 135.48 588.543 135.48C588.823 135.48 589.056 135.58 589.243 135.78C589.443 135.967 589.543 136.207 589.543 136.5V138.74L589.343 137.88C589.449 137.507 589.609 137.16 589.823 136.84C590.049 136.52 590.316 136.24 590.623 136C590.929 135.76 591.269 135.573 591.643 135.44C592.029 135.307 592.429 135.24 592.843 135.24C593.189 135.24 593.489 135.333 593.743 135.52C593.996 135.707 594.123 135.94 594.123 136.22C594.123 136.58 594.029 136.847 593.843 137.02C593.656 137.18 593.449 137.26 593.223 137.26C593.023 137.26 592.829 137.22 592.643 137.14C592.456 137.047 592.236 137 591.983 137C591.703 137 591.416 137.073 591.123 137.22C590.829 137.367 590.563 137.587 590.323 137.88C590.083 138.16 589.889 138.493 589.743 138.88C589.609 139.267 589.543 139.7 589.543 140.18V144.98C589.543 145.273 589.443 145.52 589.243 145.72C589.056 145.907 588.823 146 588.543 146ZM604.208 135.32C604.488 135.32 604.721 135.42 604.908 135.62C605.108 135.807 605.208 136.047 605.208 136.34V144.98C605.208 145.273 605.108 145.52 604.908 145.72C604.721 145.907 604.488 146 604.208 146C603.914 146 603.674 145.907 603.488 145.72C603.301 145.52 603.208 145.273 603.208 144.98V143.54L603.608 143.6C603.608 143.84 603.508 144.107 603.308 144.4C603.121 144.693 602.861 144.98 602.528 145.26C602.194 145.527 601.801 145.753 601.348 145.94C600.894 146.113 600.408 146.2 599.888 146.2C598.968 146.2 598.141 145.967 597.408 145.5C596.674 145.02 596.094 144.367 595.668 143.54C595.241 142.713 595.028 141.773 595.028 140.72C595.028 139.64 595.241 138.693 595.668 137.88C596.094 137.053 596.668 136.407 597.388 135.94C598.121 135.473 598.934 135.24 599.828 135.24C600.401 135.24 600.928 135.333 601.408 135.52C601.901 135.707 602.328 135.947 602.688 136.24C603.048 136.533 603.328 136.847 603.528 137.18C603.728 137.5 603.828 137.807 603.828 138.1L603.208 138.16V136.34C603.208 136.06 603.301 135.82 603.488 135.62C603.674 135.42 603.914 135.32 604.208 135.32ZM600.128 144.36C600.754 144.36 601.301 144.2 601.768 143.88C602.248 143.56 602.621 143.127 602.888 142.58C603.154 142.02 603.288 141.4 603.288 140.72C603.288 140.027 603.154 139.407 602.888 138.86C602.621 138.313 602.248 137.88 601.768 137.56C601.301 137.24 600.754 137.08 600.128 137.08C599.514 137.08 598.968 137.24 598.488 137.56C598.008 137.88 597.634 138.313 597.368 138.86C597.101 139.407 596.968 140.027 596.968 140.72C596.968 141.4 597.101 142.02 597.368 142.58C597.634 143.127 598.001 143.56 598.468 143.88C598.948 144.2 599.501 144.36 600.128 144.36ZM600.228 134.72C600.134 134.72 600.014 134.673 599.868 134.58C599.734 134.473 599.674 134.333 599.688 134.16C599.688 134.053 599.728 133.94 599.808 133.82L600.988 131.82C601.081 131.647 601.208 131.493 601.368 131.36C601.541 131.213 601.734 131.14 601.948 131.14C602.254 131.14 602.488 131.227 602.648 131.4C602.808 131.56 602.881 131.767 602.868 132.02C602.854 132.14 602.821 132.26 602.768 132.38C602.714 132.5 602.641 132.62 602.548 132.74L601.028 134.4C600.908 134.52 600.774 134.607 600.628 134.66C600.494 134.7 600.361 134.72 600.228 134.72Z" fill="black"/>
<circle cx="1092" cy="40" r="40" fill="#585858"/>
<path d="M1091.5 12.4166C1076.55 12.4166 1064.42 24.55 1064.42 39.5C1064.42 54.45 1076.55 66.5833 1091.5 66.5833C1106.45 66.5833 1118.58 54.45 1118.58 39.5C1118.58 24.55 1106.45 12.4166 1091.5 12.4166ZM1091.5 61.1666C1079.56 61.1666 1069.83 51.4437 1069.83 39.5C1069.83 27.5562 1079.56 17.8333 1091.5 17.8333C1103.44 17.8333 1113.17 27.5562 1113.17 39.5C1113.17 51.4437 1103.44 61.1666 1091.5 61.1666ZM1103.93 27.5291L1086.08 45.377L1079.07 38.3895L1075.25 42.2083L1086.08 53.0416L1107.75 31.375L1103.93 27.5291Z" fill="white"/>
<path d="M1074.17 107C1074.88 107 1075.53 107.193 1076.13 107.58C1076.73 107.953 1077.21 108.467 1077.57 109.12C1077.93 109.773 1078.11 110.507 1078.11 111.32C1078.11 112.133 1077.93 112.873 1077.57 113.54C1077.21 114.193 1076.73 114.72 1076.13 115.12C1075.53 115.507 1074.88 115.7 1074.17 115.7H1070.31L1070.47 115.38V119.98C1070.47 120.273 1070.38 120.52 1070.19 120.72C1070.02 120.907 1069.79 121 1069.49 121C1069.21 121 1068.98 120.907 1068.79 120.72C1068.62 120.52 1068.53 120.273 1068.53 119.98V108.02C1068.53 107.727 1068.63 107.487 1068.83 107.3C1069.03 107.1 1069.27 107 1069.55 107H1074.17ZM1074.17 113.78C1074.52 113.78 1074.83 113.667 1075.11 113.44C1075.41 113.213 1075.64 112.913 1075.81 112.54C1076 112.167 1076.09 111.76 1076.09 111.32C1076.09 110.88 1076 110.48 1075.81 110.12C1075.64 109.76 1075.41 109.473 1075.11 109.26C1074.83 109.033 1074.52 108.92 1074.17 108.92H1070.27L1070.47 108.62V114.04L1070.29 113.78H1074.17ZM1081.32 121C1081.03 121 1080.79 120.907 1080.6 120.72C1080.42 120.52 1080.32 120.273 1080.32 119.98V111.5C1080.32 111.207 1080.42 110.967 1080.6 110.78C1080.79 110.58 1081.03 110.48 1081.32 110.48C1081.6 110.48 1081.84 110.58 1082.02 110.78C1082.22 110.967 1082.32 111.207 1082.32 111.5V113.74L1082.12 112.88C1082.23 112.507 1082.39 112.16 1082.6 111.84C1082.83 111.52 1083.1 111.24 1083.4 111C1083.71 110.76 1084.05 110.573 1084.42 110.44C1084.81 110.307 1085.21 110.24 1085.62 110.24C1085.97 110.24 1086.27 110.333 1086.52 110.52C1086.78 110.707 1086.9 110.94 1086.9 111.22C1086.9 111.58 1086.81 111.847 1086.62 112.02C1086.44 112.18 1086.23 112.26 1086 112.26C1085.8 112.26 1085.61 112.22 1085.42 112.14C1085.24 112.047 1085.02 112 1084.76 112C1084.48 112 1084.2 112.073 1083.9 112.22C1083.61 112.367 1083.34 112.587 1083.1 112.88C1082.86 113.16 1082.67 113.493 1082.52 113.88C1082.39 114.267 1082.32 114.7 1082.32 115.18V119.98C1082.32 120.273 1082.22 120.52 1082.02 120.72C1081.84 120.907 1081.6 121 1081.32 121ZM1098.68 115.74C1098.68 116.807 1098.44 117.753 1097.96 118.58C1097.5 119.393 1096.86 120.033 1096.06 120.5C1095.26 120.967 1094.36 121.2 1093.36 121.2C1092.38 121.2 1091.48 120.967 1090.66 120.5C1089.86 120.033 1089.22 119.393 1088.74 118.58C1088.28 117.753 1088.04 116.807 1088.04 115.74C1088.04 114.66 1088.28 113.713 1088.74 112.9C1089.22 112.073 1089.86 111.427 1090.66 110.96C1091.48 110.48 1092.38 110.24 1093.36 110.24C1094.36 110.24 1095.26 110.48 1096.06 110.96C1096.86 111.427 1097.5 112.073 1097.96 112.9C1098.44 113.713 1098.68 114.66 1098.68 115.74ZM1096.68 115.74C1096.68 115.007 1096.54 114.373 1096.24 113.84C1095.95 113.293 1095.55 112.867 1095.04 112.56C1094.55 112.24 1093.99 112.08 1093.36 112.08C1092.75 112.08 1092.19 112.24 1091.68 112.56C1091.19 112.867 1090.79 113.293 1090.48 113.84C1090.19 114.373 1090.04 115.007 1090.04 115.74C1090.04 116.447 1090.19 117.073 1090.48 117.62C1090.79 118.167 1091.19 118.593 1091.68 118.9C1092.19 119.207 1092.75 119.36 1093.36 119.36C1093.99 119.36 1094.55 119.207 1095.04 118.9C1095.55 118.593 1095.95 118.167 1096.24 117.62C1096.54 117.073 1096.68 116.447 1096.68 115.74ZM1093.36 109.68C1093.27 109.68 1093.15 109.633 1093 109.54C1092.87 109.433 1092.81 109.293 1092.82 109.12C1092.82 109.013 1092.86 108.9 1092.94 108.78L1094.12 106.78C1094.22 106.607 1094.34 106.453 1094.5 106.32C1094.68 106.173 1094.87 106.1 1095.08 106.1C1095.39 106.1 1095.62 106.187 1095.78 106.36C1095.94 106.52 1096.02 106.727 1096 106.98C1095.99 107.1 1095.96 107.22 1095.9 107.34C1095.85 107.46 1095.78 107.58 1095.68 107.7L1094.16 109.36C1094.04 109.48 1093.91 109.567 1093.76 109.62C1093.63 109.66 1093.5 109.68 1093.36 109.68ZM1105.75 106.22C1106 106.22 1106.26 106.253 1106.53 106.32C1106.8 106.387 1107.02 106.5 1107.19 106.66C1107.38 106.807 1107.47 107.013 1107.47 107.28C1107.47 107.547 1107.39 107.767 1107.23 107.94C1107.07 108.1 1106.88 108.18 1106.67 108.18C1106.54 108.18 1106.36 108.153 1106.13 108.1C1105.9 108.033 1105.68 108 1105.45 108C1105.14 108 1104.9 108.073 1104.71 108.22C1104.52 108.353 1104.39 108.527 1104.31 108.74C1104.23 108.94 1104.19 109.14 1104.19 109.34V119.98C1104.19 120.273 1104.09 120.52 1103.89 120.72C1103.7 120.907 1103.47 121 1103.19 121C1102.9 121 1102.66 120.907 1102.47 120.72C1102.28 120.52 1102.19 120.273 1102.19 119.98V109.36C1102.19 108.44 1102.49 107.687 1103.09 107.1C1103.7 106.513 1104.59 106.22 1105.75 106.22ZM1106.15 110.66C1106.42 110.66 1106.64 110.747 1106.81 110.92C1106.98 111.093 1107.07 111.313 1107.07 111.58C1107.07 111.847 1106.98 112.067 1106.81 112.24C1106.64 112.413 1106.42 112.5 1106.15 112.5H1100.97C1100.72 112.5 1100.5 112.413 1100.31 112.24C1100.14 112.067 1100.05 111.847 1100.05 111.58C1100.05 111.313 1100.14 111.093 1100.31 110.92C1100.5 110.747 1100.72 110.66 1100.97 110.66H1106.15ZM1110.66 119.98C1110.66 120.273 1110.57 120.52 1110.38 120.72C1110.19 120.907 1109.95 121 1109.66 121C1109.38 121 1109.14 120.907 1108.94 120.72C1108.75 120.52 1108.66 120.273 1108.66 119.98V111.42C1108.66 111.127 1108.75 110.887 1108.94 110.7C1109.14 110.5 1109.38 110.4 1109.66 110.4C1109.95 110.4 1110.19 110.5 1110.38 110.7C1110.57 110.887 1110.66 111.127 1110.66 111.42V119.98ZM1109.66 109.72C1109.57 109.72 1109.45 109.673 1109.3 109.58C1109.17 109.473 1109.11 109.333 1109.12 109.16C1109.12 109.053 1109.16 108.94 1109.24 108.82L1110.42 106.82C1110.51 106.647 1110.64 106.493 1110.8 106.36C1110.97 106.213 1111.17 106.14 1111.38 106.14C1111.69 106.14 1111.92 106.227 1112.08 106.4C1112.24 106.56 1112.31 106.767 1112.3 107.02C1112.29 107.14 1112.25 107.26 1112.2 107.38C1112.15 107.5 1112.07 107.62 1111.98 107.74L1110.46 109.4C1110.34 109.52 1110.21 109.607 1110.06 109.66C1109.93 109.7 1109.79 109.72 1109.66 109.72ZM1115.51 119.98C1115.51 120.273 1115.41 120.52 1115.21 120.72C1115.02 120.907 1114.79 121 1114.51 121C1114.23 121 1113.99 120.907 1113.79 120.72C1113.6 120.52 1113.51 120.273 1113.51 119.98V107.22C1113.51 106.927 1113.61 106.687 1113.81 106.5C1114.01 106.3 1114.25 106.2 1114.53 106.2C1114.82 106.2 1115.06 106.3 1115.23 106.5C1115.42 106.687 1115.51 106.927 1115.51 107.22V119.98ZM1069.58 144.98C1069.58 145.273 1069.48 145.52 1069.28 145.72C1069.1 145.907 1068.86 146 1068.58 146C1068.3 146 1068.06 145.907 1067.86 145.72C1067.68 145.52 1067.58 145.273 1067.58 144.98V132.22C1067.58 131.927 1067.68 131.687 1067.88 131.5C1068.08 131.3 1068.32 131.2 1068.6 131.2C1068.9 131.2 1069.13 131.3 1069.3 131.5C1069.49 131.687 1069.58 131.927 1069.58 132.22V144.98ZM1082.36 140.74C1082.36 141.807 1082.12 142.753 1081.64 143.58C1081.18 144.393 1080.54 145.033 1079.74 145.5C1078.94 145.967 1078.04 146.2 1077.04 146.2C1076.06 146.2 1075.16 145.967 1074.34 145.5C1073.54 145.033 1072.9 144.393 1072.42 143.58C1071.96 142.753 1071.72 141.807 1071.72 140.74C1071.72 139.66 1071.96 138.713 1072.42 137.9C1072.9 137.073 1073.54 136.427 1074.34 135.96C1075.16 135.48 1076.06 135.24 1077.04 135.24C1078.04 135.24 1078.94 135.48 1079.74 135.96C1080.54 136.427 1081.18 137.073 1081.64 137.9C1082.12 138.713 1082.36 139.66 1082.36 140.74ZM1080.36 140.74C1080.36 140.007 1080.22 139.373 1079.92 138.84C1079.63 138.293 1079.23 137.867 1078.72 137.56C1078.23 137.24 1077.67 137.08 1077.04 137.08C1076.43 137.08 1075.87 137.24 1075.36 137.56C1074.87 137.867 1074.47 138.293 1074.16 138.84C1073.87 139.373 1073.72 140.007 1073.72 140.74C1073.72 141.447 1073.87 142.073 1074.16 142.62C1074.47 143.167 1074.87 143.593 1075.36 143.9C1075.87 144.207 1076.43 144.36 1077.04 144.36C1077.67 144.36 1078.23 144.207 1078.72 143.9C1079.23 143.593 1079.63 143.167 1079.92 142.62C1080.22 142.073 1080.36 141.447 1080.36 140.74ZM1085.69 146C1085.41 146 1085.17 145.907 1084.97 145.72C1084.79 145.52 1084.69 145.273 1084.69 144.98V132.22C1084.69 131.927 1084.79 131.687 1084.97 131.5C1085.17 131.3 1085.41 131.2 1085.69 131.2C1085.99 131.2 1086.23 131.3 1086.41 131.5C1086.6 131.687 1086.69 131.927 1086.69 132.22V144.98C1086.69 145.273 1086.6 145.52 1086.41 145.72C1086.23 145.907 1085.99 146 1085.69 146ZM1092.21 135.44C1092.47 135.44 1092.69 135.547 1092.87 135.76C1093.06 135.973 1093.15 136.187 1093.15 136.4C1093.15 136.667 1093.03 136.913 1092.77 137.14L1086.51 142.74L1086.43 140.44L1091.47 135.76C1091.69 135.547 1091.93 135.44 1092.21 135.44ZM1092.45 145.98C1092.17 145.98 1091.93 145.867 1091.73 145.64L1087.73 141.42L1089.25 140.02L1093.15 144.24C1093.37 144.467 1093.47 144.72 1093.47 145C1093.47 145.293 1093.35 145.533 1093.11 145.72C1092.89 145.893 1092.67 145.98 1092.45 145.98ZM1104.15 135.32C1104.43 135.32 1104.66 135.42 1104.85 135.62C1105.05 135.807 1105.15 136.047 1105.15 136.34V144.98C1105.15 145.273 1105.05 145.52 1104.85 145.72C1104.66 145.907 1104.43 146 1104.15 146C1103.85 146 1103.61 145.907 1103.43 145.72C1103.24 145.52 1103.15 145.273 1103.15 144.98V143.54L1103.55 143.6C1103.55 143.84 1103.45 144.107 1103.25 144.4C1103.06 144.693 1102.8 144.98 1102.47 145.26C1102.13 145.527 1101.74 145.753 1101.29 145.94C1100.83 146.113 1100.35 146.2 1099.83 146.2C1098.91 146.2 1098.08 145.967 1097.35 145.5C1096.61 145.02 1096.03 144.367 1095.61 143.54C1095.18 142.713 1094.97 141.773 1094.97 140.72C1094.97 139.64 1095.18 138.693 1095.61 137.88C1096.03 137.053 1096.61 136.407 1097.33 135.94C1098.06 135.473 1098.87 135.24 1099.77 135.24C1100.34 135.24 1100.87 135.333 1101.35 135.52C1101.84 135.707 1102.27 135.947 1102.63 136.24C1102.99 136.533 1103.27 136.847 1103.47 137.18C1103.67 137.5 1103.77 137.807 1103.77 138.1L1103.15 138.16V136.34C1103.15 136.06 1103.24 135.82 1103.43 135.62C1103.61 135.42 1103.85 135.32 1104.15 135.32ZM1100.07 144.36C1100.69 144.36 1101.24 144.2 1101.71 143.88C1102.19 143.56 1102.56 143.127 1102.83 142.58C1103.09 142.02 1103.23 141.4 1103.23 140.72C1103.23 140.027 1103.09 139.407 1102.83 138.86C1102.56 138.313 1102.19 137.88 1101.71 137.56C1101.24 137.24 1100.69 137.08 1100.07 137.08C1099.45 137.08 1098.91 137.24 1098.43 137.56C1097.95 137.88 1097.57 138.313 1097.31 138.86C1097.04 139.407 1096.91 140.027 1096.91 140.72C1096.91 141.4 1097.04 142.02 1097.31 142.58C1097.57 143.127 1097.94 143.56 1098.41 143.88C1098.89 144.2 1099.44 144.36 1100.07 144.36ZM1112.25 146.16C1111.34 146.16 1110.51 145.92 1109.75 145.44C1109 144.96 1108.4 144.313 1107.95 143.5C1107.51 142.673 1107.29 141.76 1107.29 140.76C1107.29 140.013 1107.42 139.32 1107.69 138.68C1107.96 138.027 1108.32 137.46 1108.77 136.98C1109.22 136.487 1109.73 136.107 1110.29 135.84C1110.85 135.56 1111.42 135.42 1112.01 135.42C1112.74 135.42 1113.37 135.587 1113.89 135.92C1114.42 136.24 1114.85 136.673 1115.17 137.22C1115.5 137.767 1115.74 138.38 1115.87 139.06L1114.81 138.42C1114.78 137.647 1114.68 136.973 1114.49 136.4C1114.32 135.827 1114.06 135.333 1113.73 134.92C1113.4 134.493 1112.98 134.14 1112.49 133.86C1112 133.58 1111.42 133.353 1110.77 133.18C1110.52 133.113 1110.3 132.993 1110.13 132.82C1109.97 132.633 1109.89 132.42 1109.89 132.18C1109.89 131.94 1109.96 131.72 1110.09 131.52C1110.24 131.307 1110.46 131.2 1110.75 131.2C1110.92 131.2 1111.09 131.22 1111.25 131.26C1112.08 131.487 1112.82 131.827 1113.47 132.28C1114.12 132.72 1114.68 133.247 1115.15 133.86C1115.62 134.46 1116 135.12 1116.31 135.84C1116.62 136.547 1116.84 137.287 1116.99 138.06C1117.14 138.833 1117.21 139.607 1117.21 140.38C1117.21 141.567 1116.98 142.593 1116.53 143.46C1116.09 144.327 1115.5 144.993 1114.75 145.46C1114.02 145.927 1113.18 146.16 1112.25 146.16ZM1112.25 144.16C1112.81 144.16 1113.31 144.013 1113.75 143.72C1114.2 143.413 1114.56 143 1114.81 142.48C1115.08 141.96 1115.21 141.387 1115.21 140.76C1115.21 140.133 1115.08 139.573 1114.81 139.08C1114.56 138.573 1114.2 138.173 1113.75 137.88C1113.31 137.573 1112.81 137.42 1112.25 137.42C1111.7 137.42 1111.2 137.567 1110.75 137.86C1110.3 138.153 1109.94 138.553 1109.67 139.06C1109.42 139.553 1109.29 140.12 1109.29 140.76C1109.29 141.387 1109.42 141.96 1109.69 142.48C1109.96 143 1110.31 143.413 1110.75 143.72C1111.2 144.013 1111.7 144.16 1112.25 144.16ZM1110.33 135.32C1110.08 135.36 1109.85 135.347 1109.65 135.28C1109.46 135.213 1109.34 135.06 1109.29 134.82C1109.25 134.58 1109.29 134.393 1109.41 134.26C1109.53 134.113 1109.71 134.013 1109.95 133.96L1112.25 133.4L1113.37 132.98L1115.53 132.52C1115.77 132.48 1115.98 132.5 1116.17 132.58C1116.37 132.647 1116.5 132.793 1116.55 133.02C1116.6 133.26 1116.56 133.453 1116.43 133.6C1116.31 133.747 1116.13 133.84 1115.89 133.88L1114.41 134.2L1113.57 134.54L1110.33 135.32Z" fill="black"/>
</svg>
