<svg width="344" height="592" viewBox="0 0 344 592" fill="none" xmlns="http://www.w3.org/2000/svg">
<path d="M40 0L40 592" stroke="black" stroke-width="2"/>
<circle cx="40" cy="40" r="40" fill="#005E89"/>
<path d="M40.4997 19.2229L60.8934 54.4583H20.1059L40.4997 19.2229ZM15.4205 51.75C13.3351 55.3521 15.9351 59.875 20.1059 59.875H60.8934C65.0643 59.875 67.6643 55.3521 65.5788 51.75L45.1851 16.5146C43.0997 12.9125 37.8997 12.9125 35.8143 16.5146L15.4205 51.75ZM37.7913 32.7916V38.2083C37.7913 39.6979 39.0101 40.9166 40.4997 40.9166C41.9893 40.9166 43.208 39.6979 43.208 38.2083V32.7916C43.208 31.3021 41.9893 30.0833 40.4997 30.0833C39.0101 30.0833 37.7913 31.3021 37.7913 32.7916ZM37.7913 46.3333H43.208V51.75H37.7913V46.3333Z" fill="white"/>
<path d="M115.26 33C115.967 33 116.62 33.1933 117.22 33.58C117.82 33.9533 118.3 34.4667 118.66 35.12C119.02 35.7733 119.2 36.5067 119.2 37.32C119.2 38.1333 119.02 38.8733 118.66 39.54C118.3 40.1933 117.82 40.72 117.22 41.12C116.62 41.5067 115.967 41.7 115.26 41.7H111.4L111.56 41.38V45.98C111.56 46.2733 111.467 46.52 111.28 46.72C111.107 46.9067 110.873 47 110.58 47C110.3 47 110.067 46.9067 109.88 46.72C109.707 46.52 109.62 46.2733 109.62 45.98V34.02C109.62 33.7267 109.72 33.4867 109.92 33.3C110.12 33.1 110.36 33 110.64 33H115.26ZM115.26 39.78C115.607 39.78 115.92 39.6667 116.2 39.44C116.493 39.2133 116.727 38.9133 116.9 38.54C117.087 38.1667 117.18 37.76 117.18 37.32C117.18 36.88 117.087 36.48 116.9 36.12C116.727 35.76 116.493 35.4733 116.2 35.26C115.92 35.0333 115.607 34.92 115.26 34.92H111.36L111.56 34.62V40.04L111.38 39.78H115.26ZM126.016 47.2C124.923 47.2 123.963 46.9733 123.136 46.52C122.323 46.0533 121.69 45.42 121.236 44.62C120.796 43.8067 120.576 42.88 120.576 41.84C120.576 40.6667 120.81 39.6667 121.276 38.84C121.756 38 122.376 37.36 123.136 36.92C123.91 36.4667 124.723 36.24 125.576 36.24C126.216 36.24 126.83 36.3733 127.416 36.64C128.016 36.8933 128.543 37.2533 128.996 37.72C129.45 38.1733 129.81 38.7133 130.076 39.34C130.343 39.9533 130.483 40.6267 130.496 41.36C130.483 41.6267 130.376 41.8467 130.176 42.02C129.976 42.1933 129.743 42.28 129.476 42.28H121.716L121.236 40.58H128.756L128.376 40.94V40.44C128.336 39.9733 128.176 39.5667 127.896 39.22C127.616 38.86 127.27 38.5867 126.856 38.4C126.456 38.2 126.03 38.1 125.576 38.1C125.176 38.1 124.79 38.1667 124.416 38.3C124.043 38.42 123.716 38.62 123.436 38.9C123.156 39.18 122.93 39.5533 122.756 40.02C122.583 40.4733 122.496 41.04 122.496 41.72C122.496 42.4533 122.65 43.0933 122.956 43.64C123.263 44.1867 123.676 44.6133 124.196 44.92C124.716 45.2133 125.296 45.36 125.936 45.36C126.416 45.36 126.816 45.3133 127.136 45.22C127.456 45.1133 127.723 44.9867 127.936 44.84C128.15 44.6933 128.336 44.5533 128.496 44.42C128.71 44.3 128.91 44.24 129.096 44.24C129.336 44.24 129.536 44.3267 129.696 44.5C129.856 44.66 129.936 44.8533 129.936 45.08C129.936 45.3733 129.79 45.64 129.496 45.88C129.136 46.2267 128.636 46.5333 127.996 46.8C127.37 47.0667 126.71 47.2 126.016 47.2ZM138.082 36.24C139.028 36.24 139.762 36.44 140.282 36.84C140.802 37.2267 141.162 37.7533 141.362 38.42C141.575 39.0733 141.682 39.8067 141.682 40.62V45.98C141.682 46.2733 141.582 46.52 141.382 46.72C141.195 46.9067 140.962 47 140.682 47C140.388 47 140.148 46.9067 139.962 46.72C139.775 46.52 139.682 46.2733 139.682 45.98V40.64C139.682 40.16 139.615 39.7333 139.482 39.36C139.348 38.9733 139.115 38.6667 138.782 38.44C138.462 38.2 138.008 38.08 137.422 38.08C136.875 38.08 136.395 38.2 135.982 38.44C135.568 38.6667 135.242 38.9733 135.002 39.36C134.775 39.7333 134.662 40.16 134.662 40.64V45.98C134.662 46.2733 134.562 46.52 134.362 46.72C134.175 46.9067 133.942 47 133.662 47C133.368 47 133.128 46.9067 132.942 46.72C132.755 46.52 132.662 46.2733 132.662 45.98V37.5C132.662 37.2067 132.755 36.9667 132.942 36.78C133.128 36.58 133.368 36.48 133.662 36.48C133.942 36.48 134.175 36.58 134.362 36.78C134.562 36.9667 134.662 37.2067 134.662 37.5V38.62L134.302 38.82C134.395 38.5267 134.555 38.2333 134.782 37.94C135.022 37.6333 135.308 37.3533 135.642 37.1C135.975 36.8333 136.348 36.6267 136.762 36.48C137.175 36.32 137.615 36.24 138.082 36.24ZM152.999 32.2C153.279 32.2 153.512 32.2933 153.699 32.48C153.899 32.6667 153.999 32.9133 153.999 33.22V45.98C153.999 46.2733 153.899 46.52 153.699 46.72C153.512 46.9067 153.279 47 152.999 47C152.705 47 152.465 46.9067 152.279 46.72C152.092 46.52 151.999 46.2733 151.999 45.98V44.54L152.399 44.56C152.399 44.8 152.299 45.0733 152.099 45.38C151.912 45.6733 151.652 45.96 151.319 46.24C150.985 46.52 150.592 46.7533 150.139 46.94C149.685 47.1133 149.199 47.2 148.679 47.2C147.772 47.2 146.945 46.9667 146.199 46.5C145.465 46.02 144.885 45.3733 144.459 44.56C144.032 43.7333 143.819 42.7867 143.819 41.72C143.819 40.6533 144.032 39.7133 144.459 38.9C144.885 38.0733 145.459 37.4267 146.179 36.96C146.912 36.48 147.725 36.24 148.619 36.24C149.179 36.24 149.699 36.3333 150.179 36.52C150.672 36.7067 151.099 36.9467 151.459 37.24C151.819 37.5333 152.099 37.8467 152.299 38.18C152.512 38.5 152.619 38.8067 152.619 39.1L151.999 39.16V33.22C151.999 32.9267 152.092 32.6867 152.279 32.5C152.465 32.3 152.705 32.2 152.999 32.2ZM148.919 45.36C149.545 45.36 150.092 45.2 150.559 44.88C151.039 44.56 151.412 44.1267 151.679 43.58C151.945 43.0333 152.079 42.4133 152.079 41.72C152.079 41.0267 151.945 40.4067 151.679 39.86C151.412 39.3133 151.039 38.88 150.559 38.56C150.092 38.24 149.545 38.08 148.919 38.08C148.305 38.08 147.759 38.24 147.279 38.56C146.799 38.88 146.425 39.3133 146.159 39.86C145.892 40.4067 145.759 41.0267 145.759 41.72C145.759 42.4133 145.892 43.0333 146.159 43.58C146.425 44.1267 146.799 44.56 147.279 44.88C147.759 45.2 148.305 45.36 148.919 45.36ZM158.663 45.98C158.663 46.2733 158.569 46.52 158.383 46.72C158.196 46.9067 157.956 47 157.663 47C157.383 47 157.143 46.9067 156.943 46.72C156.756 46.52 156.663 46.2733 156.663 45.98V37.42C156.663 37.1267 156.756 36.8867 156.943 36.7C157.143 36.5 157.383 36.4 157.663 36.4C157.956 36.4 158.196 36.5 158.383 36.7C158.569 36.8867 158.663 37.1267 158.663 37.42V45.98ZM157.643 35.08C157.256 35.08 156.976 35.0133 156.803 34.88C156.629 34.7333 156.543 34.4933 156.543 34.16V33.84C156.543 33.5067 156.636 33.2733 156.823 33.14C157.009 33.0067 157.289 32.94 157.663 32.94C158.063 32.94 158.349 33.0133 158.523 33.16C158.696 33.2933 158.783 33.52 158.783 33.84V34.16C158.783 34.5067 158.689 34.7467 158.503 34.88C158.329 35.0133 158.043 35.08 157.643 35.08ZM166.153 47.2C165.06 47.2 164.1 46.9733 163.273 46.52C162.46 46.0533 161.826 45.42 161.373 44.62C160.933 43.8067 160.713 42.88 160.713 41.84C160.713 40.6667 160.946 39.6667 161.413 38.84C161.893 38 162.513 37.36 163.273 36.92C164.046 36.4667 164.86 36.24 165.713 36.24C166.353 36.24 166.966 36.3733 167.553 36.64C168.153 36.8933 168.68 37.2533 169.133 37.72C169.586 38.1733 169.946 38.7133 170.213 39.34C170.48 39.9533 170.62 40.6267 170.633 41.36C170.62 41.6267 170.513 41.8467 170.313 42.02C170.113 42.1933 169.88 42.28 169.613 42.28H161.853L161.373 40.58H168.893L168.513 40.94V40.44C168.473 39.9733 168.313 39.5667 168.033 39.22C167.753 38.86 167.406 38.5867 166.993 38.4C166.593 38.2 166.166 38.1 165.713 38.1C165.313 38.1 164.926 38.1667 164.553 38.3C164.18 38.42 163.853 38.62 163.573 38.9C163.293 39.18 163.066 39.5533 162.893 40.02C162.72 40.4733 162.633 41.04 162.633 41.72C162.633 42.4533 162.786 43.0933 163.093 43.64C163.4 44.1867 163.813 44.6133 164.333 44.92C164.853 45.2133 165.433 45.36 166.073 45.36C166.553 45.36 166.953 45.3133 167.273 45.22C167.593 45.1133 167.86 44.9867 168.073 44.84C168.286 44.6933 168.473 44.5533 168.633 44.42C168.846 44.3 169.046 44.24 169.233 44.24C169.473 44.24 169.673 44.3267 169.833 44.5C169.993 44.66 170.073 44.8533 170.073 45.08C170.073 45.3733 169.926 45.64 169.633 45.88C169.273 46.2267 168.773 46.5333 168.133 46.8C167.506 47.0667 166.846 47.2 166.153 47.2ZM178.218 36.24C179.165 36.24 179.898 36.44 180.418 36.84C180.938 37.2267 181.298 37.7533 181.498 38.42C181.712 39.0733 181.818 39.8067 181.818 40.62V45.98C181.818 46.2733 181.718 46.52 181.518 46.72C181.332 46.9067 181.098 47 180.818 47C180.525 47 180.285 46.9067 180.098 46.72C179.912 46.52 179.818 46.2733 179.818 45.98V40.64C179.818 40.16 179.752 39.7333 179.618 39.36C179.485 38.9733 179.252 38.6667 178.918 38.44C178.598 38.2 178.145 38.08 177.558 38.08C177.012 38.08 176.532 38.2 176.118 38.44C175.705 38.6667 175.378 38.9733 175.138 39.36C174.912 39.7333 174.798 40.16 174.798 40.64V45.98C174.798 46.2733 174.698 46.52 174.498 46.72C174.312 46.9067 174.078 47 173.798 47C173.505 47 173.265 46.9067 173.078 46.72C172.892 46.52 172.798 46.2733 172.798 45.98V37.5C172.798 37.2067 172.892 36.9667 173.078 36.78C173.265 36.58 173.505 36.48 173.798 36.48C174.078 36.48 174.312 36.58 174.498 36.78C174.698 36.9667 174.798 37.2067 174.798 37.5V38.62L174.438 38.82C174.532 38.5267 174.692 38.2333 174.918 37.94C175.158 37.6333 175.445 37.3533 175.778 37.1C176.112 36.8333 176.485 36.6267 176.898 36.48C177.312 36.32 177.752 36.24 178.218 36.24ZM184.455 36.6H189.155C189.422 36.6 189.642 36.6933 189.815 36.88C190.002 37.0533 190.095 37.2733 190.095 37.54C190.095 37.7933 190.002 38.0067 189.815 38.18C189.642 38.3533 189.422 38.44 189.155 38.44H184.455C184.189 38.44 183.962 38.3533 183.775 38.18C183.602 37.9933 183.515 37.7733 183.515 37.52C183.515 37.2533 183.602 37.0333 183.775 36.86C183.962 36.6867 184.189 36.6 184.455 36.6ZM186.555 34C186.849 34 187.089 34.1 187.275 34.3C187.462 34.4867 187.555 34.7267 187.555 35.02V44.3C187.555 44.54 187.595 44.7333 187.675 44.88C187.755 45.0267 187.862 45.1267 187.995 45.18C188.142 45.2333 188.289 45.26 188.435 45.26C188.582 45.26 188.709 45.2333 188.815 45.18C188.935 45.1267 189.075 45.1 189.235 45.1C189.395 45.1 189.542 45.1733 189.675 45.32C189.809 45.4667 189.875 45.6667 189.875 45.92C189.875 46.24 189.702 46.5 189.355 46.7C189.009 46.9 188.635 47 188.235 47C188.009 47 187.742 46.98 187.435 46.94C187.129 46.9 186.829 46.8 186.535 46.64C186.255 46.48 186.022 46.2267 185.835 45.88C185.649 45.52 185.555 45.02 185.555 44.38V35.02C185.555 34.7267 185.649 34.4867 185.835 34.3C186.035 34.1 186.275 34 186.555 34ZM197.013 47.2C195.919 47.2 194.959 46.9733 194.133 46.52C193.319 46.0533 192.686 45.42 192.233 44.62C191.793 43.8067 191.573 42.88 191.573 41.84C191.573 40.6667 191.806 39.6667 192.273 38.84C192.753 38 193.373 37.36 194.133 36.92C194.906 36.4667 195.719 36.24 196.573 36.24C197.213 36.24 197.826 36.3733 198.413 36.64C199.013 36.8933 199.539 37.2533 199.993 37.72C200.446 38.1733 200.806 38.7133 201.073 39.34C201.339 39.9533 201.479 40.6267 201.493 41.36C201.479 41.6267 201.373 41.8467 201.173 42.02C200.973 42.1933 200.739 42.28 200.473 42.28H192.713L192.233 40.58H199.753L199.373 40.94V40.44C199.333 39.9733 199.173 39.5667 198.893 39.22C198.613 38.86 198.266 38.5867 197.853 38.4C197.453 38.2 197.026 38.1 196.573 38.1C196.173 38.1 195.786 38.1667 195.413 38.3C195.039 38.42 194.713 38.62 194.433 38.9C194.153 39.18 193.926 39.5533 193.752 40.02C193.579 40.4733 193.493 41.04 193.493 41.72C193.493 42.4533 193.646 43.0933 193.953 43.64C194.259 44.1867 194.673 44.6133 195.193 44.92C195.713 45.2133 196.293 45.36 196.933 45.36C197.413 45.36 197.813 45.3133 198.133 45.22C198.453 45.1133 198.719 44.9867 198.933 44.84C199.146 44.6933 199.333 44.5533 199.493 44.42C199.706 44.3 199.906 44.24 200.093 44.24C200.333 44.24 200.533 44.3267 200.693 44.5C200.853 44.66 200.933 44.8533 200.933 45.08C200.933 45.3733 200.786 45.64 200.493 45.88C200.133 46.2267 199.633 46.5333 198.993 46.8C198.366 47.0667 197.706 47.2 197.013 47.2Z" fill="black"/>
<circle cx="40" cy="296" r="40" fill="#005E89"/>
<path d="M55.75 287.375L51.9312 283.529L34.0833 301.377L27.0687 294.39L23.25 298.208L34.0833 309.042L55.75 287.375ZM58.4583 271.125H47.1375C46 267.983 43.0208 265.708 39.5 265.708C35.9792 265.708 33 267.983 31.8625 271.125H20.5417C20.1625 271.125 19.8104 271.152 19.4583 271.233C18.4021 271.45 17.4542 271.992 16.7229 272.723C16.2354 273.21 15.8292 273.806 15.5583 274.456C15.2875 275.079 15.125 275.783 15.125 276.542V314.458C15.125 315.19 15.2875 315.921 15.5583 316.571C15.8292 317.221 16.2354 317.79 16.7229 318.304C17.4542 319.035 18.4021 319.577 19.4583 319.794C19.8104 319.848 20.1625 319.875 20.5417 319.875H58.4583C61.4375 319.875 63.875 317.437 63.875 314.458V276.542C63.875 273.562 61.4375 271.125 58.4583 271.125ZM39.5 270.448C40.6104 270.448 41.5312 271.369 41.5312 272.479C41.5312 273.59 40.6104 274.51 39.5 274.51C38.3896 274.51 37.4687 273.59 37.4687 272.479C37.4687 271.369 38.3896 270.448 39.5 270.448ZM58.4583 314.458H20.5417V276.542H58.4583V314.458Z" fill="white"/>
<path d="M112.64 289H119.56C119.84 289 120.073 289.093 120.26 289.28C120.46 289.467 120.56 289.7 120.56 289.98C120.56 290.26 120.46 290.487 120.26 290.66C120.073 290.833 119.84 290.92 119.56 290.92H113.52L113.72 290.58V295.06L113.54 294.86H118.66C118.94 294.86 119.173 294.953 119.36 295.14C119.56 295.327 119.66 295.567 119.66 295.86C119.66 296.14 119.56 296.367 119.36 296.54C119.173 296.713 118.94 296.8 118.66 296.8H113.58L113.72 296.62V301.24L113.58 301.08H119.56C119.84 301.08 120.073 301.18 120.26 301.38C120.46 301.567 120.56 301.787 120.56 302.04C120.56 302.32 120.46 302.553 120.26 302.74C120.073 302.913 119.84 303 119.56 303H112.64C112.36 303 112.12 302.907 111.92 302.72C111.72 302.52 111.62 302.273 111.62 301.98V290.02C111.62 289.727 111.72 289.487 111.92 289.3C112.12 289.1 112.36 289 112.64 289ZM128.246 292.24C129.192 292.24 129.926 292.44 130.446 292.84C130.966 293.227 131.326 293.753 131.526 294.42C131.739 295.073 131.846 295.807 131.846 296.62V301.98C131.846 302.273 131.746 302.52 131.546 302.72C131.359 302.907 131.126 303 130.846 303C130.552 303 130.312 302.907 130.126 302.72C129.939 302.52 129.846 302.273 129.846 301.98V296.64C129.846 296.16 129.779 295.733 129.646 295.36C129.512 294.973 129.279 294.667 128.946 294.44C128.626 294.2 128.172 294.08 127.586 294.08C127.039 294.08 126.559 294.2 126.146 294.44C125.732 294.667 125.406 294.973 125.166 295.36C124.939 295.733 124.826 296.16 124.826 296.64V301.98C124.826 302.273 124.726 302.52 124.526 302.72C124.339 302.907 124.106 303 123.826 303C123.532 303 123.292 302.907 123.106 302.72C122.919 302.52 122.826 302.273 122.826 301.98V293.5C122.826 293.207 122.919 292.967 123.106 292.78C123.292 292.58 123.532 292.48 123.826 292.48C124.106 292.48 124.339 292.58 124.526 292.78C124.726 292.967 124.826 293.207 124.826 293.5V294.62L124.466 294.82C124.559 294.527 124.719 294.233 124.946 293.94C125.186 293.633 125.472 293.353 125.806 293.1C126.139 292.833 126.512 292.627 126.926 292.48C127.339 292.32 127.779 292.24 128.246 292.24ZM134.483 292.6H139.183C139.449 292.6 139.669 292.693 139.843 292.88C140.029 293.053 140.123 293.273 140.123 293.54C140.123 293.793 140.029 294.007 139.843 294.18C139.669 294.353 139.449 294.44 139.183 294.44H134.483C134.216 294.44 133.989 294.353 133.803 294.18C133.629 293.993 133.543 293.773 133.543 293.52C133.543 293.253 133.629 293.033 133.803 292.86C133.989 292.687 134.216 292.6 134.483 292.6ZM136.583 290C136.876 290 137.116 290.1 137.303 290.3C137.489 290.487 137.583 290.727 137.583 291.02V300.3C137.583 300.54 137.623 300.733 137.703 300.88C137.783 301.027 137.889 301.127 138.023 301.18C138.169 301.233 138.316 301.26 138.463 301.26C138.609 301.26 138.736 301.233 138.843 301.18C138.963 301.127 139.103 301.1 139.263 301.1C139.423 301.1 139.569 301.173 139.703 301.32C139.836 301.467 139.903 301.667 139.903 301.92C139.903 302.24 139.729 302.5 139.383 302.7C139.036 302.9 138.663 303 138.263 303C138.036 303 137.769 302.98 137.463 302.94C137.156 302.9 136.856 302.8 136.563 302.64C136.283 302.48 136.049 302.227 135.863 301.88C135.676 301.52 135.583 301.02 135.583 300.38V291.02C135.583 290.727 135.676 290.487 135.863 290.3C136.063 290.1 136.303 290 136.583 290ZM143.338 303C143.044 303 142.804 302.907 142.618 302.72C142.431 302.52 142.338 302.273 142.338 301.98V293.5C142.338 293.207 142.431 292.967 142.618 292.78C142.804 292.58 143.044 292.48 143.338 292.48C143.618 292.48 143.851 292.58 144.038 292.78C144.238 292.967 144.338 293.207 144.338 293.5V295.74L144.138 294.88C144.244 294.507 144.404 294.16 144.618 293.84C144.844 293.52 145.111 293.24 145.418 293C145.724 292.76 146.064 292.573 146.438 292.44C146.824 292.307 147.224 292.24 147.638 292.24C147.984 292.24 148.284 292.333 148.538 292.52C148.791 292.707 148.918 292.94 148.918 293.22C148.918 293.58 148.824 293.847 148.638 294.02C148.451 294.18 148.244 294.26 148.018 294.26C147.818 294.26 147.624 294.22 147.438 294.14C147.251 294.047 147.031 294 146.778 294C146.498 294 146.211 294.073 145.918 294.22C145.624 294.367 145.358 294.587 145.118 294.88C144.878 295.16 144.684 295.493 144.538 295.88C144.404 296.267 144.338 296.7 144.338 297.18V301.98C144.338 302.273 144.238 302.52 144.038 302.72C143.851 302.907 143.618 303 143.338 303ZM155.048 303.2C153.954 303.2 152.994 302.973 152.168 302.52C151.354 302.053 150.721 301.42 150.268 300.62C149.828 299.807 149.608 298.88 149.608 297.84C149.608 296.667 149.841 295.667 150.308 294.84C150.788 294 151.408 293.36 152.168 292.92C152.941 292.467 153.754 292.24 154.608 292.24C155.248 292.24 155.861 292.373 156.448 292.64C157.048 292.893 157.574 293.253 158.028 293.72C158.481 294.173 158.841 294.713 159.108 295.34C159.374 295.953 159.514 296.627 159.528 297.36C159.514 297.627 159.408 297.847 159.208 298.02C159.008 298.193 158.774 298.28 158.508 298.28H150.748L150.268 296.58H157.788L157.408 296.94V296.44C157.368 295.973 157.208 295.567 156.928 295.22C156.648 294.86 156.301 294.587 155.888 294.4C155.488 294.2 155.061 294.1 154.608 294.1C154.208 294.1 153.821 294.167 153.448 294.3C153.074 294.42 152.748 294.62 152.468 294.9C152.188 295.18 151.961 295.553 151.788 296.02C151.614 296.473 151.528 297.04 151.528 297.72C151.528 298.453 151.681 299.093 151.988 299.64C152.294 300.187 152.708 300.613 153.228 300.92C153.748 301.213 154.328 301.36 154.968 301.36C155.448 301.36 155.848 301.313 156.168 301.22C156.488 301.113 156.754 300.987 156.968 300.84C157.181 300.693 157.368 300.553 157.528 300.42C157.741 300.3 157.941 300.24 158.128 300.24C158.368 300.24 158.568 300.327 158.728 300.5C158.888 300.66 158.968 300.853 158.968 301.08C158.968 301.373 158.821 301.64 158.528 301.88C158.168 302.227 157.668 302.533 157.028 302.8C156.401 303.067 155.741 303.2 155.048 303.2ZM161.835 292.38C162.035 292.38 162.222 292.433 162.395 292.54C162.582 292.647 162.715 292.807 162.795 293.02L165.935 300.28L165.555 300.46L168.735 293.04C168.922 292.6 169.222 292.387 169.635 292.4C169.902 292.4 170.122 292.487 170.295 292.66C170.482 292.82 170.575 293.033 170.575 293.3C170.575 293.38 170.562 293.467 170.535 293.56C170.509 293.64 170.475 293.72 170.435 293.8L166.635 302.36C166.462 302.76 166.175 302.973 165.775 303C165.575 303.027 165.375 302.987 165.175 302.88C164.989 302.76 164.842 302.587 164.735 302.36L160.955 293.8C160.929 293.747 160.902 293.68 160.875 293.6C160.849 293.507 160.835 293.4 160.835 293.28C160.835 293.08 160.922 292.88 161.095 292.68C161.282 292.48 161.529 292.38 161.835 292.38ZM174.491 301.98C174.491 302.273 174.398 302.52 174.211 302.72C174.024 302.907 173.784 303 173.491 303C173.211 303 172.971 302.907 172.771 302.72C172.584 302.52 172.491 302.273 172.491 301.98V293.42C172.491 293.127 172.584 292.887 172.771 292.7C172.971 292.5 173.211 292.4 173.491 292.4C173.784 292.4 174.024 292.5 174.211 292.7C174.398 292.887 174.491 293.127 174.491 293.42V301.98ZM173.471 291.08C173.084 291.08 172.804 291.013 172.631 290.88C172.458 290.733 172.371 290.493 172.371 290.16V289.84C172.371 289.507 172.464 289.273 172.651 289.14C172.838 289.007 173.118 288.94 173.491 288.94C173.891 288.94 174.178 289.013 174.351 289.16C174.524 289.293 174.611 289.52 174.611 289.84V290.16C174.611 290.507 174.518 290.747 174.331 290.88C174.158 291.013 173.871 291.08 173.471 291.08ZM176.561 301.36C176.441 301.173 176.388 300.96 176.401 300.72C176.415 300.467 176.555 300.253 176.821 300.08C177.008 299.96 177.201 299.913 177.401 299.94C177.615 299.953 177.815 300.053 178.001 300.24C178.375 300.653 178.788 300.98 179.241 301.22C179.708 301.46 180.268 301.58 180.921 301.58C181.188 301.567 181.461 301.527 181.741 301.46C182.021 301.38 182.261 301.247 182.461 301.06C182.661 300.86 182.761 300.573 182.761 300.2C182.761 299.867 182.655 299.6 182.441 299.4C182.228 299.2 181.948 299.04 181.601 298.92C181.255 298.787 180.881 298.667 180.481 298.56C180.055 298.44 179.621 298.307 179.181 298.16C178.755 298.013 178.368 297.827 178.021 297.6C177.675 297.36 177.388 297.053 177.161 296.68C176.948 296.307 176.841 295.847 176.841 295.3C176.841 294.673 177.015 294.133 177.361 293.68C177.721 293.227 178.181 292.873 178.741 292.62C179.315 292.367 179.935 292.24 180.601 292.24C180.988 292.24 181.395 292.293 181.821 292.4C182.248 292.493 182.661 292.647 183.061 292.86C183.461 293.073 183.808 293.353 184.101 293.7C184.235 293.873 184.308 294.08 184.321 294.32C184.348 294.56 184.241 294.773 184.001 294.96C183.841 295.093 183.648 295.153 183.421 295.14C183.195 295.127 183.008 295.053 182.861 294.92C182.608 294.6 182.281 294.353 181.881 294.18C181.481 293.993 181.028 293.9 180.521 293.9C180.268 293.9 180.001 293.94 179.721 294.02C179.455 294.087 179.228 294.213 179.041 294.4C178.855 294.587 178.761 294.86 178.761 295.22C178.761 295.553 178.868 295.82 179.081 296.02C179.308 296.22 179.601 296.387 179.961 296.52C180.321 296.653 180.715 296.773 181.141 296.88C181.555 296.987 181.961 297.113 182.361 297.26C182.775 297.407 183.141 297.6 183.461 297.84C183.795 298.067 184.061 298.367 184.261 298.74C184.475 299.1 184.581 299.56 184.581 300.12C184.581 300.773 184.388 301.333 184.001 301.8C183.628 302.253 183.148 302.6 182.561 302.84C181.988 303.08 181.381 303.2 180.741 303.2C179.981 303.2 179.221 303.067 178.461 302.8C177.715 302.52 177.081 302.04 176.561 301.36ZM186.592 292.6H191.292C191.559 292.6 191.779 292.693 191.952 292.88C192.139 293.053 192.232 293.273 192.232 293.54C192.232 293.793 192.139 294.007 191.952 294.18C191.779 294.353 191.559 294.44 191.292 294.44H186.592C186.325 294.44 186.099 294.353 185.912 294.18C185.739 293.993 185.652 293.773 185.652 293.52C185.652 293.253 185.739 293.033 185.912 292.86C186.099 292.687 186.325 292.6 186.592 292.6ZM188.692 290C188.985 290 189.225 290.1 189.412 290.3C189.599 290.487 189.692 290.727 189.692 291.02V300.3C189.692 300.54 189.732 300.733 189.812 300.88C189.892 301.027 189.999 301.127 190.132 301.18C190.279 301.233 190.425 301.26 190.572 301.26C190.719 301.26 190.845 301.233 190.952 301.18C191.072 301.127 191.212 301.1 191.372 301.1C191.532 301.1 191.679 301.173 191.812 301.32C191.945 301.467 192.012 301.667 192.012 301.92C192.012 302.24 191.839 302.5 191.492 302.7C191.145 302.9 190.772 303 190.372 303C190.145 303 189.879 302.98 189.572 302.94C189.265 302.9 188.965 302.8 188.672 302.64C188.392 302.48 188.159 302.227 187.972 301.88C187.785 301.52 187.692 301.02 187.692 300.38V291.02C187.692 290.727 187.785 290.487 187.972 290.3C188.172 290.1 188.412 290 188.692 290ZM202.987 292.32C203.267 292.32 203.5 292.42 203.687 292.62C203.887 292.807 203.987 293.047 203.987 293.34V301.98C203.987 302.273 203.887 302.52 203.687 302.72C203.5 302.907 203.267 303 202.987 303C202.694 303 202.454 302.907 202.267 302.72C202.08 302.52 201.987 302.273 201.987 301.98V300.54L202.387 300.6C202.387 300.84 202.287 301.107 202.087 301.4C201.9 301.693 201.64 301.98 201.307 302.26C200.974 302.527 200.58 302.753 200.127 302.94C199.674 303.113 199.187 303.2 198.667 303.2C197.747 303.2 196.92 302.967 196.187 302.5C195.454 302.02 194.874 301.367 194.447 300.54C194.02 299.713 193.807 298.773 193.807 297.72C193.807 296.64 194.02 295.693 194.447 294.88C194.874 294.053 195.447 293.407 196.167 292.94C196.9 292.473 197.714 292.24 198.607 292.24C199.18 292.24 199.707 292.333 200.187 292.52C200.68 292.707 201.107 292.947 201.467 293.24C201.827 293.533 202.107 293.847 202.307 294.18C202.507 294.5 202.607 294.807 202.607 295.1L201.987 295.16V293.34C201.987 293.06 202.08 292.82 202.267 292.62C202.454 292.42 202.694 292.32 202.987 292.32ZM198.907 301.36C199.534 301.36 200.08 301.2 200.547 300.88C201.027 300.56 201.4 300.127 201.667 299.58C201.934 299.02 202.067 298.4 202.067 297.72C202.067 297.027 201.934 296.407 201.667 295.86C201.4 295.313 201.027 294.88 200.547 294.56C200.08 294.24 199.534 294.08 198.907 294.08C198.294 294.08 197.747 294.24 197.267 294.56C196.787 294.88 196.414 295.313 196.147 295.86C195.88 296.407 195.747 297.027 195.747 297.72C195.747 298.4 195.88 299.02 196.147 299.58C196.414 300.127 196.78 300.56 197.247 300.88C197.727 301.2 198.28 301.36 198.907 301.36ZM217.638 292.3C218.571 292.3 219.398 292.533 220.118 293C220.851 293.467 221.431 294.107 221.858 294.92C222.284 295.72 222.498 296.653 222.498 297.72C222.498 298.787 222.284 299.733 221.858 300.56C221.431 301.373 220.858 302.013 220.138 302.48C219.418 302.947 218.604 303.18 217.698 303.18C217.191 303.18 216.711 303.1 216.258 302.94C215.804 302.78 215.404 302.573 215.058 302.32C214.711 302.053 214.424 301.773 214.198 301.48C213.984 301.187 213.851 300.913 213.798 300.66L214.338 300.4V305.98C214.338 306.273 214.238 306.513 214.038 306.7C213.851 306.9 213.618 307 213.338 307C213.044 307 212.804 306.9 212.618 306.7C212.431 306.513 212.338 306.273 212.338 305.98V293.46C212.338 293.18 212.431 292.94 212.618 292.74C212.804 292.54 213.044 292.44 213.338 292.44C213.618 292.44 213.851 292.54 214.038 292.74C214.238 292.94 214.338 293.18 214.338 293.46V294.84L214.018 294.66C214.058 294.407 214.184 294.147 214.398 293.88C214.611 293.6 214.878 293.34 215.198 293.1C215.531 292.86 215.904 292.667 216.318 292.52C216.744 292.373 217.184 292.3 217.638 292.3ZM217.418 294.14C216.778 294.14 216.218 294.3 215.738 294.62C215.271 294.927 214.904 295.347 214.638 295.88C214.371 296.413 214.238 297.027 214.238 297.72C214.238 298.4 214.371 299.02 214.638 299.58C214.904 300.127 215.271 300.56 215.738 300.88C216.218 301.187 216.778 301.34 217.418 301.34C218.044 301.34 218.591 301.187 219.058 300.88C219.524 300.56 219.891 300.127 220.158 299.58C220.438 299.02 220.578 298.4 220.578 297.72C220.578 297.04 220.438 296.433 220.158 295.9C219.891 295.353 219.524 294.927 219.058 294.62C218.591 294.3 218.044 294.14 217.418 294.14ZM225.662 303C225.368 303 225.128 302.907 224.942 302.72C224.755 302.52 224.662 302.273 224.662 301.98V293.5C224.662 293.207 224.755 292.967 224.942 292.78C225.128 292.58 225.368 292.48 225.662 292.48C225.942 292.48 226.175 292.58 226.362 292.78C226.562 292.967 226.662 293.207 226.662 293.5V295.74L226.462 294.88C226.568 294.507 226.728 294.16 226.942 293.84C227.168 293.52 227.435 293.24 227.742 293C228.048 292.76 228.388 292.573 228.762 292.44C229.148 292.307 229.548 292.24 229.962 292.24C230.308 292.24 230.608 292.333 230.862 292.52C231.115 292.707 231.242 292.94 231.242 293.22C231.242 293.58 231.148 293.847 230.962 294.02C230.775 294.18 230.568 294.26 230.342 294.26C230.142 294.26 229.948 294.22 229.762 294.14C229.575 294.047 229.355 294 229.102 294C228.822 294 228.535 294.073 228.242 294.22C227.948 294.367 227.682 294.587 227.442 294.88C227.202 295.16 227.008 295.493 226.862 295.88C226.728 296.267 226.662 296.7 226.662 297.18V301.98C226.662 302.273 226.562 302.52 226.362 302.72C226.175 302.907 225.942 303 225.662 303ZM242.572 297.74C242.572 298.807 242.332 299.753 241.852 300.58C241.385 301.393 240.752 302.033 239.952 302.5C239.152 302.967 238.252 303.2 237.252 303.2C236.265 303.2 235.365 302.967 234.552 302.5C233.752 302.033 233.112 301.393 232.632 300.58C232.165 299.753 231.932 298.807 231.932 297.74C231.932 296.66 232.165 295.713 232.632 294.9C233.112 294.073 233.752 293.427 234.552 292.96C235.365 292.48 236.265 292.24 237.252 292.24C238.252 292.24 239.152 292.48 239.952 292.96C240.752 293.427 241.385 294.073 241.852 294.9C242.332 295.713 242.572 296.66 242.572 297.74ZM240.572 297.74C240.572 297.007 240.425 296.373 240.132 295.84C239.839 295.293 239.439 294.867 238.932 294.56C238.439 294.24 237.879 294.08 237.252 294.08C236.639 294.08 236.079 294.24 235.572 294.56C235.079 294.867 234.679 295.293 234.372 295.84C234.079 296.373 233.932 297.007 233.932 297.74C233.932 298.447 234.079 299.073 234.372 299.62C234.679 300.167 235.079 300.593 235.572 300.9C236.079 301.207 236.639 301.36 237.252 301.36C237.879 301.36 238.439 301.207 238.932 300.9C239.439 300.593 239.839 300.167 240.132 299.62C240.425 299.073 240.572 298.447 240.572 297.74ZM249.02 292.24C249.593 292.24 250.12 292.333 250.6 292.52C251.08 292.707 251.493 292.947 251.84 293.24C252.2 293.52 252.48 293.813 252.68 294.12C252.88 294.427 252.98 294.693 252.98 294.92L252.52 294.94V293.34C252.52 293.06 252.613 292.82 252.8 292.62C252.987 292.42 253.227 292.32 253.52 292.32C253.813 292.32 254.053 292.42 254.24 292.62C254.427 292.807 254.52 293.047 254.52 293.34V302.16C254.52 303.293 254.28 304.213 253.8 304.92C253.32 305.64 252.68 306.167 251.88 306.5C251.093 306.833 250.227 307 249.28 307C248.947 307 248.553 306.953 248.1 306.86C247.647 306.78 247.227 306.68 246.84 306.56C246.467 306.44 246.207 306.32 246.06 306.2C245.753 306.04 245.547 305.853 245.44 305.64C245.347 305.427 245.353 305.213 245.46 305C245.58 304.707 245.753 304.527 245.98 304.46C246.207 304.393 246.467 304.413 246.76 304.52C246.893 304.56 247.1 304.633 247.38 304.74C247.66 304.847 247.973 304.94 248.32 305.02C248.667 305.113 248.993 305.16 249.3 305.16C250.367 305.16 251.167 304.913 251.7 304.42C252.247 303.927 252.52 303.253 252.52 302.4V300.6L252.76 300.74C252.72 301.02 252.593 301.307 252.38 301.6C252.167 301.88 251.893 302.14 251.56 302.38C251.227 302.62 250.847 302.82 250.42 302.98C249.993 303.127 249.547 303.2 249.08 303.2C248.147 303.2 247.3 302.967 246.54 302.5C245.793 302.02 245.2 301.373 244.76 300.56C244.32 299.733 244.1 298.787 244.1 297.72C244.1 296.653 244.32 295.713 244.76 294.9C245.2 294.073 245.787 293.427 246.52 292.96C247.267 292.48 248.1 292.24 249.02 292.24ZM249.32 294.08C248.68 294.08 248.107 294.24 247.6 294.56C247.107 294.88 246.72 295.313 246.44 295.86C246.173 296.407 246.04 297.027 246.04 297.72C246.04 298.413 246.173 299.033 246.44 299.58C246.72 300.127 247.107 300.56 247.6 300.88C248.107 301.2 248.68 301.36 249.32 301.36C249.973 301.36 250.547 301.207 251.04 300.9C251.533 300.58 251.92 300.147 252.2 299.6C252.48 299.04 252.62 298.413 252.62 297.72C252.62 297.027 252.48 296.407 252.2 295.86C251.92 295.3 251.533 294.867 251.04 294.56C250.547 294.24 249.973 294.08 249.32 294.08ZM258.318 303C258.025 303 257.785 302.907 257.598 302.72C257.411 302.52 257.318 302.273 257.318 301.98V293.5C257.318 293.207 257.411 292.967 257.598 292.78C257.785 292.58 258.025 292.48 258.318 292.48C258.598 292.48 258.831 292.58 259.018 292.78C259.218 292.967 259.318 293.207 259.318 293.5V295.74L259.118 294.88C259.225 294.507 259.385 294.16 259.598 293.84C259.825 293.52 260.091 293.24 260.398 293C260.705 292.76 261.045 292.573 261.418 292.44C261.805 292.307 262.205 292.24 262.618 292.24C262.965 292.24 263.265 292.333 263.518 292.52C263.771 292.707 263.898 292.94 263.898 293.22C263.898 293.58 263.805 293.847 263.618 294.02C263.431 294.18 263.225 294.26 262.998 294.26C262.798 294.26 262.605 294.22 262.418 294.14C262.231 294.047 262.011 294 261.758 294C261.478 294 261.191 294.073 260.898 294.22C260.605 294.367 260.338 294.587 260.098 294.88C259.858 295.16 259.665 295.493 259.518 295.88C259.385 296.267 259.318 296.7 259.318 297.18V301.98C259.318 302.273 259.218 302.52 259.018 302.72C258.831 302.907 258.598 303 258.318 303ZM273.983 292.32C274.263 292.32 274.496 292.42 274.683 292.62C274.883 292.807 274.983 293.047 274.983 293.34V301.98C274.983 302.273 274.883 302.52 274.683 302.72C274.496 302.907 274.263 303 273.983 303C273.69 303 273.45 302.907 273.263 302.72C273.076 302.52 272.983 302.273 272.983 301.98V300.54L273.383 300.6C273.383 300.84 273.283 301.107 273.083 301.4C272.896 301.693 272.636 301.98 272.303 302.26C271.97 302.527 271.576 302.753 271.123 302.94C270.67 303.113 270.183 303.2 269.663 303.2C268.743 303.2 267.916 302.967 267.183 302.5C266.45 302.02 265.87 301.367 265.443 300.54C265.016 299.713 264.803 298.773 264.803 297.72C264.803 296.64 265.016 295.693 265.443 294.88C265.87 294.053 266.443 293.407 267.163 292.94C267.896 292.473 268.71 292.24 269.603 292.24C270.176 292.24 270.703 292.333 271.183 292.52C271.676 292.707 272.103 292.947 272.463 293.24C272.823 293.533 273.103 293.847 273.303 294.18C273.503 294.5 273.603 294.807 273.603 295.1L272.983 295.16V293.34C272.983 293.06 273.076 292.82 273.263 292.62C273.45 292.42 273.69 292.32 273.983 292.32ZM269.903 301.36C270.53 301.36 271.076 301.2 271.543 300.88C272.023 300.56 272.396 300.127 272.663 299.58C272.93 299.02 273.063 298.4 273.063 297.72C273.063 297.027 272.93 296.407 272.663 295.86C272.396 295.313 272.023 294.88 271.543 294.56C271.076 294.24 270.53 294.08 269.903 294.08C269.29 294.08 268.743 294.24 268.263 294.56C267.783 294.88 267.41 295.313 267.143 295.86C266.876 296.407 266.743 297.027 266.743 297.72C266.743 298.4 266.876 299.02 267.143 299.58C267.41 300.127 267.776 300.56 268.243 300.88C268.723 301.2 269.276 301.36 269.903 301.36ZM283.047 292.3C284.034 292.3 284.794 292.547 285.327 293.04C285.861 293.52 286.214 294.173 286.387 295L286.067 294.9L286.207 294.58C286.381 294.233 286.641 293.887 286.987 293.54C287.347 293.18 287.774 292.887 288.267 292.66C288.761 292.42 289.287 292.3 289.847 292.3C290.767 292.3 291.481 292.5 291.987 292.9C292.494 293.287 292.847 293.813 293.047 294.48C293.247 295.133 293.347 295.867 293.347 296.68V301.98C293.347 302.273 293.254 302.52 293.067 302.72C292.881 302.907 292.641 303 292.347 303C292.067 303 291.827 302.907 291.627 302.72C291.441 302.52 291.347 302.273 291.347 301.98V296.7C291.347 296.233 291.281 295.807 291.147 295.42C291.027 295.033 290.807 294.727 290.487 294.5C290.181 294.26 289.754 294.14 289.207 294.14C288.687 294.14 288.221 294.26 287.807 294.5C287.407 294.727 287.094 295.033 286.867 295.42C286.641 295.807 286.527 296.233 286.527 296.7V301.98C286.527 302.273 286.434 302.52 286.247 302.72C286.061 302.907 285.821 303 285.527 303C285.234 303 284.994 302.907 284.807 302.72C284.621 302.52 284.527 302.273 284.527 301.98V296.68C284.527 296.213 284.461 295.787 284.327 295.4C284.207 295.013 283.994 294.707 283.687 294.48C283.381 294.253 282.954 294.14 282.407 294.14C281.887 294.14 281.427 294.253 281.027 294.48C280.627 294.707 280.314 295.013 280.087 295.4C279.874 295.787 279.767 296.213 279.767 296.68V301.98C279.767 302.273 279.667 302.52 279.467 302.72C279.281 302.907 279.047 303 278.767 303C278.474 303 278.234 302.907 278.047 302.72C277.861 302.52 277.767 302.273 277.767 301.98V293.5C277.767 293.207 277.861 292.967 278.047 292.78C278.234 292.58 278.474 292.48 278.767 292.48C279.047 292.48 279.281 292.58 279.467 292.78C279.667 292.967 279.767 293.207 279.767 293.5V294.68L279.387 294.9C279.481 294.607 279.634 294.307 279.847 294C280.061 293.693 280.327 293.413 280.647 293.16C280.981 292.907 281.347 292.7 281.747 292.54C282.147 292.38 282.581 292.3 283.047 292.3ZM304.686 292.32C304.966 292.32 305.199 292.42 305.386 292.62C305.586 292.807 305.686 293.047 305.686 293.34V301.98C305.686 302.273 305.586 302.52 305.386 302.72C305.199 302.907 304.966 303 304.686 303C304.393 303 304.153 302.907 303.966 302.72C303.779 302.52 303.686 302.273 303.686 301.98V300.54L304.086 300.6C304.086 300.84 303.986 301.107 303.786 301.4C303.599 301.693 303.339 301.98 303.006 302.26C302.673 302.527 302.279 302.753 301.826 302.94C301.373 303.113 300.886 303.2 300.366 303.2C299.446 303.2 298.619 302.967 297.886 302.5C297.153 302.02 296.573 301.367 296.146 300.54C295.719 299.713 295.506 298.773 295.506 297.72C295.506 296.64 295.719 295.693 296.146 294.88C296.573 294.053 297.146 293.407 297.866 292.94C298.599 292.473 299.413 292.24 300.306 292.24C300.879 292.24 301.406 292.333 301.886 292.52C302.379 292.707 302.806 292.947 303.166 293.24C303.526 293.533 303.806 293.847 304.006 294.18C304.206 294.5 304.306 294.807 304.306 295.1L303.686 295.16V293.34C303.686 293.06 303.779 292.82 303.966 292.62C304.153 292.42 304.393 292.32 304.686 292.32ZM300.606 301.36C301.233 301.36 301.779 301.2 302.246 300.88C302.726 300.56 303.099 300.127 303.366 299.58C303.633 299.02 303.766 298.4 303.766 297.72C303.766 297.027 303.633 296.407 303.366 295.86C303.099 295.313 302.726 294.88 302.246 294.56C301.779 294.24 301.233 294.08 300.606 294.08C299.993 294.08 299.446 294.24 298.966 294.56C298.486 294.88 298.113 295.313 297.846 295.86C297.579 296.407 297.446 297.027 297.446 297.72C297.446 298.4 297.579 299.02 297.846 299.58C298.113 300.127 298.479 300.56 298.946 300.88C299.426 301.2 299.979 301.36 300.606 301.36ZM317.01 288.2C317.29 288.2 317.524 288.293 317.71 288.48C317.91 288.667 318.01 288.913 318.01 289.22V301.98C318.01 302.273 317.91 302.52 317.71 302.72C317.524 302.907 317.29 303 317.01 303C316.717 303 316.477 302.907 316.29 302.72C316.104 302.52 316.01 302.273 316.01 301.98V300.54L316.41 300.56C316.41 300.8 316.31 301.073 316.11 301.38C315.924 301.673 315.664 301.96 315.33 302.24C314.997 302.52 314.604 302.753 314.15 302.94C313.697 303.113 313.21 303.2 312.69 303.2C311.784 303.2 310.957 302.967 310.21 302.5C309.477 302.02 308.897 301.373 308.47 300.56C308.044 299.733 307.83 298.787 307.83 297.72C307.83 296.653 308.044 295.713 308.47 294.9C308.897 294.073 309.47 293.427 310.19 292.96C310.924 292.48 311.737 292.24 312.63 292.24C313.19 292.24 313.71 292.333 314.19 292.52C314.684 292.707 315.11 292.947 315.47 293.24C315.83 293.533 316.11 293.847 316.31 294.18C316.524 294.5 316.63 294.807 316.63 295.1L316.01 295.16V289.22C316.01 288.927 316.104 288.687 316.29 288.5C316.477 288.3 316.717 288.2 317.01 288.2ZM312.93 301.36C313.557 301.36 314.104 301.2 314.57 300.88C315.05 300.56 315.424 300.127 315.69 299.58C315.957 299.033 316.09 298.413 316.09 297.72C316.09 297.027 315.957 296.407 315.69 295.86C315.424 295.313 315.05 294.88 314.57 294.56C314.104 294.24 313.557 294.08 312.93 294.08C312.317 294.08 311.77 294.24 311.29 294.56C310.81 294.88 310.437 295.313 310.17 295.86C309.904 296.407 309.77 297.027 309.77 297.72C309.77 298.413 309.904 299.033 310.17 299.58C310.437 300.127 310.81 300.56 311.29 300.88C311.77 301.2 312.317 301.36 312.93 301.36ZM329.335 292.32C329.615 292.32 329.848 292.42 330.035 292.62C330.235 292.807 330.335 293.047 330.335 293.34V301.98C330.335 302.273 330.235 302.52 330.035 302.72C329.848 302.907 329.615 303 329.335 303C329.041 303 328.801 302.907 328.615 302.72C328.428 302.52 328.335 302.273 328.335 301.98V300.54L328.735 300.6C328.735 300.84 328.635 301.107 328.435 301.4C328.248 301.693 327.988 301.98 327.655 302.26C327.321 302.527 326.928 302.753 326.475 302.94C326.021 303.113 325.535 303.2 325.015 303.2C324.095 303.2 323.268 302.967 322.535 302.5C321.801 302.02 321.221 301.367 320.795 300.54C320.368 299.713 320.155 298.773 320.155 297.72C320.155 296.64 320.368 295.693 320.795 294.88C321.221 294.053 321.795 293.407 322.515 292.94C323.248 292.473 324.061 292.24 324.955 292.24C325.528 292.24 326.055 292.333 326.535 292.52C327.028 292.707 327.455 292.947 327.815 293.24C328.175 293.533 328.455 293.847 328.655 294.18C328.855 294.5 328.955 294.807 328.955 295.1L328.335 295.16V293.34C328.335 293.06 328.428 292.82 328.615 292.62C328.801 292.42 329.041 292.32 329.335 292.32ZM325.255 301.36C325.881 301.36 326.428 301.2 326.895 300.88C327.375 300.56 327.748 300.127 328.015 299.58C328.281 299.02 328.415 298.4 328.415 297.72C328.415 297.027 328.281 296.407 328.015 295.86C327.748 295.313 327.375 294.88 326.895 294.56C326.428 294.24 325.881 294.08 325.255 294.08C324.641 294.08 324.095 294.24 323.615 294.56C323.135 294.88 322.761 295.313 322.495 295.86C322.228 296.407 322.095 297.027 322.095 297.72C322.095 298.4 322.228 299.02 322.495 299.58C322.761 300.127 323.128 300.56 323.595 300.88C324.075 301.2 324.628 301.36 325.255 301.36Z" fill="black"/>
<circle cx="40" cy="552" r="40" fill="#005E89"/>
<path d="M39.5003 524.417C24.5503 524.417 12.417 536.55 12.417 551.5C12.417 566.45 24.5503 578.583 39.5003 578.583C54.4503 578.583 66.5837 566.45 66.5837 551.5C66.5837 536.55 54.4503 524.417 39.5003 524.417ZM39.5003 573.167C27.5566 573.167 17.8337 563.444 17.8337 551.5C17.8337 539.556 27.5566 529.833 39.5003 529.833C51.4441 529.833 61.167 539.556 61.167 551.5C61.167 563.444 51.4441 573.167 39.5003 573.167ZM51.9316 539.529L34.0837 557.377L27.0691 550.39L23.2503 554.208L34.0837 565.042L55.7503 543.375L51.9316 539.529Z" fill="white"/>
<path d="M117.26 545C117.967 545 118.62 545.193 119.22 545.58C119.82 545.953 120.3 546.467 120.66 547.12C121.02 547.773 121.2 548.507 121.2 549.32C121.2 550.133 121.02 550.873 120.66 551.54C120.3 552.193 119.82 552.72 119.22 553.12C118.62 553.507 117.967 553.7 117.26 553.7H113.4L113.56 553.38V557.98C113.56 558.273 113.467 558.52 113.28 558.72C113.107 558.907 112.873 559 112.58 559C112.3 559 112.067 558.907 111.88 558.72C111.707 558.52 111.62 558.273 111.62 557.98V546.02C111.62 545.727 111.72 545.487 111.92 545.3C112.12 545.1 112.36 545 112.64 545H117.26ZM117.26 551.78C117.607 551.78 117.92 551.667 118.2 551.44C118.493 551.213 118.727 550.913 118.9 550.54C119.087 550.167 119.18 549.76 119.18 549.32C119.18 548.88 119.087 548.48 118.9 548.12C118.727 547.76 118.493 547.473 118.2 547.26C117.92 547.033 117.607 546.92 117.26 546.92H113.36L113.56 546.62V552.04L113.38 551.78H117.26ZM128.016 559.2C126.923 559.2 125.963 558.973 125.136 558.52C124.323 558.053 123.69 557.42 123.236 556.62C122.796 555.807 122.576 554.88 122.576 553.84C122.576 552.667 122.81 551.667 123.276 550.84C123.756 550 124.376 549.36 125.136 548.92C125.91 548.467 126.723 548.24 127.576 548.24C128.216 548.24 128.83 548.373 129.416 548.64C130.016 548.893 130.543 549.253 130.996 549.72C131.45 550.173 131.81 550.713 132.076 551.34C132.343 551.953 132.483 552.627 132.496 553.36C132.483 553.627 132.376 553.847 132.176 554.02C131.976 554.193 131.743 554.28 131.476 554.28H123.716L123.236 552.58H130.756L130.376 552.94V552.44C130.336 551.973 130.176 551.567 129.896 551.22C129.616 550.86 129.27 550.587 128.856 550.4C128.456 550.2 128.03 550.1 127.576 550.1C127.176 550.1 126.79 550.167 126.416 550.3C126.043 550.42 125.716 550.62 125.436 550.9C125.156 551.18 124.93 551.553 124.756 552.02C124.583 552.473 124.496 553.04 124.496 553.72C124.496 554.453 124.65 555.093 124.956 555.64C125.263 556.187 125.676 556.613 126.196 556.92C126.716 557.213 127.296 557.36 127.936 557.36C128.416 557.36 128.816 557.313 129.136 557.22C129.456 557.113 129.723 556.987 129.936 556.84C130.15 556.693 130.336 556.553 130.496 556.42C130.71 556.3 130.91 556.24 131.096 556.24C131.336 556.24 131.536 556.327 131.696 556.5C131.856 556.66 131.936 556.853 131.936 557.08C131.936 557.373 131.79 557.64 131.496 557.88C131.136 558.227 130.636 558.533 129.996 558.8C129.37 559.067 128.71 559.2 128.016 559.2ZM135.662 559C135.368 559 135.128 558.907 134.942 558.72C134.755 558.52 134.662 558.273 134.662 557.98V549.5C134.662 549.207 134.755 548.967 134.942 548.78C135.128 548.58 135.368 548.48 135.662 548.48C135.942 548.48 136.175 548.58 136.362 548.78C136.562 548.967 136.662 549.207 136.662 549.5V551.74L136.462 550.88C136.568 550.507 136.728 550.16 136.942 549.84C137.168 549.52 137.435 549.24 137.742 549C138.048 548.76 138.388 548.573 138.762 548.44C139.148 548.307 139.548 548.24 139.962 548.24C140.308 548.24 140.608 548.333 140.862 548.52C141.115 548.707 141.242 548.94 141.242 549.22C141.242 549.58 141.148 549.847 140.962 550.02C140.775 550.18 140.568 550.26 140.342 550.26C140.142 550.26 139.948 550.22 139.762 550.14C139.575 550.047 139.355 550 139.102 550C138.822 550 138.535 550.073 138.242 550.22C137.948 550.367 137.682 550.587 137.442 550.88C137.202 551.16 137.008 551.493 136.862 551.88C136.728 552.267 136.662 552.7 136.662 553.18V557.98C136.662 558.273 136.562 558.52 136.362 558.72C136.175 558.907 135.942 559 135.662 559ZM147.921 544.22C148.174 544.22 148.434 544.253 148.701 544.32C148.968 544.387 149.188 544.5 149.361 544.66C149.548 544.807 149.641 545.013 149.641 545.28C149.641 545.547 149.561 545.767 149.401 545.94C149.241 546.1 149.054 546.18 148.841 546.18C148.708 546.18 148.528 546.153 148.301 546.1C148.074 546.033 147.848 546 147.621 546C147.314 546 147.068 546.073 146.881 546.22C146.694 546.353 146.561 546.527 146.481 546.74C146.401 546.94 146.361 547.14 146.361 547.34V557.98C146.361 558.273 146.261 558.52 146.061 558.72C145.874 558.907 145.641 559 145.361 559C145.068 559 144.828 558.907 144.641 558.72C144.454 558.52 144.361 558.273 144.361 557.98V547.36C144.361 546.44 144.661 545.687 145.261 545.1C145.874 544.513 146.761 544.22 147.921 544.22ZM148.321 548.66C148.588 548.66 148.808 548.747 148.981 548.92C149.154 549.093 149.241 549.313 149.241 549.58C149.241 549.847 149.154 550.067 148.981 550.24C148.808 550.413 148.588 550.5 148.321 550.5H143.141C142.888 550.5 142.668 550.413 142.481 550.24C142.308 550.067 142.221 549.847 142.221 549.58C142.221 549.313 142.308 549.093 142.481 548.92C142.668 548.747 142.888 548.66 143.141 548.66H148.321ZM152.821 557.98C152.821 558.273 152.728 558.52 152.541 558.72C152.354 558.907 152.114 559 151.821 559C151.541 559 151.301 558.907 151.101 558.72C150.914 558.52 150.821 558.273 150.821 557.98V549.42C150.821 549.127 150.914 548.887 151.101 548.7C151.301 548.5 151.541 548.4 151.821 548.4C152.114 548.4 152.354 548.5 152.541 548.7C152.728 548.887 152.821 549.127 152.821 549.42V557.98ZM151.801 547.08C151.414 547.08 151.134 547.013 150.961 546.88C150.788 546.733 150.701 546.493 150.701 546.16V545.84C150.701 545.507 150.794 545.273 150.981 545.14C151.168 545.007 151.448 544.94 151.821 544.94C152.221 544.94 152.508 545.013 152.681 545.16C152.854 545.293 152.941 545.52 152.941 545.84V546.16C152.941 546.507 152.848 546.747 152.661 546.88C152.488 547.013 152.201 547.08 151.801 547.08ZM157.662 557.98C157.662 558.273 157.562 558.52 157.362 558.72C157.175 558.907 156.942 559 156.662 559C156.382 559 156.142 558.907 155.942 558.72C155.755 558.52 155.662 558.273 155.662 557.98V545.22C155.662 544.927 155.762 544.687 155.962 544.5C156.162 544.3 156.402 544.2 156.682 544.2C156.975 544.2 157.208 544.3 157.382 544.5C157.568 544.687 157.662 544.927 157.662 545.22V557.98ZM170.785 548.24C171.505 548.24 172.138 548.32 172.685 548.48C173.245 548.627 173.685 548.84 174.005 549.12C174.325 549.387 174.485 549.7 174.485 550.06C174.485 550.287 174.411 550.5 174.265 550.7C174.131 550.887 173.938 550.98 173.685 550.98C173.485 550.98 173.318 550.947 173.185 550.88C173.065 550.813 172.951 550.733 172.845 550.64C172.738 550.547 172.605 550.453 172.445 550.36C172.298 550.28 172.078 550.213 171.785 550.16C171.505 550.107 171.251 550.08 171.025 550.08C170.318 550.08 169.705 550.24 169.185 550.56C168.678 550.88 168.278 551.313 167.985 551.86C167.705 552.407 167.565 553.027 167.565 553.72C167.565 554.413 167.705 555.033 167.985 555.58C168.278 556.127 168.671 556.56 169.165 556.88C169.671 557.2 170.258 557.36 170.925 557.36C171.325 557.36 171.651 557.333 171.905 557.28C172.171 557.213 172.391 557.133 172.565 557.04C172.778 556.92 172.951 556.8 173.085 556.68C173.218 556.547 173.411 556.48 173.665 556.48C173.958 556.48 174.178 556.573 174.325 556.76C174.485 556.933 174.565 557.153 174.565 557.42C174.565 557.713 174.385 558 174.025 558.28C173.678 558.547 173.211 558.767 172.625 558.94C172.038 559.113 171.391 559.2 170.685 559.2C169.645 559.2 168.738 558.96 167.965 558.48C167.205 558 166.611 557.347 166.185 556.52C165.771 555.693 165.565 554.76 165.565 553.72C165.565 552.667 165.785 551.733 166.225 550.92C166.665 550.093 167.278 549.44 168.065 548.96C168.851 548.48 169.758 548.24 170.785 548.24ZM181.298 559.2C180.204 559.2 179.244 558.973 178.418 558.52C177.604 558.053 176.971 557.42 176.518 556.62C176.078 555.807 175.858 554.88 175.858 553.84C175.858 552.667 176.091 551.667 176.558 550.84C177.038 550 177.658 549.36 178.418 548.92C179.191 548.467 180.004 548.24 180.858 548.24C181.498 548.24 182.111 548.373 182.698 548.64C183.298 548.893 183.824 549.253 184.278 549.72C184.731 550.173 185.091 550.713 185.358 551.34C185.624 551.953 185.764 552.627 185.778 553.36C185.764 553.627 185.658 553.847 185.458 554.02C185.258 554.193 185.024 554.28 184.758 554.28H176.998L176.518 552.58H184.038L183.658 552.94V552.44C183.618 551.973 183.458 551.567 183.178 551.22C182.898 550.86 182.551 550.587 182.138 550.4C181.738 550.2 181.311 550.1 180.858 550.1C180.458 550.1 180.071 550.167 179.698 550.3C179.324 550.42 178.998 550.62 178.718 550.9C178.438 551.18 178.211 551.553 178.038 552.02C177.864 552.473 177.778 553.04 177.778 553.72C177.778 554.453 177.931 555.093 178.238 555.64C178.544 556.187 178.958 556.613 179.478 556.92C179.998 557.213 180.578 557.36 181.218 557.36C181.698 557.36 182.098 557.313 182.418 557.22C182.738 557.113 183.004 556.987 183.218 556.84C183.431 556.693 183.618 556.553 183.778 556.42C183.991 556.3 184.191 556.24 184.378 556.24C184.618 556.24 184.818 556.327 184.978 556.5C185.138 556.66 185.218 556.853 185.218 557.08C185.218 557.373 185.071 557.64 184.778 557.88C184.418 558.227 183.918 558.533 183.278 558.8C182.651 559.067 181.991 559.2 181.298 559.2ZM188.943 559C188.65 559 188.41 558.907 188.223 558.72C188.036 558.52 187.943 558.273 187.943 557.98V549.5C187.943 549.207 188.036 548.967 188.223 548.78C188.41 548.58 188.65 548.48 188.943 548.48C189.223 548.48 189.456 548.58 189.643 548.78C189.843 548.967 189.943 549.207 189.943 549.5V551.74L189.743 550.88C189.85 550.507 190.01 550.16 190.223 549.84C190.45 549.52 190.716 549.24 191.023 549C191.33 548.76 191.67 548.573 192.043 548.44C192.43 548.307 192.83 548.24 193.243 548.24C193.59 548.24 193.89 548.333 194.143 548.52C194.396 548.707 194.523 548.94 194.523 549.22C194.523 549.58 194.43 549.847 194.243 550.02C194.056 550.18 193.85 550.26 193.623 550.26C193.423 550.26 193.23 550.22 193.043 550.14C192.856 550.047 192.636 550 192.383 550C192.103 550 191.816 550.073 191.523 550.22C191.23 550.367 190.963 550.587 190.723 550.88C190.483 551.16 190.29 551.493 190.143 551.88C190.01 552.267 189.943 552.7 189.943 553.18V557.98C189.943 558.273 189.843 558.52 189.643 558.72C189.456 558.907 189.223 559 188.943 559ZM197.302 559C197.009 559 196.769 558.907 196.582 558.72C196.396 558.52 196.302 558.273 196.302 557.98V549.5C196.302 549.207 196.396 548.967 196.582 548.78C196.769 548.58 197.009 548.48 197.302 548.48C197.582 548.48 197.816 548.58 198.002 548.78C198.202 548.967 198.302 549.207 198.302 549.5V551.74L198.102 550.88C198.209 550.507 198.369 550.16 198.582 549.84C198.809 549.52 199.076 549.24 199.382 549C199.689 548.76 200.029 548.573 200.402 548.44C200.789 548.307 201.189 548.24 201.602 548.24C201.949 548.24 202.249 548.333 202.502 548.52C202.756 548.707 202.882 548.94 202.882 549.22C202.882 549.58 202.789 549.847 202.602 550.02C202.416 550.18 202.209 550.26 201.982 550.26C201.782 550.26 201.589 550.22 201.402 550.14C201.216 550.047 200.996 550 200.742 550C200.462 550 200.176 550.073 199.882 550.22C199.589 550.367 199.322 550.587 199.082 550.88C198.842 551.16 198.649 551.493 198.502 551.88C198.369 552.267 198.302 552.7 198.302 553.18V557.98C198.302 558.273 198.202 558.52 198.002 558.72C197.816 558.907 197.582 559 197.302 559ZM212.967 548.32C213.247 548.32 213.481 548.42 213.667 548.62C213.867 548.807 213.967 549.047 213.967 549.34V557.98C213.967 558.273 213.867 558.52 213.667 558.72C213.481 558.907 213.247 559 212.967 559C212.674 559 212.434 558.907 212.247 558.72C212.061 558.52 211.967 558.273 211.967 557.98V556.54L212.367 556.6C212.367 556.84 212.267 557.107 212.067 557.4C211.881 557.693 211.621 557.98 211.287 558.26C210.954 558.527 210.561 558.753 210.107 558.94C209.654 559.113 209.167 559.2 208.647 559.2C207.727 559.2 206.901 558.967 206.167 558.5C205.434 558.02 204.854 557.367 204.427 556.54C204.001 555.713 203.787 554.773 203.787 553.72C203.787 552.64 204.001 551.693 204.427 550.88C204.854 550.053 205.427 549.407 206.147 548.94C206.881 548.473 207.694 548.24 208.587 548.24C209.161 548.24 209.687 548.333 210.167 548.52C210.661 548.707 211.087 548.947 211.447 549.24C211.807 549.533 212.087 549.847 212.287 550.18C212.487 550.5 212.587 550.807 212.587 551.1L211.967 551.16V549.34C211.967 549.06 212.061 548.82 212.247 548.62C212.434 548.42 212.674 548.32 212.967 548.32ZM208.887 557.36C209.514 557.36 210.061 557.2 210.527 556.88C211.007 556.56 211.381 556.127 211.647 555.58C211.914 555.02 212.047 554.4 212.047 553.72C212.047 553.027 211.914 552.407 211.647 551.86C211.381 551.313 211.007 550.88 210.527 550.56C210.061 550.24 209.514 550.08 208.887 550.08C208.274 550.08 207.727 550.24 207.247 550.56C206.767 550.88 206.394 551.313 206.127 551.86C205.861 552.407 205.727 553.027 205.727 553.72C205.727 554.4 205.861 555.02 206.127 555.58C206.394 556.127 206.761 556.56 207.227 556.88C207.707 557.2 208.261 557.36 208.887 557.36ZM225.292 544.2C225.572 544.2 225.805 544.293 225.992 544.48C226.192 544.667 226.292 544.913 226.292 545.22V557.98C226.292 558.273 226.192 558.52 225.992 558.72C225.805 558.907 225.572 559 225.292 559C224.998 559 224.758 558.907 224.572 558.72C224.385 558.52 224.292 558.273 224.292 557.98V556.54L224.692 556.56C224.692 556.8 224.592 557.073 224.392 557.38C224.205 557.673 223.945 557.96 223.612 558.24C223.278 558.52 222.885 558.753 222.432 558.94C221.978 559.113 221.492 559.2 220.972 559.2C220.065 559.2 219.238 558.967 218.492 558.5C217.758 558.02 217.178 557.373 216.752 556.56C216.325 555.733 216.112 554.787 216.112 553.72C216.112 552.653 216.325 551.713 216.752 550.9C217.178 550.073 217.752 549.427 218.472 548.96C219.205 548.48 220.018 548.24 220.912 548.24C221.472 548.24 221.992 548.333 222.472 548.52C222.965 548.707 223.392 548.947 223.752 549.24C224.112 549.533 224.392 549.847 224.592 550.18C224.805 550.5 224.912 550.807 224.912 551.1L224.292 551.16V545.22C224.292 544.927 224.385 544.687 224.572 544.5C224.758 544.3 224.998 544.2 225.292 544.2ZM221.212 557.36C221.838 557.36 222.385 557.2 222.852 556.88C223.332 556.56 223.705 556.127 223.972 555.58C224.238 555.033 224.372 554.413 224.372 553.72C224.372 553.027 224.238 552.407 223.972 551.86C223.705 551.313 223.332 550.88 222.852 550.56C222.385 550.24 221.838 550.08 221.212 550.08C220.598 550.08 220.052 550.24 219.572 550.56C219.092 550.88 218.718 551.313 218.452 551.86C218.185 552.407 218.052 553.027 218.052 553.72C218.052 554.413 218.185 555.033 218.452 555.58C218.718 556.127 219.092 556.56 219.572 556.88C220.052 557.2 220.598 557.36 221.212 557.36ZM239.076 553.74C239.076 554.807 238.836 555.753 238.356 556.58C237.889 557.393 237.256 558.033 236.456 558.5C235.656 558.967 234.756 559.2 233.756 559.2C232.769 559.2 231.869 558.967 231.056 558.5C230.256 558.033 229.616 557.393 229.136 556.58C228.669 555.753 228.436 554.807 228.436 553.74C228.436 552.66 228.669 551.713 229.136 550.9C229.616 550.073 230.256 549.427 231.056 548.96C231.869 548.48 232.769 548.24 233.756 548.24C234.756 548.24 235.656 548.48 236.456 548.96C237.256 549.427 237.889 550.073 238.356 550.9C238.836 551.713 239.076 552.66 239.076 553.74ZM237.076 553.74C237.076 553.007 236.929 552.373 236.636 551.84C236.342 551.293 235.942 550.867 235.436 550.56C234.942 550.24 234.382 550.08 233.756 550.08C233.142 550.08 232.582 550.24 232.076 550.56C231.582 550.867 231.182 551.293 230.876 551.84C230.582 552.373 230.436 553.007 230.436 553.74C230.436 554.447 230.582 555.073 230.876 555.62C231.182 556.167 231.582 556.593 232.076 556.9C232.582 557.207 233.142 557.36 233.756 557.36C234.382 557.36 234.942 557.207 235.436 556.9C235.942 556.593 236.342 556.167 236.636 555.62C236.929 555.073 237.076 554.447 237.076 553.74Z" fill="black"/>
</svg>
