<svg width="1142" height="151" viewBox="0 0 1142 151" fill="none" xmlns="http://www.w3.org/2000/svg">
<path d="M13 40H1138" stroke="black" stroke-width="2"/>
<circle cx="50" cy="40" r="40" fill="#AE0168"/>
<path d="M50.4997 19.2229L70.8934 54.4583H30.1059L50.4997 19.2229ZM25.4205 51.75C23.3351 55.3521 25.9351 59.875 30.1059 59.875H70.8934C75.0643 59.875 77.6643 55.3521 75.5788 51.75L55.1851 16.5146C53.0997 12.9125 47.8997 12.9125 45.8143 16.5146L25.4205 51.75ZM47.7913 32.7916V38.2083C47.7913 39.6979 49.0101 40.9166 50.4997 40.9166C51.9893 40.9166 53.208 39.6979 53.208 38.2083V32.7916C53.208 31.3021 51.9893 30.0833 50.4997 30.0833C49.0101 30.0833 47.7913 31.3021 47.7913 32.7916ZM47.7913 46.3333H53.208V51.75H47.7913V46.3333Z" fill="white"/>
<path d="M7.34789 107C8.05456 107 8.70789 107.193 9.30789 107.58C9.90789 107.953 10.3879 108.467 10.7479 109.12C11.1079 109.773 11.2879 110.507 11.2879 111.32C11.2879 112.133 11.1079 112.873 10.7479 113.54C10.3879 114.193 9.90789 114.72 9.30789 115.12C8.70789 115.507 8.05456 115.7 7.34789 115.7H3.48789L3.64789 115.38V119.98C3.64789 120.273 3.55456 120.52 3.36789 120.72C3.19456 120.907 2.96122 121 2.66789 121C2.38789 121 2.15456 120.907 1.96789 120.72C1.79456 120.52 1.70789 120.273 1.70789 119.98V108.02C1.70789 107.727 1.80789 107.487 2.00789 107.3C2.20789 107.1 2.44789 107 2.72789 107H7.34789ZM7.34789 113.78C7.69456 113.78 8.00789 113.667 8.28789 113.44C8.58122 113.213 8.81456 112.913 8.98789 112.54C9.17456 112.167 9.26789 111.76 9.26789 111.32C9.26789 110.88 9.17456 110.48 8.98789 110.12C8.81456 109.76 8.58122 109.473 8.28789 109.26C8.00789 109.033 7.69456 108.92 7.34789 108.92H3.44789L3.64789 108.62V114.04L3.46789 113.78H7.34789ZM18.1043 121.2C17.011 121.2 16.051 120.973 15.2243 120.52C14.411 120.053 13.7776 119.42 13.3243 118.62C12.8843 117.807 12.6643 116.88 12.6643 115.84C12.6643 114.667 12.8976 113.667 13.3643 112.84C13.8443 112 14.4643 111.36 15.2243 110.92C15.9976 110.467 16.811 110.24 17.6643 110.24C18.3043 110.24 18.9176 110.373 19.5043 110.64C20.1043 110.893 20.631 111.253 21.0843 111.72C21.5376 112.173 21.8976 112.713 22.1643 113.34C22.431 113.953 22.571 114.627 22.5843 115.36C22.571 115.627 22.4643 115.847 22.2643 116.02C22.0643 116.193 21.831 116.28 21.5643 116.28H13.8043L13.3243 114.58H20.8443L20.4643 114.94V114.44C20.4243 113.973 20.2643 113.567 19.9843 113.22C19.7043 112.86 19.3576 112.587 18.9443 112.4C18.5443 112.2 18.1176 112.1 17.6643 112.1C17.2643 112.1 16.8776 112.167 16.5043 112.3C16.131 112.42 15.8043 112.62 15.5243 112.9C15.2443 113.18 15.0176 113.553 14.8443 114.02C14.671 114.473 14.5843 115.04 14.5843 115.72C14.5843 116.453 14.7376 117.093 15.0443 117.64C15.351 118.187 15.7643 118.613 16.2843 118.92C16.8043 119.213 17.3843 119.36 18.0243 119.36C18.5043 119.36 18.9043 119.313 19.2243 119.22C19.5443 119.113 19.811 118.987 20.0243 118.84C20.2376 118.693 20.4243 118.553 20.5843 118.42C20.7976 118.3 20.9976 118.24 21.1843 118.24C21.4243 118.24 21.6243 118.327 21.7843 118.5C21.9443 118.66 22.0243 118.853 22.0243 119.08C22.0243 119.373 21.8776 119.64 21.5843 119.88C21.2243 120.227 20.7243 120.533 20.0843 120.8C19.4576 121.067 18.7976 121.2 18.1043 121.2ZM30.1696 110.24C31.1163 110.24 31.8496 110.44 32.3696 110.84C32.8896 111.227 33.2496 111.753 33.4496 112.42C33.6629 113.073 33.7696 113.807 33.7696 114.62V119.98C33.7696 120.273 33.6696 120.52 33.4696 120.72C33.2829 120.907 33.0496 121 32.7696 121C32.4763 121 32.2363 120.907 32.0496 120.72C31.8629 120.52 31.7696 120.273 31.7696 119.98V114.64C31.7696 114.16 31.7029 113.733 31.5696 113.36C31.4363 112.973 31.2029 112.667 30.8696 112.44C30.5496 112.2 30.0963 112.08 29.5096 112.08C28.9629 112.08 28.4829 112.2 28.0696 112.44C27.6563 112.667 27.3296 112.973 27.0896 113.36C26.8629 113.733 26.7496 114.16 26.7496 114.64V119.98C26.7496 120.273 26.6496 120.52 26.4496 120.72C26.2629 120.907 26.0296 121 25.7496 121C25.4563 121 25.2163 120.907 25.0296 120.72C24.8429 120.52 24.7496 120.273 24.7496 119.98V111.5C24.7496 111.207 24.8429 110.967 25.0296 110.78C25.2163 110.58 25.4563 110.48 25.7496 110.48C26.0296 110.48 26.2629 110.58 26.4496 110.78C26.6496 110.967 26.7496 111.207 26.7496 111.5V112.62L26.3896 112.82C26.4829 112.527 26.6429 112.233 26.8696 111.94C27.1096 111.633 27.3963 111.353 27.7296 111.1C28.0629 110.833 28.4363 110.627 28.8496 110.48C29.2629 110.32 29.7029 110.24 30.1696 110.24ZM45.0865 106.2C45.3665 106.2 45.5998 106.293 45.7865 106.48C45.9865 106.667 46.0865 106.913 46.0865 107.22V119.98C46.0865 120.273 45.9865 120.52 45.7865 120.72C45.5998 120.907 45.3665 121 45.0865 121C44.7932 121 44.5532 120.907 44.3665 120.72C44.1798 120.52 44.0865 120.273 44.0865 119.98V118.54L44.4865 118.56C44.4865 118.8 44.3865 119.073 44.1865 119.38C43.9998 119.673 43.7398 119.96 43.4065 120.24C43.0732 120.52 42.6798 120.753 42.2265 120.94C41.7732 121.113 41.2865 121.2 40.7665 121.2C39.8598 121.2 39.0332 120.967 38.2865 120.5C37.5532 120.02 36.9732 119.373 36.5465 118.56C36.1198 117.733 35.9065 116.787 35.9065 115.72C35.9065 114.653 36.1198 113.713 36.5465 112.9C36.9732 112.073 37.5465 111.427 38.2665 110.96C38.9998 110.48 39.8132 110.24 40.7065 110.24C41.2665 110.24 41.7865 110.333 42.2665 110.52C42.7598 110.707 43.1865 110.947 43.5465 111.24C43.9065 111.533 44.1865 111.847 44.3865 112.18C44.5998 112.5 44.7065 112.807 44.7065 113.1L44.0865 113.16V107.22C44.0865 106.927 44.1798 106.687 44.3665 106.5C44.5532 106.3 44.7932 106.2 45.0865 106.2ZM41.0065 119.36C41.6332 119.36 42.1798 119.2 42.6465 118.88C43.1265 118.56 43.4998 118.127 43.7665 117.58C44.0332 117.033 44.1665 116.413 44.1665 115.72C44.1665 115.027 44.0332 114.407 43.7665 113.86C43.4998 113.313 43.1265 112.88 42.6465 112.56C42.1798 112.24 41.6332 112.08 41.0065 112.08C40.3932 112.08 39.8465 112.24 39.3665 112.56C38.8865 112.88 38.5132 113.313 38.2465 113.86C37.9798 114.407 37.8465 115.027 37.8465 115.72C37.8465 116.413 37.9798 117.033 38.2465 117.58C38.5132 118.127 38.8865 118.56 39.3665 118.88C39.8465 119.2 40.3932 119.36 41.0065 119.36ZM50.7507 119.98C50.7507 120.273 50.6574 120.52 50.4707 120.72C50.284 120.907 50.044 121 49.7507 121C49.4707 121 49.2307 120.907 49.0307 120.72C48.844 120.52 48.7507 120.273 48.7507 119.98V111.42C48.7507 111.127 48.844 110.887 49.0307 110.7C49.2307 110.5 49.4707 110.4 49.7507 110.4C50.044 110.4 50.284 110.5 50.4707 110.7C50.6574 110.887 50.7507 111.127 50.7507 111.42V119.98ZM49.7307 109.08C49.344 109.08 49.064 109.013 48.8907 108.88C48.7174 108.733 48.6307 108.493 48.6307 108.16V107.84C48.6307 107.507 48.724 107.273 48.9107 107.14C49.0974 107.007 49.3774 106.94 49.7507 106.94C50.1507 106.94 50.4374 107.013 50.6107 107.16C50.784 107.293 50.8707 107.52 50.8707 107.84V108.16C50.8707 108.507 50.7774 108.747 50.5907 108.88C50.4174 109.013 50.1307 109.08 49.7307 109.08ZM58.241 121.2C57.1477 121.2 56.1877 120.973 55.361 120.52C54.5477 120.053 53.9143 119.42 53.461 118.62C53.021 117.807 52.801 116.88 52.801 115.84C52.801 114.667 53.0343 113.667 53.501 112.84C53.981 112 54.601 111.36 55.361 110.92C56.1343 110.467 56.9477 110.24 57.801 110.24C58.441 110.24 59.0543 110.373 59.641 110.64C60.241 110.893 60.7677 111.253 61.221 111.72C61.6743 112.173 62.0343 112.713 62.301 113.34C62.5677 113.953 62.7077 114.627 62.721 115.36C62.7077 115.627 62.601 115.847 62.401 116.02C62.201 116.193 61.9677 116.28 61.701 116.28H53.941L53.461 114.58H60.981L60.601 114.94V114.44C60.561 113.973 60.401 113.567 60.121 113.22C59.841 112.86 59.4943 112.587 59.081 112.4C58.681 112.2 58.2543 112.1 57.801 112.1C57.401 112.1 57.0143 112.167 56.641 112.3C56.2677 112.42 55.941 112.62 55.661 112.9C55.381 113.18 55.1543 113.553 54.981 114.02C54.8077 114.473 54.721 115.04 54.721 115.72C54.721 116.453 54.8743 117.093 55.181 117.64C55.4877 118.187 55.901 118.613 56.421 118.92C56.941 119.213 57.521 119.36 58.161 119.36C58.641 119.36 59.041 119.313 59.361 119.22C59.681 119.113 59.9477 118.987 60.161 118.84C60.3743 118.693 60.561 118.553 60.721 118.42C60.9343 118.3 61.1343 118.24 61.321 118.24C61.561 118.24 61.761 118.327 61.921 118.5C62.081 118.66 62.161 118.853 62.161 119.08C62.161 119.373 62.0143 119.64 61.721 119.88C61.361 120.227 60.861 120.533 60.221 120.8C59.5943 121.067 58.9343 121.2 58.241 121.2ZM70.3063 110.24C71.253 110.24 71.9863 110.44 72.5063 110.84C73.0263 111.227 73.3863 111.753 73.5863 112.42C73.7997 113.073 73.9063 113.807 73.9063 114.62V119.98C73.9063 120.273 73.8063 120.52 73.6063 120.72C73.4197 120.907 73.1863 121 72.9063 121C72.613 121 72.373 120.907 72.1863 120.72C71.9997 120.52 71.9063 120.273 71.9063 119.98V114.64C71.9063 114.16 71.8397 113.733 71.7063 113.36C71.573 112.973 71.3397 112.667 71.0063 112.44C70.6863 112.2 70.233 112.08 69.6463 112.08C69.0997 112.08 68.6197 112.2 68.2063 112.44C67.793 112.667 67.4663 112.973 67.2263 113.36C66.9997 113.733 66.8863 114.16 66.8863 114.64V119.98C66.8863 120.273 66.7863 120.52 66.5863 120.72C66.3997 120.907 66.1663 121 65.8863 121C65.593 121 65.353 120.907 65.1663 120.72C64.9797 120.52 64.8863 120.273 64.8863 119.98V111.5C64.8863 111.207 64.9797 110.967 65.1663 110.78C65.353 110.58 65.593 110.48 65.8863 110.48C66.1663 110.48 66.3997 110.58 66.5863 110.78C66.7863 110.967 66.8863 111.207 66.8863 111.5V112.62L66.5263 112.82C66.6197 112.527 66.7797 112.233 67.0063 111.94C67.2463 111.633 67.533 111.353 67.8663 111.1C68.1997 110.833 68.573 110.627 68.9863 110.48C69.3997 110.32 69.8397 110.24 70.3063 110.24ZM76.5432 110.6H81.2432C81.5099 110.6 81.7299 110.693 81.9032 110.88C82.0899 111.053 82.1832 111.273 82.1832 111.54C82.1832 111.793 82.0899 112.007 81.9032 112.18C81.7299 112.353 81.5099 112.44 81.2432 112.44H76.5432C76.2765 112.44 76.0499 112.353 75.8632 112.18C75.6899 111.993 75.6032 111.773 75.6032 111.52C75.6032 111.253 75.6899 111.033 75.8632 110.86C76.0499 110.687 76.2765 110.6 76.5432 110.6ZM78.6432 108C78.9365 108 79.1765 108.1 79.3632 108.3C79.5499 108.487 79.6432 108.727 79.6432 109.02V118.3C79.6432 118.54 79.6832 118.733 79.7632 118.88C79.8432 119.027 79.9499 119.127 80.0832 119.18C80.2299 119.233 80.3765 119.26 80.5232 119.26C80.6699 119.26 80.7965 119.233 80.9032 119.18C81.0232 119.127 81.1632 119.1 81.3232 119.1C81.4832 119.1 81.6299 119.173 81.7632 119.32C81.8965 119.467 81.9632 119.667 81.9632 119.92C81.9632 120.24 81.7899 120.5 81.4432 120.7C81.0965 120.9 80.7232 121 80.3232 121C80.0965 121 79.8299 120.98 79.5232 120.94C79.2165 120.9 78.9165 120.8 78.6232 120.64C78.3432 120.48 78.1099 120.227 77.9232 119.88C77.7365 119.52 77.6432 119.02 77.6432 118.38V109.02C77.6432 108.727 77.7365 108.487 77.9232 108.3C78.1232 108.1 78.3632 108 78.6432 108ZM89.1004 121.2C88.0071 121.2 87.0471 120.973 86.2204 120.52C85.4071 120.053 84.7737 119.42 84.3204 118.62C83.8804 117.807 83.6604 116.88 83.6604 115.84C83.6604 114.667 83.8937 113.667 84.3604 112.84C84.8404 112 85.4604 111.36 86.2204 110.92C86.9937 110.467 87.8071 110.24 88.6604 110.24C89.3004 110.24 89.9137 110.373 90.5004 110.64C91.1004 110.893 91.6271 111.253 92.0804 111.72C92.5337 112.173 92.8937 112.713 93.1604 113.34C93.4271 113.953 93.5671 114.627 93.5804 115.36C93.5671 115.627 93.4604 115.847 93.2604 116.02C93.0604 116.193 92.8271 116.28 92.5604 116.28H84.8004L84.3204 114.58H91.8404L91.4604 114.94V114.44C91.4204 113.973 91.2604 113.567 90.9804 113.22C90.7004 112.86 90.3537 112.587 89.9404 112.4C89.5404 112.2 89.1137 112.1 88.6604 112.1C88.2604 112.1 87.8737 112.167 87.5004 112.3C87.1271 112.42 86.8004 112.62 86.5204 112.9C86.2404 113.18 86.0137 113.553 85.8404 114.02C85.6671 114.473 85.5804 115.04 85.5804 115.72C85.5804 116.453 85.7337 117.093 86.0404 117.64C86.3471 118.187 86.7604 118.613 87.2804 118.92C87.8004 119.213 88.3804 119.36 89.0204 119.36C89.5004 119.36 89.9004 119.313 90.2204 119.22C90.5404 119.113 90.8071 118.987 91.0204 118.84C91.2337 118.693 91.4204 118.553 91.5804 118.42C91.7937 118.3 91.9937 118.24 92.1804 118.24C92.4204 118.24 92.6204 118.327 92.7804 118.5C92.9404 118.66 93.0204 118.853 93.0204 119.08C93.0204 119.373 92.8737 119.64 92.5804 119.88C92.2204 120.227 91.7204 120.533 91.0804 120.8C90.4537 121.067 89.7937 121.2 89.1004 121.2Z" fill="black"/>
<circle cx="577" cy="40" r="40" fill="#585858"/>
<path d="M592.75 31.375L588.931 27.5292L571.083 45.3771L564.069 38.3896L560.25 42.2084L571.083 53.0417L592.75 31.375ZM595.458 15.125H584.137C583 11.9834 580.021 9.70837 576.5 9.70837C572.979 9.70837 570 11.9834 568.863 15.125H557.542C557.162 15.125 556.81 15.1521 556.458 15.2334C555.402 15.45 554.454 15.9917 553.723 16.723C553.235 17.2105 552.829 17.8063 552.558 18.4563C552.288 19.0792 552.125 19.7834 552.125 20.5417V58.4584C552.125 59.1896 552.288 59.9209 552.558 60.5709C552.829 61.2209 553.235 61.7896 553.723 62.3042C554.454 63.0355 555.402 63.5771 556.458 63.7938C556.81 63.848 557.162 63.875 557.542 63.875H595.458C598.437 63.875 600.875 61.4375 600.875 58.4584V20.5417C600.875 17.5625 598.437 15.125 595.458 15.125ZM576.5 14.448C577.61 14.448 578.531 15.3688 578.531 16.4792C578.531 17.5896 577.61 18.5105 576.5 18.5105C575.39 18.5105 574.469 17.5896 574.469 16.4792C574.469 15.3688 575.39 14.448 576.5 14.448ZM595.458 58.4584H557.542V20.5417H595.458V58.4584Z" fill="white"/>
<path d="M532.454 107H539.374C539.654 107 539.888 107.093 540.074 107.28C540.274 107.467 540.374 107.7 540.374 107.98C540.374 108.26 540.274 108.487 540.074 108.66C539.888 108.833 539.654 108.92 539.374 108.92H533.334L533.534 108.58V113.06L533.354 112.86H538.474C538.754 112.86 538.988 112.953 539.174 113.14C539.374 113.327 539.474 113.567 539.474 113.86C539.474 114.14 539.374 114.367 539.174 114.54C538.988 114.713 538.754 114.8 538.474 114.8H533.394L533.534 114.62V119.24L533.394 119.08H539.374C539.654 119.08 539.888 119.18 540.074 119.38C540.274 119.567 540.374 119.787 540.374 120.04C540.374 120.32 540.274 120.553 540.074 120.74C539.888 120.913 539.654 121 539.374 121H532.454C532.174 121 531.934 120.907 531.734 120.72C531.534 120.52 531.434 120.273 531.434 119.98V108.02C531.434 107.727 531.534 107.487 531.734 107.3C531.934 107.1 532.174 107 532.454 107ZM548.06 110.24C549.007 110.24 549.74 110.44 550.26 110.84C550.78 111.227 551.14 111.753 551.34 112.42C551.554 113.073 551.66 113.807 551.66 114.62V119.98C551.66 120.273 551.56 120.52 551.36 120.72C551.174 120.907 550.94 121 550.66 121C550.367 121 550.127 120.907 549.94 120.72C549.754 120.52 549.66 120.273 549.66 119.98V114.64C549.66 114.16 549.594 113.733 549.46 113.36C549.327 112.973 549.094 112.667 548.76 112.44C548.44 112.2 547.987 112.08 547.4 112.08C546.854 112.08 546.374 112.2 545.96 112.44C545.547 112.667 545.22 112.973 544.98 113.36C544.754 113.733 544.64 114.16 544.64 114.64V119.98C544.64 120.273 544.54 120.52 544.34 120.72C544.154 120.907 543.92 121 543.64 121C543.347 121 543.107 120.907 542.92 120.72C542.734 120.52 542.64 120.273 542.64 119.98V111.5C542.64 111.207 542.734 110.967 542.92 110.78C543.107 110.58 543.347 110.48 543.64 110.48C543.92 110.48 544.154 110.58 544.34 110.78C544.54 110.967 544.64 111.207 544.64 111.5V112.62L544.28 112.82C544.374 112.527 544.534 112.233 544.76 111.94C545 111.633 545.287 111.353 545.62 111.1C545.954 110.833 546.327 110.627 546.74 110.48C547.154 110.32 547.594 110.24 548.06 110.24ZM554.297 110.6H558.997C559.264 110.6 559.484 110.693 559.657 110.88C559.844 111.053 559.937 111.273 559.937 111.54C559.937 111.793 559.844 112.007 559.657 112.18C559.484 112.353 559.264 112.44 558.997 112.44H554.297C554.03 112.44 553.804 112.353 553.617 112.18C553.444 111.993 553.357 111.773 553.357 111.52C553.357 111.253 553.444 111.033 553.617 110.86C553.804 110.687 554.03 110.6 554.297 110.6ZM556.397 108C556.69 108 556.93 108.1 557.117 108.3C557.304 108.487 557.397 108.727 557.397 109.02V118.3C557.397 118.54 557.437 118.733 557.517 118.88C557.597 119.027 557.704 119.127 557.837 119.18C557.984 119.233 558.13 119.26 558.277 119.26C558.424 119.26 558.55 119.233 558.657 119.18C558.777 119.127 558.917 119.1 559.077 119.1C559.237 119.1 559.384 119.173 559.517 119.32C559.65 119.467 559.717 119.667 559.717 119.92C559.717 120.24 559.544 120.5 559.197 120.7C558.85 120.9 558.477 121 558.077 121C557.85 121 557.584 120.98 557.277 120.94C556.97 120.9 556.67 120.8 556.377 120.64C556.097 120.48 555.864 120.227 555.677 119.88C555.49 119.52 555.397 119.02 555.397 118.38V109.02C555.397 108.727 555.49 108.487 555.677 108.3C555.877 108.1 556.117 108 556.397 108ZM563.152 121C562.859 121 562.619 120.907 562.432 120.72C562.245 120.52 562.152 120.273 562.152 119.98V111.5C562.152 111.207 562.245 110.967 562.432 110.78C562.619 110.58 562.859 110.48 563.152 110.48C563.432 110.48 563.665 110.58 563.852 110.78C564.052 110.967 564.152 111.207 564.152 111.5V113.74L563.952 112.88C564.059 112.507 564.219 112.16 564.432 111.84C564.659 111.52 564.925 111.24 565.232 111C565.539 110.76 565.879 110.573 566.252 110.44C566.639 110.307 567.039 110.24 567.452 110.24C567.799 110.24 568.099 110.333 568.352 110.52C568.605 110.707 568.732 110.94 568.732 111.22C568.732 111.58 568.639 111.847 568.452 112.02C568.265 112.18 568.059 112.26 567.832 112.26C567.632 112.26 567.439 112.22 567.252 112.14C567.065 112.047 566.845 112 566.592 112C566.312 112 566.025 112.073 565.732 112.22C565.439 112.367 565.172 112.587 564.932 112.88C564.692 113.16 564.499 113.493 564.352 113.88C564.219 114.267 564.152 114.7 564.152 115.18V119.98C564.152 120.273 564.052 120.52 563.852 120.72C563.665 120.907 563.432 121 563.152 121ZM574.862 121.2C573.769 121.2 572.809 120.973 571.982 120.52C571.169 120.053 570.535 119.42 570.082 118.62C569.642 117.807 569.422 116.88 569.422 115.84C569.422 114.667 569.655 113.667 570.122 112.84C570.602 112 571.222 111.36 571.982 110.92C572.755 110.467 573.569 110.24 574.422 110.24C575.062 110.24 575.675 110.373 576.262 110.64C576.862 110.893 577.389 111.253 577.842 111.72C578.295 112.173 578.655 112.713 578.922 113.34C579.189 113.953 579.329 114.627 579.342 115.36C579.329 115.627 579.222 115.847 579.022 116.02C578.822 116.193 578.589 116.28 578.322 116.28H570.562L570.082 114.58H577.602L577.222 114.94V114.44C577.182 113.973 577.022 113.567 576.742 113.22C576.462 112.86 576.115 112.587 575.702 112.4C575.302 112.2 574.875 112.1 574.422 112.1C574.022 112.1 573.635 112.167 573.262 112.3C572.889 112.42 572.562 112.62 572.282 112.9C572.002 113.18 571.775 113.553 571.602 114.02C571.429 114.473 571.342 115.04 571.342 115.72C571.342 116.453 571.495 117.093 571.802 117.64C572.109 118.187 572.522 118.613 573.042 118.92C573.562 119.213 574.142 119.36 574.782 119.36C575.262 119.36 575.662 119.313 575.982 119.22C576.302 119.113 576.569 118.987 576.782 118.84C576.995 118.693 577.182 118.553 577.342 118.42C577.555 118.3 577.755 118.24 577.942 118.24C578.182 118.24 578.382 118.327 578.542 118.5C578.702 118.66 578.782 118.853 578.782 119.08C578.782 119.373 578.635 119.64 578.342 119.88C577.982 120.227 577.482 120.533 576.842 120.8C576.215 121.067 575.555 121.2 574.862 121.2ZM581.65 110.38C581.85 110.38 582.036 110.433 582.21 110.54C582.396 110.647 582.53 110.807 582.61 111.02L585.75 118.28L585.37 118.46L588.55 111.04C588.736 110.6 589.036 110.387 589.45 110.4C589.716 110.4 589.936 110.487 590.11 110.66C590.296 110.82 590.39 111.033 590.39 111.3C590.39 111.38 590.376 111.467 590.35 111.56C590.323 111.64 590.29 111.72 590.25 111.8L586.45 120.36C586.276 120.76 585.99 120.973 585.59 121C585.39 121.027 585.19 120.987 584.99 120.88C584.803 120.76 584.656 120.587 584.55 120.36L580.77 111.8C580.743 111.747 580.716 111.68 580.69 111.6C580.663 111.507 580.65 111.4 580.65 111.28C580.65 111.08 580.736 110.88 580.91 110.68C581.096 110.48 581.343 110.38 581.65 110.38ZM594.305 119.98C594.305 120.273 594.212 120.52 594.025 120.72C593.839 120.907 593.599 121 593.305 121C593.025 121 592.785 120.907 592.585 120.72C592.399 120.52 592.305 120.273 592.305 119.98V111.42C592.305 111.127 592.399 110.887 592.585 110.7C592.785 110.5 593.025 110.4 593.305 110.4C593.599 110.4 593.839 110.5 594.025 110.7C594.212 110.887 594.305 111.127 594.305 111.42V119.98ZM593.285 109.08C592.899 109.08 592.619 109.013 592.445 108.88C592.272 108.733 592.185 108.493 592.185 108.16V107.84C592.185 107.507 592.279 107.273 592.465 107.14C592.652 107.007 592.932 106.94 593.305 106.94C593.705 106.94 593.992 107.013 594.165 107.16C594.339 107.293 594.425 107.52 594.425 107.84V108.16C594.425 108.507 594.332 108.747 594.145 108.88C593.972 109.013 593.685 109.08 593.285 109.08ZM596.376 119.36C596.256 119.173 596.202 118.96 596.216 118.72C596.229 118.467 596.369 118.253 596.636 118.08C596.822 117.96 597.016 117.913 597.216 117.94C597.429 117.953 597.629 118.053 597.816 118.24C598.189 118.653 598.602 118.98 599.056 119.22C599.522 119.46 600.082 119.58 600.736 119.58C601.002 119.567 601.276 119.527 601.556 119.46C601.836 119.38 602.076 119.247 602.276 119.06C602.476 118.86 602.576 118.573 602.576 118.2C602.576 117.867 602.469 117.6 602.256 117.4C602.042 117.2 601.762 117.04 601.416 116.92C601.069 116.787 600.696 116.667 600.296 116.56C599.869 116.44 599.436 116.307 598.996 116.16C598.569 116.013 598.182 115.827 597.836 115.6C597.489 115.36 597.202 115.053 596.976 114.68C596.762 114.307 596.656 113.847 596.656 113.3C596.656 112.673 596.829 112.133 597.176 111.68C597.536 111.227 597.996 110.873 598.556 110.62C599.129 110.367 599.749 110.24 600.416 110.24C600.802 110.24 601.209 110.293 601.636 110.4C602.062 110.493 602.476 110.647 602.876 110.86C603.276 111.073 603.622 111.353 603.916 111.7C604.049 111.873 604.122 112.08 604.136 112.32C604.162 112.56 604.056 112.773 603.816 112.96C603.656 113.093 603.462 113.153 603.236 113.14C603.009 113.127 602.822 113.053 602.676 112.92C602.422 112.6 602.096 112.353 601.696 112.18C601.296 111.993 600.842 111.9 600.336 111.9C600.082 111.9 599.816 111.94 599.536 112.02C599.269 112.087 599.042 112.213 598.856 112.4C598.669 112.587 598.576 112.86 598.576 113.22C598.576 113.553 598.682 113.82 598.896 114.02C599.122 114.22 599.416 114.387 599.776 114.52C600.136 114.653 600.529 114.773 600.956 114.88C601.369 114.987 601.776 115.113 602.176 115.26C602.589 115.407 602.956 115.6 603.276 115.84C603.609 116.067 603.876 116.367 604.076 116.74C604.289 117.1 604.396 117.56 604.396 118.12C604.396 118.773 604.202 119.333 603.816 119.8C603.442 120.253 602.962 120.6 602.376 120.84C601.802 121.08 601.196 121.2 600.556 121.2C599.796 121.2 599.036 121.067 598.276 120.8C597.529 120.52 596.896 120.04 596.376 119.36ZM606.406 110.6H611.106C611.373 110.6 611.593 110.693 611.766 110.88C611.953 111.053 612.046 111.273 612.046 111.54C612.046 111.793 611.953 112.007 611.766 112.18C611.593 112.353 611.373 112.44 611.106 112.44H606.406C606.14 112.44 605.913 112.353 605.726 112.18C605.553 111.993 605.466 111.773 605.466 111.52C605.466 111.253 605.553 111.033 605.726 110.86C605.913 110.687 606.14 110.6 606.406 110.6ZM608.506 108C608.8 108 609.04 108.1 609.226 108.3C609.413 108.487 609.506 108.727 609.506 109.02V118.3C609.506 118.54 609.546 118.733 609.626 118.88C609.706 119.027 609.813 119.127 609.946 119.18C610.093 119.233 610.24 119.26 610.386 119.26C610.533 119.26 610.66 119.233 610.766 119.18C610.886 119.127 611.026 119.1 611.186 119.1C611.346 119.1 611.493 119.173 611.626 119.32C611.76 119.467 611.826 119.667 611.826 119.92C611.826 120.24 611.653 120.5 611.306 120.7C610.96 120.9 610.586 121 610.186 121C609.96 121 609.693 120.98 609.386 120.94C609.08 120.9 608.78 120.8 608.486 120.64C608.206 120.48 607.973 120.227 607.786 119.88C607.6 119.52 607.506 119.02 607.506 118.38V109.02C607.506 108.727 607.6 108.487 607.786 108.3C607.986 108.1 608.226 108 608.506 108ZM622.801 110.32C623.081 110.32 623.315 110.42 623.501 110.62C623.701 110.807 623.801 111.047 623.801 111.34V119.98C623.801 120.273 623.701 120.52 623.501 120.72C623.315 120.907 623.081 121 622.801 121C622.508 121 622.268 120.907 622.081 120.72C621.895 120.52 621.801 120.273 621.801 119.98V118.54L622.201 118.6C622.201 118.84 622.101 119.107 621.901 119.4C621.715 119.693 621.455 119.98 621.121 120.26C620.788 120.527 620.395 120.753 619.941 120.94C619.488 121.113 619.001 121.2 618.481 121.2C617.561 121.2 616.735 120.967 616.001 120.5C615.268 120.02 614.688 119.367 614.261 118.54C613.835 117.713 613.621 116.773 613.621 115.72C613.621 114.64 613.835 113.693 614.261 112.88C614.688 112.053 615.261 111.407 615.981 110.94C616.715 110.473 617.528 110.24 618.421 110.24C618.995 110.24 619.521 110.333 620.001 110.52C620.495 110.707 620.921 110.947 621.281 111.24C621.641 111.533 621.921 111.847 622.121 112.18C622.321 112.5 622.421 112.807 622.421 113.1L621.801 113.16V111.34C621.801 111.06 621.895 110.82 622.081 110.62C622.268 110.42 622.508 110.32 622.801 110.32ZM618.721 119.36C619.348 119.36 619.895 119.2 620.361 118.88C620.841 118.56 621.215 118.127 621.481 117.58C621.748 117.02 621.881 116.4 621.881 115.72C621.881 115.027 621.748 114.407 621.481 113.86C621.215 113.313 620.841 112.88 620.361 112.56C619.895 112.24 619.348 112.08 618.721 112.08C618.108 112.08 617.561 112.24 617.081 112.56C616.601 112.88 616.228 113.313 615.961 113.86C615.695 114.407 615.561 115.027 615.561 115.72C615.561 116.4 615.695 117.02 615.961 117.58C616.228 118.127 616.595 118.56 617.061 118.88C617.541 119.2 618.095 119.36 618.721 119.36ZM523.809 135.3C524.743 135.3 525.569 135.533 526.289 136C527.023 136.467 527.603 137.107 528.029 137.92C528.456 138.72 528.669 139.653 528.669 140.72C528.669 141.787 528.456 142.733 528.029 143.56C527.603 144.373 527.029 145.013 526.309 145.48C525.589 145.947 524.776 146.18 523.869 146.18C523.363 146.18 522.883 146.1 522.429 145.94C521.976 145.78 521.576 145.573 521.229 145.32C520.883 145.053 520.596 144.773 520.369 144.48C520.156 144.187 520.023 143.913 519.969 143.66L520.509 143.4V148.98C520.509 149.273 520.409 149.513 520.209 149.7C520.023 149.9 519.789 150 519.509 150C519.216 150 518.976 149.9 518.789 149.7C518.603 149.513 518.509 149.273 518.509 148.98V136.46C518.509 136.18 518.603 135.94 518.789 135.74C518.976 135.54 519.216 135.44 519.509 135.44C519.789 135.44 520.023 135.54 520.209 135.74C520.409 135.94 520.509 136.18 520.509 136.46V137.84L520.189 137.66C520.229 137.407 520.356 137.147 520.569 136.88C520.783 136.6 521.049 136.34 521.369 136.1C521.703 135.86 522.076 135.667 522.489 135.52C522.916 135.373 523.356 135.3 523.809 135.3ZM523.589 137.14C522.949 137.14 522.389 137.3 521.909 137.62C521.443 137.927 521.076 138.347 520.809 138.88C520.543 139.413 520.409 140.027 520.409 140.72C520.409 141.4 520.543 142.02 520.809 142.58C521.076 143.127 521.443 143.56 521.909 143.88C522.389 144.187 522.949 144.34 523.589 144.34C524.216 144.34 524.763 144.187 525.229 143.88C525.696 143.56 526.063 143.127 526.329 142.58C526.609 142.02 526.749 141.4 526.749 140.72C526.749 140.04 526.609 139.433 526.329 138.9C526.063 138.353 525.696 137.927 525.229 137.62C524.763 137.3 524.216 137.14 523.589 137.14ZM531.834 146C531.54 146 531.3 145.907 531.114 145.72C530.927 145.52 530.834 145.273 530.834 144.98V136.5C530.834 136.207 530.927 135.967 531.114 135.78C531.3 135.58 531.54 135.48 531.834 135.48C532.114 135.48 532.347 135.58 532.534 135.78C532.734 135.967 532.834 136.207 532.834 136.5V138.74L532.634 137.88C532.74 137.507 532.9 137.16 533.114 136.84C533.34 136.52 533.607 136.24 533.914 136C534.22 135.76 534.56 135.573 534.934 135.44C535.32 135.307 535.72 135.24 536.134 135.24C536.48 135.24 536.78 135.333 537.034 135.52C537.287 135.707 537.414 135.94 537.414 136.22C537.414 136.58 537.32 136.847 537.134 137.02C536.947 137.18 536.74 137.26 536.514 137.26C536.314 137.26 536.12 137.22 535.934 137.14C535.747 137.047 535.527 137 535.274 137C534.994 137 534.707 137.073 534.414 137.22C534.12 137.367 533.854 137.587 533.614 137.88C533.374 138.16 533.18 138.493 533.034 138.88C532.9 139.267 532.834 139.7 532.834 140.18V144.98C532.834 145.273 532.734 145.52 532.534 145.72C532.347 145.907 532.114 146 531.834 146ZM548.744 140.74C548.744 141.807 548.504 142.753 548.024 143.58C547.557 144.393 546.924 145.033 546.124 145.5C545.324 145.967 544.424 146.2 543.424 146.2C542.437 146.2 541.537 145.967 540.724 145.5C539.924 145.033 539.284 144.393 538.804 143.58C538.337 142.753 538.104 141.807 538.104 140.74C538.104 139.66 538.337 138.713 538.804 137.9C539.284 137.073 539.924 136.427 540.724 135.96C541.537 135.48 542.437 135.24 543.424 135.24C544.424 135.24 545.324 135.48 546.124 135.96C546.924 136.427 547.557 137.073 548.024 137.9C548.504 138.713 548.744 139.66 548.744 140.74ZM546.744 140.74C546.744 140.007 546.597 139.373 546.304 138.84C546.01 138.293 545.61 137.867 545.104 137.56C544.61 137.24 544.05 137.08 543.424 137.08C542.81 137.08 542.25 137.24 541.744 137.56C541.25 137.867 540.85 138.293 540.544 138.84C540.25 139.373 540.104 140.007 540.104 140.74C540.104 141.447 540.25 142.073 540.544 142.62C540.85 143.167 541.25 143.593 541.744 143.9C542.25 144.207 542.81 144.36 543.424 144.36C544.05 144.36 544.61 144.207 545.104 143.9C545.61 143.593 546.01 143.167 546.304 142.62C546.597 142.073 546.744 141.447 546.744 140.74ZM555.192 135.24C555.765 135.24 556.292 135.333 556.772 135.52C557.252 135.707 557.665 135.947 558.012 136.24C558.372 136.52 558.652 136.813 558.852 137.12C559.052 137.427 559.152 137.693 559.152 137.92L558.692 137.94V136.34C558.692 136.06 558.785 135.82 558.972 135.62C559.158 135.42 559.398 135.32 559.692 135.32C559.985 135.32 560.225 135.42 560.412 135.62C560.598 135.807 560.692 136.047 560.692 136.34V145.16C560.692 146.293 560.452 147.213 559.972 147.92C559.492 148.64 558.852 149.167 558.052 149.5C557.265 149.833 556.398 150 555.452 150C555.118 150 554.725 149.953 554.272 149.86C553.818 149.78 553.398 149.68 553.012 149.56C552.638 149.44 552.378 149.32 552.232 149.2C551.925 149.04 551.718 148.853 551.612 148.64C551.518 148.427 551.525 148.213 551.632 148C551.752 147.707 551.925 147.527 552.152 147.46C552.378 147.393 552.638 147.413 552.932 147.52C553.065 147.56 553.272 147.633 553.552 147.74C553.832 147.847 554.145 147.94 554.492 148.02C554.838 148.113 555.165 148.16 555.472 148.16C556.538 148.16 557.338 147.913 557.872 147.42C558.418 146.927 558.692 146.253 558.692 145.4V143.6L558.932 143.74C558.892 144.02 558.765 144.307 558.552 144.6C558.338 144.88 558.065 145.14 557.732 145.38C557.398 145.62 557.018 145.82 556.592 145.98C556.165 146.127 555.718 146.2 555.252 146.2C554.318 146.2 553.472 145.967 552.712 145.5C551.965 145.02 551.372 144.373 550.932 143.56C550.492 142.733 550.272 141.787 550.272 140.72C550.272 139.653 550.492 138.713 550.932 137.9C551.372 137.073 551.958 136.427 552.692 135.96C553.438 135.48 554.272 135.24 555.192 135.24ZM555.492 137.08C554.852 137.08 554.278 137.24 553.772 137.56C553.278 137.88 552.892 138.313 552.612 138.86C552.345 139.407 552.212 140.027 552.212 140.72C552.212 141.413 552.345 142.033 552.612 142.58C552.892 143.127 553.278 143.56 553.772 143.88C554.278 144.2 554.852 144.36 555.492 144.36C556.145 144.36 556.718 144.207 557.212 143.9C557.705 143.58 558.092 143.147 558.372 142.6C558.652 142.04 558.792 141.413 558.792 140.72C558.792 140.027 558.652 139.407 558.372 138.86C558.092 138.3 557.705 137.867 557.212 137.56C556.718 137.24 556.145 137.08 555.492 137.08ZM564.49 146C564.197 146 563.957 145.907 563.77 145.72C563.583 145.52 563.49 145.273 563.49 144.98V136.5C563.49 136.207 563.583 135.967 563.77 135.78C563.957 135.58 564.197 135.48 564.49 135.48C564.77 135.48 565.003 135.58 565.19 135.78C565.39 135.967 565.49 136.207 565.49 136.5V138.74L565.29 137.88C565.397 137.507 565.557 137.16 565.77 136.84C565.997 136.52 566.263 136.24 566.57 136C566.877 135.76 567.217 135.573 567.59 135.44C567.977 135.307 568.377 135.24 568.79 135.24C569.137 135.24 569.437 135.333 569.69 135.52C569.943 135.707 570.07 135.94 570.07 136.22C570.07 136.58 569.977 136.847 569.79 137.02C569.603 137.18 569.397 137.26 569.17 137.26C568.97 137.26 568.777 137.22 568.59 137.14C568.403 137.047 568.183 137 567.93 137C567.65 137 567.363 137.073 567.07 137.22C566.777 137.367 566.51 137.587 566.27 137.88C566.03 138.16 565.837 138.493 565.69 138.88C565.557 139.267 565.49 139.7 565.49 140.18V144.98C565.49 145.273 565.39 145.52 565.19 145.72C565.003 145.907 564.77 146 564.49 146ZM580.155 135.32C580.435 135.32 580.668 135.42 580.855 135.62C581.055 135.807 581.155 136.047 581.155 136.34V144.98C581.155 145.273 581.055 145.52 580.855 145.72C580.668 145.907 580.435 146 580.155 146C579.862 146 579.622 145.907 579.435 145.72C579.248 145.52 579.155 145.273 579.155 144.98V143.54L579.555 143.6C579.555 143.84 579.455 144.107 579.255 144.4C579.068 144.693 578.808 144.98 578.475 145.26C578.142 145.527 577.748 145.753 577.295 145.94C576.842 146.113 576.355 146.2 575.835 146.2C574.915 146.2 574.088 145.967 573.355 145.5C572.622 145.02 572.042 144.367 571.615 143.54C571.188 142.713 570.975 141.773 570.975 140.72C570.975 139.64 571.188 138.693 571.615 137.88C572.042 137.053 572.615 136.407 573.335 135.94C574.068 135.473 574.882 135.24 575.775 135.24C576.348 135.24 576.875 135.333 577.355 135.52C577.848 135.707 578.275 135.947 578.635 136.24C578.995 136.533 579.275 136.847 579.475 137.18C579.675 137.5 579.775 137.807 579.775 138.1L579.155 138.16V136.34C579.155 136.06 579.248 135.82 579.435 135.62C579.622 135.42 579.862 135.32 580.155 135.32ZM576.075 144.36C576.702 144.36 577.248 144.2 577.715 143.88C578.195 143.56 578.568 143.127 578.835 142.58C579.102 142.02 579.235 141.4 579.235 140.72C579.235 140.027 579.102 139.407 578.835 138.86C578.568 138.313 578.195 137.88 577.715 137.56C577.248 137.24 576.702 137.08 576.075 137.08C575.462 137.08 574.915 137.24 574.435 137.56C573.955 137.88 573.582 138.313 573.315 138.86C573.048 139.407 572.915 140.027 572.915 140.72C572.915 141.4 573.048 142.02 573.315 142.58C573.582 143.127 573.948 143.56 574.415 143.88C574.895 144.2 575.448 144.36 576.075 144.36ZM589.219 135.3C590.206 135.3 590.966 135.547 591.499 136.04C592.032 136.52 592.386 137.173 592.559 138L592.239 137.9L592.379 137.58C592.552 137.233 592.812 136.887 593.159 136.54C593.519 136.18 593.946 135.887 594.439 135.66C594.932 135.42 595.459 135.3 596.019 135.3C596.939 135.3 597.652 135.5 598.159 135.9C598.666 136.287 599.019 136.813 599.219 137.48C599.419 138.133 599.519 138.867 599.519 139.68V144.98C599.519 145.273 599.426 145.52 599.239 145.72C599.052 145.907 598.812 146 598.519 146C598.239 146 597.999 145.907 597.799 145.72C597.612 145.52 597.519 145.273 597.519 144.98V139.7C597.519 139.233 597.452 138.807 597.319 138.42C597.199 138.033 596.979 137.727 596.659 137.5C596.352 137.26 595.926 137.14 595.379 137.14C594.859 137.14 594.392 137.26 593.979 137.5C593.579 137.727 593.266 138.033 593.039 138.42C592.812 138.807 592.699 139.233 592.699 139.7V144.98C592.699 145.273 592.606 145.52 592.419 145.72C592.232 145.907 591.992 146 591.699 146C591.406 146 591.166 145.907 590.979 145.72C590.792 145.52 590.699 145.273 590.699 144.98V139.68C590.699 139.213 590.632 138.787 590.499 138.4C590.379 138.013 590.166 137.707 589.859 137.48C589.552 137.253 589.126 137.14 588.579 137.14C588.059 137.14 587.599 137.253 587.199 137.48C586.799 137.707 586.486 138.013 586.259 138.4C586.046 138.787 585.939 139.213 585.939 139.68V144.98C585.939 145.273 585.839 145.52 585.639 145.72C585.452 145.907 585.219 146 584.939 146C584.646 146 584.406 145.907 584.219 145.72C584.032 145.52 583.939 145.273 583.939 144.98V136.5C583.939 136.207 584.032 135.967 584.219 135.78C584.406 135.58 584.646 135.48 584.939 135.48C585.219 135.48 585.452 135.58 585.639 135.78C585.839 135.967 585.939 136.207 585.939 136.5V137.68L585.559 137.9C585.652 137.607 585.806 137.307 586.019 137C586.232 136.693 586.499 136.413 586.819 136.16C587.152 135.907 587.519 135.7 587.919 135.54C588.319 135.38 588.752 135.3 589.219 135.3ZM610.858 135.32C611.138 135.32 611.371 135.42 611.558 135.62C611.758 135.807 611.858 136.047 611.858 136.34V144.98C611.858 145.273 611.758 145.52 611.558 145.72C611.371 145.907 611.138 146 610.858 146C610.565 146 610.325 145.907 610.138 145.72C609.951 145.52 609.858 145.273 609.858 144.98V143.54L610.258 143.6C610.258 143.84 610.158 144.107 609.958 144.4C609.771 144.693 609.511 144.98 609.178 145.26C608.845 145.527 608.451 145.753 607.998 145.94C607.545 146.113 607.058 146.2 606.538 146.2C605.618 146.2 604.791 145.967 604.058 145.5C603.325 145.02 602.745 144.367 602.318 143.54C601.891 142.713 601.678 141.773 601.678 140.72C601.678 139.64 601.891 138.693 602.318 137.88C602.745 137.053 603.318 136.407 604.038 135.94C604.771 135.473 605.585 135.24 606.478 135.24C607.051 135.24 607.578 135.333 608.058 135.52C608.551 135.707 608.978 135.947 609.338 136.24C609.698 136.533 609.978 136.847 610.178 137.18C610.378 137.5 610.478 137.807 610.478 138.1L609.858 138.16V136.34C609.858 136.06 609.951 135.82 610.138 135.62C610.325 135.42 610.565 135.32 610.858 135.32ZM606.778 144.36C607.405 144.36 607.951 144.2 608.418 143.88C608.898 143.56 609.271 143.127 609.538 142.58C609.805 142.02 609.938 141.4 609.938 140.72C609.938 140.027 609.805 139.407 609.538 138.86C609.271 138.313 608.898 137.88 608.418 137.56C607.951 137.24 607.405 137.08 606.778 137.08C606.165 137.08 605.618 137.24 605.138 137.56C604.658 137.88 604.285 138.313 604.018 138.86C603.751 139.407 603.618 140.027 603.618 140.72C603.618 141.4 603.751 142.02 604.018 142.58C604.285 143.127 604.651 143.56 605.118 143.88C605.598 144.2 606.151 144.36 606.778 144.36ZM623.182 131.2C623.462 131.2 623.696 131.293 623.882 131.48C624.082 131.667 624.182 131.913 624.182 132.22V144.98C624.182 145.273 624.082 145.52 623.882 145.72C623.696 145.907 623.462 146 623.182 146C622.889 146 622.649 145.907 622.462 145.72C622.276 145.52 622.182 145.273 622.182 144.98V143.54L622.582 143.56C622.582 143.8 622.482 144.073 622.282 144.38C622.096 144.673 621.836 144.96 621.502 145.24C621.169 145.52 620.776 145.753 620.322 145.94C619.869 146.113 619.382 146.2 618.862 146.2C617.956 146.2 617.129 145.967 616.382 145.5C615.649 145.02 615.069 144.373 614.642 143.56C614.216 142.733 614.002 141.787 614.002 140.72C614.002 139.653 614.216 138.713 614.642 137.9C615.069 137.073 615.642 136.427 616.362 135.96C617.096 135.48 617.909 135.24 618.802 135.24C619.362 135.24 619.882 135.333 620.362 135.52C620.856 135.707 621.282 135.947 621.642 136.24C622.002 136.533 622.282 136.847 622.482 137.18C622.696 137.5 622.802 137.807 622.802 138.1L622.182 138.16V132.22C622.182 131.927 622.276 131.687 622.462 131.5C622.649 131.3 622.889 131.2 623.182 131.2ZM619.102 144.36C619.729 144.36 620.276 144.2 620.742 143.88C621.222 143.56 621.596 143.127 621.862 142.58C622.129 142.033 622.262 141.413 622.262 140.72C622.262 140.027 622.129 139.407 621.862 138.86C621.596 138.313 621.222 137.88 620.742 137.56C620.276 137.24 619.729 137.08 619.102 137.08C618.489 137.08 617.942 137.24 617.462 137.56C616.982 137.88 616.609 138.313 616.342 138.86C616.076 139.407 615.942 140.027 615.942 140.72C615.942 141.413 616.076 142.033 616.342 142.58C616.609 143.127 616.982 143.56 617.462 143.88C617.942 144.2 618.489 144.36 619.102 144.36ZM635.506 135.32C635.786 135.32 636.02 135.42 636.206 135.62C636.406 135.807 636.506 136.047 636.506 136.34V144.98C636.506 145.273 636.406 145.52 636.206 145.72C636.02 145.907 635.786 146 635.506 146C635.213 146 634.973 145.907 634.786 145.72C634.6 145.52 634.506 145.273 634.506 144.98V143.54L634.906 143.6C634.906 143.84 634.806 144.107 634.606 144.4C634.42 144.693 634.16 144.98 633.826 145.26C633.493 145.527 633.1 145.753 632.646 145.94C632.193 146.113 631.706 146.2 631.186 146.2C630.266 146.2 629.44 145.967 628.706 145.5C627.973 145.02 627.393 144.367 626.966 143.54C626.54 142.713 626.326 141.773 626.326 140.72C626.326 139.64 626.54 138.693 626.966 137.88C627.393 137.053 627.966 136.407 628.686 135.94C629.42 135.473 630.233 135.24 631.126 135.24C631.7 135.24 632.226 135.333 632.706 135.52C633.2 135.707 633.626 135.947 633.986 136.24C634.346 136.533 634.626 136.847 634.826 137.18C635.026 137.5 635.126 137.807 635.126 138.1L634.506 138.16V136.34C634.506 136.06 634.6 135.82 634.786 135.62C634.973 135.42 635.213 135.32 635.506 135.32ZM631.426 144.36C632.053 144.36 632.6 144.2 633.066 143.88C633.546 143.56 633.92 143.127 634.186 142.58C634.453 142.02 634.586 141.4 634.586 140.72C634.586 140.027 634.453 139.407 634.186 138.86C633.92 138.313 633.546 137.88 633.066 137.56C632.6 137.24 632.053 137.08 631.426 137.08C630.813 137.08 630.266 137.24 629.786 137.56C629.306 137.88 628.933 138.313 628.666 138.86C628.4 139.407 628.266 140.027 628.266 140.72C628.266 141.4 628.4 142.02 628.666 142.58C628.933 143.127 629.3 143.56 629.766 143.88C630.246 144.2 630.8 144.36 631.426 144.36Z" fill="black"/>
<circle cx="1102" cy="40" r="40" fill="#585858"/>
<path d="M1101.5 12.4166C1086.55 12.4166 1074.42 24.55 1074.42 39.5C1074.42 54.45 1086.55 66.5833 1101.5 66.5833C1116.45 66.5833 1128.58 54.45 1128.58 39.5C1128.58 24.55 1116.45 12.4166 1101.5 12.4166ZM1101.5 61.1666C1089.56 61.1666 1079.83 51.4437 1079.83 39.5C1079.83 27.5562 1089.56 17.8333 1101.5 17.8333C1113.44 17.8333 1123.17 27.5562 1123.17 39.5C1123.17 51.4437 1113.44 61.1666 1101.5 61.1666ZM1113.93 27.5291L1096.08 45.377L1089.07 38.3895L1085.25 42.2083L1096.08 53.0416L1117.75 31.375L1113.93 27.5291Z" fill="white"/>
<path d="M1084.64 107C1085.35 107 1086 107.193 1086.6 107.58C1087.2 107.953 1087.68 108.467 1088.04 109.12C1088.4 109.773 1088.58 110.507 1088.58 111.32C1088.58 112.133 1088.4 112.873 1088.04 113.54C1087.68 114.193 1087.2 114.72 1086.6 115.12C1086 115.507 1085.35 115.7 1084.64 115.7H1080.78L1080.94 115.38V119.98C1080.94 120.273 1080.85 120.52 1080.66 120.72C1080.49 120.907 1080.25 121 1079.96 121C1079.68 121 1079.45 120.907 1079.26 120.72C1079.09 120.52 1079 120.273 1079 119.98V108.02C1079 107.727 1079.1 107.487 1079.3 107.3C1079.5 107.1 1079.74 107 1080.02 107H1084.64ZM1084.64 113.78C1084.99 113.78 1085.3 113.667 1085.58 113.44C1085.87 113.213 1086.11 112.913 1086.28 112.54C1086.47 112.167 1086.56 111.76 1086.56 111.32C1086.56 110.88 1086.47 110.48 1086.28 110.12C1086.11 109.76 1085.87 109.473 1085.58 109.26C1085.3 109.033 1084.99 108.92 1084.64 108.92H1080.74L1080.94 108.62V114.04L1080.76 113.78H1084.64ZM1095.4 121.2C1094.3 121.2 1093.34 120.973 1092.52 120.52C1091.7 120.053 1091.07 119.42 1090.62 118.62C1090.18 117.807 1089.96 116.88 1089.96 115.84C1089.96 114.667 1090.19 113.667 1090.66 112.84C1091.14 112 1091.76 111.36 1092.52 110.92C1093.29 110.467 1094.1 110.24 1094.96 110.24C1095.6 110.24 1096.21 110.373 1096.8 110.64C1097.4 110.893 1097.92 111.253 1098.38 111.72C1098.83 112.173 1099.19 112.713 1099.46 113.34C1099.72 113.953 1099.86 114.627 1099.88 115.36C1099.86 115.627 1099.76 115.847 1099.56 116.02C1099.36 116.193 1099.12 116.28 1098.86 116.28H1091.1L1090.62 114.58H1098.14L1097.76 114.94V114.44C1097.72 113.973 1097.56 113.567 1097.28 113.22C1097 112.86 1096.65 112.587 1096.24 112.4C1095.84 112.2 1095.41 112.1 1094.96 112.1C1094.56 112.1 1094.17 112.167 1093.8 112.3C1093.42 112.42 1093.1 112.62 1092.82 112.9C1092.54 113.18 1092.31 113.553 1092.14 114.02C1091.96 114.473 1091.88 115.04 1091.88 115.72C1091.88 116.453 1092.03 117.093 1092.34 117.64C1092.64 118.187 1093.06 118.613 1093.58 118.92C1094.1 119.213 1094.68 119.36 1095.32 119.36C1095.8 119.36 1096.2 119.313 1096.52 119.22C1096.84 119.113 1097.1 118.987 1097.32 118.84C1097.53 118.693 1097.72 118.553 1097.88 118.42C1098.09 118.3 1098.29 118.24 1098.48 118.24C1098.72 118.24 1098.92 118.327 1099.08 118.5C1099.24 118.66 1099.32 118.853 1099.32 119.08C1099.32 119.373 1099.17 119.64 1098.88 119.88C1098.52 120.227 1098.02 120.533 1097.38 120.8C1096.75 121.067 1096.09 121.2 1095.4 121.2ZM1103.04 121C1102.75 121 1102.51 120.907 1102.32 120.72C1102.14 120.52 1102.04 120.273 1102.04 119.98V111.5C1102.04 111.207 1102.14 110.967 1102.32 110.78C1102.51 110.58 1102.75 110.48 1103.04 110.48C1103.32 110.48 1103.56 110.58 1103.74 110.78C1103.94 110.967 1104.04 111.207 1104.04 111.5V113.74L1103.84 112.88C1103.95 112.507 1104.11 112.16 1104.32 111.84C1104.55 111.52 1104.82 111.24 1105.12 111C1105.43 110.76 1105.77 110.573 1106.14 110.44C1106.53 110.307 1106.93 110.24 1107.34 110.24C1107.69 110.24 1107.99 110.333 1108.24 110.52C1108.5 110.707 1108.62 110.94 1108.62 111.22C1108.62 111.58 1108.53 111.847 1108.34 112.02C1108.16 112.18 1107.95 112.26 1107.72 112.26C1107.52 112.26 1107.33 112.22 1107.14 112.14C1106.96 112.047 1106.74 112 1106.48 112C1106.2 112 1105.92 112.073 1105.62 112.22C1105.33 112.367 1105.06 112.587 1104.82 112.88C1104.58 113.16 1104.39 113.493 1104.24 113.88C1104.11 114.267 1104.04 114.7 1104.04 115.18V119.98C1104.04 120.273 1103.94 120.52 1103.74 120.72C1103.56 120.907 1103.32 121 1103.04 121ZM1115.3 106.22C1115.56 106.22 1115.82 106.253 1116.08 106.32C1116.35 106.387 1116.57 106.5 1116.74 106.66C1116.93 106.807 1117.02 107.013 1117.02 107.28C1117.02 107.547 1116.94 107.767 1116.78 107.94C1116.62 108.1 1116.44 108.18 1116.22 108.18C1116.09 108.18 1115.91 108.153 1115.68 108.1C1115.46 108.033 1115.23 108 1115 108C1114.7 108 1114.45 108.073 1114.26 108.22C1114.08 108.353 1113.94 108.527 1113.86 108.74C1113.78 108.94 1113.74 109.14 1113.74 109.34V119.98C1113.74 120.273 1113.64 120.52 1113.44 120.72C1113.26 120.907 1113.02 121 1112.74 121C1112.45 121 1112.21 120.907 1112.02 120.72C1111.84 120.52 1111.74 120.273 1111.74 119.98V109.36C1111.74 108.44 1112.04 107.687 1112.64 107.1C1113.26 106.513 1114.14 106.22 1115.3 106.22ZM1115.7 110.66C1115.97 110.66 1116.19 110.747 1116.36 110.92C1116.54 111.093 1116.62 111.313 1116.62 111.58C1116.62 111.847 1116.54 112.067 1116.36 112.24C1116.19 112.413 1115.97 112.5 1115.7 112.5H1110.52C1110.27 112.5 1110.05 112.413 1109.86 112.24C1109.69 112.067 1109.6 111.847 1109.6 111.58C1109.6 111.313 1109.69 111.093 1109.86 110.92C1110.05 110.747 1110.27 110.66 1110.52 110.66H1115.7ZM1120.2 119.98C1120.2 120.273 1120.11 120.52 1119.92 120.72C1119.74 120.907 1119.5 121 1119.2 121C1118.92 121 1118.68 120.907 1118.48 120.72C1118.3 120.52 1118.2 120.273 1118.2 119.98V111.42C1118.2 111.127 1118.3 110.887 1118.48 110.7C1118.68 110.5 1118.92 110.4 1119.2 110.4C1119.5 110.4 1119.74 110.5 1119.92 110.7C1120.11 110.887 1120.2 111.127 1120.2 111.42V119.98ZM1119.18 109.08C1118.8 109.08 1118.52 109.013 1118.34 108.88C1118.17 108.733 1118.08 108.493 1118.08 108.16V107.84C1118.08 107.507 1118.18 107.273 1118.36 107.14C1118.55 107.007 1118.83 106.94 1119.2 106.94C1119.6 106.94 1119.89 107.013 1120.06 107.16C1120.24 107.293 1120.32 107.52 1120.32 107.84V108.16C1120.32 108.507 1120.23 108.747 1120.04 108.88C1119.87 109.013 1119.58 109.08 1119.18 109.08ZM1125.04 119.98C1125.04 120.273 1124.94 120.52 1124.74 120.72C1124.56 120.907 1124.32 121 1124.04 121C1123.76 121 1123.52 120.907 1123.32 120.72C1123.14 120.52 1123.04 120.273 1123.04 119.98V107.22C1123.04 106.927 1123.14 106.687 1123.34 106.5C1123.54 106.3 1123.78 106.2 1124.06 106.2C1124.36 106.2 1124.59 106.3 1124.76 106.5C1124.95 106.687 1125.04 106.927 1125.04 107.22V119.98ZM1070.46 135.24C1071.18 135.24 1071.81 135.32 1072.36 135.48C1072.92 135.627 1073.36 135.84 1073.68 136.12C1074 136.387 1074.16 136.7 1074.16 137.06C1074.16 137.287 1074.09 137.5 1073.94 137.7C1073.81 137.887 1073.61 137.98 1073.36 137.98C1073.16 137.98 1072.99 137.947 1072.86 137.88C1072.74 137.813 1072.63 137.733 1072.52 137.64C1072.41 137.547 1072.28 137.453 1072.12 137.36C1071.97 137.28 1071.75 137.213 1071.46 137.16C1071.18 137.107 1070.93 137.08 1070.7 137.08C1069.99 137.08 1069.38 137.24 1068.86 137.56C1068.35 137.88 1067.95 138.313 1067.66 138.86C1067.38 139.407 1067.24 140.027 1067.24 140.72C1067.24 141.413 1067.38 142.033 1067.66 142.58C1067.95 143.127 1068.35 143.56 1068.84 143.88C1069.35 144.2 1069.93 144.36 1070.6 144.36C1071 144.36 1071.33 144.333 1071.58 144.28C1071.85 144.213 1072.07 144.133 1072.24 144.04C1072.45 143.92 1072.63 143.8 1072.76 143.68C1072.89 143.547 1073.09 143.48 1073.34 143.48C1073.63 143.48 1073.85 143.573 1074 143.76C1074.16 143.933 1074.24 144.153 1074.24 144.42C1074.24 144.713 1074.06 145 1073.7 145.28C1073.35 145.547 1072.89 145.767 1072.3 145.94C1071.71 146.113 1071.07 146.2 1070.36 146.2C1069.32 146.2 1068.41 145.96 1067.64 145.48C1066.88 145 1066.29 144.347 1065.86 143.52C1065.45 142.693 1065.24 141.76 1065.24 140.72C1065.24 139.667 1065.46 138.733 1065.9 137.92C1066.34 137.093 1066.95 136.44 1067.74 135.96C1068.53 135.48 1069.43 135.24 1070.46 135.24ZM1080.97 146.2C1079.88 146.2 1078.92 145.973 1078.09 145.52C1077.28 145.053 1076.65 144.42 1076.19 143.62C1075.75 142.807 1075.53 141.88 1075.53 140.84C1075.53 139.667 1075.77 138.667 1076.23 137.84C1076.71 137 1077.33 136.36 1078.09 135.92C1078.87 135.467 1079.68 135.24 1080.53 135.24C1081.17 135.24 1081.79 135.373 1082.37 135.64C1082.97 135.893 1083.5 136.253 1083.95 136.72C1084.41 137.173 1084.77 137.713 1085.03 138.34C1085.3 138.953 1085.44 139.627 1085.45 140.36C1085.44 140.627 1085.33 140.847 1085.13 141.02C1084.93 141.193 1084.7 141.28 1084.43 141.28H1076.67L1076.19 139.58H1083.71L1083.33 139.94V139.44C1083.29 138.973 1083.13 138.567 1082.85 138.22C1082.57 137.86 1082.23 137.587 1081.81 137.4C1081.41 137.2 1080.99 137.1 1080.53 137.1C1080.13 137.1 1079.75 137.167 1079.37 137.3C1079 137.42 1078.67 137.62 1078.39 137.9C1078.11 138.18 1077.89 138.553 1077.71 139.02C1077.54 139.473 1077.45 140.04 1077.45 140.72C1077.45 141.453 1077.61 142.093 1077.91 142.64C1078.22 143.187 1078.63 143.613 1079.15 143.92C1079.67 144.213 1080.25 144.36 1080.89 144.36C1081.37 144.36 1081.77 144.313 1082.09 144.22C1082.41 144.113 1082.68 143.987 1082.89 143.84C1083.11 143.693 1083.29 143.553 1083.45 143.42C1083.67 143.3 1083.87 143.24 1084.05 143.24C1084.29 143.24 1084.49 143.327 1084.65 143.5C1084.81 143.66 1084.89 143.853 1084.89 144.08C1084.89 144.373 1084.75 144.64 1084.45 144.88C1084.09 145.227 1083.59 145.533 1082.95 145.8C1082.33 146.067 1081.67 146.2 1080.97 146.2ZM1088.62 146C1088.33 146 1088.09 145.907 1087.9 145.72C1087.71 145.52 1087.62 145.273 1087.62 144.98V136.5C1087.62 136.207 1087.71 135.967 1087.9 135.78C1088.09 135.58 1088.33 135.48 1088.62 135.48C1088.9 135.48 1089.13 135.58 1089.32 135.78C1089.52 135.967 1089.62 136.207 1089.62 136.5V138.74L1089.42 137.88C1089.53 137.507 1089.69 137.16 1089.9 136.84C1090.13 136.52 1090.39 136.24 1090.7 136C1091.01 135.76 1091.35 135.573 1091.72 135.44C1092.11 135.307 1092.51 135.24 1092.92 135.24C1093.27 135.24 1093.57 135.333 1093.82 135.52C1094.07 135.707 1094.2 135.94 1094.2 136.22C1094.2 136.58 1094.11 136.847 1093.92 137.02C1093.73 137.18 1093.53 137.26 1093.3 137.26C1093.1 137.26 1092.91 137.22 1092.72 137.14C1092.53 137.047 1092.31 137 1092.06 137C1091.78 137 1091.49 137.073 1091.2 137.22C1090.91 137.367 1090.64 137.587 1090.4 137.88C1090.16 138.16 1089.97 138.493 1089.82 138.88C1089.69 139.267 1089.62 139.7 1089.62 140.18V144.98C1089.62 145.273 1089.52 145.52 1089.32 145.72C1089.13 145.907 1088.9 146 1088.62 146ZM1096.98 146C1096.68 146 1096.44 145.907 1096.26 145.72C1096.07 145.52 1095.98 145.273 1095.98 144.98V136.5C1095.98 136.207 1096.07 135.967 1096.26 135.78C1096.44 135.58 1096.68 135.48 1096.98 135.48C1097.26 135.48 1097.49 135.58 1097.68 135.78C1097.88 135.967 1097.98 136.207 1097.98 136.5V138.74L1097.78 137.88C1097.88 137.507 1098.04 137.16 1098.26 136.84C1098.48 136.52 1098.75 136.24 1099.06 136C1099.36 135.76 1099.7 135.573 1100.08 135.44C1100.46 135.307 1100.86 135.24 1101.28 135.24C1101.62 135.24 1101.92 135.333 1102.18 135.52C1102.43 135.707 1102.56 135.94 1102.56 136.22C1102.56 136.58 1102.46 136.847 1102.28 137.02C1102.09 137.18 1101.88 137.26 1101.66 137.26C1101.46 137.26 1101.26 137.22 1101.08 137.14C1100.89 137.047 1100.67 137 1100.42 137C1100.14 137 1099.85 137.073 1099.56 137.22C1099.26 137.367 1099 137.587 1098.76 137.88C1098.52 138.16 1098.32 138.493 1098.18 138.88C1098.04 139.267 1097.98 139.7 1097.98 140.18V144.98C1097.98 145.273 1097.88 145.52 1097.68 145.72C1097.49 145.907 1097.26 146 1096.98 146ZM1112.64 135.32C1112.92 135.32 1113.16 135.42 1113.34 135.62C1113.54 135.807 1113.64 136.047 1113.64 136.34V144.98C1113.64 145.273 1113.54 145.52 1113.34 145.72C1113.16 145.907 1112.92 146 1112.64 146C1112.35 146 1112.11 145.907 1111.92 145.72C1111.74 145.52 1111.64 145.273 1111.64 144.98V143.54L1112.04 143.6C1112.04 143.84 1111.94 144.107 1111.74 144.4C1111.56 144.693 1111.3 144.98 1110.96 145.26C1110.63 145.527 1110.24 145.753 1109.78 145.94C1109.33 146.113 1108.84 146.2 1108.32 146.2C1107.4 146.2 1106.58 145.967 1105.84 145.5C1105.11 145.02 1104.53 144.367 1104.1 143.54C1103.68 142.713 1103.46 141.773 1103.46 140.72C1103.46 139.64 1103.68 138.693 1104.1 137.88C1104.53 137.053 1105.1 136.407 1105.82 135.94C1106.56 135.473 1107.37 135.24 1108.26 135.24C1108.84 135.24 1109.36 135.333 1109.84 135.52C1110.34 135.707 1110.76 135.947 1111.12 136.24C1111.48 136.533 1111.76 136.847 1111.96 137.18C1112.16 137.5 1112.26 137.807 1112.26 138.1L1111.64 138.16V136.34C1111.64 136.06 1111.74 135.82 1111.92 135.62C1112.11 135.42 1112.35 135.32 1112.64 135.32ZM1108.56 144.36C1109.19 144.36 1109.74 144.2 1110.2 143.88C1110.68 143.56 1111.06 143.127 1111.32 142.58C1111.59 142.02 1111.72 141.4 1111.72 140.72C1111.72 140.027 1111.59 139.407 1111.32 138.86C1111.06 138.313 1110.68 137.88 1110.2 137.56C1109.74 137.24 1109.19 137.08 1108.56 137.08C1107.95 137.08 1107.4 137.24 1106.92 137.56C1106.44 137.88 1106.07 138.313 1105.8 138.86C1105.54 139.407 1105.4 140.027 1105.4 140.72C1105.4 141.4 1105.54 142.02 1105.8 142.58C1106.07 143.127 1106.44 143.56 1106.9 143.88C1107.38 144.2 1107.94 144.36 1108.56 144.36ZM1124.97 131.2C1125.25 131.2 1125.48 131.293 1125.67 131.48C1125.87 131.667 1125.97 131.913 1125.97 132.22V144.98C1125.97 145.273 1125.87 145.52 1125.67 145.72C1125.48 145.907 1125.25 146 1124.97 146C1124.67 146 1124.43 145.907 1124.25 145.72C1124.06 145.52 1123.97 145.273 1123.97 144.98V143.54L1124.37 143.56C1124.37 143.8 1124.27 144.073 1124.07 144.38C1123.88 144.673 1123.62 144.96 1123.29 145.24C1122.95 145.52 1122.56 145.753 1122.11 145.94C1121.65 146.113 1121.17 146.2 1120.65 146.2C1119.74 146.2 1118.91 145.967 1118.17 145.5C1117.43 145.02 1116.85 144.373 1116.43 143.56C1116 142.733 1115.79 141.787 1115.79 140.72C1115.79 139.653 1116 138.713 1116.43 137.9C1116.85 137.073 1117.43 136.427 1118.15 135.96C1118.88 135.48 1119.69 135.24 1120.59 135.24C1121.15 135.24 1121.67 135.333 1122.15 135.52C1122.64 135.707 1123.07 135.947 1123.43 136.24C1123.79 136.533 1124.07 136.847 1124.27 137.18C1124.48 137.5 1124.59 137.807 1124.59 138.1L1123.97 138.16V132.22C1123.97 131.927 1124.06 131.687 1124.25 131.5C1124.43 131.3 1124.67 131.2 1124.97 131.2ZM1120.89 144.36C1121.51 144.36 1122.06 144.2 1122.53 143.88C1123.01 143.56 1123.38 143.127 1123.65 142.58C1123.91 142.033 1124.05 141.413 1124.05 140.72C1124.05 140.027 1123.91 139.407 1123.65 138.86C1123.38 138.313 1123.01 137.88 1122.53 137.56C1122.06 137.24 1121.51 137.08 1120.89 137.08C1120.27 137.08 1119.73 137.24 1119.25 137.56C1118.77 137.88 1118.39 138.313 1118.13 138.86C1117.86 139.407 1117.73 140.027 1117.73 140.72C1117.73 141.413 1117.86 142.033 1118.13 142.58C1118.39 143.127 1118.77 143.56 1119.25 143.88C1119.73 144.2 1120.27 144.36 1120.89 144.36ZM1138.75 140.74C1138.75 141.807 1138.51 142.753 1138.03 143.58C1137.56 144.393 1136.93 145.033 1136.13 145.5C1135.33 145.967 1134.43 146.2 1133.43 146.2C1132.44 146.2 1131.54 145.967 1130.73 145.5C1129.93 145.033 1129.29 144.393 1128.81 143.58C1128.34 142.753 1128.11 141.807 1128.11 140.74C1128.11 139.66 1128.34 138.713 1128.81 137.9C1129.29 137.073 1129.93 136.427 1130.73 135.96C1131.54 135.48 1132.44 135.24 1133.43 135.24C1134.43 135.24 1135.33 135.48 1136.13 135.96C1136.93 136.427 1137.56 137.073 1138.03 137.9C1138.51 138.713 1138.75 139.66 1138.75 140.74ZM1136.75 140.74C1136.75 140.007 1136.6 139.373 1136.31 138.84C1136.02 138.293 1135.62 137.867 1135.11 137.56C1134.62 137.24 1134.06 137.08 1133.43 137.08C1132.82 137.08 1132.26 137.24 1131.75 137.56C1131.26 137.867 1130.86 138.293 1130.55 138.84C1130.26 139.373 1130.11 140.007 1130.11 140.74C1130.11 141.447 1130.26 142.073 1130.55 142.62C1130.86 143.167 1131.26 143.593 1131.75 143.9C1132.26 144.207 1132.82 144.36 1133.43 144.36C1134.06 144.36 1134.62 144.207 1135.11 143.9C1135.62 143.593 1136.02 143.167 1136.31 142.62C1136.6 142.073 1136.75 141.447 1136.75 140.74Z" fill="black"/>
</svg>
