<svg width="100" height="100" viewBox="0 0 100 100" fill="none" xmlns="http://www.w3.org/2000/svg">
<circle cx="50" cy="50" r="50" fill="#AE0168"/>
<path d="M86.6673 49.9667L78.534 40.6667L79.6673 28.3667L67.634 25.6333L61.334 15L50.0006 19.8667L38.6673 15L32.3673 25.6333L20.334 28.3333L21.4673 40.6667L13.334 49.9667L21.4673 59.2667L20.334 71.6L32.3673 74.3333L38.6673 85L50.0006 80.1L61.334 84.9667L67.634 74.3333L79.6673 71.6L78.534 59.3L86.6673 49.9667ZM73.5006 54.9L71.634 57.0667L71.9006 59.9L72.5006 66.4L66.1673 67.8333L63.3673 68.4667L61.9006 70.9333L58.6006 76.5333L52.6673 73.9667L50.0006 72.8333L47.3673 73.9667L41.434 76.5333L38.134 70.9667L36.6673 68.5L33.8673 67.8667L27.534 66.4333L28.134 59.9L28.4006 57.0667L26.534 54.9L22.234 50L26.534 45.0667L28.4006 42.9L28.1006 40.0333L27.5006 33.5667L33.834 32.1333L36.634 31.5L38.1006 29.0333L41.4006 23.4333L47.334 26L50.0006 27.1333L52.634 26L58.5673 23.4333L61.8673 29.0333L63.334 31.5L66.134 32.1333L72.4673 33.5667L71.8673 40.0667L71.6006 42.9L73.4673 45.0667L77.7673 49.9667L73.5006 54.9Z" fill="white"/>
<path d="M43.6335 55.8334L35.9001 48.0667L30.9668 53.0334L43.6335 65.7334L68.1001 41.2001L63.1668 36.2334L43.6335 55.8334Z" fill="white"/>
</svg>
