<svg width="100" height="100" viewBox="0 0 100 100" fill="none" xmlns="http://www.w3.org/2000/svg">
<circle cx="50" cy="50" r="50" fill="#AE0168"/>
<path d="M49.966 16.667C31.566 16.667 16.666 31.6003 16.666 50.0003C16.666 68.4003 31.566 83.3337 49.966 83.3337C68.3994 83.3337 83.3327 68.4003 83.3327 50.0003C83.3327 31.6003 68.3994 16.667 49.966 16.667ZM73.066 36.667H63.2327C62.166 32.5003 60.6327 28.5003 58.6327 24.8003C64.766 26.9003 69.866 31.167 73.066 36.667ZM49.9994 23.467C52.766 27.467 54.9327 31.9003 56.366 36.667H43.6327C45.066 31.9003 47.2327 27.467 49.9994 23.467ZM24.1994 56.667C23.666 54.5337 23.3327 52.3003 23.3327 50.0003C23.3327 47.7003 23.666 45.467 24.1994 43.3337H35.466C35.1993 45.5337 34.9993 47.7337 34.9993 50.0003C34.9993 52.267 35.1993 54.467 35.466 56.667H24.1994ZM26.9327 63.3337H36.766C37.8327 67.5003 39.366 71.5003 41.366 75.2003C35.2327 73.1003 30.1327 68.867 26.9327 63.3337V63.3337ZM36.766 36.667H26.9327C30.1327 31.1337 35.2327 26.9003 41.366 24.8003C39.366 28.5003 37.8327 32.5003 36.766 36.667V36.667ZM49.9994 76.5337C47.2327 72.5337 45.066 68.1003 43.6327 63.3337H56.366C54.9327 68.1003 52.766 72.5337 49.9994 76.5337ZM57.7994 56.667H42.1993C41.8993 54.467 41.666 52.267 41.666 50.0003C41.666 47.7337 41.8993 45.5003 42.1993 43.3337H57.7994C58.0994 45.5003 58.3327 47.7337 58.3327 50.0003C58.3327 52.267 58.0994 54.467 57.7994 56.667ZM58.6327 75.2003C60.6327 71.5003 62.166 67.5003 63.2327 63.3337H73.066C69.866 68.8337 64.766 73.1003 58.6327 75.2003V75.2003ZM64.5327 56.667C64.7994 54.467 64.9994 52.267 64.9994 50.0003C64.9994 47.7337 64.7994 45.5337 64.5327 43.3337H75.7994C76.3327 45.467 76.666 47.7003 76.666 50.0003C76.666 52.3003 76.3327 54.5337 75.7994 56.667H64.5327Z" fill="white"/>
</svg>
