<svg width="100" height="100" viewBox="0 0 100 100" fill="none" xmlns="http://www.w3.org/2000/svg">
<circle cx="50" cy="50" r="50" fill="#AE0168"/>
<path d="M49.966 16.667C31.566 16.667 16.666 31.6003 16.666 50.0003C16.666 68.4003 31.566 83.3337 49.966 83.3337C68.3994 83.3337 83.3327 68.4003 83.3327 50.0003C83.3327 31.6003 68.3994 16.667 49.966 16.667ZM49.9994 76.667C35.266 76.667 23.3327 64.7337 23.3327 50.0003C23.3327 35.267 35.266 23.3337 49.9994 23.3337C64.7327 23.3337 76.666 35.267 76.666 50.0003C76.666 64.7337 64.7327 76.667 49.9994 76.667ZM51.666 33.3337H46.666V53.3337L64.166 63.8337L66.666 59.7337L51.666 50.8337V33.3337Z" fill="white"/>
</svg>
