<svg width="100" height="100" viewBox="0 0 100 100" fill="none" xmlns="http://www.w3.org/2000/svg">
<circle cx="50" cy="50" r="50" fill="#AE0168"/>
<path fill-rule="evenodd" clip-rule="evenodd" d="M48.7045 21.0064C49.5162 20.7755 50.3722 20.7752 51.1838 21.0055C52.9089 21.4951 54.6499 21.9492 56.3967 22.4048C64.5995 24.5441 72.9302 26.7169 80.3419 32.7536L83.755 35.5336C85.1395 36.6612 85.832 38.3303 85.8327 39.9997V63.333C85.8327 64.7137 84.7134 65.833 83.3327 65.833C81.952 65.833 80.8327 64.7137 80.8327 63.333V46.8553L80.2896 47.2984C77.7214 49.3942 75.0419 51.0215 72.2955 52.3425C72.4266 52.6463 72.4994 52.9811 72.4994 53.333V67.6461C72.4994 71.4237 70.1819 74.8145 66.6623 76.1867L53.329 81.3848C51.1877 82.2196 48.811 82.2196 46.6697 81.3848L33.3364 76.1867C29.8168 74.8145 27.4993 71.4237 27.4993 67.6461V53.333C27.4993 52.9722 27.5758 52.6293 27.7133 52.3196C24.9455 50.9908 22.2451 49.3539 19.6568 47.2457L16.2437 44.4658C13.4748 42.2106 13.4734 37.7894 16.2398 35.5319L19.7091 32.7009C27.0672 26.6965 35.3391 24.5367 43.4811 22.4108C45.2317 21.9538 46.9763 21.4983 48.7045 21.0064ZM80.8327 40.0017C80.8326 39.7014 80.7112 39.5031 80.5974 39.4104L77.1843 36.6304C69.9994 31.6663 63.5972 29.477 55.4657 27.3402C53.6777 26.8704 51.839 26.3872 49.9459 25.8516C48.0443 26.3911 46.199 26.8765 44.405 27.3485C36.3387 29.4706 29.3101 31.3197 22.8703 36.5748L19.401 39.4058C19.2871 39.4988 19.1659 39.6974 19.166 39.9977C19.1661 40.298 19.2875 40.4963 19.4013 40.589L22.8144 43.369C29.3088 48.6586 36.4015 50.5224 44.533 52.6591C46.3211 53.129 48.1596 53.6121 50.0528 54.1477C51.9542 53.6083 53.7994 53.1229 55.5932 52.6509C63.6596 50.5288 70.6886 48.6796 77.1284 43.4246L80.5977 40.5936C80.7115 40.5006 80.8326 40.3015 80.8327 40.0017ZM56.5176 57.5885C60.1836 56.6313 63.8759 55.6672 67.4994 54.3485V67.6461C67.4994 69.3632 66.446 70.9045 64.8462 71.5282L51.5128 76.7264C50.5395 77.1058 49.4592 77.1058 48.4859 76.7264L35.1525 71.5282C33.5527 70.9045 32.4993 69.3632 32.4993 67.6461V54.3202C36.1619 55.6541 39.895 56.6278 43.6019 57.5946C45.3488 58.0502 47.0898 58.5042 48.8149 58.9938C49.6265 59.2241 50.4825 59.2239 51.2942 58.9929C53.0223 58.5011 54.7671 58.0455 56.5176 57.5885Z" fill="white"/>
</svg>
