<svg width="1152" height="151" viewBox="0 0 1152 151" fill="none" xmlns="http://www.w3.org/2000/svg">
<path d="M22 40H1147" stroke="black" stroke-width="2"/>
<circle cx="59" cy="40" r="40" fill="#AE0168"/>
<path d="M59.4997 19.2229L79.8934 54.4583H39.1059L59.4997 19.2229ZM34.4205 51.75C32.3351 55.3521 34.9351 59.875 39.1059 59.875H79.8934C84.0643 59.875 86.6643 55.3521 84.5788 51.75L64.1851 16.5146C62.0997 12.9125 56.8997 12.9125 54.8143 16.5146L34.4205 51.75ZM56.7913 32.7916V38.2083C56.7913 39.6979 58.0101 40.9166 59.4997 40.9166C60.9893 40.9166 62.208 39.6979 62.208 38.2083V32.7916C62.208 31.3021 60.9893 30.0833 59.4997 30.0833C58.0101 30.0833 56.7913 31.3021 56.7913 32.7916ZM56.7913 46.3333H62.208V51.75H56.7913V46.3333Z" fill="white"/>
<path d="M51.3723 119.98C51.359 120.273 51.2457 120.52 51.0323 120.72C50.8323 120.907 50.5923 121 50.3123 121C50.0057 121 49.7523 120.907 49.5523 120.72C49.3657 120.52 49.2723 120.273 49.2723 119.98V108.02C49.2723 107.727 49.3723 107.487 49.5723 107.3C49.7723 107.1 50.0323 107 50.3523 107C50.619 107 50.8523 107.1 51.0523 107.3C51.2657 107.487 51.3723 107.727 51.3723 108.02V119.98ZM59.8044 110.24C60.751 110.24 61.4844 110.44 62.0044 110.84C62.5244 111.227 62.8844 111.753 63.0844 112.42C63.2977 113.073 63.4044 113.807 63.4044 114.62V119.98C63.4044 120.273 63.3044 120.52 63.1044 120.72C62.9177 120.907 62.6844 121 62.4044 121C62.111 121 61.871 120.907 61.6844 120.72C61.4977 120.52 61.4044 120.273 61.4044 119.98V114.64C61.4044 114.16 61.3377 113.733 61.2044 113.36C61.071 112.973 60.8377 112.667 60.5044 112.44C60.1844 112.2 59.731 112.08 59.1444 112.08C58.5977 112.08 58.1177 112.2 57.7044 112.44C57.291 112.667 56.9644 112.973 56.7244 113.36C56.4977 113.733 56.3844 114.16 56.3844 114.64V119.98C56.3844 120.273 56.2844 120.52 56.0844 120.72C55.8977 120.907 55.6644 121 55.3844 121C55.091 121 54.851 120.907 54.6644 120.72C54.4777 120.52 54.3844 120.273 54.3844 119.98V111.5C54.3844 111.207 54.4777 110.967 54.6644 110.78C54.851 110.58 55.091 110.48 55.3844 110.48C55.6644 110.48 55.8977 110.58 56.0844 110.78C56.2844 110.967 56.3844 111.207 56.3844 111.5V112.62L56.0244 112.82C56.1177 112.527 56.2777 112.233 56.5044 111.94C56.7444 111.633 57.031 111.353 57.3644 111.1C57.6977 110.833 58.071 110.627 58.4844 110.48C58.8977 110.32 59.3377 110.24 59.8044 110.24ZM7.02813 135.24C7.96146 135.24 8.78813 135.473 9.50813 135.94C10.2415 136.407 10.8215 137.053 11.2481 137.88C11.6748 138.693 11.8881 139.633 11.8881 140.7C11.8881 141.767 11.6748 142.713 11.2481 143.54C10.8215 144.367 10.2481 145.02 9.52813 145.5C8.80813 145.967 7.99479 146.2 7.08813 146.2C6.58146 146.2 6.10146 146.12 5.64813 145.96C5.19479 145.787 4.79479 145.573 4.44813 145.32C4.10146 145.053 3.81479 144.773 3.58813 144.48C3.37479 144.187 3.24146 143.913 3.18813 143.66L3.72813 143.4V145.14C3.72813 145.42 3.62813 145.66 3.42813 145.86C3.24146 146.047 3.00813 146.14 2.72813 146.14C2.43479 146.14 2.19479 146.047 2.00813 145.86C1.82146 145.673 1.72813 145.433 1.72813 145.14V132.22C1.72813 131.927 1.82146 131.687 2.00813 131.5C2.19479 131.3 2.43479 131.2 2.72813 131.2C3.00813 131.2 3.24146 131.3 3.42813 131.5C3.62813 131.687 3.72813 131.927 3.72813 132.22V137.84L3.40813 137.66C3.44813 137.407 3.57479 137.147 3.78813 136.88C4.00146 136.6 4.26813 136.333 4.58813 136.08C4.92146 135.827 5.29479 135.627 5.70813 135.48C6.13479 135.32 6.57479 135.24 7.02813 135.24ZM6.80813 137.08C6.16813 137.08 5.60813 137.24 5.12813 137.56C4.66146 137.88 4.29479 138.313 4.02813 138.86C3.76146 139.393 3.62813 140.007 3.62813 140.7C3.62813 141.393 3.76146 142.02 4.02813 142.58C4.29479 143.127 4.66146 143.56 5.12813 143.88C5.60813 144.2 6.16813 144.36 6.80813 144.36C7.43479 144.36 7.98146 144.2 8.44813 143.88C8.91479 143.56 9.28146 143.12 9.54813 142.56C9.82813 142 9.96813 141.38 9.96813 140.7C9.96813 140.007 9.82813 139.393 9.54813 138.86C9.28146 138.313 8.91479 137.88 8.44813 137.56C7.98146 137.24 7.43479 137.08 6.80813 137.08ZM18.8523 146.2C17.759 146.2 16.799 145.973 15.9723 145.52C15.159 145.053 14.5257 144.42 14.0723 143.62C13.6323 142.807 13.4123 141.88 13.4123 140.84C13.4123 139.667 13.6457 138.667 14.1123 137.84C14.5923 137 15.2123 136.36 15.9723 135.92C16.7457 135.467 17.559 135.24 18.4123 135.24C19.0523 135.24 19.6657 135.373 20.2523 135.64C20.8523 135.893 21.379 136.253 21.8323 136.72C22.2857 137.173 22.6457 137.713 22.9123 138.34C23.179 138.953 23.319 139.627 23.3323 140.36C23.319 140.627 23.2123 140.847 23.0123 141.02C22.8123 141.193 22.579 141.28 22.3123 141.28H14.5523L14.0723 139.58H21.5923L21.2123 139.94V139.44C21.1723 138.973 21.0123 138.567 20.7323 138.22C20.4523 137.86 20.1057 137.587 19.6923 137.4C19.2923 137.2 18.8657 137.1 18.4123 137.1C18.0123 137.1 17.6257 137.167 17.2523 137.3C16.879 137.42 16.5523 137.62 16.2723 137.9C15.9923 138.18 15.7657 138.553 15.5923 139.02C15.419 139.473 15.3323 140.04 15.3323 140.72C15.3323 141.453 15.4857 142.093 15.7923 142.64C16.099 143.187 16.5123 143.613 17.0323 143.92C17.5523 144.213 18.1323 144.36 18.7723 144.36C19.2523 144.36 19.6523 144.313 19.9723 144.22C20.2923 144.113 20.559 143.987 20.7723 143.84C20.9857 143.693 21.1723 143.553 21.3323 143.42C21.5457 143.3 21.7457 143.24 21.9323 143.24C22.1723 143.24 22.3723 143.327 22.5323 143.5C22.6923 143.66 22.7723 143.853 22.7723 144.08C22.7723 144.373 22.6257 144.64 22.3323 144.88C21.9723 145.227 21.4723 145.533 20.8323 145.8C20.2057 146.067 19.5457 146.2 18.8523 146.2ZM30.7977 135.3C31.7177 135.3 32.431 135.5 32.9377 135.9C33.4443 136.287 33.7977 136.813 33.9977 137.48C34.211 138.147 34.3177 138.88 34.3177 139.68V144.98C34.3177 145.273 34.2177 145.52 34.0177 145.72C33.831 145.907 33.5977 146 33.3177 146C33.0243 146 32.7843 145.907 32.5977 145.72C32.411 145.52 32.3177 145.273 32.3177 144.98V139.68C32.3177 139.213 32.251 138.787 32.1177 138.4C31.9977 138.013 31.7777 137.707 31.4577 137.48C31.151 137.253 30.7177 137.14 30.1577 137.14C29.6377 137.14 29.171 137.253 28.7577 137.48C28.3577 137.707 28.0443 138.013 27.8177 138.4C27.6043 138.787 27.4977 139.213 27.4977 139.68V144.98C27.4977 145.273 27.3977 145.52 27.1977 145.72C27.011 145.907 26.7777 146 26.4977 146C26.2043 146 25.9643 145.907 25.7777 145.72C25.591 145.52 25.4977 145.273 25.4977 144.98V132.22C25.4977 131.927 25.591 131.687 25.7777 131.5C25.9643 131.3 26.2043 131.2 26.4977 131.2C26.7777 131.2 27.011 131.3 27.1977 131.5C27.3977 131.687 27.4977 131.927 27.4977 132.22V137.68L27.1377 137.88C27.231 137.587 27.3843 137.287 27.5977 136.98C27.8243 136.673 28.0977 136.393 28.4177 136.14C28.751 135.887 29.1177 135.687 29.5177 135.54C29.9177 135.38 30.3443 135.3 30.7977 135.3ZM45.6392 135.32C45.9192 135.32 46.1526 135.42 46.3392 135.62C46.5392 135.807 46.6392 136.047 46.6392 136.34V144.98C46.6392 145.273 46.5392 145.52 46.3392 145.72C46.1526 145.907 45.9192 146 45.6392 146C45.3459 146 45.1059 145.907 44.9192 145.72C44.7326 145.52 44.6392 145.273 44.6392 144.98V143.54L45.0392 143.6C45.0392 143.84 44.9392 144.107 44.7392 144.4C44.5526 144.693 44.2926 144.98 43.9592 145.26C43.6259 145.527 43.2326 145.753 42.7792 145.94C42.3259 146.113 41.8392 146.2 41.3192 146.2C40.3992 146.2 39.5726 145.967 38.8392 145.5C38.1059 145.02 37.5259 144.367 37.0992 143.54C36.6726 142.713 36.4592 141.773 36.4592 140.72C36.4592 139.64 36.6726 138.693 37.0992 137.88C37.5259 137.053 38.0992 136.407 38.8192 135.94C39.5526 135.473 40.3659 135.24 41.2592 135.24C41.8326 135.24 42.3592 135.333 42.8392 135.52C43.3326 135.707 43.7592 135.947 44.1192 136.24C44.4792 136.533 44.7592 136.847 44.9592 137.18C45.1592 137.5 45.2592 137.807 45.2592 138.1L44.6392 138.16V136.34C44.6392 136.06 44.7326 135.82 44.9192 135.62C45.1059 135.42 45.3459 135.32 45.6392 135.32ZM41.5592 144.36C42.1859 144.36 42.7326 144.2 43.1992 143.88C43.6792 143.56 44.0526 143.127 44.3192 142.58C44.5859 142.02 44.7192 141.4 44.7192 140.72C44.7192 140.027 44.5859 139.407 44.3192 138.86C44.0526 138.313 43.6792 137.88 43.1992 137.56C42.7326 137.24 42.1859 137.08 41.5592 137.08C40.9459 137.08 40.3992 137.24 39.9192 137.56C39.4392 137.88 39.0659 138.313 38.7992 138.86C38.5326 139.407 38.3992 140.027 38.3992 140.72C38.3992 141.4 38.5326 142.02 38.7992 142.58C39.0659 143.127 39.4326 143.56 39.8992 143.88C40.3792 144.2 40.9326 144.36 41.5592 144.36ZM54.8434 135.24C55.7901 135.24 56.5234 135.44 57.0434 135.84C57.5634 136.227 57.9234 136.753 58.1234 137.42C58.3368 138.073 58.4434 138.807 58.4434 139.62V144.98C58.4434 145.273 58.3434 145.52 58.1434 145.72C57.9568 145.907 57.7234 146 57.4434 146C57.1501 146 56.9101 145.907 56.7234 145.72C56.5368 145.52 56.4434 145.273 56.4434 144.98V139.64C56.4434 139.16 56.3768 138.733 56.2434 138.36C56.1101 137.973 55.8768 137.667 55.5434 137.44C55.2234 137.2 54.7701 137.08 54.1834 137.08C53.6368 137.08 53.1568 137.2 52.7434 137.44C52.3301 137.667 52.0034 137.973 51.7634 138.36C51.5368 138.733 51.4234 139.16 51.4234 139.64V144.98C51.4234 145.273 51.3234 145.52 51.1234 145.72C50.9368 145.907 50.7034 146 50.4234 146C50.1301 146 49.8901 145.907 49.7034 145.72C49.5168 145.52 49.4234 145.273 49.4234 144.98V136.5C49.4234 136.207 49.5168 135.967 49.7034 135.78C49.8901 135.58 50.1301 135.48 50.4234 135.48C50.7034 135.48 50.9368 135.58 51.1234 135.78C51.3234 135.967 51.4234 136.207 51.4234 136.5V137.62L51.0634 137.82C51.1568 137.527 51.3168 137.233 51.5434 136.94C51.7834 136.633 52.0701 136.353 52.4034 136.1C52.7368 135.833 53.1101 135.627 53.5234 135.48C53.9368 135.32 54.3768 135.24 54.8434 135.24ZM69.7603 131.2C70.0403 131.2 70.2736 131.293 70.4603 131.48C70.6603 131.667 70.7603 131.913 70.7603 132.22V144.98C70.7603 145.273 70.6603 145.52 70.4603 145.72C70.2736 145.907 70.0403 146 69.7603 146C69.467 146 69.227 145.907 69.0403 145.72C68.8536 145.52 68.7603 145.273 68.7603 144.98V143.54L69.1603 143.56C69.1603 143.8 69.0603 144.073 68.8603 144.38C68.6736 144.673 68.4136 144.96 68.0803 145.24C67.747 145.52 67.3536 145.753 66.9003 145.94C66.447 146.113 65.9603 146.2 65.4403 146.2C64.5336 146.2 63.707 145.967 62.9603 145.5C62.227 145.02 61.647 144.373 61.2203 143.56C60.7936 142.733 60.5803 141.787 60.5803 140.72C60.5803 139.653 60.7936 138.713 61.2203 137.9C61.647 137.073 62.2203 136.427 62.9403 135.96C63.6736 135.48 64.487 135.24 65.3803 135.24C65.9403 135.24 66.4603 135.333 66.9403 135.52C67.4336 135.707 67.8603 135.947 68.2203 136.24C68.5803 136.533 68.8603 136.847 69.0603 137.18C69.2736 137.5 69.3803 137.807 69.3803 138.1L68.7603 138.16V132.22C68.7603 131.927 68.8536 131.687 69.0403 131.5C69.227 131.3 69.467 131.2 69.7603 131.2ZM65.6803 144.36C66.307 144.36 66.8536 144.2 67.3203 143.88C67.8003 143.56 68.1736 143.127 68.4403 142.58C68.707 142.033 68.8403 141.413 68.8403 140.72C68.8403 140.027 68.707 139.407 68.4403 138.86C68.1736 138.313 67.8003 137.88 67.3203 137.56C66.8536 137.24 66.307 137.08 65.6803 137.08C65.067 137.08 64.5203 137.24 64.0403 137.56C63.5603 137.88 63.187 138.313 62.9203 138.86C62.6536 139.407 62.5203 140.027 62.5203 140.72C62.5203 141.413 62.6536 142.033 62.9203 142.58C63.187 143.127 63.5603 143.56 64.0403 143.88C64.5203 144.2 65.067 144.36 65.6803 144.36ZM78.3445 146.2C77.2512 146.2 76.2912 145.973 75.4645 145.52C74.6512 145.053 74.0179 144.42 73.5645 143.62C73.1245 142.807 72.9045 141.88 72.9045 140.84C72.9045 139.667 73.1379 138.667 73.6045 137.84C74.0845 137 74.7045 136.36 75.4645 135.92C76.2379 135.467 77.0512 135.24 77.9045 135.24C78.5445 135.24 79.1579 135.373 79.7445 135.64C80.3445 135.893 80.8712 136.253 81.3245 136.72C81.7779 137.173 82.1379 137.713 82.4045 138.34C82.6712 138.953 82.8112 139.627 82.8245 140.36C82.8112 140.627 82.7045 140.847 82.5045 141.02C82.3045 141.193 82.0712 141.28 81.8045 141.28H74.0445L73.5645 139.58H81.0845L80.7045 139.94V139.44C80.6645 138.973 80.5045 138.567 80.2245 138.22C79.9445 137.86 79.5979 137.587 79.1845 137.4C78.7845 137.2 78.3579 137.1 77.9045 137.1C77.5045 137.1 77.1179 137.167 76.7445 137.3C76.3712 137.42 76.0445 137.62 75.7645 137.9C75.4845 138.18 75.2579 138.553 75.0845 139.02C74.9112 139.473 74.8245 140.04 74.8245 140.72C74.8245 141.453 74.9779 142.093 75.2845 142.64C75.5912 143.187 76.0045 143.613 76.5245 143.92C77.0445 144.213 77.6245 144.36 78.2645 144.36C78.7445 144.36 79.1445 144.313 79.4645 144.22C79.7845 144.113 80.0512 143.987 80.2645 143.84C80.4779 143.693 80.6645 143.553 80.8245 143.42C81.0379 143.3 81.2379 143.24 81.4245 143.24C81.6645 143.24 81.8645 143.327 82.0245 143.5C82.1845 143.66 82.2645 143.853 82.2645 144.08C82.2645 144.373 82.1179 144.64 81.8245 144.88C81.4645 145.227 80.9645 145.533 80.3245 145.8C79.6979 146.067 79.0379 146.2 78.3445 146.2ZM87.1498 144.98C87.1498 145.273 87.0498 145.52 86.8498 145.72C86.6632 145.907 86.4298 146 86.1498 146C85.8698 146 85.6298 145.907 85.4298 145.72C85.2432 145.52 85.1498 145.273 85.1498 144.98V132.22C85.1498 131.927 85.2498 131.687 85.4498 131.5C85.6498 131.3 85.8898 131.2 86.1698 131.2C86.4632 131.2 86.6965 131.3 86.8698 131.5C87.0565 131.687 87.1498 131.927 87.1498 132.22V144.98ZM92.0066 144.98C92.0066 145.273 91.9132 145.52 91.7266 145.72C91.5399 145.907 91.2999 146 91.0066 146C90.7266 146 90.4866 145.907 90.2866 145.72C90.0999 145.52 90.0066 145.273 90.0066 144.98V136.42C90.0066 136.127 90.0999 135.887 90.2866 135.7C90.4866 135.5 90.7266 135.4 91.0066 135.4C91.2999 135.4 91.5399 135.5 91.7266 135.7C91.9132 135.887 92.0066 136.127 92.0066 136.42V144.98ZM90.9866 134.08C90.5999 134.08 90.3199 134.013 90.1466 133.88C89.9732 133.733 89.8866 133.493 89.8866 133.16V132.84C89.8866 132.507 89.9799 132.273 90.1666 132.14C90.3532 132.007 90.6332 131.94 91.0066 131.94C91.4066 131.94 91.6932 132.013 91.8666 132.16C92.0399 132.293 92.1266 132.52 92.1266 132.84V133.16C92.1266 133.507 92.0332 133.747 91.8466 133.88C91.6732 134.013 91.3866 134.08 90.9866 134.08ZM100.117 135.24C101.064 135.24 101.797 135.44 102.317 135.84C102.837 136.227 103.197 136.753 103.397 137.42C103.61 138.073 103.717 138.807 103.717 139.62V144.98C103.717 145.273 103.617 145.52 103.417 145.72C103.23 145.907 102.997 146 102.717 146C102.424 146 102.184 145.907 101.997 145.72C101.81 145.52 101.717 145.273 101.717 144.98V139.64C101.717 139.16 101.65 138.733 101.517 138.36C101.384 137.973 101.15 137.667 100.817 137.44C100.497 137.2 100.044 137.08 99.4569 137.08C98.9102 137.08 98.4302 137.2 98.0169 137.44C97.6035 137.667 97.2769 137.973 97.0369 138.36C96.8102 138.733 96.6969 139.16 96.6969 139.64V144.98C96.6969 145.273 96.5969 145.52 96.3969 145.72C96.2102 145.907 95.9769 146 95.6969 146C95.4035 146 95.1635 145.907 94.9769 145.72C94.7902 145.52 94.6969 145.273 94.6969 144.98V136.5C94.6969 136.207 94.7902 135.967 94.9769 135.78C95.1635 135.58 95.4035 135.48 95.6969 135.48C95.9769 135.48 96.2102 135.58 96.3969 135.78C96.5969 135.967 96.6969 136.207 96.6969 136.5V137.62L96.3369 137.82C96.4302 137.527 96.5902 137.233 96.8169 136.94C97.0569 136.633 97.3435 136.353 97.6769 136.1C98.0102 135.833 98.3835 135.627 98.7969 135.48C99.2102 135.32 99.6502 135.24 100.117 135.24ZM110.774 135.24C111.347 135.24 111.874 135.333 112.354 135.52C112.834 135.707 113.247 135.947 113.594 136.24C113.954 136.52 114.234 136.813 114.434 137.12C114.634 137.427 114.734 137.693 114.734 137.92L114.274 137.94V136.34C114.274 136.06 114.367 135.82 114.554 135.62C114.74 135.42 114.98 135.32 115.274 135.32C115.567 135.32 115.807 135.42 115.994 135.62C116.18 135.807 116.274 136.047 116.274 136.34V145.16C116.274 146.293 116.034 147.213 115.554 147.92C115.074 148.64 114.434 149.167 113.634 149.5C112.847 149.833 111.98 150 111.034 150C110.7 150 110.307 149.953 109.854 149.86C109.4 149.78 108.98 149.68 108.594 149.56C108.22 149.44 107.96 149.32 107.814 149.2C107.507 149.04 107.3 148.853 107.194 148.64C107.1 148.427 107.107 148.213 107.214 148C107.334 147.707 107.507 147.527 107.734 147.46C107.96 147.393 108.22 147.413 108.514 147.52C108.647 147.56 108.854 147.633 109.134 147.74C109.414 147.847 109.727 147.94 110.074 148.02C110.42 148.113 110.747 148.16 111.054 148.16C112.12 148.16 112.92 147.913 113.454 147.42C114 146.927 114.274 146.253 114.274 145.4V143.6L114.514 143.74C114.474 144.02 114.347 144.307 114.134 144.6C113.92 144.88 113.647 145.14 113.314 145.38C112.98 145.62 112.6 145.82 112.174 145.98C111.747 146.127 111.3 146.2 110.834 146.2C109.9 146.2 109.054 145.967 108.294 145.5C107.547 145.02 106.954 144.373 106.514 143.56C106.074 142.733 105.854 141.787 105.854 140.72C105.854 139.653 106.074 138.713 106.514 137.9C106.954 137.073 107.54 136.427 108.274 135.96C109.02 135.48 109.854 135.24 110.774 135.24ZM111.074 137.08C110.434 137.08 109.86 137.24 109.354 137.56C108.86 137.88 108.474 138.313 108.194 138.86C107.927 139.407 107.794 140.027 107.794 140.72C107.794 141.413 107.927 142.033 108.194 142.58C108.474 143.127 108.86 143.56 109.354 143.88C109.86 144.2 110.434 144.36 111.074 144.36C111.727 144.36 112.3 144.207 112.794 143.9C113.287 143.58 113.674 143.147 113.954 142.6C114.234 142.04 114.374 141.413 114.374 140.72C114.374 140.027 114.234 139.407 113.954 138.86C113.674 138.3 113.287 137.867 112.794 137.56C112.3 137.24 111.727 137.08 111.074 137.08Z" fill="black"/>
<circle cx="586" cy="40" r="40" fill="#AE0168"/>
<path d="M601.75 31.375L597.931 27.5292L580.083 45.3771L573.069 38.3896L569.25 42.2084L580.083 53.0417L601.75 31.375ZM604.458 15.125H593.137C592 11.9834 589.021 9.70837 585.5 9.70837C581.979 9.70837 579 11.9834 577.863 15.125H566.542C566.162 15.125 565.81 15.1521 565.458 15.2334C564.402 15.45 563.454 15.9917 562.723 16.723C562.235 17.2105 561.829 17.8063 561.558 18.4563C561.288 19.0792 561.125 19.7834 561.125 20.5417V58.4584C561.125 59.1896 561.288 59.9209 561.558 60.5709C561.829 61.2209 562.235 61.7896 562.723 62.3042C563.454 63.0355 564.402 63.5771 565.458 63.7938C565.81 63.848 566.162 63.875 566.542 63.875H604.458C607.437 63.875 609.875 61.4375 609.875 58.4584V20.5417C609.875 17.5625 607.437 15.125 604.458 15.125ZM585.5 14.448C586.61 14.448 587.531 15.3688 587.531 16.4792C587.531 17.5896 586.61 18.5105 585.5 18.5105C584.39 18.5105 583.469 17.5896 583.469 16.4792C583.469 15.3688 584.39 14.448 585.5 14.448ZM604.458 58.4584H566.542V20.5417H604.458V58.4584Z" fill="white"/>
<path d="M545.804 119.98C545.791 120.273 545.677 120.52 545.464 120.72C545.264 120.907 545.024 121 544.744 121C544.437 121 544.184 120.907 543.984 120.72C543.797 120.52 543.704 120.273 543.704 119.98V108.02C543.704 107.727 543.804 107.487 544.004 107.3C544.204 107.1 544.464 107 544.784 107C545.051 107 545.284 107.1 545.484 107.3C545.697 107.487 545.804 107.727 545.804 108.02V119.98ZM554.236 110.24C555.183 110.24 555.916 110.44 556.436 110.84C556.956 111.227 557.316 111.753 557.516 112.42C557.729 113.073 557.836 113.807 557.836 114.62V119.98C557.836 120.273 557.736 120.52 557.536 120.72C557.349 120.907 557.116 121 556.836 121C556.543 121 556.303 120.907 556.116 120.72C555.929 120.52 555.836 120.273 555.836 119.98V114.64C555.836 114.16 555.769 113.733 555.636 113.36C555.503 112.973 555.269 112.667 554.936 112.44C554.616 112.2 554.163 112.08 553.576 112.08C553.029 112.08 552.549 112.2 552.136 112.44C551.723 112.667 551.396 112.973 551.156 113.36C550.929 113.733 550.816 114.16 550.816 114.64V119.98C550.816 120.273 550.716 120.52 550.516 120.72C550.329 120.907 550.096 121 549.816 121C549.523 121 549.283 120.907 549.096 120.72C548.909 120.52 548.816 120.273 548.816 119.98V111.5C548.816 111.207 548.909 110.967 549.096 110.78C549.283 110.58 549.523 110.48 549.816 110.48C550.096 110.48 550.329 110.58 550.516 110.78C550.716 110.967 550.816 111.207 550.816 111.5V112.62L550.456 112.82C550.549 112.527 550.709 112.233 550.936 111.94C551.176 111.633 551.463 111.353 551.796 111.1C552.129 110.833 552.503 110.627 552.916 110.48C553.329 110.32 553.769 110.24 554.236 110.24ZM560.473 110.6H565.173C565.44 110.6 565.66 110.693 565.833 110.88C566.02 111.053 566.113 111.273 566.113 111.54C566.113 111.793 566.02 112.007 565.833 112.18C565.66 112.353 565.44 112.44 565.173 112.44H560.473C560.206 112.44 559.98 112.353 559.793 112.18C559.62 111.993 559.533 111.773 559.533 111.52C559.533 111.253 559.62 111.033 559.793 110.86C559.98 110.687 560.206 110.6 560.473 110.6ZM562.573 108C562.866 108 563.106 108.1 563.293 108.3C563.48 108.487 563.573 108.727 563.573 109.02V118.3C563.573 118.54 563.613 118.733 563.693 118.88C563.773 119.027 563.88 119.127 564.013 119.18C564.16 119.233 564.306 119.26 564.453 119.26C564.6 119.26 564.726 119.233 564.833 119.18C564.953 119.127 565.093 119.1 565.253 119.1C565.413 119.1 565.56 119.173 565.693 119.32C565.826 119.467 565.893 119.667 565.893 119.92C565.893 120.24 565.72 120.5 565.373 120.7C565.026 120.9 564.653 121 564.253 121C564.026 121 563.76 120.98 563.453 120.94C563.146 120.9 562.846 120.8 562.553 120.64C562.273 120.48 562.04 120.227 561.853 119.88C561.666 119.52 561.573 119.02 561.573 118.38V109.02C561.573 108.727 561.666 108.487 561.853 108.3C562.053 108.1 562.293 108 562.573 108ZM573.03 121.2C571.937 121.2 570.977 120.973 570.15 120.52C569.337 120.053 568.703 119.42 568.25 118.62C567.81 117.807 567.59 116.88 567.59 115.84C567.59 114.667 567.823 113.667 568.29 112.84C568.77 112 569.39 111.36 570.15 110.92C570.923 110.467 571.737 110.24 572.59 110.24C573.23 110.24 573.843 110.373 574.43 110.64C575.03 110.893 575.557 111.253 576.01 111.72C576.463 112.173 576.823 112.713 577.09 113.34C577.357 113.953 577.497 114.627 577.51 115.36C577.497 115.627 577.39 115.847 577.19 116.02C576.99 116.193 576.757 116.28 576.49 116.28H568.73L568.25 114.58H575.77L575.39 114.94V114.44C575.35 113.973 575.19 113.567 574.91 113.22C574.63 112.86 574.283 112.587 573.87 112.4C573.47 112.2 573.043 112.1 572.59 112.1C572.19 112.1 571.803 112.167 571.43 112.3C571.057 112.42 570.73 112.62 570.45 112.9C570.17 113.18 569.943 113.553 569.77 114.02C569.597 114.473 569.51 115.04 569.51 115.72C569.51 116.453 569.663 117.093 569.97 117.64C570.277 118.187 570.69 118.613 571.21 118.92C571.73 119.213 572.31 119.36 572.95 119.36C573.43 119.36 573.83 119.313 574.15 119.22C574.47 119.113 574.737 118.987 574.95 118.84C575.163 118.693 575.35 118.553 575.51 118.42C575.723 118.3 575.923 118.24 576.11 118.24C576.35 118.24 576.55 118.327 576.71 118.5C576.87 118.66 576.95 118.853 576.95 119.08C576.95 119.373 576.803 119.64 576.51 119.88C576.15 120.227 575.65 120.533 575.01 120.8C574.383 121.067 573.723 121.2 573.03 121.2ZM580.675 121C580.382 121 580.142 120.907 579.955 120.72C579.769 120.52 579.675 120.273 579.675 119.98V111.5C579.675 111.207 579.769 110.967 579.955 110.78C580.142 110.58 580.382 110.48 580.675 110.48C580.955 110.48 581.189 110.58 581.375 110.78C581.575 110.967 581.675 111.207 581.675 111.5V113.74L581.475 112.88C581.582 112.507 581.742 112.16 581.955 111.84C582.182 111.52 582.449 111.24 582.755 111C583.062 110.76 583.402 110.573 583.775 110.44C584.162 110.307 584.562 110.24 584.975 110.24C585.322 110.24 585.622 110.333 585.875 110.52C586.129 110.707 586.255 110.94 586.255 111.22C586.255 111.58 586.162 111.847 585.975 112.02C585.789 112.18 585.582 112.26 585.355 112.26C585.155 112.26 584.962 112.22 584.775 112.14C584.589 112.047 584.369 112 584.115 112C583.835 112 583.549 112.073 583.255 112.22C582.962 112.367 582.695 112.587 582.455 112.88C582.215 113.16 582.022 113.493 581.875 113.88C581.742 114.267 581.675 114.7 581.675 115.18V119.98C581.675 120.273 581.575 120.52 581.375 120.72C581.189 120.907 580.955 121 580.675 121ZM589.271 110.38C589.471 110.38 589.658 110.433 589.831 110.54C590.018 110.647 590.151 110.807 590.231 111.02L593.371 118.28L592.991 118.46L596.171 111.04C596.358 110.6 596.658 110.387 597.071 110.4C597.338 110.4 597.558 110.487 597.731 110.66C597.918 110.82 598.011 111.033 598.011 111.3C598.011 111.38 597.998 111.467 597.971 111.56C597.944 111.64 597.911 111.72 597.871 111.8L594.071 120.36C593.898 120.76 593.611 120.973 593.211 121C593.011 121.027 592.811 120.987 592.611 120.88C592.424 120.76 592.278 120.587 592.171 120.36L588.391 111.8C588.364 111.747 588.338 111.68 588.311 111.6C588.284 111.507 588.271 111.4 588.271 111.28C588.271 111.08 588.358 110.88 588.531 110.68C588.718 110.48 588.964 110.38 589.271 110.38ZM601.926 119.98C601.926 120.273 601.833 120.52 601.646 120.72C601.46 120.907 601.22 121 600.926 121C600.646 121 600.406 120.907 600.206 120.72C600.02 120.52 599.926 120.273 599.926 119.98V111.42C599.926 111.127 600.02 110.887 600.206 110.7C600.406 110.5 600.646 110.4 600.926 110.4C601.22 110.4 601.46 110.5 601.646 110.7C601.833 110.887 601.926 111.127 601.926 111.42V119.98ZM600.906 109.08C600.52 109.08 600.24 109.013 600.066 108.88C599.893 108.733 599.806 108.493 599.806 108.16V107.84C599.806 107.507 599.9 107.273 600.086 107.14C600.273 107.007 600.553 106.94 600.926 106.94C601.326 106.94 601.613 107.013 601.786 107.16C601.96 107.293 602.046 107.52 602.046 107.84V108.16C602.046 108.507 601.953 108.747 601.766 108.88C601.593 109.013 601.306 109.08 600.906 109.08ZM609.417 121.2C608.323 121.2 607.363 120.973 606.537 120.52C605.723 120.053 605.09 119.42 604.637 118.62C604.197 117.807 603.977 116.88 603.977 115.84C603.977 114.667 604.21 113.667 604.677 112.84C605.157 112 605.777 111.36 606.537 110.92C607.31 110.467 608.123 110.24 608.977 110.24C609.617 110.24 610.23 110.373 610.817 110.64C611.417 110.893 611.943 111.253 612.397 111.72C612.85 112.173 613.21 112.713 613.477 113.34C613.743 113.953 613.883 114.627 613.897 115.36C613.883 115.627 613.777 115.847 613.577 116.02C613.377 116.193 613.143 116.28 612.877 116.28H605.117L604.637 114.58H612.157L611.777 114.94V114.44C611.737 113.973 611.577 113.567 611.297 113.22C611.017 112.86 610.67 112.587 610.257 112.4C609.857 112.2 609.43 112.1 608.977 112.1C608.577 112.1 608.19 112.167 607.817 112.3C607.443 112.42 607.117 112.62 606.837 112.9C606.557 113.18 606.33 113.553 606.157 114.02C605.983 114.473 605.897 115.04 605.897 115.72C605.897 116.453 606.05 117.093 606.357 117.64C606.663 118.187 607.077 118.613 607.597 118.92C608.117 119.213 608.697 119.36 609.337 119.36C609.817 119.36 610.217 119.313 610.537 119.22C610.857 119.113 611.123 118.987 611.337 118.84C611.55 118.693 611.737 118.553 611.897 118.42C612.11 118.3 612.31 118.24 612.497 118.24C612.737 118.24 612.937 118.327 613.097 118.5C613.257 118.66 613.337 118.853 613.337 119.08C613.337 119.373 613.19 119.64 612.897 119.88C612.537 120.227 612.037 120.533 611.397 120.8C610.77 121.067 610.11 121.2 609.417 121.2ZM628.322 110.38C628.575 110.38 628.795 110.48 628.982 110.68C629.182 110.867 629.282 111.113 629.282 111.42C629.282 111.487 629.275 111.553 629.262 111.62C629.249 111.687 629.229 111.747 629.202 111.8L626.142 120.36C626.062 120.587 625.922 120.76 625.722 120.88C625.522 120.987 625.315 121.027 625.102 121C624.715 120.973 624.429 120.76 624.242 120.36L621.982 114.36L622.442 114.4L620.362 120.36C620.175 120.76 619.889 120.973 619.502 121C619.302 121.027 619.095 120.987 618.882 120.88C618.682 120.76 618.542 120.587 618.462 120.36L615.382 111.8C615.329 111.68 615.302 111.553 615.302 111.42C615.302 111.14 615.389 110.9 615.562 110.7C615.749 110.487 615.995 110.38 616.302 110.38C616.515 110.38 616.702 110.433 616.862 110.54C617.035 110.647 617.155 110.807 617.222 111.02L619.782 118.24L619.322 118.2L621.402 112.74C621.575 112.327 621.882 112.12 622.322 112.12C622.562 112.12 622.749 112.173 622.882 112.28C623.015 112.387 623.122 112.54 623.202 112.74L625.322 118.22L624.782 118.28L627.362 111.02C627.495 110.593 627.815 110.38 628.322 110.38ZM542.327 144.98C542.327 145.273 542.234 145.52 542.047 145.72C541.86 145.907 541.62 146 541.327 146C541.047 146 540.807 145.907 540.607 145.72C540.42 145.52 540.327 145.273 540.327 144.98V136.42C540.327 136.127 540.42 135.887 540.607 135.7C540.807 135.5 541.047 135.4 541.327 135.4C541.62 135.4 541.86 135.5 542.047 135.7C542.234 135.887 542.327 136.127 542.327 136.42V144.98ZM541.307 134.08C540.92 134.08 540.64 134.013 540.467 133.88C540.294 133.733 540.207 133.493 540.207 133.16V132.84C540.207 132.507 540.3 132.273 540.487 132.14C540.674 132.007 540.954 131.94 541.327 131.94C541.727 131.94 542.014 132.013 542.187 132.16C542.36 132.293 542.447 132.52 542.447 132.84V133.16C542.447 133.507 542.354 133.747 542.167 133.88C541.994 134.013 541.707 134.08 541.307 134.08ZM550.437 135.24C551.384 135.24 552.117 135.44 552.637 135.84C553.157 136.227 553.517 136.753 553.717 137.42C553.931 138.073 554.037 138.807 554.037 139.62V144.98C554.037 145.273 553.937 145.52 553.737 145.72C553.551 145.907 553.317 146 553.037 146C552.744 146 552.504 145.907 552.317 145.72C552.131 145.52 552.037 145.273 552.037 144.98V139.64C552.037 139.16 551.971 138.733 551.837 138.36C551.704 137.973 551.471 137.667 551.137 137.44C550.817 137.2 550.364 137.08 549.777 137.08C549.231 137.08 548.751 137.2 548.337 137.44C547.924 137.667 547.597 137.973 547.357 138.36C547.131 138.733 547.017 139.16 547.017 139.64V144.98C547.017 145.273 546.917 145.52 546.717 145.72C546.531 145.907 546.297 146 546.017 146C545.724 146 545.484 145.907 545.297 145.72C545.111 145.52 545.017 145.273 545.017 144.98V136.5C545.017 136.207 545.111 135.967 545.297 135.78C545.484 135.58 545.724 135.48 546.017 135.48C546.297 135.48 546.531 135.58 546.717 135.78C546.917 135.967 547.017 136.207 547.017 136.5V137.62L546.657 137.82C546.751 137.527 546.911 137.233 547.137 136.94C547.377 136.633 547.664 136.353 547.997 136.1C548.331 135.833 548.704 135.627 549.117 135.48C549.531 135.32 549.971 135.24 550.437 135.24ZM561.094 135.24C561.667 135.24 562.194 135.333 562.674 135.52C563.154 135.707 563.567 135.947 563.914 136.24C564.274 136.52 564.554 136.813 564.754 137.12C564.954 137.427 565.054 137.693 565.054 137.92L564.594 137.94V136.34C564.594 136.06 564.687 135.82 564.874 135.62C565.061 135.42 565.301 135.32 565.594 135.32C565.887 135.32 566.127 135.42 566.314 135.62C566.501 135.807 566.594 136.047 566.594 136.34V145.16C566.594 146.293 566.354 147.213 565.874 147.92C565.394 148.64 564.754 149.167 563.954 149.5C563.167 149.833 562.301 150 561.354 150C561.021 150 560.627 149.953 560.174 149.86C559.721 149.78 559.301 149.68 558.914 149.56C558.541 149.44 558.281 149.32 558.134 149.2C557.827 149.04 557.621 148.853 557.514 148.64C557.421 148.427 557.427 148.213 557.534 148C557.654 147.707 557.827 147.527 558.054 147.46C558.281 147.393 558.541 147.413 558.834 147.52C558.967 147.56 559.174 147.633 559.454 147.74C559.734 147.847 560.047 147.94 560.394 148.02C560.741 148.113 561.067 148.16 561.374 148.16C562.441 148.16 563.241 147.913 563.774 147.42C564.321 146.927 564.594 146.253 564.594 145.4V143.6L564.834 143.74C564.794 144.02 564.667 144.307 564.454 144.6C564.241 144.88 563.967 145.14 563.634 145.38C563.301 145.62 562.921 145.82 562.494 145.98C562.067 146.127 561.621 146.2 561.154 146.2C560.221 146.2 559.374 145.967 558.614 145.5C557.867 145.02 557.274 144.373 556.834 143.56C556.394 142.733 556.174 141.787 556.174 140.72C556.174 139.653 556.394 138.713 556.834 137.9C557.274 137.073 557.861 136.427 558.594 135.96C559.341 135.48 560.174 135.24 561.094 135.24ZM561.394 137.08C560.754 137.08 560.181 137.24 559.674 137.56C559.181 137.88 558.794 138.313 558.514 138.86C558.247 139.407 558.114 140.027 558.114 140.72C558.114 141.413 558.247 142.033 558.514 142.58C558.794 143.127 559.181 143.56 559.674 143.88C560.181 144.2 560.754 144.36 561.394 144.36C562.047 144.36 562.621 144.207 563.114 143.9C563.607 143.58 563.994 143.147 564.274 142.6C564.554 142.04 564.694 141.413 564.694 140.72C564.694 140.027 564.554 139.407 564.274 138.86C563.994 138.3 563.607 137.867 563.114 137.56C562.621 137.24 562.047 137.08 561.394 137.08ZM573.802 146.2C572.708 146.2 571.748 145.973 570.922 145.52C570.108 145.053 569.475 144.42 569.022 143.62C568.582 142.807 568.362 141.88 568.362 140.84C568.362 139.667 568.595 138.667 569.062 137.84C569.542 137 570.162 136.36 570.922 135.92C571.695 135.467 572.508 135.24 573.362 135.24C574.002 135.24 574.615 135.373 575.202 135.64C575.802 135.893 576.328 136.253 576.782 136.72C577.235 137.173 577.595 137.713 577.862 138.34C578.128 138.953 578.268 139.627 578.282 140.36C578.268 140.627 578.162 140.847 577.962 141.02C577.762 141.193 577.528 141.28 577.262 141.28H569.502L569.022 139.58H576.542L576.162 139.94V139.44C576.122 138.973 575.962 138.567 575.682 138.22C575.402 137.86 575.055 137.587 574.642 137.4C574.242 137.2 573.815 137.1 573.362 137.1C572.962 137.1 572.575 137.167 572.202 137.3C571.828 137.42 571.502 137.62 571.222 137.9C570.942 138.18 570.715 138.553 570.542 139.02C570.368 139.473 570.282 140.04 570.282 140.72C570.282 141.453 570.435 142.093 570.742 142.64C571.048 143.187 571.462 143.613 571.982 143.92C572.502 144.213 573.082 144.36 573.722 144.36C574.202 144.36 574.602 144.313 574.922 144.22C575.242 144.113 575.508 143.987 575.722 143.84C575.935 143.693 576.122 143.553 576.282 143.42C576.495 143.3 576.695 143.24 576.882 143.24C577.122 143.24 577.322 143.327 577.482 143.5C577.642 143.66 577.722 143.853 577.722 144.08C577.722 144.373 577.575 144.64 577.282 144.88C576.922 145.227 576.422 145.533 575.782 145.8C575.155 146.067 574.495 146.2 573.802 146.2ZM585.747 135.3C586.68 135.3 587.507 135.533 588.227 136C588.96 136.467 589.54 137.107 589.967 137.92C590.394 138.72 590.607 139.653 590.607 140.72C590.607 141.787 590.394 142.733 589.967 143.56C589.54 144.373 588.967 145.013 588.247 145.48C587.527 145.947 586.714 146.18 585.807 146.18C585.3 146.18 584.82 146.1 584.367 145.94C583.914 145.78 583.514 145.573 583.167 145.32C582.82 145.053 582.534 144.773 582.307 144.48C582.094 144.187 581.96 143.913 581.907 143.66L582.447 143.4V148.98C582.447 149.273 582.347 149.513 582.147 149.7C581.96 149.9 581.727 150 581.447 150C581.154 150 580.914 149.9 580.727 149.7C580.54 149.513 580.447 149.273 580.447 148.98V136.46C580.447 136.18 580.54 135.94 580.727 135.74C580.914 135.54 581.154 135.44 581.447 135.44C581.727 135.44 581.96 135.54 582.147 135.74C582.347 135.94 582.447 136.18 582.447 136.46V137.84L582.127 137.66C582.167 137.407 582.294 137.147 582.507 136.88C582.72 136.6 582.987 136.34 583.307 136.1C583.64 135.86 584.014 135.667 584.427 135.52C584.854 135.373 585.294 135.3 585.747 135.3ZM585.527 137.14C584.887 137.14 584.327 137.3 583.847 137.62C583.38 137.927 583.014 138.347 582.747 138.88C582.48 139.413 582.347 140.027 582.347 140.72C582.347 141.4 582.48 142.02 582.747 142.58C583.014 143.127 583.38 143.56 583.847 143.88C584.327 144.187 584.887 144.34 585.527 144.34C586.154 144.34 586.7 144.187 587.167 143.88C587.634 143.56 588 143.127 588.267 142.58C588.547 142.02 588.687 141.4 588.687 140.72C588.687 140.04 588.547 139.433 588.267 138.9C588 138.353 587.634 137.927 587.167 137.62C586.7 137.3 586.154 137.14 585.527 137.14ZM594.931 144.98C594.931 145.273 594.831 145.52 594.631 145.72C594.444 145.907 594.211 146 593.931 146C593.651 146 593.411 145.907 593.211 145.72C593.024 145.52 592.931 145.273 592.931 144.98V132.22C592.931 131.927 593.031 131.687 593.231 131.5C593.431 131.3 593.671 131.2 593.951 131.2C594.244 131.2 594.478 131.3 594.651 131.5C594.838 131.687 594.931 131.927 594.931 132.22V144.98ZM606.448 135.32C606.728 135.32 606.961 135.42 607.148 135.62C607.348 135.807 607.448 136.047 607.448 136.34V144.98C607.448 145.273 607.348 145.52 607.148 145.72C606.961 145.907 606.728 146 606.448 146C606.154 146 605.914 145.907 605.728 145.72C605.541 145.52 605.448 145.273 605.448 144.98V143.54L605.848 143.6C605.848 143.84 605.748 144.107 605.548 144.4C605.361 144.693 605.101 144.98 604.768 145.26C604.434 145.527 604.041 145.753 603.588 145.94C603.134 146.113 602.648 146.2 602.128 146.2C601.208 146.2 600.381 145.967 599.648 145.5C598.914 145.02 598.334 144.367 597.908 143.54C597.481 142.713 597.268 141.773 597.268 140.72C597.268 139.64 597.481 138.693 597.908 137.88C598.334 137.053 598.908 136.407 599.628 135.94C600.361 135.473 601.174 135.24 602.068 135.24C602.641 135.24 603.168 135.333 603.648 135.52C604.141 135.707 604.568 135.947 604.928 136.24C605.288 136.533 605.568 136.847 605.768 137.18C605.968 137.5 606.068 137.807 606.068 138.1L605.448 138.16V136.34C605.448 136.06 605.541 135.82 605.728 135.62C605.914 135.42 606.154 135.32 606.448 135.32ZM602.368 144.36C602.994 144.36 603.541 144.2 604.008 143.88C604.488 143.56 604.861 143.127 605.128 142.58C605.394 142.02 605.528 141.4 605.528 140.72C605.528 140.027 605.394 139.407 605.128 138.86C604.861 138.313 604.488 137.88 604.008 137.56C603.541 137.24 602.994 137.08 602.368 137.08C601.754 137.08 601.208 137.24 600.728 137.56C600.248 137.88 599.874 138.313 599.608 138.86C599.341 139.407 599.208 140.027 599.208 140.72C599.208 141.4 599.341 142.02 599.608 142.58C599.874 143.127 600.241 143.56 600.708 143.88C601.188 144.2 601.741 144.36 602.368 144.36ZM615.652 135.24C616.599 135.24 617.332 135.44 617.852 135.84C618.372 136.227 618.732 136.753 618.932 137.42C619.145 138.073 619.252 138.807 619.252 139.62V144.98C619.252 145.273 619.152 145.52 618.952 145.72C618.765 145.907 618.532 146 618.252 146C617.959 146 617.719 145.907 617.532 145.72C617.345 145.52 617.252 145.273 617.252 144.98V139.64C617.252 139.16 617.185 138.733 617.052 138.36C616.919 137.973 616.685 137.667 616.352 137.44C616.032 137.2 615.579 137.08 614.992 137.08C614.445 137.08 613.965 137.2 613.552 137.44C613.139 137.667 612.812 137.973 612.572 138.36C612.345 138.733 612.232 139.16 612.232 139.64V144.98C612.232 145.273 612.132 145.52 611.932 145.72C611.745 145.907 611.512 146 611.232 146C610.939 146 610.699 145.907 610.512 145.72C610.325 145.52 610.232 145.273 610.232 144.98V136.5C610.232 136.207 610.325 135.967 610.512 135.78C610.699 135.58 610.939 135.48 611.232 135.48C611.512 135.48 611.745 135.58 611.932 135.78C612.132 135.967 612.232 136.207 612.232 136.5V137.62L611.872 137.82C611.965 137.527 612.125 137.233 612.352 136.94C612.592 136.633 612.879 136.353 613.212 136.1C613.545 135.833 613.919 135.627 614.332 135.48C614.745 135.32 615.185 135.24 615.652 135.24ZM630.569 131.2C630.849 131.2 631.082 131.293 631.269 131.48C631.469 131.667 631.569 131.913 631.569 132.22V144.98C631.569 145.273 631.469 145.52 631.269 145.72C631.082 145.907 630.849 146 630.569 146C630.276 146 630.036 145.907 629.849 145.72C629.662 145.52 629.569 145.273 629.569 144.98V143.54L629.969 143.56C629.969 143.8 629.869 144.073 629.669 144.38C629.482 144.673 629.222 144.96 628.889 145.24C628.556 145.52 628.162 145.753 627.709 145.94C627.256 146.113 626.769 146.2 626.249 146.2C625.342 146.2 624.516 145.967 623.769 145.5C623.036 145.02 622.456 144.373 622.029 143.56C621.602 142.733 621.389 141.787 621.389 140.72C621.389 139.653 621.602 138.713 622.029 137.9C622.456 137.073 623.029 136.427 623.749 135.96C624.482 135.48 625.296 135.24 626.189 135.24C626.749 135.24 627.269 135.333 627.749 135.52C628.242 135.707 628.669 135.947 629.029 136.24C629.389 136.533 629.669 136.847 629.869 137.18C630.082 137.5 630.189 137.807 630.189 138.1L629.569 138.16V132.22C629.569 131.927 629.662 131.687 629.849 131.5C630.036 131.3 630.276 131.2 630.569 131.2ZM626.489 144.36C627.116 144.36 627.662 144.2 628.129 143.88C628.609 143.56 628.982 143.127 629.249 142.58C629.516 142.033 629.649 141.413 629.649 140.72C629.649 140.027 629.516 139.407 629.249 138.86C628.982 138.313 628.609 137.88 628.129 137.56C627.662 137.24 627.116 137.08 626.489 137.08C625.876 137.08 625.329 137.24 624.849 137.56C624.369 137.88 623.996 138.313 623.729 138.86C623.462 139.407 623.329 140.027 623.329 140.72C623.329 141.413 623.462 142.033 623.729 142.58C623.996 143.127 624.369 143.56 624.849 143.88C625.329 144.2 625.876 144.36 626.489 144.36Z" fill="black"/>
<circle cx="1111" cy="40" r="40" fill="#585858"/>
<path d="M1110.5 12.4166C1095.55 12.4166 1083.42 24.55 1083.42 39.5C1083.42 54.45 1095.55 66.5833 1110.5 66.5833C1125.45 66.5833 1137.58 54.45 1137.58 39.5C1137.58 24.55 1125.45 12.4166 1110.5 12.4166ZM1110.5 61.1666C1098.56 61.1666 1088.83 51.4437 1088.83 39.5C1088.83 27.5562 1098.56 17.8333 1110.5 17.8333C1122.44 17.8333 1132.17 27.5562 1132.17 39.5C1132.17 51.4437 1122.44 61.1666 1110.5 61.1666ZM1122.93 27.5291L1105.08 45.377L1098.07 38.3895L1094.25 42.2083L1105.08 53.0416L1126.75 31.375L1122.93 27.5291Z" fill="white"/>
<path d="M1087.68 107C1088.39 107 1089.04 107.193 1089.64 107.58C1090.24 107.953 1090.72 108.467 1091.08 109.12C1091.44 109.773 1091.62 110.507 1091.62 111.32C1091.62 112.133 1091.44 112.873 1091.08 113.54C1090.72 114.193 1090.24 114.72 1089.64 115.12C1089.04 115.507 1088.39 115.7 1087.68 115.7H1083.82L1083.98 115.38V119.98C1083.98 120.273 1083.89 120.52 1083.7 120.72C1083.53 120.907 1083.3 121 1083 121C1082.72 121 1082.49 120.907 1082.3 120.72C1082.13 120.52 1082.04 120.273 1082.04 119.98V108.02C1082.04 107.727 1082.14 107.487 1082.34 107.3C1082.54 107.1 1082.78 107 1083.06 107H1087.68ZM1087.68 113.78C1088.03 113.78 1088.34 113.667 1088.62 113.44C1088.92 113.213 1089.15 112.913 1089.32 112.54C1089.51 112.167 1089.6 111.76 1089.6 111.32C1089.6 110.88 1089.51 110.48 1089.32 110.12C1089.15 109.76 1088.92 109.473 1088.62 109.26C1088.34 109.033 1088.03 108.92 1087.68 108.92H1083.78L1083.98 108.62V114.04L1083.8 113.78H1087.68ZM1094.84 121C1094.54 121 1094.3 120.907 1094.12 120.72C1093.93 120.52 1093.84 120.273 1093.84 119.98V111.5C1093.84 111.207 1093.93 110.967 1094.12 110.78C1094.3 110.58 1094.54 110.48 1094.84 110.48C1095.12 110.48 1095.35 110.58 1095.54 110.78C1095.74 110.967 1095.84 111.207 1095.84 111.5V113.74L1095.64 112.88C1095.74 112.507 1095.9 112.16 1096.12 111.84C1096.34 111.52 1096.61 111.24 1096.92 111C1097.22 110.76 1097.56 110.573 1097.94 110.44C1098.32 110.307 1098.72 110.24 1099.14 110.24C1099.48 110.24 1099.78 110.333 1100.04 110.52C1100.29 110.707 1100.42 110.94 1100.42 111.22C1100.42 111.58 1100.32 111.847 1100.14 112.02C1099.95 112.18 1099.74 112.26 1099.52 112.26C1099.32 112.26 1099.12 112.22 1098.94 112.14C1098.75 112.047 1098.53 112 1098.28 112C1098 112 1097.71 112.073 1097.42 112.22C1097.12 112.367 1096.86 112.587 1096.62 112.88C1096.38 113.16 1096.18 113.493 1096.04 113.88C1095.9 114.267 1095.84 114.7 1095.84 115.18V119.98C1095.84 120.273 1095.74 120.52 1095.54 120.72C1095.35 120.907 1095.12 121 1094.84 121ZM1111.75 115.74C1111.75 116.807 1111.51 117.753 1111.03 118.58C1110.56 119.393 1109.93 120.033 1109.13 120.5C1108.33 120.967 1107.43 121.2 1106.43 121.2C1105.44 121.2 1104.54 120.967 1103.73 120.5C1102.93 120.033 1102.29 119.393 1101.81 118.58C1101.34 117.753 1101.11 116.807 1101.11 115.74C1101.11 114.66 1101.34 113.713 1101.81 112.9C1102.29 112.073 1102.93 111.427 1103.73 110.96C1104.54 110.48 1105.44 110.24 1106.43 110.24C1107.43 110.24 1108.33 110.48 1109.13 110.96C1109.93 111.427 1110.56 112.073 1111.03 112.9C1111.51 113.713 1111.75 114.66 1111.75 115.74ZM1109.75 115.74C1109.75 115.007 1109.6 114.373 1109.31 113.84C1109.01 113.293 1108.61 112.867 1108.11 112.56C1107.61 112.24 1107.05 112.08 1106.43 112.08C1105.81 112.08 1105.25 112.24 1104.75 112.56C1104.25 112.867 1103.85 113.293 1103.55 113.84C1103.25 114.373 1103.11 115.007 1103.11 115.74C1103.11 116.447 1103.25 117.073 1103.55 117.62C1103.85 118.167 1104.25 118.593 1104.75 118.9C1105.25 119.207 1105.81 119.36 1106.43 119.36C1107.05 119.36 1107.61 119.207 1108.11 118.9C1108.61 118.593 1109.01 118.167 1109.31 117.62C1109.6 117.073 1109.75 116.447 1109.75 115.74ZM1118.81 106.22C1119.07 106.22 1119.33 106.253 1119.59 106.32C1119.86 106.387 1120.08 106.5 1120.25 106.66C1120.44 106.807 1120.53 107.013 1120.53 107.28C1120.53 107.547 1120.45 107.767 1120.29 107.94C1120.13 108.1 1119.95 108.18 1119.73 108.18C1119.6 108.18 1119.42 108.153 1119.19 108.1C1118.97 108.033 1118.74 108 1118.51 108C1118.21 108 1117.96 108.073 1117.77 108.22C1117.59 108.353 1117.45 108.527 1117.37 108.74C1117.29 108.94 1117.25 109.14 1117.25 109.34V119.98C1117.25 120.273 1117.15 120.52 1116.95 120.72C1116.77 120.907 1116.53 121 1116.25 121C1115.96 121 1115.72 120.907 1115.53 120.72C1115.35 120.52 1115.25 120.273 1115.25 119.98V109.36C1115.25 108.44 1115.55 107.687 1116.15 107.1C1116.77 106.513 1117.65 106.22 1118.81 106.22ZM1119.21 110.66C1119.48 110.66 1119.7 110.747 1119.87 110.92C1120.05 111.093 1120.13 111.313 1120.13 111.58C1120.13 111.847 1120.05 112.067 1119.87 112.24C1119.7 112.413 1119.48 112.5 1119.21 112.5H1114.03C1113.78 112.5 1113.56 112.413 1113.37 112.24C1113.2 112.067 1113.11 111.847 1113.11 111.58C1113.11 111.313 1113.2 111.093 1113.37 110.92C1113.56 110.747 1113.78 110.66 1114.03 110.66H1119.21ZM1123.71 119.98C1123.71 120.273 1123.62 120.52 1123.43 120.72C1123.25 120.907 1123.01 121 1122.71 121C1122.43 121 1122.19 120.907 1121.99 120.72C1121.81 120.52 1121.71 120.273 1121.71 119.98V111.42C1121.71 111.127 1121.81 110.887 1121.99 110.7C1122.19 110.5 1122.43 110.4 1122.71 110.4C1123.01 110.4 1123.25 110.5 1123.43 110.7C1123.62 110.887 1123.71 111.127 1123.71 111.42V119.98ZM1122.69 109.08C1122.31 109.08 1122.03 109.013 1121.85 108.88C1121.68 108.733 1121.59 108.493 1121.59 108.16V107.84C1121.59 107.507 1121.69 107.273 1121.87 107.14C1122.06 107.007 1122.34 106.94 1122.71 106.94C1123.11 106.94 1123.4 107.013 1123.57 107.16C1123.75 107.293 1123.83 107.52 1123.83 107.84V108.16C1123.83 108.507 1123.74 108.747 1123.55 108.88C1123.38 109.013 1123.09 109.08 1122.69 109.08ZM1131.19 121.2C1130.1 121.2 1129.14 120.973 1128.31 120.52C1127.5 120.053 1126.87 119.42 1126.41 118.62C1125.97 117.807 1125.75 116.88 1125.75 115.84C1125.75 114.667 1125.99 113.667 1126.45 112.84C1126.93 112 1127.55 111.36 1128.31 110.92C1129.09 110.467 1129.9 110.24 1130.75 110.24C1131.39 110.24 1132.01 110.373 1132.59 110.64C1133.19 110.893 1133.72 111.253 1134.17 111.72C1134.63 112.173 1134.99 112.713 1135.25 113.34C1135.52 113.953 1135.66 114.627 1135.67 115.36C1135.66 115.627 1135.55 115.847 1135.35 116.02C1135.15 116.193 1134.92 116.28 1134.65 116.28H1126.89L1126.41 114.58H1133.93L1133.55 114.94V114.44C1133.51 113.973 1133.35 113.567 1133.07 113.22C1132.79 112.86 1132.45 112.587 1132.03 112.4C1131.63 112.2 1131.21 112.1 1130.75 112.1C1130.35 112.1 1129.97 112.167 1129.59 112.3C1129.22 112.42 1128.89 112.62 1128.61 112.9C1128.33 113.18 1128.11 113.553 1127.93 114.02C1127.76 114.473 1127.67 115.04 1127.67 115.72C1127.67 116.453 1127.83 117.093 1128.13 117.64C1128.44 118.187 1128.85 118.613 1129.37 118.92C1129.89 119.213 1130.47 119.36 1131.11 119.36C1131.59 119.36 1131.99 119.313 1132.31 119.22C1132.63 119.113 1132.9 118.987 1133.11 118.84C1133.33 118.693 1133.51 118.553 1133.67 118.42C1133.89 118.3 1134.09 118.24 1134.27 118.24C1134.51 118.24 1134.71 118.327 1134.87 118.5C1135.03 118.66 1135.11 118.853 1135.11 119.08C1135.11 119.373 1134.97 119.64 1134.67 119.88C1134.31 120.227 1133.81 120.533 1133.17 120.8C1132.55 121.067 1131.89 121.2 1131.19 121.2ZM1140 119.98C1140 120.273 1139.9 120.52 1139.7 120.72C1139.51 120.907 1139.28 121 1139 121C1138.72 121 1138.48 120.907 1138.28 120.72C1138.09 120.52 1138 120.273 1138 119.98V107.22C1138 106.927 1138.1 106.687 1138.3 106.5C1138.5 106.3 1138.74 106.2 1139.02 106.2C1139.31 106.2 1139.55 106.3 1139.72 106.5C1139.91 106.687 1140 106.927 1140 107.22V119.98ZM1076.1 135.24C1076.68 135.24 1077.2 135.333 1077.68 135.52C1078.16 135.707 1078.58 135.947 1078.92 136.24C1079.28 136.52 1079.56 136.813 1079.76 137.12C1079.96 137.427 1080.06 137.693 1080.06 137.92L1079.6 137.94V136.34C1079.6 136.06 1079.7 135.82 1079.88 135.62C1080.07 135.42 1080.31 135.32 1080.6 135.32C1080.9 135.32 1081.14 135.42 1081.32 135.62C1081.51 135.807 1081.6 136.047 1081.6 136.34V145.16C1081.6 146.293 1081.36 147.213 1080.88 147.92C1080.4 148.64 1079.76 149.167 1078.96 149.5C1078.18 149.833 1077.31 150 1076.36 150C1076.03 150 1075.64 149.953 1075.18 149.86C1074.73 149.78 1074.31 149.68 1073.92 149.56C1073.55 149.44 1073.29 149.32 1073.14 149.2C1072.84 149.04 1072.63 148.853 1072.52 148.64C1072.43 148.427 1072.44 148.213 1072.54 148C1072.66 147.707 1072.84 147.527 1073.06 147.46C1073.29 147.393 1073.55 147.413 1073.84 147.52C1073.98 147.56 1074.18 147.633 1074.46 147.74C1074.74 147.847 1075.06 147.94 1075.4 148.02C1075.75 148.113 1076.08 148.16 1076.38 148.16C1077.45 148.16 1078.25 147.913 1078.78 147.42C1079.33 146.927 1079.6 146.253 1079.6 145.4V143.6L1079.84 143.74C1079.8 144.02 1079.68 144.307 1079.46 144.6C1079.25 144.88 1078.98 145.14 1078.64 145.38C1078.31 145.62 1077.93 145.82 1077.5 145.98C1077.08 146.127 1076.63 146.2 1076.16 146.2C1075.23 146.2 1074.38 145.967 1073.62 145.5C1072.88 145.02 1072.28 144.373 1071.84 143.56C1071.4 142.733 1071.18 141.787 1071.18 140.72C1071.18 139.653 1071.4 138.713 1071.84 137.9C1072.28 137.073 1072.87 136.427 1073.6 135.96C1074.35 135.48 1075.18 135.24 1076.1 135.24ZM1076.4 137.08C1075.76 137.08 1075.19 137.24 1074.68 137.56C1074.19 137.88 1073.8 138.313 1073.52 138.86C1073.26 139.407 1073.12 140.027 1073.12 140.72C1073.12 141.413 1073.26 142.033 1073.52 142.58C1073.8 143.127 1074.19 143.56 1074.68 143.88C1075.19 144.2 1075.76 144.36 1076.4 144.36C1077.06 144.36 1077.63 144.207 1078.12 143.9C1078.62 143.58 1079 143.147 1079.28 142.6C1079.56 142.04 1079.7 141.413 1079.7 140.72C1079.7 140.027 1079.56 139.407 1079.28 138.86C1079 138.3 1078.62 137.867 1078.12 137.56C1077.63 137.24 1077.06 137.08 1076.4 137.08ZM1088.81 146.2C1087.72 146.2 1086.76 145.973 1085.93 145.52C1085.12 145.053 1084.48 144.42 1084.03 143.62C1083.59 142.807 1083.37 141.88 1083.37 140.84C1083.37 139.667 1083.6 138.667 1084.07 137.84C1084.55 137 1085.17 136.36 1085.93 135.92C1086.7 135.467 1087.52 135.24 1088.37 135.24C1089.01 135.24 1089.62 135.373 1090.21 135.64C1090.81 135.893 1091.34 136.253 1091.79 136.72C1092.24 137.173 1092.6 137.713 1092.87 138.34C1093.14 138.953 1093.28 139.627 1093.29 140.36C1093.28 140.627 1093.17 140.847 1092.97 141.02C1092.77 141.193 1092.54 141.28 1092.27 141.28H1084.51L1084.03 139.58H1091.55L1091.17 139.94V139.44C1091.13 138.973 1090.97 138.567 1090.69 138.22C1090.41 137.86 1090.06 137.587 1089.65 137.4C1089.25 137.2 1088.82 137.1 1088.37 137.1C1087.97 137.1 1087.58 137.167 1087.21 137.3C1086.84 137.42 1086.51 137.62 1086.23 137.9C1085.95 138.18 1085.72 138.553 1085.55 139.02C1085.38 139.473 1085.29 140.04 1085.29 140.72C1085.29 141.453 1085.44 142.093 1085.75 142.64C1086.06 143.187 1086.47 143.613 1086.99 143.92C1087.51 144.213 1088.09 144.36 1088.73 144.36C1089.21 144.36 1089.61 144.313 1089.93 144.22C1090.25 144.113 1090.52 143.987 1090.73 143.84C1090.94 143.693 1091.13 143.553 1091.29 143.42C1091.5 143.3 1091.7 143.24 1091.89 143.24C1092.13 143.24 1092.33 143.327 1092.49 143.5C1092.65 143.66 1092.73 143.853 1092.73 144.08C1092.73 144.373 1092.58 144.64 1092.29 144.88C1091.93 145.227 1091.43 145.533 1090.79 145.8C1090.16 146.067 1089.5 146.2 1088.81 146.2ZM1094.84 144.36C1094.72 144.173 1094.66 143.96 1094.68 143.72C1094.69 143.467 1094.83 143.253 1095.1 143.08C1095.28 142.96 1095.48 142.913 1095.68 142.94C1095.89 142.953 1096.09 143.053 1096.28 143.24C1096.65 143.653 1097.06 143.98 1097.52 144.22C1097.98 144.46 1098.54 144.58 1099.2 144.58C1099.46 144.567 1099.74 144.527 1100.02 144.46C1100.3 144.38 1100.54 144.247 1100.74 144.06C1100.94 143.86 1101.04 143.573 1101.04 143.2C1101.04 142.867 1100.93 142.6 1100.72 142.4C1100.5 142.2 1100.22 142.04 1099.88 141.92C1099.53 141.787 1099.16 141.667 1098.76 141.56C1098.33 141.44 1097.9 141.307 1097.46 141.16C1097.03 141.013 1096.64 140.827 1096.3 140.6C1095.95 140.36 1095.66 140.053 1095.44 139.68C1095.22 139.307 1095.12 138.847 1095.12 138.3C1095.12 137.673 1095.29 137.133 1095.64 136.68C1096 136.227 1096.46 135.873 1097.02 135.62C1097.59 135.367 1098.21 135.24 1098.88 135.24C1099.26 135.24 1099.67 135.293 1100.1 135.4C1100.52 135.493 1100.94 135.647 1101.34 135.86C1101.74 136.073 1102.08 136.353 1102.38 136.7C1102.51 136.873 1102.58 137.08 1102.6 137.32C1102.62 137.56 1102.52 137.773 1102.28 137.96C1102.12 138.093 1101.92 138.153 1101.7 138.14C1101.47 138.127 1101.28 138.053 1101.14 137.92C1100.88 137.6 1100.56 137.353 1100.16 137.18C1099.76 136.993 1099.3 136.9 1098.8 136.9C1098.54 136.9 1098.28 136.94 1098 137.02C1097.73 137.087 1097.5 137.213 1097.32 137.4C1097.13 137.587 1097.04 137.86 1097.04 138.22C1097.04 138.553 1097.14 138.82 1097.36 139.02C1097.58 139.22 1097.88 139.387 1098.24 139.52C1098.6 139.653 1098.99 139.773 1099.42 139.88C1099.83 139.987 1100.24 140.113 1100.64 140.26C1101.05 140.407 1101.42 140.6 1101.74 140.84C1102.07 141.067 1102.34 141.367 1102.54 141.74C1102.75 142.1 1102.86 142.56 1102.86 143.12C1102.86 143.773 1102.66 144.333 1102.28 144.8C1101.9 145.253 1101.42 145.6 1100.84 145.84C1100.26 146.08 1099.66 146.2 1099.02 146.2C1098.26 146.2 1097.5 146.067 1096.74 145.8C1095.99 145.52 1095.36 145.04 1094.84 144.36ZM1107.17 144.98C1107.17 145.273 1107.07 145.52 1106.87 145.72C1106.68 145.907 1106.45 146 1106.17 146C1105.89 146 1105.65 145.907 1105.45 145.72C1105.26 145.52 1105.17 145.273 1105.17 144.98V132.22C1105.17 131.927 1105.27 131.687 1105.47 131.5C1105.67 131.3 1105.91 131.2 1106.19 131.2C1106.48 131.2 1106.71 131.3 1106.89 131.5C1107.07 131.687 1107.17 131.927 1107.17 132.22V144.98ZM1119.95 140.74C1119.95 141.807 1119.71 142.753 1119.23 143.58C1118.76 144.393 1118.13 145.033 1117.33 145.5C1116.53 145.967 1115.63 146.2 1114.63 146.2C1113.64 146.2 1112.74 145.967 1111.93 145.5C1111.13 145.033 1110.49 144.393 1110.01 143.58C1109.54 142.753 1109.31 141.807 1109.31 140.74C1109.31 139.66 1109.54 138.713 1110.01 137.9C1110.49 137.073 1111.13 136.427 1111.93 135.96C1112.74 135.48 1113.64 135.24 1114.63 135.24C1115.63 135.24 1116.53 135.48 1117.33 135.96C1118.13 136.427 1118.76 137.073 1119.23 137.9C1119.71 138.713 1119.95 139.66 1119.95 140.74ZM1117.95 140.74C1117.95 140.007 1117.8 139.373 1117.51 138.84C1117.22 138.293 1116.82 137.867 1116.31 137.56C1115.82 137.24 1115.26 137.08 1114.63 137.08C1114.02 137.08 1113.46 137.24 1112.95 137.56C1112.46 137.867 1112.06 138.293 1111.75 138.84C1111.46 139.373 1111.31 140.007 1111.31 140.74C1111.31 141.447 1111.46 142.073 1111.75 142.62C1112.06 143.167 1112.46 143.593 1112.95 143.9C1113.46 144.207 1114.02 144.36 1114.63 144.36C1115.26 144.36 1115.82 144.207 1116.31 143.9C1116.82 143.593 1117.22 143.167 1117.51 142.62C1117.8 142.073 1117.95 141.447 1117.95 140.74ZM1121.98 135.6H1126.68C1126.94 135.6 1127.16 135.693 1127.34 135.88C1127.52 136.053 1127.62 136.273 1127.62 136.54C1127.62 136.793 1127.52 137.007 1127.34 137.18C1127.16 137.353 1126.94 137.44 1126.68 137.44H1121.98C1121.71 137.44 1121.48 137.353 1121.3 137.18C1121.12 136.993 1121.04 136.773 1121.04 136.52C1121.04 136.253 1121.12 136.033 1121.3 135.86C1121.48 135.687 1121.71 135.6 1121.98 135.6ZM1124.08 133C1124.37 133 1124.61 133.1 1124.8 133.3C1124.98 133.487 1125.08 133.727 1125.08 134.02V143.3C1125.08 143.54 1125.12 143.733 1125.2 143.88C1125.28 144.027 1125.38 144.127 1125.52 144.18C1125.66 144.233 1125.81 144.26 1125.96 144.26C1126.1 144.26 1126.23 144.233 1126.34 144.18C1126.46 144.127 1126.6 144.1 1126.76 144.1C1126.92 144.1 1127.06 144.173 1127.2 144.32C1127.33 144.467 1127.4 144.667 1127.4 144.92C1127.4 145.24 1127.22 145.5 1126.88 145.7C1126.53 145.9 1126.16 146 1125.76 146C1125.53 146 1125.26 145.98 1124.96 145.94C1124.65 145.9 1124.35 145.8 1124.06 145.64C1123.78 145.48 1123.54 145.227 1123.36 144.88C1123.17 144.52 1123.08 144.02 1123.08 143.38V134.02C1123.08 133.727 1123.17 133.487 1123.36 133.3C1123.56 133.1 1123.8 133 1124.08 133ZM1134.53 146.2C1133.44 146.2 1132.48 145.973 1131.65 145.52C1130.84 145.053 1130.21 144.42 1129.75 143.62C1129.31 142.807 1129.09 141.88 1129.09 140.84C1129.09 139.667 1129.33 138.667 1129.79 137.84C1130.27 137 1130.89 136.36 1131.65 135.92C1132.43 135.467 1133.24 135.24 1134.09 135.24C1134.73 135.24 1135.35 135.373 1135.93 135.64C1136.53 135.893 1137.06 136.253 1137.51 136.72C1137.97 137.173 1138.33 137.713 1138.59 138.34C1138.86 138.953 1139 139.627 1139.01 140.36C1139 140.627 1138.89 140.847 1138.69 141.02C1138.49 141.193 1138.26 141.28 1137.99 141.28H1130.23L1129.75 139.58H1137.27L1136.89 139.94V139.44C1136.85 138.973 1136.69 138.567 1136.41 138.22C1136.13 137.86 1135.79 137.587 1135.37 137.4C1134.97 137.2 1134.55 137.1 1134.09 137.1C1133.69 137.1 1133.31 137.167 1132.93 137.3C1132.56 137.42 1132.23 137.62 1131.95 137.9C1131.67 138.18 1131.45 138.553 1131.27 139.02C1131.1 139.473 1131.01 140.04 1131.01 140.72C1131.01 141.453 1131.17 142.093 1131.47 142.64C1131.78 143.187 1132.19 143.613 1132.71 143.92C1133.23 144.213 1133.81 144.36 1134.45 144.36C1134.93 144.36 1135.33 144.313 1135.65 144.22C1135.97 144.113 1136.24 143.987 1136.45 143.84C1136.67 143.693 1136.85 143.553 1137.01 143.42C1137.23 143.3 1137.43 143.24 1137.61 143.24C1137.85 143.24 1138.05 143.327 1138.21 143.5C1138.37 143.66 1138.45 143.853 1138.45 144.08C1138.45 144.373 1138.31 144.64 1138.01 144.88C1137.65 145.227 1137.15 145.533 1136.51 145.8C1135.89 146.067 1135.23 146.2 1134.53 146.2ZM1146.6 135.24C1147.55 135.24 1148.28 135.44 1148.8 135.84C1149.32 136.227 1149.68 136.753 1149.88 137.42C1150.09 138.073 1150.2 138.807 1150.2 139.62V144.98C1150.2 145.273 1150.1 145.52 1149.9 145.72C1149.71 145.907 1149.48 146 1149.2 146C1148.91 146 1148.67 145.907 1148.48 145.72C1148.29 145.52 1148.2 145.273 1148.2 144.98V139.64C1148.2 139.16 1148.13 138.733 1148 138.36C1147.87 137.973 1147.63 137.667 1147.3 137.44C1146.98 137.2 1146.53 137.08 1145.94 137.08C1145.39 137.08 1144.91 137.2 1144.5 137.44C1144.09 137.667 1143.76 137.973 1143.52 138.36C1143.29 138.733 1143.18 139.16 1143.18 139.64V144.98C1143.18 145.273 1143.08 145.52 1142.88 145.72C1142.69 145.907 1142.46 146 1142.18 146C1141.89 146 1141.65 145.907 1141.46 145.72C1141.27 145.52 1141.18 145.273 1141.18 144.98V136.5C1141.18 136.207 1141.27 135.967 1141.46 135.78C1141.65 135.58 1141.89 135.48 1142.18 135.48C1142.46 135.48 1142.69 135.58 1142.88 135.78C1143.08 135.967 1143.18 136.207 1143.18 136.5V137.62L1142.82 137.82C1142.91 137.527 1143.07 137.233 1143.3 136.94C1143.54 136.633 1143.83 136.353 1144.16 136.1C1144.49 135.833 1144.87 135.627 1145.28 135.48C1145.69 135.32 1146.13 135.24 1146.6 135.24Z" fill="black"/>
</svg>
