<svg width="316" height="592" viewBox="0 0 316 592" fill="none" xmlns="http://www.w3.org/2000/svg">
<path d="M40 0L40 592" stroke="black" stroke-width="2"/>
<circle cx="40" cy="40" r="40" fill="#005E89"/>
<path d="M40.4997 19.2229L60.8934 54.4583H20.1059L40.4997 19.2229ZM15.4205 51.75C13.3351 55.3521 15.9351 59.875 20.1059 59.875H60.8934C65.0643 59.875 67.6643 55.3521 65.5788 51.75L45.1851 16.5146C43.0997 12.9125 37.8997 12.9125 35.8143 16.5146L15.4205 51.75ZM37.7913 32.7916V38.2083C37.7913 39.6979 39.0101 40.9166 40.4997 40.9166C41.9893 40.9166 43.208 39.6979 43.208 38.2083V32.7916C43.208 31.3021 41.9893 30.0833 40.4997 30.0833C39.0101 30.0833 37.7913 31.3021 37.7913 32.7916ZM37.7913 46.3333H43.208V51.75H37.7913V46.3333Z" fill="white"/>
<path d="M111.72 45.98C111.707 46.2733 111.593 46.52 111.38 46.72C111.18 46.9067 110.94 47 110.66 47C110.353 47 110.1 46.9067 109.9 46.72C109.713 46.52 109.62 46.2733 109.62 45.98V34.02C109.62 33.7267 109.72 33.4867 109.92 33.3C110.12 33.1 110.38 33 110.7 33C110.967 33 111.2 33.1 111.4 33.3C111.613 33.4867 111.72 33.7267 111.72 34.02V45.98ZM120.152 36.24C121.099 36.24 121.832 36.44 122.352 36.84C122.872 37.2267 123.232 37.7533 123.432 38.42C123.645 39.0733 123.752 39.8067 123.752 40.62V45.98C123.752 46.2733 123.652 46.52 123.452 46.72C123.265 46.9067 123.032 47 122.752 47C122.459 47 122.219 46.9067 122.032 46.72C121.845 46.52 121.752 46.2733 121.752 45.98V40.64C121.752 40.16 121.685 39.7333 121.552 39.36C121.419 38.9733 121.185 38.6667 120.852 38.44C120.532 38.2 120.079 38.08 119.492 38.08C118.945 38.08 118.465 38.2 118.052 38.44C117.639 38.6667 117.312 38.9733 117.072 39.36C116.845 39.7333 116.732 40.16 116.732 40.64V45.98C116.732 46.2733 116.632 46.52 116.432 46.72C116.245 46.9067 116.012 47 115.732 47C115.439 47 115.199 46.9067 115.012 46.72C114.825 46.52 114.732 46.2733 114.732 45.98V37.5C114.732 37.2067 114.825 36.9667 115.012 36.78C115.199 36.58 115.439 36.48 115.732 36.48C116.012 36.48 116.245 36.58 116.432 36.78C116.632 36.9667 116.732 37.2067 116.732 37.5V38.62L116.372 38.82C116.465 38.5267 116.625 38.2333 116.852 37.94C117.092 37.6333 117.379 37.3533 117.712 37.1C118.045 36.8333 118.419 36.6267 118.832 36.48C119.245 36.32 119.685 36.24 120.152 36.24ZM137.395 36.24C138.329 36.24 139.155 36.4733 139.875 36.94C140.609 37.4067 141.189 38.0533 141.615 38.88C142.042 39.6933 142.255 40.6333 142.255 41.7C142.255 42.7667 142.042 43.7133 141.615 44.54C141.189 45.3667 140.615 46.02 139.895 46.5C139.175 46.9667 138.362 47.2 137.455 47.2C136.949 47.2 136.469 47.12 136.015 46.96C135.562 46.7867 135.162 46.5733 134.815 46.32C134.469 46.0533 134.182 45.7733 133.955 45.48C133.742 45.1867 133.609 44.9133 133.555 44.66L134.095 44.4V46.14C134.095 46.42 133.995 46.66 133.795 46.86C133.609 47.0467 133.375 47.14 133.095 47.14C132.802 47.14 132.562 47.0467 132.375 46.86C132.189 46.6733 132.095 46.4333 132.095 46.14V33.22C132.095 32.9267 132.189 32.6867 132.375 32.5C132.562 32.3 132.802 32.2 133.095 32.2C133.375 32.2 133.609 32.3 133.795 32.5C133.995 32.6867 134.095 32.9267 134.095 33.22V38.84L133.775 38.66C133.815 38.4067 133.942 38.1467 134.155 37.88C134.369 37.6 134.635 37.3333 134.955 37.08C135.289 36.8267 135.662 36.6267 136.075 36.48C136.502 36.32 136.942 36.24 137.395 36.24ZM137.175 38.08C136.535 38.08 135.975 38.24 135.495 38.56C135.029 38.88 134.662 39.3133 134.395 39.86C134.129 40.3933 133.995 41.0067 133.995 41.7C133.995 42.3933 134.129 43.02 134.395 43.58C134.662 44.1267 135.029 44.56 135.495 44.88C135.975 45.2 136.535 45.36 137.175 45.36C137.802 45.36 138.349 45.2 138.815 44.88C139.282 44.56 139.649 44.12 139.915 43.56C140.195 43 140.335 42.38 140.335 41.7C140.335 41.0067 140.195 40.3933 139.915 39.86C139.649 39.3133 139.282 38.88 138.815 38.56C138.349 38.24 137.802 38.08 137.175 38.08ZM149.22 47.2C148.126 47.2 147.166 46.9733 146.34 46.52C145.526 46.0533 144.893 45.42 144.44 44.62C144 43.8067 143.78 42.88 143.78 41.84C143.78 40.6667 144.013 39.6667 144.48 38.84C144.96 38 145.58 37.36 146.34 36.92C147.113 36.4667 147.926 36.24 148.78 36.24C149.42 36.24 150.033 36.3733 150.62 36.64C151.22 36.8933 151.746 37.2533 152.2 37.72C152.653 38.1733 153.013 38.7133 153.28 39.34C153.546 39.9533 153.686 40.6267 153.7 41.36C153.686 41.6267 153.58 41.8467 153.38 42.02C153.18 42.1933 152.946 42.28 152.68 42.28H144.92L144.44 40.58H151.96L151.58 40.94V40.44C151.54 39.9733 151.38 39.5667 151.1 39.22C150.82 38.86 150.473 38.5867 150.06 38.4C149.66 38.2 149.233 38.1 148.78 38.1C148.38 38.1 147.993 38.1667 147.62 38.3C147.246 38.42 146.92 38.62 146.64 38.9C146.36 39.18 146.133 39.5533 145.96 40.02C145.786 40.4733 145.7 41.04 145.7 41.72C145.7 42.4533 145.853 43.0933 146.16 43.64C146.466 44.1867 146.88 44.6133 147.4 44.92C147.92 45.2133 148.5 45.36 149.14 45.36C149.62 45.36 150.02 45.3133 150.34 45.22C150.66 45.1133 150.926 44.9867 151.14 44.84C151.353 44.6933 151.54 44.5533 151.7 44.42C151.913 44.3 152.113 44.24 152.3 44.24C152.54 44.24 152.74 44.3267 152.9 44.5C153.06 44.66 153.14 44.8533 153.14 45.08C153.14 45.3733 152.993 45.64 152.7 45.88C152.34 46.2267 151.84 46.5333 151.2 46.8C150.573 47.0667 149.913 47.2 149.22 47.2ZM161.165 36.3C162.085 36.3 162.798 36.5 163.305 36.9C163.812 37.2867 164.165 37.8133 164.365 38.48C164.578 39.1467 164.685 39.88 164.685 40.68V45.98C164.685 46.2733 164.585 46.52 164.385 46.72C164.198 46.9067 163.965 47 163.685 47C163.392 47 163.152 46.9067 162.965 46.72C162.778 46.52 162.685 46.2733 162.685 45.98V40.68C162.685 40.2133 162.618 39.7867 162.485 39.4C162.365 39.0133 162.145 38.7067 161.825 38.48C161.518 38.2533 161.085 38.14 160.525 38.14C160.005 38.14 159.538 38.2533 159.125 38.48C158.725 38.7067 158.412 39.0133 158.185 39.4C157.972 39.7867 157.865 40.2133 157.865 40.68V45.98C157.865 46.2733 157.765 46.52 157.565 46.72C157.378 46.9067 157.145 47 156.865 47C156.572 47 156.332 46.9067 156.145 46.72C155.958 46.52 155.865 46.2733 155.865 45.98V33.22C155.865 32.9267 155.958 32.6867 156.145 32.5C156.332 32.3 156.572 32.2 156.865 32.2C157.145 32.2 157.378 32.3 157.565 32.5C157.765 32.6867 157.865 32.9267 157.865 33.22V38.68L157.505 38.88C157.598 38.5867 157.752 38.2867 157.965 37.98C158.192 37.6733 158.465 37.3933 158.785 37.14C159.118 36.8867 159.485 36.6867 159.885 36.54C160.285 36.38 160.712 36.3 161.165 36.3ZM176.006 36.32C176.286 36.32 176.52 36.42 176.706 36.62C176.906 36.8067 177.006 37.0467 177.006 37.34V45.98C177.006 46.2733 176.906 46.52 176.706 46.72C176.52 46.9067 176.286 47 176.006 47C175.713 47 175.473 46.9067 175.286 46.72C175.1 46.52 175.006 46.2733 175.006 45.98V44.54L175.406 44.6C175.406 44.84 175.306 45.1067 175.106 45.4C174.92 45.6933 174.66 45.98 174.326 46.26C173.993 46.5267 173.6 46.7533 173.146 46.94C172.693 47.1133 172.206 47.2 171.686 47.2C170.766 47.2 169.94 46.9667 169.206 46.5C168.473 46.02 167.893 45.3667 167.466 44.54C167.04 43.7133 166.826 42.7733 166.826 41.72C166.826 40.64 167.04 39.6933 167.466 38.88C167.893 38.0533 168.466 37.4067 169.186 36.94C169.92 36.4733 170.733 36.24 171.626 36.24C172.2 36.24 172.726 36.3333 173.206 36.52C173.7 36.7067 174.126 36.9467 174.486 37.24C174.846 37.5333 175.126 37.8467 175.326 38.18C175.526 38.5 175.626 38.8067 175.626 39.1L175.006 39.16V37.34C175.006 37.06 175.1 36.82 175.286 36.62C175.473 36.42 175.713 36.32 176.006 36.32ZM171.926 45.36C172.553 45.36 173.1 45.2 173.566 44.88C174.046 44.56 174.42 44.1267 174.686 43.58C174.953 43.02 175.086 42.4 175.086 41.72C175.086 41.0267 174.953 40.4067 174.686 39.86C174.42 39.3133 174.046 38.88 173.566 38.56C173.1 38.24 172.553 38.08 171.926 38.08C171.313 38.08 170.766 38.24 170.286 38.56C169.806 38.88 169.433 39.3133 169.166 39.86C168.9 40.4067 168.766 41.0267 168.766 41.72C168.766 42.4 168.9 43.02 169.166 43.58C169.433 44.1267 169.8 44.56 170.266 44.88C170.746 45.2 171.3 45.36 171.926 45.36ZM185.211 36.24C186.157 36.24 186.891 36.44 187.411 36.84C187.931 37.2267 188.291 37.7533 188.491 38.42C188.704 39.0733 188.811 39.8067 188.811 40.62V45.98C188.811 46.2733 188.711 46.52 188.511 46.72C188.324 46.9067 188.091 47 187.811 47C187.517 47 187.277 46.9067 187.091 46.72C186.904 46.52 186.811 46.2733 186.811 45.98V40.64C186.811 40.16 186.744 39.7333 186.611 39.36C186.477 38.9733 186.244 38.6667 185.911 38.44C185.591 38.2 185.137 38.08 184.551 38.08C184.004 38.08 183.524 38.2 183.111 38.44C182.697 38.6667 182.371 38.9733 182.131 39.36C181.904 39.7333 181.791 40.16 181.791 40.64V45.98C181.791 46.2733 181.691 46.52 181.491 46.72C181.304 46.9067 181.071 47 180.791 47C180.497 47 180.257 46.9067 180.071 46.72C179.884 46.52 179.791 46.2733 179.791 45.98V37.5C179.791 37.2067 179.884 36.9667 180.071 36.78C180.257 36.58 180.497 36.48 180.791 36.48C181.071 36.48 181.304 36.58 181.491 36.78C181.691 36.9667 181.791 37.2067 181.791 37.5V38.62L181.431 38.82C181.524 38.5267 181.684 38.2333 181.911 37.94C182.151 37.6333 182.437 37.3533 182.771 37.1C183.104 36.8333 183.477 36.6267 183.891 36.48C184.304 36.32 184.744 36.24 185.211 36.24ZM200.128 32.2C200.408 32.2 200.641 32.2933 200.828 32.48C201.028 32.6667 201.128 32.9133 201.128 33.22V45.98C201.128 46.2733 201.028 46.52 200.828 46.72C200.641 46.9067 200.408 47 200.128 47C199.834 47 199.594 46.9067 199.408 46.72C199.221 46.52 199.128 46.2733 199.128 45.98V44.54L199.528 44.56C199.528 44.8 199.428 45.0733 199.228 45.38C199.041 45.6733 198.781 45.96 198.448 46.24C198.114 46.52 197.721 46.7533 197.268 46.94C196.814 47.1133 196.328 47.2 195.808 47.2C194.901 47.2 194.074 46.9667 193.328 46.5C192.594 46.02 192.014 45.3733 191.588 44.56C191.161 43.7333 190.948 42.7867 190.948 41.72C190.948 40.6533 191.161 39.7133 191.588 38.9C192.014 38.0733 192.588 37.4267 193.308 36.96C194.041 36.48 194.854 36.24 195.748 36.24C196.308 36.24 196.828 36.3333 197.308 36.52C197.801 36.7067 198.228 36.9467 198.588 37.24C198.948 37.5333 199.228 37.8467 199.428 38.18C199.641 38.5 199.748 38.8067 199.748 39.1L199.128 39.16V33.22C199.128 32.9267 199.221 32.6867 199.408 32.5C199.594 32.3 199.834 32.2 200.128 32.2ZM196.048 45.36C196.674 45.36 197.221 45.2 197.688 44.88C198.168 44.56 198.541 44.1267 198.808 43.58C199.074 43.0333 199.208 42.4133 199.208 41.72C199.208 41.0267 199.074 40.4067 198.808 39.86C198.541 39.3133 198.168 38.88 197.688 38.56C197.221 38.24 196.674 38.08 196.048 38.08C195.434 38.08 194.888 38.24 194.408 38.56C193.928 38.88 193.554 39.3133 193.288 39.86C193.021 40.4067 192.888 41.0267 192.888 41.72C192.888 42.4133 193.021 43.0333 193.288 43.58C193.554 44.1267 193.928 44.56 194.408 44.88C194.888 45.2 195.434 45.36 196.048 45.36ZM208.712 47.2C207.618 47.2 206.658 46.9733 205.832 46.52C205.018 46.0533 204.385 45.42 203.932 44.62C203.492 43.8067 203.272 42.88 203.272 41.84C203.272 40.6667 203.505 39.6667 203.972 38.84C204.452 38 205.072 37.36 205.832 36.92C206.605 36.4667 207.418 36.24 208.272 36.24C208.912 36.24 209.525 36.3733 210.112 36.64C210.712 36.8933 211.238 37.2533 211.692 37.72C212.145 38.1733 212.505 38.7133 212.772 39.34C213.038 39.9533 213.178 40.6267 213.192 41.36C213.178 41.6267 213.072 41.8467 212.872 42.02C212.672 42.1933 212.438 42.28 212.172 42.28H204.412L203.932 40.58H211.452L211.072 40.94V40.44C211.032 39.9733 210.872 39.5667 210.592 39.22C210.312 38.86 209.965 38.5867 209.552 38.4C209.152 38.2 208.725 38.1 208.272 38.1C207.872 38.1 207.485 38.1667 207.112 38.3C206.738 38.42 206.412 38.62 206.132 38.9C205.852 39.18 205.625 39.5533 205.452 40.02C205.278 40.4733 205.192 41.04 205.192 41.72C205.192 42.4533 205.345 43.0933 205.652 43.64C205.958 44.1867 206.372 44.6133 206.892 44.92C207.412 45.2133 207.992 45.36 208.632 45.36C209.112 45.36 209.512 45.3133 209.832 45.22C210.152 45.1133 210.418 44.9867 210.632 44.84C210.845 44.6933 211.032 44.5533 211.192 44.42C211.405 44.3 211.605 44.24 211.792 44.24C212.032 44.24 212.232 44.3267 212.392 44.5C212.552 44.66 212.632 44.8533 212.632 45.08C212.632 45.3733 212.485 45.64 212.192 45.88C211.832 46.2267 211.332 46.5333 210.692 46.8C210.065 47.0667 209.405 47.2 208.712 47.2ZM217.517 45.98C217.517 46.2733 217.417 46.52 217.217 46.72C217.03 46.9067 216.797 47 216.517 47C216.237 47 215.997 46.9067 215.797 46.72C215.61 46.52 215.517 46.2733 215.517 45.98V33.22C215.517 32.9267 215.617 32.6867 215.817 32.5C216.017 32.3 216.257 32.2 216.537 32.2C216.83 32.2 217.064 32.3 217.237 32.5C217.424 32.6867 217.517 32.9267 217.517 33.22V45.98ZM222.374 45.98C222.374 46.2733 222.28 46.52 222.094 46.72C221.907 46.9067 221.667 47 221.374 47C221.094 47 220.854 46.9067 220.654 46.72C220.467 46.52 220.374 46.2733 220.374 45.98V37.42C220.374 37.1267 220.467 36.8867 220.654 36.7C220.854 36.5 221.094 36.4 221.374 36.4C221.667 36.4 221.907 36.5 222.094 36.7C222.28 36.8867 222.374 37.1267 222.374 37.42V45.98ZM221.354 35.08C220.967 35.08 220.687 35.0133 220.514 34.88C220.34 34.7333 220.254 34.4933 220.254 34.16V33.84C220.254 33.5067 220.347 33.2733 220.534 33.14C220.72 33.0067 221 32.94 221.374 32.94C221.774 32.94 222.06 33.0133 222.234 33.16C222.407 33.2933 222.494 33.52 222.494 33.84V34.16C222.494 34.5067 222.4 34.7467 222.214 34.88C222.04 35.0133 221.754 35.08 221.354 35.08ZM230.484 36.24C231.431 36.24 232.164 36.44 232.684 36.84C233.204 37.2267 233.564 37.7533 233.764 38.42C233.977 39.0733 234.084 39.8067 234.084 40.62V45.98C234.084 46.2733 233.984 46.52 233.784 46.72C233.597 46.9067 233.364 47 233.084 47C232.791 47 232.551 46.9067 232.364 46.72C232.177 46.52 232.084 46.2733 232.084 45.98V40.64C232.084 40.16 232.017 39.7333 231.884 39.36C231.751 38.9733 231.517 38.6667 231.184 38.44C230.864 38.2 230.411 38.08 229.824 38.08C229.277 38.08 228.797 38.2 228.384 38.44C227.971 38.6667 227.644 38.9733 227.404 39.36C227.177 39.7333 227.064 40.16 227.064 40.64V45.98C227.064 46.2733 226.964 46.52 226.764 46.72C226.577 46.9067 226.344 47 226.064 47C225.771 47 225.531 46.9067 225.344 46.72C225.157 46.52 225.064 46.2733 225.064 45.98V37.5C225.064 37.2067 225.157 36.9667 225.344 36.78C225.531 36.58 225.771 36.48 226.064 36.48C226.344 36.48 226.577 36.58 226.764 36.78C226.964 36.9667 227.064 37.2067 227.064 37.5V38.62L226.704 38.82C226.797 38.5267 226.957 38.2333 227.184 37.94C227.424 37.6333 227.711 37.3533 228.044 37.1C228.377 36.8333 228.751 36.6267 229.164 36.48C229.577 36.32 230.017 36.24 230.484 36.24ZM241.141 36.24C241.714 36.24 242.241 36.3333 242.721 36.52C243.201 36.7067 243.614 36.9467 243.961 37.24C244.321 37.52 244.601 37.8133 244.801 38.12C245.001 38.4267 245.101 38.6933 245.101 38.92L244.641 38.94V37.34C244.641 37.06 244.734 36.82 244.921 36.62C245.108 36.42 245.348 36.32 245.641 36.32C245.934 36.32 246.174 36.42 246.361 36.62C246.548 36.8067 246.641 37.0467 246.641 37.34V46.16C246.641 47.2933 246.401 48.2133 245.921 48.92C245.441 49.64 244.801 50.1667 244.001 50.5C243.214 50.8333 242.348 51 241.401 51C241.068 51 240.674 50.9533 240.221 50.86C239.768 50.78 239.348 50.68 238.961 50.56C238.588 50.44 238.328 50.32 238.181 50.2C237.874 50.04 237.668 49.8533 237.561 49.64C237.468 49.4267 237.474 49.2133 237.581 49C237.701 48.7067 237.874 48.5267 238.101 48.46C238.328 48.3933 238.588 48.4133 238.881 48.52C239.014 48.56 239.221 48.6333 239.501 48.74C239.781 48.8467 240.094 48.94 240.441 49.02C240.788 49.1133 241.114 49.16 241.421 49.16C242.488 49.16 243.288 48.9133 243.821 48.42C244.368 47.9267 244.641 47.2533 244.641 46.4V44.6L244.881 44.74C244.841 45.02 244.714 45.3067 244.501 45.6C244.288 45.88 244.014 46.14 243.681 46.38C243.348 46.62 242.968 46.82 242.541 46.98C242.114 47.1267 241.668 47.2 241.201 47.2C240.268 47.2 239.421 46.9667 238.661 46.5C237.914 46.02 237.321 45.3733 236.881 44.56C236.441 43.7333 236.221 42.7867 236.221 41.72C236.221 40.6533 236.441 39.7133 236.881 38.9C237.321 38.0733 237.908 37.4267 238.641 36.96C239.388 36.48 240.221 36.24 241.141 36.24ZM241.441 38.08C240.801 38.08 240.228 38.24 239.721 38.56C239.228 38.88 238.841 39.3133 238.561 39.86C238.294 40.4067 238.161 41.0267 238.161 41.72C238.161 42.4133 238.294 43.0333 238.561 43.58C238.841 44.1267 239.228 44.56 239.721 44.88C240.228 45.2 240.801 45.36 241.441 45.36C242.094 45.36 242.668 45.2067 243.161 44.9C243.654 44.58 244.041 44.1467 244.321 43.6C244.601 43.04 244.741 42.4133 244.741 41.72C244.741 41.0267 244.601 40.4067 244.321 39.86C244.041 39.3 243.654 38.8667 243.161 38.56C242.668 38.24 242.094 38.08 241.441 38.08Z" fill="black"/>
<circle cx="40" cy="296" r="40" fill="#585858"/>
<path d="M55.75 287.375L51.9312 283.529L34.0833 301.377L27.0687 294.39L23.25 298.208L34.0833 309.042L55.75 287.375ZM58.4583 271.125H47.1375C46 267.983 43.0208 265.708 39.5 265.708C35.9792 265.708 33 267.983 31.8625 271.125H20.5417C20.1625 271.125 19.8104 271.152 19.4583 271.233C18.4021 271.45 17.4542 271.992 16.7229 272.723C16.2354 273.21 15.8292 273.806 15.5583 274.456C15.2875 275.079 15.125 275.783 15.125 276.542V314.458C15.125 315.19 15.2875 315.921 15.5583 316.571C15.8292 317.221 16.2354 317.79 16.7229 318.304C17.4542 319.035 18.4021 319.577 19.4583 319.794C19.8104 319.848 20.1625 319.875 20.5417 319.875H58.4583C61.4375 319.875 63.875 317.437 63.875 314.458V276.542C63.875 273.562 61.4375 271.125 58.4583 271.125ZM39.5 270.448C40.6104 270.448 41.5312 271.369 41.5312 272.479C41.5312 273.59 40.6104 274.51 39.5 274.51C38.3896 274.51 37.4687 273.59 37.4687 272.479C37.4687 271.369 38.3896 270.448 39.5 270.448ZM58.4583 314.458H20.5417V276.542H58.4583V314.458Z" fill="white"/>
<path d="M113.72 301.98C113.707 302.273 113.593 302.52 113.38 302.72C113.18 302.907 112.94 303 112.66 303C112.353 303 112.1 302.907 111.9 302.72C111.713 302.52 111.62 302.273 111.62 301.98V290.02C111.62 289.727 111.72 289.487 111.92 289.3C112.12 289.1 112.38 289 112.7 289C112.967 289 113.2 289.1 113.4 289.3C113.613 289.487 113.72 289.727 113.72 290.02V301.98ZM122.152 292.24C123.099 292.24 123.832 292.44 124.352 292.84C124.872 293.227 125.232 293.753 125.432 294.42C125.645 295.073 125.752 295.807 125.752 296.62V301.98C125.752 302.273 125.652 302.52 125.452 302.72C125.265 302.907 125.032 303 124.752 303C124.459 303 124.219 302.907 124.032 302.72C123.845 302.52 123.752 302.273 123.752 301.98V296.64C123.752 296.16 123.685 295.733 123.552 295.36C123.419 294.973 123.185 294.667 122.852 294.44C122.532 294.2 122.079 294.08 121.492 294.08C120.945 294.08 120.465 294.2 120.052 294.44C119.639 294.667 119.312 294.973 119.072 295.36C118.845 295.733 118.732 296.16 118.732 296.64V301.98C118.732 302.273 118.632 302.52 118.432 302.72C118.245 302.907 118.012 303 117.732 303C117.439 303 117.199 302.907 117.012 302.72C116.825 302.52 116.732 302.273 116.732 301.98V293.5C116.732 293.207 116.825 292.967 117.012 292.78C117.199 292.58 117.439 292.48 117.732 292.48C118.012 292.48 118.245 292.58 118.432 292.78C118.632 292.967 118.732 293.207 118.732 293.5V294.62L118.372 294.82C118.465 294.527 118.625 294.233 118.852 293.94C119.092 293.633 119.379 293.353 119.712 293.1C120.045 292.833 120.419 292.627 120.832 292.48C121.245 292.32 121.685 292.24 122.152 292.24ZM128.389 292.6H133.089C133.356 292.6 133.576 292.693 133.749 292.88C133.936 293.053 134.029 293.273 134.029 293.54C134.029 293.793 133.936 294.007 133.749 294.18C133.576 294.353 133.356 294.44 133.089 294.44H128.389C128.122 294.44 127.896 294.353 127.709 294.18C127.536 293.993 127.449 293.773 127.449 293.52C127.449 293.253 127.536 293.033 127.709 292.86C127.896 292.687 128.122 292.6 128.389 292.6ZM130.489 290C130.782 290 131.022 290.1 131.209 290.3C131.396 290.487 131.489 290.727 131.489 291.02V300.3C131.489 300.54 131.529 300.733 131.609 300.88C131.689 301.027 131.796 301.127 131.929 301.18C132.076 301.233 132.222 301.26 132.369 301.26C132.516 301.26 132.642 301.233 132.749 301.18C132.869 301.127 133.009 301.1 133.169 301.1C133.329 301.1 133.476 301.173 133.609 301.32C133.742 301.467 133.809 301.667 133.809 301.92C133.809 302.24 133.636 302.5 133.289 302.7C132.942 302.9 132.569 303 132.169 303C131.942 303 131.676 302.98 131.369 302.94C131.062 302.9 130.762 302.8 130.469 302.64C130.189 302.48 129.956 302.227 129.769 301.88C129.582 301.52 129.489 301.02 129.489 300.38V291.02C129.489 290.727 129.582 290.487 129.769 290.3C129.969 290.1 130.209 290 130.489 290ZM140.946 303.2C139.853 303.2 138.893 302.973 138.066 302.52C137.253 302.053 136.619 301.42 136.166 300.62C135.726 299.807 135.506 298.88 135.506 297.84C135.506 296.667 135.739 295.667 136.206 294.84C136.686 294 137.306 293.36 138.066 292.92C138.839 292.467 139.653 292.24 140.506 292.24C141.146 292.24 141.759 292.373 142.346 292.64C142.946 292.893 143.473 293.253 143.926 293.72C144.379 294.173 144.739 294.713 145.006 295.34C145.273 295.953 145.413 296.627 145.426 297.36C145.413 297.627 145.306 297.847 145.106 298.02C144.906 298.193 144.673 298.28 144.406 298.28H136.646L136.166 296.58H143.686L143.306 296.94V296.44C143.266 295.973 143.106 295.567 142.826 295.22C142.546 294.86 142.199 294.587 141.786 294.4C141.386 294.2 140.959 294.1 140.506 294.1C140.106 294.1 139.719 294.167 139.346 294.3C138.973 294.42 138.646 294.62 138.366 294.9C138.086 295.18 137.859 295.553 137.686 296.02C137.513 296.473 137.426 297.04 137.426 297.72C137.426 298.453 137.579 299.093 137.886 299.64C138.193 300.187 138.606 300.613 139.126 300.92C139.646 301.213 140.226 301.36 140.866 301.36C141.346 301.36 141.746 301.313 142.066 301.22C142.386 301.113 142.653 300.987 142.866 300.84C143.079 300.693 143.266 300.553 143.426 300.42C143.639 300.3 143.839 300.24 144.026 300.24C144.266 300.24 144.466 300.327 144.626 300.5C144.786 300.66 144.866 300.853 144.866 301.08C144.866 301.373 144.719 301.64 144.426 301.88C144.066 302.227 143.566 302.533 142.926 302.8C142.299 303.067 141.639 303.2 140.946 303.2ZM148.591 303C148.298 303 148.058 302.907 147.871 302.72C147.685 302.52 147.591 302.273 147.591 301.98V293.5C147.591 293.207 147.685 292.967 147.871 292.78C148.058 292.58 148.298 292.48 148.591 292.48C148.871 292.48 149.105 292.58 149.291 292.78C149.491 292.967 149.591 293.207 149.591 293.5V295.74L149.391 294.88C149.498 294.507 149.658 294.16 149.871 293.84C150.098 293.52 150.365 293.24 150.671 293C150.978 292.76 151.318 292.573 151.691 292.44C152.078 292.307 152.478 292.24 152.891 292.24C153.238 292.24 153.538 292.333 153.791 292.52C154.045 292.707 154.171 292.94 154.171 293.22C154.171 293.58 154.078 293.847 153.891 294.02C153.705 294.18 153.498 294.26 153.271 294.26C153.071 294.26 152.878 294.22 152.691 294.14C152.505 294.047 152.285 294 152.031 294C151.751 294 151.465 294.073 151.171 294.22C150.878 294.367 150.611 294.587 150.371 294.88C150.131 295.16 149.938 295.493 149.791 295.88C149.658 296.267 149.591 296.7 149.591 297.18V301.98C149.591 302.273 149.491 302.52 149.291 302.72C149.105 302.907 148.871 303 148.591 303ZM157.187 292.38C157.387 292.38 157.574 292.433 157.747 292.54C157.934 292.647 158.067 292.807 158.147 293.02L161.287 300.28L160.907 300.46L164.087 293.04C164.274 292.6 164.574 292.387 164.987 292.4C165.254 292.4 165.474 292.487 165.647 292.66C165.834 292.82 165.927 293.033 165.927 293.3C165.927 293.38 165.914 293.467 165.887 293.56C165.86 293.64 165.827 293.72 165.787 293.8L161.987 302.36C161.814 302.76 161.527 302.973 161.127 303C160.927 303.027 160.727 302.987 160.527 302.88C160.34 302.76 160.194 302.587 160.087 302.36L156.307 293.8C156.28 293.747 156.254 293.68 156.227 293.6C156.2 293.507 156.187 293.4 156.187 293.28C156.187 293.08 156.274 292.88 156.447 292.68C156.634 292.48 156.88 292.38 157.187 292.38ZM169.843 301.98C169.843 302.273 169.749 302.52 169.563 302.72C169.376 302.907 169.136 303 168.843 303C168.563 303 168.323 302.907 168.123 302.72C167.936 302.52 167.843 302.273 167.843 301.98V293.42C167.843 293.127 167.936 292.887 168.123 292.7C168.323 292.5 168.563 292.4 168.843 292.4C169.136 292.4 169.376 292.5 169.563 292.7C169.749 292.887 169.843 293.127 169.843 293.42V301.98ZM168.823 291.08C168.436 291.08 168.156 291.013 167.983 290.88C167.809 290.733 167.723 290.493 167.723 290.16V289.84C167.723 289.507 167.816 289.273 168.003 289.14C168.189 289.007 168.469 288.94 168.843 288.94C169.243 288.94 169.529 289.013 169.703 289.16C169.876 289.293 169.963 289.52 169.963 289.84V290.16C169.963 290.507 169.869 290.747 169.683 290.88C169.509 291.013 169.223 291.08 168.823 291.08ZM177.333 303.2C176.239 303.2 175.279 302.973 174.453 302.52C173.639 302.053 173.006 301.42 172.553 300.62C172.113 299.807 171.893 298.88 171.893 297.84C171.893 296.667 172.126 295.667 172.593 294.84C173.073 294 173.693 293.36 174.453 292.92C175.226 292.467 176.039 292.24 176.893 292.24C177.533 292.24 178.146 292.373 178.733 292.64C179.333 292.893 179.859 293.253 180.313 293.72C180.766 294.173 181.126 294.713 181.393 295.34C181.659 295.953 181.799 296.627 181.813 297.36C181.799 297.627 181.693 297.847 181.493 298.02C181.293 298.193 181.059 298.28 180.793 298.28H173.033L172.553 296.58H180.073L179.693 296.94V296.44C179.653 295.973 179.493 295.567 179.213 295.22C178.933 294.86 178.586 294.587 178.173 294.4C177.773 294.2 177.346 294.1 176.893 294.1C176.493 294.1 176.106 294.167 175.733 294.3C175.359 294.42 175.033 294.62 174.753 294.9C174.473 295.18 174.246 295.553 174.073 296.02C173.899 296.473 173.813 297.04 173.813 297.72C173.813 298.453 173.966 299.093 174.273 299.64C174.579 300.187 174.993 300.613 175.513 300.92C176.033 301.213 176.613 301.36 177.253 301.36C177.733 301.36 178.133 301.313 178.453 301.22C178.773 301.113 179.039 300.987 179.253 300.84C179.466 300.693 179.653 300.553 179.813 300.42C180.026 300.3 180.226 300.24 180.413 300.24C180.653 300.24 180.853 300.327 181.013 300.5C181.173 300.66 181.253 300.853 181.253 301.08C181.253 301.373 181.106 301.64 180.813 301.88C180.453 302.227 179.953 302.533 179.313 302.8C178.686 303.067 178.026 303.2 177.333 303.2ZM196.238 292.38C196.491 292.38 196.711 292.48 196.898 292.68C197.098 292.867 197.198 293.113 197.198 293.42C197.198 293.487 197.191 293.553 197.178 293.62C197.165 293.687 197.145 293.747 197.118 293.8L194.058 302.36C193.978 302.587 193.838 302.76 193.638 302.88C193.438 302.987 193.231 303.027 193.018 303C192.631 302.973 192.345 302.76 192.158 302.36L189.898 296.36L190.358 296.4L188.278 302.36C188.091 302.76 187.805 302.973 187.418 303C187.218 303.027 187.011 302.987 186.798 302.88C186.598 302.76 186.458 302.587 186.378 302.36L183.298 293.8C183.245 293.68 183.218 293.553 183.218 293.42C183.218 293.14 183.305 292.9 183.478 292.7C183.665 292.487 183.911 292.38 184.218 292.38C184.431 292.38 184.618 292.433 184.778 292.54C184.951 292.647 185.071 292.807 185.138 293.02L187.698 300.24L187.238 300.2L189.318 294.74C189.491 294.327 189.798 294.12 190.238 294.12C190.478 294.12 190.665 294.173 190.798 294.28C190.931 294.387 191.038 294.54 191.118 294.74L193.238 300.22L192.698 300.28L195.278 293.02C195.411 292.593 195.731 292.38 196.238 292.38ZM206.678 301.98C206.678 302.273 206.585 302.52 206.398 302.72C206.212 302.907 205.972 303 205.678 303C205.398 303 205.158 302.907 204.958 302.72C204.772 302.52 204.678 302.273 204.678 301.98V293.42C204.678 293.127 204.772 292.887 204.958 292.7C205.158 292.5 205.398 292.4 205.678 292.4C205.972 292.4 206.212 292.5 206.398 292.7C206.585 292.887 206.678 293.127 206.678 293.42V301.98ZM205.658 291.08C205.272 291.08 204.992 291.013 204.818 290.88C204.645 290.733 204.558 290.493 204.558 290.16V289.84C204.558 289.507 204.652 289.273 204.838 289.14C205.025 289.007 205.305 288.94 205.678 288.94C206.078 288.94 206.365 289.013 206.538 289.16C206.712 289.293 206.798 289.52 206.798 289.84V290.16C206.798 290.507 206.705 290.747 206.518 290.88C206.345 291.013 206.058 291.08 205.658 291.08ZM214.789 292.24C215.735 292.24 216.469 292.44 216.989 292.84C217.509 293.227 217.869 293.753 218.069 294.42C218.282 295.073 218.389 295.807 218.389 296.62V301.98C218.389 302.273 218.289 302.52 218.089 302.72C217.902 302.907 217.669 303 217.389 303C217.095 303 216.855 302.907 216.669 302.72C216.482 302.52 216.389 302.273 216.389 301.98V296.64C216.389 296.16 216.322 295.733 216.189 295.36C216.055 294.973 215.822 294.667 215.489 294.44C215.169 294.2 214.715 294.08 214.129 294.08C213.582 294.08 213.102 294.2 212.689 294.44C212.275 294.667 211.949 294.973 211.709 295.36C211.482 295.733 211.369 296.16 211.369 296.64V301.98C211.369 302.273 211.269 302.52 211.069 302.72C210.882 302.907 210.649 303 210.369 303C210.075 303 209.835 302.907 209.649 302.72C209.462 302.52 209.369 302.273 209.369 301.98V293.5C209.369 293.207 209.462 292.967 209.649 292.78C209.835 292.58 210.075 292.48 210.369 292.48C210.649 292.48 210.882 292.58 211.069 292.78C211.269 292.967 211.369 293.207 211.369 293.5V294.62L211.009 294.82C211.102 294.527 211.262 294.233 211.489 293.94C211.729 293.633 212.015 293.353 212.349 293.1C212.682 292.833 213.055 292.627 213.469 292.48C213.882 292.32 214.322 292.24 214.789 292.24ZM225.446 292.24C226.019 292.24 226.546 292.333 227.026 292.52C227.506 292.707 227.919 292.947 228.266 293.24C228.626 293.52 228.906 293.813 229.106 294.12C229.306 294.427 229.406 294.693 229.406 294.92L228.946 294.94V293.34C228.946 293.06 229.039 292.82 229.226 292.62C229.412 292.42 229.652 292.32 229.946 292.32C230.239 292.32 230.479 292.42 230.666 292.62C230.852 292.807 230.946 293.047 230.946 293.34V302.16C230.946 303.293 230.706 304.213 230.226 304.92C229.746 305.64 229.106 306.167 228.306 306.5C227.519 306.833 226.652 307 225.706 307C225.372 307 224.979 306.953 224.526 306.86C224.072 306.78 223.652 306.68 223.266 306.56C222.892 306.44 222.632 306.32 222.486 306.2C222.179 306.04 221.972 305.853 221.866 305.64C221.772 305.427 221.779 305.213 221.886 305C222.006 304.707 222.179 304.527 222.406 304.46C222.632 304.393 222.892 304.413 223.186 304.52C223.319 304.56 223.526 304.633 223.806 304.74C224.086 304.847 224.399 304.94 224.746 305.02C225.092 305.113 225.419 305.16 225.726 305.16C226.792 305.16 227.592 304.913 228.126 304.42C228.672 303.927 228.946 303.253 228.946 302.4V300.6L229.186 300.74C229.146 301.02 229.019 301.307 228.806 301.6C228.592 301.88 228.319 302.14 227.986 302.38C227.652 302.62 227.272 302.82 226.846 302.98C226.419 303.127 225.972 303.2 225.506 303.2C224.572 303.2 223.726 302.967 222.966 302.5C222.219 302.02 221.626 301.373 221.186 300.56C220.746 299.733 220.526 298.787 220.526 297.72C220.526 296.653 220.746 295.713 221.186 294.9C221.626 294.073 222.212 293.427 222.946 292.96C223.692 292.48 224.526 292.24 225.446 292.24ZM225.746 294.08C225.106 294.08 224.532 294.24 224.026 294.56C223.532 294.88 223.146 295.313 222.866 295.86C222.599 296.407 222.466 297.027 222.466 297.72C222.466 298.413 222.599 299.033 222.866 299.58C223.146 300.127 223.532 300.56 224.026 300.88C224.532 301.2 225.106 301.36 225.746 301.36C226.399 301.36 226.972 301.207 227.466 300.9C227.959 300.58 228.346 300.147 228.626 299.6C228.906 299.04 229.046 298.413 229.046 297.72C229.046 297.027 228.906 296.407 228.626 295.86C228.346 295.3 227.959 294.867 227.466 294.56C226.972 294.24 226.399 294.08 225.746 294.08ZM238.153 303.2C237.06 303.2 236.1 302.973 235.273 302.52C234.46 302.053 233.826 301.42 233.373 300.62C232.933 299.807 232.713 298.88 232.713 297.84C232.713 296.667 232.946 295.667 233.413 294.84C233.893 294 234.513 293.36 235.273 292.92C236.046 292.467 236.86 292.24 237.713 292.24C238.353 292.24 238.966 292.373 239.553 292.64C240.153 292.893 240.68 293.253 241.133 293.72C241.586 294.173 241.946 294.713 242.213 295.34C242.48 295.953 242.62 296.627 242.633 297.36C242.62 297.627 242.513 297.847 242.313 298.02C242.113 298.193 241.88 298.28 241.613 298.28H233.853L233.373 296.58H240.893L240.513 296.94V296.44C240.473 295.973 240.313 295.567 240.033 295.22C239.753 294.86 239.406 294.587 238.993 294.4C238.593 294.2 238.166 294.1 237.713 294.1C237.313 294.1 236.926 294.167 236.553 294.3C236.18 294.42 235.853 294.62 235.573 294.9C235.293 295.18 235.066 295.553 234.893 296.02C234.72 296.473 234.633 297.04 234.633 297.72C234.633 298.453 234.786 299.093 235.093 299.64C235.4 300.187 235.813 300.613 236.333 300.92C236.853 301.213 237.433 301.36 238.073 301.36C238.553 301.36 238.953 301.313 239.273 301.22C239.593 301.113 239.86 300.987 240.073 300.84C240.286 300.693 240.473 300.553 240.633 300.42C240.846 300.3 241.046 300.24 241.233 300.24C241.473 300.24 241.673 300.327 241.833 300.5C241.993 300.66 242.073 300.853 242.073 301.08C242.073 301.373 241.926 301.64 241.633 301.88C241.273 302.227 240.773 302.533 240.133 302.8C239.506 303.067 238.846 303.2 238.153 303.2ZM250.098 292.3C251.032 292.3 251.858 292.533 252.578 293C253.312 293.467 253.892 294.107 254.318 294.92C254.745 295.72 254.958 296.653 254.958 297.72C254.958 298.787 254.745 299.733 254.318 300.56C253.892 301.373 253.318 302.013 252.598 302.48C251.878 302.947 251.065 303.18 250.158 303.18C249.652 303.18 249.172 303.1 248.718 302.94C248.265 302.78 247.865 302.573 247.518 302.32C247.172 302.053 246.885 301.773 246.658 301.48C246.445 301.187 246.312 300.913 246.258 300.66L246.798 300.4V305.98C246.798 306.273 246.698 306.513 246.498 306.7C246.312 306.9 246.078 307 245.798 307C245.505 307 245.265 306.9 245.078 306.7C244.892 306.513 244.798 306.273 244.798 305.98V293.46C244.798 293.18 244.892 292.94 245.078 292.74C245.265 292.54 245.505 292.44 245.798 292.44C246.078 292.44 246.312 292.54 246.498 292.74C246.698 292.94 246.798 293.18 246.798 293.46V294.84L246.478 294.66C246.518 294.407 246.645 294.147 246.858 293.88C247.072 293.6 247.338 293.34 247.658 293.1C247.992 292.86 248.365 292.667 248.778 292.52C249.205 292.373 249.645 292.3 250.098 292.3ZM249.878 294.14C249.238 294.14 248.678 294.3 248.198 294.62C247.732 294.927 247.365 295.347 247.098 295.88C246.832 296.413 246.698 297.027 246.698 297.72C246.698 298.4 246.832 299.02 247.098 299.58C247.365 300.127 247.732 300.56 248.198 300.88C248.678 301.187 249.238 301.34 249.878 301.34C250.505 301.34 251.052 301.187 251.518 300.88C251.985 300.56 252.352 300.127 252.618 299.58C252.898 299.02 253.038 298.4 253.038 297.72C253.038 297.04 252.898 296.433 252.618 295.9C252.352 295.353 251.985 294.927 251.518 294.62C251.052 294.3 250.505 294.14 249.878 294.14ZM259.283 301.98C259.283 302.273 259.183 302.52 258.983 302.72C258.796 302.907 258.563 303 258.283 303C258.003 303 257.763 302.907 257.563 302.72C257.376 302.52 257.283 302.273 257.283 301.98V289.22C257.283 288.927 257.383 288.687 257.583 288.5C257.783 288.3 258.023 288.2 258.303 288.2C258.596 288.2 258.829 288.3 259.003 288.5C259.189 288.687 259.283 288.927 259.283 289.22V301.98ZM270.799 292.32C271.079 292.32 271.313 292.42 271.499 292.62C271.699 292.807 271.799 293.047 271.799 293.34V301.98C271.799 302.273 271.699 302.52 271.499 302.72C271.313 302.907 271.079 303 270.799 303C270.506 303 270.266 302.907 270.079 302.72C269.893 302.52 269.799 302.273 269.799 301.98V300.54L270.199 300.6C270.199 300.84 270.099 301.107 269.899 301.4C269.713 301.693 269.453 301.98 269.119 302.26C268.786 302.527 268.393 302.753 267.939 302.94C267.486 303.113 266.999 303.2 266.479 303.2C265.559 303.2 264.733 302.967 263.999 302.5C263.266 302.02 262.686 301.367 262.259 300.54C261.833 299.713 261.619 298.773 261.619 297.72C261.619 296.64 261.833 295.693 262.259 294.88C262.686 294.053 263.259 293.407 263.979 292.94C264.713 292.473 265.526 292.24 266.419 292.24C266.993 292.24 267.519 292.333 267.999 292.52C268.493 292.707 268.919 292.947 269.279 293.24C269.639 293.533 269.919 293.847 270.119 294.18C270.319 294.5 270.419 294.807 270.419 295.1L269.799 295.16V293.34C269.799 293.06 269.893 292.82 270.079 292.62C270.266 292.42 270.506 292.32 270.799 292.32ZM266.719 301.36C267.346 301.36 267.893 301.2 268.359 300.88C268.839 300.56 269.213 300.127 269.479 299.58C269.746 299.02 269.879 298.4 269.879 297.72C269.879 297.027 269.746 296.407 269.479 295.86C269.213 295.313 268.839 294.88 268.359 294.56C267.893 294.24 267.346 294.08 266.719 294.08C266.106 294.08 265.559 294.24 265.079 294.56C264.599 294.88 264.226 295.313 263.959 295.86C263.693 296.407 263.559 297.027 263.559 297.72C263.559 298.4 263.693 299.02 263.959 299.58C264.226 300.127 264.593 300.56 265.059 300.88C265.539 301.2 266.093 301.36 266.719 301.36ZM280.004 292.24C280.95 292.24 281.684 292.44 282.204 292.84C282.724 293.227 283.084 293.753 283.284 294.42C283.497 295.073 283.604 295.807 283.604 296.62V301.98C283.604 302.273 283.504 302.52 283.304 302.72C283.117 302.907 282.884 303 282.604 303C282.31 303 282.07 302.907 281.884 302.72C281.697 302.52 281.604 302.273 281.604 301.98V296.64C281.604 296.16 281.537 295.733 281.404 295.36C281.27 294.973 281.037 294.667 280.704 294.44C280.384 294.2 279.93 294.08 279.344 294.08C278.797 294.08 278.317 294.2 277.904 294.44C277.49 294.667 277.164 294.973 276.924 295.36C276.697 295.733 276.584 296.16 276.584 296.64V301.98C276.584 302.273 276.484 302.52 276.284 302.72C276.097 302.907 275.864 303 275.584 303C275.29 303 275.05 302.907 274.864 302.72C274.677 302.52 274.584 302.273 274.584 301.98V293.5C274.584 293.207 274.677 292.967 274.864 292.78C275.05 292.58 275.29 292.48 275.584 292.48C275.864 292.48 276.097 292.58 276.284 292.78C276.484 292.967 276.584 293.207 276.584 293.5V294.62L276.224 294.82C276.317 294.527 276.477 294.233 276.704 293.94C276.944 293.633 277.23 293.353 277.564 293.1C277.897 292.833 278.27 292.627 278.684 292.48C279.097 292.32 279.537 292.24 280.004 292.24ZM294.92 288.2C295.2 288.2 295.434 288.293 295.62 288.48C295.82 288.667 295.92 288.913 295.92 289.22V301.98C295.92 302.273 295.82 302.52 295.62 302.72C295.434 302.907 295.2 303 294.92 303C294.627 303 294.387 302.907 294.2 302.72C294.014 302.52 293.92 302.273 293.92 301.98V300.54L294.32 300.56C294.32 300.8 294.22 301.073 294.02 301.38C293.834 301.673 293.574 301.96 293.24 302.24C292.907 302.52 292.514 302.753 292.06 302.94C291.607 303.113 291.12 303.2 290.6 303.2C289.694 303.2 288.867 302.967 288.12 302.5C287.387 302.02 286.807 301.373 286.38 300.56C285.954 299.733 285.74 298.787 285.74 297.72C285.74 296.653 285.954 295.713 286.38 294.9C286.807 294.073 287.38 293.427 288.1 292.96C288.834 292.48 289.647 292.24 290.54 292.24C291.1 292.24 291.62 292.333 292.1 292.52C292.594 292.707 293.02 292.947 293.38 293.24C293.74 293.533 294.02 293.847 294.22 294.18C294.434 294.5 294.54 294.807 294.54 295.1L293.92 295.16V289.22C293.92 288.927 294.014 288.687 294.2 288.5C294.387 288.3 294.627 288.2 294.92 288.2ZM290.84 301.36C291.467 301.36 292.014 301.2 292.48 300.88C292.96 300.56 293.334 300.127 293.6 299.58C293.867 299.033 294 298.413 294 297.72C294 297.027 293.867 296.407 293.6 295.86C293.334 295.313 292.96 294.88 292.48 294.56C292.014 294.24 291.467 294.08 290.84 294.08C290.227 294.08 289.68 294.24 289.2 294.56C288.72 294.88 288.347 295.313 288.08 295.86C287.814 296.407 287.68 297.027 287.68 297.72C287.68 298.413 287.814 299.033 288.08 299.58C288.347 300.127 288.72 300.56 289.2 300.88C289.68 301.2 290.227 301.36 290.84 301.36Z" fill="black"/>
<circle cx="40" cy="552" r="40" fill="#585858"/>
<path d="M39.5003 524.417C24.5503 524.417 12.417 536.55 12.417 551.5C12.417 566.45 24.5503 578.583 39.5003 578.583C54.4503 578.583 66.5837 566.45 66.5837 551.5C66.5837 536.55 54.4503 524.417 39.5003 524.417ZM39.5003 573.167C27.5566 573.167 17.8337 563.444 17.8337 551.5C17.8337 539.556 27.5566 529.833 39.5003 529.833C51.4441 529.833 61.167 539.556 61.167 551.5C61.167 563.444 51.4441 573.167 39.5003 573.167ZM51.9316 539.529L34.0837 557.377L27.0691 550.39L23.2503 554.208L34.0837 565.042L55.7503 543.375L51.9316 539.529Z" fill="white"/>
<path d="M117.26 545C117.967 545 118.62 545.193 119.22 545.58C119.82 545.953 120.3 546.467 120.66 547.12C121.02 547.773 121.2 548.507 121.2 549.32C121.2 550.133 121.02 550.873 120.66 551.54C120.3 552.193 119.82 552.72 119.22 553.12C118.62 553.507 117.967 553.7 117.26 553.7H113.4L113.56 553.38V557.98C113.56 558.273 113.467 558.52 113.28 558.72C113.107 558.907 112.873 559 112.58 559C112.3 559 112.067 558.907 111.88 558.72C111.707 558.52 111.62 558.273 111.62 557.98V546.02C111.62 545.727 111.72 545.487 111.92 545.3C112.12 545.1 112.36 545 112.64 545H117.26ZM117.26 551.78C117.607 551.78 117.92 551.667 118.2 551.44C118.493 551.213 118.727 550.913 118.9 550.54C119.087 550.167 119.18 549.76 119.18 549.32C119.18 548.88 119.087 548.48 118.9 548.12C118.727 547.76 118.493 547.473 118.2 547.26C117.92 547.033 117.607 546.92 117.26 546.92H113.36L113.56 546.62V552.04L113.38 551.78H117.26ZM124.412 559C124.118 559 123.878 558.907 123.692 558.72C123.505 558.52 123.412 558.273 123.412 557.98V549.5C123.412 549.207 123.505 548.967 123.692 548.78C123.878 548.58 124.118 548.48 124.412 548.48C124.692 548.48 124.925 548.58 125.112 548.78C125.312 548.967 125.412 549.207 125.412 549.5V551.74L125.212 550.88C125.318 550.507 125.478 550.16 125.692 549.84C125.918 549.52 126.185 549.24 126.492 549C126.798 548.76 127.138 548.573 127.512 548.44C127.898 548.307 128.298 548.24 128.712 548.24C129.058 548.24 129.358 548.333 129.612 548.52C129.865 548.707 129.992 548.94 129.992 549.22C129.992 549.58 129.898 549.847 129.712 550.02C129.525 550.18 129.318 550.26 129.092 550.26C128.892 550.26 128.698 550.22 128.512 550.14C128.325 550.047 128.105 550 127.852 550C127.572 550 127.285 550.073 126.992 550.22C126.698 550.367 126.432 550.587 126.192 550.88C125.952 551.16 125.758 551.493 125.612 551.88C125.478 552.267 125.412 552.7 125.412 553.18V557.98C125.412 558.273 125.312 558.52 125.112 558.72C124.925 558.907 124.692 559 124.412 559ZM141.322 553.74C141.322 554.807 141.082 555.753 140.602 556.58C140.135 557.393 139.502 558.033 138.702 558.5C137.902 558.967 137.002 559.2 136.002 559.2C135.015 559.2 134.115 558.967 133.302 558.5C132.502 558.033 131.862 557.393 131.382 556.58C130.915 555.753 130.682 554.807 130.682 553.74C130.682 552.66 130.915 551.713 131.382 550.9C131.862 550.073 132.502 549.427 133.302 548.96C134.115 548.48 135.015 548.24 136.002 548.24C137.002 548.24 137.902 548.48 138.702 548.96C139.502 549.427 140.135 550.073 140.602 550.9C141.082 551.713 141.322 552.66 141.322 553.74ZM139.322 553.74C139.322 553.007 139.175 552.373 138.882 551.84C138.589 551.293 138.189 550.867 137.682 550.56C137.189 550.24 136.629 550.08 136.002 550.08C135.389 550.08 134.829 550.24 134.322 550.56C133.829 550.867 133.429 551.293 133.122 551.84C132.829 552.373 132.682 553.007 132.682 553.74C132.682 554.447 132.829 555.073 133.122 555.62C133.429 556.167 133.829 556.593 134.322 556.9C134.829 557.207 135.389 557.36 136.002 557.36C136.629 557.36 137.189 557.207 137.682 556.9C138.189 556.593 138.589 556.167 138.882 555.62C139.175 555.073 139.322 554.447 139.322 553.74ZM148.39 544.22C148.643 544.22 148.903 544.253 149.17 544.32C149.437 544.387 149.657 544.5 149.83 544.66C150.017 544.807 150.11 545.013 150.11 545.28C150.11 545.547 150.03 545.767 149.87 545.94C149.71 546.1 149.523 546.18 149.31 546.18C149.177 546.18 148.997 546.153 148.77 546.1C148.543 546.033 148.317 546 148.09 546C147.783 546 147.537 546.073 147.35 546.22C147.163 546.353 147.03 546.527 146.95 546.74C146.87 546.94 146.83 547.14 146.83 547.34V557.98C146.83 558.273 146.73 558.52 146.53 558.72C146.343 558.907 146.11 559 145.83 559C145.537 559 145.297 558.907 145.11 558.72C144.923 558.52 144.83 558.273 144.83 557.98V547.36C144.83 546.44 145.13 545.687 145.73 545.1C146.343 544.513 147.23 544.22 148.39 544.22ZM148.79 548.66C149.057 548.66 149.277 548.747 149.45 548.92C149.623 549.093 149.71 549.313 149.71 549.58C149.71 549.847 149.623 550.067 149.45 550.24C149.277 550.413 149.057 550.5 148.79 550.5H143.61C143.357 550.5 143.137 550.413 142.95 550.24C142.777 550.067 142.69 549.847 142.69 549.58C142.69 549.313 142.777 549.093 142.95 548.92C143.137 548.747 143.357 548.66 143.61 548.66H148.79ZM153.29 557.98C153.29 558.273 153.197 558.52 153.01 558.72C152.823 558.907 152.583 559 152.29 559C152.01 559 151.77 558.907 151.57 558.72C151.383 558.52 151.29 558.273 151.29 557.98V549.42C151.29 549.127 151.383 548.887 151.57 548.7C151.77 548.5 152.01 548.4 152.29 548.4C152.583 548.4 152.823 548.5 153.01 548.7C153.197 548.887 153.29 549.127 153.29 549.42V557.98ZM152.27 547.08C151.883 547.08 151.603 547.013 151.43 546.88C151.257 546.733 151.17 546.493 151.17 546.16V545.84C151.17 545.507 151.263 545.273 151.45 545.14C151.637 545.007 151.917 544.94 152.29 544.94C152.69 544.94 152.977 545.013 153.15 545.16C153.323 545.293 153.41 545.52 153.41 545.84V546.16C153.41 546.507 153.317 546.747 153.13 546.88C152.957 547.013 152.67 547.08 152.27 547.08ZM160.77 559.2C159.677 559.2 158.717 558.973 157.89 558.52C157.077 558.053 156.444 557.42 155.99 556.62C155.55 555.807 155.33 554.88 155.33 553.84C155.33 552.667 155.564 551.667 156.03 550.84C156.51 550 157.13 549.36 157.89 548.92C158.664 548.467 159.477 548.24 160.33 548.24C160.97 548.24 161.584 548.373 162.17 548.64C162.77 548.893 163.297 549.253 163.75 549.72C164.204 550.173 164.564 550.713 164.83 551.34C165.097 551.953 165.237 552.627 165.25 553.36C165.237 553.627 165.13 553.847 164.93 554.02C164.73 554.193 164.497 554.28 164.23 554.28H156.47L155.99 552.58H163.51L163.13 552.94V552.44C163.09 551.973 162.93 551.567 162.65 551.22C162.37 550.86 162.024 550.587 161.61 550.4C161.21 550.2 160.784 550.1 160.33 550.1C159.93 550.1 159.544 550.167 159.17 550.3C158.797 550.42 158.47 550.62 158.19 550.9C157.91 551.18 157.684 551.553 157.51 552.02C157.337 552.473 157.25 553.04 157.25 553.72C157.25 554.453 157.404 555.093 157.71 555.64C158.017 556.187 158.43 556.613 158.95 556.92C159.47 557.213 160.05 557.36 160.69 557.36C161.17 557.36 161.57 557.313 161.89 557.22C162.21 557.113 162.477 556.987 162.69 556.84C162.904 556.693 163.09 556.553 163.25 556.42C163.464 556.3 163.664 556.24 163.85 556.24C164.09 556.24 164.29 556.327 164.45 556.5C164.61 556.66 164.69 556.853 164.69 557.08C164.69 557.373 164.544 557.64 164.25 557.88C163.89 558.227 163.39 558.533 162.75 558.8C162.124 559.067 161.464 559.2 160.77 559.2ZM169.576 557.98C169.576 558.273 169.476 558.52 169.276 558.72C169.089 558.907 168.856 559 168.576 559C168.296 559 168.056 558.907 167.856 558.72C167.669 558.52 167.576 558.273 167.576 557.98V545.22C167.576 544.927 167.676 544.687 167.876 544.5C168.076 544.3 168.316 544.2 168.596 544.2C168.889 544.2 169.122 544.3 169.296 544.5C169.482 544.687 169.576 544.927 169.576 545.22V557.98ZM182.399 548.24C182.972 548.24 183.499 548.333 183.979 548.52C184.459 548.707 184.872 548.947 185.219 549.24C185.579 549.52 185.859 549.813 186.059 550.12C186.259 550.427 186.359 550.693 186.359 550.92L185.899 550.94V549.34C185.899 549.06 185.992 548.82 186.179 548.62C186.365 548.42 186.605 548.32 186.899 548.32C187.192 548.32 187.432 548.42 187.619 548.62C187.805 548.807 187.899 549.047 187.899 549.34V558.16C187.899 559.293 187.659 560.213 187.179 560.92C186.699 561.64 186.059 562.167 185.259 562.5C184.472 562.833 183.605 563 182.659 563C182.325 563 181.932 562.953 181.479 562.86C181.025 562.78 180.605 562.68 180.219 562.56C179.845 562.44 179.585 562.32 179.439 562.2C179.132 562.04 178.925 561.853 178.819 561.64C178.725 561.427 178.732 561.213 178.839 561C178.959 560.707 179.132 560.527 179.359 560.46C179.585 560.393 179.845 560.413 180.139 560.52C180.272 560.56 180.479 560.633 180.759 560.74C181.039 560.847 181.352 560.94 181.699 561.02C182.045 561.113 182.372 561.16 182.679 561.16C183.745 561.16 184.545 560.913 185.079 560.42C185.625 559.927 185.899 559.253 185.899 558.4V556.6L186.139 556.74C186.099 557.02 185.972 557.307 185.759 557.6C185.545 557.88 185.272 558.14 184.939 558.38C184.605 558.62 184.225 558.82 183.799 558.98C183.372 559.127 182.925 559.2 182.459 559.2C181.525 559.2 180.679 558.967 179.919 558.5C179.172 558.02 178.579 557.373 178.139 556.56C177.699 555.733 177.479 554.787 177.479 553.72C177.479 552.653 177.699 551.713 178.139 550.9C178.579 550.073 179.165 549.427 179.899 548.96C180.645 548.48 181.479 548.24 182.399 548.24ZM182.699 550.08C182.059 550.08 181.485 550.24 180.979 550.56C180.485 550.88 180.099 551.313 179.819 551.86C179.552 552.407 179.419 553.027 179.419 553.72C179.419 554.413 179.552 555.033 179.819 555.58C180.099 556.127 180.485 556.56 180.979 556.88C181.485 557.2 182.059 557.36 182.699 557.36C183.352 557.36 183.925 557.207 184.419 556.9C184.912 556.58 185.299 556.147 185.579 555.6C185.859 555.04 185.999 554.413 185.999 553.72C185.999 553.027 185.859 552.407 185.579 551.86C185.299 551.3 184.912 550.867 184.419 550.56C183.925 550.24 183.352 550.08 182.699 550.08ZM195.106 559.2C194.013 559.2 193.053 558.973 192.226 558.52C191.413 558.053 190.78 557.42 190.326 556.62C189.886 555.807 189.666 554.88 189.666 553.84C189.666 552.667 189.9 551.667 190.366 550.84C190.846 550 191.466 549.36 192.226 548.92C193 548.467 193.813 548.24 194.666 548.24C195.306 548.24 195.92 548.373 196.506 548.64C197.106 548.893 197.633 549.253 198.086 549.72C198.54 550.173 198.9 550.713 199.166 551.34C199.433 551.953 199.573 552.627 199.586 553.36C199.573 553.627 199.466 553.847 199.266 554.02C199.066 554.193 198.833 554.28 198.566 554.28H190.806L190.326 552.58H197.846L197.466 552.94V552.44C197.426 551.973 197.266 551.567 196.986 551.22C196.706 550.86 196.36 550.587 195.946 550.4C195.546 550.2 195.12 550.1 194.666 550.1C194.266 550.1 193.88 550.167 193.506 550.3C193.133 550.42 192.806 550.62 192.526 550.9C192.246 551.18 192.02 551.553 191.846 552.02C191.673 552.473 191.586 553.04 191.586 553.72C191.586 554.453 191.74 555.093 192.046 555.64C192.353 556.187 192.766 556.613 193.286 556.92C193.806 557.213 194.386 557.36 195.026 557.36C195.506 557.36 195.906 557.313 196.226 557.22C196.546 557.113 196.813 556.987 197.026 556.84C197.24 556.693 197.426 556.553 197.586 556.42C197.8 556.3 198 556.24 198.186 556.24C198.426 556.24 198.626 556.327 198.786 556.5C198.946 556.66 199.026 556.853 199.026 557.08C199.026 557.373 198.88 557.64 198.586 557.88C198.226 558.227 197.726 558.533 197.086 558.8C196.46 559.067 195.8 559.2 195.106 559.2ZM201.132 557.36C201.012 557.173 200.958 556.96 200.972 556.72C200.985 556.467 201.125 556.253 201.392 556.08C201.578 555.96 201.772 555.913 201.972 555.94C202.185 555.953 202.385 556.053 202.572 556.24C202.945 556.653 203.358 556.98 203.812 557.22C204.278 557.46 204.838 557.58 205.492 557.58C205.758 557.567 206.032 557.527 206.312 557.46C206.592 557.38 206.832 557.247 207.032 557.06C207.232 556.86 207.332 556.573 207.332 556.2C207.332 555.867 207.225 555.6 207.012 555.4C206.798 555.2 206.518 555.04 206.172 554.92C205.825 554.787 205.452 554.667 205.052 554.56C204.625 554.44 204.192 554.307 203.752 554.16C203.325 554.013 202.938 553.827 202.592 553.6C202.245 553.36 201.958 553.053 201.732 552.68C201.518 552.307 201.412 551.847 201.412 551.3C201.412 550.673 201.585 550.133 201.932 549.68C202.292 549.227 202.752 548.873 203.312 548.62C203.885 548.367 204.505 548.24 205.172 548.24C205.558 548.24 205.965 548.293 206.392 548.4C206.818 548.493 207.232 548.647 207.632 548.86C208.032 549.073 208.378 549.353 208.672 549.7C208.805 549.873 208.878 550.08 208.892 550.32C208.918 550.56 208.812 550.773 208.572 550.96C208.412 551.093 208.218 551.153 207.992 551.14C207.765 551.127 207.578 551.053 207.432 550.92C207.178 550.6 206.852 550.353 206.452 550.18C206.052 549.993 205.598 549.9 205.092 549.9C204.838 549.9 204.572 549.94 204.292 550.02C204.025 550.087 203.798 550.213 203.612 550.4C203.425 550.587 203.332 550.86 203.332 551.22C203.332 551.553 203.438 551.82 203.652 552.02C203.878 552.22 204.172 552.387 204.532 552.52C204.892 552.653 205.285 552.773 205.712 552.88C206.125 552.987 206.532 553.113 206.932 553.26C207.345 553.407 207.712 553.6 208.032 553.84C208.365 554.067 208.632 554.367 208.832 554.74C209.045 555.1 209.152 555.56 209.152 556.12C209.152 556.773 208.958 557.333 208.572 557.8C208.198 558.253 207.718 558.6 207.132 558.84C206.558 559.08 205.952 559.2 205.312 559.2C204.552 559.2 203.792 559.067 203.032 558.8C202.285 558.52 201.652 558.04 201.132 557.36ZM213.462 557.98C213.462 558.273 213.362 558.52 213.162 558.72C212.976 558.907 212.742 559 212.462 559C212.182 559 211.942 558.907 211.742 558.72C211.556 558.52 211.462 558.273 211.462 557.98V545.22C211.462 544.927 211.562 544.687 211.762 544.5C211.962 544.3 212.202 544.2 212.482 544.2C212.776 544.2 213.009 544.3 213.182 544.5C213.369 544.687 213.462 544.927 213.462 545.22V557.98ZM226.244 553.74C226.244 554.807 226.004 555.753 225.524 556.58C225.057 557.393 224.424 558.033 223.624 558.5C222.824 558.967 221.924 559.2 220.924 559.2C219.937 559.2 219.037 558.967 218.224 558.5C217.424 558.033 216.784 557.393 216.304 556.58C215.837 555.753 215.604 554.807 215.604 553.74C215.604 552.66 215.837 551.713 216.304 550.9C216.784 550.073 217.424 549.427 218.224 548.96C219.037 548.48 219.937 548.24 220.924 548.24C221.924 548.24 222.824 548.48 223.624 548.96C224.424 549.427 225.057 550.073 225.524 550.9C226.004 551.713 226.244 552.66 226.244 553.74ZM224.244 553.74C224.244 553.007 224.097 552.373 223.804 551.84C223.51 551.293 223.11 550.867 222.604 550.56C222.11 550.24 221.55 550.08 220.924 550.08C220.31 550.08 219.75 550.24 219.244 550.56C218.75 550.867 218.35 551.293 218.044 551.84C217.75 552.373 217.604 553.007 217.604 553.74C217.604 554.447 217.75 555.073 218.044 555.62C218.35 556.167 218.75 556.593 219.244 556.9C219.75 557.207 220.31 557.36 220.924 557.36C221.55 557.36 222.11 557.207 222.604 556.9C223.11 556.593 223.51 556.167 223.804 555.62C224.097 555.073 224.244 554.447 224.244 553.74ZM228.272 548.6H232.972C233.238 548.6 233.458 548.693 233.632 548.88C233.818 549.053 233.912 549.273 233.912 549.54C233.912 549.793 233.818 550.007 233.632 550.18C233.458 550.353 233.238 550.44 232.972 550.44H228.272C228.005 550.44 227.778 550.353 227.592 550.18C227.418 549.993 227.332 549.773 227.332 549.52C227.332 549.253 227.418 549.033 227.592 548.86C227.778 548.687 228.005 548.6 228.272 548.6ZM230.372 546C230.665 546 230.905 546.1 231.092 546.3C231.278 546.487 231.372 546.727 231.372 547.02V556.3C231.372 556.54 231.412 556.733 231.492 556.88C231.572 557.027 231.678 557.127 231.812 557.18C231.958 557.233 232.105 557.26 232.252 557.26C232.398 557.26 232.525 557.233 232.632 557.18C232.752 557.127 232.892 557.1 233.052 557.1C233.212 557.1 233.358 557.173 233.492 557.32C233.625 557.467 233.692 557.667 233.692 557.92C233.692 558.24 233.518 558.5 233.172 558.7C232.825 558.9 232.452 559 232.052 559C231.825 559 231.558 558.98 231.252 558.94C230.945 558.9 230.645 558.8 230.352 558.64C230.072 558.48 229.838 558.227 229.652 557.88C229.465 557.52 229.372 557.02 229.372 556.38V547.02C229.372 546.727 229.465 546.487 229.652 546.3C229.852 546.1 230.092 546 230.372 546ZM240.829 559.2C239.736 559.2 238.776 558.973 237.949 558.52C237.136 558.053 236.502 557.42 236.049 556.62C235.609 555.807 235.389 554.88 235.389 553.84C235.389 552.667 235.622 551.667 236.089 550.84C236.569 550 237.189 549.36 237.949 548.92C238.722 548.467 239.536 548.24 240.389 548.24C241.029 548.24 241.642 548.373 242.229 548.64C242.829 548.893 243.356 549.253 243.809 549.72C244.262 550.173 244.622 550.713 244.889 551.34C245.156 551.953 245.296 552.627 245.309 553.36C245.296 553.627 245.189 553.847 244.989 554.02C244.789 554.193 244.556 554.28 244.289 554.28H236.529L236.049 552.58H243.569L243.189 552.94V552.44C243.149 551.973 242.989 551.567 242.709 551.22C242.429 550.86 242.082 550.587 241.669 550.4C241.269 550.2 240.842 550.1 240.389 550.1C239.989 550.1 239.602 550.167 239.229 550.3C238.856 550.42 238.529 550.62 238.249 550.9C237.969 551.18 237.742 551.553 237.569 552.02C237.396 552.473 237.309 553.04 237.309 553.72C237.309 554.453 237.462 555.093 237.769 555.64C238.076 556.187 238.489 556.613 239.009 556.92C239.529 557.213 240.109 557.36 240.749 557.36C241.229 557.36 241.629 557.313 241.949 557.22C242.269 557.113 242.536 556.987 242.749 556.84C242.962 556.693 243.149 556.553 243.309 556.42C243.522 556.3 243.722 556.24 243.909 556.24C244.149 556.24 244.349 556.327 244.509 556.5C244.669 556.66 244.749 556.853 244.749 557.08C244.749 557.373 244.602 557.64 244.309 557.88C243.949 558.227 243.449 558.533 242.809 558.8C242.182 559.067 241.522 559.2 240.829 559.2ZM252.894 548.24C253.841 548.24 254.574 548.44 255.094 548.84C255.614 549.227 255.974 549.753 256.174 550.42C256.388 551.073 256.494 551.807 256.494 552.62V557.98C256.494 558.273 256.394 558.52 256.194 558.72C256.008 558.907 255.774 559 255.494 559C255.201 559 254.961 558.907 254.774 558.72C254.588 558.52 254.494 558.273 254.494 557.98V552.64C254.494 552.16 254.428 551.733 254.294 551.36C254.161 550.973 253.928 550.667 253.594 550.44C253.274 550.2 252.821 550.08 252.234 550.08C251.688 550.08 251.208 550.2 250.794 550.44C250.381 550.667 250.054 550.973 249.814 551.36C249.588 551.733 249.474 552.16 249.474 552.64V557.98C249.474 558.273 249.374 558.52 249.174 558.72C248.988 558.907 248.754 559 248.474 559C248.181 559 247.941 558.907 247.754 558.72C247.568 558.52 247.474 558.273 247.474 557.98V549.5C247.474 549.207 247.568 548.967 247.754 548.78C247.941 548.58 248.181 548.48 248.474 548.48C248.754 548.48 248.988 548.58 249.174 548.78C249.374 548.967 249.474 549.207 249.474 549.5V550.62L249.114 550.82C249.208 550.527 249.368 550.233 249.594 549.94C249.834 549.633 250.121 549.353 250.454 549.1C250.788 548.833 251.161 548.627 251.574 548.48C251.988 548.32 252.428 548.24 252.894 548.24Z" fill="black"/>
</svg>
