<svg width="100" height="100" viewBox="0 0 100 100" fill="none" xmlns="http://www.w3.org/2000/svg">
<circle cx="50" cy="50" r="50" fill="#AE0168"/>
<path d="M52.0833 41.6666C52.0833 37.0625 48.3541 33.3333 43.7499 33.3333C39.1458 33.3333 35.4166 37.0625 35.4166 41.6666C35.4166 46.2708 39.1458 50 43.7499 50C48.3541 50 52.0833 46.2708 52.0833 41.6666ZM47.9166 41.6666C47.9166 43.9583 46.0416 45.8333 43.7499 45.8333C41.4583 45.8333 39.5833 43.9583 39.5833 41.6666C39.5833 39.375 41.4583 37.5 43.7499 37.5C46.0416 37.5 47.9166 39.375 47.9166 41.6666ZM27.0833 62.5V66.6666H60.4166V62.5C60.4166 56.9583 49.3124 54.1666 43.7499 54.1666C38.1874 54.1666 27.0833 56.9583 27.0833 62.5ZM31.2499 62.5C31.6666 61.0208 38.1249 58.3333 43.7499 58.3333C49.3541 58.3333 55.7916 61 56.2499 62.5H31.2499ZM66.6666 56.25V50H72.9166V45.8333H66.6666V39.5833H62.4999V45.8333H56.2499V50H62.4999V56.25H66.6666Z" fill="white"/>
</svg>
