<svg width="240" height="240" viewBox="0 0 240 240" fill="none" xmlns="http://www.w3.org/2000/svg">
<g filter="url(#filter0_d_498_42095)">
<circle cx="120" cy="120" r="100" fill="#005E89"/>
</g>
<path d="M179.247 187.886H60.7456C59.5377 187.121 59.237 185.966 59.2502 184.621C59.2792 181.506 59.2502 178.391 59.2687 175.274C59.2687 174.284 59.3715 173.295 59.4375 172.177C58.0238 172.177 56.7604 172.193 55.4813 172.177C53.3054 172.143 52.5801 171.386 52.5801 169.236V89.7118C52.5801 87.4541 53.3027 86.7368 55.5657 86.7368H88.4679V84.9512C88.4679 75.4282 88.4679 65.9053 88.4679 56.3823C88.4679 53.7237 89.1695 53.0195 91.7911 53.0195H148.125C150.841 53.0195 151.524 53.7026 151.524 56.4482C151.524 66.0134 151.524 75.5803 151.524 85.149V86.7315H153.154C163.419 86.7315 173.687 86.7526 183.954 86.7051C185.344 86.7051 186.521 86.9187 187.412 88.0449V170.763C186.621 171.945 185.484 172.246 184.144 172.188C182.981 172.138 181.81 172.188 180.731 172.188C180.731 176.45 180.716 180.548 180.731 184.647C180.758 185.976 180.457 187.124 179.247 187.886ZM112.358 153.454C106.661 147.715 108.505 140.491 112.334 136.875C116.232 133.196 122.86 132.853 127.035 136.329C129.43 138.323 130.899 140.886 131.195 143.977C131.559 147.786 130.158 151.001 127.608 153.398L133.816 159.425L138.002 155.701C135.465 152.473 134.824 148.875 136.968 145.151C139.139 141.385 142.647 140.222 146.793 140.828V57.6113H93.2022V140.894C97.1399 140.235 100.453 141.208 102.676 144.484C105.313 148.369 104.765 152.241 102.032 155.719L106.163 159.436L112.358 153.454ZM57.1693 91.3101V167.612C58.3587 167.612 59.4533 167.633 60.5452 167.599C60.8382 167.593 61.1192 167.481 61.3364 167.285C62.882 165.647 64.3959 163.98 65.9493 162.292C62.2569 157.661 63.8394 152.407 66.6034 149.896C70.1403 146.662 74.9563 146.523 78.5828 149.508C80.2698 150.881 81.382 152.835 81.7002 154.986C82.1644 157.84 81.2571 160.327 79.4241 162.558L82.0062 164.444C84.8863 158.673 84.8863 158.673 88.6367 155.804C88.4653 155.559 88.2991 155.308 88.1092 155.068C86.9864 153.594 86.3505 151.807 86.29 149.955C86.2295 148.103 86.7474 146.278 87.7717 144.734C88.1883 144.09 88.4184 143.342 88.4363 142.574C88.4732 125.979 88.4829 109.385 88.4653 92.7897V91.3101H57.1693ZM151.532 91.3101V92.8293C151.532 109.415 151.541 126.001 151.559 142.588C151.559 143.313 151.97 144.038 152.199 144.761C152.695 146.322 153.436 147.849 153.647 149.448C153.969 151.866 152.877 153.958 151.361 155.799C155.33 158.898 155.33 158.898 157.994 164.468L160.565 162.556C156.733 157.848 158.065 152.816 160.829 150.067C164.018 146.884 169.005 146.52 172.481 149.123C174.328 150.5 175.565 152.288 176 154.496C176.585 157.473 175.886 160.216 174.035 162.284C175.646 164.033 177.139 165.663 178.648 167.274C178.815 167.46 179.042 167.58 179.289 167.614C180.46 167.649 181.633 167.63 182.86 167.63V91.289L151.532 91.3101ZM109.022 183.357H131.076C131.129 183.047 131.164 182.733 131.182 182.418C131.182 177.637 131.197 172.855 131.182 168.073C131.203 167.196 131.132 166.319 130.971 165.457C129.823 160.2 125.355 156.563 120.075 156.534C114.737 156.503 109.718 160.084 109.164 165.46C108.563 171.309 109.022 177.304 109.022 183.323V183.357ZM153.711 183.357C153.711 178.9 153.729 174.522 153.711 170.144C153.738 168.787 153.658 167.429 153.473 166.085C153.137 163.959 152.021 162.034 150.345 160.685C148.668 159.336 146.549 158.658 144.4 158.784C139.126 159.09 135.808 162.867 135.794 168.187C135.794 172.836 135.794 177.489 135.794 182.139C135.794 182.524 135.831 182.909 135.852 183.357H153.711ZM104.058 183.357C104.124 183.212 104.187 183.136 104.187 183.059C104.187 177.705 104.361 172.346 104.148 167.002C103.921 161.35 98.1817 157.521 92.7723 159.145C88.7343 160.359 86.3158 163.745 86.2947 168.297C86.2709 172.947 86.2947 177.6 86.2947 182.25C86.2947 182.624 86.3474 183.001 86.3738 183.357H104.058ZM158.39 183.334H176.113C176.113 180.169 176.177 177.117 176.1 174.055C175.984 169.505 172.218 165.71 167.734 165.52C162.923 165.317 158.838 168.559 158.445 173.266C158.163 176.529 158.384 179.871 158.384 183.299L158.39 183.334ZM63.9264 183.334H81.8031C81.8031 180.472 81.8031 177.716 81.8031 174.96C81.7783 174.391 81.7193 173.825 81.6264 173.264C81.3615 171.089 80.2963 169.092 78.6384 167.66C76.9805 166.228 74.8488 165.465 72.659 165.52C68.2255 165.568 64.2666 169.017 63.9686 173.433C63.7444 176.642 63.9211 179.929 63.9211 183.289L63.9264 183.334ZM126.656 145.143C126.648 143.827 126.25 142.543 125.513 141.454C124.775 140.364 123.731 139.517 122.513 139.021C121.294 138.524 119.956 138.4 118.666 138.664C117.377 138.928 116.195 139.568 115.27 140.504C114.345 141.439 113.718 142.628 113.468 143.92C113.218 145.212 113.357 146.549 113.867 147.762C114.377 148.975 115.236 150.01 116.334 150.735C117.431 151.46 118.72 151.844 120.036 151.837C120.912 151.841 121.781 151.669 122.59 151.333C123.4 150.997 124.135 150.503 124.751 149.88C125.367 149.257 125.853 148.517 126.18 147.703C126.507 146.89 126.669 146.02 126.656 145.143ZM99.7272 149.759C99.7405 148.587 99.2959 147.456 98.4881 146.607C97.6803 145.758 96.573 145.257 95.4018 145.212C94.2056 145.2 93.0529 145.66 92.1924 146.491C91.3318 147.321 90.8325 148.457 90.8021 149.653C90.7836 152.027 92.8356 154.111 95.2277 154.15C97.6199 154.19 99.6877 152.156 99.7272 149.759ZM140.273 149.598C140.267 150.771 140.716 151.9 141.524 152.749C142.333 153.599 143.44 154.102 144.611 154.153C147.006 154.24 149.19 152.111 149.198 149.688C149.179 148.513 148.707 147.39 147.88 146.555C147.054 145.72 145.937 145.236 144.762 145.204C143.587 145.202 142.459 145.662 141.619 146.483C140.78 147.305 140.296 148.423 140.273 149.598ZM72.8648 160.823C73.4525 160.833 74.0364 160.726 74.5821 160.507C75.1278 160.288 75.6242 159.963 76.0422 159.549C76.4602 159.136 76.7913 158.643 77.0161 158.1C77.2408 157.557 77.3547 156.974 77.351 156.386C77.3473 155.798 77.2261 155.217 76.9946 154.677C76.763 154.136 76.4257 153.648 76.0026 153.24C75.5794 152.831 75.0789 152.512 74.5306 152.3C73.9822 152.088 73.397 151.988 72.8094 152.006C72.2216 151.996 71.6377 152.103 71.092 152.322C70.5463 152.541 70.0499 152.866 69.6319 153.28C69.2139 153.693 68.8828 154.186 68.6581 154.729C68.4333 155.272 68.3194 155.855 68.3231 156.443C68.3268 157.031 68.448 157.612 68.6796 158.152C68.9111 158.692 69.2484 159.181 69.6716 159.589C70.0947 159.997 70.5952 160.317 71.1436 160.529C71.6919 160.74 72.2771 160.84 72.8648 160.823ZM167.178 160.823C167.756 160.821 168.329 160.705 168.863 160.482C169.397 160.259 169.882 159.932 170.29 159.522C170.698 159.111 171.021 158.624 171.24 158.089C171.46 157.553 171.572 156.98 171.57 156.401C171.568 155.822 171.452 155.25 171.229 154.716C171.006 154.182 170.68 153.697 170.269 153.289C169.859 152.881 169.372 152.558 168.836 152.338C168.301 152.119 167.727 152.007 167.149 152.009C166.57 152.01 165.997 152.126 165.463 152.35C164.929 152.573 164.444 152.899 164.036 153.31C163.629 153.72 163.305 154.207 163.086 154.743C162.866 155.278 162.754 155.851 162.756 156.43C162.758 157.009 162.874 157.582 163.097 158.116C163.32 158.65 163.646 159.134 164.057 159.542C164.468 159.95 164.954 160.273 165.49 160.493C166.025 160.713 166.599 160.825 167.178 160.823Z" fill="white"/>
<path d="M120.002 61.9814C124.255 61.9814 128.508 61.9814 132.759 61.9814C134.964 61.9814 135.774 62.7911 135.777 64.996C135.787 70.5188 135.787 76.0434 135.777 81.5697C135.777 83.6507 134.914 84.5422 132.823 84.5474C124.274 84.565 115.725 84.565 107.176 84.5474C105.066 84.5474 104.227 83.656 104.225 81.5697C104.214 75.9994 104.214 70.43 104.225 64.8615C104.225 62.8333 105.087 61.9893 107.113 61.984C111.409 61.9735 115.706 61.9814 120.002 61.9814ZM108.88 79.8185H131.077V66.6048H108.88V79.8185Z" fill="white"/>
<path d="M122.237 102.467H117.793V98.0332H122.245L122.237 102.467Z" fill="white"/>
<path d="M126.855 98.0039H131.21V102.424H126.855V98.0039Z" fill="white"/>
<path d="M113.254 98.0547V102.42H108.826V98.0547H113.254Z" fill="white"/>
<path d="M131.246 88.9215V93.421H126.683C126.683 92.1234 126.654 90.8284 126.714 89.5361C126.761 89.3915 126.843 89.2612 126.954 89.1574C127.065 89.0536 127.2 88.9797 127.347 88.9426C128.608 88.8899 129.861 88.9215 131.246 88.9215Z" fill="white"/>
<path d="M108.805 88.9172C110.105 88.9172 111.358 88.8776 112.605 88.9489C112.767 88.9958 112.914 89.0832 113.033 89.2027C113.151 89.3222 113.237 89.4699 113.283 89.632C113.352 90.8795 113.315 92.1349 113.315 93.4642H108.805V88.9172Z" fill="white"/>
<path d="M122.154 93.497H117.697C117.697 92.1387 117.673 90.8068 117.723 89.4748C117.723 89.285 118.079 89.0871 118.296 88.9474C118.385 88.8867 118.559 88.9342 118.683 88.9263C122.502 88.7258 122.869 89.2006 122.154 93.497Z" fill="white"/>
<path d="M108.771 111.405V107.08H113.231V111.405H108.771Z" fill="white"/>
<path d="M122.22 111.415H117.76V107.084H122.22V111.415Z" fill="white"/>
<path d="M126.783 107.035H131.219V111.416H126.783V107.035Z" fill="white"/>
<path d="M113.231 120.377H108.771V116.064H113.231V120.377Z" fill="white"/>
<path d="M122.223 120.383H117.758V116.068H122.223V120.383Z" fill="white"/>
<path d="M126.762 120.349V116.039H131.245V120.349H126.762Z" fill="white"/>
<path d="M108.785 125.006H113.213V129.337H108.785V125.006Z" fill="white"/>
<path d="M122.249 125.035V129.358H117.752V125.035H122.249Z" fill="white"/>
<path d="M131.185 129.379H126.762V125.012H131.177L131.185 129.379Z" fill="white"/>
<path d="M135.795 98.0137H140.197V102.442H135.795V98.0137Z" fill="white"/>
<path d="M99.7773 102.432V98.041H104.224V102.432H99.7773Z" fill="white"/>
<path d="M99.8359 107.021H104.201V111.408H99.8359V107.021Z" fill="white"/>
<path d="M104.243 116.045V120.368H99.8281V116.045H104.243Z" fill="white"/>
<path d="M140.212 116.061V120.349H135.773V116.061H140.212Z" fill="white"/>
<path d="M104.224 129.366H99.7988V125.035H104.224V129.366Z" fill="white"/>
<path d="M135.811 124.98H140.17V129.348H135.811V124.98Z" fill="white"/>
<path d="M140.212 107.064V111.39H135.818V107.064H140.212Z" fill="white"/>
<path d="M68.2448 140.677H63.8613V104.721H68.2448V140.677Z" fill="white"/>
<path d="M81.6979 140.692H77.4199V104.762H81.6979V140.692Z" fill="white"/>
<path d="M176.105 140.673H171.732V104.777H176.105V140.673Z" fill="white"/>
<path d="M162.581 140.689H158.301V104.762H162.581V140.689Z" fill="white"/>
<defs>
<filter id="filter0_d_498_42095" x="0" y="0" width="240" height="240" filterUnits="userSpaceOnUse" color-interpolation-filters="sRGB">
<feFlood flood-opacity="0" result="BackgroundImageFix"/>
<feColorMatrix in="SourceAlpha" type="matrix" values="0 0 0 0 0 0 0 0 0 0 0 0 0 0 0 0 0 0 127 0" result="hardAlpha"/>
<feOffset/>
<feGaussianBlur stdDeviation="10"/>
<feComposite in2="hardAlpha" operator="out"/>
<feColorMatrix type="matrix" values="0 0 0 0 0 0 0 0 0 0 0 0 0 0 0 0 0 0 0.25 0"/>
<feBlend mode="normal" in2="BackgroundImageFix" result="effect1_dropShadow_498_42095"/>
<feBlend mode="normal" in="SourceGraphic" in2="effect1_dropShadow_498_42095" result="shape"/>
</filter>
</defs>
</svg>
