<svg width="100" height="100" viewBox="0 0 100 100" fill="none" xmlns="http://www.w3.org/2000/svg">
<circle cx="50" cy="50" r="50" fill="#005E89"/>
<path fill-rule="evenodd" clip-rule="evenodd" d="M49.1714 63.825C49.438 63.985 49.723 64.0558 50 64.0523C50.2769 64.0558 50.5619 63.985 50.8285 63.825L53.1937 62.4059C57.8322 59.6228 63.5051 59.1683 68.5276 61.1773C70.3804 61.9184 72.3958 60.5539 72.3958 58.5584V34.2691C72.3958 33.065 71.6627 31.9823 70.5448 31.5351C64.0759 28.9475 56.7692 29.533 50.7948 33.1176L50 33.5945L49.2051 33.1176C43.2307 29.533 35.9241 28.9475 29.4551 31.5351C28.3372 31.9823 27.6041 33.065 27.6041 34.2691V58.5584C27.6041 60.5539 29.6195 61.9184 31.4723 61.1773C36.4948 59.1683 42.1677 59.6228 46.8062 62.4059L49.1714 63.825ZM30.7291 34.3916V58.1141C36.5537 55.9307 43.0662 56.5176 48.414 59.7263L48.4375 59.7403V36.3014L47.5973 35.7973C42.4953 32.736 36.2632 32.2187 30.7291 34.3916ZM51.5859 59.7263L51.5625 59.7403V36.3014L52.4026 35.7973C57.5047 32.736 63.7368 32.2187 69.2708 34.3916V58.1141C63.4462 55.9307 56.9337 56.5176 51.5859 59.7263Z" fill="white"/>
<path d="M44.3232 64.6713C40.1068 62.2118 34.8931 62.2118 30.6767 64.6713L30.4627 64.7962C29.7173 65.231 29.4655 66.1878 29.9003 66.9332C30.3351 67.6785 31.2919 67.9303 32.0373 67.4955L32.2513 67.3706C35.4947 65.4787 39.5053 65.4787 42.7486 67.3706L45.0137 68.692C48.0949 70.4893 51.905 70.4893 54.9862 68.692L57.2513 67.3706C60.4947 65.4787 64.5053 65.4787 67.7486 67.3706L67.9627 67.4955C68.7081 67.9303 69.6648 67.6785 70.0996 66.9332C70.5344 66.1878 70.2827 65.231 69.5373 64.7962L69.3232 64.6713C65.1068 62.2118 59.8931 62.2118 55.6767 64.6713L53.4116 65.9927C51.3034 67.2224 48.6965 67.2224 46.5883 65.9927L44.3232 64.6713Z" fill="white"/>
</svg>
