<svg width="100" height="100" viewBox="0 0 100 100" fill="none" xmlns="http://www.w3.org/2000/svg">
<circle cx="50" cy="50" r="50" fill="#005E89"/>
<path opacity="0.3" d="M35.4167 62.6667V64.5834H37.3334L56.2084 45.7084L54.2918 43.7917L35.4167 62.6667Z" fill="white"/>
<path d="M68.1458 39.6667C68.9583 38.8542 68.9583 37.5417 68.1458 36.7292L63.2708 31.8542C62.8542 31.4375 62.3333 31.25 61.7917 31.25C61.25 31.25 60.7292 31.4583 60.3333 31.8542L56.5208 35.6667L64.3333 43.4792L68.1458 39.6667V39.6667ZM31.25 60.9375V68.75H39.0625L62.1042 45.7083L54.2917 37.8958L31.25 60.9375ZM37.3333 64.5833H35.4167V62.6667L54.2917 43.7917L56.2083 45.7083L37.3333 64.5833Z" fill="white"/>
</svg>
