<svg width="240" height="240" viewBox="0 0 240 240" fill="none" xmlns="http://www.w3.org/2000/svg">
<g filter="url(#filter0_d_498_42069)">
<circle cx="120" cy="120" r="100" fill="#AE0168"/>
</g>
<path d="M150.563 185.246H89.4932C88.8998 184.831 88.1745 184.521 87.7472 183.978C87.1195 183.19 86.3968 183.056 85.4737 183.061C78.6322 183.087 71.788 183.077 64.9464 183.061C62.4461 183.061 59.9352 183.098 57.4455 183.061C54.4361 183.008 52.648 181.162 52.648 178.183C52.648 176.785 52.4871 175.362 52.7007 173.996C52.8511 172.9 53.2877 171.863 53.9667 170.988C54.5472 170.365 54.8572 169.539 54.8291 168.689C54.8133 152.215 54.8195 135.743 54.8476 119.273C54.8659 118.235 55.105 117.214 55.5492 116.275C57.0736 113.036 58.7457 109.884 60.3203 106.661C61.7366 103.771 64.0127 102.371 67.2463 102.395C71.6324 102.424 76.0184 102.395 80.4045 102.395H81.7839L81.4727 102.074C81.9 100.803 82.0345 99.3057 82.8099 98.3023C85.4816 94.8427 88.4277 91.5959 91.168 88.1888C92.819 86.1346 94.6441 84.5112 97.5216 84.4902C97.5216 79.7618 97.5427 75.1254 97.4821 70.4995C97.4821 70.1685 96.9546 69.6641 96.5695 69.5512C94.3936 68.8971 92.1913 68.3376 89.997 67.7465C87.6734 67.1213 86.3283 65.4743 86.3362 63.2546C86.3362 61.09 87.6549 59.4561 89.931 58.8519C99.4707 56.2986 109.008 53.7322 118.563 51.234C119.531 50.9949 120.544 50.9949 121.512 51.234C127.351 52.7208 133.167 54.3048 138.99 55.8573C142.746 56.8581 146.512 57.8248 150.255 58.8756C153.517 59.7897 154.95 63.4752 152.784 65.8762C151.629 67.1555 151.497 68.3875 151.539 69.8664C151.571 71.0432 151.582 72.2306 151.539 73.4048C151.499 73.9042 151.58 74.4059 151.777 74.8671C151.973 75.3282 152.279 75.735 152.668 76.0527C153.744 76.9905 153.831 78.3617 153.006 79.3047C152.18 80.2478 150.896 80.3555 149.712 79.4545C147.792 78.0018 146.958 76.008 146.929 73.6543C146.908 72.0178 146.929 70.3839 146.929 68.6186C145.703 68.9391 144.703 69.2701 143.677 69.4487C142.751 69.6063 142.509 70.0424 142.522 70.9513C142.572 74.9258 142.583 78.9028 142.522 82.8773C142.503 84.1119 142.622 85.0024 144.007 85.4726C144.743 85.7353 145.357 86.4209 145.945 87.0015C149.282 90.2877 152.539 93.6553 155.936 96.8811C157.476 98.3469 158.65 99.8259 158.27 102.08C158.27 102.14 158.352 102.219 158.463 102.39H159.826C164.167 102.39 168.509 102.408 172.853 102.39C176.018 102.371 178.296 103.724 179.71 106.564C181.335 109.85 183.028 113.105 184.602 116.415C185.001 117.278 185.218 118.214 185.238 119.165C185.307 122.879 185.267 126.594 185.267 130.305C185.267 143.154 185.267 156.001 185.267 168.844C185.246 169.391 185.367 169.934 185.618 170.42C186.177 171.286 186.779 172.123 187.422 172.929V179.746C186.309 182.352 184.257 183.137 181.53 183.113C172.46 183.035 163.387 183.079 154.317 183.092C153.86 183.092 153.314 183.113 152.961 183.355C152.112 183.904 151.357 184.603 150.563 185.246ZM95.4169 120.476V169.456H108.739V167.97C108.739 159.8 108.739 151.629 108.739 143.456C108.739 141.254 109.551 140.437 111.743 140.435C117.227 140.435 122.71 140.435 128.193 140.435C130.55 140.435 131.318 141.223 131.318 143.6C131.318 151.728 131.318 159.855 131.318 167.983V169.438H144.645V120.476H95.4169ZM180.525 169.483V120.515H149.327V169.483H180.525ZM90.7302 169.483V120.515H59.5291V169.48L90.7302 169.483ZM150.358 97.8688C147.53 95.045 144.903 92.3524 142.182 89.7623C141.609 89.3006 140.893 89.05 140.156 89.0531C126.077 89.0145 111.998 89.0145 97.9172 89.0531C97.2631 89.0531 96.3849 89.2317 95.9945 89.6678C93.6472 92.2946 91.4106 95.0134 88.9921 97.8715L150.358 97.8688ZM91.2577 63.1941C91.4825 63.3286 91.717 63.4462 91.9592 63.5461C101.023 65.9909 110.091 68.4207 119.162 70.8357C119.839 70.9806 120.541 70.9553 121.206 70.7622C128.259 68.9076 135.306 67.0276 142.348 65.1223C144.426 64.5654 146.499 63.9822 148.823 63.3439C148.628 63.2335 148.427 63.1344 148.221 63.047C139.078 60.5953 129.922 58.1497 120.752 55.7102C120.253 55.5828 119.73 55.5828 119.231 55.7102C109.992 58.1742 100.758 60.654 91.2577 63.1994V63.1941ZM102.193 71.0301V84.4587H137.88V71.0931C137.458 71.1851 137.12 71.2455 136.788 71.3322C131.634 72.6955 126.502 74.0852 121.322 75.3933C120.477 75.5917 119.598 75.5917 118.753 75.3933C116.161 74.7865 113.6 74.0379 111.023 73.3549C108.114 72.5826 105.202 71.826 102.193 71.0354V71.0301ZM90.8911 174.185V180.686H149.179V174.185H90.8911ZM113.415 169.456H126.602V145.129H113.415V169.456ZM86.3836 106.771H153.623V102.568H86.3836V106.771ZM149.179 111.581H90.8911V115.697H149.179V111.581ZM81.7602 107.016C76.6171 107.016 71.4952 106.966 66.3785 107.079C65.7456 107.094 64.9148 107.867 64.5534 108.497C63.3903 110.541 62.3986 112.682 61.3516 114.802C61.223 115.106 61.1138 115.419 61.0245 115.737H86.2491V111.492C83.6038 111.121 82.0978 109.669 81.7602 107.016ZM153.823 111.481V115.716H179.164C177.922 113.233 176.732 110.919 175.603 108.579C175.076 107.46 174.248 106.95 173.011 106.96C170.075 106.984 167.14 106.96 164.202 106.96H158.278C157.977 109.706 156.419 111.108 153.823 111.494V111.481ZM153.768 178.346H182.862V174.177H153.768V178.346ZM86.2781 174.203H57.1949V178.39H86.2781V174.203Z" fill="white"/>
<path d="M115.544 129.273C115.544 130.061 115.581 130.849 115.544 131.624C115.522 132.218 115.268 132.779 114.836 133.189C114.405 133.599 113.83 133.824 113.233 133.818C112.659 133.802 112.113 133.565 111.711 133.155C111.308 132.746 111.082 132.197 111.079 131.624C111.031 130.048 111.026 128.488 111.079 126.922C111.094 126.349 111.335 125.806 111.751 125.409C112.166 125.013 112.722 124.796 113.297 124.805C113.872 124.804 114.426 125.023 114.843 125.418C115.26 125.813 115.508 126.352 115.536 126.925C115.583 127.705 115.541 128.49 115.544 129.273Z" fill="white"/>
<path d="M128.987 129.323C128.987 130.151 129.037 130.983 128.974 131.805C128.928 132.353 128.68 132.864 128.276 133.239C127.873 133.614 127.344 133.826 126.793 133.833C125.701 133.847 124.598 132.969 124.546 131.861C124.464 130.166 124.464 128.461 124.546 126.767C124.601 125.635 125.669 124.802 126.798 124.821C127.35 124.822 127.882 125.031 128.286 125.406C128.69 125.781 128.937 126.295 128.977 126.843C129.037 127.652 128.987 128.485 128.987 129.323Z" fill="white"/>
<path d="M160.519 145.003C160.519 145.744 160.572 146.49 160.519 147.226C160.406 148.555 159.427 149.477 158.227 149.477C157.649 149.475 157.094 149.253 156.675 148.855C156.257 148.458 156.007 147.916 155.978 147.341C155.877 145.775 155.877 144.203 155.978 142.637C156.001 142.04 156.259 141.476 156.695 141.066C157.132 140.656 157.712 140.434 158.312 140.446C159.506 140.496 160.437 141.444 160.535 142.778C160.588 143.517 160.535 144.263 160.535 145.003H160.519Z" fill="white"/>
<path d="M160.52 158.332C160.52 159.12 160.578 159.908 160.507 160.696C160.388 162.009 159.365 162.947 158.188 162.923C157.61 162.912 157.059 162.681 156.645 162.278C156.232 161.876 155.989 161.331 155.965 160.756C155.866 159.189 155.866 157.618 155.965 156.051C155.991 155.476 156.236 154.933 156.651 154.532C157.066 154.132 157.618 153.904 158.196 153.895C159.396 153.879 160.39 154.801 160.509 156.12C160.567 156.845 160.52 157.591 160.52 158.332Z" fill="white"/>
<path d="M160.519 131.511C160.519 132.251 160.564 132.995 160.519 133.73C160.421 135.094 159.522 135.976 158.283 136.003C157.043 136.029 156.046 135.215 155.959 133.841C155.865 132.319 155.865 130.794 155.959 129.273C156.038 127.909 157.014 127.04 158.24 127.045C159.504 127.045 160.443 128.004 160.532 129.409C160.574 130.103 160.532 130.801 160.532 131.511H160.519Z" fill="white"/>
<path d="M173.971 144.926C173.971 145.714 174.016 146.502 173.971 147.29C173.95 147.886 173.695 148.449 173.261 148.859C172.827 149.269 172.248 149.494 171.65 149.484C171.075 149.467 170.529 149.231 170.125 148.823C169.721 148.415 169.491 147.868 169.482 147.295C169.419 145.719 169.416 144.159 169.482 142.593C169.499 142.02 169.74 141.476 170.154 141.076C170.568 140.677 171.121 140.454 171.698 140.455C172.271 140.476 172.817 140.704 173.235 141.096C173.653 141.487 173.915 142.017 173.971 142.585C173.976 142.673 173.976 142.761 173.971 142.848C173.971 143.544 173.971 144.243 173.971 144.95V144.926Z" fill="white"/>
<path d="M173.971 158.368C173.971 159.109 174.002 159.85 173.971 160.591C173.902 161.904 172.953 162.873 171.758 162.915C171.462 162.921 171.168 162.868 170.893 162.76C170.617 162.652 170.366 162.491 170.154 162.286C169.941 162.081 169.772 161.836 169.654 161.565C169.537 161.295 169.475 161.004 169.471 160.709C169.405 159.133 169.405 157.557 169.471 156.007C169.492 155.433 169.736 154.89 170.152 154.493C170.568 154.095 171.124 153.875 171.7 153.879C172.275 153.894 172.824 154.121 173.241 154.515C173.659 154.909 173.915 155.443 173.96 156.015C173.96 156.101 173.96 156.188 173.96 156.277L173.971 158.368Z" fill="white"/>
<path d="M173.971 131.493C173.971 132.281 174.013 133.069 173.971 133.842C173.965 134.137 173.901 134.427 173.781 134.697C173.66 134.967 173.487 135.209 173.271 135.411C173.055 135.613 172.8 135.769 172.522 135.871C172.244 135.972 171.948 136.018 171.652 136.004C170.426 135.98 169.542 135.173 169.479 133.863C169.411 132.3 169.411 130.726 169.479 129.163C169.481 128.879 169.541 128.597 169.654 128.336C169.767 128.075 169.931 127.839 170.137 127.641C170.343 127.444 170.586 127.29 170.853 127.188C171.119 127.085 171.404 127.037 171.689 127.046C172.286 127.049 172.857 127.283 173.283 127.699C173.709 128.115 173.954 128.68 173.968 129.274C174.013 130.009 173.971 130.752 173.971 131.493Z" fill="white"/>
<path d="M79.5504 144.937C79.5504 144.194 79.5003 143.45 79.5504 142.712C79.6612 141.399 80.6423 140.453 81.8318 140.445C82.4104 140.444 82.9673 140.665 83.3878 141.06C83.8083 141.456 84.0604 141.998 84.0921 142.573C84.1971 144.183 84.1927 145.798 84.0789 147.407C84.0389 147.981 83.777 148.517 83.3481 148.903C82.9192 149.289 82.3568 149.495 81.779 149.476C81.2031 149.449 80.6576 149.211 80.248 148.807C79.8383 148.403 79.5936 147.862 79.5609 147.288C79.4871 146.5 79.5451 145.712 79.5451 144.937H79.5504Z" fill="white"/>
<path d="M79.5499 158.334C79.5499 157.593 79.4972 156.847 79.5499 156.111C79.666 154.798 80.6761 153.865 81.863 153.881C82.4413 153.888 82.995 154.115 83.4101 154.517C83.8251 154.918 84.07 155.462 84.0942 156.038C84.1958 157.604 84.1958 159.176 84.0942 160.742C84.0642 161.339 83.8008 161.9 83.3606 162.305C82.9205 162.711 82.3384 162.929 81.739 162.912C80.5469 162.852 79.629 161.896 79.5367 160.548C79.4893 159.813 79.5367 159.067 79.5367 158.326L79.5499 158.334Z" fill="white"/>
<path d="M79.5349 131.55C79.5349 130.809 79.4927 130.065 79.5481 129.327C79.6457 127.99 80.5767 127.071 81.7899 127.045C82.0872 127.033 82.3838 127.081 82.6622 127.186C82.9406 127.29 83.1953 127.449 83.4112 127.653C83.6272 127.857 83.8001 128.102 83.9198 128.373C84.0395 128.644 84.1035 128.936 84.1083 129.233C84.2019 130.754 84.2019 132.28 84.1083 133.801C84.0265 135.177 83.0533 136.013 81.8163 136.002C80.5213 136.002 79.6193 135.078 79.5349 133.638C79.5006 132.945 79.5349 132.246 79.5349 131.55Z" fill="white"/>
<path d="M70.5825 145.084C70.5825 145.872 70.6406 146.66 70.5667 147.432C70.5235 147.981 70.2766 148.493 69.8743 148.87C69.472 149.247 68.9431 149.461 68.3908 149.471C67.2884 149.489 66.1938 148.649 66.1279 147.508C66.0303 145.812 66.0303 144.111 66.1279 142.415C66.1912 141.285 67.2989 140.426 68.3855 140.44C68.9377 140.448 69.4669 140.661 69.8701 141.037C70.2732 141.413 70.5216 141.925 70.5667 142.473C70.6432 143.342 70.5825 144.217 70.5825 145.084Z" fill="white"/>
<path d="M66.0992 158.399C66.0992 157.611 66.0544 156.823 66.0992 156.048C66.1304 155.475 66.3756 154.935 66.7865 154.533C67.1974 154.131 67.7444 153.897 68.32 153.876C68.8976 153.86 69.4581 154.072 69.8798 154.466C70.3015 154.859 70.5503 155.402 70.5724 155.977C70.6515 157.585 70.6515 159.203 70.5724 160.811C70.545 161.382 70.296 161.921 69.8778 162.313C69.4596 162.705 68.9048 162.92 68.3305 162.912C67.7575 162.887 67.2136 162.654 66.8023 162.256C66.3909 161.857 66.1407 161.323 66.0992 160.753C66.0386 159.973 66.0992 159.185 66.0992 158.399Z" fill="white"/>
<path d="M70.5822 131.535C70.5822 132.362 70.6429 133.192 70.5664 134.012C70.5377 134.562 70.2933 135.079 69.8859 135.451C69.4785 135.823 68.9406 136.021 68.3879 136.003C67.2221 136.016 66.1935 135.246 66.125 134.08C66.0261 132.384 66.0261 130.685 66.125 128.989C66.1909 127.854 67.2775 127.032 68.3879 127.045C68.9419 127.036 69.4779 127.241 69.8839 127.616C70.29 127.992 70.5345 128.509 70.5664 129.06C70.6429 129.874 70.5822 130.707 70.5822 131.535Z" fill="white"/>
<defs>
<filter id="filter0_d_498_42069" x="0" y="0" width="240" height="240" filterUnits="userSpaceOnUse" color-interpolation-filters="sRGB">
<feFlood flood-opacity="0" result="BackgroundImageFix"/>
<feColorMatrix in="SourceAlpha" type="matrix" values="0 0 0 0 0 0 0 0 0 0 0 0 0 0 0 0 0 0 127 0" result="hardAlpha"/>
<feOffset/>
<feGaussianBlur stdDeviation="10"/>
<feComposite in2="hardAlpha" operator="out"/>
<feColorMatrix type="matrix" values="0 0 0 0 0 0 0 0 0 0 0 0 0 0 0 0 0 0 0.25 0"/>
<feBlend mode="normal" in2="BackgroundImageFix" result="effect1_dropShadow_498_42069"/>
<feBlend mode="normal" in="SourceGraphic" in2="effect1_dropShadow_498_42069" result="shape"/>
</filter>
</defs>
</svg>
