<svg width="100" height="100" viewBox="0 0 100 100" fill="none" xmlns="http://www.w3.org/2000/svg">
<circle cx="50" cy="50" r="50" fill="#AE0168"/>
<path d="M50 37.2916C52.4167 37.2916 54.375 39.25 54.375 41.6666C54.375 44.0833 52.4167 46.0416 50 46.0416C47.5833 46.0416 45.625 44.0833 45.625 41.6666C45.625 39.25 47.5833 37.2916 50 37.2916ZM50 56.0416C56.1875 56.0416 62.7083 59.0833 62.7083 60.4166V62.7083H37.2917V60.4166C37.2917 59.0833 43.8125 56.0416 50 56.0416ZM50 33.3333C45.3958 33.3333 41.6667 37.0625 41.6667 41.6666C41.6667 46.2708 45.3958 50 50 50C54.6042 50 58.3333 46.2708 58.3333 41.6666C58.3333 37.0625 54.6042 33.3333 50 33.3333ZM50 52.0833C44.4375 52.0833 33.3333 54.875 33.3333 60.4166V66.6666H66.6667V60.4166C66.6667 54.875 55.5625 52.0833 50 52.0833Z" fill="white"/>
</svg>
