<svg width="240" height="240" viewBox="0 0 240 240" fill="none" xmlns="http://www.w3.org/2000/svg">
<g filter="url(#filter0_d_498_42089)">
<circle cx="120" cy="120" r="100" fill="#005E89"/>
</g>
<path d="M46.9648 119.318C50.7191 111.172 53.0506 102.696 53.0334 93.6542C53.0163 85.6735 55.2077 78.3393 60.2334 72.1149C69.5706 60.5758 81.722 56.0677 96.082 59.6976C110.156 63.2589 118.713 72.7614 121.548 87.0694C122.279 90.7738 122.176 94.644 122.451 98.437C122.916 104.833 124.751 110.877 127.139 116.781C127.573 117.851 128.053 118.947 128.216 120.074C128.596 122.699 127.453 124.756 125.273 126.132C122.108 128.134 118.859 130.011 115.639 131.93C115.191 132.196 114.711 132.405 114.428 132.548C116.528 134.033 118.816 135.328 120.713 137.059C124.339 140.371 126.316 144.616 126.379 149.565C126.482 157.719 126.495 165.875 126.419 174.033C126.388 177.992 123.596 180.675 119.659 180.693C110.979 180.724 102.299 180.71 93.6191 180.693C91.8277 180.693 90.842 179.852 90.8048 178.404C90.7677 176.877 91.8134 175.927 93.622 175.921C97.6448 175.904 101.668 175.921 105.691 175.921H107.553V174.033C107.553 167.147 107.553 160.261 107.553 153.375C107.553 152.846 107.553 152.314 107.588 151.788C107.705 150.432 108.468 149.662 109.811 149.545C110.425 149.495 111.035 149.69 111.508 150.085C111.982 150.481 112.281 151.047 112.342 151.662C112.388 152.137 112.399 152.615 112.376 153.092V175.913C114.948 175.913 117.379 175.961 119.805 175.893C120.979 175.858 121.625 175.103 121.625 173.91C121.625 165.701 121.793 157.486 121.553 149.282C121.368 142.932 115.959 137.379 109.648 136.813C106.408 136.527 103.119 136.762 99.8305 136.762C98.1705 143.878 93.6763 148.017 87.5248 147.863C82.282 147.734 76.6134 144.43 75.4534 136.567C71.4391 136.641 67.3591 136.058 63.3877 137.219C57.6963 138.887 53.6734 144.333 53.6448 150.3C53.6134 157.98 53.6306 165.661 53.6448 173.341C53.6448 175.304 54.2477 175.916 56.1791 175.916C58.342 175.93 60.5048 175.916 62.8906 175.916V174.136C62.8906 167.039 62.8906 159.941 62.8906 152.843C62.8672 152.214 62.9542 151.586 63.1477 150.987C63.5706 149.842 64.5763 149.213 65.6591 149.611C66.4534 149.897 67.1106 150.795 67.6106 151.564C67.8963 151.982 67.7191 152.709 67.7191 153.281C67.7191 160.167 67.7191 167.052 67.7191 173.936V175.83C68.3877 175.861 68.9448 175.907 69.4991 175.907C73.522 175.907 77.5448 175.907 81.5677 175.907C83.4163 175.907 84.4448 176.802 84.4448 178.327C84.4448 179.852 83.4534 180.69 81.5448 180.693C72.9191 180.693 64.2906 180.718 55.6648 180.693C51.6277 180.678 48.8677 177.978 48.8391 173.939C48.7848 166.047 48.7191 158.152 48.8591 150.263C49.002 142.291 52.9648 136.701 60.0906 133.28L61.0277 132.828C57.9448 131.018 54.8963 129.25 51.8848 127.442C49.8363 126.218 47.9791 124.779 46.9877 122.496L46.9648 119.318ZM75.5363 131.59C75.5363 130.503 75.4448 129.447 75.5563 128.412C75.6991 127.102 75.222 126.352 74.1277 125.583C68.3934 121.544 64.7563 116.069 64.142 109.018C63.6934 103.918 63.8763 98.7602 63.8334 93.6285C63.8048 90.1816 65.6591 88.308 69.0934 88.2651C72.002 88.2279 74.9277 88.4339 77.822 88.1965C80.1266 88.0465 82.3975 87.5648 84.5648 86.7662C86.6934 85.931 88.5963 84.495 90.5648 83.2507C91.7734 82.4813 92.9848 82.1809 94.2791 82.8674C95.5734 83.5539 96.2363 84.5837 96.1963 86.0797C96.1705 87.0637 96.1963 88.0506 96.1963 89.3893C97.7934 88.6255 99.1991 88.1307 100.402 87.3326C102.061 86.2013 103.648 84.9669 105.153 83.6369C106.431 82.5385 107.759 82.015 109.353 82.7358C110.948 83.4567 111.442 84.8183 111.436 86.5002C111.406 92.696 111.406 98.8937 111.436 105.093C111.473 113.961 107.913 120.937 100.613 126C100.231 126.264 99.7963 126.761 99.7563 127.176C99.6505 128.638 99.7134 130.108 99.7134 131.867C101.302 131.684 102.753 131.727 104.071 131.327C110.295 129.425 116.187 126.569 121.536 122.86C123.785 121.309 123.808 121.304 122.756 118.806C119.356 110.731 117.351 102.373 117.345 93.5598C117.36 91.3373 117.133 89.1196 116.668 86.9464C112.999 70.6246 97.7534 60.7588 81.382 64.0083C68.7506 66.5198 58.7363 78.0532 58.0306 90.8968C57.8734 93.7572 57.8334 96.6177 57.5848 99.461C56.9791 106.478 54.9306 113.128 52.1563 119.559C51.6106 120.82 51.8706 121.581 52.9706 122.348C57.5587 125.569 62.5378 128.192 67.7877 130.154C70.2048 131.063 72.5934 132.142 75.542 131.59H75.5363ZM68.7506 93.1422C68.7506 98.0422 68.7506 102.642 68.7506 107.239C68.764 108.033 68.8597 108.824 69.0363 109.599C71.3048 119.988 80.2191 126.189 90.7505 124.739C98.6534 123.649 105.873 116.298 106.316 108.374C106.668 102.081 106.491 95.7882 106.536 89.478C106.536 89.4007 106.425 89.3206 106.311 89.1719C106.062 89.3378 105.805 89.4951 105.568 89.6753C102.853 91.7578 99.9305 93.3939 96.5363 94.0862C93.7048 94.6583 91.4991 92.9048 91.4134 90.0043C91.4134 89.6238 91.3391 89.2463 91.2677 88.5741C84.4277 93.843 76.6106 93.3224 68.7506 93.1422ZM80.3791 128.755C80.3506 129.37 80.3106 129.831 80.3134 130.294C80.3134 132.354 80.1706 134.433 80.3934 136.473C80.5529 138.173 81.3181 139.76 82.5492 140.943C83.7803 142.125 85.3953 142.825 87.0991 142.914C90.8448 143.112 94.0334 140.895 94.6105 137.119C95.0191 134.45 94.6905 131.667 94.6905 128.804C90.0185 130.192 85.0417 130.176 80.3791 128.755Z" fill="white"/>
<path d="M130.384 108.501C127.293 108.741 124.65 107.886 122.696 105.48C120.621 102.923 120.313 100.068 121.381 96.9702C121.785 95.8971 121.996 94.7614 122.007 93.6149C121.821 86.5896 123.056 79.9418 126.807 73.8776C133.83 62.5273 147.284 56.506 160.064 59.0347C173.493 61.692 183.661 71.9668 185.904 85.3968C186.399 88.3488 186.207 91.4037 186.364 94.4187C186.396 95.0365 186.43 95.7145 186.699 96.2465C189.841 102.477 184.824 108.947 178.904 108.515C178.566 108.513 178.229 108.531 177.893 108.569C177.104 114.659 174.513 119.774 169.959 123.856C169.712 124.136 169.423 124.376 169.101 124.565C165.733 125.978 166.104 128.767 166.479 131.716C168.959 131.716 171.433 131.716 173.907 131.716C184.89 131.754 193.013 139.912 193.019 150.899V152.807C193.019 155.97 192.359 157.146 190.599 157.114C188.839 157.083 188.313 155.97 188.239 152.727C188.201 150.882 188.196 148.991 187.787 147.212C187.18 144.422 185.697 141.9 183.553 140.016C181.41 138.133 178.72 136.986 175.879 136.745C172.79 136.459 169.653 136.694 166.379 136.694C165.807 140.447 164.141 143.69 160.776 145.87C158.691 147.262 156.216 147.947 153.713 147.827C147.596 147.506 143.564 143.624 141.933 136.279C138.121 136.545 134.161 136.408 130.387 137.18C124.493 138.39 120.324 143.968 120.273 150.018C120.201 157.855 120.241 165.696 120.25 173.534C120.25 175.298 120.861 175.885 122.647 175.896C124.864 175.913 127.079 175.896 129.504 175.896V174.137C129.504 166.879 129.504 159.623 129.504 152.369C129.504 150.45 130.673 149.245 132.267 149.56C133.747 149.846 134.284 150.873 134.267 152.346C134.241 159.549 134.267 166.751 134.267 173.954V175.799H174.07V174.006C174.07 167.07 174.07 160.131 174.07 153.19C174.07 152.561 173.956 151.76 174.279 151.339C174.821 150.615 175.593 149.823 176.416 149.603C177.541 149.3 178.447 150.063 178.779 151.219C178.931 151.832 178.999 152.464 178.979 153.096C178.979 160.613 178.979 168.133 178.979 175.862C181.601 175.862 184.173 175.971 186.727 175.813C187.87 175.742 188.253 174.669 188.25 173.545C188.25 171.108 188.236 168.682 188.25 166.237C188.25 164.483 189.107 163.493 190.599 163.479C192.09 163.465 192.99 164.437 193.001 166.176C193.019 168.772 193.019 171.367 193.001 173.963C192.979 177.841 190.216 180.656 186.307 180.696C182.127 180.742 177.944 180.696 173.764 180.696C156.827 180.696 139.893 180.61 122.959 180.753C118.387 180.791 115.216 177.756 115.284 173.079C115.39 165.719 115.284 158.356 115.321 150.993C115.387 139.809 123.536 131.736 134.724 131.716C137.101 131.716 139.479 131.716 142.081 131.716C142.081 130.109 142.121 128.59 142.05 127.074C142.013 126.875 141.937 126.685 141.825 126.516C141.713 126.348 141.568 126.204 141.399 126.093C135.27 122.034 131.684 116.367 130.604 109.104C130.548 108.897 130.475 108.695 130.384 108.501ZM173.284 100.1H173.113C173.113 97.2934 173.141 94.4873 173.113 91.6812C173.09 89.9821 172.219 89.3471 170.541 89.7046C170.181 89.7819 169.827 89.8877 169.473 89.9907C161.91 92.0845 154.256 93.0886 146.45 91.6412C143.593 91.1148 140.801 90.3568 137.976 89.7161C136.31 89.3413 135.264 90.0021 135.273 91.6126C135.304 97.2734 135.067 102.963 135.579 108.581C136.404 117.657 144.496 124.783 153.639 125.051C162.781 125.32 171.15 118.758 172.693 109.891C173.233 106.69 173.101 103.366 173.284 100.1ZM130.347 91.6698C130.415 90.9972 130.519 90.3288 130.659 89.6674C131.719 85.7658 135.384 83.8721 139.696 85.1164C145.733 86.8642 151.856 88.0656 158.141 87.1931C161.996 86.6582 165.804 85.7629 169.607 84.9048C173.519 84.0294 177.036 86.2063 177.804 90.1165C177.904 90.6257 178.021 91.132 178.139 91.6783L181.61 91.9644C181.516 81.2348 177.413 72.7163 168.227 67.3071C158.187 61.3974 147.97 61.8093 138.413 68.4971C130.413 74.1008 126.747 82.1129 126.936 91.9844L130.347 91.6698ZM161.653 128.701C156.867 130.161 151.758 130.185 146.959 128.77C146.959 131.319 146.921 133.633 146.959 135.964C147.024 139.471 149.816 142.543 153.184 142.875C157.081 143.27 160.627 140.973 161.201 137.291C161.639 134.557 161.519 131.736 161.653 128.701ZM130.381 96.7728C127.301 96.5612 125.633 97.8255 125.659 100.223C125.684 102.62 127.49 103.913 130.381 103.627V96.7728ZM178.13 96.7871V103.621C180.924 103.907 182.893 102.439 182.839 100.142C182.796 98.4291 181.399 96.2179 178.141 96.7871H178.13Z" fill="white"/>
<defs>
<filter id="filter0_d_498_42089" x="0" y="0" width="240" height="240" filterUnits="userSpaceOnUse" color-interpolation-filters="sRGB">
<feFlood flood-opacity="0" result="BackgroundImageFix"/>
<feColorMatrix in="SourceAlpha" type="matrix" values="0 0 0 0 0 0 0 0 0 0 0 0 0 0 0 0 0 0 127 0" result="hardAlpha"/>
<feOffset/>
<feGaussianBlur stdDeviation="10"/>
<feComposite in2="hardAlpha" operator="out"/>
<feColorMatrix type="matrix" values="0 0 0 0 0 0 0 0 0 0 0 0 0 0 0 0 0 0 0.25 0"/>
<feBlend mode="normal" in2="BackgroundImageFix" result="effect1_dropShadow_498_42089"/>
<feBlend mode="normal" in="SourceGraphic" in2="effect1_dropShadow_498_42089" result="shape"/>
</filter>
</defs>
</svg>
