<svg width="100" height="100" viewBox="0 0 100 100" fill="none" xmlns="http://www.w3.org/2000/svg">
<circle cx="50" cy="50" r="50" fill="#AE0168"/>
<path fill-rule="evenodd" clip-rule="evenodd" d="M49.1718 63.826C49.4383 63.9859 49.7234 64.0567 50.0003 64.0532C50.2773 64.0567 50.5623 63.9859 50.8289 63.826L53.1941 62.4069C57.8326 59.6237 63.5055 59.1692 68.528 61.1782C70.3808 61.9193 72.3962 60.5548 72.3962 58.5593V34.27C72.3962 33.0659 71.6631 31.9832 70.5452 31.536C64.0762 28.9484 56.7696 29.5339 50.7952 33.1185L50.0003 33.5954L49.2055 33.1185C43.2311 29.5339 35.9244 28.9484 29.4555 31.536C28.3376 31.9832 27.6045 33.0659 27.6045 34.27V58.5593C27.6045 60.5548 29.6199 61.9193 31.4727 61.1782C36.4952 59.1692 42.1681 59.6237 46.8066 62.4069L49.1718 63.826ZM30.7295 34.3925V58.115C36.5541 55.9316 43.0666 56.5185 48.4144 59.7272L48.4378 59.7413V36.3023L47.5977 35.7982C42.4956 32.7369 36.2635 32.2196 30.7295 34.3925ZM51.5863 59.7272L51.5628 59.7413V36.3023L52.403 35.7982C57.505 32.7369 63.7371 32.2196 69.2712 34.3925V58.115C63.4466 55.9316 56.9341 56.5185 51.5863 59.7272Z" fill="white"/>
<path d="M44.3236 64.6723C40.1072 62.2127 34.8934 62.2127 30.6771 64.6723L30.463 64.7971C29.7176 65.2319 29.4659 66.1887 29.9007 66.9341C30.3355 67.6795 31.2922 67.9312 32.0376 67.4964L32.2517 67.3716C35.495 65.4796 39.5056 65.4796 42.749 67.3716L45.0141 68.6929C48.0953 70.4902 51.9054 70.4902 54.9866 68.6929L57.2517 67.3716C60.495 65.4796 64.5056 65.4796 67.749 67.3716L67.963 67.4964C68.7084 67.9312 69.6652 67.6795 70.1 66.9341C70.5348 66.1887 70.283 65.2319 69.5376 64.7971L69.3236 64.6723C65.1072 62.2127 59.8934 62.2127 55.6771 64.6723L53.412 65.9936C51.3038 67.2233 48.6969 67.2233 46.5887 65.9936L44.3236 64.6723Z" fill="white"/>
</svg>
