<svg width="100" height="100" viewBox="0 0 100 100" fill="none" xmlns="http://www.w3.org/2000/svg">
<circle cx="50" cy="50" r="50" fill="#005E89"/>
<path d="M54.167 37.4993V33.3327H45.8337V37.4993H54.167ZM33.3337 41.666V64.5827H66.667V41.666H33.3337ZM66.667 37.4993C68.9795 37.4993 70.8337 39.3535 70.8337 41.666V64.5827C70.8337 66.8952 68.9795 68.7493 66.667 68.7493H33.3337C31.0212 68.7493 29.167 66.8952 29.167 64.5827L29.1878 41.666C29.1878 39.3535 31.0212 37.4993 33.3337 37.4993H41.667V33.3327C41.667 31.0202 43.5212 29.166 45.8337 29.166H54.167C56.4795 29.166 58.3337 31.0202 58.3337 33.3327V37.4993H66.667Z" fill="white"/>
</svg>
