<svg width="100" height="100" viewBox="0 0 100 100" fill="none" xmlns="http://www.w3.org/2000/svg">
<circle cx="50" cy="50" r="50" fill="#005E89"/>
<path fill-rule="evenodd" clip-rule="evenodd" d="M22.5 36.6663C22.5 27.9218 29.5888 20.833 38.3333 20.833H71.6667C74.8883 20.833 77.5 23.4447 77.5 26.6663V76.6663C77.5 79.888 74.8883 82.4997 71.6667 82.4997H35C28.0964 82.4997 22.5 76.9032 22.5 69.9997V36.6663ZM72.5 26.6663V57.4997H35C32.186 57.4997 29.5892 58.4295 27.5 59.9988V36.6663C27.5 30.6833 32.3502 25.833 38.3333 25.833H49.0263C48.1487 32.4381 48.2275 39.1406 49.2648 45.7331L49.4728 47.0549C49.6217 48.0016 50.2988 48.7799 51.2159 49.0584C52.1329 49.3369 53.1285 49.0667 53.7788 48.3627L58.3334 43.4321L62.8879 48.3627C63.5382 49.0667 64.5338 49.3369 65.4508 49.0584C66.3679 48.7799 67.045 48.0016 67.1939 47.0549L67.4019 45.7331C68.4392 39.1406 68.518 32.4381 67.6404 25.833H71.6667C72.1269 25.833 72.5 26.2061 72.5 26.6663ZM62.593 25.833H54.0737C53.3499 30.8803 53.2293 35.9937 53.7129 41.0653L55.8848 38.714C57.2046 37.2853 59.4621 37.2853 60.7819 38.714L62.9538 41.0653C63.4374 35.9937 63.3168 30.8803 62.593 25.833ZM35 62.4997H72.5V76.6663C72.5 77.1266 72.1269 77.4997 71.6667 77.4997H35C30.8579 77.4997 27.5 74.1418 27.5 69.9997C27.5 65.8575 30.8579 62.4997 35 62.4997Z" fill="white"/>
</svg>
