<svg width="100" height="100" viewBox="0 0 100 100" fill="none" xmlns="http://www.w3.org/2000/svg">
<circle cx="50" cy="50" r="50" fill="#005E89"/>
<path d="M76.667 30.0003H63.3337V23.3337C63.3337 19.6337 60.367 16.667 56.667 16.667H43.3337C39.6337 16.667 36.667 19.6337 36.667 23.3337V30.0003H23.3337C19.6337 30.0003 16.7003 32.967 16.7003 36.667L16.667 73.3337C16.667 77.0337 19.6337 80.0003 23.3337 80.0003H76.667C80.367 80.0003 83.3337 77.0337 83.3337 73.3337V36.667C83.3337 32.967 80.367 30.0003 76.667 30.0003ZM43.3337 23.3337H56.667V30.0003H43.3337V23.3337ZM76.667 73.3337H23.3337V36.667H76.667V73.3337Z" fill="white"/>
</svg>
