<svg width="100" height="100" viewBox="0 0 100 100" fill="none" xmlns="http://www.w3.org/2000/svg">
<circle cx="50" cy="50" r="50" fill="#005E89"/>
<path d="M49.967 16.667C31.567 16.667 16.667 31.6003 16.667 50.0003C16.667 68.4003 31.567 83.3337 49.967 83.3337C68.4003 83.3337 83.3337 68.4003 83.3337 50.0003C83.3337 31.6003 68.4003 16.667 49.967 16.667ZM50.0003 76.667C35.267 76.667 23.3337 64.7337 23.3337 50.0003C23.3337 35.267 35.267 23.3337 50.0003 23.3337C64.7337 23.3337 76.667 35.267 76.667 50.0003C76.667 64.7337 64.7337 76.667 50.0003 76.667ZM51.667 33.3337H46.667V53.3337L64.167 63.8337L66.667 59.7337L51.667 50.8337V33.3337Z" fill="white"/>
</svg>
