<svg width="100" height="100" viewBox="0 0 100 100" fill="none" xmlns="http://www.w3.org/2000/svg">
<circle cx="50" cy="50" r="50" fill="#005E89"/>
<path d="M49.9997 29.6663C53.8663 29.6663 56.9997 32.7997 56.9997 36.6663C56.9997 40.533 53.8663 43.6663 49.9997 43.6663C46.133 43.6663 42.9997 40.533 42.9997 36.6663C42.9997 32.7997 46.133 29.6663 49.9997 29.6663ZM49.9997 59.6663C59.8997 59.6663 70.333 64.533 70.333 66.6663V70.333H29.6663V66.6663C29.6663 64.533 40.0997 59.6663 49.9997 59.6663ZM49.9997 23.333C42.633 23.333 36.6663 29.2997 36.6663 36.6663C36.6663 44.033 42.633 49.9997 49.9997 49.9997C57.3663 49.9997 63.333 44.033 63.333 36.6663C63.333 29.2997 57.3663 23.333 49.9997 23.333ZM49.9997 53.333C41.0997 53.333 23.333 57.7997 23.333 66.6663V76.6663H76.6663V66.6663C76.6663 57.7997 58.8997 53.333 49.9997 53.333Z" fill="white"/>
</svg>
