<svg width="100" height="100" viewBox="0 0 100 100" fill="none" xmlns="http://www.w3.org/2000/svg">
<circle cx="50" cy="50" r="50" fill="#005E89"/>
<path fill-rule="evenodd" clip-rule="evenodd" d="M48.7055 21.0064C49.5172 20.7755 50.3732 20.7752 51.1848 21.0055C52.9099 21.4951 54.6509 21.9492 56.3977 22.4048C64.6005 24.5441 72.9312 26.7169 80.3429 32.7536L83.756 35.5336C85.1404 36.6612 85.833 38.3303 85.8337 39.9997V63.333C85.8337 64.7137 84.7144 65.833 83.3337 65.833C81.953 65.833 80.8337 64.7137 80.8337 63.333V46.8553L80.2906 47.2984C77.7224 49.3942 75.0429 51.0215 72.2964 52.3425C72.4276 52.6463 72.5003 52.9811 72.5003 53.333V67.6461C72.5003 71.4237 70.1829 74.8145 66.6633 76.1867L53.33 81.3848C51.1887 82.2196 48.812 82.2196 46.6707 81.3848L33.3373 76.1867C29.8177 74.8145 27.5003 71.4237 27.5003 67.6461V53.333C27.5003 52.9722 27.5767 52.6293 27.7143 52.3196C24.9464 50.9908 22.2461 49.3539 19.6578 47.2457L16.2447 44.4658C13.4758 42.2106 13.4744 37.7894 16.2408 35.5319L19.7101 32.7009C27.0682 26.6965 35.3401 24.5367 43.4821 22.4108C45.2327 21.9538 46.9773 21.4983 48.7055 21.0064ZM80.8337 40.0017C80.8335 39.7014 80.7122 39.5031 80.5984 39.4104L77.1852 36.6304C70.0003 31.6663 63.5982 29.477 55.4667 27.3402C53.6787 26.8704 51.84 26.3872 49.9469 25.8516C48.0453 26.3911 46.2 26.8765 44.406 27.3485C36.3397 29.4706 29.3111 31.3197 22.8713 36.5748L19.402 39.4058C19.288 39.4988 19.1669 39.6974 19.167 39.9977C19.1671 40.298 19.2884 40.4963 19.4023 40.589L22.8154 43.369C29.3098 48.6586 36.4025 50.5224 44.534 52.6591C46.3221 53.129 48.1605 53.6121 50.0538 54.1477C51.9552 53.6083 53.8004 53.1229 55.5942 52.6509C63.6606 50.5288 70.6896 48.6796 77.1294 43.4246L80.5987 40.5936C80.7125 40.5006 80.8335 40.3015 80.8337 40.0017ZM56.5186 57.5885C60.1846 56.6313 63.8769 55.6672 67.5003 54.3485V67.6461C67.5003 69.3632 66.447 70.9045 64.8471 71.5282L51.5138 76.7264C50.5405 77.1058 49.4602 77.1058 48.4868 76.7264L35.1535 71.5282C33.5537 70.9045 32.5003 69.3632 32.5003 67.6461V54.3202C36.1629 55.6541 39.896 56.6278 43.6029 57.5946C45.3497 58.0502 47.0908 58.5042 48.8159 58.9938C49.6275 59.2241 50.4835 59.2239 51.2951 58.9929C53.0233 58.5011 54.7681 58.0455 56.5186 57.5885Z" fill="white"/>
</svg>
