<svg width="100" height="100" viewBox="0 0 100 100" fill="none" xmlns="http://www.w3.org/2000/svg">
<circle cx="50" cy="50" r="50" fill="#005E89"/>
<path d="M50.0003 16.667C37.1003 16.667 26.667 27.1003 26.667 40.0003C26.667 57.5003 50.0003 83.3337 50.0003 83.3337C50.0003 83.3337 73.3337 57.5003 73.3337 40.0003C73.3337 27.1003 62.9003 16.667 50.0003 16.667ZM33.3337 40.0003C33.3337 30.8003 40.8003 23.3337 50.0003 23.3337C59.2003 23.3337 66.667 30.8003 66.667 40.0003C66.667 49.6003 57.067 63.967 50.0003 72.9337C43.067 64.0337 33.3337 49.5003 33.3337 40.0003Z" fill="white"/>
<path d="M50.0003 48.3337C54.6027 48.3337 58.3337 44.6027 58.3337 40.0003C58.3337 35.398 54.6027 31.667 50.0003 31.667C45.398 31.667 41.667 35.398 41.667 40.0003C41.667 44.6027 45.398 48.3337 50.0003 48.3337Z" fill="white"/>
</svg>
