<svg width="150" height="150" viewBox="0 0 150 150" fill="none" xmlns="http://www.w3.org/2000/svg">
<circle cx="75" cy="75" r="75" fill="#005E89"/>
<path d="M52.25 45.8333C52.5 49.5417 53.125 53.1667 54.125 56.625L49.125 61.625C47.4167 56.625 46.3333 51.3333 45.9583 45.8333H52.25V45.8333ZM93.3333 95.9167C96.875 96.9167 100.5 97.5417 104.167 97.7917V104C98.6667 103.625 93.375 102.542 88.3333 100.875L93.3333 95.9167V95.9167ZM56.25 37.5H41.6667C39.375 37.5 37.5 39.375 37.5 41.6667C37.5 80.7917 69.2083 112.5 108.333 112.5C110.625 112.5 112.5 110.625 112.5 108.333V93.7917C112.5 91.5 110.625 89.625 108.333 89.625C103.167 89.625 98.125 88.7917 93.4583 87.25C93.0417 87.0833 92.5833 87.0417 92.1667 87.0417C91.0833 87.0417 90.0417 87.4583 89.2083 88.25L80.0417 97.4167C68.25 91.375 58.5833 81.75 52.5833 69.9583L61.75 60.7917C62.9167 59.625 63.25 58 62.7917 56.5417C61.25 51.875 60.4167 46.875 60.4167 41.6667C60.4167 39.375 58.5417 37.5 56.25 37.5Z" fill="white"/>
</svg>
