<svg width="150" height="150" viewBox="0 0 150 150" fill="none" xmlns="http://www.w3.org/2000/svg">
<circle cx="75" cy="75" r="75" fill="#005E89"/>
<path d="M83.334 49.9997V41.6663H66.6673V49.9997H83.334ZM41.6673 58.333V104.166H108.334V58.333H41.6673ZM108.334 49.9997C112.959 49.9997 116.667 53.708 116.667 58.333V104.166C116.667 108.791 112.959 112.5 108.334 112.5H41.6673C37.0423 112.5 33.334 108.791 33.334 104.166L33.3757 58.333C33.3757 53.708 37.0423 49.9997 41.6673 49.9997H58.334V41.6663C58.334 37.0413 62.0423 33.333 66.6673 33.333H83.334C87.959 33.333 91.6673 37.0413 91.6673 41.6663V49.9997H108.334Z" fill="white"/>
</svg>
