<svg width="150" height="150" viewBox="0 0 150 150" fill="none" xmlns="http://www.w3.org/2000/svg">
<circle cx="75" cy="75" r="75" fill="#005E89"/>
<path fill-rule="evenodd" clip-rule="evenodd" d="M73.3435 102.65C73.8767 102.97 74.4467 103.111 75.0007 103.105C75.5546 103.111 76.1246 102.97 76.6578 102.65L81.3881 99.8118C90.6652 94.2455 102.011 93.3364 112.056 97.3544C115.762 98.8366 119.792 96.1077 119.792 92.1167V43.538C119.792 41.1299 118.326 38.9644 116.09 38.07C103.152 32.8949 88.5391 34.0658 76.5904 41.2351L75.0007 42.1889L73.4109 41.2351C61.4622 34.0658 46.8489 32.8949 33.911 38.07C31.6751 38.9644 30.209 41.1299 30.209 43.538V92.1167C30.209 96.1077 34.2398 98.8366 37.9453 97.3544C47.9903 93.3364 59.3362 94.2455 68.6132 99.8118L73.3435 102.65ZM36.459 43.7831V91.228C48.1081 86.8613 61.1331 88.035 71.8288 94.4524L71.8757 94.4806V47.6026L70.1953 46.5944C59.9912 40.4719 47.5271 39.4372 36.459 43.7831ZM78.1725 94.4524L78.1257 94.4806V47.6026L79.806 46.5944C90.0101 40.4719 102.474 39.4372 113.542 43.7831V91.228C101.893 86.8613 88.8682 88.035 78.1725 94.4524Z" fill="white"/>
<path d="M63.6472 104.343C55.2144 99.4235 44.7869 99.4235 36.3541 104.343L35.9261 104.592C34.4353 105.462 33.9317 107.375 34.8013 108.866C35.671 110.357 37.5845 110.861 39.0752 109.991L39.5033 109.741C45.9901 105.957 54.0112 105.957 60.498 109.741L65.0282 112.384C71.1906 115.979 78.8107 115.979 84.9731 112.384L89.5034 109.741C95.9901 105.957 104.011 105.957 110.498 109.741L110.926 109.991C112.417 110.861 114.33 110.357 115.2 108.866C116.07 107.375 115.566 105.462 114.075 104.592L113.647 104.343C105.214 99.4235 94.7869 99.4235 86.3542 104.343L81.8239 106.985C77.6075 109.445 72.3938 109.445 68.1774 106.985L63.6472 104.343Z" fill="white"/>
</svg>
